<?xml version="1.0" encoding="utf-8" standalone="no"?>
<!DOCTYPE svg PUBLIC "-//W3C//DTD SVG 1.1//EN"
  "http://www.w3.org/Graphics/SVG/1.1/DTD/svg11.dtd">
<svg xmlns:xlink="http://www.w3.org/1999/xlink" width="460.8pt" height="345.6pt" viewBox="0 0 460.8 345.6" xmlns="http://www.w3.org/2000/svg" version="1.1">
 <metadata>
  <rdf:RDF xmlns:dc="http://purl.org/dc/elements/1.1/" xmlns:cc="http://creativecommons.org/ns#" xmlns:rdf="http://www.w3.org/1999/02/22-rdf-syntax-ns#">
   <cc:Work>
    <dc:type rdf:resource="http://purl.org/dc/dcmitype/StillImage"/>
    <dc:date>2025-08-10T18:41:49.630299</dc:date>
    <dc:format>image/svg+xml</dc:format>
    <dc:creator>
     <cc:Agent>
      <dc:title>Matplotlib v3.9.0, https://matplotlib.org/</dc:title>
     </cc:Agent>
    </dc:creator>
   </cc:Work>
  </rdf:RDF>
 </metadata>
 <defs>
  <style type="text/css">*{stroke-linejoin: round; stroke-linecap: butt}</style>
 </defs>
 <g id="figure_1">
  <g id="patch_1">
   <path d="M 0 345.6 
L 460.8 345.6 
L 460.8 0 
L 0 0 
z
" style="fill: #ffffff"/>
  </g>
  <g id="axes_1">
   <g id="patch_2">
    <path d="M 57.6 307.584 
L 414.72 307.584 
L 414.72 41.472 
L 57.6 41.472 
z
" style="fill: #ffffff"/>
   </g>
   <g id="matplotlib.axis_1">
    <g id="xtick_1">
     <g id="line2d_1">
      <defs>
       <path id="m2dd231a6c4" d="M 0 0 
L 0 3.5 
" style="stroke: #000000; stroke-width: 0.8"/>
      </defs>
      <g>
       <use xlink:href="#m2dd231a6c4" x="73.832727" y="307.584" style="stroke: #000000; stroke-width: 0.8"/>
      </g>
     </g>
     <g id="text_1">
      <!-- 0 -->
      <g transform="translate(70.651477 322.182437) scale(0.1 -0.1)">
       <defs>
        <path id="DejaVuSans-30" d="M 2034 4250 
Q 1547 4250 1301 3770 
Q 1056 3291 1056 2328 
Q 1056 1369 1301 889 
Q 1547 409 2034 409 
Q 2525 409 2770 889 
Q 3016 1369 3016 2328 
Q 3016 3291 2770 3770 
Q 2525 4250 2034 4250 
z
M 2034 4750 
Q 2819 4750 3233 4129 
Q 3647 3509 3647 2328 
Q 3647 1150 3233 529 
Q 2819 -91 2034 -91 
Q 1250 -91 836 529 
Q 422 1150 422 2328 
Q 422 3509 836 4129 
Q 1250 4750 2034 4750 
z
" transform="scale(0.015625)"/>
       </defs>
       <use xlink:href="#DejaVuSans-30"/>
      </g>
     </g>
    </g>
    <g id="xtick_2">
     <g id="line2d_2">
      <g>
       <use xlink:href="#m2dd231a6c4" x="138.77013" y="307.584" style="stroke: #000000; stroke-width: 0.8"/>
      </g>
     </g>
     <g id="text_2">
      <!-- 2000 -->
      <g transform="translate(126.04513 322.182437) scale(0.1 -0.1)">
       <defs>
        <path id="DejaVuSans-32" d="M 1228 531 
L 3431 531 
L 3431 0 
L 469 0 
L 469 531 
Q 828 903 1448 1529 
Q 2069 2156 2228 2338 
Q 2531 2678 2651 2914 
Q 2772 3150 2772 3378 
Q 2772 3750 2511 3984 
Q 2250 4219 1831 4219 
Q 1534 4219 1204 4116 
Q 875 4013 500 3803 
L 500 4441 
Q 881 4594 1212 4672 
Q 1544 4750 1819 4750 
Q 2544 4750 2975 4387 
Q 3406 4025 3406 3419 
Q 3406 3131 3298 2873 
Q 3191 2616 2906 2266 
Q 2828 2175 2409 1742 
Q 1991 1309 1228 531 
z
" transform="scale(0.015625)"/>
       </defs>
       <use xlink:href="#DejaVuSans-32"/>
       <use xlink:href="#DejaVuSans-30" x="63.623047"/>
       <use xlink:href="#DejaVuSans-30" x="127.246094"/>
       <use xlink:href="#DejaVuSans-30" x="190.869141"/>
      </g>
     </g>
    </g>
    <g id="xtick_3">
     <g id="line2d_3">
      <g>
       <use xlink:href="#m2dd231a6c4" x="203.707533" y="307.584" style="stroke: #000000; stroke-width: 0.8"/>
      </g>
     </g>
     <g id="text_3">
      <!-- 4000 -->
      <g transform="translate(190.982533 322.182437) scale(0.1 -0.1)">
       <defs>
        <path id="DejaVuSans-34" d="M 2419 4116 
L 825 1625 
L 2419 1625 
L 2419 4116 
z
M 2253 4666 
L 3047 4666 
L 3047 1625 
L 3713 1625 
L 3713 1100 
L 3047 1100 
L 3047 0 
L 2419 0 
L 2419 1100 
L 313 1100 
L 313 1709 
L 2253 4666 
z
" transform="scale(0.015625)"/>
       </defs>
       <use xlink:href="#DejaVuSans-34"/>
       <use xlink:href="#DejaVuSans-30" x="63.623047"/>
       <use xlink:href="#DejaVuSans-30" x="127.246094"/>
       <use xlink:href="#DejaVuSans-30" x="190.869141"/>
      </g>
     </g>
    </g>
    <g id="xtick_4">
     <g id="line2d_4">
      <g>
       <use xlink:href="#m2dd231a6c4" x="268.644936" y="307.584" style="stroke: #000000; stroke-width: 0.8"/>
      </g>
     </g>
     <g id="text_4">
      <!-- 6000 -->
      <g transform="translate(255.919936 322.182437) scale(0.1 -0.1)">
       <defs>
        <path id="DejaVuSans-36" d="M 2113 2584 
Q 1688 2584 1439 2293 
Q 1191 2003 1191 1497 
Q 1191 994 1439 701 
Q 1688 409 2113 409 
Q 2538 409 2786 701 
Q 3034 994 3034 1497 
Q 3034 2003 2786 2293 
Q 2538 2584 2113 2584 
z
M 3366 4563 
L 3366 3988 
Q 3128 4100 2886 4159 
Q 2644 4219 2406 4219 
Q 1781 4219 1451 3797 
Q 1122 3375 1075 2522 
Q 1259 2794 1537 2939 
Q 1816 3084 2150 3084 
Q 2853 3084 3261 2657 
Q 3669 2231 3669 1497 
Q 3669 778 3244 343 
Q 2819 -91 2113 -91 
Q 1303 -91 875 529 
Q 447 1150 447 2328 
Q 447 3434 972 4092 
Q 1497 4750 2381 4750 
Q 2619 4750 2861 4703 
Q 3103 4656 3366 4563 
z
" transform="scale(0.015625)"/>
       </defs>
       <use xlink:href="#DejaVuSans-36"/>
       <use xlink:href="#DejaVuSans-30" x="63.623047"/>
       <use xlink:href="#DejaVuSans-30" x="127.246094"/>
       <use xlink:href="#DejaVuSans-30" x="190.869141"/>
      </g>
     </g>
    </g>
    <g id="xtick_5">
     <g id="line2d_5">
      <g>
       <use xlink:href="#m2dd231a6c4" x="333.582339" y="307.584" style="stroke: #000000; stroke-width: 0.8"/>
      </g>
     </g>
     <g id="text_5">
      <!-- 8000 -->
      <g transform="translate(320.857339 322.182437) scale(0.1 -0.1)">
       <defs>
        <path id="DejaVuSans-38" d="M 2034 2216 
Q 1584 2216 1326 1975 
Q 1069 1734 1069 1313 
Q 1069 891 1326 650 
Q 1584 409 2034 409 
Q 2484 409 2743 651 
Q 3003 894 3003 1313 
Q 3003 1734 2745 1975 
Q 2488 2216 2034 2216 
z
M 1403 2484 
Q 997 2584 770 2862 
Q 544 3141 544 3541 
Q 544 4100 942 4425 
Q 1341 4750 2034 4750 
Q 2731 4750 3128 4425 
Q 3525 4100 3525 3541 
Q 3525 3141 3298 2862 
Q 3072 2584 2669 2484 
Q 3125 2378 3379 2068 
Q 3634 1759 3634 1313 
Q 3634 634 3220 271 
Q 2806 -91 2034 -91 
Q 1263 -91 848 271 
Q 434 634 434 1313 
Q 434 1759 690 2068 
Q 947 2378 1403 2484 
z
M 1172 3481 
Q 1172 3119 1398 2916 
Q 1625 2713 2034 2713 
Q 2441 2713 2670 2916 
Q 2900 3119 2900 3481 
Q 2900 3844 2670 4047 
Q 2441 4250 2034 4250 
Q 1625 4250 1398 4047 
Q 1172 3844 1172 3481 
z
" transform="scale(0.015625)"/>
       </defs>
       <use xlink:href="#DejaVuSans-38"/>
       <use xlink:href="#DejaVuSans-30" x="63.623047"/>
       <use xlink:href="#DejaVuSans-30" x="127.246094"/>
       <use xlink:href="#DejaVuSans-30" x="190.869141"/>
      </g>
     </g>
    </g>
    <g id="xtick_6">
     <g id="line2d_6">
      <g>
       <use xlink:href="#m2dd231a6c4" x="398.519741" y="307.584" style="stroke: #000000; stroke-width: 0.8"/>
      </g>
     </g>
     <g id="text_6">
      <!-- 10000 -->
      <g transform="translate(382.613491 322.182437) scale(0.1 -0.1)">
       <defs>
        <path id="DejaVuSans-31" d="M 794 531 
L 1825 531 
L 1825 4091 
L 703 3866 
L 703 4441 
L 1819 4666 
L 2450 4666 
L 2450 531 
L 3481 531 
L 3481 0 
L 794 0 
L 794 531 
z
" transform="scale(0.015625)"/>
       </defs>
       <use xlink:href="#DejaVuSans-31"/>
       <use xlink:href="#DejaVuSans-30" x="63.623047"/>
       <use xlink:href="#DejaVuSans-30" x="127.246094"/>
       <use xlink:href="#DejaVuSans-30" x="190.869141"/>
       <use xlink:href="#DejaVuSans-30" x="254.492188"/>
      </g>
     </g>
    </g>
    <g id="text_7">
     <!-- $k$ (Lag) -->
     <g transform="translate(218.71 335.862125) scale(0.1 -0.1)">
      <defs>
       <path id="DejaVuSans-Oblique-6b" d="M 1172 4863 
L 1747 4863 
L 1197 2028 
L 3169 3500 
L 3916 3500 
L 1716 1825 
L 3322 0 
L 2625 0 
L 1131 1709 
L 800 0 
L 225 0 
L 1172 4863 
z
" transform="scale(0.015625)"/>
       <path id="DejaVuSans-20" transform="scale(0.015625)"/>
       <path id="DejaVuSans-28" d="M 1984 4856 
Q 1566 4138 1362 3434 
Q 1159 2731 1159 2009 
Q 1159 1288 1364 580 
Q 1569 -128 1984 -844 
L 1484 -844 
Q 1016 -109 783 600 
Q 550 1309 550 2009 
Q 550 2706 781 3412 
Q 1013 4119 1484 4856 
L 1984 4856 
z
" transform="scale(0.015625)"/>
       <path id="DejaVuSans-4c" d="M 628 4666 
L 1259 4666 
L 1259 531 
L 3531 531 
L 3531 0 
L 628 0 
L 628 4666 
z
" transform="scale(0.015625)"/>
       <path id="DejaVuSans-61" d="M 2194 1759 
Q 1497 1759 1228 1600 
Q 959 1441 959 1056 
Q 959 750 1161 570 
Q 1363 391 1709 391 
Q 2188 391 2477 730 
Q 2766 1069 2766 1631 
L 2766 1759 
L 2194 1759 
z
M 3341 1997 
L 3341 0 
L 2766 0 
L 2766 531 
Q 2569 213 2275 61 
Q 1981 -91 1556 -91 
Q 1019 -91 701 211 
Q 384 513 384 1019 
Q 384 1609 779 1909 
Q 1175 2209 1959 2209 
L 2766 2209 
L 2766 2266 
Q 2766 2663 2505 2880 
Q 2244 3097 1772 3097 
Q 1472 3097 1187 3025 
Q 903 2953 641 2809 
L 641 3341 
Q 956 3463 1253 3523 
Q 1550 3584 1831 3584 
Q 2591 3584 2966 3190 
Q 3341 2797 3341 1997 
z
" transform="scale(0.015625)"/>
       <path id="DejaVuSans-67" d="M 2906 1791 
Q 2906 2416 2648 2759 
Q 2391 3103 1925 3103 
Q 1463 3103 1205 2759 
Q 947 2416 947 1791 
Q 947 1169 1205 825 
Q 1463 481 1925 481 
Q 2391 481 2648 825 
Q 2906 1169 2906 1791 
z
M 3481 434 
Q 3481 -459 3084 -895 
Q 2688 -1331 1869 -1331 
Q 1566 -1331 1297 -1286 
Q 1028 -1241 775 -1147 
L 775 -588 
Q 1028 -725 1275 -790 
Q 1522 -856 1778 -856 
Q 2344 -856 2625 -561 
Q 2906 -266 2906 331 
L 2906 616 
Q 2728 306 2450 153 
Q 2172 0 1784 0 
Q 1141 0 747 490 
Q 353 981 353 1791 
Q 353 2603 747 3093 
Q 1141 3584 1784 3584 
Q 2172 3584 2450 3431 
Q 2728 3278 2906 2969 
L 2906 3500 
L 3481 3500 
L 3481 434 
z
" transform="scale(0.015625)"/>
       <path id="DejaVuSans-29" d="M 513 4856 
L 1013 4856 
Q 1481 4119 1714 3412 
Q 1947 2706 1947 2009 
Q 1947 1309 1714 600 
Q 1481 -109 1013 -844 
L 513 -844 
Q 928 -128 1133 580 
Q 1338 1288 1338 2009 
Q 1338 2731 1133 3434 
Q 928 4138 513 4856 
z
" transform="scale(0.015625)"/>
      </defs>
      <use xlink:href="#DejaVuSans-Oblique-6b" transform="translate(0 0.015625)"/>
      <use xlink:href="#DejaVuSans-20" transform="translate(57.910156 0.015625)"/>
      <use xlink:href="#DejaVuSans-28" transform="translate(89.697266 0.015625)"/>
      <use xlink:href="#DejaVuSans-4c" transform="translate(128.710938 0.015625)"/>
      <use xlink:href="#DejaVuSans-61" transform="translate(184.423828 0.015625)"/>
      <use xlink:href="#DejaVuSans-67" transform="translate(245.703125 0.015625)"/>
      <use xlink:href="#DejaVuSans-29" transform="translate(309.179688 0.015625)"/>
     </g>
    </g>
   </g>
   <g id="matplotlib.axis_2">
    <g id="ytick_1">
     <g id="line2d_7">
      <defs>
       <path id="m84b3f340f0" d="M 0 0 
L -3.5 0 
" style="stroke: #000000; stroke-width: 0.8"/>
      </defs>
      <g>
       <use xlink:href="#m84b3f340f0" x="57.6" y="297.964557" style="stroke: #000000; stroke-width: 0.8"/>
      </g>
     </g>
     <g id="text_8">
      <!-- −0.4 -->
      <g transform="translate(26.317187 301.763776) scale(0.1 -0.1)">
       <defs>
        <path id="DejaVuSans-2212" d="M 678 2272 
L 4684 2272 
L 4684 1741 
L 678 1741 
L 678 2272 
z
" transform="scale(0.015625)"/>
        <path id="DejaVuSans-2e" d="M 684 794 
L 1344 794 
L 1344 0 
L 684 0 
L 684 794 
z
" transform="scale(0.015625)"/>
       </defs>
       <use xlink:href="#DejaVuSans-2212"/>
       <use xlink:href="#DejaVuSans-30" x="83.789062"/>
       <use xlink:href="#DejaVuSans-2e" x="147.412109"/>
       <use xlink:href="#DejaVuSans-34" x="179.199219"/>
      </g>
     </g>
    </g>
    <g id="ytick_2">
     <g id="line2d_8">
      <g>
       <use xlink:href="#m84b3f340f0" x="57.6" y="263.050763" style="stroke: #000000; stroke-width: 0.8"/>
      </g>
     </g>
     <g id="text_9">
      <!-- −0.2 -->
      <g transform="translate(26.317187 266.849982) scale(0.1 -0.1)">
       <use xlink:href="#DejaVuSans-2212"/>
       <use xlink:href="#DejaVuSans-30" x="83.789062"/>
       <use xlink:href="#DejaVuSans-2e" x="147.412109"/>
       <use xlink:href="#DejaVuSans-32" x="179.199219"/>
      </g>
     </g>
    </g>
    <g id="ytick_3">
     <g id="line2d_9">
      <g>
       <use xlink:href="#m84b3f340f0" x="57.6" y="228.136969" style="stroke: #000000; stroke-width: 0.8"/>
      </g>
     </g>
     <g id="text_10">
      <!-- 0.0 -->
      <g transform="translate(34.696875 231.936188) scale(0.1 -0.1)">
       <use xlink:href="#DejaVuSans-30"/>
       <use xlink:href="#DejaVuSans-2e" x="63.623047"/>
       <use xlink:href="#DejaVuSans-30" x="95.410156"/>
      </g>
     </g>
    </g>
    <g id="ytick_4">
     <g id="line2d_10">
      <g>
       <use xlink:href="#m84b3f340f0" x="57.6" y="193.223176" style="stroke: #000000; stroke-width: 0.8"/>
      </g>
     </g>
     <g id="text_11">
      <!-- 0.2 -->
      <g transform="translate(34.696875 197.022394) scale(0.1 -0.1)">
       <use xlink:href="#DejaVuSans-30"/>
       <use xlink:href="#DejaVuSans-2e" x="63.623047"/>
       <use xlink:href="#DejaVuSans-32" x="95.410156"/>
      </g>
     </g>
    </g>
    <g id="ytick_5">
     <g id="line2d_11">
      <g>
       <use xlink:href="#m84b3f340f0" x="57.6" y="158.309382" style="stroke: #000000; stroke-width: 0.8"/>
      </g>
     </g>
     <g id="text_12">
      <!-- 0.4 -->
      <g transform="translate(34.696875 162.1086) scale(0.1 -0.1)">
       <use xlink:href="#DejaVuSans-30"/>
       <use xlink:href="#DejaVuSans-2e" x="63.623047"/>
       <use xlink:href="#DejaVuSans-34" x="95.410156"/>
      </g>
     </g>
    </g>
    <g id="ytick_6">
     <g id="line2d_12">
      <g>
       <use xlink:href="#m84b3f340f0" x="57.6" y="123.395588" style="stroke: #000000; stroke-width: 0.8"/>
      </g>
     </g>
     <g id="text_13">
      <!-- 0.6 -->
      <g transform="translate(34.696875 127.194807) scale(0.1 -0.1)">
       <use xlink:href="#DejaVuSans-30"/>
       <use xlink:href="#DejaVuSans-2e" x="63.623047"/>
       <use xlink:href="#DejaVuSans-36" x="95.410156"/>
      </g>
     </g>
    </g>
    <g id="ytick_7">
     <g id="line2d_13">
      <g>
       <use xlink:href="#m84b3f340f0" x="57.6" y="88.481794" style="stroke: #000000; stroke-width: 0.8"/>
      </g>
     </g>
     <g id="text_14">
      <!-- 0.8 -->
      <g transform="translate(34.696875 92.281013) scale(0.1 -0.1)">
       <use xlink:href="#DejaVuSans-30"/>
       <use xlink:href="#DejaVuSans-2e" x="63.623047"/>
       <use xlink:href="#DejaVuSans-38" x="95.410156"/>
      </g>
     </g>
    </g>
    <g id="ytick_8">
     <g id="line2d_14">
      <g>
       <use xlink:href="#m84b3f340f0" x="57.6" y="53.568" style="stroke: #000000; stroke-width: 0.8"/>
      </g>
     </g>
     <g id="text_15">
      <!-- 1.0 -->
      <g transform="translate(34.696875 57.367219) scale(0.1 -0.1)">
       <use xlink:href="#DejaVuSans-31"/>
       <use xlink:href="#DejaVuSans-2e" x="63.623047"/>
       <use xlink:href="#DejaVuSans-30" x="95.410156"/>
      </g>
     </g>
    </g>
    <g id="text_16">
     <!-- $C(k)$ -->
     <g transform="translate(20.2375 184.828) rotate(-90) scale(0.1 -0.1)">
      <defs>
       <path id="DejaVuSans-Oblique-43" d="M 4447 4306 
L 4319 3641 
Q 4019 3944 3683 4091 
Q 3347 4238 2956 4238 
Q 2422 4238 2017 3981 
Q 1613 3725 1319 3200 
Q 1131 2863 1032 2486 
Q 934 2109 934 1728 
Q 934 1091 1264 756 
Q 1594 422 2222 422 
Q 2656 422 3056 561 
Q 3456 700 3834 978 
L 3688 231 
Q 3316 72 2936 -9 
Q 2556 -91 2175 -91 
Q 1278 -91 773 396 
Q 269 884 269 1753 
Q 269 2309 461 2846 
Q 653 3384 1013 3828 
Q 1394 4300 1883 4525 
Q 2372 4750 3022 4750 
Q 3422 4750 3780 4639 
Q 4138 4528 4447 4306 
z
" transform="scale(0.015625)"/>
      </defs>
      <use xlink:href="#DejaVuSans-Oblique-43" transform="translate(0 0.015625)"/>
      <use xlink:href="#DejaVuSans-28" transform="translate(69.824219 0.015625)"/>
      <use xlink:href="#DejaVuSans-Oblique-6b" transform="translate(108.837891 0.015625)"/>
      <use xlink:href="#DejaVuSans-29" transform="translate(166.748047 0.015625)"/>
     </g>
    </g>
   </g>
   <g id="line2d_15">
    <path d="M 73.832727 53.568 
L 74.25482 128.175538 
L 74.709382 177.633837 
L 75.163944 202.742953 
L 75.488631 212.359475 
L 75.5211 212.418892 
L 75.715912 213.21372 
L 75.780849 213.079002 
L 75.813318 213.174523 
L 75.943193 213.381757 
L 76.040599 213.918278 
L 76.170474 215.019804 
L 76.235411 214.929928 
L 76.26788 214.856525 
L 76.300349 215.048152 
L 76.625036 217.345788 
L 77.047129 222.264052 
L 77.209472 224.003385 
L 77.27441 223.921091 
L 77.696503 225.633933 
L 77.728971 225.599705 
L 78.02119 224.371436 
L 78.216002 222.996145 
L 78.345877 222.488987 
L 78.443283 223.175745 
L 79.060188 231.785502 
L 79.417344 236.847174 
L 79.677094 239.233812 
L 79.709562 239.106519 
L 79.742031 239.090839 
L 79.936843 237.384141 
L 80.488811 224.055357 
L 80.878435 215.067316 
L 80.943373 214.969703 
L 81.26806 217.184541 
L 81.917434 228.065859 
L 81.949903 228.050069 
L 82.01484 227.959791 
L 82.047309 228.09823 
L 82.079777 228.074435 
L 82.144715 228.723594 
L 82.404464 231.28888 
L 82.631745 232.39996 
L 82.696683 232.291834 
L 82.76162 232.069051 
L 82.794089 232.115587 
L 83.183713 233.748816 
L 83.216182 233.66199 
L 83.281119 233.509083 
L 83.378525 232.885248 
L 83.443463 233.053814 
L 83.638275 235.157079 
L 83.865556 237.331401 
L 84.287649 241.803218 
L 84.579867 244.716831 
L 84.807148 246.578504 
L 84.904554 246.305348 
L 85.001961 245.832659 
L 85.164304 243.847392 
L 86.00849 226.093064 
L 86.138365 225.163443 
L 86.203303 225.30318 
L 86.950083 231.790044 
L 87.112426 230.88834 
L 87.859206 221.695042 
L 87.891675 221.81485 
L 87.989081 222.210122 
L 88.054018 222.16834 
L 88.086487 222.141876 
L 88.183893 222.905213 
L 88.573518 233.871959 
L 88.865736 239.894432 
L 88.995611 240.984893 
L 89.02808 240.964717 
L 89.093017 241.129587 
L 89.125486 241.098738 
L 89.222892 241.031587 
L 89.25536 241.082802 
L 89.287829 241.04934 
L 89.547579 239.198649 
L 90.359296 229.104232 
L 90.586577 230.061167 
L 91.235951 241.050875 
L 91.333357 240.566591 
L 91.52817 238.409853 
L 91.852857 235.083544 
L 92.242481 229.770655 
L 92.502231 223.902839 
L 92.729511 222.32185 
L 92.891855 221.74813 
L 92.989261 221.719607 
L 93.119136 222.756973 
L 94.223072 242.217489 
L 94.25554 242.323393 
L 94.320478 242.251455 
L 94.417884 241.79779 
L 94.904914 236.433486 
L 95.132195 233.762868 
L 95.197133 233.610015 
L 95.229602 233.465978 
L 95.26207 233.572797 
L 95.294539 233.706662 
L 95.327008 233.645457 
L 95.424414 233.332561 
L 95.456882 233.370506 
L 95.554289 233.747096 
L 95.586757 233.660288 
L 95.684163 233.224802 
L 96.041319 230.340477 
L 96.106256 229.770531 
L 96.301069 227.89112 
L 96.52835 226.611227 
L 96.625756 225.696174 
L 96.982911 220.964077 
L 97.502411 215.434653 
L 97.534879 215.579425 
L 97.924504 218.480094 
L 98.281659 222.643346 
L 98.346597 222.414169 
L 98.736221 220.009205 
L 98.76869 220.041318 
L 98.898565 220.967591 
L 98.931033 220.690801 
L 99.158314 218.671625 
L 99.190783 218.685582 
L 99.25572 218.87407 
L 99.288189 218.718106 
L 99.450533 218.343676 
L 99.483001 218.480462 
L 99.51547 218.226793 
L 99.677814 217.502218 
L 99.77522 216.68171 
L 99.840157 216.976232 
L 100.002501 218.969063 
L 100.26225 225.235656 
L 100.554469 232.603186 
L 101.00903 239.428035 
L 101.171374 238.84801 
L 101.236311 238.974582 
L 101.560998 240.487133 
L 101.625936 240.821942 
L 101.658404 240.550863 
L 101.885685 240.289164 
L 101.983091 240.135951 
L 102.599997 236.758253 
L 102.632465 236.629738 
L 102.664934 236.722851 
L 102.729872 237.324011 
L 102.989621 240.120452 
L 103.249371 241.008873 
L 103.444183 242.675742 
L 103.541589 242.44231 
L 104.288369 237.858426 
L 104.7754 230.663191 
L 105.26243 228.054244 
L 105.684523 222.892798 
L 105.716992 222.685561 
L 105.781929 222.755961 
L 105.814398 222.85941 
L 106.00921 224.228544 
L 106.139085 224.962638 
L 106.398835 226.963611 
L 106.691053 230.056038 
L 106.918334 231.753242 
L 107.470302 239.084614 
L 108.152145 242.997316 
L 108.379426 245.498428 
L 108.639175 247.237377 
L 108.671644 247.120463 
L 108.833987 245.603 
L 109.256081 240.43452 
L 109.710642 235.029373 
L 109.77558 234.881391 
L 109.808048 235.04433 
L 109.937923 235.435985 
L 109.970392 235.30495 
L 110.035329 235.467206 
L 110.26261 236.625353 
L 110.295079 236.574595 
L 110.327548 236.561751 
L 111.139265 229.305948 
L 111.52889 223.360089 
L 111.853577 221.400304 
L 111.918514 221.47962 
L 112.697763 228.867387 
L 112.730232 228.685173 
L 113.02245 226.248734 
L 113.054919 226.323257 
L 113.282199 227.494025 
L 113.736761 231.04059 
L 113.834167 230.77731 
L 114.353667 226.768561 
L 114.418604 226.804679 
L 114.451073 226.73072 
L 114.483541 226.627267 
L 114.580948 226.678853 
L 114.613416 226.634439 
L 114.938103 228.049865 
L 114.970572 227.963463 
L 115.035509 227.782242 
L 115.067978 227.888524 
L 115.165384 228.447532 
L 115.425134 230.402905 
L 115.490071 230.640873 
L 115.555009 230.863939 
L 115.587477 230.821097 
L 115.912164 228.114585 
L 116.171914 225.332244 
L 116.334257 223.110266 
L 116.626476 220.239064 
L 116.723882 220.384038 
L 116.756351 220.262519 
L 116.983631 218.658294 
L 117.081038 218.96063 
L 117.178444 219.738892 
L 117.600537 224.971393 
L 117.697943 224.59321 
L 117.76288 224.658497 
L 117.892755 224.300814 
L 118.055099 223.045658 
L 118.412254 220.640124 
L 118.834347 217.675455 
L 118.996691 216.95623 
L 119.02916 216.837796 
L 119.094097 217.01478 
L 119.159034 217.666428 
L 119.678534 225.285043 
L 119.711002 225.272233 
L 119.873346 226.543774 
L 120.814938 236.570464 
L 120.847407 236.453232 
L 121.00975 235.406153 
L 121.2695 228.566 
L 121.496781 225.71109 
L 121.659124 223.739873 
L 122.048749 219.545362 
L 122.308498 217.819941 
L 122.405905 218.215242 
L 122.470842 218.73001 
L 123.087747 223.651112 
L 123.217622 223.759762 
L 123.28256 223.816531 
L 123.379966 224.132653 
L 123.412434 224.247181 
L 123.477372 224.2173 
L 123.639715 223.710691 
L 123.672184 223.842546 
L 124.094277 227.396225 
L 124.256621 228.594701 
L 124.418964 228.051846 
L 124.451433 228.097974 
L 124.548839 228.225061 
L 124.841057 224.956493 
L 125.035869 223.525023 
L 125.068338 223.52859 
L 125.100807 223.342107 
L 125.165744 223.516825 
L 125.393025 224.550283 
L 125.490431 224.919391 
L 125.5229 224.742666 
L 125.717712 225.371118 
L 125.815118 226.033291 
L 125.847587 225.992957 
L 125.977462 225.736503 
L 126.074868 226.350879 
L 126.983991 242.124497 
L 127.178804 243.935417 
L 127.211272 243.920545 
L 127.471022 242.292698 
L 127.568428 242.419742 
L 127.76324 243.030276 
L 127.795709 242.91921 
L 128.02299 242.268934 
L 128.055459 242.386131 
L 128.120396 242.373779 
L 128.185333 242.662376 
L 128.217802 242.527961 
L 128.445083 240.005523 
L 128.867176 235.383641 
L 128.899645 235.283376 
L 128.964582 235.382458 
L 128.997051 235.420815 
L 129.256801 236.73607 
L 129.451613 235.943781 
L 129.51655 236.160542 
L 129.743831 238.423944 
L 129.841237 238.120549 
L 130.036049 237.275018 
L 130.068518 237.442511 
L 130.100987 237.507527 
L 130.26333 235.952645 
L 130.555549 230.421325 
L 130.880236 224.699659 
L 130.945173 224.199746 
L 131.01011 224.329114 
L 131.042579 224.269299 
L 131.075048 224.42226 
L 131.139985 224.896274 
L 131.789359 233.715265 
L 131.919234 234.363466 
L 131.984172 234.209447 
L 132.114046 234.276718 
L 132.601077 237.453458 
L 132.633546 237.56386 
L 132.666014 237.466057 
L 133.153045 234.068191 
L 133.185513 234.279585 
L 133.28292 235.295333 
L 133.705013 242.3601 
L 133.802419 242.392096 
L 133.834887 242.494894 
L 133.899825 242.402847 
L 134.0297 242.484372 
L 134.159575 242.315335 
L 134.224512 242.272811 
L 134.938823 232.840911 
L 135.360916 226.349047 
L 135.393385 226.310657 
L 135.555729 224.443025 
L 135.718072 222.636958 
L 135.750541 222.673901 
L 135.847947 223.814622 
L 136.334977 229.776933 
L 136.497321 231.915184 
L 136.789539 234.789272 
L 136.854477 235.115775 
L 136.919414 234.976868 
L 136.951883 234.959099 
L 137.081758 233.582276 
L 137.7636 219.154099 
L 138.02335 216.851581 
L 138.088287 217.061098 
L 138.2831 218.281718 
L 138.575318 222.480698 
L 138.802599 224.847875 
L 138.932474 225.474728 
L 138.964942 225.44907 
L 139.094817 225.055571 
L 139.127286 225.13103 
L 139.549379 227.364435 
L 139.809129 225.320208 
L 139.971472 224.209132 
L 140.036409 224.086542 
L 140.068878 224.120379 
L 140.133816 224.224729 
L 140.166284 224.198965 
L 140.588377 221.212772 
L 140.620846 221.298223 
L 140.653315 221.363581 
L 140.78319 220.57881 
L 140.848127 220.703423 
L 140.913064 221.007236 
L 141.237751 222.949727 
L 141.27022 222.896144 
L 141.367626 222.544198 
L 141.594907 221.602373 
L 141.627376 221.669692 
L 141.692313 221.601067 
L 141.887125 220.599958 
L 141.952063 220.829122 
L 142.341687 223.063728 
L 142.374156 222.990421 
L 142.471562 222.461413 
L 142.568968 222.610415 
L 142.601437 222.625276 
L 142.666374 222.37877 
L 142.698843 222.538474 
L 142.731312 222.651826 
L 142.828718 222.598302 
L 142.958593 222.537881 
L 143.380686 226.615898 
L 143.77031 232.366634 
L 143.802779 232.123863 
L 143.997591 230.640103 
L 144.03006 230.67367 
L 144.094997 230.427211 
L 144.711902 224.759853 
L 145.069058 218.422292 
L 145.296339 216.681741 
L 145.491151 218.375411 
L 146.237931 230.630554 
L 146.692493 234.219443 
L 146.724962 234.175694 
L 147.082118 229.144156 
L 147.309399 226.614065 
L 147.439273 225.714621 
L 147.601617 225.760603 
L 147.666554 225.652387 
L 147.699023 225.814794 
L 147.893835 227.176493 
L 148.088647 228.399302 
L 148.153585 228.485258 
L 148.186054 228.317656 
L 148.413334 227.020017 
L 148.575678 224.686592 
L 148.640615 224.822808 
L 148.738021 225.525778 
L 148.802959 225.348959 
L 148.932834 224.669515 
L 148.997771 224.769239 
L 149.192583 225.433871 
L 149.257521 225.285035 
L 149.419864 223.979202 
L 149.906895 213.429139 
L 150.004301 214.126752 
L 150.296519 218.333784 
L 150.751081 228.688484 
L 151.075768 233.249317 
L 151.335518 234.890811 
L 151.400455 234.981462 
L 151.432924 234.90005 
L 151.562798 233.699178 
L 151.692673 232.868502 
L 151.757611 232.911149 
L 151.822548 232.816721 
L 152.01736 234.194698 
L 152.244641 236.808561 
L 152.342047 237.774956 
L 152.569328 240.165917 
L 152.634266 240.35973 
L 152.666734 240.300072 
L 152.926484 238.897416 
L 153.28364 235.668336 
L 153.673264 228.893228 
L 153.997951 221.512544 
L 154.257701 219.381856 
L 154.290169 219.409303 
L 154.355107 219.309391 
L 154.387575 219.230809 
L 154.420044 219.315679 
L 154.647325 221.215457 
L 154.712262 220.841455 
L 154.7772 220.293005 
L 154.842137 220.386152 
L 155.134356 222.278658 
L 155.329168 223.259341 
L 155.459043 224.25259 
L 155.78373 227.141836 
L 155.978542 227.994426 
L 156.108417 228.560501 
L 156.140885 228.500244 
L 156.205823 228.301311 
L 156.27076 227.904434 
L 156.53051 224.246086 
L 157.01754 213.7797 
L 157.407165 211.4675 
L 157.439633 211.614517 
L 157.569508 212.686827 
L 157.894195 215.356466 
L 158.02407 215.637837 
L 158.056539 215.625342 
L 158.089007 215.646472 
L 158.121476 215.565388 
L 158.186414 215.566463 
L 158.348757 216.1061 
L 158.381226 215.990165 
L 158.478632 215.787301 
L 158.511101 215.868372 
L 158.640975 216.976335 
L 158.933194 220.154795 
L 159.192943 222.36745 
L 159.322818 223.44893 
L 160.004661 234.279999 
L 160.102067 234.743465 
L 160.134536 234.723019 
L 160.26441 234.905986 
L 160.296879 234.783448 
L 160.654035 232.791613 
L 160.686504 232.74609 
L 161.693033 222.688436 
L 161.757971 222.720567 
L 161.790439 222.744329 
L 161.822908 222.63565 
L 161.952783 222.503287 
L 162.115126 223.613138 
L 162.212533 224.092471 
L 162.245001 224.061642 
L 162.27747 224.093725 
L 162.309939 224.019214 
L 162.53722 222.760918 
L 162.569688 222.765951 
L 162.634626 222.824754 
L 162.667094 222.779712 
L 162.861907 222.232301 
L 162.894375 222.316467 
L 163.121656 224.084521 
L 163.154125 223.947378 
L 163.673624 220.689144 
L 163.77103 220.721236 
L 164.03078 219.069059 
L 164.095717 219.156879 
L 164.193123 219.337857 
L 164.225592 219.273632 
L 164.258061 219.17862 
L 164.322998 219.331068 
L 164.387936 219.487757 
L 164.452873 219.413401 
L 164.550279 219.589354 
L 164.712623 221.133771 
L 164.907435 223.436865 
L 164.972372 223.361455 
L 165.03731 223.163966 
L 165.102247 223.247968 
L 165.426934 224.415135 
L 165.459403 224.281108 
L 165.686684 223.360861 
L 165.719152 223.422693 
L 165.751621 223.349491 
L 166.043839 224.904754 
L 166.141245 224.80724 
L 166.238652 224.557791 
L 166.336058 224.119015 
L 166.400995 224.146549 
L 166.465932 224.165981 
L 166.855557 225.948919 
L 166.985432 226.299376 
L 167.050369 226.084874 
L 167.180244 226.13724 
L 167.310119 226.619818 
L 167.375056 226.403406 
L 167.439993 226.312746 
L 167.472462 226.399471 
L 167.732212 227.86676 
L 167.862087 228.739527 
L 167.894555 228.674448 
L 168.089367 228.066336 
L 168.251711 226.829777 
L 168.28418 226.931747 
L 168.511461 227.489805 
L 168.576398 227.844242 
L 168.77121 228.880792 
L 168.803679 228.924003 
L 168.836148 228.842949 
L 168.901085 228.746046 
L 168.933554 228.849364 
L 169.355647 231.86118 
L 169.582928 234.209874 
L 169.842677 235.663097 
L 169.972552 236.350505 
L 170.005021 236.266325 
L 170.297239 235.021639 
L 170.362177 234.864851 
L 170.427114 234.964822 
L 170.52452 235.397133 
L 170.556989 235.169625 
L 170.621926 234.590981 
L 171.173894 224.906827 
L 171.368706 223.560257 
L 171.401175 223.582596 
L 171.466112 223.875688 
L 171.888206 228.268317 
L 172.375236 231.461329 
L 172.407705 231.443468 
L 172.440173 231.417129 
L 172.699923 234.834157 
L 172.927204 236.692929 
L 173.057079 237.304325 
L 173.219422 237.813558 
L 173.316828 237.060329 
L 173.511641 235.817157 
L 173.544109 235.807086 
L 173.738922 236.853522 
L 174.03114 238.911326 
L 174.290889 239.892747 
L 174.453233 240.502825 
L 175.005201 237.781048 
L 175.394825 237.156723 
L 175.622106 238.47623 
L 175.654575 238.310792 
L 175.881856 235.059352 
L 175.979262 235.190066 
L 176.011731 235.127137 
L 176.044199 235.159692 
L 176.27148 236.420392 
L 176.433824 235.729786 
L 176.693573 233.838792 
L 176.726042 233.976585 
L 176.790979 234.27948 
L 176.823448 234.109142 
L 176.920854 233.461724 
L 177.342947 230.415798 
L 177.440353 230.650319 
L 177.472822 230.640863 
L 177.700103 231.515343 
L 178.317008 233.778188 
L 178.414415 233.432613 
L 178.576758 231.829135 
L 179.063789 226.715625 
L 179.550819 223.884531 
L 179.583288 223.958351 
L 179.810569 224.773698 
L 180.622286 219.113026 
L 180.654755 219.160153 
L 180.752161 219.30217 
L 180.78463 219.210397 
L 181.109317 216.952104 
L 181.336598 215.49905 
L 181.726222 213.407309 
L 181.758691 213.414426 
L 181.888566 213.825713 
L 182.050909 215.485556 
L 182.083378 215.425808 
L 182.375596 214.691973 
L 182.408065 214.72985 
L 183.28472 219.790756 
L 183.317188 219.832608 
L 183.544469 221.575271 
L 183.576938 221.500999 
L 183.706813 221.054089 
L 183.739282 221.10769 
L 183.77175 221.15847 
L 183.804219 221.059741 
L 183.934094 220.401079 
L 183.966562 220.430428 
L 184.096437 220.573341 
L 184.680874 224.658738 
L 184.713343 224.652165 
L 184.77828 224.565704 
L 184.875686 225.205235 
L 184.973092 225.027874 
L 185.102967 225.776445 
L 185.492591 228.808285 
L 185.52506 228.838329 
L 185.622466 228.025085 
L 185.687404 228.139002 
L 185.752341 227.777862 
L 185.817278 227.968369 
L 185.882216 228.105854 
L 186.044559 228.728093 
L 186.109497 229.123779 
L 186.434184 232.710699 
L 186.628996 233.153158 
L 186.986152 231.186655 
L 187.051089 231.377202 
L 187.083558 231.318719 
L 187.440714 229.523247 
L 187.505651 229.74965 
L 188.02515 233.486992 
L 188.057619 233.402235 
L 188.155025 232.89287 
L 188.252431 233.129734 
L 188.414775 234.027588 
L 188.479712 233.909348 
L 188.577118 233.488098 
L 188.642055 233.583681 
L 188.739462 233.859956 
L 188.77193 233.741955 
L 188.934274 231.68312 
L 189.194023 228.793227 
L 190.330428 219.206197 
L 190.395365 219.474044 
L 190.590178 221.242492 
L 190.914865 224.719153 
L 191.304489 226.570549 
L 191.759051 231.27095 
L 191.79152 231.299205 
L 192.0188 233.059285 
L 192.27855 235.620463 
L 192.311019 235.632508 
L 192.375956 235.834897 
L 192.408425 235.724894 
L 192.862987 233.042599 
L 193.02533 232.716739 
L 193.057799 232.769236 
L 193.479892 235.007681 
L 193.642235 236.305627 
L 193.674704 236.208631 
L 193.837048 235.964367 
L 193.966923 236.342582 
L 194.03186 236.283089 
L 194.194203 235.448491 
L 194.876046 228.202329 
L 195.103327 228.47568 
L 195.330608 230.53895 
L 195.557889 232.877058 
L 195.687764 233.22069 
L 195.817638 232.621847 
L 195.850107 232.838262 
L 195.979982 233.114665 
L 196.53195 230.150695 
L 196.629356 230.458509 
L 196.694293 230.531806 
L 196.824168 231.055118 
L 196.856637 231.045997 
L 197.01898 229.716423 
L 197.148855 228.542557 
L 197.181324 228.620932 
L 197.311199 229.440952 
L 197.506011 230.505174 
L 197.603417 231.202425 
L 197.863167 233.169988 
L 197.895635 233.327687 
L 197.993041 233.302325 
L 198.187854 233.658765 
L 198.252791 233.547553 
L 198.28526 233.59497 
L 198.512541 234.662095 
L 198.545009 234.588707 
L 198.77229 233.81439 
L 198.999571 232.941392 
L 199.226852 231.844789 
L 199.356727 231.480543 
L 199.421664 231.552689 
L 199.454133 231.515354 
L 199.486602 231.436724 
L 199.51907 231.540534 
L 199.713883 232.019985 
L 199.811289 231.838426 
L 199.908695 231.776815 
L 200.03857 231.638909 
L 200.071038 231.692568 
L 200.168444 232.327983 
L 200.687944 239.974932 
L 200.78535 239.765977 
L 200.980162 240.417934 
L 201.045099 240.189888 
L 201.142506 239.651856 
L 201.694473 233.5526 
L 201.889286 232.151063 
L 202.116567 230.412985 
L 202.149035 230.489848 
L 202.246441 230.2886 
L 202.27891 230.445951 
L 202.311379 230.485879 
L 202.343847 230.397992 
L 202.668534 228.787522 
L 203.058159 230.012096 
L 203.220502 228.876826 
L 203.902345 222.41237 
L 203.967283 222.180841 
L 203.999751 222.310897 
L 204.389376 223.988871 
L 204.454313 224.235069 
L 204.876406 228.322362 
L 205.136156 230.383971 
L 205.233562 229.715446 
L 205.428374 227.72251 
L 205.460843 227.741541 
L 205.52578 227.885821 
L 205.720592 228.279585 
L 205.753061 228.228316 
L 205.947873 225.701823 
L 206.662185 215.985306 
L 206.79206 215.414378 
L 206.824528 215.464086 
L 206.889466 215.614128 
L 207.246621 219.871761 
L 208.155745 234.992843 
L 208.220682 235.17959 
L 208.253151 234.988576 
L 208.318089 234.560258 
L 208.837588 226.529727 
L 209.064869 223.207727 
L 209.194743 222.605942 
L 209.227212 222.616456 
L 209.389556 223.07666 
L 209.422024 223.034077 
L 209.454493 223.120868 
L 209.551899 223.192755 
L 209.941524 229.102859 
L 210.233742 232.362814 
L 210.428554 232.860044 
L 210.688304 234.424345 
L 210.753241 234.030479 
L 210.980522 232.955029 
L 211.012991 233.049518 
L 211.922114 238.753593 
L 211.987052 238.579707 
L 212.311739 236.010439 
L 212.474082 234.136315 
L 212.53902 234.39039 
L 212.603957 234.512816 
L 212.636426 234.361517 
L 212.668895 234.282022 
L 212.701363 234.365188 
L 212.863707 234.949254 
L 212.961113 235.272602 
L 213.188394 234.293833 
L 213.2858 234.115461 
L 213.383206 233.307485 
L 213.675424 230.519688 
L 213.805299 229.770034 
L 213.935174 228.169956 
L 214.357267 223.434033 
L 214.389736 223.579137 
L 214.584548 224.783986 
L 214.876766 227.414862 
L 214.909235 227.414489 
L 215.071578 228.451116 
L 215.136516 228.297799 
L 215.201453 228.120406 
L 215.850827 223.110748 
L 215.915765 223.28556 
L 215.948233 223.403332 
L 216.045639 223.364928 
L 216.175514 223.597828 
L 216.207983 223.437415 
L 216.337858 222.628361 
L 216.402795 222.693727 
L 216.467733 222.8189 
L 216.500201 222.776208 
L 216.630076 222.588806 
L 216.727482 223.59637 
L 217.019701 229.979422 
L 217.311919 235.066497 
L 217.474262 235.52046 
L 217.506731 235.460993 
L 218.058699 231.58389 
L 218.123636 231.833121 
L 218.513261 234.628864 
L 218.578198 234.769087 
L 218.675604 234.271256 
L 218.708073 234.361665 
L 218.935354 235.663053 
L 219.03276 235.510497 
L 219.324978 234.096076 
L 219.357447 234.3043 
L 219.682134 236.888266 
L 219.714603 236.809656 
L 219.909415 235.572626 
L 220.03929 234.971869 
L 220.071758 235.129059 
L 220.136696 235.323426 
L 220.169165 235.302973 
L 220.266571 234.629005 
L 220.428914 233.568326 
L 220.461383 233.669206 
L 220.493852 233.691575 
L 220.883476 231.58031 
L 221.240632 228.10637 
L 221.2731 228.056801 
L 221.305569 228.109766 
L 221.727662 230.497296 
L 221.760131 230.627305 
L 221.825068 230.468707 
L 222.377036 225.646888 
L 222.864067 219.086246 
L 223.123816 217.35028 
L 223.28616 216.165066 
L 223.513441 217.108513 
L 223.77319 221.84582 
L 224.422564 235.30671 
L 224.552439 235.714698 
L 224.584908 235.667681 
L 224.714783 234.560084 
L 225.104407 231.186419 
L 225.169345 231.236416 
L 225.201813 231.12576 
L 226.046 227.787223 
L 226.175874 227.640856 
L 226.53303 225.747039 
L 226.662905 226.697796 
L 226.955123 229.101213 
L 227.149935 230.433473 
L 227.182404 230.406064 
L 227.312279 230.452556 
L 227.507091 228.063002 
L 227.701903 226.62191 
L 227.766841 226.525608 
L 227.929184 225.572034 
L 228.123996 223.684081 
L 228.188934 223.717803 
L 228.28634 223.787224 
L 228.481152 224.493271 
L 229.03312 227.250305 
L 229.098057 227.644845 
L 229.162995 227.593655 
L 229.357807 226.646463 
L 229.650025 224.904879 
L 229.714963 224.87359 
L 229.877306 223.621215 
L 230.331868 219.269566 
L 230.461743 219.856606 
L 230.559149 220.160417 
L 230.591618 220.083969 
L 230.721493 219.73133 
L 230.753961 219.799686 
L 230.851367 220.121034 
L 231.013711 222.462838 
L 231.403335 229.849167 
L 231.630616 231.643175 
L 231.663085 231.606165 
L 231.955303 230.48355 
L 232.215053 228.02203 
L 232.442334 226.398854 
L 232.474802 226.413552 
L 232.604677 226.865689 
L 232.637146 226.74118 
L 232.734552 226.419404 
L 232.767021 226.468445 
L 232.864427 226.48749 
L 232.896896 226.360127 
L 232.961833 226.510498 
L 233.221583 227.783488 
L 233.254051 227.874089 
L 233.28652 227.857475 
L 233.513801 226.892439 
L 233.611207 227.240636 
L 233.643676 227.114753 
L 233.806019 226.627621 
L 233.838488 226.648329 
L 234.195644 228.333121 
L 234.228112 228.136539 
L 234.29305 227.86995 
L 234.455393 226.532301 
L 234.487862 226.607045 
L 234.682674 225.820375 
L 234.812549 224.552812 
L 234.974892 223.851056 
L 235.007361 223.865617 
L 235.591798 227.879435 
L 236.403515 234.335979 
L 236.435984 234.431561 
L 236.500921 234.358918 
L 236.630796 234.187988 
L 236.728202 234.58068 
L 236.79314 234.285424 
L 237.247701 231.185673 
L 237.28017 231.165618 
L 237.345108 230.925806 
L 237.377576 231.025891 
L 237.442514 231.218765 
L 237.507451 231.149772 
L 237.669795 230.637538 
L 237.897076 229.947228 
L 238.059419 230.149851 
L 238.513981 233.047547 
L 238.611387 233.756552 
L 238.676324 233.693837 
L 238.77373 233.601855 
L 239.03348 234.885635 
L 239.098417 234.745851 
L 239.325698 233.977638 
L 239.390636 233.806976 
L 239.585448 231.599568 
L 239.747792 230.949231 
L 239.975072 229.823122 
L 240.52704 224.701322 
L 240.591978 224.810518 
L 240.656915 225.178243 
L 240.721853 225.068114 
L 240.949133 224.454865 
L 241.111477 224.148774 
L 241.241352 223.40333 
L 241.27382 223.493767 
L 241.630976 226.335364 
L 241.825788 228.671168 
L 241.890726 228.857092 
L 242.247882 232.108258 
L 242.345288 231.489591 
L 242.702443 227.86452 
L 242.767381 228.127769 
L 242.832318 228.302492 
L 242.864787 228.207076 
L 242.897256 228.104421 
L 242.929724 228.152794 
L 243.189474 229.102126 
L 243.351817 228.615314 
L 243.416755 228.733126 
L 243.514161 229.281338 
L 243.77391 230.277473 
L 243.903785 228.901764 
L 244.163535 226.245481 
L 244.358347 225.111859 
L 244.390816 225.201681 
L 244.520691 225.379882 
L 244.553159 225.345498 
L 244.618097 225.2132 
L 244.650565 225.233514 
L 244.845378 226.286047 
L 244.942784 226.921249 
L 245.007721 226.912735 
L 245.105127 226.820834 
L 245.170065 226.607095 
L 245.202533 226.731749 
L 245.624626 228.977205 
L 245.657095 228.874278 
L 245.754501 228.674458 
L 245.819439 228.768452 
L 245.851907 228.818191 
L 245.884376 228.68055 
L 245.981782 227.587243 
L 246.955843 211.538822 
L 247.345468 208.544461 
L 247.410405 208.430826 
L 247.605217 208.171526 
L 248.059779 210.011573 
L 248.092248 209.850391 
L 248.514341 207.081397 
L 248.54681 207.142028 
L 248.644216 206.849546 
L 248.676684 206.967585 
L 248.936434 209.103396 
L 249.261121 212.758426 
L 249.520871 217.639587 
L 250.007901 227.308611 
L 250.267651 229.385844 
L 250.429994 230.634574 
L 250.462463 230.594379 
L 250.559869 230.563136 
L 250.592338 230.593806 
L 250.722213 231.233968 
L 250.754681 231.153062 
L 251.923555 219.811674 
L 252.183304 217.920359 
L 252.378116 217.058227 
L 252.410585 217.239348 
L 253.254771 223.82265 
L 253.319709 223.686992 
L 253.611927 222.077658 
L 253.644396 222.109781 
L 253.676864 222.10884 
L 253.969083 223.743835 
L 254.683394 229.095277 
L 254.748332 229.068641 
L 255.04055 227.990929 
L 255.235362 226.763006 
L 255.78733 223.602177 
L 255.819799 223.689952 
L 255.982142 224.882296 
L 256.599048 230.363544 
L 256.728922 230.671577 
L 256.858797 230.583579 
L 256.956203 231.423325 
L 258.125077 240.771419 
L 258.190014 240.530504 
L 258.417295 238.467905 
L 258.904325 231.507718 
L 259.0342 231.375427 
L 259.066669 231.424407 
L 259.196544 232.038318 
L 259.326418 232.785712 
L 259.358887 232.629565 
L 259.521231 232.220142 
L 259.910855 234.281971 
L 259.943324 234.094076 
L 260.203073 232.563573 
L 260.560229 228.988268 
L 260.755041 228.124935 
L 260.78751 228.165624 
L 260.852447 228.443233 
L 261.371947 232.111545 
L 261.664165 232.677129 
L 261.761571 232.229503 
L 261.858977 231.776335 
L 261.891446 231.791693 
L 261.956383 231.771395 
L 262.216133 231.282954 
L 262.313539 231.520695 
L 262.378476 231.454024 
L 262.475882 230.411498 
L 262.638226 228.924016 
L 262.735632 229.085818 
L 262.768101 228.958857 
L 263.190194 227.236133 
L 263.255131 227.165458 
L 263.2876 227.262402 
L 263.385006 227.997751 
L 263.644756 230.006408 
L 263.742162 230.290205 
L 264.03438 231.680622 
L 264.586348 233.450129 
L 264.78116 234.503759 
L 264.878566 233.784342 
L 265.203253 230.551283 
L 265.333128 229.177721 
L 265.625347 225.783339 
L 265.820159 225.035737 
L 266.079908 223.068973 
L 266.274721 222.601611 
L 266.307189 222.618677 
L 267.735812 233.718956 
L 267.963093 234.339849 
L 268.417655 237.959629 
L 268.515061 238.266925 
L 268.579998 238.175432 
L 268.709873 237.482921 
L 269.131966 234.905766 
L 269.164435 234.945564 
L 269.391716 235.424265 
L 269.456653 235.368348 
L 269.554059 235.448605 
L 269.651466 235.628963 
L 269.683934 235.563097 
L 270.170965 231.557623 
L 270.593058 227.055065 
L 270.690464 226.841296 
L 270.885276 226.248079 
L 270.982682 226.571429 
L 271.015151 226.538952 
L 271.177494 226.20849 
L 271.307369 226.095727 
L 271.339838 226.111288 
L 271.404775 225.872656 
L 271.437244 225.958944 
L 271.632056 227.087907 
L 271.924275 229.089023 
L 272.021681 229.453309 
L 272.054149 229.415388 
L 272.411305 225.889224 
L 272.833398 221.763718 
L 272.963273 221.174092 
L 272.995742 221.252955 
L 274.002271 227.058864 
L 274.099678 227.100173 
L 274.326959 227.481472 
L 274.391896 227.420414 
L 274.521771 226.43305 
L 274.976333 222.32511 
L 275.04127 222.205268 
L 275.073739 222.300596 
L 275.236082 223.565539 
L 275.5283 227.380835 
L 275.625707 228.773303 
L 275.885456 231.892204 
L 275.982862 232.388615 
L 276.697174 238.204615 
L 276.891986 236.938022 
L 277.151736 233.318987 
L 277.703703 227.959399 
L 277.995922 226.473107 
L 278.223203 225.194028 
L 278.710233 223.137344 
L 278.742702 223.289339 
L 278.872577 223.624412 
L 278.937514 223.506053 
L 279.002452 223.527994 
L 279.067389 223.796318 
L 279.132326 223.666046 
L 279.197264 223.637465 
L 279.457013 222.887875 
L 279.489482 222.949163 
L 279.619357 224.124074 
L 279.684294 224.090658 
L 279.814169 224.149948 
L 279.879106 224.321404 
L 280.04145 225.185232 
L 280.073919 225.164383 
L 280.203793 225.374736 
L 280.398606 225.72029 
L 280.431074 225.656686 
L 280.496012 225.461455 
L 280.52848 225.528033 
L 280.690824 224.876228 
L 280.78823 224.934499 
L 281.080448 226.358424 
L 281.112917 226.349714 
L 281.372667 227.811895 
L 281.437604 227.778262 
L 281.632416 227.373715 
L 281.697354 227.446388 
L 281.79476 227.516503 
L 281.827229 227.449003 
L 281.924635 227.365642 
L 282.216853 228.16015 
L 282.28179 227.850242 
L 282.346728 227.958536 
L 282.411665 227.855411 
L 282.444134 227.970778 
L 282.509071 228.093452 
L 282.703883 228.828834 
L 283.02857 229.554012 
L 283.190914 229.42796 
L 283.515601 230.32713 
L 283.54807 230.206941 
L 283.580538 230.355665 
L 284.100038 233.605773 
L 284.229912 233.176561 
L 284.359787 231.627587 
L 284.911755 223.472273 
L 284.944224 223.508542 
L 285.04163 223.83906 
L 285.30138 225.587838 
L 285.333848 225.575782 
L 285.496192 224.714927 
L 285.528661 224.730898 
L 285.755941 225.873215 
L 286.53519 230.838719 
L 286.567659 230.814748 
L 286.730002 229.844344 
L 286.924815 229.329424 
L 286.957283 229.331406 
L 287.152096 230.703632 
L 287.411845 232.174403 
L 287.476783 232.224265 
L 287.54172 232.534098 
L 287.996282 236.377518 
L 288.418375 239.47731 
L 288.580718 238.709581 
L 288.872937 235.543171 
L 289.652186 225.7163 
L 289.814529 225.635573 
L 289.879466 225.411059 
L 290.106747 224.954076 
L 290.431434 225.520617 
L 290.593778 226.154444 
L 290.853528 227.988969 
L 290.885996 227.965511 
L 291.178215 226.775243 
L 291.340558 224.437086 
L 291.632776 219.722273 
L 291.860057 218.335417 
L 291.924995 218.281608 
L 291.957463 218.356814 
L 292.054869 218.453197 
L 292.347088 220.317991 
L 292.444494 220.42277 
L 292.736712 220.974069 
L 293.028931 222.872063 
L 293.191274 225.310518 
L 293.386086 227.272333 
L 293.54843 227.900188 
L 293.613367 227.7902 
L 293.905585 226.323407 
L 294.100398 225.49494 
L 294.197804 226.076271 
L 294.327679 226.674473 
L 294.360147 226.559496 
L 294.425085 226.458785 
L 294.457553 226.502582 
L 294.554959 226.890647 
L 295.399146 232.861995 
L 295.561489 233.324422 
L 295.626427 233.271219 
L 295.821239 232.908036 
L 295.853708 232.914233 
L 296.632956 229.038829 
L 296.990112 226.05944 
L 297.022581 226.065362 
L 297.05505 226.145364 
L 297.087518 226.013381 
L 297.119987 225.850425 
L 297.184924 225.963783 
L 297.28233 226.357838 
L 297.314799 226.166506 
L 297.509611 225.321846 
L 297.54208 225.329118 
L 297.671955 225.550906 
L 297.80183 226.078252 
L 297.834298 226.054836 
L 297.931704 225.502615 
L 298.223923 223.310876 
L 298.483672 222.504619 
L 298.54861 222.586228 
L 298.581078 222.531459 
L 298.808359 222.265345 
L 299.197984 222.891741 
L 299.230452 222.777008 
L 299.425265 222.567435 
L 299.620077 222.817403 
L 299.685014 222.696296 
L 299.749952 222.698485 
L 299.977233 223.908554 
L 300.853888 232.701444 
L 300.918825 232.578042 
L 301.53573 229.215619 
L 301.600668 229.406769 
L 301.990292 232.531068 
L 302.899416 240.791961 
L 302.964353 240.771881 
L 303.191634 239.980173 
L 303.581258 236.540847 
L 304.230633 229.406092 
L 304.457913 227.708468 
L 304.55532 227.748561 
L 304.7826 228.75629 
L 305.04235 230.065813 
L 305.107287 230.574076 
L 305.204694 231.285396 
L 305.269631 231.159687 
L 305.367037 231.070915 
L 305.399506 231.09343 
L 305.659255 232.299509 
L 305.919005 232.845362 
L 305.951474 232.825728 
L 305.983942 232.810811 
L 306.730723 229.824189 
L 306.79566 229.981981 
L 307.250222 232.314672 
L 307.347628 232.597965 
L 307.412565 232.554285 
L 307.445034 232.438359 
L 307.477503 232.491673 
L 307.737252 233.646052 
L 307.80219 233.541312 
L 307.932064 232.874265 
L 308.386626 228.736565 
L 308.516501 228.421841 
L 308.54897 228.488939 
L 309.100938 231.214885 
L 309.685374 234.873746 
L 309.945124 237.010124 
L 310.237342 237.916704 
L 310.30228 237.760381 
L 310.626967 236.206709 
L 310.951654 234.208913 
L 311.081529 234.368915 
L 311.243872 235.02126 
L 311.276341 234.951903 
L 311.601028 234.150102 
L 311.925715 232.531656 
L 311.990652 232.27886 
L 312.05559 232.329115 
L 312.120527 232.352173 
L 312.347808 231.68072 
L 312.412745 231.719519 
L 312.445214 231.630312 
L 312.575089 230.790964 
L 312.997182 227.97623 
L 313.159525 228.520617 
L 313.256932 229.006875 
L 313.2894 228.914849 
L 313.54915 227.143581 
L 313.841368 225.378452 
L 313.938774 225.031704 
L 314.003712 225.10473 
L 314.425805 228.368234 
L 314.750492 229.608934 
L 314.945304 229.913249 
L 315.140116 228.95128 
L 315.464803 227.412454 
L 315.627147 226.937272 
L 315.659615 227.029914 
L 316.016771 228.600745 
L 316.04924 228.583681 
L 316.276521 228.186355 
L 316.341458 228.269052 
L 316.373927 228.212179 
L 316.406396 228.118183 
L 316.438864 228.182734 
L 317.153176 230.507159 
L 317.185644 230.450372 
L 317.250582 230.212082 
L 317.932425 225.329818 
L 318.062299 225.450379 
L 318.192174 225.073237 
L 318.224643 225.144592 
L 318.354518 226.210678 
L 318.679205 228.18318 
L 318.809079 229.160426 
L 319.523391 236.228509 
L 319.653266 235.588739 
L 320.237702 229.486065 
L 320.692264 225.004538 
L 320.919545 223.606483 
L 320.984482 223.730026 
L 321.406576 224.820149 
L 321.828669 228.599346 
L 321.893606 228.471394 
L 322.250762 227.634241 
L 322.413105 226.263176 
L 323.062479 215.889563 
L 323.127417 215.49967 
L 323.192354 215.556648 
L 323.939134 219.249209 
L 324.426165 223.075587 
L 324.750852 224.3726 
L 325.205414 227.931387 
L 325.432695 228.347793 
L 325.595038 228.301983 
L 325.659975 228.498332 
L 326.666505 235.181219 
L 326.731443 235.058263 
L 327.05613 232.725263 
L 327.705504 225.979482 
L 327.80291 225.879119 
L 327.835378 225.929881 
L 328.225003 226.682523 
L 328.679565 228.427013 
L 328.744502 228.573357 
L 328.971783 229.454621 
L 329.004252 229.514535 
L 329.03672 229.407429 
L 329.426345 228.489949 
L 329.55622 227.695394 
L 330.238062 220.789351 
L 330.335468 220.635239 
L 330.367937 220.700751 
L 330.497812 221.021395 
L 330.854968 224.002535 
L 331.114717 226.565544 
L 331.374467 227.427553 
L 331.406936 227.419683 
L 331.893966 224.554973 
L 332.283591 221.283836 
L 332.348528 221.384907 
L 332.413465 221.625311 
L 333.387526 227.044398 
L 334.134307 232.715286 
L 334.231713 232.579794 
L 334.686274 230.280144 
L 335.075899 227.122067 
L 335.30318 226.632432 
L 335.595398 225.568503 
L 335.627867 225.594405 
L 335.660335 225.718536 
L 335.692804 225.668691 
L 336.342178 221.833966 
L 336.764271 218.672061 
L 337.024021 217.3323 
L 337.088958 217.504085 
L 337.575989 219.708233 
L 337.868207 222.563016 
L 338.420175 228.368945 
L 338.744862 230.238324 
L 338.777331 230.166622 
L 338.874737 229.942416 
L 339.134487 229.136431 
L 339.913735 229.377686 
L 339.978673 229.513935 
L 340.011141 229.392209 
L 340.04361 229.371832 
L 340.465703 231.487616 
L 340.757922 233.648839 
L 340.920265 234.494389 
L 341.05014 234.743868 
L 341.30989 235.850624 
L 341.342358 235.831973 
L 341.439764 235.688772 
L 341.667045 234.261887 
L 342.283951 230.261294 
L 342.673575 230.17466 
L 343.225543 232.264085 
L 343.452824 233.972072 
L 343.485293 233.906862 
L 343.647636 233.337323 
L 344.978853 226.943002 
L 345.011321 226.952792 
L 345.465883 229.80196 
L 345.595758 229.86031 
L 345.855508 228.958372 
L 346.699694 223.843573 
L 346.829569 223.851769 
L 347.024381 224.570245 
L 347.771161 231.84255 
L 348.063379 234.835126 
L 348.323129 235.510094 
L 348.517941 234.073942 
L 348.972503 230.268369 
L 349.004972 230.305925 
L 349.232253 230.398322 
L 349.329659 230.447571 
L 349.524471 230.839284 
L 349.686814 231.617724 
L 350.206314 234.511752 
L 350.466063 234.886149 
L 350.498532 234.934188 
L 350.531001 234.846066 
L 350.693344 233.923078 
L 350.985563 232.364388 
L 351.472593 231.370417 
L 351.505062 231.414384 
L 351.732343 231.586659 
L 352.479123 235.077795 
L 352.511592 234.995964 
L 352.641466 234.452496 
L 352.836279 233.468241 
L 352.868747 233.526682 
L 352.966153 233.418782 
L 353.096028 232.338381 
L 353.420715 230.299286 
L 353.485653 230.016781 
L 353.745402 229.202628 
L 353.875277 228.589118 
L 354.070089 227.834393 
L 354.135027 227.771844 
L 354.29737 228.108566 
L 354.881807 225.208667 
L 355.238962 223.647017 
L 355.271431 223.733706 
L 355.336369 223.8512 
L 355.401306 224.012526 
L 355.433775 223.991359 
L 356.148086 221.456043 
L 356.407836 222.119246 
L 357.901396 229.809145 
L 357.998802 229.735967 
L 358.031271 229.837038 
L 358.193614 230.112243 
L 358.226083 230.077084 
L 358.323489 229.637352 
L 358.453364 229.220784 
L 358.485833 229.237217 
L 358.583239 228.835423 
L 358.842988 227.140244 
L 358.907926 227.237546 
L 359.687175 230.571089 
L 359.849518 231.443534 
L 360.109268 231.133256 
L 360.369017 230.666601 
L 360.498892 230.211048 
L 361.115797 226.605052 
L 361.440484 225.791445 
L 361.570359 225.944681 
L 361.927515 227.008245 
L 362.219733 227.656688 
L 362.479483 227.731691 
L 362.674295 227.357315 
L 363.128857 225.799375 
L 363.388606 224.650368 
L 363.453544 224.567579 
L 363.583419 224.284013 
L 363.745762 225.112991 
L 364.167855 229.134078 
L 364.589948 234.457798 
L 364.882167 235.709008 
L 364.914635 235.601513 
L 365.239322 233.563885 
L 365.466603 232.377198 
L 366.05104 230.195322 
L 366.115977 230.276461 
L 366.245852 230.548631 
L 366.603008 231.799525 
L 367.025101 234.286732 
L 367.090038 234.242304 
L 367.252382 233.786381 
L 367.674475 230.553462 
L 368.129037 227.016077 
L 368.713474 225.629908 
L 368.843348 225.752024 
L 368.940754 225.874648 
L 369.135567 226.166484 
L 369.265441 226.196472 
L 369.492722 225.781433 
L 370.369377 222.109658 
L 370.499252 221.884911 
L 370.596658 221.419065 
L 370.661596 221.531778 
L 370.823939 221.84885 
L 370.953814 221.732387 
L 370.986283 221.802647 
L 371.083689 222.254409 
L 371.473313 226.010803 
L 371.765531 228.88918 
L 371.862938 229.301858 
L 372.025281 229.685146 
L 372.349968 229.259594 
L 372.772061 227.675476 
L 373.031811 226.824555 
L 373.356498 226.467384 
L 373.388967 226.322962 
L 373.453904 226.364477 
L 373.713654 227.18316 
L 373.81106 227.289305 
L 374.038341 227.943385 
L 374.070809 228.012303 
L 374.103278 227.899858 
L 374.265621 227.823457 
L 374.655246 227.364073 
L 375.04487 226.368185 
L 375.077339 226.39399 
L 375.142276 226.432857 
L 375.174745 226.381954 
L 375.369557 225.901371 
L 375.694244 224.999887 
L 375.759182 225.08778 
L 375.889057 225.970499 
L 376.018931 226.462554 
L 376.0514 226.432085 
L 376.148806 226.42167 
L 376.213744 226.351505 
L 376.246212 226.37865 
L 376.473493 227.308392 
L 376.960524 229.624507 
L 377.285211 230.874569 
L 377.447554 231.18254 
L 377.642366 230.190144 
L 377.837179 229.595424 
L 377.999522 228.854586 
L 378.161866 228.134922 
L 378.194334 228.184999 
L 378.778771 229.596727 
L 378.973583 229.858887 
L 379.006052 229.823233 
L 379.168395 229.571334 
L 379.882707 227.766089 
L 380.272331 226.27506 
L 380.79183 227.653656 
L 380.986643 228.697356 
L 381.019111 228.625231 
L 381.246392 228.662369 
L 381.343798 228.952274 
L 381.408736 228.924784 
L 381.538611 229.126149 
L 381.733423 229.576746 
L 381.960704 229.774189 
L 381.993172 229.686315 
L 382.350328 229.393376 
L 382.447734 229.301422 
L 382.642546 229.238878 
L 382.739953 229.240643 
L 382.837359 229.163651 
L 382.869827 229.203308 
L 383.194514 229.30585 
L 383.29192 229.437057 
L 383.519201 230.532138 
L 383.584139 230.511625 
L 383.908826 231.048249 
L 383.941294 230.99564 
L 384.136107 230.756974 
L 384.363388 230.042094 
L 384.525731 229.581772 
L 384.980293 227.409793 
L 385.175105 226.74276 
L 385.337449 226.643803 
L 385.467323 226.837988 
L 385.662136 227.26276 
L 385.889417 228.167705 
L 386.019291 228.391939 
L 386.149166 228.635545 
L 386.181635 228.593264 
L 386.571259 227.995139 
L 386.668665 227.878452 
L 386.863478 228.225653 
L 386.895946 228.168153 
L 387.090759 227.853383 
L 387.675195 226.404474 
L 387.707664 226.417376 
L 387.80507 226.450954 
L 387.967413 226.619415 
L 388.032351 226.5643 
L 388.097288 226.338759 
L 388.194694 226.414721 
L 388.357038 226.41708 
L 388.454444 226.3533 
L 388.584319 226.578849 
L 388.649256 226.518399 
L 388.876537 226.271783 
L 388.909006 226.360493 
L 389.006412 226.621135 
L 389.071349 226.577382 
L 389.201224 226.544668 
L 389.29863 226.46868 
L 389.331099 226.497866 
L 389.493442 226.909772 
L 389.915536 228.335553 
L 390.04541 228.252942 
L 390.207754 228.044272 
L 390.30516 228.296057 
L 390.954534 230.257432 
L 391.084409 229.707973 
L 391.214284 229.317155 
L 391.246752 229.344501 
L 391.409096 229.570064 
L 391.441565 229.53339 
L 391.538971 229.373895 
L 391.571439 229.461969 
L 391.831189 230.201174 
L 392.05847 229.380631 
L 392.253282 228.837868 
L 392.318219 228.75439 
L 392.740313 227.490901 
L 392.772781 227.520124 
L 393.000062 227.76403 
L 393.032531 227.734684 
L 393.324749 227.505247 
L 393.357218 227.625836 
L 393.649436 228.464936 
L 393.746842 228.394748 
L 393.974123 228.044451 
L 394.071529 227.86624 
L 394.201404 227.603514 
L 394.233873 227.620452 
L 394.461154 228.349147 
L 394.526091 228.244697 
L 394.55856 228.163669 
L 394.623497 228.20143 
L 394.785841 228.307747 
L 395.078059 227.976907 
L 395.110528 228.051638 
L 395.207934 227.980836 
L 395.370277 228.028069 
L 395.532621 228.35098 
L 395.662496 228.872029 
L 395.727433 228.769682 
L 395.954714 228.316281 
L 396.084589 228.079251 
L 396.117058 228.102273 
L 396.214464 228.362265 
L 396.539151 229.496693 
L 396.896306 229.93262 
L 396.961244 229.88084 
L 397.123587 229.857318 
L 397.350868 229.425109 
L 397.513212 229.319091 
L 398.032711 227.938338 
L 398.357398 227.829799 
L 398.487273 228.058489 
L 398.487273 228.058489 
" clip-path="url(#p72d56ff6ae)" style="fill: none; stroke: #1f77b4; stroke-width: 1.5; stroke-linecap: square"/>
   </g>
   <g id="line2d_16">
    <path d="M 73.832727 53.568 
L 74.611976 109.431373 
L 75.456162 153.486082 
L 76.105536 173.698629 
L 77.404284 202.460365 
L 77.76144 207.484288 
L 78.248471 212.669464 
L 79.547219 218.075813 
L 79.806968 218.515611 
L 79.904374 218.406959 
L 80.748561 215.845488 
L 81.235591 213.31099 
L 81.397935 213.002736 
L 81.462872 213.061737 
L 81.949903 213.065131 
L 82.144715 212.83963 
L 82.27459 212.447367 
L 82.566808 211.691483 
L 82.696683 211.63025 
L 82.729151 211.665625 
L 82.826558 211.703988 
L 83.053838 212.489568 
L 84.937023 223.118094 
L 85.229241 223.810511 
L 85.456522 223.830953 
L 85.748741 223.444192 
L 85.813678 223.497775 
L 86.00849 224.041056 
L 86.398115 225.199845 
L 86.722802 226.537156 
L 86.982551 227.249259 
L 87.079957 227.389183 
L 87.209832 227.773884 
L 87.826738 230.269037 
L 88.086487 230.28831 
L 88.151425 230.234838 
L 88.183893 230.306098 
L 88.50858 230.976118 
L 88.605986 230.902281 
L 88.930673 231.16928 
L 89.190423 231.890551 
L 89.352767 232.225521 
L 90.132015 235.440073 
L 90.554109 236.289302 
L 90.748921 236.113982 
L 91.300889 234.971356 
L 91.463232 235.259274 
L 91.625576 235.587386 
L 91.658044 235.549978 
L 91.722982 235.643992 
L 92.145075 236.573557 
L 92.404824 237.386102 
L 92.891855 239.229973 
L 93.346417 241.462452 
L 93.736041 241.647538 
L 93.833447 241.504211 
L 94.547759 239.669431 
L 94.904914 238.64526 
L 95.197133 238.562609 
L 95.456882 238.095379 
L 95.489351 238.134101 
L 95.586757 238.330382 
L 96.625756 242.343792 
L 96.658224 242.399033 
L 96.723162 242.324906 
L 96.950443 242.35057 
L 97.145255 242.320183 
L 97.242661 242.363974 
L 97.372536 242.417066 
L 97.534879 242.26292 
L 97.632285 242.074024 
L 98.444003 239.180039 
L 99.288189 235.277995 
L 99.385595 235.147532 
L 99.418064 235.178694 
L 99.77522 235.929332 
L 99.840157 235.840563 
L 99.937563 235.650511 
L 100.944093 232.307706 
L 101.496061 231.329884 
L 101.52853 231.368152 
L 101.658404 231.587259 
L 102.01556 232.434921 
L 102.437653 233.078154 
L 102.664934 233.381922 
L 102.892215 233.643392 
L 102.957152 233.571437 
L 103.054559 233.343414 
L 103.411714 232.3216 
L 103.76887 231.352798 
L 103.963682 231.231295 
L 104.2559 231.315597 
L 104.418244 231.295481 
L 104.613056 232.106401 
L 105.489711 237.368972 
L 105.976742 240.309996 
L 106.171554 240.619442 
L 106.366366 240.728409 
L 106.691053 241.256986 
L 106.723522 241.210066 
L 106.885865 240.756298 
L 107.730052 237.426485 
L 108.444363 236.136208 
L 109.191143 233.41289 
L 109.808048 230.662619 
L 110.684703 229.374478 
L 110.717172 229.405464 
L 110.879516 229.260722 
L 111.00939 228.950637 
L 111.886045 225.670878 
L 112.27567 224.628218 
L 112.730232 225.750338 
L 112.925044 227.149825 
L 114.353667 238.433791 
L 114.548479 239.537086 
L 115.100447 242.845979 
L 115.52254 244.107769 
L 115.555009 244.051531 
L 115.684883 243.887938 
L 116.561538 241.082007 
L 117.048569 240.357927 
L 117.373256 239.508114 
L 117.665474 239.234497 
L 118.02263 237.912128 
L 118.607067 233.324591 
L 119.159034 228.250771 
L 119.711002 226.198342 
L 119.743471 226.226331 
L 120.198033 226.800963 
L 120.425314 226.898953 
L 120.685063 226.851073 
L 120.847407 226.909217 
L 120.944813 226.605725 
L 121.659124 224.303619 
L 121.821468 224.428043 
L 122.27603 225.771357 
L 122.535779 226.666862 
L 123.02281 229.168918 
L 123.28256 229.840138 
L 123.704653 228.881627 
L 123.899465 227.775079 
L 124.646245 223.074006 
L 124.938463 221.798234 
L 125.393025 219.534437 
L 125.750181 218.764185 
L 125.880056 218.755491 
L 126.334617 218.633522 
L 126.399555 218.690715 
L 126.626836 219.377874 
L 127.633366 223.72193 
L 127.893115 224.090468 
L 128.380146 225.198126 
L 128.997051 225.467882 
L 129.256801 224.944236 
L 129.51655 224.201247 
L 130.165924 222.069631 
L 130.490611 222.039693 
L 130.717892 222.180912 
L 130.880236 222.088107 
L 131.562078 220.032795 
L 132.049109 217.981289 
L 132.373796 217.642736 
L 132.471202 217.647278 
L 132.666014 218.04637 
L 132.795889 218.715786 
L 134.062168 227.029902 
L 134.419324 226.670403 
L 134.971292 224.836021 
L 135.198573 224.217977 
L 135.231042 224.267468 
L 135.425854 225.181793 
L 136.822008 233.732486 
L 137.211632 235.117647 
L 137.373976 235.287951 
L 137.438913 235.362334 
L 137.828538 236.384531 
L 137.861006 236.340728 
L 137.958413 236.396606 
L 138.088287 236.652685 
L 138.477912 238.202125 
L 138.835068 239.673614 
L 139.224692 240.331582 
L 139.354567 240.492607 
L 139.614316 241.165907 
L 139.841597 241.460085 
L 139.971472 241.805468 
L 140.555909 243.978542 
L 140.685783 243.943481 
L 141.205283 242.664595 
L 141.465032 241.744504 
L 141.497501 241.792237 
L 141.562438 241.738877 
L 141.724782 241.744105 
L 141.952063 241.689374 
L 142.27675 241.388066 
L 142.374156 241.354397 
L 142.406625 241.385668 
L 142.796249 241.942863 
L 143.055999 241.963121 
L 143.413154 242.766103 
L 143.607967 243.069017 
L 143.965122 243.508307 
L 144.484622 244.105118 
L 144.614496 244.122654 
L 144.809309 244.324867 
L 144.874246 244.265922 
L 145.036589 243.792431 
L 145.880776 240.907777 
L 146.432744 237.078412 
L 146.919774 233.661074 
L 147.01718 233.434892 
L 147.082118 233.479748 
L 147.27693 233.688501 
L 147.76396 234.912024 
L 148.02371 236.598622 
L 148.413334 238.781035 
L 149.095177 241.542477 
L 149.289989 242.050926 
L 149.322458 242.114681 
L 149.419864 242.061402 
L 149.614676 242.009013 
L 149.939363 242.462089 
L 150.004301 242.374318 
L 150.426394 241.666544 
L 150.686144 241.317523 
L 151.010831 240.846305 
L 151.173174 240.86438 
L 151.303049 240.771746 
L 151.660205 241.059285 
L 151.757611 241.129709 
L 151.887485 241.267343 
L 151.919954 241.241016 
L 152.212172 240.749309 
L 152.796609 238.172454 
L 153.965482 230.329274 
L 154.03042 230.380248 
L 154.744731 231.634075 
L 154.874606 231.512173 
L 155.166824 231.918153 
L 155.231762 231.838564 
L 155.588917 230.755522 
L 156.043479 228.883149 
L 156.433104 226.355438 
L 156.985072 222.57809 
L 157.179884 222.019884 
L 157.439633 221.921857 
L 157.796789 221.331579 
L 158.02407 221.596456 
L 158.089007 221.531519 
L 158.121476 221.603523 
L 158.348757 222.12805 
L 158.381226 222.116549 
L 158.900725 222.619014 
L 159.322818 223.711722 
L 159.485162 223.814344 
L 159.77738 224.836486 
L 160.134536 225.738088 
L 160.329348 226.185076 
L 160.751441 227.141691 
L 160.881316 227.125948 
L 161.043659 227.132464 
L 161.757971 227.771563 
L 161.985252 228.064832 
L 162.050189 228.001688 
L 162.732032 226.309706 
L 162.861907 226.263552 
L 163.02425 225.902181 
L 163.056719 225.940687 
L 163.284 226.290352 
L 163.316468 226.262831 
L 163.446343 226.283396 
L 163.641155 226.290463 
L 163.706093 226.260641 
L 163.738561 226.308257 
L 163.835968 226.43414 
L 164.258061 227.062172 
L 164.420404 227.23033 
L 164.615216 227.589429 
L 164.712623 227.511767 
L 164.77756 227.486759 
L 164.810029 227.527912 
L 164.972372 227.565414 
L 165.297059 227.591605 
L 165.491871 227.748896 
L 165.52434 227.692636 
L 165.751621 226.821653 
L 166.206183 224.637262 
L 166.53087 223.50607 
L 166.985432 221.151628 
L 168.219242 216.928276 
L 168.511461 217.020801 
L 168.966022 219.172081 
L 169.77774 224.518461 
L 170.297239 225.464702 
L 170.492051 225.383466 
L 170.621926 225.333346 
L 170.849207 225.297597 
L 171.238832 224.911235 
L 171.466112 224.494187 
L 171.693393 224.597519 
L 171.888206 224.663181 
L 172.472642 226.171586 
L 172.505111 226.141396 
L 172.634986 226.055625 
L 172.829798 225.912356 
L 172.894735 225.939053 
L 173.349297 226.923182 
L 173.446703 227.163333 
L 173.511641 227.106054 
L 174.193483 225.857214 
L 174.583108 225.805437 
L 174.648045 225.936217 
L 175.557169 229.187008 
L 176.109137 231.50449 
L 176.401355 231.801692 
L 176.596167 231.369761 
L 176.888386 229.96284 
L 177.602697 225.280975 
L 177.959853 224.626422 
L 178.089728 225.171646 
L 178.641695 228.366719 
L 179.485882 231.44504 
L 179.7781 231.750379 
L 180.167724 231.157148 
L 180.200193 231.200276 
L 180.52488 231.693138 
L 180.654755 232.390738 
L 181.141785 234.513396 
L 181.466472 235.560658 
L 181.596347 235.803681 
L 181.628816 235.777322 
L 181.823628 235.609666 
L 181.856097 235.639735 
L 182.01844 235.596391 
L 182.148315 235.620248 
L 182.310659 235.417822 
L 182.53794 234.848382 
L 184.193843 225.269679 
L 184.583468 222.60968 
L 184.843217 221.861014 
L 185.03803 221.859102 
L 185.102967 221.791906 
L 186.044559 219.118126 
L 186.596527 217.176329 
L 186.823808 217.607712 
L 187.083558 219.225141 
L 187.505651 222.009528 
L 187.732932 222.648009 
L 187.927744 223.404862 
L 188.349837 225.187414 
L 189.51871 233.245751 
L 190.070678 239.163537 
L 190.557709 244.559063 
L 190.914865 246.985053 
L 191.142145 247.206723 
L 191.27202 247.150901 
L 191.434364 246.979139 
L 191.596707 247.014182 
L 191.694113 247.110032 
L 191.79152 247.222208 
L 191.823988 247.185389 
L 191.921394 246.922643 
L 192.473362 244.344801 
L 192.668174 243.950631 
L 192.830518 243.73294 
L 193.02533 243.750648 
L 193.317548 243.949884 
L 193.512361 243.833236 
L 194.096797 244.332926 
L 194.226672 244.07049 
L 194.453953 243.73345 
L 194.681234 243.64118 
L 194.876046 243.503036 
L 195.622826 241.184754 
L 196.337138 237.627161 
L 196.53195 237.556928 
L 197.116387 238.510618 
L 197.27873 238.835328 
L 197.570948 239.202712 
L 197.765761 239.142303 
L 197.960573 239.168603 
L 198.187854 239.395426 
L 198.28526 239.336903 
L 198.902165 237.406351 
L 199.29179 235.75944 
L 199.324258 235.775816 
L 199.356727 235.813255 
L 199.389196 235.768267 
L 199.681414 235.123876 
L 199.713883 235.143282 
L 200.071038 235.869291 
L 200.168444 235.764675 
L 200.363257 235.745396 
L 200.817819 236.064983 
L 200.915225 236.226807 
L 201.304849 236.929227 
L 201.79188 235.900086 
L 202.01916 235.558349 
L 202.116567 235.330187 
L 202.603597 234.041382 
L 202.701003 233.880034 
L 202.928284 233.747355 
L 203.28544 233.767256 
L 203.545189 234.361142 
L 203.675064 234.518847 
L 203.902345 234.995649 
L 203.934814 234.976482 
L 204.227032 234.663224 
L 204.551719 234.572485 
L 204.681594 234.522583 
L 204.941344 234.099811 
L 204.973812 234.145011 
L 205.168624 234.319802 
L 205.266031 234.237583 
L 205.298499 234.288255 
L 205.363437 234.379229 
L 206.110217 236.726163 
L 206.53231 237.49923 
L 206.694653 237.680885 
L 207.051809 237.020653 
L 207.571308 236.215268 
L 207.798589 236.069915 
L 208.28562 235.42307 
L 208.383026 235.535106 
L 209.162275 237.748541 
L 209.389556 237.266343 
L 209.649305 236.720971 
L 209.909055 236.214881 
L 210.201273 235.756884 
L 210.233742 235.774351 
L 210.688304 236.304122 
L 210.818179 236.039067 
L 210.980522 235.707373 
L 211.759771 230.600207 
L 212.246801 227.118649 
L 213.188394 221.755858 
L 213.740362 219.378011 
L 213.935174 219.077593 
L 213.967643 219.095561 
L 214.129986 219.189875 
L 214.259861 219.261645 
L 214.29233 219.200235 
L 214.876766 218.523698 
L 215.104047 218.016823 
L 215.168985 218.061215 
L 215.52614 218.922941 
L 215.720952 220.228576 
L 216.143046 223.230669 
L 216.337858 223.842848 
L 216.402795 223.759351 
L 216.662545 223.209824 
L 216.857357 223.286062 
L 217.27945 223.958623 
L 217.344388 223.83649 
L 217.766481 222.773042 
L 218.02623 222.259059 
L 219.195104 219.813752 
L 219.682134 218.945536 
L 219.909415 218.758467 
L 220.169165 218.779926 
L 220.396445 219.173556 
L 220.688664 219.818775 
L 220.818539 220.260567 
L 221.370507 223.093737 
L 221.565319 223.493649 
L 221.7926 223.615907 
L 221.825068 223.554324 
L 222.019881 222.980143 
L 222.377036 220.763586 
L 222.604317 219.771335 
L 222.799129 219.444853 
L 223.28616 217.9758 
L 223.54591 217.327337 
L 223.708253 216.775198 
L 225.234282 209.520467 
L 225.558969 209.304525 
L 226.046 209.778422 
L 226.078468 209.737682 
L 226.305749 209.670827 
L 226.695374 210.552853 
L 226.760311 210.486484 
L 226.890186 210.437842 
L 226.922654 210.477689 
L 227.214873 210.966828 
L 227.474622 212.153754 
L 227.864247 214.356038 
L 229.065589 223.647747 
L 229.487682 224.690914 
L 229.714963 225.381096 
L 230.234462 225.973573 
L 230.461743 226.699997 
L 230.559149 226.497549 
L 230.721493 226.166471 
L 231.728022 224.228303 
L 231.857897 224.013048 
L 232.020241 223.80761 
L 232.052709 223.828251 
L 232.182584 223.793716 
L 232.377396 223.33198 
L 232.767021 222.310175 
L 232.799489 222.337858 
L 233.02677 222.373628 
L 233.156645 221.991353 
L 234.455393 217.570738 
L 235.007361 218.768081 
L 235.234642 219.163953 
L 235.624266 219.362414 
L 235.884016 220.103954 
L 236.176234 220.618272 
L 236.53339 220.541104 
L 236.630796 220.524333 
L 236.890546 221.26852 
L 237.994482 229.917904 
L 239.03348 234.663279 
L 239.488042 234.74205 
L 239.617917 234.721891 
L 239.845198 234.614837 
L 239.975072 234.647026 
L 240.137416 234.576127 
L 240.364697 234.617519 
L 240.52704 234.525815 
L 240.624446 234.337954 
L 241.04654 232.069462 
L 241.988132 227.332401 
L 242.150475 226.886724 
L 242.182944 226.917417 
L 242.312819 227.231247 
L 242.5401 227.592061 
L 242.734912 228.028481 
L 243.124536 228.944723 
L 243.611567 231.162069 
L 243.676504 231.140108 
L 243.838848 231.030153 
L 244.098597 231.13692 
L 244.260941 231.135932 
L 244.520691 231.450891 
L 244.618097 231.299229 
L 244.812909 231.289119 
L 244.910315 231.435616 
L 245.299939 232.531775 
L 245.52722 232.607931 
L 245.754501 233.016482 
L 245.916845 233.907161 
L 246.923375 239.696543 
L 247.215593 240.113395 
L 247.377936 240.770383 
L 247.832498 242.059112 
L 248.222123 242.612222 
L 248.579278 242.879568 
L 248.611747 242.83266 
L 248.839028 242.59935 
L 249.066309 242.279785 
L 249.390996 241.138602 
L 250.105307 235.419324 
L 251.501461 223.796251 
L 251.728742 223.3036 
L 252.28071 222.640926 
L 252.54046 222.774009 
L 252.572929 222.721486 
L 252.832678 222.323365 
L 253.189834 222.981608 
L 253.254771 222.947605 
L 253.514521 222.492459 
L 254.163895 219.785157 
L 254.29377 219.665952 
L 254.326238 219.691805 
L 254.456113 220.03167 
L 254.683394 220.632179 
L 254.943144 220.730803 
L 255.170425 221.445935 
L 255.754861 224.109695 
L 256.599048 227.826725 
L 256.826328 227.344889 
L 256.988672 226.74188 
L 257.443234 224.273154 
L 257.800389 221.972161 
L 258.02767 221.767659 
L 258.190014 221.873613 
L 258.254951 221.943366 
L 258.28742 221.890208 
L 258.612107 221.520088 
L 258.806919 221.552386 
L 258.904325 221.272715 
L 259.099138 220.851304 
L 259.29395 220.857304 
L 259.423825 221.068601 
L 259.521231 221.339768 
L 260.430354 224.59471 
L 260.884916 225.407327 
L 261.144666 226.245242 
L 261.339478 226.656825 
L 262.021321 229.169765 
L 262.573289 231.562397 
L 262.670695 231.619591 
L 262.703163 231.594734 
L 262.930444 231.250307 
L 263.385006 229.837329 
L 263.774631 228.819508 
L 263.904505 228.755633 
L 264.001911 228.603469 
L 264.099318 228.472826 
L 264.131786 228.491098 
L 264.553879 228.88949 
L 264.78116 229.161947 
L 264.975973 229.309748 
L 265.008441 229.234429 
L 265.365597 228.38593 
L 266.339658 224.629259 
L 266.566939 224.534437 
L 266.729282 224.434123 
L 266.826688 224.541227 
L 267.118907 225.112134 
L 267.216313 225.339753 
L 267.476063 225.698793 
L 267.605937 225.725948 
L 267.768281 225.794359 
L 267.995562 225.773096 
L 268.222843 225.947541 
L 268.872217 226.808825 
L 269.554059 229.679725 
L 270.593058 233.095781 
L 270.657995 233.000884 
L 270.885276 232.394375 
L 271.632056 228.219375 
L 272.086618 225.222356 
L 272.508711 223.583386 
L 272.638586 223.38407 
L 272.671055 223.398598 
L 272.898336 223.682031 
L 273.385366 225.434373 
L 274.164615 229.723746 
L 274.716583 231.202856 
L 275.268551 234.247504 
L 275.333488 234.304436 
L 275.398426 234.244688 
L 275.5283 234.268253 
L 275.658175 234.761845 
L 275.917925 235.441716 
L 276.307549 236.263128 
L 276.372487 236.089397 
L 276.599768 235.306162 
L 276.956923 233.507024 
L 277.119267 233.55023 
L 277.314079 233.58497 
L 277.898516 232.769776 
L 278.255671 233.20774 
L 278.320609 233.1042 
L 278.482952 232.667682 
L 278.742702 232.187737 
L 279.457013 230.907894 
L 280.106387 229.235098 
L 280.366137 229.077255 
L 280.820699 228.785638 
L 280.853167 228.864664 
L 281.340198 229.601315 
L 281.437604 229.712417 
L 281.470073 229.652335 
L 282.28179 227.706729 
L 282.411665 227.549585 
L 283.061039 225.46243 
L 283.125977 225.256415 
L 283.190914 225.287966 
L 283.450664 224.9016 
L 283.677945 224.516655 
L 283.905225 224.232559 
L 283.970163 224.301376 
L 284.0351 224.219624 
L 284.29485 223.78427 
L 284.327319 223.814755 
L 284.522131 223.952992 
L 284.814349 224.126783 
L 285.30138 223.06666 
L 285.463723 222.724588 
L 285.658535 223.017391 
L 285.78841 223.031152 
L 285.885816 222.754609 
L 286.145566 222.107543 
L 286.242972 222.189994 
L 286.405315 222.15913 
L 287.606657 220.173889 
L 288.028751 219.421282 
L 288.191094 219.364357 
L 288.743062 220.266665 
L 288.872937 220.380273 
L 289.03528 220.901099 
L 289.359967 222.193021 
L 289.522311 222.287377 
L 289.684654 222.673888 
L 290.821059 229.560323 
L 291.53537 235.158147 
L 291.860057 236.141534 
L 292.119807 236.155206 
L 292.28215 235.767323 
L 293.093868 231.619067 
L 293.321149 231.472507 
L 293.613367 231.955809 
L 294.067929 233.779305 
L 294.879647 235.390924 
L 294.912115 235.345861 
L 295.464083 233.977309 
L 296.080988 231.4864 
L 296.405675 229.401108 
L 296.892706 225.664895 
L 297.704424 219.835091 
L 297.899236 219.573008 
L 297.931704 219.687483 
L 298.223923 221.153694 
L 298.646016 223.511255 
L 299.165515 226.228866 
L 299.717483 228.186767 
L 299.879827 228.626516 
L 300.204514 229.224279 
L 300.334388 229.467213 
L 300.529201 229.860646 
L 301.0487 230.386071 
L 301.243512 230.434981 
L 301.503262 230.682757 
L 301.633136 230.633812 
L 301.763011 230.149303 
L 303.061759 223.751536 
L 303.256571 223.458207 
L 303.581258 222.992927 
L 303.841008 222.825331 
L 304.198164 222.203002 
L 304.392976 221.810249 
L 304.522851 221.8139 
L 304.815069 222.182442 
L 304.880007 222.049629 
L 305.431974 220.326368 
L 305.594318 220.320301 
L 305.691724 220.358007 
L 305.821599 220.453108 
L 306.178755 220.099423 
L 306.308629 220.081156 
L 306.373567 219.93511 
L 306.698254 219.104765 
L 306.860597 218.979131 
L 307.120347 218.630552 
L 307.28269 218.661793 
L 307.574909 218.162411 
L 307.704784 218.080511 
L 307.80219 218.208043 
L 308.516501 220.747251 
L 308.906126 222.416951 
L 309.458093 221.604067 
L 309.717843 221.140472 
L 309.945124 220.929464 
L 310.237342 220.346388 
L 310.821779 219.905488 
L 311.341278 218.771525 
L 311.601028 217.762124 
L 311.665965 217.792445 
L 311.828309 217.842937 
L 312.152996 218.477475 
L 312.185464 218.442988 
L 312.28287 218.233165 
L 312.477683 217.698501 
L 312.510151 217.751086 
L 312.964713 218.923143 
L 313.484212 220.198276 
L 313.711493 220.133987 
L 313.873837 220.139951 
L 314.068649 220.279847 
L 314.328399 220.349304 
L 314.490742 220.587461 
L 314.523211 220.541201 
L 314.945304 219.69443 
L 315.172585 218.882122 
L 315.497272 217.756272 
L 315.529741 217.736061 
L 315.562209 217.792273 
L 315.78949 218.405097 
L 316.04924 219.024258 
L 316.244052 219.388568 
L 316.568739 220.2409 
L 316.763551 220.506378 
L 316.925895 221.101225 
L 317.380457 222.874459 
L 317.477863 223.014355 
L 317.737612 224.53848 
L 318.127237 226.444479 
L 318.419455 227.103011 
L 318.614267 227.671056 
L 318.971423 228.884236 
L 319.815609 231.337817 
L 320.107828 231.875996 
L 320.529921 233.94901 
L 321.081889 237.590913 
L 321.244232 237.832742 
L 321.309169 237.910648 
L 321.7962 240.081358 
L 321.861137 239.999588 
L 322.120887 239.327998 
L 322.510511 237.47041 
L 323.127417 233.912347 
L 323.354698 233.447508 
L 323.711853 232.829354 
L 324.653446 228.001388 
L 325.108008 224.975972 
L 325.757382 223.067851 
L 326.147006 222.913024 
L 326.504162 224.106218 
L 326.893786 224.290717 
L 327.186004 224.388827 
L 327.250942 224.539572 
L 327.348348 224.466487 
L 327.510691 224.48383 
L 327.705504 224.596919 
L 327.965253 224.178237 
L 327.997722 224.214136 
L 328.354878 224.629783 
L 328.582159 224.587068 
L 329.069189 225.739734 
L 330.108188 229.013544 
L 330.238062 229.077014 
L 330.270531 229.032999 
L 330.562749 228.700361 
L 331.082249 226.706526 
L 331.341998 226.003944 
L 331.439404 225.925132 
L 331.471873 225.951814 
L 331.861497 226.693523 
L 332.186184 227.623114 
L 332.316059 227.79353 
L 332.348528 227.777999 
L 332.478403 227.828366 
L 332.738152 228.211668 
L 333.127777 228.573236 
L 333.387526 228.736356 
L 333.54987 228.823252 
L 333.907026 229.391837 
L 334.5564 228.922548 
L 334.848618 229.053326 
L 335.010961 229.046441 
L 335.368117 229.735401 
L 335.433055 229.820608 
L 335.497992 229.778457 
L 335.627867 229.734681 
L 335.79021 229.657412 
L 335.985023 229.929806 
L 336.244772 230.170391 
L 336.342178 230.230613 
L 336.699334 230.775537 
L 337.024021 230.862504 
L 337.80327 229.867708 
L 338.517581 227.867527 
L 338.614987 227.629902 
L 338.907206 226.846234 
L 339.102018 226.820779 
L 339.361767 226.639332 
L 339.524111 226.375078 
L 339.946204 225.34553 
L 340.985203 219.060104 
L 341.342358 218.346638 
L 341.407296 218.402281 
L 341.667045 219.034663 
L 341.991732 221.105649 
L 342.80345 227.29149 
L 343.063199 227.984004 
L 343.355418 228.620779 
L 343.55023 228.711606 
L 343.647636 228.74825 
L 343.80998 228.807855 
L 343.874917 228.922231 
L 344.264541 230.426854 
L 344.459354 230.894461 
L 344.654166 230.786342 
L 345.238602 229.877634 
L 345.433415 229.133755 
L 345.595758 228.314667 
L 346.212663 224.388091 
L 346.245132 224.241348 
L 346.31007 224.306811 
L 346.569819 224.434065 
L 346.634757 224.384482 
L 346.732163 224.122348 
L 346.7971 224.196101 
L 347.024381 224.876355 
L 347.284131 225.253321 
L 347.414005 225.177656 
L 347.576349 224.816133 
L 347.998442 223.637314 
L 348.128317 223.665308 
L 348.81016 225.062004 
L 349.167315 227.134854 
L 349.524471 229.236245 
L 350.401126 232.09798 
L 351.0505 234.128708 
L 351.212843 234.53368 
L 351.667405 235.857565 
L 352.251842 235.88808 
L 352.511592 235.873123 
L 352.673935 235.973458 
L 352.771341 235.874617 
L 353.193434 235.361659 
L 353.453184 235.287333 
L 354.070089 234.64872 
L 354.29737 234.453646 
L 354.459714 234.373172 
L 354.719463 233.718288 
L 354.914275 233.239705 
L 354.946744 233.253774 
L 355.271431 232.941835 
L 355.758462 232.291113 
L 356.180555 232.755798 
L 356.472773 233.129841 
L 356.602648 233.312977 
L 356.829929 234.09308 
L 357.219553 236.103325 
L 357.706584 238.589893 
L 358.226083 240.088912 
L 358.648176 240.191367 
L 358.745582 240.029087 
L 358.81052 240.083403 
L 358.972863 240.237435 
L 359.524831 241.184283 
L 359.784581 242.022445 
L 360.04433 242.778161 
L 360.174205 242.680354 
L 360.693704 241.352602 
L 361.115797 239.516075 
L 362.089858 233.656014 
L 362.382077 232.271271 
L 362.80417 230.069991 
L 363.486013 228.285098 
L 363.615887 228.197207 
L 364.265261 227.813805 
L 364.427605 227.724663 
L 364.525011 227.669271 
L 364.752292 227.031234 
L 365.141916 225.671563 
L 365.401666 224.952352 
L 365.466603 224.832839 
L 365.564009 224.728317 
L 365.596478 224.742723 
L 365.661416 224.739181 
L 365.693884 224.68592 
L 365.888697 224.544796 
L 366.505602 224.285367 
L 366.667945 224.460077 
L 366.992632 225.422013 
L 367.479663 226.523734 
L 367.706944 226.578535 
L 368.129037 226.171998 
L 368.323849 225.672838 
L 368.55113 225.201334 
L 368.875817 224.792659 
L 369.135567 224.969717 
L 369.29791 225.429515 
L 369.492722 226.000096 
L 369.525191 225.967536 
L 369.687535 225.545417 
L 369.947284 225.076975 
L 370.271971 224.540103 
L 370.401846 224.65377 
L 370.661596 225.087928 
L 371.473313 227.81238 
L 372.122687 229.731954 
L 372.609718 231.825699 
L 372.772061 232.598287 
L 373.518841 236.232151 
L 373.908466 236.634932 
L 374.005872 236.506617 
L 374.135747 236.364768 
L 374.168215 236.391794 
L 374.363028 236.510689 
L 374.720183 236.424145 
L 374.882527 236.608253 
L 374.914995 236.58118 
L 375.012402 236.421651 
L 376.505962 232.160513 
L 376.635837 231.757284 
L 376.830649 231.305157 
L 376.960524 231.260439 
L 377.05793 231.175905 
L 377.317679 230.00533 
L 377.577429 229.257827 
L 377.707304 229.11929 
L 377.80471 228.869415 
L 378.226803 227.083295 
L 378.583959 226.020788 
L 378.648896 226.083142 
L 379.622957 228.677423 
L 379.947644 228.637486 
L 380.077519 228.635722 
L 380.239863 228.763709 
L 380.434675 229.334067 
L 380.629487 229.771969 
L 380.759362 229.640955 
L 381.668485 227.550515 
L 381.960704 227.271113 
L 381.993172 227.298046 
L 382.187985 227.650218 
L 382.252922 227.570936 
L 382.577609 227.077199 
L 382.902296 226.287337 
L 382.967233 226.171156 
L 382.999702 226.24396 
L 384.428325 229.871032 
L 384.688075 231.320125 
L 384.882887 231.860049 
L 385.272511 232.504724 
L 385.402386 232.607937 
L 385.597198 232.786287 
L 385.629667 232.754746 
L 385.921885 232.218273 
L 386.214104 231.09775 
L 386.538791 230.253929 
L 386.668665 230.274921 
L 387.577789 231.932687 
L 388.032351 233.625371 
L 388.324569 234.081404 
L 388.454444 234.049004 
L 388.8116 233.337559 
L 388.941475 233.436481 
L 389.071349 233.692121 
L 389.525911 234.902288 
L 389.655786 235.135724 
L 389.785661 235.263844 
L 389.948004 235.306341 
L 390.142816 235.302441 
L 390.499972 234.978398 
L 390.727253 235.019672 
L 390.987003 234.888471 
L 391.149346 235.021522 
L 391.181815 234.989092 
L 391.376627 234.938971 
L 391.571439 234.949404 
L 391.79872 235.095313 
L 391.928595 235.302041 
L 391.993532 235.263241 
L 392.220813 235.295622 
L 392.480563 235.887221 
L 392.675375 236.08953 
L 392.740313 236.026305 
L 393.162406 234.846428 
L 393.487093 233.059061 
L 393.746842 232.052298 
L 393.909186 231.227166 
L 394.233873 230.044436 
L 394.428685 229.881552 
L 394.461154 229.916905 
L 394.948184 230.390374 
L 395.110528 230.074997 
L 395.954714 227.745632 
L 396.376807 227.35169 
L 396.733963 226.424443 
L 397.480743 227.266119 
L 397.837899 228.105959 
L 398.06518 228.705747 
L 398.097648 228.644547 
L 398.130117 228.587719 
L 398.195054 228.654422 
L 398.292461 228.585373 
L 398.487273 228.189708 
L 398.487273 228.189708 
" clip-path="url(#p72d56ff6ae)" style="fill: none; stroke: #ff7f0e; stroke-width: 1.5; stroke-linecap: square"/>
   </g>
   <g id="line2d_17">
    <path d="M 73.832727 53.568 
L 75.163944 83.160071 
L 76.073068 99.23715 
L 77.501691 120.052147 
L 78.76797 133.877044 
L 80.553748 151.797343 
L 81.852497 164.153756 
L 84.125306 180.192821 
L 85.424054 187.892941 
L 86.300709 190.976476 
L 87.079957 193.94142 
L 87.664394 195.872415 
L 89.839797 201.59105 
L 91.495701 204.550658 
L 92.210012 206.033843 
L 93.963322 210.110887 
L 94.77504 211.67692 
L 95.619226 212.971251 
L 96.820568 214.656893 
L 98.216722 216.296521 
L 99.580407 218.340099 
L 100.26225 218.870907 
L 100.976562 219.618153 
L 104.385775 222.838144 
L 106.301429 224.059826 
L 106.885865 224.790317 
L 107.76252 225.859321 
L 108.217082 226.475611 
L 110.230142 229.838741 
L 111.691233 231.304502 
L 112.438013 232.019924 
L 113.184793 232.55593 
L 115.327728 233.823374 
L 116.626476 233.402025 
L 117.308318 233.220542 
L 118.574598 232.941511 
L 119.02916 232.827296 
L 120.295439 231.834645 
L 120.620126 231.777928 
L 120.912344 231.626031 
L 121.52925 231.060595 
L 121.951343 230.789871 
L 122.438373 230.371066 
L 123.379966 229.587828 
L 124.094277 229.335144 
L 125.425494 229.492055 
L 125.750181 229.321791 
L 126.172274 229.198935 
L 126.691773 229.286719 
L 127.113866 229.559285 
L 129.191863 231.272758 
L 129.613956 231.263964 
L 130.133456 231.131306 
L 130.458143 230.893585 
L 131.334797 230.329744 
L 131.756891 230.056433 
L 132.27639 229.715219 
L 132.990701 229.572105 
L 133.705013 229.708925 
L 135.036229 230.030035 
L 135.425854 230.268779 
L 135.718072 230.371773 
L 136.334977 230.451169 
L 138.477912 231.628792 
L 140.328628 231.986464 
L 141.367626 233.060215 
L 142.146875 234.141592 
L 142.731312 235.039126 
L 143.348217 235.946695 
L 144.452153 237.290932 
L 145.069058 238.130969 
L 147.244461 241.667483 
L 147.699023 242.087047 
L 148.510741 242.40535 
L 148.932834 242.364194 
L 151.919954 241.960505 
L 152.861547 241.972539 
L 153.413514 241.728843 
L 154.907075 240.73684 
L 156.465572 239.526243 
L 157.179884 238.498985 
L 158.543569 236.584769 
L 159.095537 236.488965 
L 159.679974 236.683784 
L 160.069598 236.894035 
L 162.796969 237.125385 
L 163.251531 237.056436 
L 163.868436 237.034001 
L 164.582748 236.826555 
L 165.297059 236.284886 
L 166.011371 235.898893 
L 166.660745 235.52371 
L 167.894555 234.795163 
L 168.641335 234.91405 
L 170.979082 235.749231 
L 171.53105 236.008611 
L 174.680514 236.924383 
L 175.329888 236.915587 
L 177.472822 237.99486 
L 177.927384 238.160395 
L 179.550819 238.947305 
L 180.427474 238.830488 
L 181.174254 238.726119 
L 181.985972 238.667454 
L 182.53794 238.782398 
L 182.927564 238.719246 
L 183.544469 238.264072 
L 184.583468 236.846872 
L 185.265311 235.930882 
L 187.213433 233.797256 
L 188.317368 232.712753 
L 189.064149 231.973368 
L 190.427834 229.992719 
L 192.116207 228.355157 
L 192.668174 228.367777 
L 193.090268 228.486933 
L 193.934454 228.782458 
L 194.421484 228.567972 
L 194.973452 228.394061 
L 195.979982 228.683342 
L 196.596887 229.12359 
L 197.928104 229.637033 
L 198.642416 230.27092 
L 199.713883 231.156524 
L 201.045099 232.349925 
L 204.227032 236.094717 
L 204.973812 236.672582 
L 205.363437 236.949065 
L 206.012811 237.410779 
L 206.954403 238.180385 
L 208.383026 239.546085 
L 208.999931 239.666957 
L 209.649305 239.248758 
L 211.53249 238.108339 
L 211.987052 238.166401 
L 212.961113 238.734467 
L 213.837768 239.644421 
L 214.746891 240.316704 
L 216.078108 240.478431 
L 216.630076 240.780962 
L 217.246981 240.707067 
L 220.299039 239.158726 
L 221.402975 239.249692 
L 222.799129 239.692794 
L 223.318629 239.991554 
L 223.675784 239.980341 
L 225.396625 239.59288 
L 226.208343 239.493137 
L 227.734372 239.653672 
L 229.520151 240.592795 
L 230.721493 241.786087 
L 231.630616 242.432467 
L 232.864427 242.514019 
L 233.676144 242.465242 
L 235.299579 241.950216 
L 235.52686 241.871449 
L 236.468453 241.003753 
L 238.481512 238.76451 
L 240.007541 237.555883 
L 240.689384 237.461948 
L 241.468633 237.136049 
L 243.319349 235.87389 
L 245.78697 232.142877 
L 246.923375 230.415389 
L 247.897436 229.777932 
L 248.871497 229.129692 
L 251.209243 228.565604 
L 252.28071 228.907298 
L 253.222303 229.485412 
L 255.982142 231.857549 
L 256.826328 232.030964 
L 257.28089 232.036755 
L 257.735452 231.95791 
L 261.014791 230.208062 
L 261.404415 229.873849 
L 262.865507 229.016162 
L 265.105847 228.198953 
L 265.52794 227.970788 
L 266.014971 227.6751 
L 266.761751 226.868759 
L 267.443594 226.191555 
L 268.807279 225.376735 
L 269.683934 225.277078 
L 270.04109 225.337179 
L 270.852807 225.610171 
L 271.502181 225.648656 
L 271.891806 225.831303 
L 272.833398 226.539812 
L 273.190554 226.929049 
L 273.612647 227.723254 
L 274.651646 229.80527 
L 275.04127 230.167019 
L 275.723113 230.380889 
L 276.956923 230.242398 
L 277.898516 230.247639 
L 278.742702 230.003825 
L 279.651826 229.713825 
L 280.398606 229.565538 
L 280.78823 229.398601 
L 281.340198 229.186947 
L 281.729822 229.246871 
L 282.216853 229.310297 
L 283.061039 229.358396 
L 283.54807 229.588808 
L 285.04163 230.363555 
L 285.528661 230.096696 
L 286.502722 229.573174 
L 287.314439 229.167068 
L 288.743062 228.5732 
L 289.587248 228.60043 
L 290.106747 228.766532 
L 290.593778 228.858003 
L 291.502902 228.991474 
L 292.736712 229.538785 
L 293.483492 229.720637 
L 293.873117 229.65539 
L 294.392616 229.495888 
L 295.009521 229.580258 
L 295.593958 229.847251 
L 296.762831 230.944236 
L 298.938234 233.667005 
L 299.879827 234.244027 
L 300.594138 234.262706 
L 302.444854 233.751986 
L 303.483852 233.517143 
L 304.360507 233.460972 
L 304.7826 233.379546 
L 305.367037 233.247137 
L 305.854068 232.923605 
L 306.438504 232.189837 
L 307.022941 231.506397 
L 308.224283 230.620277 
L 308.54897 230.347309 
L 309.360687 229.239512 
L 310.464623 227.31143 
L 311.373747 226.219636 
L 312.152996 225.775853 
L 312.834838 225.630018 
L 313.581619 225.466716 
L 315.821959 226.255188 
L 316.211583 226.376972 
L 316.731083 226.73739 
L 317.412925 227.20209 
L 319.458453 228.549851 
L 320.594858 229.809683 
L 321.471513 231.045132 
L 321.991012 231.50181 
L 322.997542 232.188758 
L 323.452104 232.805887 
L 323.906666 233.316981 
L 324.620977 234.006639 
L 326.471693 235.776433 
L 327.54316 236.370771 
L 329.848438 236.466676 
L 330.432875 236.471047 
L 330.822499 236.444701 
L 331.569279 236.483559 
L 333.225183 236.053515 
L 334.134307 235.685786 
L 334.621337 235.436777 
L 336.829209 234.272816 
L 337.965613 234.138863 
L 338.8098 234.093609 
L 339.524111 233.634314 
L 340.465703 233.027593 
L 341.30989 232.788144 
L 342.478763 232.195492 
L 343.452824 232.130886 
L 344.069729 232.106323 
L 346.602288 232.969674 
L 347.089318 232.953008 
L 347.608818 232.906082 
L 348.81016 232.641434 
L 349.329659 232.729121 
L 349.849158 232.786319 
L 350.466063 233.096439 
L 352.121967 233.976483 
L 352.511592 233.955245 
L 352.80381 233.903421 
L 354.849338 233.94041 
L 355.596118 233.847062 
L 356.927335 233.705337 
L 358.193614 234.048492 
L 359.29755 234.575913 
L 360.239142 235.040405 
L 361.213204 236.174495 
L 361.830109 236.838006 
L 362.252202 236.848984 
L 362.869107 236.619541 
L 363.518481 235.939423 
L 364.719823 234.63038 
L 365.661416 233.747048 
L 366.278321 233.472518 
L 367.447194 233.288406 
L 368.193974 233.226077 
L 369.103098 232.807255 
L 369.687535 232.298069 
L 370.759002 231.580951 
L 372.187625 230.254356 
L 373.746122 228.672413 
L 374.460434 228.039871 
L 375.109808 227.297618 
L 376.733243 225.333549 
L 378.096928 224.32474 
L 378.486553 224.210735 
L 379.200864 224.046285 
L 380.077519 223.999358 
L 380.824299 224.362138 
L 381.538611 224.527319 
L 383.097108 224.501312 
L 384.168575 224.878655 
L 384.655606 225.236859 
L 386.668665 226.770815 
L 387.188165 227.194304 
L 387.577789 227.46421 
L 389.103818 229.000348 
L 391.019471 230.157322 
L 392.188345 230.31748 
L 394.948184 228.833992 
L 395.56509 228.373853 
L 396.05212 228.17215 
L 397.675555 227.943256 
L 398.130117 228.048723 
L 398.487273 228.121789 
L 398.487273 228.121789 
" clip-path="url(#p72d56ff6ae)" style="fill: none; stroke: #2ca02c; stroke-width: 1.5; stroke-linecap: square"/>
   </g>
   <g id="line2d_18">
    <path d="M 73.832727 53.568 
L 76.689973 104.89261 
L 80.001781 157.815895 
L 82.599277 193.496756 
L 84.320118 213.641125 
L 87.01502 242.474241 
L 88.865736 259.354077 
L 90.196953 269.998294 
L 91.333357 277.395531 
L 92.534699 283.862257 
L 93.671104 288.850332 
L 94.677634 292.141713 
L 95.197133 293.384201 
L 95.976382 294.729855 
L 96.463412 295.236879 
L 96.982911 295.462487 
L 97.307598 295.438583 
L 97.729692 295.132573 
L 98.151785 294.668939 
L 98.76869 293.229439 
L 99.742751 290.278862 
L 100.619406 286.627284 
L 101.398655 282.352982 
L 102.145435 277.199228 
L 103.087027 269.006779 
L 104.2559 256.900316 
L 105.424774 241.455857 
L 106.26896 228.665698 
L 106.26896 228.665698 
" clip-path="url(#p72d56ff6ae)" style="fill: none; stroke: #d62728; stroke-width: 1.5; stroke-linecap: square"/>
   </g>
   <g id="patch_3">
    <path d="M 57.6 307.584 
L 57.6 41.472 
" style="fill: none; stroke: #000000; stroke-width: 0.8; stroke-linejoin: miter; stroke-linecap: square"/>
   </g>
   <g id="patch_4">
    <path d="M 414.72 307.584 
L 414.72 41.472 
" style="fill: none; stroke: #000000; stroke-width: 0.8; stroke-linejoin: miter; stroke-linecap: square"/>
   </g>
   <g id="patch_5">
    <path d="M 57.6 307.584 
L 414.72 307.584 
" style="fill: none; stroke: #000000; stroke-width: 0.8; stroke-linejoin: miter; stroke-linecap: square"/>
   </g>
   <g id="patch_6">
    <path d="M 57.6 41.472 
L 414.72 41.472 
" style="fill: none; stroke: #000000; stroke-width: 0.8; stroke-linejoin: miter; stroke-linecap: square"/>
   </g>
   <g id="text_17">
    <!-- $\beta = 0.2$ -->
    <g transform="translate(215.7 35.472) scale(0.12 -0.12)">
     <defs>
      <path id="DejaVuSans-Oblique-3b2" d="M 872 216 
L 572 -1331 
L -6 -1331 
L 928 3478 
Q 1206 4903 2538 4903 
Q 3888 4903 3659 3700 
Q 3503 2844 2894 2531 
Q 3713 2250 3553 1416 
Q 3272 -69 1759 -66 
Q 1097 -63 872 216 
z
M 1019 966 
Q 1259 422 1875 425 
Q 2775 425 2966 1406 
Q 3138 2288 1675 2219 
L 1778 2750 
Q 2909 2731 3106 3750 
Q 3241 4438 2509 4434 
Q 1691 4434 1503 3459 
L 1019 966 
z
" transform="scale(0.015625)"/>
      <path id="DejaVuSans-3d" d="M 678 2906 
L 4684 2906 
L 4684 2381 
L 678 2381 
L 678 2906 
z
M 678 1631 
L 4684 1631 
L 4684 1100 
L 678 1100 
L 678 1631 
z
" transform="scale(0.015625)"/>
     </defs>
     <use xlink:href="#DejaVuSans-Oblique-3b2" transform="translate(0 0.390625)"/>
     <use xlink:href="#DejaVuSans-3d" transform="translate(83.300781 0.390625)"/>
     <use xlink:href="#DejaVuSans-30" transform="translate(186.572266 0.390625)"/>
     <use xlink:href="#DejaVuSans-2e" transform="translate(250.195312 0.390625)"/>
     <use xlink:href="#DejaVuSans-32" transform="translate(276.482422 0.390625)"/>
    </g>
   </g>
   <g id="legend_1">
    <g id="patch_7">
     <path d="M 338.72 108.1845 
L 407.72 108.1845 
Q 409.72 108.1845 409.72 106.1845 
L 409.72 48.472 
Q 409.72 46.472 407.72 46.472 
L 338.72 46.472 
Q 336.72 46.472 336.72 48.472 
L 336.72 106.1845 
Q 336.72 108.1845 338.72 108.1845 
z
" style="fill: #ffffff; opacity: 0.8; stroke: #cccccc; stroke-linejoin: miter"/>
    </g>
    <g id="line2d_19">
     <path d="M 340.72 54.570438 
L 350.72 54.570438 
L 360.72 54.570438 
" style="fill: none; stroke: #1f77b4; stroke-width: 1.5; stroke-linecap: square"/>
    </g>
    <g id="text_18">
     <!-- $L = 16  $ -->
     <g transform="translate(368.72 58.070438) scale(0.1 -0.1)">
      <defs>
       <path id="DejaVuSans-Oblique-4c" d="M 1075 4666 
L 1709 4666 
L 909 525 
L 3181 525 
L 3078 0 
L 172 0 
L 1075 4666 
z
" transform="scale(0.015625)"/>
      </defs>
      <use xlink:href="#DejaVuSans-Oblique-4c" transform="translate(0 0.78125)"/>
      <use xlink:href="#DejaVuSans-3d" transform="translate(75.195312 0.78125)"/>
      <use xlink:href="#DejaVuSans-31" transform="translate(178.466797 0.78125)"/>
      <use xlink:href="#DejaVuSans-36" transform="translate(242.089844 0.78125)"/>
     </g>
    </g>
    <g id="line2d_20">
     <path d="M 340.72 69.248563 
L 350.72 69.248563 
L 360.72 69.248563 
" style="fill: none; stroke: #ff7f0e; stroke-width: 1.5; stroke-linecap: square"/>
    </g>
    <g id="text_19">
     <!-- $L = 32  $ -->
     <g transform="translate(368.72 72.748563) scale(0.1 -0.1)">
      <defs>
       <path id="DejaVuSans-33" d="M 2597 2516 
Q 3050 2419 3304 2112 
Q 3559 1806 3559 1356 
Q 3559 666 3084 287 
Q 2609 -91 1734 -91 
Q 1441 -91 1130 -33 
Q 819 25 488 141 
L 488 750 
Q 750 597 1062 519 
Q 1375 441 1716 441 
Q 2309 441 2620 675 
Q 2931 909 2931 1356 
Q 2931 1769 2642 2001 
Q 2353 2234 1838 2234 
L 1294 2234 
L 1294 2753 
L 1863 2753 
Q 2328 2753 2575 2939 
Q 2822 3125 2822 3475 
Q 2822 3834 2567 4026 
Q 2313 4219 1838 4219 
Q 1578 4219 1281 4162 
Q 984 4106 628 3988 
L 628 4550 
Q 988 4650 1302 4700 
Q 1616 4750 1894 4750 
Q 2613 4750 3031 4423 
Q 3450 4097 3450 3541 
Q 3450 3153 3228 2886 
Q 3006 2619 2597 2516 
z
" transform="scale(0.015625)"/>
      </defs>
      <use xlink:href="#DejaVuSans-Oblique-4c" transform="translate(0 0.78125)"/>
      <use xlink:href="#DejaVuSans-3d" transform="translate(75.195312 0.78125)"/>
      <use xlink:href="#DejaVuSans-33" transform="translate(178.466797 0.78125)"/>
      <use xlink:href="#DejaVuSans-32" transform="translate(242.089844 0.78125)"/>
     </g>
    </g>
    <g id="line2d_21">
     <path d="M 340.72 83.926688 
L 350.72 83.926688 
L 360.72 83.926688 
" style="fill: none; stroke: #2ca02c; stroke-width: 1.5; stroke-linecap: square"/>
    </g>
    <g id="text_20">
     <!-- $L = 64  $ -->
     <g transform="translate(368.72 87.426688) scale(0.1 -0.1)">
      <use xlink:href="#DejaVuSans-Oblique-4c" transform="translate(0 0.78125)"/>
      <use xlink:href="#DejaVuSans-3d" transform="translate(75.195312 0.78125)"/>
      <use xlink:href="#DejaVuSans-36" transform="translate(178.466797 0.78125)"/>
      <use xlink:href="#DejaVuSans-34" transform="translate(242.089844 0.78125)"/>
     </g>
    </g>
    <g id="line2d_22">
     <path d="M 340.72 98.604813 
L 350.72 98.604813 
L 360.72 98.604813 
" style="fill: none; stroke: #d62728; stroke-width: 1.5; stroke-linecap: square"/>
    </g>
    <g id="text_21">
     <!-- $L = 128 $ -->
     <g transform="translate(368.72 102.104813) scale(0.1 -0.1)">
      <use xlink:href="#DejaVuSans-Oblique-4c" transform="translate(0 0.78125)"/>
      <use xlink:href="#DejaVuSans-3d" transform="translate(75.195312 0.78125)"/>
      <use xlink:href="#DejaVuSans-31" transform="translate(178.466797 0.78125)"/>
      <use xlink:href="#DejaVuSans-32" transform="translate(242.089844 0.78125)"/>
      <use xlink:href="#DejaVuSans-38" transform="translate(305.712891 0.78125)"/>
     </g>
    </g>
   </g>
  </g>
 </g>
 <defs>
  <clipPath id="p72d56ff6ae">
   <rect x="57.6" y="41.472" width="357.12" height="266.112"/>
  </clipPath>
 </defs>
</svg>
