<?xml version="1.0" encoding="UTF-8" standalone="no"?>
<svg
   width="430"
   height="350"
   viewBox="0 0 1720 1400"
   version="1.1"
   id="svg78"
   sodipodi:docname="autocorr-example.svg"
   inkscape:version="1.4.2 (ebf0e940, 2025-05-08)"
   xmlns:inkscape="http://www.inkscape.org/namespaces/inkscape"
   xmlns:sodipodi="http://sodipodi.sourceforge.net/DTD/sodipodi-0.dtd"
   xmlns="http://www.w3.org/2000/svg"
   xmlns:svg="http://www.w3.org/2000/svg">
  <sodipodi:namedview
     id="namedview78"
     pagecolor="#ffffff"
     bordercolor="#000000"
     borderopacity="0.25"
     inkscape:showpageshadow="2"
     inkscape:pageopacity="0.0"
     inkscape:pagecheckerboard="0"
     inkscape:deskcolor="#d1d1d1"
     showgrid="false"
     inkscape:zoom="3.2927193"
     inkscape:cx="214.41245"
     inkscape:cy="68.028879"
     inkscape:window-width="1728"
     inkscape:window-height="1055"
     inkscape:window-x="0"
     inkscape:window-y="34"
     inkscape:window-maximized="1"
     inkscape:current-layer="svg78" />
  <defs
     id="defs1">
    <clipPath
       id="clip210">
      <rect
         x="0"
         y="0"
         width="1720"
         height="1400"
         id="rect1" />
    </clipPath>
  </defs>
  <path
     clip-path="url(#clip210)"
     d="M0 1400 L1720 1400 L1720 -4.44089e-15 L0 -4.44089e-15  Z"
     fill="#ffffff"
     fill-rule="evenodd"
     fill-opacity="1"
     id="path1" />
  <defs
     id="defs2">
    <clipPath
       id="clip211">
      <rect
         x="344"
         y="0"
         width="1205"
         height="1205"
         id="rect2" />
    </clipPath>
  </defs>
  <path
     clip-path="url(#clip210)"
     d="M256.883 1222.87 L1672.76 1222.87 L1672.76 115.736 L256.883 115.736  Z"
     fill="#ffffff"
     fill-rule="evenodd"
     fill-opacity="1"
     id="path2" />
  <defs
     id="defs3">
    <clipPath
       id="clip212">
      <rect
         x="256"
         y="115"
         width="1417"
         height="1108"
         id="rect3" />
    </clipPath>
  </defs>
  <polyline
     clip-path="url(#clip212)"
     style="stroke:#000000; stroke-linecap:round; stroke-linejoin:round; stroke-width:2; stroke-opacity:0.1; fill:none"
     points="381.362,1222.87 381.362,115.736 "
     id="polyline3" />
  <polyline
     clip-path="url(#clip212)"
     style="stroke:#000000; stroke-linecap:round; stroke-linejoin:round; stroke-width:2; stroke-opacity:0.1; fill:none"
     points="770.334,1222.87 770.334,115.736 "
     id="polyline4" />
  <polyline
     clip-path="url(#clip212)"
     style="stroke:#000000; stroke-linecap:round; stroke-linejoin:round; stroke-width:2; stroke-opacity:0.1; fill:none"
     points="1159.31,1222.87 1159.31,115.736 "
     id="polyline5" />
  <polyline
     clip-path="url(#clip212)"
     style="stroke:#000000; stroke-linecap:round; stroke-linejoin:round; stroke-width:2; stroke-opacity:0.1; fill:none"
     points="1548.28,1222.87 1548.28,115.736 "
     id="polyline6" />
  <polyline
     clip-path="url(#clip212)"
     style="stroke:#000000; stroke-linecap:round; stroke-linejoin:round; stroke-width:2; stroke-opacity:0.1; fill:none"
     points="256.883,1003.74 1672.76,1003.74 "
     id="polyline7" />
  <polyline
     clip-path="url(#clip212)"
     style="stroke:#000000; stroke-linecap:round; stroke-linejoin:round; stroke-width:2; stroke-opacity:0.1; fill:none"
     points="256.883,516.795 1672.76,516.795 "
     id="polyline8" />
  <polyline
     clip-path="url(#clip210)"
     style="stroke:#000000; stroke-linecap:round; stroke-linejoin:round; stroke-width:4; stroke-opacity:1; fill:none"
     points="256.883,1222.87 1672.76,1222.87 "
     id="polyline9" />
  <polyline
     clip-path="url(#clip210)"
     style="stroke:#000000; stroke-linecap:round; stroke-linejoin:round; stroke-width:4; stroke-opacity:1; fill:none"
     points="381.362,1222.87 381.362,1203.97 "
     id="polyline10" />
  <polyline
     clip-path="url(#clip210)"
     style="stroke:#000000; stroke-linecap:round; stroke-linejoin:round; stroke-width:4; stroke-opacity:1; fill:none"
     points="770.334,1222.87 770.334,1203.97 "
     id="polyline11" />
  <polyline
     clip-path="url(#clip210)"
     style="stroke:#000000; stroke-linecap:round; stroke-linejoin:round; stroke-width:4; stroke-opacity:1; fill:none"
     points="1159.31,1222.87 1159.31,1203.97 "
     id="polyline12" />
  <polyline
     clip-path="url(#clip210)"
     style="stroke:#000000; stroke-linecap:round; stroke-linejoin:round; stroke-width:4; stroke-opacity:1; fill:none"
     points="1548.28,1222.87 1548.28,1203.97 "
     id="polyline13" />
  <path
     clip-path="url(#clip210)"
     d="M391.442 1245.27 L389.454 1249.6 L379.055 1249.6 L376.787 1254.24 Q383.541 1255.23 387.491 1259.26 Q390.881 1262.73 390.881 1267.42 Q390.881 1270.14 389.76 1272.46 Q388.664 1274.78 386.982 1276.41 Q385.299 1278.05 383.235 1279.04 Q380.304 1280.44 377.22 1280.44 Q374.111 1280.44 372.683 1279.4 Q371.282 1278.33 371.282 1277.05 Q371.282 1276.34 371.868 1275.8 Q372.454 1275.24 373.346 1275.24 Q374.009 1275.24 374.493 1275.45 Q375.003 1275.65 376.201 1276.49 Q378.112 1277.82 380.075 1277.82 Q383.057 1277.82 385.299 1275.57 Q387.568 1273.3 387.568 1270.07 Q387.568 1266.93 385.554 1264.23 Q383.541 1261.5 379.998 1260.03 Q377.22 1258.88 372.429 1258.7 L379.055 1245.27 L391.442 1245.27 Z"
     fill="#000000"
     fill-rule="nonzero"
     fill-opacity="1"
     id="path13" />
  <path
     clip-path="url(#clip210)"
     d="M748.224 1248.66 L756.634 1244.56 L757.475 1244.56 L757.475 1273.74 Q757.475 1276.64 757.705 1277.36 Q757.96 1278.07 758.724 1278.45 Q759.489 1278.84 761.834 1278.89 L761.834 1279.83 L748.835 1279.83 L748.835 1278.89 Q751.282 1278.84 751.996 1278.48 Q752.709 1278.1 752.99 1277.48 Q753.27 1276.85 753.27 1273.74 L753.27 1255.08 Q753.27 1251.31 753.015 1250.24 Q752.837 1249.42 752.353 1249.04 Q751.894 1248.66 751.231 1248.66 Q750.288 1248.66 748.606 1249.45 L748.224 1248.66 Z"
     fill="#000000"
     fill-rule="nonzero"
     fill-opacity="1"
     id="path14" />
  <path
     clip-path="url(#clip210)"
     d="M770.091 1262.75 Q770.091 1256.84 771.875 1252.58 Q773.66 1248.3 776.616 1246.21 Q778.91 1244.56 781.357 1244.56 Q785.332 1244.56 788.493 1248.61 Q792.443 1253.63 792.443 1262.22 Q792.443 1268.23 790.71 1272.44 Q788.977 1276.64 786.275 1278.55 Q783.599 1280.44 781.102 1280.44 Q776.157 1280.44 772.869 1274.6 Q770.091 1269.69 770.091 1262.75 M775.087 1263.39 Q775.087 1270.53 776.845 1275.04 Q778.298 1278.84 781.178 1278.84 Q782.554 1278.84 784.033 1277.61 Q785.511 1276.36 786.275 1273.46 Q787.448 1269.07 787.448 1261.1 Q787.448 1255.18 786.224 1251.23 Q785.307 1248.3 783.854 1247.08 Q782.809 1246.24 781.331 1246.24 Q779.598 1246.24 778.247 1247.79 Q776.412 1249.91 775.749 1254.44 Q775.087 1258.98 775.087 1263.39 Z"
     fill="#000000"
     fill-rule="nonzero"
     fill-opacity="1"
     id="path15" />
  <path
     clip-path="url(#clip210)"
     d="M1137.99 1248.66 L1146.4 1244.56 L1147.24 1244.56 L1147.24 1273.74 Q1147.24 1276.64 1147.47 1277.36 Q1147.72 1278.07 1148.49 1278.45 Q1149.25 1278.84 1151.6 1278.89 L1151.6 1279.83 L1138.6 1279.83 L1138.6 1278.89 Q1141.04 1278.84 1141.76 1278.48 Q1142.47 1278.1 1142.75 1277.48 Q1143.03 1276.85 1143.03 1273.74 L1143.03 1255.08 Q1143.03 1251.31 1142.78 1250.24 Q1142.6 1249.42 1142.11 1249.04 Q1141.66 1248.66 1140.99 1248.66 Q1140.05 1248.66 1138.37 1249.45 L1137.99 1248.66 Z"
     fill="#000000"
     fill-rule="nonzero"
     fill-opacity="1"
     id="path16" />
  <path
     clip-path="url(#clip210)"
     d="M1180.62 1245.27 L1178.64 1249.6 L1168.24 1249.6 L1165.97 1254.24 Q1172.72 1255.23 1176.67 1259.26 Q1180.06 1262.73 1180.06 1267.42 Q1180.06 1270.14 1178.94 1272.46 Q1177.85 1274.78 1176.16 1276.41 Q1174.48 1278.05 1172.42 1279.04 Q1169.49 1280.44 1166.4 1280.44 Q1163.29 1280.44 1161.87 1279.4 Q1160.46 1278.33 1160.46 1277.05 Q1160.46 1276.34 1161.05 1275.8 Q1161.64 1275.24 1162.53 1275.24 Q1163.19 1275.24 1163.68 1275.45 Q1164.19 1275.65 1165.38 1276.49 Q1167.3 1277.82 1169.26 1277.82 Q1172.24 1277.82 1174.48 1275.57 Q1176.75 1273.3 1176.75 1270.07 Q1176.75 1266.93 1174.74 1264.23 Q1172.72 1261.5 1169.18 1260.03 Q1166.4 1258.88 1161.61 1258.7 L1168.24 1245.27 L1180.62 1245.27 Z"
     fill="#000000"
     fill-rule="nonzero"
     fill-opacity="1"
     id="path17" />
  <path
     clip-path="url(#clip210)"
     d="M1546.48 1273.18 L1544.06 1279.83 L1523.67 1279.83 L1523.67 1278.89 Q1532.67 1270.68 1536.34 1265.48 Q1540.01 1260.28 1540.01 1255.97 Q1540.01 1252.69 1537.99 1250.57 Q1535.98 1248.45 1533.18 1248.45 Q1530.63 1248.45 1528.59 1249.96 Q1526.58 1251.44 1525.61 1254.32 L1524.66 1254.32 Q1525.3 1249.6 1527.93 1247.08 Q1530.58 1244.56 1534.53 1244.56 Q1538.73 1244.56 1541.54 1247.26 Q1544.36 1249.96 1544.36 1253.63 Q1544.36 1256.25 1543.14 1258.88 Q1541.26 1263.01 1537.02 1267.62 Q1530.68 1274.55 1529.1 1275.98 L1538.12 1275.98 Q1540.87 1275.98 1541.97 1275.78 Q1543.09 1275.57 1543.98 1274.96 Q1544.87 1274.32 1545.54 1273.18 L1546.48 1273.18 Z"
     fill="#000000"
     fill-rule="nonzero"
     fill-opacity="1"
     id="path18" />
  <path
     clip-path="url(#clip210)"
     d="M1550.53 1262.75 Q1550.53 1256.84 1552.32 1252.58 Q1554.1 1248.3 1557.06 1246.21 Q1559.35 1244.56 1561.8 1244.56 Q1565.77 1244.56 1568.93 1248.61 Q1572.88 1253.63 1572.88 1262.22 Q1572.88 1268.23 1571.15 1272.44 Q1569.42 1276.64 1566.72 1278.55 Q1564.04 1280.44 1561.54 1280.44 Q1556.6 1280.44 1553.31 1274.6 Q1550.53 1269.69 1550.53 1262.75 M1555.53 1263.39 Q1555.53 1270.53 1557.29 1275.04 Q1558.74 1278.84 1561.62 1278.84 Q1563 1278.84 1564.47 1277.61 Q1565.95 1276.36 1566.72 1273.46 Q1567.89 1269.07 1567.89 1261.1 Q1567.89 1255.18 1566.67 1251.23 Q1565.75 1248.3 1564.3 1247.08 Q1563.25 1246.24 1561.77 1246.24 Q1560.04 1246.24 1558.69 1247.79 Q1556.85 1249.91 1556.19 1254.44 Q1555.53 1258.98 1555.53 1263.39 Z"
     fill="#000000"
     fill-rule="nonzero"
     fill-opacity="1"
     id="path19" />
  <path
     clip-path="url(#clip210)"
     d="M942.289 1305.74 L942.289 1336.71 Q942.289 1338.9 942.595 1339.61 Q942.926 1340.32 943.589 1340.71 Q944.252 1341.06 946.061 1341.06 L946.061 1341.98 L934.618 1341.98 L934.618 1341.06 Q936.223 1341.06 936.81 1340.73 Q937.396 1340.4 937.727 1339.64 Q938.058 1338.87 938.058 1336.71 L938.058 1315.5 Q938.058 1311.55 937.88 1310.66 Q937.702 1309.74 937.294 1309.41 Q936.911 1309.08 936.3 1309.08 Q935.637 1309.08 934.618 1309.49 L934.184 1308.59 L941.142 1305.74 L942.289 1305.74 Z"
     fill="#000000"
     fill-rule="nonzero"
     fill-opacity="1"
     id="path20" />
  <path
     clip-path="url(#clip210)"
     d="M961.99 1338.62 Q958.397 1341.39 957.479 1341.83 Q956.103 1342.47 954.548 1342.47 Q952.127 1342.47 950.547 1340.81 Q948.992 1339.15 948.992 1336.45 Q948.992 1334.74 949.757 1333.49 Q950.802 1331.76 953.376 1330.23 Q955.976 1328.7 961.99 1326.51 L961.99 1325.59 Q961.99 1322.1 960.869 1320.8 Q959.773 1319.5 957.658 1319.5 Q956.052 1319.5 955.109 1320.37 Q954.14 1321.23 954.14 1322.36 L954.191 1323.83 Q954.191 1325.01 953.58 1325.64 Q952.994 1326.28 952.025 1326.28 Q951.082 1326.28 950.47 1325.62 Q949.884 1324.96 949.884 1323.81 Q949.884 1321.62 952.127 1319.78 Q954.37 1317.95 958.422 1317.95 Q961.532 1317.95 963.52 1318.99 Q965.023 1319.78 965.737 1321.46 Q966.196 1322.56 966.196 1325.95 L966.196 1333.88 Q966.196 1337.22 966.323 1337.98 Q966.451 1338.72 966.731 1338.97 Q967.037 1339.23 967.419 1339.23 Q967.827 1339.23 968.133 1339.05 Q968.668 1338.72 970.197 1337.19 L970.197 1338.62 Q967.343 1342.44 964.743 1342.44 Q963.494 1342.44 962.755 1341.57 Q962.016 1340.71 961.99 1338.62 M961.99 1336.96 L961.99 1328.07 Q958.142 1329.59 957.02 1330.23 Q955.007 1331.35 954.14 1332.58 Q953.274 1333.8 953.274 1335.25 Q953.274 1337.09 954.37 1338.31 Q955.466 1339.51 956.893 1339.51 Q958.83 1339.51 961.99 1336.96 Z"
     fill="#000000"
     fill-rule="nonzero"
     fill-opacity="1"
     id="path21" />
  <path
     clip-path="url(#clip210)"
     d="M978.174 1333.47 Q976.034 1332.42 974.887 1330.56 Q973.74 1328.68 973.74 1326.41 Q973.74 1322.94 976.339 1320.44 Q978.965 1317.95 983.042 1317.95 Q986.381 1317.95 988.828 1319.58 L993.772 1319.58 Q994.868 1319.58 995.047 1319.65 Q995.225 1319.71 995.302 1319.86 Q995.454 1320.09 995.454 1320.67 Q995.454 1321.34 995.327 1321.59 Q995.251 1321.72 995.047 1321.8 Q994.868 1321.87 993.772 1321.87 L990.739 1321.87 Q992.167 1323.71 992.167 1326.56 Q992.167 1329.82 989.669 1332.14 Q987.171 1334.46 982.966 1334.46 Q981.233 1334.46 979.423 1333.95 Q978.302 1334.92 977.894 1335.66 Q977.512 1336.37 977.512 1336.88 Q977.512 1337.32 977.92 1337.72 Q978.353 1338.13 979.576 1338.31 Q980.29 1338.41 983.144 1338.49 Q988.395 1338.62 989.949 1338.85 Q992.32 1339.18 993.721 1340.6 Q995.149 1342.03 995.149 1344.12 Q995.149 1347 992.447 1349.53 Q988.471 1353.25 982.074 1353.25 Q977.155 1353.25 973.765 1351.03 Q971.854 1349.75 971.854 1348.38 Q971.854 1347.77 972.134 1347.15 Q972.567 1346.21 973.918 1344.53 Q974.097 1344.3 976.518 1341.78 Q975.193 1340.99 974.632 1340.38 Q974.097 1339.74 974.097 1338.95 Q974.097 1338.06 974.81 1336.86 Q975.549 1335.66 978.174 1333.47 M982.609 1319.17 Q980.723 1319.17 979.449 1320.67 Q978.174 1322.18 978.174 1325.29 Q978.174 1329.31 979.908 1331.53 Q981.233 1333.21 983.272 1333.21 Q985.209 1333.21 986.458 1331.76 Q987.707 1330.31 987.707 1327.2 Q987.707 1323.15 985.948 1320.85 Q984.648 1319.17 982.609 1319.17 M977.92 1341.98 Q976.722 1343.28 976.11 1344.4 Q975.498 1345.52 975.498 1346.47 Q975.498 1347.69 976.977 1348.61 Q979.525 1350.19 984.342 1350.19 Q988.93 1350.19 991.096 1348.56 Q993.288 1346.95 993.288 1345.12 Q993.288 1343.79 991.988 1343.23 Q990.663 1342.67 986.738 1342.57 Q981.003 1342.41 977.92 1341.98 Z"
     fill="#000000"
     fill-rule="nonzero"
     fill-opacity="1"
     id="path22" />
  <polyline
     clip-path="url(#clip210)"
     style="stroke:#000000; stroke-linecap:round; stroke-linejoin:round; stroke-width:4; stroke-opacity:1; fill:none"
     points="256.883,1222.87 256.883,115.736 "
     id="polyline22" />
  <polyline
     clip-path="url(#clip210)"
     style="stroke:#000000; stroke-linecap:round; stroke-linejoin:round; stroke-width:4; stroke-opacity:1; fill:none"
     points="256.883,1003.74 275.781,1003.74 "
     id="polyline23" />
  <polyline
     clip-path="url(#clip210)"
     style="stroke:#000000; stroke-linecap:round; stroke-linejoin:round; stroke-width:4; stroke-opacity:1; fill:none"
     points="256.883,516.795 275.781,516.795 "
     id="polyline24" />
  <path
     clip-path="url(#clip210)"
     d="M112.522 996.301 L120.932 992.198 L121.774 992.198 L121.774 1021.38 Q121.774 1024.29 122.003 1025 Q122.258 1025.71 123.022 1026.1 Q123.787 1026.48 126.132 1026.53 L126.132 1027.47 L113.134 1027.47 L113.134 1026.53 Q115.58 1026.48 116.294 1026.12 Q117.008 1025.74 117.288 1025.13 Q117.568 1024.49 117.568 1021.38 L117.568 1002.72 Q117.568 998.952 117.313 997.881 Q117.135 997.066 116.651 996.683 Q116.192 996.301 115.529 996.301 Q114.586 996.301 112.904 997.091 L112.522 996.301 Z"
     fill="#000000"
     fill-rule="nonzero"
     fill-opacity="1"
     id="path24" />
  <path
     clip-path="url(#clip210)"
     d="M134.389 1010.4 Q134.389 1004.48 136.174 1000.23 Q137.958 995.944 140.914 993.854 Q143.208 992.198 145.655 992.198 Q149.631 992.198 152.791 996.25 Q156.741 1001.27 156.741 1009.86 Q156.741 1015.87 155.008 1020.08 Q153.275 1024.29 150.574 1026.2 Q147.897 1028.08 145.4 1028.08 Q140.455 1028.08 137.168 1022.25 Q134.389 1017.33 134.389 1010.4 M139.385 1011.03 Q139.385 1018.17 141.143 1022.68 Q142.596 1026.48 145.476 1026.48 Q146.852 1026.48 148.331 1025.25 Q149.809 1024.01 150.574 1021.1 Q151.746 1016.72 151.746 1008.74 Q151.746 1002.83 150.523 998.875 Q149.605 995.944 148.152 994.721 Q147.107 993.88 145.629 993.88 Q143.896 993.88 142.545 995.435 Q140.71 997.55 140.048 1002.09 Q139.385 1006.62 139.385 1011.03 Z"
     fill="#000000"
     fill-rule="nonzero"
     fill-opacity="1"
     id="path25" />
  <path
     clip-path="url(#clip210)"
     d="M179.065 986.808 L156.741 986.808 L156.741 985.11 L179.065 985.11 L179.065 986.808 Z"
     fill="#000000"
     fill-rule="nonzero"
     fill-opacity="1"
     id="path26" />
  <path
     clip-path="url(#clip210)"
     d="M181.425 986.187 Q181.425 981.382 182.875 977.924 Q184.324 974.445 186.726 972.747 Q188.59 971.401 190.578 971.401 Q193.809 971.401 196.376 974.694 Q199.586 978.773 199.586 985.752 Q199.586 990.639 198.178 994.056 Q196.77 997.472 194.575 999.026 Q192.4 1000.56 190.371 1000.56 Q186.354 1000.56 183.682 995.816 Q181.425 991.819 181.425 986.187 M185.484 986.704 Q185.484 992.503 186.913 996.168 Q188.093 999.253 190.433 999.253 Q191.551 999.253 192.752 998.259 Q193.954 997.245 194.575 994.884 Q195.527 991.322 195.527 984.841 Q195.527 980.036 194.533 976.827 Q193.788 974.445 192.608 973.451 Q191.759 972.768 190.557 972.768 Q189.149 972.768 188.052 974.031 Q186.561 975.75 186.022 979.436 Q185.484 983.122 185.484 986.704 Z"
     fill="#000000"
     fill-rule="nonzero"
     fill-opacity="1"
     id="path27" />
  <path
     clip-path="url(#clip210)"
     d="M206.399 996.044 Q207.372 996.044 208.035 996.727 Q208.698 997.39 208.698 998.342 Q208.698 999.295 208.014 999.978 Q207.352 1000.64 206.399 1000.64 Q205.446 1000.64 204.763 999.978 Q204.1 999.295 204.1 998.342 Q204.1 997.369 204.763 996.706 Q205.446 996.044 206.399 996.044 Z"
     fill="#000000"
     fill-rule="nonzero"
     fill-opacity="1"
     id="path28" />
  <path
     clip-path="url(#clip210)"
     d="M213.937 1000.64 L213.937 999.875 Q216.629 999.833 218.948 998.632 Q221.267 997.41 223.421 994.387 Q225.595 991.364 226.444 987.74 Q223.193 989.831 220.563 989.831 Q217.602 989.831 215.49 987.553 Q213.378 985.255 213.378 981.465 Q213.378 977.779 215.49 974.901 Q218.037 971.401 222.137 971.401 Q225.595 971.401 228.06 974.259 Q231.083 977.8 231.083 982.998 Q231.083 987.678 228.784 991.736 Q226.486 995.774 222.386 998.446 Q219.052 1000.64 215.117 1000.64 L213.937 1000.64 M226.776 986.207 Q227.148 983.515 227.148 981.9 Q227.148 979.891 226.465 977.572 Q225.782 975.232 224.519 973.99 Q223.276 972.747 221.682 972.747 Q219.839 972.747 218.451 974.404 Q217.064 976.06 217.064 979.332 Q217.064 983.702 218.907 986.166 Q220.253 987.947 222.22 987.947 Q223.172 987.947 224.477 987.491 Q225.782 987.036 226.776 986.207 Z"
     fill="#000000"
     fill-rule="nonzero"
     fill-opacity="1"
     id="path29" />
  <path
     clip-path="url(#clip210)"
     d="M112.336 509.353 L120.746 505.249 L121.587 505.249 L121.587 534.432 Q121.587 537.337 121.817 538.051 Q122.071 538.764 122.836 539.147 Q123.601 539.529 125.945 539.58 L125.945 540.523 L112.947 540.523 L112.947 539.58 Q115.394 539.529 116.108 539.172 Q116.821 538.79 117.102 538.178 Q117.382 537.541 117.382 534.432 L117.382 515.775 Q117.382 512.003 117.127 510.933 Q116.949 510.117 116.464 509.735 Q116.006 509.353 115.343 509.353 Q114.4 509.353 112.718 510.143 L112.336 509.353 Z"
     fill="#000000"
     fill-rule="nonzero"
     fill-opacity="1"
     id="path30" />
  <path
     clip-path="url(#clip210)"
     d="M134.203 523.447 Q134.203 517.534 135.987 513.278 Q137.771 508.996 140.728 506.906 Q143.022 505.249 145.468 505.249 Q149.444 505.249 152.605 509.302 Q156.555 514.323 156.555 522.912 Q156.555 528.926 154.822 533.132 Q153.089 537.337 150.387 539.249 Q147.711 541.135 145.213 541.135 Q140.269 541.135 136.981 535.298 Q134.203 530.379 134.203 523.447 M139.199 524.084 Q139.199 531.22 140.957 535.731 Q142.41 539.529 145.29 539.529 Q146.666 539.529 148.144 538.306 Q149.623 537.057 150.387 534.151 Q151.56 529.768 151.56 521.79 Q151.56 515.877 150.336 511.927 Q149.419 508.996 147.966 507.772 Q146.921 506.931 145.443 506.931 Q143.71 506.931 142.359 508.486 Q140.524 510.602 139.861 515.138 Q139.199 519.675 139.199 524.084 Z"
     fill="#000000"
     fill-rule="nonzero"
     fill-opacity="1"
     id="path31" />
  <path
     clip-path="url(#clip210)"
     d="M178.878 499.859 L156.555 499.859 L156.555 498.161 L178.878 498.161 L178.878 499.859 Z"
     fill="#000000"
     fill-rule="nonzero"
     fill-opacity="1"
     id="path32" />
  <path
     clip-path="url(#clip210)"
     d="M181.239 499.238 Q181.239 494.434 182.688 490.976 Q184.138 487.497 186.54 485.799 Q188.404 484.453 190.392 484.453 Q193.622 484.453 196.19 487.745 Q199.4 491.825 199.4 498.803 Q199.4 503.69 197.992 507.107 Q196.583 510.524 194.388 512.077 Q192.214 513.61 190.185 513.61 Q186.167 513.61 183.496 508.867 Q181.239 504.871 181.239 499.238 M185.298 499.756 Q185.298 505.554 186.726 509.219 Q187.907 512.305 190.247 512.305 Q191.365 512.305 192.566 511.311 Q193.767 510.296 194.388 507.936 Q195.341 504.374 195.341 497.892 Q195.341 493.088 194.347 489.878 Q193.602 487.497 192.421 486.503 Q191.572 485.819 190.371 485.819 Q188.963 485.819 187.865 487.083 Q186.374 488.801 185.836 492.487 Q185.298 496.173 185.298 499.756 Z"
     fill="#000000"
     fill-rule="nonzero"
     fill-opacity="1"
     id="path33" />
  <path
     clip-path="url(#clip210)"
     d="M206.213 509.095 Q207.186 509.095 207.849 509.779 Q208.511 510.441 208.511 511.394 Q208.511 512.346 207.828 513.03 Q207.165 513.692 206.213 513.692 Q205.26 513.692 204.577 513.03 Q203.914 512.346 203.914 511.394 Q203.914 510.42 204.577 509.758 Q205.26 509.095 206.213 509.095 Z"
     fill="#000000"
     fill-rule="nonzero"
     fill-opacity="1"
     id="path34" />
  <path
     clip-path="url(#clip210)"
     d="M230.524 484.453 L230.524 485.219 Q227.79 485.488 226.051 486.316 Q224.332 487.124 222.634 488.801 Q220.957 490.479 219.839 492.55 Q218.741 494.6 217.996 497.437 Q220.977 495.387 223.98 495.387 Q226.859 495.387 228.971 497.706 Q231.083 500.025 231.083 503.67 Q231.083 507.19 228.95 510.089 Q226.382 513.61 222.158 513.61 Q219.279 513.61 217.271 511.704 Q213.336 507.998 213.336 502.096 Q213.336 498.327 214.848 494.931 Q216.36 491.535 219.155 488.905 Q221.971 486.275 224.539 485.364 Q227.107 484.453 229.323 484.453 L230.524 484.453 M217.643 498.948 Q217.271 501.744 217.271 503.463 Q217.271 505.451 217.996 507.791 Q218.741 510.11 220.191 511.477 Q221.247 512.45 222.758 512.45 Q224.56 512.45 225.968 510.752 Q227.397 509.054 227.397 505.906 Q227.397 502.365 225.989 499.777 Q224.581 497.188 221.992 497.188 Q221.205 497.188 220.294 497.519 Q219.404 497.851 217.643 498.948 Z"
     fill="#000000"
     fill-rule="nonzero"
     fill-opacity="1"
     id="path35" />
  <path
     clip-path="url(#clip210)"
     d="M40.8174 704.423 L52.5668 703.633 L52.5668 704.423 Q47.291 706.004 44.9718 708.935 Q42.6525 711.866 42.6525 715.969 Q42.6525 719.41 44.411 722.188 Q46.1441 724.966 49.9672 726.571 Q53.7902 728.152 59.4737 728.152 Q64.1633 728.152 67.604 726.648 Q71.0447 725.144 72.8797 722.137 Q74.7148 719.104 74.7148 715.23 Q74.7148 711.866 73.2875 709.291 Q71.8348 706.717 67.553 703.633 L68.0627 702.843 Q72.6758 705.443 74.8167 708.909 Q76.9576 712.375 76.9576 717.141 Q76.9576 725.73 70.5859 730.445 Q65.8454 733.963 59.4227 733.963 Q54.2489 733.963 49.9162 731.643 Q45.5834 729.324 43.2132 725.272 Q40.8174 721.194 40.8174 716.377 Q40.8174 712.63 42.6525 708.986 Q43.2132 707.915 43.2132 707.456 Q43.2132 706.768 42.7289 706.258 Q42.0408 705.596 40.8174 705.315 L40.8174 704.423 Z"
     fill="#000000"
     fill-rule="nonzero"
     fill-opacity="1"
     id="path36" />
  <path
     clip-path="url(#clip210)"
     d="M86.3877 684.824 L87.3307 684.824 Q85.3937 688.673 82.7941 691.247 Q79.0985 694.917 74.0776 696.905 Q69.0567 698.893 63.6535 698.893 Q55.7526 698.893 49.2535 694.993 Q42.7289 691.094 39.9254 684.824 L40.9958 684.824 Q42.7289 687.959 45.7364 689.972 Q48.7438 691.986 53.3569 692.98 Q57.97 693.974 62.9909 693.974 Q68.445 693.974 72.9052 693.133 Q76.4224 692.47 78.5378 691.527 Q80.6787 690.584 82.6411 689.004 Q84.6036 687.398 86.3877 684.824 Z"
     fill="#000000"
     fill-rule="nonzero"
     fill-opacity="1"
     id="path37" />
  <path
     clip-path="url(#clip210)"
     d="M39.9254 673.992 L70.8918 673.992 Q73.0836 673.992 73.7972 673.686 Q74.5109 673.355 74.8932 672.692 Q75.25 672.03 75.25 670.22 L76.1675 670.22 L76.1675 681.664 L75.25 681.664 Q75.25 680.058 74.9187 679.472 Q74.5873 678.886 73.8227 678.554 Q73.0581 678.223 70.8918 678.223 L49.6868 678.223 Q45.7364 678.223 44.8443 678.401 Q43.9268 678.58 43.5955 678.988 Q43.2641 679.37 43.2641 679.982 Q43.2641 680.644 43.6719 681.664 L42.7799 682.097 L39.9254 675.139 L39.9254 673.992 Z"
     fill="#000000"
     fill-rule="nonzero"
     fill-opacity="1"
     id="path38" />
  <path
     clip-path="url(#clip210)"
     d="M72.8033 654.291 Q75.5813 657.885 76.0146 658.802 Q76.6518 660.178 76.6518 661.733 Q76.6518 664.154 74.9951 665.735 Q73.3385 667.289 70.6369 667.289 Q68.9293 667.289 67.6804 666.525 Q65.9473 665.48 64.4181 662.906 Q62.8889 660.306 60.6971 654.291 L59.7795 654.291 Q56.2879 654.291 54.988 655.412 Q53.6882 656.508 53.6882 658.624 Q53.6882 660.229 54.5548 661.172 Q55.4213 662.141 56.5427 662.141 L58.021 662.09 Q59.1933 662.09 59.8305 662.702 Q60.4677 663.288 60.4677 664.256 Q60.4677 665.199 59.805 665.811 Q59.1424 666.397 57.9955 666.397 Q55.8036 666.397 53.9686 664.154 Q52.1335 661.912 52.1335 657.859 Q52.1335 654.75 53.1785 652.762 Q53.9686 651.258 55.6507 650.544 Q56.7466 650.086 60.1364 650.086 L68.0627 650.086 Q71.4015 650.086 72.1661 649.958 Q72.9052 649.831 73.1601 649.551 Q73.4149 649.245 73.4149 648.862 Q73.4149 648.455 73.2365 648.149 Q72.9052 647.614 71.376 646.084 L72.8033 646.084 Q76.6263 648.939 76.6263 651.538 Q76.6263 652.787 75.7597 653.526 Q74.8932 654.266 72.8033 654.291 M71.1466 654.291 L62.2518 654.291 Q63.781 658.14 64.4181 659.261 Q65.5395 661.274 66.7629 662.141 Q67.9863 663.008 69.439 663.008 Q71.2741 663.008 72.4974 661.912 Q73.6953 660.816 73.6953 659.388 Q73.6953 657.451 71.1466 654.291 Z"
     fill="#000000"
     fill-rule="nonzero"
     fill-opacity="1"
     id="path39" />
  <path
     clip-path="url(#clip210)"
     d="M67.6549 638.107 Q66.61 640.248 64.7495 641.395 Q62.8634 642.542 60.5951 642.542 Q57.1289 642.542 54.6312 639.942 Q52.1335 637.317 52.1335 633.239 Q52.1335 629.9 53.7647 627.454 L53.7647 622.509 Q53.7647 621.413 53.8411 621.235 Q53.8921 621.056 54.045 620.98 Q54.2744 620.827 54.8606 620.827 Q55.5233 620.827 55.7781 620.954 Q55.9056 621.031 55.982 621.235 Q56.0585 621.413 56.0585 622.509 L56.0585 625.542 Q57.8935 624.115 60.748 624.115 Q64.0103 624.115 66.3296 626.612 Q68.6489 629.11 68.6489 633.315 Q68.6489 635.049 68.1392 636.858 Q69.1077 637.98 69.8468 638.387 Q70.5604 638.77 71.0702 638.77 Q71.5034 638.77 71.9112 638.362 Q72.319 637.929 72.4974 636.705 Q72.5994 635.992 72.6758 633.137 Q72.8033 627.887 73.0326 626.332 Q73.364 623.962 74.7912 622.56 Q76.2185 621.133 78.3084 621.133 Q81.1884 621.133 83.7116 623.834 Q87.4326 627.81 87.4326 634.208 Q87.4326 639.126 85.2153 642.516 Q83.941 644.428 82.5647 644.428 Q81.953 644.428 81.3413 644.147 Q80.3983 643.714 78.7162 642.363 Q78.4868 642.185 75.9636 639.764 Q75.1735 641.089 74.5618 641.65 Q73.9247 642.185 73.1346 642.185 Q72.2426 642.185 71.0447 641.471 Q69.8468 640.732 67.6549 638.107 M53.3569 633.672 Q53.3569 635.558 54.8606 636.833 Q56.3643 638.107 59.4737 638.107 Q63.5006 638.107 65.7179 636.374 Q67.4001 635.049 67.4001 633.01 Q67.4001 631.073 65.9473 629.824 Q64.4946 628.575 61.3852 628.575 Q57.3328 628.575 55.039 630.334 Q53.3569 631.633 53.3569 633.672 M76.1675 638.362 Q77.4673 639.56 78.5887 640.171 Q79.7102 640.783 80.6532 640.783 Q81.8765 640.783 82.7941 639.305 Q84.3742 636.756 84.3742 631.939 Q84.3742 627.352 82.7431 625.185 Q81.1374 622.993 79.3024 622.993 Q77.9771 622.993 77.4164 624.293 Q76.8556 625.618 76.7537 629.543 Q76.6008 635.278 76.1675 638.362 Z"
     fill="#000000"
     fill-rule="nonzero"
     fill-opacity="1"
     id="path40" />
  <path
     clip-path="url(#clip210)"
     d="M40.9958 618.712 L39.9254 618.712 Q41.8369 614.838 44.4365 612.263 Q48.1576 608.619 53.1785 606.631 Q58.1739 604.643 63.6026 604.643 Q71.5034 604.643 78.0026 608.542 Q84.5272 612.416 87.3307 618.712 L86.3877 618.712 Q84.6291 615.577 81.6217 613.563 Q78.6397 611.524 74.0266 610.556 Q69.388 609.562 64.3672 609.562 Q58.9385 609.562 54.4528 610.403 Q50.9356 611.04 48.8202 612.009 Q46.7049 612.952 44.7424 614.532 Q42.7799 616.112 40.9958 618.712 Z"
     fill="#000000"
     fill-rule="nonzero"
     fill-opacity="1"
     id="path41" />
  <polyline
     clip-path="url(#clip212)"
     style="stroke:#009af9; stroke-linecap:round; stroke-linejoin:round; stroke-width:4; stroke-opacity:1; fill:none"
     points="303.567,147.07 381.362,239.302 459.156,320.315 536.95,393.409 614.745,461.551 692.539,524.598 770.334,584.143 848.128,639.983 925.922,695.572 1003.72,750.078 1081.51,803.057 1159.31,854.334 1237.1,906.913 1314.89,957.534 1392.69,1010.24 1470.48,1058.81 1548.28,1105.87 1626.07,1149.75 "
     id="polyline56" />
  <circle
     clip-path="url(#clip212)"
     cx="303.567"
     cy="147.07"
     r="1.08"
     fill="#009af9"
     fill-rule="evenodd"
     fill-opacity="1"
     stroke="#000000"
     stroke-opacity="1"
     stroke-width="2.8"
     id="circle56" />
  <circle
     clip-path="url(#clip212)"
     cx="381.362"
     cy="239.302"
     r="1.08"
     fill="#009af9"
     fill-rule="evenodd"
     fill-opacity="1"
     stroke="#000000"
     stroke-opacity="1"
     stroke-width="2.8"
     id="circle57" />
  <circle
     clip-path="url(#clip212)"
     cx="459.156"
     cy="320.315"
     r="1.08"
     fill="#009af9"
     fill-rule="evenodd"
     fill-opacity="1"
     stroke="#000000"
     stroke-opacity="1"
     stroke-width="2.8"
     id="circle58" />
  <circle
     clip-path="url(#clip212)"
     cx="536.95"
     cy="393.409"
     r="1.08"
     fill="#009af9"
     fill-rule="evenodd"
     fill-opacity="1"
     stroke="#000000"
     stroke-opacity="1"
     stroke-width="2.8"
     id="circle59" />
  <circle
     clip-path="url(#clip212)"
     cx="614.745"
     cy="461.551"
     r="1.08"
     fill="#009af9"
     fill-rule="evenodd"
     fill-opacity="1"
     stroke="#000000"
     stroke-opacity="1"
     stroke-width="2.8"
     id="circle60" />
  <circle
     clip-path="url(#clip212)"
     cx="692.539"
     cy="524.598"
     r="1.08"
     fill="#009af9"
     fill-rule="evenodd"
     fill-opacity="1"
     stroke="#000000"
     stroke-opacity="1"
     stroke-width="2.8"
     id="circle61" />
  <circle
     clip-path="url(#clip212)"
     cx="770.334"
     cy="584.143"
     r="1.08"
     fill="#009af9"
     fill-rule="evenodd"
     fill-opacity="1"
     stroke="#000000"
     stroke-opacity="1"
     stroke-width="2.8"
     id="circle62" />
  <circle
     clip-path="url(#clip212)"
     cx="848.128"
     cy="639.983"
     r="1.08"
     fill="#009af9"
     fill-rule="evenodd"
     fill-opacity="1"
     stroke="#000000"
     stroke-opacity="1"
     stroke-width="2.8"
     id="circle63" />
  <circle
     clip-path="url(#clip212)"
     cx="925.922"
     cy="695.572"
     r="1.08"
     fill="#009af9"
     fill-rule="evenodd"
     fill-opacity="1"
     stroke="#000000"
     stroke-opacity="1"
     stroke-width="2.8"
     id="circle64" />
  <circle
     clip-path="url(#clip212)"
     cx="1003.72"
     cy="750.078"
     r="1.08"
     fill="#009af9"
     fill-rule="evenodd"
     fill-opacity="1"
     stroke="#000000"
     stroke-opacity="1"
     stroke-width="2.8"
     id="circle65" />
  <circle
     clip-path="url(#clip212)"
     cx="1081.51"
     cy="803.057"
     r="1.08"
     fill="#009af9"
     fill-rule="evenodd"
     fill-opacity="1"
     stroke="#000000"
     stroke-opacity="1"
     stroke-width="2.8"
     id="circle66" />
  <circle
     clip-path="url(#clip212)"
     cx="1159.31"
     cy="854.334"
     r="1.08"
     fill="#009af9"
     fill-rule="evenodd"
     fill-opacity="1"
     stroke="#000000"
     stroke-opacity="1"
     stroke-width="2.8"
     id="circle67" />
  <circle
     clip-path="url(#clip212)"
     cx="1237.1"
     cy="906.913"
     r="1.08"
     fill="#009af9"
     fill-rule="evenodd"
     fill-opacity="1"
     stroke="#000000"
     stroke-opacity="1"
     stroke-width="2.8"
     id="circle68" />
  <circle
     clip-path="url(#clip212)"
     cx="1314.89"
     cy="957.534"
     r="1.08"
     fill="#009af9"
     fill-rule="evenodd"
     fill-opacity="1"
     stroke="#000000"
     stroke-opacity="1"
     stroke-width="2.8"
     id="circle69" />
  <circle
     clip-path="url(#clip212)"
     cx="1392.69"
     cy="1010.24"
     r="1.08"
     fill="#009af9"
     fill-rule="evenodd"
     fill-opacity="1"
     stroke="#000000"
     stroke-opacity="1"
     stroke-width="2.8"
     id="circle70" />
  <circle
     clip-path="url(#clip212)"
     cx="1470.48"
     cy="1058.81"
     r="1.08"
     fill="#009af9"
     fill-rule="evenodd"
     fill-opacity="1"
     stroke="#000000"
     stroke-opacity="1"
     stroke-width="2.8"
     id="circle71" />
  <circle
     clip-path="url(#clip212)"
     cx="1548.28"
     cy="1105.87"
     r="1.08"
     fill="#009af9"
     fill-rule="evenodd"
     fill-opacity="1"
     stroke="#000000"
     stroke-opacity="1"
     stroke-width="2.8"
     id="circle72" />
  <circle
     clip-path="url(#clip212)"
     cx="1626.07"
     cy="1149.75"
     r="1.08"
     fill="#009af9"
     fill-rule="evenodd"
     fill-opacity="1"
     stroke="#000000"
     stroke-opacity="1"
     stroke-width="2.8"
     id="circle73" />
  <polyline
     clip-path="url(#clip212)"
     style="stroke:#e26f46; stroke-linecap:round; stroke-linejoin:round; stroke-width:4; stroke-opacity:1; fill:none"
     points="1632.68,1191.54 1626.07,1186.67 1619.46,1181.8 1612.85,1176.94 1606.23,1172.07 1599.62,1167.21 1593.01,1162.34 1586.4,1157.48 1579.78,1152.61 1573.17,1147.75 1566.56,1142.88 1559.95,1138.02 1553.33,1133.15 1546.72,1128.29 1540.11,1123.42 1533.5,1118.56 1526.88,1113.69 1520.27,1108.83 1513.66,1103.96 1507.05,1099.09 1500.43,1094.23 1493.82,1089.36 1487.21,1084.5 1480.6,1079.63 1473.98,1074.77 1467.37,1069.9 1460.76,1065.04 1454.15,1060.17 1447.53,1055.31 1440.92,1050.44 1434.31,1045.58 1427.7,1040.71 1421.08,1035.85 1414.47,1030.98 1407.86,1026.12 1401.25,1021.25 1394.63,1016.38 1388.02,1011.52 1381.41,1006.65 1374.8,1001.79 1368.18,996.923 1361.57,992.058 1354.96,987.193 1348.35,982.328 1341.73,977.462 1335.12,972.597 1328.51,967.732 1321.9,962.866 1315.28,958.001 1308.67,953.136 1302.06,948.27 1295.45,943.405 1288.83,938.54 1282.22,933.675 1275.61,928.809 1269,923.944 1262.38,919.079 1255.77,914.213 1249.16,909.348 1242.55,904.483 1235.93,899.618 1229.32,894.752 1222.71,889.887 1216.1,885.022 1209.48,880.156 1202.87,875.291 1196.26,870.426 1189.65,865.56 1183.03,860.695 1176.42,855.83 1169.81,850.965 1163.2,846.099 1156.58,841.234 1149.97,836.369 1143.36,831.503 1136.74,826.638 1130.13,821.773 1123.52,816.908 1116.91,812.042 1110.29,807.177 1103.68,802.312 1097.07,797.446 1090.46,792.581 1083.84,787.716 1077.23,782.85 1070.62,777.985 1064.01,773.12 1057.39,768.255 1050.78,763.389 1044.17,758.524 1037.56,753.659 1030.94,748.793 1024.33,743.928 1017.72,739.063 1011.11,734.198 1004.49,729.332 997.882,724.467 991.27,719.602 984.657,714.736 978.044,709.871 971.432,705.006 964.819,700.14 958.207,695.275 951.594,690.41 944.982,685.545 938.369,680.679 931.757,675.814 925.144,670.949 918.532,666.083 911.919,661.218 905.307,656.353 898.694,651.488 892.082,646.622 885.469,641.757 878.857,636.892 872.244,632.026 865.632,627.161 859.019,622.296 852.407,617.43 845.794,612.565 839.182,607.7 832.569,602.835 825.956,597.969 819.344,593.104 812.731,588.239 806.119,583.373 799.506,578.508 792.894,573.643 786.281,568.778 779.669,563.912 773.056,559.047 766.444,554.182 759.831,549.316 753.219,544.451 746.606,539.586 739.994,534.72 733.381,529.855 726.769,524.99 720.156,520.125 713.544,515.259 706.931,510.394 700.319,505.529 693.706,500.663 687.094,495.798 680.481,490.933 673.869,486.068 667.256,481.202 660.643,476.337 654.031,471.472 647.418,466.606 640.806,461.741 634.193,456.876 627.581,452.01 620.968,447.145 614.356,442.28 607.743,437.415 601.131,432.549 594.518,427.684 587.906,422.819 581.293,417.953 574.681,413.088 568.068,408.223 561.456,403.358 554.843,398.492 548.231,393.627 541.618,388.762 535.006,383.896 528.393,379.031 521.781,374.166 515.168,369.3 508.555,364.435 501.943,359.57 495.33,354.705 488.718,349.839 482.105,344.974 475.493,340.109 468.88,335.243 462.268,330.378 455.655,325.513 449.043,320.648 442.43,315.782 435.818,310.917 429.205,306.052 422.593,301.186 415.98,296.321 409.368,291.456 402.755,286.59 396.143,281.725 389.53,276.86 382.918,271.995 376.305,267.129 369.693,262.264 363.08,257.399 356.468,252.533 349.855,247.668 343.242,242.803 336.63,237.938 330.017,233.072 323.405,228.207 316.792,223.342 310.18,218.476 303.567,213.611 296.955,208.746 "
     id="polyline73" />
</svg>
