<?xml version="1.0" encoding="UTF-8" standalone="no"?>
<svg
   width="291.93698pt"
   height="220.05656pt"
   viewBox="0 0 291.93698 220.05656"
   version="1.1"
   id="svg83"
   sodipodi:docname="binning_tri_300_261.svg"
   inkscape:version="1.4.2 (ebf0e940, 2025-05-08)"
   xmlns:inkscape="http://www.inkscape.org/namespaces/inkscape"
   xmlns:sodipodi="http://sodipodi.sourceforge.net/DTD/sodipodi-0.dtd"
   xmlns:xlink="http://www.w3.org/1999/xlink"
   xmlns="http://www.w3.org/2000/svg"
   xmlns:svg="http://www.w3.org/2000/svg"
   xmlns:rdf="http://www.w3.org/1999/02/22-rdf-syntax-ns#"
   xmlns:cc="http://creativecommons.org/ns#"
   xmlns:dc="http://purl.org/dc/elements/1.1/">
  <sodipodi:namedview
     id="namedview83"
     pagecolor="#ffffff"
     bordercolor="#000000"
     borderopacity="0.25"
     inkscape:showpageshadow="2"
     inkscape:pageopacity="0.0"
     inkscape:pagecheckerboard="0"
     inkscape:deskcolor="#d1d1d1"
     inkscape:document-units="pt"
     inkscape:zoom="1.4594972"
     inkscape:cx="216.85551"
     inkscape:cy="219.93876"
     inkscape:window-width="1728"
     inkscape:window-height="1055"
     inkscape:window-x="0"
     inkscape:window-y="34"
     inkscape:window-maximized="1"
     inkscape:current-layer="figure_1" />
  <metadata
     id="metadata1">
    <rdf:RDF>
      <cc:Work>
        <dc:type
           rdf:resource="http://purl.org/dc/dcmitype/StillImage" />
        <dc:date>2025-10-22T06:36:36.629802</dc:date>
        <dc:format>image/svg+xml</dc:format>
        <dc:creator>
          <cc:Agent>
            <dc:title>Matplotlib v3.10.5, https://matplotlib.org/</dc:title>
          </cc:Agent>
        </dc:creator>
      </cc:Work>
    </rdf:RDF>
  </metadata>
  <defs
     id="defs1">
    <style
       type="text/css"
       id="style1">*{stroke-linejoin: round; stroke-linecap: butt}</style>
  </defs>
  <g
     id="figure_1"
     transform="translate(-6.20561,-19.135497)">
    <g
       id="axes_1"
       transform="translate(18.28686,-10.704503)">
      <g
         id="patch_2">
        <path
           d="M 38.7,224.28 H 278.64 V 30.24 H 38.7 Z"
           style="fill:#ffffff"
           id="path2" />
      </g>
      <g
         id="matplotlib.axis_1">
        <g
           id="xtick_1">
          <g
             id="line2d_1">
            <defs
               id="defs2">
              <path
                 id="m0bfdfd37b8"
                 d="M 0,0 V 3.5"
                 style="stroke:#000000;stroke-width:0.8" />
            </defs>
            <g
               id="g2">
              <use
                 xlink:href="#m0bfdfd37b8"
                 x="94.004494"
                 y="224.28"
                 style="stroke:#000000;stroke-width:0.8"
                 id="use2" />
            </g>
          </g>
          <g
             id="text_1">
            <!-- −10000 -->
            <g
               transform="matrix(0.1,0,0,-0.1,78.684961,238.22375)"
               id="g8">
              <defs
                 id="defs3">
                <path
                   id="TimesNewRomanPSMT-2212"
                   d="M 3484,2000 H 116 v 256 h 3368 z"
                   transform="scale(0.015625)" />
                <path
                   id="TimesNewRomanPSMT-31"
                   d="m 750,3822 1031,503 h 103 V 747 q 0,-356 30,-444 30,-87 123,-134 94,-47 382,-53 V 0 H 825 v 116 q 300,6 387,51 88,46 122,122 35,77 35,458 v 2287 q 0,463 -31,594 -22,100 -80,147 -58,47 -139,47 -116,0 -322,-97 z"
                   transform="scale(0.015625)" />
                <path
                   id="TimesNewRomanPSMT-30"
                   d="m 231,2094 q 0,725 219,1248 219,524 581,780 282,203 582,203 487,0 875,-497 484,-615 484,-1669 0,-737 -213,-1253 Q 2547,391 2217,158 1888,-75 1581,-75 975,-75 572,641 231,1244 231,2094 Z m 613,-78 q 0,-875 215,-1428 179,-466 532,-466 168,0 349,151 182,152 276,508 143,538 143,1516 0,725 -150,1209 -112,360 -290,510 -128,103 -310,103 -212,0 -378,-191 -225,-259 -306,-816 -81,-556 -81,-1096 z"
                   transform="scale(0.015625)" />
              </defs>
              <use
                 xlink:href="#TimesNewRomanPSMT-2212"
                 id="use3" />
              <use
                 xlink:href="#TimesNewRomanPSMT-31"
                 transform="translate(56.396484)"
                 id="use4" />
              <use
                 xlink:href="#TimesNewRomanPSMT-30"
                 transform="translate(106.39648)"
                 id="use5" />
              <use
                 xlink:href="#TimesNewRomanPSMT-30"
                 transform="translate(156.39648)"
                 id="use6" />
              <use
                 xlink:href="#TimesNewRomanPSMT-30"
                 transform="translate(206.39648)"
                 id="use7" />
              <use
                 xlink:href="#TimesNewRomanPSMT-30"
                 transform="translate(256.39648)"
                 id="use8" />
            </g>
          </g>
        </g>
        <g
           id="xtick_2">
          <g
             id="line2d_2">
            <g
               id="g9">
              <use
                 xlink:href="#m0bfdfd37b8"
                 x="151.90698"
                 y="224.28"
                 style="stroke:#000000;stroke-width:0.8"
                 id="use9" />
            </g>
          </g>
          <g
             id="text_2">
            <!-- 0 -->
            <g
               transform="matrix(0.1,0,0,-0.1,149.40699,238.22375)"
               id="g10">
              <use
                 xlink:href="#TimesNewRomanPSMT-30"
                 id="use10" />
            </g>
          </g>
        </g>
        <g
           id="xtick_3">
          <g
             id="line2d_3">
            <g
               id="g11">
              <use
                 xlink:href="#m0bfdfd37b8"
                 x="209.80948"
                 y="224.28"
                 style="stroke:#000000;stroke-width:0.8"
                 id="use11" />
            </g>
          </g>
          <g
             id="text_3">
            <!-- 10000 -->
            <g
               transform="matrix(0.1,0,0,-0.1,197.30948,238.22375)"
               id="g16">
              <use
                 xlink:href="#TimesNewRomanPSMT-31"
                 id="use12" />
              <use
                 xlink:href="#TimesNewRomanPSMT-30"
                 transform="translate(50)"
                 id="use13" />
              <use
                 xlink:href="#TimesNewRomanPSMT-30"
                 transform="translate(100)"
                 id="use14" />
              <use
                 xlink:href="#TimesNewRomanPSMT-30"
                 transform="translate(150)"
                 id="use15" />
              <use
                 xlink:href="#TimesNewRomanPSMT-30"
                 transform="translate(200)"
                 id="use16" />
            </g>
          </g>
        </g>
        <g
           id="xtick_4">
          <g
             id="line2d_4">
            <g
               id="g17">
              <use
                 xlink:href="#m0bfdfd37b8"
                 x="267.71198"
                 y="224.28"
                 style="stroke:#000000;stroke-width:0.8"
                 id="use17" />
            </g>
          </g>
          <g
             id="text_4">
            <!-- 20000 -->
            <g
               transform="matrix(0.1,0,0,-0.1,255.21198,238.22375)"
               id="g22">
              <defs
                 id="defs17">
                <path
                   id="TimesNewRomanPSMT-32"
                   d="M 2934,816 2638,0 H 138 v 116 q 1103,1006 1553,1643 450,638 450,1166 0,403 -247,662 -247,260 -591,260 -312,0 -561,-183 Q 494,3481 375,3128 H 259 q 79,578 402,887 323,310 808,310 515,0 860,-331 346,-331 346,-781 0,-322 -150,-644 Q 2294,2063 1775,1497 997,647 803,472 h 1106 q 338,0 474,25 136,25 245,101 110,77 191,218 z"
                   transform="scale(0.015625)" />
              </defs>
              <use
                 xlink:href="#TimesNewRomanPSMT-32"
                 id="use18" />
              <use
                 xlink:href="#TimesNewRomanPSMT-30"
                 transform="translate(50)"
                 id="use19" />
              <use
                 xlink:href="#TimesNewRomanPSMT-30"
                 transform="translate(100)"
                 id="use20" />
              <use
                 xlink:href="#TimesNewRomanPSMT-30"
                 transform="translate(150)"
                 id="use21" />
              <use
                 xlink:href="#TimesNewRomanPSMT-30"
                 transform="translate(200)"
                 id="use22" />
            </g>
          </g>
        </g>
        <g
           id="text_5">
          <!-- $\bar{m}$ -->
          <g
             transform="matrix(0.08,0,0,-0.08,154.75,249.91781)"
             id="g24">
            <defs
               id="defs22">
              <path
                 id="DejaVuSans-304"
                 d="M -2518,4769 H -650 V 4306 H -2518 Z"
                 transform="scale(0.015625)" />
              <path
                 id="DejaVuSans-Oblique-6d"
                 d="M 5747,2113 5338,0 h -575 l 403,2094 q 25,134 37,231 13,97 13,166 0,281 -157,437 -156,156 -437,156 -419,0 -747,-314 -328,-314 -425,-817 L 3066,0 h -575 l 409,2094 q 25,115 37,213 13,99 13,177 0,285 -156,442 -156,158 -431,158 -425,0 -754,-314 -328,-314 -425,-817 L 800,0 H 225 l 684,3500 h 575 l -109,-544 q 234,307 548,467 315,161 674,161 381,0 626,-200 246,-200 296,-556 262,369 607,562 346,194 730,194 450,0 695,-259 246,-259 246,-734 0,-103 -13,-227 -12,-123 -37,-251 z"
                 transform="scale(0.015625)" />
            </defs>
            <use
               xlink:href="#DejaVuSans-304"
               transform="translate(85.696777,1.484375)"
               id="use23" />
            <use
               xlink:href="#DejaVuSans-Oblique-6d"
               transform="translate(0,0.265625)"
               id="use24" />
          </g>
        </g>
      </g>
      <g
         id="matplotlib.axis_2">
        <g
           id="ytick_1">
          <g
             id="line2d_5">
            <defs
               id="defs24">
              <path
                 id="m84043bb7a7"
                 d="M 0,0 H -3.5"
                 style="stroke:#000000;stroke-width:0.8" />
            </defs>
            <g
               id="g25">
              <use
                 xlink:href="#m84043bb7a7"
                 x="38.700001"
                 y="215.46001"
                 style="stroke:#000000;stroke-width:0.8"
                 id="use25" />
            </g>
          </g>
          <g
             id="text_6">
            <!-- 0.00000 -->
            <g
               transform="matrix(0.1,0,0,-0.1,-0.8,218.93187)"
               id="g32">
              <defs
                 id="defs25">
                <path
                   id="TimesNewRomanPSMT-2e"
                   d="M 800,606 Q 947,606 1047,504 1147,403 1147,259 1147,116 1045,14 944,-88 800,-88 656,-88 554,14 453,116 453,259 q 0,147 101,247 102,100 246,100 z"
                   transform="scale(0.015625)" />
              </defs>
              <use
                 xlink:href="#TimesNewRomanPSMT-30"
                 id="use26" />
              <use
                 xlink:href="#TimesNewRomanPSMT-2e"
                 transform="translate(50)"
                 id="use27" />
              <use
                 xlink:href="#TimesNewRomanPSMT-30"
                 transform="translate(75)"
                 id="use28" />
              <use
                 xlink:href="#TimesNewRomanPSMT-30"
                 transform="translate(125)"
                 id="use29" />
              <use
                 xlink:href="#TimesNewRomanPSMT-30"
                 transform="translate(175)"
                 id="use30" />
              <use
                 xlink:href="#TimesNewRomanPSMT-30"
                 transform="translate(225)"
                 id="use31" />
              <use
                 xlink:href="#TimesNewRomanPSMT-30"
                 transform="translate(275)"
                 id="use32" />
            </g>
          </g>
        </g>
        <g
           id="ytick_2">
          <g
             id="line2d_6">
            <g
               id="g33">
              <use
                 xlink:href="#m84043bb7a7"
                 x="38.700001"
                 y="180.43785"
                 style="stroke:#000000;stroke-width:0.8"
                 id="use33" />
            </g>
          </g>
          <g
             id="text_7">
            <!-- 0.00002 -->
            <g
               transform="matrix(0.1,0,0,-0.1,-0.8,183.90973)"
               id="g40">
              <use
                 xlink:href="#TimesNewRomanPSMT-30"
                 id="use34" />
              <use
                 xlink:href="#TimesNewRomanPSMT-2e"
                 transform="translate(50)"
                 id="use35" />
              <use
                 xlink:href="#TimesNewRomanPSMT-30"
                 transform="translate(75)"
                 id="use36" />
              <use
                 xlink:href="#TimesNewRomanPSMT-30"
                 transform="translate(125)"
                 id="use37" />
              <use
                 xlink:href="#TimesNewRomanPSMT-30"
                 transform="translate(175)"
                 id="use38" />
              <use
                 xlink:href="#TimesNewRomanPSMT-30"
                 transform="translate(225)"
                 id="use39" />
              <use
                 xlink:href="#TimesNewRomanPSMT-32"
                 transform="translate(275)"
                 id="use40" />
            </g>
          </g>
        </g>
        <g
           id="ytick_3">
          <g
             id="line2d_7">
            <g
               id="g41">
              <use
                 xlink:href="#m84043bb7a7"
                 x="38.700001"
                 y="145.41571"
                 style="stroke:#000000;stroke-width:0.8"
                 id="use41" />
            </g>
          </g>
          <g
             id="text_8">
            <!-- 0.00004 -->
            <g
               transform="matrix(0.1,0,0,-0.1,-0.8,148.88758)"
               id="g48">
              <defs
                 id="defs41">
                <path
                   id="TimesNewRomanPSMT-34"
                   d="M 2978,1563 V 1119 H 2409 V 0 H 1894 V 1119 H 100 v 400 l 1966,2806 h 343 V 1563 Z m -1084,0 V 3666 L 406,1563 Z"
                   transform="scale(0.015625)" />
              </defs>
              <use
                 xlink:href="#TimesNewRomanPSMT-30"
                 id="use42" />
              <use
                 xlink:href="#TimesNewRomanPSMT-2e"
                 transform="translate(50)"
                 id="use43" />
              <use
                 xlink:href="#TimesNewRomanPSMT-30"
                 transform="translate(75)"
                 id="use44" />
              <use
                 xlink:href="#TimesNewRomanPSMT-30"
                 transform="translate(125)"
                 id="use45" />
              <use
                 xlink:href="#TimesNewRomanPSMT-30"
                 transform="translate(175)"
                 id="use46" />
              <use
                 xlink:href="#TimesNewRomanPSMT-30"
                 transform="translate(225)"
                 id="use47" />
              <use
                 xlink:href="#TimesNewRomanPSMT-34"
                 transform="translate(275)"
                 id="use48" />
            </g>
          </g>
        </g>
        <g
           id="ytick_4">
          <g
             id="line2d_8">
            <g
               id="g49">
              <use
                 xlink:href="#m84043bb7a7"
                 x="38.700001"
                 y="110.39355"
                 style="stroke:#000000;stroke-width:0.8"
                 id="use49" />
            </g>
          </g>
          <g
             id="text_9">
            <!-- 0.00006 -->
            <g
               transform="matrix(0.1,0,0,-0.1,-0.8,113.86543)"
               id="g56">
              <defs
                 id="defs49">
                <path
                   id="TimesNewRomanPSMT-36"
                   d="m 2869,4325 v -116 q -413,-40 -674,-164 -261,-123 -516,-376 -254,-253 -421,-564 -167,-311 -280,-739 450,309 903,309 435,0 753,-350 319,-350 319,-900 0,-531 -322,-969 -387,-531 -1025,-531 -434,0 -737,288 -594,559 -594,1450 0,568 228,1080 228,513 651,910 424,397 811,534 388,138 723,138 z M 925,2138 q -56,-422 -56,-682 0,-300 111,-652 111,-351 329,-557 160,-147 388,-147 272,0 486,256 214,257 214,732 0,534 -213,924 -212,391 -603,391 -118,0 -254,-50 -136,-50 -402,-215 z"
                   transform="scale(0.015625)" />
              </defs>
              <use
                 xlink:href="#TimesNewRomanPSMT-30"
                 id="use50" />
              <use
                 xlink:href="#TimesNewRomanPSMT-2e"
                 transform="translate(50)"
                 id="use51" />
              <use
                 xlink:href="#TimesNewRomanPSMT-30"
                 transform="translate(75)"
                 id="use52" />
              <use
                 xlink:href="#TimesNewRomanPSMT-30"
                 transform="translate(125)"
                 id="use53" />
              <use
                 xlink:href="#TimesNewRomanPSMT-30"
                 transform="translate(175)"
                 id="use54" />
              <use
                 xlink:href="#TimesNewRomanPSMT-30"
                 transform="translate(225)"
                 id="use55" />
              <use
                 xlink:href="#TimesNewRomanPSMT-36"
                 transform="translate(275)"
                 id="use56" />
            </g>
          </g>
        </g>
        <g
           id="ytick_5">
          <g
             id="line2d_9">
            <g
               id="g57">
              <use
                 xlink:href="#m84043bb7a7"
                 x="38.700001"
                 y="75.371407"
                 style="stroke:#000000;stroke-width:0.8"
                 id="use57" />
            </g>
          </g>
          <g
             id="text_10">
            <!-- 0.00008 -->
            <g
               transform="matrix(0.1,0,0,-0.1,-0.8,78.843281)"
               id="g64">
              <defs
                 id="defs57">
                <path
                   id="TimesNewRomanPSMT-38"
                   d="m 1228,2134 q -503,413 -649,663 -145,250 -145,519 0,412 319,710 319,299 847,299 513,0 825,-278 313,-278 313,-634 0,-238 -169,-485 -169,-247 -703,-581 550,-425 728,-669 237,-319 237,-672 0,-447 -341,-764 -340,-317 -893,-317 -603,0 -941,378 -268,303 -268,663 0,281 189,557 189,277 651,611 z m 491,335 q 375,337 475,532 100,196 100,443 0,328 -185,514 -184,186 -503,186 -318,0 -518,-185 -200,-184 -200,-431 0,-162 82,-325 83,-162 236,-309 z M 1375,2016 Q 1116,1797 991,1539 866,1281 866,981 866,578 1086,336 1306,94 1647,94 q 337,0 540,190 204,191 204,463 0,225 -119,403 -222,331 -897,866 z"
                   transform="scale(0.015625)" />
              </defs>
              <use
                 xlink:href="#TimesNewRomanPSMT-30"
                 id="use58" />
              <use
                 xlink:href="#TimesNewRomanPSMT-2e"
                 transform="translate(50)"
                 id="use59" />
              <use
                 xlink:href="#TimesNewRomanPSMT-30"
                 transform="translate(75)"
                 id="use60" />
              <use
                 xlink:href="#TimesNewRomanPSMT-30"
                 transform="translate(125)"
                 id="use61" />
              <use
                 xlink:href="#TimesNewRomanPSMT-30"
                 transform="translate(175)"
                 id="use62" />
              <use
                 xlink:href="#TimesNewRomanPSMT-30"
                 transform="translate(225)"
                 id="use63" />
              <use
                 xlink:href="#TimesNewRomanPSMT-38"
                 transform="translate(275)"
                 id="use64" />
            </g>
          </g>
        </g>
        <g
           id="ytick_6">
          <g
             id="line2d_10">
            <g
               id="g65">
              <use
                 xlink:href="#m84043bb7a7"
                 x="38.700001"
                 y="40.349258"
                 style="stroke:#000000;stroke-width:0.8"
                 id="use65" />
            </g>
          </g>
          <g
             id="text_11">
            <!-- 0.00010 -->
            <g
               transform="matrix(0.1,0,0,-0.1,-0.8,43.821133)"
               id="g72">
              <use
                 xlink:href="#TimesNewRomanPSMT-30"
                 id="use66" />
              <use
                 xlink:href="#TimesNewRomanPSMT-2e"
                 transform="translate(50)"
                 id="use67" />
              <use
                 xlink:href="#TimesNewRomanPSMT-30"
                 transform="translate(75)"
                 id="use68" />
              <use
                 xlink:href="#TimesNewRomanPSMT-30"
                 transform="translate(125)"
                 id="use69" />
              <use
                 xlink:href="#TimesNewRomanPSMT-30"
                 transform="translate(175)"
                 id="use70" />
              <use
                 xlink:href="#TimesNewRomanPSMT-31"
                 transform="translate(225)"
                 id="use71" />
              <use
                 xlink:href="#TimesNewRomanPSMT-30"
                 transform="translate(275)"
                 id="use72" />
            </g>
          </g>
        </g>
        <g
           id="text_12">
          <!-- Density -->
          <g
             transform="matrix(0,-0.08,-0.08,0,-6.52625,139.70375)"
             id="g79">
            <defs
               id="defs72">
              <path
                 id="TimesNewRomanPSMT-44"
                 d="m 109,0 v 116 h 160 q 269,0 381,172 69,103 69,462 v 2738 q 0,396 -88,496 -122,138 -362,138 H 109 v 116 h 1725 q 950,0 1445,-216 496,-216 797,-719 302,-503 302,-1162 0,-885 -537,-1478 Q 3238,0 2003,0 Z m 1210,306 q 397,-87 665,-87 725,0 1203,509 479,510 479,1381 0,879 -479,1385 -478,506 -1228,506 -281,0 -640,-91 z"
                 transform="scale(0.015625)" />
              <path
                 id="TimesNewRomanPSMT-65"
                 d="m 681,1784 q -3,-637 310,-1000 312,-362 734,-362 281,0 489,154 208,155 349,530 l 96,-62 Q 2594,616 2278,264 1963,-88 1488,-88 972,-88 605,314 238,716 238,1394 q 0,734 376,1145 377,411 945,411 482,0 791,-317 309,-317 309,-849 z m 0,182 h 1325 q -15,275 -65,387 -78,175 -233,275 -155,100 -324,100 -259,0 -464,-202 -204,-201 -239,-560 z"
                 transform="scale(0.015625)" />
              <path
                 id="TimesNewRomanPSMT-6e"
                 d="m 1034,2341 q 504,606 960,606 234,0 403,-117 169,-117 269,-386 68,-188 68,-575 V 647 q 0,-272 44,-369 35,-78 111,-122 77,-43 283,-43 V 0 H 1756 v 113 h 60 q 200,0 279,60 80,61 111,180 13,47 13,294 v 1172 q 0,390 -102,567 -101,177 -342,177 -372,0 -741,-407 V 647 q 0,-291 35,-359 44,-91 120,-133 77,-42 311,-42 V 0 H 84 v 113 h 63 q 219,0 295,110 77,111 77,424 v 1062 q 0,516 -24,628 -23,113 -72,153 -48,41 -129,41 -88,0 -210,-47 l -46,113 862,350 h 134 z"
                 transform="scale(0.015625)" />
              <path
                 id="TimesNewRomanPSMT-73"
                 d="m 2050,2947 v -975 h -103 q -119,459 -305,625 -186,166 -473,166 -219,0 -354,-116 -134,-116 -134,-256 0,-175 100,-300 97,-128 394,-272 l 456,-222 Q 2266,1288 2266,781 2266,391 1970,151 1675,-88 1309,-88 1047,-88 709,6 606,38 541,38 469,38 428,-44 H 325 V 978 H 428 Q 516,541 762,319 1009,97 1316,97 q 215,0 351,126 136,127 136,305 0,216 -152,363 -151,147 -604,372 -453,225 -594,406 -140,178 -140,450 0,353 242,590 242,238 626,238 169,0 410,-72 159,-47 212,-47 50,0 78,22 28,22 66,97 z"
                 transform="scale(0.015625)" />
              <path
                 id="TimesNewRomanPSMT-69"
                 d="m 928,4444 q 131,0 223,-93 93,-92 93,-223 0,-131 -93,-225 -92,-94 -223,-94 -131,0 -225,94 -94,94 -94,225 0,131 92,223 93,93 227,93 z M 1188,2947 V 647 q 0,-269 39,-358 39,-89 115,-133 77,-43 280,-43 V 0 H 231 v 113 q 210,0 281,40 72,41 114,134 43,94 43,360 v 1103 q 0,466 -28,603 -22,100 -69,139 -47,39 -128,39 -88,0 -213,-47 l -43,113 862,350 z"
                 transform="scale(0.015625)" />
              <path
                 id="TimesNewRomanPSMT-74"
                 d="m 1031,3803 v -940 h 669 V 2644 H 1031 V 788 q 0,-279 80,-376 80,-96 205,-96 103,0 200,64 97,64 150,189 h 122 Q 1678,263 1478,108 1278,-47 1066,-47 922,-47 784,33 647,113 581,261 516,409 516,719 V 2644 H 63 v 103 q 171,69 351,233 180,164 320,389 72,119 200,434 z"
                 transform="scale(0.015625)" />
              <path
                 id="TimesNewRomanPSMT-79"
                 d="m 38,2863 h 1334 v -116 h -66 q -140,0 -211,-61 -70,-61 -70,-152 0,-121 103,-337 l 697,-1444 641,1581 q 53,129 53,254 0,56 -22,84 -25,34 -78,54 -53,21 -188,21 v 116 h 932 v -116 q -116,-13 -179,-51 -62,-37 -137,-140 -28,-43 -106,-240 L 1575,-541 q -169,-415 -443,-627 -273,-213 -526,-213 -184,0 -303,106 -119,106 -119,244 0,131 86,211 86,79 236,79 103,0 282,-68 125,-47 156,-47 94,0 204,97 111,96 224,375 L 1575,113 547,2272 q -47,97 -150,241 -78,109 -128,146 -72,50 -231,88 z"
                 transform="scale(0.015625)" />
            </defs>
            <use
               xlink:href="#TimesNewRomanPSMT-44"
               id="use73" />
            <use
               xlink:href="#TimesNewRomanPSMT-65"
               transform="translate(72.216797)"
               id="use74" />
            <use
               xlink:href="#TimesNewRomanPSMT-6e"
               transform="translate(116.60156)"
               id="use75" />
            <use
               xlink:href="#TimesNewRomanPSMT-73"
               transform="translate(166.60156)"
               id="use76" />
            <use
               xlink:href="#TimesNewRomanPSMT-69"
               transform="translate(205.51758)"
               id="use77" />
            <use
               xlink:href="#TimesNewRomanPSMT-74"
               transform="translate(233.30078)"
               id="use78" />
            <use
               xlink:href="#TimesNewRomanPSMT-79"
               transform="translate(261.08398)"
               id="use79" />
          </g>
        </g>
      </g>
      <g
         id="line2d_11">
        <path
           d="m 49.606364,215.40361 2.203305,0.0564 h 2.203306 l 2.203306,-0.0846 2.203306,0.0564 h 2.203306 l 2.203305,-0.0282 h 2.203306 l 2.203306,-0.11279 2.203306,-0.0282 h 2.203305 2.203306 l 2.203306,-0.36656 2.203306,-0.39476 2.203306,-0.25377 2.203305,-0.81771 2.203306,-0.14098 2.203306,-0.78952 2.203306,-1.07148 2.203306,-1.94559 2.203305,-0.45115 2.203306,-2.53772 2.203306,-2.19937 2.203309,-2.59411 2.2033,-4.08856 2.20331,-4.5397 2.2033,-3.10167 2.20331,-5.55479 2.20331,-7.64137 2.2033,-5.4702 2.20331,-7.83875 2.2033,-8.68466 2.20331,-9.30498 2.20331,-6.54169 2.2033,-11.58894 2.20331,-6.14693 2.2033,-14.32404 2.20331,-7.782354 2.2033,-10.996803 2.20331,-11.419757 2.2033,-4.906266 2.20331,-11.137788 2.20331,-3.919373 2.2033,-7.246611 2.20331,-5.498402 2.2033,-4.906266 2.20331,0.05639 2.20331,2.537724 2.2033,-1.860998 2.20331,6.06234 2.2033,4.539706 2.20331,8.684655 2.2033,7.387596 2.20331,2.678708 2.20331,12.77321 2.2033,13.111573 2.20331,4.96266 2.2033,13.224366 2.20331,6.85185 2.2033,7.78236 2.20331,11.47615 2.20331,10.48925 2.2033,7.66957 2.20331,7.41579 2.2033,6.96464 2.20331,6.06235 2.2033,6.82365 2.20331,4.51151 2.20331,4.42692 2.2033,4.31413 2.20331,4.22954 2.2033,2.00198 2.20331,1.8328 2.20331,2.42494 2.2033,1.91739 2.20331,0.95869 2.2033,0.47935 2.20331,1.15608 2.2033,0.67672 2.20331,0.33837 2.20331,0.53574 2.2033,0.0282 2.20331,0.42296 2.2033,-0.0846 2.20331,0.28197 2.20331,0.0846 2.2033,0.0846 2.20331,0.0282 2.2033,-0.0282 2.20331,0.0282 2.2033,0.0564 h 2.20331 2.20331 2.2033 2.20331 2.2033 2.20331 2.2033 l 2.20331,-0.0282 h 2.20331"
           clip-path="url(#pb88c4568e8)"
           style="fill:none;stroke:#1f77b4;stroke-width:1.5;stroke-linecap:square"
           id="path79" />
      </g>
      <g
         id="patch_3">
        <path
           d="M 38.7,224.28 V 30.24"
           style="fill:none;stroke:#000000;stroke-width:0.8;stroke-linecap:square;stroke-linejoin:miter"
           id="path80" />
      </g>
      <g
         id="patch_4">
        <path
           d="M 278.64,224.28 V 30.24"
           style="fill:none;stroke:#000000;stroke-width:0.8;stroke-linecap:square;stroke-linejoin:miter"
           id="path81" />
      </g>
      <g
         id="patch_5">
        <path
           d="M 38.7,224.28 H 278.64"
           style="fill:none;stroke:#000000;stroke-width:0.8;stroke-linecap:square;stroke-linejoin:miter"
           id="path82" />
      </g>
      <g
         id="patch_6">
        <path
           d="M 38.7,30.24 H 278.64"
           style="fill:none;stroke:#000000;stroke-width:0.8;stroke-linecap:square;stroke-linejoin:miter"
           id="path83" />
      </g>
    </g>
  </g>
  <defs
     id="defs83">
    <clipPath
       id="pb88c4568e8">
      <rect
         x="38.700001"
         y="30.24"
         width="239.94"
         height="194.03999"
         id="rect83" />
    </clipPath>
  </defs>
</svg>
