<?xml version="1.0" encoding="UTF-8" standalone="no"?>
<svg
   width="430"
   height="350"
   viewBox="0 0 1720 1400"
   version="1.1"
   id="svg83"
   sodipodi:docname="tau_exp_metropolis_sqr.svg"
   inkscape:version="1.4.2 (ebf0e940, 2025-05-08)"
   xmlns:inkscape="http://www.inkscape.org/namespaces/inkscape"
   xmlns:sodipodi="http://sodipodi.sourceforge.net/DTD/sodipodi-0.dtd"
   xmlns="http://www.w3.org/2000/svg"
   xmlns:svg="http://www.w3.org/2000/svg">
  <sodipodi:namedview
     id="namedview83"
     pagecolor="#ffffff"
     bordercolor="#000000"
     borderopacity="0.25"
     inkscape:showpageshadow="2"
     inkscape:pageopacity="0.0"
     inkscape:pagecheckerboard="0"
     inkscape:deskcolor="#d1d1d1"
     inkscape:zoom="1.8361801"
     inkscape:cx="111.64482"
     inkscape:cy="184.62241"
     inkscape:window-width="1728"
     inkscape:window-height="1055"
     inkscape:window-x="0"
     inkscape:window-y="34"
     inkscape:window-maximized="1"
     inkscape:current-layer="svg83" />
  <defs
     id="defs1">
    <clipPath
       id="clip500">
      <rect
         x="0"
         y="0"
         width="1720"
         height="1400"
         id="rect1" />
    </clipPath>
  </defs>
  <path
     clip-path="url(#clip500)"
     d="M0 1400 L1720 1400 L1720 -4.44089e-15 L0 -4.44089e-15  Z"
     fill="#ffffff"
     fill-rule="evenodd"
     fill-opacity="1"
     id="path1" />
  <defs
     id="defs2">
    <clipPath
       id="clip501">
      <rect
         x="344"
         y="0"
         width="1205"
         height="1205"
         id="rect2" />
    </clipPath>
  </defs>
  <path
     clip-path="url(#clip500)"
     d="M200.889 1207.87 L1672.76 1207.87 L1672.76 115.736 L200.889 115.736  Z"
     fill="#ffffff"
     fill-rule="evenodd"
     fill-opacity="1"
     id="path2" />
  <defs
     id="defs3">
    <clipPath
       id="clip502">
      <rect
         x="200"
         y="115"
         width="1473"
         height="1093"
         id="rect3" />
    </clipPath>
  </defs>
  <polyline
     clip-path="url(#clip502)"
     style="stroke:#000000; stroke-linecap:round; stroke-linejoin:round; stroke-width:2; stroke-opacity:0.1; fill:none"
     points="549.32,1207.87 549.32,115.736 "
     id="polyline3" />
  <polyline
     clip-path="url(#clip502)"
     style="stroke:#000000; stroke-linecap:round; stroke-linejoin:round; stroke-width:2; stroke-opacity:0.1; fill:none"
     points="1092.25,1207.87 1092.25,115.736 "
     id="polyline4" />
  <polyline
     clip-path="url(#clip502)"
     style="stroke:#000000; stroke-linecap:round; stroke-linejoin:round; stroke-width:2; stroke-opacity:0.1; fill:none"
     points="1635.18,1207.87 1635.18,115.736 "
     id="polyline5" />
  <polyline
     clip-path="url(#clip502)"
     style="stroke:#000000; stroke-linecap:round; stroke-linejoin:round; stroke-width:2; stroke-opacity:0.1; fill:none"
     points="200.889,1012.67 1672.76,1012.67 "
     id="polyline6" />
  <polyline
     clip-path="url(#clip502)"
     style="stroke:#000000; stroke-linecap:round; stroke-linejoin:round; stroke-width:2; stroke-opacity:0.1; fill:none"
     points="200.889,642.112 1672.76,642.112 "
     id="polyline7" />
  <polyline
     clip-path="url(#clip502)"
     style="stroke:#000000; stroke-linecap:round; stroke-linejoin:round; stroke-width:2; stroke-opacity:0.1; fill:none"
     points="200.889,271.553 1672.76,271.553 "
     id="polyline8" />
  <polyline
     clip-path="url(#clip500)"
     style="stroke:#000000; stroke-linecap:round; stroke-linejoin:round; stroke-width:4; stroke-opacity:1; fill:none"
     points="200.889,1207.87 1672.76,1207.87 "
     id="polyline9" />
  <polyline
     clip-path="url(#clip500)"
     style="stroke:#000000; stroke-linecap:round; stroke-linejoin:round; stroke-width:4; stroke-opacity:1; fill:none"
     points="549.32,1207.87 549.32,1188.97 "
     id="polyline10" />
  <polyline
     clip-path="url(#clip500)"
     style="stroke:#000000; stroke-linecap:round; stroke-linejoin:round; stroke-width:4; stroke-opacity:1; fill:none"
     points="1092.25,1207.87 1092.25,1188.97 "
     id="polyline11" />
  <polyline
     clip-path="url(#clip500)"
     style="stroke:#000000; stroke-linecap:round; stroke-linejoin:round; stroke-width:4; stroke-opacity:1; fill:none"
     points="1635.18,1207.87 1635.18,1188.97 "
     id="polyline12" />
  <path
     clip-path="url(#clip500)"
     d="M504.586 1249.32 L512.997 1245.22 L513.838 1245.22 L513.838 1274.4 Q513.838 1277.31 514.067 1278.02 Q514.322 1278.73 515.087 1279.12 Q515.852 1279.5 518.196 1279.55 L518.196 1280.49 L505.198 1280.49 L505.198 1279.55 Q507.645 1279.5 508.358 1279.14 Q509.072 1278.76 509.352 1278.15 Q509.633 1277.51 509.633 1274.4 L509.633 1255.74 Q509.633 1251.97 509.378 1250.9 Q509.199 1250.09 508.715 1249.7 Q508.256 1249.32 507.594 1249.32 Q506.651 1249.32 504.969 1250.11 L504.586 1249.32 Z"
     fill="#000000"
     fill-rule="nonzero"
     fill-opacity="1"
     id="path12" />
  <path
     clip-path="url(#clip500)"
     d="M526.454 1263.42 Q526.454 1257.5 528.238 1253.25 Q530.022 1248.97 532.979 1246.88 Q535.272 1245.22 537.719 1245.22 Q541.695 1245.22 544.855 1249.27 Q548.806 1254.29 548.806 1262.88 Q548.806 1268.9 547.073 1273.1 Q545.34 1277.31 542.638 1279.22 Q539.962 1281.1 537.464 1281.1 Q532.52 1281.1 529.232 1275.27 Q526.454 1270.35 526.454 1263.42 M531.449 1264.05 Q531.449 1271.19 533.208 1275.7 Q534.661 1279.5 537.541 1279.5 Q538.917 1279.5 540.395 1278.27 Q541.873 1277.03 542.638 1274.12 Q543.81 1269.74 543.81 1261.76 Q543.81 1255.85 542.587 1251.9 Q541.67 1248.97 540.217 1247.74 Q539.172 1246.9 537.694 1246.9 Q535.961 1246.9 534.61 1248.46 Q532.775 1250.57 532.112 1255.11 Q531.449 1259.64 531.449 1264.05 Z"
     fill="#000000"
     fill-rule="nonzero"
     fill-opacity="1"
     id="path13" />
  <path
     clip-path="url(#clip500)"
     d="M548.806 1227.76 L555.639 1224.42 L556.323 1224.42 L556.323 1248.13 Q556.323 1250.49 556.509 1251.07 Q556.716 1251.65 557.338 1251.96 Q557.959 1252.27 559.864 1252.32 L559.864 1253.08 L549.303 1253.08 L549.303 1252.32 Q551.291 1252.27 551.871 1251.98 Q552.45 1251.67 552.678 1251.18 Q552.906 1250.66 552.906 1248.13 L552.906 1232.97 Q552.906 1229.91 552.699 1229.04 Q552.554 1228.38 552.161 1228.07 Q551.788 1227.76 551.249 1227.76 Q550.483 1227.76 549.116 1228.4 L548.806 1227.76 Z"
     fill="#000000"
     fill-rule="nonzero"
     fill-opacity="1"
     id="path14" />
  <path
     clip-path="url(#clip500)"
     d="M570.342 1249.06 Q571.315 1249.06 571.978 1249.75 Q572.641 1250.41 572.641 1251.36 Q572.641 1252.32 571.957 1253 Q571.295 1253.66 570.342 1253.66 Q569.39 1253.66 568.706 1253 Q568.044 1252.32 568.044 1251.36 Q568.044 1250.39 568.706 1249.73 Q569.39 1249.06 570.342 1249.06 Z"
     fill="#000000"
     fill-rule="nonzero"
     fill-opacity="1"
     id="path15" />
  <path
     clip-path="url(#clip500)"
     d="M594.053 1225 L592.438 1228.52 L583.989 1228.52 L582.146 1232.29 Q587.633 1233.1 590.843 1236.37 Q593.597 1239.19 593.597 1243 Q593.597 1245.21 592.686 1247.1 Q591.796 1248.98 590.429 1250.31 Q589.062 1251.63 587.385 1252.44 Q585.003 1253.58 582.498 1253.58 Q579.971 1253.58 578.812 1252.73 Q577.673 1251.86 577.673 1250.82 Q577.673 1250.24 578.149 1249.81 Q578.625 1249.35 579.35 1249.35 Q579.889 1249.35 580.282 1249.52 Q580.696 1249.69 581.669 1250.37 Q583.223 1251.45 584.817 1251.45 Q587.24 1251.45 589.062 1249.62 Q590.905 1247.78 590.905 1245.15 Q590.905 1242.6 589.269 1240.41 Q587.633 1238.19 584.755 1236.99 Q582.498 1236.06 578.605 1235.91 L583.989 1225 L594.053 1225 Z"
     fill="#000000"
     fill-rule="nonzero"
     fill-opacity="1"
     id="path16" />
  <path
     clip-path="url(#clip500)"
     d="M1044.85 1249.32 L1053.26 1245.22 L1054.1 1245.22 L1054.1 1274.4 Q1054.1 1277.31 1054.33 1278.02 Q1054.58 1278.73 1055.35 1279.12 Q1056.11 1279.5 1058.46 1279.55 L1058.46 1280.49 L1045.46 1280.49 L1045.46 1279.55 Q1047.91 1279.5 1048.62 1279.14 Q1049.33 1278.76 1049.61 1278.15 Q1049.89 1277.51 1049.89 1274.4 L1049.89 1255.74 Q1049.89 1251.97 1049.64 1250.9 Q1049.46 1250.09 1048.98 1249.7 Q1048.52 1249.32 1047.86 1249.32 Q1046.91 1249.32 1045.23 1250.11 L1044.85 1249.32 Z"
     fill="#000000"
     fill-rule="nonzero"
     fill-opacity="1"
     id="path17" />
  <path
     clip-path="url(#clip500)"
     d="M1066.72 1263.42 Q1066.72 1257.5 1068.5 1253.25 Q1070.28 1248.97 1073.24 1246.88 Q1075.53 1245.22 1077.98 1245.22 Q1081.96 1245.22 1085.12 1249.27 Q1089.07 1254.29 1089.07 1262.88 Q1089.07 1268.9 1087.33 1273.1 Q1085.6 1277.31 1082.9 1279.22 Q1080.22 1281.1 1077.73 1281.1 Q1072.78 1281.1 1069.49 1275.27 Q1066.72 1270.35 1066.72 1263.42 M1071.71 1264.05 Q1071.71 1271.19 1073.47 1275.7 Q1074.92 1279.5 1077.8 1279.5 Q1079.18 1279.5 1080.66 1278.27 Q1082.13 1277.03 1082.9 1274.12 Q1084.07 1269.74 1084.07 1261.76 Q1084.07 1255.85 1082.85 1251.9 Q1081.93 1248.97 1080.48 1247.74 Q1079.43 1246.9 1077.95 1246.9 Q1076.22 1246.9 1074.87 1248.46 Q1073.04 1250.57 1072.37 1255.11 Q1071.71 1259.64 1071.71 1264.05 Z"
     fill="#000000"
     fill-rule="nonzero"
     fill-opacity="1"
     id="path18" />
  <path
     clip-path="url(#clip500)"
     d="M1107.6 1247.68 L1105.63 1253.08 L1089.07 1253.08 L1089.07 1252.32 Q1096.38 1245.65 1099.36 1241.42 Q1102.34 1237.2 1102.34 1233.7 Q1102.34 1231.03 1100.71 1229.31 Q1099.07 1227.59 1096.79 1227.59 Q1094.72 1227.59 1093.06 1228.81 Q1091.43 1230.01 1090.64 1232.35 L1089.87 1232.35 Q1090.39 1228.52 1092.53 1226.47 Q1094.68 1224.42 1097.89 1224.42 Q1101.31 1224.42 1103.58 1226.62 Q1105.88 1228.81 1105.88 1231.79 Q1105.88 1233.93 1104.89 1236.06 Q1103.36 1239.41 1099.92 1243.16 Q1094.76 1248.8 1093.48 1249.95 L1100.81 1249.95 Q1103.05 1249.95 1103.94 1249.79 Q1104.85 1249.62 1105.57 1249.13 Q1106.3 1248.61 1106.83 1247.68 L1107.6 1247.68 Z"
     fill="#000000"
     fill-rule="nonzero"
     fill-opacity="1"
     id="path19" />
  <path
     clip-path="url(#clip500)"
     d="M1114.66 1249.06 Q1115.64 1249.06 1116.3 1249.75 Q1116.96 1250.41 1116.96 1251.36 Q1116.96 1252.32 1116.28 1253 Q1115.61 1253.66 1114.66 1253.66 Q1113.71 1253.66 1113.03 1253 Q1112.36 1252.32 1112.36 1251.36 Q1112.36 1250.39 1113.03 1249.73 Q1113.71 1249.06 1114.66 1249.06 Z"
     fill="#000000"
     fill-rule="nonzero"
     fill-opacity="1"
     id="path20" />
  <path
     clip-path="url(#clip500)"
     d="M1121.5 1239.21 Q1121.5 1234.4 1122.95 1230.95 Q1124.39 1227.47 1126.8 1225.77 Q1128.66 1224.42 1130.65 1224.42 Q1133.88 1224.42 1136.45 1227.71 Q1139.66 1231.79 1139.66 1238.77 Q1139.66 1243.66 1138.25 1247.08 Q1136.84 1250.49 1134.65 1252.05 Q1132.47 1253.58 1130.44 1253.58 Q1126.42 1253.58 1123.75 1248.84 Q1121.5 1244.84 1121.5 1239.21 M1125.55 1239.73 Q1125.55 1245.52 1126.98 1249.19 Q1128.16 1252.27 1130.5 1252.27 Q1131.62 1252.27 1132.82 1251.28 Q1134.02 1250.27 1134.65 1247.9 Q1135.6 1244.34 1135.6 1237.86 Q1135.6 1233.06 1134.6 1229.85 Q1133.86 1227.47 1132.68 1226.47 Q1131.83 1225.79 1130.63 1225.79 Q1129.22 1225.79 1128.12 1227.05 Q1126.63 1228.77 1126.09 1232.46 Q1125.55 1236.14 1125.55 1239.73 Z"
     fill="#000000"
     fill-rule="nonzero"
     fill-opacity="1"
     id="path21" />
  <path
     clip-path="url(#clip500)"
     d="M1588.42 1249.32 L1596.83 1245.22 L1597.67 1245.22 L1597.67 1274.4 Q1597.67 1277.31 1597.9 1278.02 Q1598.16 1278.73 1598.92 1279.12 Q1599.69 1279.5 1602.03 1279.55 L1602.03 1280.49 L1589.03 1280.49 L1589.03 1279.55 Q1591.48 1279.5 1592.19 1279.14 Q1592.91 1278.76 1593.19 1278.15 Q1593.47 1277.51 1593.47 1274.4 L1593.47 1255.74 Q1593.47 1251.97 1593.21 1250.9 Q1593.04 1250.09 1592.55 1249.7 Q1592.09 1249.32 1591.43 1249.32 Q1590.49 1249.32 1588.8 1250.11 L1588.42 1249.32 Z"
     fill="#000000"
     fill-rule="nonzero"
     fill-opacity="1"
     id="path22" />
  <path
     clip-path="url(#clip500)"
     d="M1610.29 1263.42 Q1610.29 1257.5 1612.07 1253.25 Q1613.86 1248.97 1616.81 1246.88 Q1619.11 1245.22 1621.55 1245.22 Q1625.53 1245.22 1628.69 1249.27 Q1632.64 1254.29 1632.64 1262.88 Q1632.64 1268.9 1630.91 1273.1 Q1629.18 1277.31 1626.47 1279.22 Q1623.8 1281.1 1621.3 1281.1 Q1616.36 1281.1 1613.07 1275.27 Q1610.29 1270.35 1610.29 1263.42 M1615.29 1264.05 Q1615.29 1271.19 1617.04 1275.7 Q1618.5 1279.5 1621.38 1279.5 Q1622.75 1279.5 1624.23 1278.27 Q1625.71 1277.03 1626.47 1274.12 Q1627.65 1269.74 1627.65 1261.76 Q1627.65 1255.85 1626.42 1251.9 Q1625.51 1248.97 1624.05 1247.74 Q1623.01 1246.9 1621.53 1246.9 Q1619.8 1246.9 1618.45 1248.46 Q1616.61 1250.57 1615.95 1255.11 Q1615.29 1259.64 1615.29 1264.05 Z"
     fill="#000000"
     fill-rule="nonzero"
     fill-opacity="1"
     id="path23" />
  <path
     clip-path="url(#clip500)"
     d="M1651.18 1247.68 L1649.21 1253.08 L1632.64 1253.08 L1632.64 1252.32 Q1639.95 1245.65 1642.93 1241.42 Q1645.92 1237.2 1645.92 1233.7 Q1645.92 1231.03 1644.28 1229.31 Q1642.64 1227.59 1640.37 1227.59 Q1638.29 1227.59 1636.64 1228.81 Q1635 1230.01 1634.22 1232.35 L1633.45 1232.35 Q1633.97 1228.52 1636.1 1226.47 Q1638.25 1224.42 1641.46 1224.42 Q1644.88 1224.42 1647.16 1226.62 Q1649.46 1228.81 1649.46 1231.79 Q1649.46 1233.93 1648.46 1236.06 Q1646.93 1239.41 1643.49 1243.16 Q1638.34 1248.8 1637.05 1249.95 L1644.38 1249.95 Q1646.62 1249.95 1647.51 1249.79 Q1648.42 1249.62 1649.15 1249.13 Q1649.87 1248.61 1650.41 1247.68 L1651.18 1247.68 Z"
     fill="#000000"
     fill-rule="nonzero"
     fill-opacity="1"
     id="path24" />
  <path
     clip-path="url(#clip500)"
     d="M1658.24 1249.06 Q1659.21 1249.06 1659.87 1249.75 Q1660.54 1250.41 1660.54 1251.36 Q1660.54 1252.32 1659.85 1253 Q1659.19 1253.66 1658.24 1253.66 Q1657.28 1253.66 1656.6 1253 Q1655.94 1252.32 1655.94 1251.36 Q1655.94 1250.39 1656.6 1249.73 Q1657.28 1249.06 1658.24 1249.06 Z"
     fill="#000000"
     fill-rule="nonzero"
     fill-opacity="1"
     id="path25" />
  <path
     clip-path="url(#clip500)"
     d="M1681.95 1225 L1680.33 1228.52 L1671.88 1228.52 L1670.04 1232.29 Q1675.53 1233.1 1678.74 1236.37 Q1681.49 1239.19 1681.49 1243 Q1681.49 1245.21 1680.58 1247.1 Q1679.69 1248.98 1678.32 1250.31 Q1676.96 1251.63 1675.28 1252.44 Q1672.9 1253.58 1670.39 1253.58 Q1667.87 1253.58 1666.71 1252.73 Q1665.57 1251.86 1665.57 1250.82 Q1665.57 1250.24 1666.04 1249.81 Q1666.52 1249.35 1667.24 1249.35 Q1667.78 1249.35 1668.18 1249.52 Q1668.59 1249.69 1669.56 1250.37 Q1671.12 1251.45 1672.71 1251.45 Q1675.13 1251.45 1676.96 1249.62 Q1678.8 1247.78 1678.8 1245.15 Q1678.8 1242.6 1677.16 1240.41 Q1675.53 1238.19 1672.65 1236.99 Q1670.39 1236.06 1666.5 1235.91 L1671.88 1225 L1681.95 1225 Z"
     fill="#000000"
     fill-rule="nonzero"
     fill-opacity="1"
     id="path26" />
  <path
     clip-path="url(#clip500)"
     d="M949.626 1329.05 Q949.626 1329.19 949.438 1329.73 L945.644 1340.08 Q945.433 1340.69 945.222 1340.81 Q945.011 1340.9 944.145 1340.9 L921.94 1340.9 Q921.402 1340.9 921.191 1340.88 Q920.98 1340.85 920.816 1340.73 Q920.652 1340.62 920.652 1340.36 Q920.652 1339.89 920.816 1339.68 Q921.003 1339.47 921.214 1339.45 Q921.425 1339.42 921.94 1339.42 Q923.111 1339.42 923.814 1339.35 Q924.517 1339.28 924.962 1339.19 Q925.43 1339.07 925.665 1338.74 Q925.922 1338.42 926.039 1338.13 Q926.156 1337.83 926.32 1337.15 L932.738 1311.39 Q932.926 1310.61 932.926 1310.5 Q932.926 1310.05 932.644 1309.93 Q932.387 1309.79 931.637 1309.72 L929.81 1309.63 Q929.248 1309.63 929.014 1309.61 Q928.803 1309.58 928.639 1309.47 Q928.475 1309.35 928.475 1309.09 Q928.475 1308.65 928.639 1308.44 Q928.827 1308.2 928.967 1308.18 Q929.131 1308.13 929.389 1308.13 L935.76 1308.27 L942.857 1308.13 Q943.63 1308.13 943.63 1308.72 Q943.63 1309.37 943.302 1309.51 Q942.974 1309.63 941.803 1309.63 Q939.554 1309.63 938.523 1309.86 Q937.516 1310.1 937.235 1310.5 Q936.978 1310.87 936.72 1311.88 L930.232 1337.78 Q929.998 1338.65 929.998 1338.88 Q929.998 1339.14 930.115 1339.24 Q930.255 1339.31 930.63 1339.35 Q931.052 1339.42 931.684 1339.42 L936.181 1339.42 Q937.54 1339.42 938.734 1339.21 Q939.929 1339 940.842 1338.7 Q941.779 1338.39 942.622 1337.83 Q943.466 1337.27 944.051 1336.78 Q944.66 1336.26 945.246 1335.46 Q945.855 1334.65 946.206 1334.08 Q946.581 1333.5 947.002 1332.56 Q947.424 1331.6 947.635 1331.06 Q947.869 1330.5 948.22 1329.54 Q948.431 1329.05 948.501 1328.91 Q948.572 1328.77 948.689 1328.65 Q948.829 1328.53 949.04 1328.53 Q949.321 1328.53 949.462 1328.7 Q949.626 1328.86 949.626 1329.05 Z"
     fill="#000000"
     fill-rule="nonzero"
     fill-opacity="1"
     id="path27" />
  <polyline
     clip-path="url(#clip500)"
     style="stroke:#000000; stroke-linecap:round; stroke-linejoin:round; stroke-width:4; stroke-opacity:1; fill:none"
     points="200.889,1207.87 200.889,115.736 "
     id="polyline27" />
  <polyline
     clip-path="url(#clip500)"
     style="stroke:#000000; stroke-linecap:round; stroke-linejoin:round; stroke-width:4; stroke-opacity:1; fill:none"
     points="200.889,1012.67 219.786,1012.67 "
     id="polyline28" />
  <polyline
     clip-path="url(#clip500)"
     style="stroke:#000000; stroke-linecap:round; stroke-linejoin:round; stroke-width:4; stroke-opacity:1; fill:none"
     points="200.889,642.112 219.786,642.112 "
     id="polyline29" />
  <polyline
     clip-path="url(#clip500)"
     style="stroke:#000000; stroke-linecap:round; stroke-linejoin:round; stroke-width:4; stroke-opacity:1; fill:none"
     points="200.889,271.553 219.786,271.553 "
     id="polyline30" />
  <path
     clip-path="url(#clip500)"
     d="M119.811 1005.23 L128.222 1001.12 L129.063 1001.12 L129.063 1030.31 Q129.063 1033.21 129.292 1033.93 Q129.547 1034.64 130.312 1035.02 Q131.076 1035.4 133.421 1035.46 L133.421 1036.4 L120.423 1036.4 L120.423 1035.46 Q122.869 1035.4 123.583 1035.05 Q124.297 1034.67 124.577 1034.05 Q124.857 1033.42 124.857 1030.31 L124.857 1011.65 Q124.857 1007.88 124.603 1006.81 Q124.424 1005.99 123.94 1005.61 Q123.481 1005.23 122.819 1005.23 Q121.876 1005.23 120.193 1006.02 L119.811 1005.23 Z"
     fill="#000000"
     fill-rule="nonzero"
     fill-opacity="1"
     id="path30" />
  <path
     clip-path="url(#clip500)"
     d="M141.679 1019.32 Q141.679 1013.41 143.463 1009.15 Q145.247 1004.87 148.203 1002.78 Q150.497 1001.12 152.944 1001.12 Q156.92 1001.12 160.08 1005.18 Q164.031 1010.2 164.031 1018.79 Q164.031 1024.8 162.297 1029.01 Q160.564 1033.21 157.863 1035.12 Q155.187 1037.01 152.689 1037.01 Q147.745 1037.01 144.457 1031.17 Q141.679 1026.25 141.679 1019.32 M146.674 1019.96 Q146.674 1027.1 148.433 1031.61 Q149.885 1035.4 152.765 1035.4 Q154.142 1035.4 155.62 1034.18 Q157.098 1032.93 157.863 1030.03 Q159.035 1025.64 159.035 1017.67 Q159.035 1011.75 157.812 1007.8 Q156.894 1004.87 155.442 1003.65 Q154.397 1002.81 152.918 1002.81 Q151.185 1002.81 149.834 1004.36 Q147.999 1006.48 147.337 1011.01 Q146.674 1015.55 146.674 1019.96 Z"
     fill="#000000"
     fill-rule="nonzero"
     fill-opacity="1"
     id="path31" />
  <path
     clip-path="url(#clip500)"
     d="M164.031 983.662 L170.864 980.328 L171.548 980.328 L171.548 1004.04 Q171.548 1006.4 171.734 1006.98 Q171.941 1007.56 172.562 1007.87 Q173.183 1008.18 175.089 1008.22 L175.089 1008.99 L164.528 1008.99 L164.528 1008.22 Q166.516 1008.18 167.095 1007.89 Q167.675 1007.58 167.903 1007.08 Q168.131 1006.57 168.131 1004.04 L168.131 988.881 Q168.131 985.816 167.924 984.946 Q167.779 984.284 167.385 983.973 Q167.012 983.662 166.474 983.662 Q165.708 983.662 164.341 984.304 L164.031 983.662 Z"
     fill="#000000"
     fill-rule="nonzero"
     fill-opacity="1"
     id="path32" />
  <path
     clip-path="url(#clip500)"
     d="M112.336 634.669 L120.746 630.566 L121.587 630.566 L121.587 659.748 Q121.587 662.654 121.817 663.367 Q122.071 664.081 122.836 664.463 Q123.601 664.846 125.945 664.897 L125.945 665.84 L112.947 665.84 L112.947 664.897 Q115.394 664.846 116.108 664.489 Q116.821 664.106 117.102 663.495 Q117.382 662.858 117.382 659.748 L117.382 641.092 Q117.382 637.32 117.127 636.249 Q116.949 635.434 116.464 635.052 Q116.006 634.669 115.343 634.669 Q114.4 634.669 112.718 635.459 L112.336 634.669 Z"
     fill="#000000"
     fill-rule="nonzero"
     fill-opacity="1"
     id="path33" />
  <path
     clip-path="url(#clip500)"
     d="M134.203 648.763 Q134.203 642.851 135.987 638.594 Q137.771 634.312 140.728 632.223 Q143.022 630.566 145.468 630.566 Q149.444 630.566 152.605 634.618 Q156.555 639.639 156.555 648.228 Q156.555 654.243 154.822 658.448 Q153.089 662.654 150.387 664.565 Q147.711 666.451 145.213 666.451 Q140.269 666.451 136.981 660.615 Q134.203 655.696 134.203 648.763 M139.199 649.401 Q139.199 656.537 140.957 661.048 Q142.41 664.846 145.29 664.846 Q146.666 664.846 148.144 663.622 Q149.623 662.373 150.387 659.468 Q151.56 655.084 151.56 647.107 Q151.56 641.194 150.336 637.243 Q149.419 634.312 147.966 633.089 Q146.921 632.248 145.443 632.248 Q143.71 632.248 142.359 633.803 Q140.524 635.918 139.861 640.455 Q139.199 644.991 139.199 649.401 Z"
     fill="#000000"
     fill-rule="nonzero"
     fill-opacity="1"
     id="path34" />
  <path
     clip-path="url(#clip500)"
     d="M175.089 633.024 L173.121 638.429 L156.555 638.429 L156.555 637.663 Q163.865 630.995 166.847 626.771 Q169.829 622.546 169.829 619.046 Q169.829 616.375 168.193 614.656 Q166.557 612.938 164.279 612.938 Q162.208 612.938 160.552 614.159 Q158.916 615.36 158.129 617.7 L157.363 617.7 Q157.88 613.869 160.013 611.819 Q162.167 609.769 165.377 609.769 Q168.793 609.769 171.071 611.964 Q173.37 614.159 173.37 617.141 Q173.37 619.274 172.376 621.407 Q170.843 624.762 167.406 628.51 Q162.25 634.143 160.966 635.302 L168.296 635.302 Q170.533 635.302 171.423 635.137 Q172.334 634.971 173.059 634.474 Q173.784 633.956 174.322 633.024 L175.089 633.024 Z"
     fill="#000000"
     fill-rule="nonzero"
     fill-opacity="1"
     id="path35" />
  <path
     clip-path="url(#clip500)"
     d="M114.903 264.11 L123.314 260.007 L124.155 260.007 L124.155 289.189 Q124.155 292.095 124.384 292.808 Q124.639 293.522 125.404 293.904 Q126.168 294.286 128.513 294.337 L128.513 295.28 L115.515 295.28 L115.515 294.337 Q117.962 294.286 118.675 293.93 Q119.389 293.547 119.669 292.936 Q119.95 292.299 119.95 289.189 L119.95 270.533 Q119.95 266.761 119.695 265.69 Q119.516 264.875 119.032 264.492 Q118.573 264.11 117.911 264.11 Q116.968 264.11 115.286 264.9 L114.903 264.11 Z"
     fill="#000000"
     fill-rule="nonzero"
     fill-opacity="1"
     id="path36" />
  <path
     clip-path="url(#clip500)"
     d="M136.771 278.204 Q136.771 272.291 138.555 268.035 Q140.339 263.753 143.296 261.663 Q145.589 260.007 148.036 260.007 Q152.012 260.007 155.172 264.059 Q159.123 269.08 159.123 277.669 Q159.123 283.684 157.39 287.889 Q155.657 292.095 152.955 294.006 Q150.279 295.892 147.781 295.892 Q142.837 295.892 139.549 290.056 Q136.771 285.137 136.771 278.204 M141.766 278.842 Q141.766 285.978 143.525 290.489 Q144.978 294.286 147.858 294.286 Q149.234 294.286 150.712 293.063 Q152.19 291.814 152.955 288.909 Q154.127 284.525 154.127 276.548 Q154.127 270.635 152.904 266.684 Q151.986 263.753 150.534 262.53 Q149.489 261.689 148.011 261.689 Q146.277 261.689 144.927 263.244 Q143.092 265.359 142.429 269.896 Q141.766 274.432 141.766 278.842 Z"
     fill="#000000"
     fill-rule="nonzero"
     fill-opacity="1"
     id="path37" />
  <path
     clip-path="url(#clip500)"
     d="M159.558 245.133 Q160.759 242.296 162.581 240.763 Q164.424 239.21 167.157 239.21 Q170.533 239.21 172.334 241.405 Q173.701 243.041 173.701 244.905 Q173.701 247.97 169.849 251.242 Q172.438 252.256 173.763 254.141 Q175.089 256.025 175.089 258.572 Q175.089 262.217 172.769 264.888 Q169.746 268.367 164.01 268.367 Q161.173 268.367 160.137 267.663 Q159.123 266.959 159.123 266.151 Q159.123 265.551 159.599 265.095 Q160.096 264.64 160.779 264.64 Q161.297 264.64 161.836 264.805 Q162.188 264.909 163.43 265.571 Q164.672 266.213 165.149 266.338 Q165.915 266.565 166.785 266.565 Q168.897 266.565 170.45 264.93 Q172.024 263.294 172.024 261.057 Q172.024 259.421 171.299 257.868 Q170.761 256.708 170.119 256.108 Q169.228 255.28 167.675 254.617 Q166.122 253.934 164.507 253.934 L163.844 253.934 L163.844 253.312 Q165.48 253.105 167.116 252.132 Q168.773 251.159 169.518 249.792 Q170.264 248.425 170.264 246.789 Q170.264 244.656 168.918 243.352 Q167.592 242.027 165.604 242.027 Q162.395 242.027 160.241 245.464 L159.558 245.133 Z"
     fill="#000000"
     fill-rule="nonzero"
     fill-opacity="1"
     id="path38" />
  <polyline
     clip-path="url(#clip502)"
     style="stroke:#0066cc;stroke-linecap:round;stroke-linejoin:round;stroke-width:4;stroke-opacity:1;fill:none"
     stroke-dasharray="16, 10"
     points="242.545,1176.96 283.381,1146.66 320.961,1118.78 355.766,1092.95 388.177,1068.9 418.504,1046.4 446.998,1025.26 473.867,1005.32 499.288,986.458 523.409,968.56 546.355,951.534 568.237,935.297 589.148,919.781 609.171,904.924 628.379,890.672 646.834,876.977 664.595,863.799 681.711,851.099 698.227,838.844 714.184,827.003 729.62,815.55 744.565,804.46 759.052,793.711 773.107,783.282 786.755,773.155 800.019,763.313 812.921,753.74 825.478,744.422 837.71,735.346 849.633,726.499 861.262,717.871 872.611,709.45 883.693,701.227 894.521,693.192 905.105,685.339 915.457,677.657 925.587,670.141 935.504,662.782 945.217,655.575 954.734,648.514 964.062,641.592 973.209,634.805 982.183,628.147 990.988,621.613 999.633,615.198 1008.12,608.9 1016.46,602.712 1024.65,596.632 1032.71,590.656 1040.63,584.781 1048.41,579.002 1056.08,573.317 1063.61,567.724 1071.03,562.218 1078.34,556.797 1085.53,551.459 1092.62,546.202 1099.6,541.022 1106.48,535.918 1113.26,530.887 1119.94,525.927 1126.53,521.037 1133.03,516.214 1139.45,511.457 1145.77,506.763 1152.01,502.132 1158.17,497.561 1164.25,493.049 1170.26,488.595 1176.18,484.196 1182.04,479.852 1187.82,475.562 1193.53,471.323 1199.18,467.135 1204.75,462.997 1210.27,458.907 1215.71,454.864 1221.1,450.867 1226.43,446.916 1231.69,443.009 1236.9,439.144 1242.05,435.322 1247.15,431.542 1252.19,427.801 1257.17,424.101 1262.11,420.439 1266.99,416.815 1271.83,413.228 1276.61,409.677 1281.35,406.162 1286.04,402.683 1290.68,399.237 1295.28,395.825 1299.84,392.446 1304.35,389.099 1308.81,385.784 1313.24,382.5 1317.62,379.247 1321.97,376.023 1326.27,372.829 1330.54,369.664 1334.77,366.527 1338.96,363.418 1343.11,360.337 1347.23,357.282 1351.31,354.254 1355.35,351.252 1359.36,348.275 1363.34,345.324 1367.29,342.397 1371.2,339.494 1375.08,336.616 1378.93,333.76 1382.74,330.928 1386.53,328.119 1390.28,325.332 1394.01,322.567 1397.71,319.824 1401.38,317.102 1405.02,314.401 1408.63,311.721 1412.21,309.061 1415.77,306.421 1419.3,303.801 1422.81,301.2 1426.29,298.619 1429.74,296.056 1433.17,293.513 1436.57,290.987 1439.95,288.48 1443.31,285.99 1446.64,283.518 1449.94,281.064 1453.23,278.626 1456.49,276.205 1459.73,273.801 1462.95,271.414 1466.15,269.042 1469.32,266.687 1472.47,264.347 1475.61,262.023 1478.72,259.714 1481.81,257.42 1484.88,255.141 1487.93,252.877 1490.96,250.628 1493.98,248.393 1496.97,246.172 1499.94,243.965 1502.9,241.772 1505.84,239.592 1508.75,237.426 1511.66,235.274 1514.54,233.134 1517.4,231.008 1520.25,228.894 1523.08,226.793 1525.9,224.705 1528.7,222.629 1531.48,220.565 1534.24,218.514 1536.99,216.474 1539.73,214.446 1542.44,212.43 1545.14,210.425 1547.83,208.432 1550.5,206.45 1553.16,204.479 1555.8,202.52 1558.42,200.571 1561.04,198.633 1563.63,196.705 1566.22,194.789 1568.79,192.882 1571.34,190.986 1573.88,189.1 1576.41,187.225 1578.93,185.359 1581.43,183.503 1583.91,181.657 1586.39,179.821 1588.85,177.994 1591.3,176.177 1593.74,174.369 1596.16,172.571 1598.57,170.781 1600.97,169.001 1603.36,167.23 1605.73,165.467 1608.1,163.714 1610.45,161.969 1612.79,160.233 1615.12,158.505 1617.43,156.786 1619.74,155.076 1622.03,153.373 1624.32,151.679 1626.59,149.993 1628.85,148.316 1631.1,146.646 "
     id="polyline74" />
  <circle
     clip-path="url(#clip502)"
     cx="524.476"
     cy="969.007"
     r="14.4"
     fill="#0066cc"
     fill-rule="evenodd"
     fill-opacity="1"
     stroke="#000000"
     stroke-opacity="1"
     stroke-width="2.8"
     id="circle55" />
  <circle
     clip-path="url(#clip502)"
     cx="583.501"
     cy="924.948"
     r="14.4"
     fill="#0066cc"
     fill-rule="evenodd"
     fill-opacity="1"
     stroke="#000000"
     stroke-opacity="1"
     stroke-width="2.8"
     id="circle56" />
  <circle
     clip-path="url(#clip502)"
     cx="635.954"
     cy="886.203"
     r="14.4"
     fill="#0066cc"
     fill-rule="evenodd"
     fill-opacity="1"
     stroke="#000000"
     stroke-opacity="1"
     stroke-width="2.8"
     id="circle57" />
  <circle
     clip-path="url(#clip502)"
     cx="705.09"
     cy="833.389"
     r="14.4"
     fill="#0066cc"
     fill-rule="evenodd"
     fill-opacity="1"
     stroke="#000000"
     stroke-opacity="1"
     stroke-width="2.8"
     id="circle58" />
  <circle
     clip-path="url(#clip502)"
     cx="746.123"
     cy="794.536"
     r="14.4"
     fill="#0066cc"
     fill-rule="evenodd"
     fill-opacity="1"
     stroke="#000000"
     stroke-opacity="1"
     stroke-width="2.8"
     id="circle59" />
  <circle
     clip-path="url(#clip502)"
     cx="801.668"
     cy="763.661"
     r="14.4"
     fill="#0066cc"
     fill-rule="evenodd"
     fill-opacity="1"
     stroke="#000000"
     stroke-opacity="1"
     stroke-width="2.8"
     id="circle60" />
  <circle
     clip-path="url(#clip502)"
     cx="866.818"
     cy="714.171"
     r="14.4"
     fill="#0066cc"
     fill-rule="evenodd"
     fill-opacity="1"
     stroke="#000000"
     stroke-opacity="1"
     stroke-width="2.8"
     id="circle61" />
  <circle
     clip-path="url(#clip502)"
     cx="924.05"
     cy="678.171"
     r="14.4"
     fill="#0066cc"
     fill-rule="evenodd"
     fill-opacity="1"
     stroke="#000000"
     stroke-opacity="1"
     stroke-width="2.8"
     id="circle62" />
  <circle
     clip-path="url(#clip502)"
     cx="987.021"
     cy="624.763"
     r="14.4"
     fill="#0066cc"
     fill-rule="evenodd"
     fill-opacity="1"
     stroke="#000000"
     stroke-opacity="1"
     stroke-width="2.8"
     id="circle63" />
  <circle
     clip-path="url(#clip502)"
     cx="1042.57"
     cy="584.846"
     r="14.4"
     fill="#0066cc"
     fill-rule="evenodd"
     fill-opacity="1"
     stroke="#000000"
     stroke-opacity="1"
     stroke-width="2.8"
     id="circle64" />
  <circle
     clip-path="url(#clip502)"
     cx="1092.25"
     cy="552.024"
     r="14.4"
     fill="#0066cc"
     fill-rule="evenodd"
     fill-opacity="1"
     stroke="#000000"
     stroke-opacity="1"
     stroke-width="2.8"
     id="circle65" />
  <circle
     clip-path="url(#clip502)"
     cx="1154.04"
     cy="485.785"
     r="14.4"
     fill="#0066cc"
     fill-rule="evenodd"
     fill-opacity="1"
     stroke="#000000"
     stroke-opacity="1"
     stroke-width="2.8"
     id="circle66" />
  <circle
     clip-path="url(#clip502)"
     cx="1208.67"
     cy="453.764"
     r="14.4"
     fill="#0066cc"
     fill-rule="evenodd"
     fill-opacity="1"
     stroke="#000000"
     stroke-opacity="1"
     stroke-width="2.8"
     id="circle67" />
  <circle
     clip-path="url(#clip502)"
     cx="1264.21"
     cy="414.291"
     r="14.4"
     fill="#0066cc"
     fill-rule="evenodd"
     fill-opacity="1"
     stroke="#000000"
     stroke-opacity="1"
     stroke-width="2.8"
     id="circle68" />
  <circle
     clip-path="url(#clip502)"
     cx="1325.54"
     cy="391.672"
     r="14.4"
     fill="#0066cc"
     fill-rule="evenodd"
     fill-opacity="1"
     stroke="#000000"
     stroke-opacity="1"
     stroke-width="2.8"
     id="circle69" />
  <circle
     clip-path="url(#clip502)"
     cx="1379.81"
     cy="338.314"
     r="14.4"
     fill="#0066cc"
     fill-rule="evenodd"
     fill-opacity="1"
     stroke="#000000"
     stroke-opacity="1"
     stroke-width="2.8"
     id="circle70" />
  <circle
     clip-path="url(#clip502)"
     cx="1437.63"
     cy="294.667"
     r="14.4"
     fill="#0066cc"
     fill-rule="evenodd"
     fill-opacity="1"
     stroke="#000000"
     stroke-opacity="1"
     stroke-width="2.8"
     id="circle71" />
  <circle
     clip-path="url(#clip502)"
     cx="1497.18"
     cy="245.707"
     r="14.4"
     fill="#0066cc"
     fill-rule="evenodd"
     fill-opacity="1"
     stroke="#000000"
     stroke-opacity="1"
     stroke-width="2.8"
     id="circle72" />
  <circle
     clip-path="url(#clip502)"
     cx="1553.62"
     cy="169.112"
     r="14.4"
     fill="#0066cc"
     fill-rule="evenodd"
     fill-opacity="1"
     stroke="#000000"
     stroke-opacity="1"
     stroke-width="2.8"
     id="circle73" />
  <circle
     clip-path="url(#clip502)"
     cx="1610.34"
     cy="184.778"
     r="14.4"
     fill="#0066cc"
     fill-rule="evenodd"
     fill-opacity="1"
     stroke="#000000"
     stroke-opacity="1"
     stroke-width="2.8"
     id="circle74" />
  <g
     data-mml-node="msub"
     data-latex="\tau_\text{exp}"
     data-semantic-type="subscript"
     data-semantic-role="greekletter"
     data-semantic-annotation="depth:1"
     data-semantic-id="2"
     data-semantic-children="0,1"
     data-semantic-attributes="latex:\tau_\text{exp}"
     data-semantic-owns="0 1"
     aria-level="0"
     data-speech-node="true"
     id="g5"
     transform="matrix(0,-0.06270112,-0.06270112,0,71.024183,695.65376)"
     style="fill:#000000;stroke:#000000;stroke-width:0">
    <g
       data-mml-node="mi"
       data-latex="\tau"
       data-semantic-type="identifier"
       data-semantic-role="greekletter"
       data-semantic-font="italic"
       data-semantic-annotation="clearspeak:simple;nemeth:number;depth:2"
       data-semantic-id="0"
       data-semantic-parent="2"
       data-semantic-attributes="latex:\tau"
       aria-level="1"
       data-speech-node="true"
       id="g1">
      <path
         id="use1"
         d="M 468,431 H 192 C 139,431 91,397 47,330 34,310 27,297 27,292 c 3,-8 4,-13 16,-13 7,0 13,4 19,13 32,49 72,74 121,74 h 77 L 165,56 c -7,-22 -10,-35 -10,-38 0,-20 11,-30 32,-30 11,0 21,3 27,9 13,12 14,15 18,36 l 65,333 h 162 c 35,0 52,12 52,37 0,23 -18,28 -43,28 z" />
    </g>
    <g
       data-mml-node="mtext"
       transform="matrix(0.707,0,0,0.707,470,-150)"
       data-latex="{exp}"
       data-semantic-type="text"
       data-semantic-role="unknown"
       data-semantic-font="normal"
       data-semantic-annotation="clearspeak:unit;depth:2"
       data-semantic-id="1"
       data-semantic-parent="2"
       data-semantic-attributes="latex:{exp}"
       aria-level="1"
       data-speech-node="true"
       id="g4">
      <path
         id="use2"
         d="M 415,251 C 415,366 348,448 236,448 176,448 126,425 85,378 47,334 28,281 28,220 28,157 49,104 91,58 c 42,-46 94,-69 156,-69 57,0 101,20 131,59 25,33 37,57 37,73 0,10 -6,15 -17,15 -8,0 -13,-5 -16,-16 -22,-66 -65,-99 -129,-99 -45,0 -80,21 -107,64 -19,31 -28,78 -29,142 h 270 c 22,0 28,2 28,24 m -89,98 c 11,-33 16,-65 16,-94 H 118 c 3,66 20,111 50,134 25,20 47,30 68,30 45,0 75,-23 90,-70 z" />
      <path
         id="use3"
         d="m 862,3 c 23,1 56,0 98,-3 v 38 c -53,0 -73,1 -94,29 L 736,235 c 43,53 72,89 88,108 28,32 67,49 118,50 v 38 c -28,-2 -56,-3 -84,-3 -37,0 -70,1 -99,3 v -38 c 19,-2 29,-11 29,-27 0,-9 -5,-20 -14,-32 l -58,-72 -74,95 c -5,7 -8,12 -8,15 0,13 12,20 35,21 v 38 l -111,-3 c -26,-1 -58,0 -97,3 v -38 c 36,0 59,-3 69,-8 10,-5 26,-22 48,-51 L 673,210 C 624,147 594,109 583,96 551,57 509,38 456,38 V 0 c 37,3 65,4 86,3 l 97,-3 v 38 c -19,3 -28,12 -28,27 0,4 1,9 3,14 6,13 33,47 81,104 L 767,89 C 778,75 784,65 787,59 787,46 775,39 751,38 V 0 Z" />
      <path
         id="use4"
         d="m 1270,-13 c 62,0 115,22 158,67 43,45 65,98 65,161 0,61 -20,113 -59,157 -41,47 -91,70 -151,70 -51,0 -95,-20 -133,-59 v 59 l -150,-11 v -38 c 37,0 59,-2 66,-7 7,-5 11,-18 11,-39 v -462 c 0,-19 -4,-31 -11,-35 -7,-4 -29,-5 -66,-5 v -39 l 114,3 115,-3 v 39 c -37,0 -58,1 -65,5 -7,4 -11,16 -11,35 V 44 c 22,-31 65,-57 117,-57 m 6,422 c 41,0 73,-23 98,-69 19,-39 29,-80 29,-125 0,-47 -11,-90 -33,-129 -26,-47 -61,-70 -104,-70 -42,0 -75,20 -100,59 -9,13 -13,26 -13,39 v 219 c 29,51 70,76 123,76 z" />
    </g>
  </g>
</svg>
