<?xml version="1.0" encoding="UTF-8" standalone="no"?>
<svg
   width="430"
   height="350"
   viewBox="0 0 1720 1400"
   version="1.1"
   id="svg86"
   sodipodi:docname="tau_int_metropolis_tri.svg"
   inkscape:version="1.4.2 (ebf0e940, 2025-05-08)"
   xmlns:inkscape="http://www.inkscape.org/namespaces/inkscape"
   xmlns:sodipodi="http://sodipodi.sourceforge.net/DTD/sodipodi-0.dtd"
   xmlns="http://www.w3.org/2000/svg"
   xmlns:svg="http://www.w3.org/2000/svg">
  <sodipodi:namedview
     id="namedview86"
     pagecolor="#ffffff"
     bordercolor="#000000"
     borderopacity="0.25"
     inkscape:showpageshadow="2"
     inkscape:pageopacity="0.0"
     inkscape:pagecheckerboard="0"
     inkscape:deskcolor="#d1d1d1"
     inkscape:zoom="2.0918722"
     inkscape:cx="244.27878"
     inkscape:cy="195.51863"
     inkscape:window-width="1728"
     inkscape:window-height="1055"
     inkscape:window-x="0"
     inkscape:window-y="34"
     inkscape:window-maximized="1"
     inkscape:current-layer="svg86" />
  <defs
     id="defs1">
    <clipPath
       id="clip590">
      <rect
         x="0"
         y="0"
         width="1720"
         height="1400"
         id="rect1" />
    </clipPath>
  </defs>
  <path
     clip-path="url(#clip590)"
     d="M0 1400 L1720 1400 L1720 -4.44089e-15 L0 -4.44089e-15  Z"
     fill="#ffffff"
     fill-rule="evenodd"
     fill-opacity="1"
     id="path1" />
  <defs
     id="defs2">
    <clipPath
       id="clip591">
      <rect
         x="344"
         y="0"
         width="1205"
         height="1205"
         id="rect2" />
    </clipPath>
  </defs>
  <path
     clip-path="url(#clip590)"
     d="M207.819 1207.87 L1672.76 1207.87 L1672.76 115.736 L207.819 115.736  Z"
     fill="#ffffff"
     fill-rule="evenodd"
     fill-opacity="1"
     id="path2" />
  <defs
     id="defs3">
    <clipPath
       id="clip592">
      <rect
         x="207"
         y="115"
         width="1466"
         height="1093"
         id="rect3" />
    </clipPath>
  </defs>
  <polyline
     clip-path="url(#clip592)"
     style="stroke:#000000; stroke-linecap:round; stroke-linejoin:round; stroke-width:2; stroke-opacity:0.1; fill:none"
     points="554.61,1207.87 554.61,115.736 "
     id="polyline3" />
  <polyline
     clip-path="url(#clip592)"
     style="stroke:#000000; stroke-linecap:round; stroke-linejoin:round; stroke-width:2; stroke-opacity:0.1; fill:none"
     points="1094.99,1207.87 1094.99,115.736 "
     id="polyline4" />
  <polyline
     clip-path="url(#clip592)"
     style="stroke:#000000; stroke-linecap:round; stroke-linejoin:round; stroke-width:2; stroke-opacity:0.1; fill:none"
     points="1635.36,1207.87 1635.36,115.736 "
     id="polyline5" />
  <polyline
     clip-path="url(#clip592)"
     style="stroke:#000000; stroke-linecap:round; stroke-linejoin:round; stroke-width:2; stroke-opacity:0.1; fill:none"
     points="207.819,961.48 1672.76,961.48 "
     id="polyline6" />
  <polyline
     clip-path="url(#clip592)"
     style="stroke:#000000; stroke-linecap:round; stroke-linejoin:round; stroke-width:2; stroke-opacity:0.1; fill:none"
     points="207.819,579.311 1672.76,579.311 "
     id="polyline7" />
  <polyline
     clip-path="url(#clip592)"
     style="stroke:#000000; stroke-linecap:round; stroke-linejoin:round; stroke-width:2; stroke-opacity:0.1; fill:none"
     points="207.819,197.141 1672.76,197.141 "
     id="polyline8" />
  <polyline
     clip-path="url(#clip590)"
     style="stroke:#000000; stroke-linecap:round; stroke-linejoin:round; stroke-width:4; stroke-opacity:1; fill:none"
     points="207.819,1207.87 1672.76,1207.87 "
     id="polyline9" />
  <polyline
     clip-path="url(#clip590)"
     style="stroke:#000000; stroke-linecap:round; stroke-linejoin:round; stroke-width:4; stroke-opacity:1; fill:none"
     points="554.61,1207.87 554.61,1188.97 "
     id="polyline10" />
  <polyline
     clip-path="url(#clip590)"
     style="stroke:#000000; stroke-linecap:round; stroke-linejoin:round; stroke-width:4; stroke-opacity:1; fill:none"
     points="1094.99,1207.87 1094.99,1188.97 "
     id="polyline11" />
  <polyline
     clip-path="url(#clip590)"
     style="stroke:#000000; stroke-linecap:round; stroke-linejoin:round; stroke-width:4; stroke-opacity:1; fill:none"
     points="1635.36,1207.87 1635.36,1188.97 "
     id="polyline12" />
  <path
     clip-path="url(#clip590)"
     d="M509.876 1249.32 L518.287 1245.22 L519.128 1245.22 L519.128 1274.4 Q519.128 1277.31 519.357 1278.02 Q519.612 1278.73 520.377 1279.12 Q521.141 1279.5 523.486 1279.55 L523.486 1280.49 L510.488 1280.49 L510.488 1279.55 Q512.935 1279.5 513.648 1279.14 Q514.362 1278.76 514.642 1278.15 Q514.923 1277.51 514.923 1274.4 L514.923 1255.74 Q514.923 1251.97 514.668 1250.9 Q514.489 1250.09 514.005 1249.7 Q513.546 1249.32 512.884 1249.32 Q511.941 1249.32 510.259 1250.11 L509.876 1249.32 Z"
     fill="#000000"
     fill-rule="nonzero"
     fill-opacity="1"
     id="path12" />
  <path
     clip-path="url(#clip590)"
     d="M531.744 1263.42 Q531.744 1257.5 533.528 1253.25 Q535.312 1248.97 538.269 1246.88 Q540.562 1245.22 543.009 1245.22 Q546.985 1245.22 550.145 1249.27 Q554.096 1254.29 554.096 1262.88 Q554.096 1268.9 552.363 1273.1 Q550.63 1277.31 547.928 1279.22 Q545.252 1281.1 542.754 1281.1 Q537.81 1281.1 534.522 1275.27 Q531.744 1270.35 531.744 1263.42 M536.739 1264.05 Q536.739 1271.19 538.498 1275.7 Q539.951 1279.5 542.831 1279.5 Q544.207 1279.5 545.685 1278.27 Q547.163 1277.03 547.928 1274.12 Q549.1 1269.74 549.1 1261.76 Q549.1 1255.85 547.877 1251.9 Q546.96 1248.97 545.507 1247.74 Q544.462 1246.9 542.984 1246.9 Q541.251 1246.9 539.9 1248.46 Q538.065 1250.57 537.402 1255.11 Q536.739 1259.64 536.739 1264.05 Z"
     fill="#000000"
     fill-rule="nonzero"
     fill-opacity="1"
     id="path13" />
  <path
     clip-path="url(#clip590)"
     d="M554.096 1227.76 L560.929 1224.42 L561.613 1224.42 L561.613 1248.13 Q561.613 1250.49 561.799 1251.07 Q562.006 1251.65 562.627 1251.96 Q563.249 1252.27 565.154 1252.32 L565.154 1253.08 L554.593 1253.08 L554.593 1252.32 Q556.581 1252.27 557.161 1251.98 Q557.74 1251.67 557.968 1251.18 Q558.196 1250.66 558.196 1248.13 L558.196 1232.97 Q558.196 1229.91 557.989 1229.04 Q557.844 1228.38 557.451 1228.07 Q557.078 1227.76 556.539 1227.76 Q555.773 1227.76 554.406 1228.4 L554.096 1227.76 Z"
     fill="#000000"
     fill-rule="nonzero"
     fill-opacity="1"
     id="path14" />
  <path
     clip-path="url(#clip590)"
     d="M575.632 1249.06 Q576.605 1249.06 577.268 1249.75 Q577.931 1250.41 577.931 1251.36 Q577.931 1252.32 577.247 1253 Q576.585 1253.66 575.632 1253.66 Q574.68 1253.66 573.996 1253 Q573.334 1252.32 573.334 1251.36 Q573.334 1250.39 573.996 1249.73 Q574.68 1249.06 575.632 1249.06 Z"
     fill="#000000"
     fill-rule="nonzero"
     fill-opacity="1"
     id="path15" />
  <path
     clip-path="url(#clip590)"
     d="M599.343 1225 L597.727 1228.52 L589.279 1228.52 L587.436 1232.29 Q592.923 1233.1 596.133 1236.37 Q598.887 1239.19 598.887 1243 Q598.887 1245.21 597.976 1247.1 Q597.086 1248.98 595.719 1250.31 Q594.352 1251.63 592.675 1252.44 Q590.293 1253.58 587.788 1253.58 Q585.261 1253.58 584.102 1252.73 Q582.963 1251.86 582.963 1250.82 Q582.963 1250.24 583.439 1249.81 Q583.915 1249.35 584.64 1249.35 Q585.178 1249.35 585.572 1249.52 Q585.986 1249.69 586.959 1250.37 Q588.512 1251.45 590.107 1251.45 Q592.53 1251.45 594.352 1249.62 Q596.195 1247.78 596.195 1245.15 Q596.195 1242.6 594.559 1240.41 Q592.923 1238.19 590.045 1236.99 Q587.788 1236.06 583.895 1235.91 L589.279 1225 L599.343 1225 Z"
     fill="#000000"
     fill-rule="nonzero"
     fill-opacity="1"
     id="path16" />
  <path
     clip-path="url(#clip590)"
     d="M1047.58 1249.32 L1055.99 1245.22 L1056.83 1245.22 L1056.83 1274.4 Q1056.83 1277.31 1057.06 1278.02 Q1057.32 1278.73 1058.08 1279.12 Q1058.85 1279.5 1061.19 1279.55 L1061.19 1280.49 L1048.19 1280.49 L1048.19 1279.55 Q1050.64 1279.5 1051.35 1279.14 Q1052.07 1278.76 1052.35 1278.15 Q1052.63 1277.51 1052.63 1274.4 L1052.63 1255.74 Q1052.63 1251.97 1052.37 1250.9 Q1052.19 1250.09 1051.71 1249.7 Q1051.25 1249.32 1050.59 1249.32 Q1049.65 1249.32 1047.96 1250.11 L1047.58 1249.32 Z"
     fill="#000000"
     fill-rule="nonzero"
     fill-opacity="1"
     id="path17" />
  <path
     clip-path="url(#clip590)"
     d="M1069.45 1263.42 Q1069.45 1257.5 1071.23 1253.25 Q1073.02 1248.97 1075.97 1246.88 Q1078.27 1245.22 1080.71 1245.22 Q1084.69 1245.22 1087.85 1249.27 Q1091.8 1254.29 1091.8 1262.88 Q1091.8 1268.9 1090.07 1273.1 Q1088.33 1277.31 1085.63 1279.22 Q1082.96 1281.1 1080.46 1281.1 Q1075.51 1281.1 1072.23 1275.27 Q1069.45 1270.35 1069.45 1263.42 M1074.44 1264.05 Q1074.44 1271.19 1076.2 1275.7 Q1077.66 1279.5 1080.54 1279.5 Q1081.91 1279.5 1083.39 1278.27 Q1084.87 1277.03 1085.63 1274.12 Q1086.81 1269.74 1086.81 1261.76 Q1086.81 1255.85 1085.58 1251.9 Q1084.66 1248.97 1083.21 1247.74 Q1082.17 1246.9 1080.69 1246.9 Q1078.96 1246.9 1077.6 1248.46 Q1075.77 1250.57 1075.11 1255.11 Q1074.44 1259.64 1074.44 1264.05 Z"
     fill="#000000"
     fill-rule="nonzero"
     fill-opacity="1"
     id="path18" />
  <path
     clip-path="url(#clip590)"
     d="M1110.33 1247.68 L1108.37 1253.08 L1091.8 1253.08 L1091.8 1252.32 Q1099.11 1245.65 1102.09 1241.42 Q1105.07 1237.2 1105.07 1233.7 Q1105.07 1231.03 1103.44 1229.31 Q1101.8 1227.59 1099.52 1227.59 Q1097.45 1227.59 1095.8 1228.81 Q1094.16 1230.01 1093.37 1232.35 L1092.61 1232.35 Q1093.13 1228.52 1095.26 1226.47 Q1097.41 1224.42 1100.62 1224.42 Q1104.04 1224.42 1106.32 1226.62 Q1108.62 1228.81 1108.62 1231.79 Q1108.62 1233.93 1107.62 1236.06 Q1106.09 1239.41 1102.65 1243.16 Q1097.5 1248.8 1096.21 1249.95 L1103.54 1249.95 Q1105.78 1249.95 1106.67 1249.79 Q1107.58 1249.62 1108.3 1249.13 Q1109.03 1248.61 1109.57 1247.68 L1110.33 1247.68 Z"
     fill="#000000"
     fill-rule="nonzero"
     fill-opacity="1"
     id="path19" />
  <path
     clip-path="url(#clip590)"
     d="M1117.4 1249.06 Q1118.37 1249.06 1119.03 1249.75 Q1119.69 1250.41 1119.69 1251.36 Q1119.69 1252.32 1119.01 1253 Q1118.35 1253.66 1117.4 1253.66 Q1116.44 1253.66 1115.76 1253 Q1115.1 1252.32 1115.1 1251.36 Q1115.1 1250.39 1115.76 1249.73 Q1116.44 1249.06 1117.4 1249.06 Z"
     fill="#000000"
     fill-rule="nonzero"
     fill-opacity="1"
     id="path20" />
  <path
     clip-path="url(#clip590)"
     d="M1124.23 1239.21 Q1124.23 1234.4 1125.68 1230.95 Q1127.13 1227.47 1129.53 1225.77 Q1131.39 1224.42 1133.38 1224.42 Q1136.61 1224.42 1139.18 1227.71 Q1142.39 1231.79 1142.39 1238.77 Q1142.39 1243.66 1140.98 1247.08 Q1139.57 1250.49 1137.38 1252.05 Q1135.2 1253.58 1133.18 1253.58 Q1129.16 1253.58 1126.49 1248.84 Q1124.23 1244.84 1124.23 1239.21 M1128.29 1239.73 Q1128.29 1245.52 1129.72 1249.19 Q1130.9 1252.27 1133.24 1252.27 Q1134.36 1252.27 1135.56 1251.28 Q1136.76 1250.27 1137.38 1247.9 Q1138.33 1244.34 1138.33 1237.86 Q1138.33 1233.06 1137.34 1229.85 Q1136.59 1227.47 1135.41 1226.47 Q1134.56 1225.79 1133.36 1225.79 Q1131.95 1225.79 1130.86 1227.05 Q1129.36 1228.77 1128.83 1232.46 Q1128.29 1236.14 1128.29 1239.73 Z"
     fill="#000000"
     fill-rule="nonzero"
     fill-opacity="1"
     id="path21" />
  <path
     clip-path="url(#clip590)"
     d="M1588.6 1249.32 L1597.01 1245.22 L1597.85 1245.22 L1597.85 1274.4 Q1597.85 1277.31 1598.08 1278.02 Q1598.34 1278.73 1599.1 1279.12 Q1599.86 1279.5 1602.21 1279.55 L1602.21 1280.49 L1589.21 1280.49 L1589.21 1279.55 Q1591.66 1279.5 1592.37 1279.14 Q1593.08 1278.76 1593.37 1278.15 Q1593.65 1277.51 1593.65 1274.4 L1593.65 1255.74 Q1593.65 1251.97 1593.39 1250.9 Q1593.21 1250.09 1592.73 1249.7 Q1592.27 1249.32 1591.61 1249.32 Q1590.66 1249.32 1588.98 1250.11 L1588.6 1249.32 Z"
     fill="#000000"
     fill-rule="nonzero"
     fill-opacity="1"
     id="path22" />
  <path
     clip-path="url(#clip590)"
     d="M1610.47 1263.42 Q1610.47 1257.5 1612.25 1253.25 Q1614.03 1248.97 1616.99 1246.88 Q1619.29 1245.22 1621.73 1245.22 Q1625.71 1245.22 1628.87 1249.27 Q1632.82 1254.29 1632.82 1262.88 Q1632.82 1268.9 1631.09 1273.1 Q1629.35 1277.31 1626.65 1279.22 Q1623.97 1281.1 1621.48 1281.1 Q1616.53 1281.1 1613.24 1275.27 Q1610.47 1270.35 1610.47 1263.42 M1615.46 1264.05 Q1615.46 1271.19 1617.22 1275.7 Q1618.67 1279.5 1621.55 1279.5 Q1622.93 1279.5 1624.41 1278.27 Q1625.89 1277.03 1626.65 1274.12 Q1627.82 1269.74 1627.82 1261.76 Q1627.82 1255.85 1626.6 1251.9 Q1625.68 1248.97 1624.23 1247.74 Q1623.18 1246.9 1621.71 1246.9 Q1619.97 1246.9 1618.62 1248.46 Q1616.79 1250.57 1616.12 1255.11 Q1615.46 1259.64 1615.46 1264.05 Z"
     fill="#000000"
     fill-rule="nonzero"
     fill-opacity="1"
     id="path23" />
  <path
     clip-path="url(#clip590)"
     d="M1651.35 1247.68 L1649.38 1253.08 L1632.82 1253.08 L1632.82 1252.32 Q1640.13 1245.65 1643.11 1241.42 Q1646.09 1237.2 1646.09 1233.7 Q1646.09 1231.03 1644.46 1229.31 Q1642.82 1227.59 1640.54 1227.59 Q1638.47 1227.59 1636.82 1228.81 Q1635.18 1230.01 1634.39 1232.35 L1633.63 1232.35 Q1634.14 1228.52 1636.28 1226.47 Q1638.43 1224.42 1641.64 1224.42 Q1645.06 1224.42 1647.33 1226.62 Q1649.63 1228.81 1649.63 1231.79 Q1649.63 1233.93 1648.64 1236.06 Q1647.11 1239.41 1643.67 1243.16 Q1638.51 1248.8 1637.23 1249.95 L1644.56 1249.95 Q1646.8 1249.95 1647.69 1249.79 Q1648.6 1249.62 1649.32 1249.13 Q1650.05 1248.61 1650.59 1247.68 L1651.35 1247.68 Z"
     fill="#000000"
     fill-rule="nonzero"
     fill-opacity="1"
     id="path24" />
  <path
     clip-path="url(#clip590)"
     d="M1658.41 1249.06 Q1659.39 1249.06 1660.05 1249.75 Q1660.71 1250.41 1660.71 1251.36 Q1660.71 1252.32 1660.03 1253 Q1659.37 1253.66 1658.41 1253.66 Q1657.46 1253.66 1656.78 1253 Q1656.12 1252.32 1656.12 1251.36 Q1656.12 1250.39 1656.78 1249.73 Q1657.46 1249.06 1658.41 1249.06 Z"
     fill="#000000"
     fill-rule="nonzero"
     fill-opacity="1"
     id="path25" />
  <path
     clip-path="url(#clip590)"
     d="M1682.12 1225 L1680.51 1228.52 L1672.06 1228.52 L1670.22 1232.29 Q1675.7 1233.1 1678.91 1236.37 Q1681.67 1239.19 1681.67 1243 Q1681.67 1245.21 1680.76 1247.1 Q1679.87 1248.98 1678.5 1250.31 Q1677.13 1251.63 1675.46 1252.44 Q1673.07 1253.58 1670.57 1253.58 Q1668.04 1253.58 1666.88 1252.73 Q1665.74 1251.86 1665.74 1250.82 Q1665.74 1250.24 1666.22 1249.81 Q1666.7 1249.35 1667.42 1249.35 Q1667.96 1249.35 1668.35 1249.52 Q1668.77 1249.69 1669.74 1250.37 Q1671.29 1251.45 1672.89 1251.45 Q1675.31 1251.45 1677.13 1249.62 Q1678.98 1247.78 1678.98 1245.15 Q1678.98 1242.6 1677.34 1240.41 Q1675.7 1238.19 1672.83 1236.99 Q1670.57 1236.06 1666.68 1235.91 L1672.06 1225 L1682.12 1225 Z"
     fill="#000000"
     fill-rule="nonzero"
     fill-opacity="1"
     id="path26" />
  <path
     clip-path="url(#clip590)"
     d="M953.091 1329.05 Q953.091 1329.19 952.904 1329.73 L949.109 1340.08 Q948.898 1340.69 948.688 1340.81 Q948.477 1340.9 947.61 1340.9 L925.406 1340.9 Q924.867 1340.9 924.656 1340.88 Q924.445 1340.85 924.281 1340.73 Q924.117 1340.62 924.117 1340.36 Q924.117 1339.89 924.281 1339.68 Q924.469 1339.47 924.68 1339.45 Q924.89 1339.42 925.406 1339.42 Q926.577 1339.42 927.279 1339.35 Q927.982 1339.28 928.427 1339.19 Q928.896 1339.07 929.13 1338.74 Q929.387 1338.42 929.505 1338.13 Q929.622 1337.83 929.786 1337.15 L936.203 1311.39 Q936.391 1310.61 936.391 1310.5 Q936.391 1310.05 936.11 1309.93 Q935.852 1309.79 935.103 1309.72 L933.276 1309.63 Q932.713 1309.63 932.479 1309.61 Q932.268 1309.58 932.105 1309.47 Q931.941 1309.35 931.941 1309.09 Q931.941 1308.65 932.105 1308.44 Q932.292 1308.2 932.432 1308.18 Q932.596 1308.13 932.854 1308.13 L939.225 1308.27 L946.322 1308.13 Q947.095 1308.13 947.095 1308.72 Q947.095 1309.37 946.767 1309.51 Q946.439 1309.63 945.268 1309.63 Q943.019 1309.63 941.989 1309.86 Q940.982 1310.1 940.701 1310.5 Q940.443 1310.87 940.185 1311.88 L933.697 1337.78 Q933.463 1338.65 933.463 1338.88 Q933.463 1339.14 933.58 1339.24 Q933.721 1339.31 934.095 1339.35 Q934.517 1339.42 935.149 1339.42 L939.647 1339.42 Q941.005 1339.42 942.2 1339.21 Q943.394 1339 944.308 1338.7 Q945.244 1338.39 946.088 1337.83 Q946.931 1337.27 947.516 1336.78 Q948.125 1336.26 948.711 1335.46 Q949.32 1334.65 949.671 1334.08 Q950.046 1333.5 950.468 1332.56 Q950.889 1331.6 951.1 1331.06 Q951.334 1330.5 951.686 1329.54 Q951.896 1329.05 951.967 1328.91 Q952.037 1328.77 952.154 1328.65 Q952.295 1328.53 952.505 1328.53 Q952.787 1328.53 952.927 1328.7 Q953.091 1328.86 953.091 1329.05 Z"
     fill="#000000"
     fill-rule="nonzero"
     fill-opacity="1"
     id="path27" />
  <polyline
     clip-path="url(#clip590)"
     style="stroke:#000000; stroke-linecap:round; stroke-linejoin:round; stroke-width:4; stroke-opacity:1; fill:none"
     points="207.819,1207.87 207.819,115.736 "
     id="polyline27" />
  <polyline
     clip-path="url(#clip590)"
     style="stroke:#000000; stroke-linecap:round; stroke-linejoin:round; stroke-width:4; stroke-opacity:1; fill:none"
     points="207.819,961.48 226.717,961.48 "
     id="polyline28" />
  <polyline
     clip-path="url(#clip590)"
     style="stroke:#000000; stroke-linecap:round; stroke-linejoin:round; stroke-width:4; stroke-opacity:1; fill:none"
     points="207.819,579.311 226.717,579.311 "
     id="polyline29" />
  <polyline
     clip-path="url(#clip590)"
     style="stroke:#000000; stroke-linecap:round; stroke-linejoin:round; stroke-width:4; stroke-opacity:1; fill:none"
     points="207.819,197.141 226.717,197.141 "
     id="polyline30" />
  <path
     clip-path="url(#clip590)"
     d="M126.742 954.038 L135.152 949.934 L135.993 949.934 L135.993 979.117 Q135.993 982.022 136.223 982.736 Q136.478 983.449 137.242 983.832 Q138.007 984.214 140.352 984.265 L140.352 985.208 L127.353 985.208 L127.353 984.265 Q129.8 984.214 130.514 983.857 Q131.227 983.475 131.508 982.863 Q131.788 982.226 131.788 979.117 L131.788 960.46 Q131.788 956.688 131.533 955.618 Q131.355 954.802 130.871 954.42 Q130.412 954.038 129.749 954.038 Q128.806 954.038 127.124 954.828 L126.742 954.038 Z"
     fill="#000000"
     fill-rule="nonzero"
     fill-opacity="1"
     id="path30" />
  <path
     clip-path="url(#clip590)"
     d="M148.609 968.132 Q148.609 962.219 150.393 957.963 Q152.177 953.681 155.134 951.591 Q157.428 949.934 159.874 949.934 Q163.85 949.934 167.011 953.987 Q170.961 959.008 170.961 967.597 Q170.961 973.611 169.228 977.817 Q167.495 982.022 164.793 983.934 Q162.117 985.82 159.62 985.82 Q154.675 985.82 151.387 979.983 Q148.609 975.064 148.609 968.132 M153.605 968.769 Q153.605 975.905 155.363 980.416 Q156.816 984.214 159.696 984.214 Q161.072 984.214 162.551 982.991 Q164.029 981.742 164.793 978.836 Q165.966 974.452 165.966 966.475 Q165.966 960.562 164.742 956.612 Q163.825 953.681 162.372 952.457 Q161.327 951.616 159.849 951.616 Q158.116 951.616 156.765 953.171 Q154.93 955.286 154.267 959.823 Q153.605 964.36 153.605 968.769 Z"
     fill="#000000"
     fill-rule="nonzero"
     fill-opacity="1"
     id="path31" />
  <path
     clip-path="url(#clip590)"
     d="M170.961 932.472 L177.795 929.138 L178.478 929.138 L178.478 952.848 Q178.478 955.209 178.665 955.789 Q178.872 956.369 179.493 956.679 Q180.114 956.99 182.019 957.031 L182.019 957.797 L171.458 957.797 L171.458 957.031 Q173.446 956.99 174.026 956.7 Q174.606 956.389 174.834 955.892 Q175.061 955.375 175.061 952.848 L175.061 937.69 Q175.061 934.625 174.854 933.756 Q174.709 933.093 174.316 932.782 Q173.943 932.472 173.405 932.472 Q172.639 932.472 171.272 933.114 L170.961 932.472 Z"
     fill="#000000"
     fill-rule="nonzero"
     fill-opacity="1"
     id="path32" />
  <path
     clip-path="url(#clip590)"
     d="M119.266 571.868 L127.677 567.765 L128.518 567.765 L128.518 596.947 Q128.518 599.852 128.747 600.566 Q129.002 601.28 129.767 601.662 Q130.531 602.044 132.876 602.095 L132.876 603.038 L119.878 603.038 L119.878 602.095 Q122.325 602.044 123.038 601.687 Q123.752 601.305 124.032 600.693 Q124.312 600.056 124.312 596.947 L124.312 578.291 Q124.312 574.519 124.058 573.448 Q123.879 572.633 123.395 572.25 Q122.936 571.868 122.274 571.868 Q121.331 571.868 119.648 572.658 L119.266 571.868 Z"
     fill="#000000"
     fill-rule="nonzero"
     fill-opacity="1"
     id="path33" />
  <path
     clip-path="url(#clip590)"
     d="M141.134 585.962 Q141.134 580.049 142.918 575.793 Q144.702 571.511 147.658 569.421 Q149.952 567.765 152.399 567.765 Q156.375 567.765 159.535 571.817 Q163.486 576.838 163.486 585.427 Q163.486 591.442 161.752 595.647 Q160.019 599.852 157.318 601.764 Q154.642 603.65 152.144 603.65 Q147.2 603.65 143.912 597.813 Q141.134 592.895 141.134 585.962 M146.129 586.599 Q146.129 593.736 147.888 598.247 Q149.34 602.044 152.22 602.044 Q153.597 602.044 155.075 600.821 Q156.553 599.572 157.318 596.667 Q158.49 592.283 158.49 584.305 Q158.49 578.393 157.267 574.442 Q156.349 571.511 154.897 570.288 Q153.852 569.447 152.373 569.447 Q150.64 569.447 149.289 571.001 Q147.454 573.117 146.792 577.653 Q146.129 582.19 146.129 586.599 Z"
     fill="#000000"
     fill-rule="nonzero"
     fill-opacity="1"
     id="path34" />
  <path
     clip-path="url(#clip590)"
     d="M182.019 570.223 L180.052 575.628 L163.486 575.628 L163.486 574.862 Q170.796 568.194 173.777 563.969 Q176.759 559.745 176.759 556.245 Q176.759 553.574 175.123 551.855 Q173.488 550.136 171.21 550.136 Q169.139 550.136 167.482 551.358 Q165.846 552.559 165.059 554.899 L164.293 554.899 Q164.811 551.068 166.944 549.018 Q169.097 546.968 172.307 546.968 Q175.724 546.968 178.002 549.163 Q180.3 551.358 180.3 554.34 Q180.3 556.473 179.306 558.606 Q177.774 561.961 174.337 565.709 Q169.18 571.341 167.896 572.501 L175.227 572.501 Q177.463 572.501 178.354 572.335 Q179.265 572.17 179.99 571.673 Q180.715 571.155 181.253 570.223 L182.019 570.223 Z"
     fill="#000000"
     fill-rule="nonzero"
     fill-opacity="1"
     id="path35" />
  <path
     clip-path="url(#clip590)"
     d="M121.834 189.698 L130.245 185.595 L131.086 185.595 L131.086 214.777 Q131.086 217.683 131.315 218.396 Q131.57 219.11 132.334 219.492 Q133.099 219.875 135.444 219.926 L135.444 220.869 L122.446 220.869 L122.446 219.926 Q124.892 219.875 125.606 219.518 Q126.32 219.135 126.6 218.524 Q126.88 217.887 126.88 214.777 L126.88 196.121 Q126.88 192.349 126.625 191.278 Q126.447 190.463 125.963 190.081 Q125.504 189.698 124.841 189.698 Q123.898 189.698 122.216 190.488 L121.834 189.698 Z"
     fill="#000000"
     fill-rule="nonzero"
     fill-opacity="1"
     id="path36" />
  <path
     clip-path="url(#clip590)"
     d="M143.702 203.792 Q143.702 197.88 145.486 193.623 Q147.27 189.341 150.226 187.252 Q152.52 185.595 154.967 185.595 Q158.943 185.595 162.103 189.647 Q166.053 194.668 166.053 203.257 Q166.053 209.272 164.32 213.477 Q162.587 217.683 159.886 219.594 Q157.209 221.48 154.712 221.48 Q149.767 221.48 146.48 215.644 Q143.702 210.725 143.702 203.792 M148.697 204.43 Q148.697 211.566 150.456 216.077 Q151.908 219.875 154.788 219.875 Q156.165 219.875 157.643 218.651 Q159.121 217.402 159.886 214.497 Q161.058 210.113 161.058 202.136 Q161.058 196.223 159.835 192.272 Q158.917 189.341 157.464 188.118 Q156.419 187.277 154.941 187.277 Q153.208 187.277 151.857 188.832 Q150.022 190.947 149.36 195.484 Q148.697 200.02 148.697 204.43 Z"
     fill="#000000"
     fill-rule="nonzero"
     fill-opacity="1"
     id="path37" />
  <path
     clip-path="url(#clip590)"
     d="M166.488 170.721 Q167.689 167.884 169.512 166.351 Q171.355 164.798 174.088 164.798 Q177.463 164.798 179.265 166.993 Q180.632 168.629 180.632 170.493 Q180.632 173.558 176.78 176.83 Q179.369 177.844 180.694 179.729 Q182.019 181.613 182.019 184.16 Q182.019 187.805 179.7 190.476 Q176.677 193.955 170.94 193.955 Q168.103 193.955 167.068 193.251 Q166.053 192.547 166.053 191.739 Q166.053 191.139 166.53 190.683 Q167.027 190.228 167.71 190.228 Q168.228 190.228 168.766 190.393 Q169.118 190.497 170.361 191.16 Q171.603 191.802 172.079 191.926 Q172.846 192.154 173.715 192.154 Q175.828 192.154 177.381 190.518 Q178.954 188.882 178.954 186.645 Q178.954 185.009 178.23 183.456 Q177.691 182.297 177.049 181.696 Q176.159 180.868 174.606 180.205 Q173.053 179.522 171.437 179.522 L170.775 179.522 L170.775 178.9 Q172.411 178.693 174.047 177.72 Q175.703 176.747 176.449 175.38 Q177.194 174.013 177.194 172.377 Q177.194 170.245 175.848 168.94 Q174.523 167.615 172.535 167.615 Q169.325 167.615 167.172 171.052 L166.488 170.721 Z"
     fill="#000000"
     fill-rule="nonzero"
     fill-opacity="1"
     id="path38" />
  <polyline
     clip-path="url(#clip592)"
     style="stroke:#0099b2;stroke-linecap:round;stroke-linejoin:round;stroke-width:4;stroke-opacity:1;fill:none"
     stroke-dasharray="16, 10"
     points="249.28,1176.96 289.923,1146.66 327.326,1118.78 361.967,1092.95 394.226,1068.9 424.41,1046.4 452.769,1025.26 479.513,1005.32 504.814,986.458 528.821,968.56 551.659,951.534 573.438,935.297 594.25,919.781 614.179,904.924 633.296,890.672 651.665,876.977 669.342,863.799 686.377,851.099 702.816,838.844 718.698,827.003 734.061,815.55 748.936,804.46 763.354,793.711 777.343,783.282 790.927,773.155 804.129,763.313 816.969,753.74 829.468,744.422 841.642,735.346 853.509,726.499 865.083,717.871 876.378,709.45 887.408,701.227 898.185,693.192 908.72,685.339 919.023,677.657 929.106,670.141 938.976,662.782 948.643,655.575 958.114,648.514 967.399,641.592 976.503,634.805 985.434,628.147 994.199,621.613 1002.8,615.198 1011.25,608.9 1019.55,602.712 1027.71,596.632 1035.72,590.656 1043.6,584.781 1051.35,579.002 1058.98,573.317 1066.48,567.724 1073.87,562.218 1081.14,556.797 1088.3,551.459 1095.35,546.202 1102.3,541.022 1109.15,535.918 1115.89,530.887 1122.55,525.927 1129.11,521.037 1135.58,516.214 1141.96,511.457 1148.25,506.763 1154.46,502.132 1160.6,497.561 1166.65,493.049 1172.62,488.595 1178.52,484.196 1184.35,479.852 1190.1,475.562 1195.79,471.323 1201.41,467.135 1206.96,462.997 1212.44,458.907 1217.87,454.864 1223.23,450.867 1228.53,446.916 1233.77,443.009 1238.95,439.144 1244.08,435.322 1249.15,431.542 1254.17,427.801 1259.13,424.101 1264.04,420.439 1268.9,416.815 1273.72,413.228 1278.48,409.677 1283.19,406.162 1287.86,402.683 1292.48,399.237 1297.06,395.825 1301.59,392.446 1306.08,389.099 1310.53,385.784 1314.93,382.5 1319.3,379.247 1323.62,376.023 1327.9,372.829 1332.15,369.664 1336.36,366.527 1340.53,363.418 1344.66,360.337 1348.76,357.282 1352.82,354.254 1356.85,351.252 1360.84,348.275 1364.8,345.324 1368.72,342.397 1372.62,339.494 1376.48,336.616 1380.31,333.76 1384.11,330.928 1387.88,328.119 1391.61,325.332 1395.32,322.567 1399,319.824 1402.65,317.102 1406.28,314.401 1409.87,311.721 1413.44,309.061 1416.98,306.421 1420.5,303.801 1423.98,301.2 1427.45,298.619 1430.88,296.056 1434.3,293.513 1437.68,290.987 1441.05,288.48 1444.39,285.99 1447.7,283.518 1450.99,281.064 1454.26,278.626 1457.51,276.205 1460.74,273.801 1463.94,271.414 1467.12,269.042 1470.28,266.687 1473.42,264.347 1476.53,262.023 1479.63,259.714 1482.71,257.42 1485.76,255.141 1488.8,252.877 1491.82,250.628 1494.82,248.393 1497.8,246.172 1500.76,243.965 1503.7,241.772 1506.62,239.592 1509.53,237.426 1512.41,235.274 1515.28,233.134 1518.14,231.008 1520.97,228.894 1523.79,226.793 1526.59,224.705 1529.38,222.629 1532.14,220.565 1534.9,218.514 1537.63,216.474 1540.35,214.446 1543.06,212.43 1545.74,210.425 1548.42,208.432 1551.08,206.45 1553.72,204.479 1556.35,202.52 1558.96,200.571 1561.56,198.633 1564.15,196.705 1566.72,194.789 1569.28,192.882 1571.82,190.986 1574.35,189.1 1576.86,187.225 1579.37,185.359 1581.86,183.503 1584.33,181.657 1586.8,179.821 1589.25,177.994 1591.68,176.177 1594.11,174.369 1596.52,172.571 1598.92,170.781 1601.31,169.001 1603.69,167.23 1606.05,165.467 1608.4,163.714 1610.74,161.969 1613.07,160.233 1615.39,158.505 1617.69,156.786 1619.99,155.076 1622.27,153.373 1624.54,151.679 1626.81,149.993 1629.06,148.316 1631.3,146.646 "
     id="polyline77" />
  <circle
     clip-path="url(#clip592)"
     cx="529.883"
     cy="975.655"
     r="14.4"
     fill="#0099b2"
     fill-rule="evenodd"
     fill-opacity="1"
     stroke="#000000"
     stroke-opacity="1"
     stroke-width="2.8"
     id="circle58" />
  <circle
     clip-path="url(#clip592)"
     cx="588.63"
     cy="934.022"
     r="14.4"
     fill="#0099b2"
     fill-rule="evenodd"
     fill-opacity="1"
     stroke="#000000"
     stroke-opacity="1"
     stroke-width="2.8"
     id="circle59" />
  <circle
     clip-path="url(#clip592)"
     cx="640.836"
     cy="890.895"
     r="14.4"
     fill="#0099b2"
     fill-rule="evenodd"
     fill-opacity="1"
     stroke="#000000"
     stroke-opacity="1"
     stroke-width="2.8"
     id="circle60" />
  <circle
     clip-path="url(#clip592)"
     cx="709.646"
     cy="844.962"
     r="14.4"
     fill="#0099b2"
     fill-rule="evenodd"
     fill-opacity="1"
     stroke="#000000"
     stroke-opacity="1"
     stroke-width="2.8"
     id="circle61" />
  <circle
     clip-path="url(#clip592)"
     cx="750.486"
     cy="818.25"
     r="14.4"
     fill="#0099b2"
     fill-rule="evenodd"
     fill-opacity="1"
     stroke="#000000"
     stroke-opacity="1"
     stroke-width="2.8"
     id="circle62" />
  <circle
     clip-path="url(#clip592)"
     cx="805.77"
     cy="753.53"
     r="14.4"
     fill="#0099b2"
     fill-rule="evenodd"
     fill-opacity="1"
     stroke="#000000"
     stroke-opacity="1"
     stroke-width="2.8"
     id="circle63" />
  <circle
     clip-path="url(#clip592)"
     cx="870.612"
     cy="711.143"
     r="14.4"
     fill="#0099b2"
     fill-rule="evenodd"
     fill-opacity="1"
     stroke="#000000"
     stroke-opacity="1"
     stroke-width="2.8"
     id="circle64" />
  <circle
     clip-path="url(#clip592)"
     cx="927.575"
     cy="672.935"
     r="14.4"
     fill="#0099b2"
     fill-rule="evenodd"
     fill-opacity="1"
     stroke="#000000"
     stroke-opacity="1"
     stroke-width="2.8"
     id="circle65" />
  <circle
     clip-path="url(#clip592)"
     cx="990.25"
     cy="611.071"
     r="14.4"
     fill="#0099b2"
     fill-rule="evenodd"
     fill-opacity="1"
     stroke="#000000"
     stroke-opacity="1"
     stroke-width="2.8"
     id="circle66" />
  <circle
     clip-path="url(#clip592)"
     cx="1045.53"
     cy="535.055"
     r="14.4"
     fill="#0099b2"
     fill-rule="evenodd"
     fill-opacity="1"
     stroke="#000000"
     stroke-opacity="1"
     stroke-width="2.8"
     id="circle67" />
  <circle
     clip-path="url(#clip592)"
     cx="1094.99"
     cy="561.965"
     r="14.4"
     fill="#0099b2"
     fill-rule="evenodd"
     fill-opacity="1"
     stroke="#000000"
     stroke-opacity="1"
     stroke-width="2.8"
     id="circle68" />
  <circle
     clip-path="url(#clip592)"
     cx="1156.49"
     cy="484.978"
     r="14.4"
     fill="#0099b2"
     fill-rule="evenodd"
     fill-opacity="1"
     stroke="#000000"
     stroke-opacity="1"
     stroke-width="2.8"
     id="circle69" />
  <circle
     clip-path="url(#clip592)"
     cx="1210.85"
     cy="467.297"
     r="14.4"
     fill="#0099b2"
     fill-rule="evenodd"
     fill-opacity="1"
     stroke="#000000"
     stroke-opacity="1"
     stroke-width="2.8"
     id="circle70" />
  <circle
     clip-path="url(#clip592)"
     cx="1266.14"
     cy="400.798"
     r="14.4"
     fill="#0099b2"
     fill-rule="evenodd"
     fill-opacity="1"
     stroke="#000000"
     stroke-opacity="1"
     stroke-width="2.8"
     id="circle71" />
  <circle
     clip-path="url(#clip592)"
     cx="1327.18"
     cy="317.488"
     r="14.4"
     fill="#0099b2"
     fill-rule="evenodd"
     fill-opacity="1"
     stroke="#000000"
     stroke-opacity="1"
     stroke-width="2.8"
     id="circle72" />
  <circle
     clip-path="url(#clip592)"
     cx="1381.19"
     cy="365.279"
     r="14.4"
     fill="#0099b2"
     fill-rule="evenodd"
     fill-opacity="1"
     stroke="#000000"
     stroke-opacity="1"
     stroke-width="2.8"
     id="circle73" />
  <circle
     clip-path="url(#clip592)"
     cx="1438.73"
     cy="306.759"
     r="14.4"
     fill="#0099b2"
     fill-rule="evenodd"
     fill-opacity="1"
     stroke="#000000"
     stroke-opacity="1"
     stroke-width="2.8"
     id="circle74" />
  <circle
     clip-path="url(#clip592)"
     cx="1498.01"
     cy="286.261"
     r="14.4"
     fill="#0099b2"
     fill-rule="evenodd"
     fill-opacity="1"
     stroke="#000000"
     stroke-opacity="1"
     stroke-width="2.8"
     id="circle75" />
  <circle
     clip-path="url(#clip592)"
     cx="1554.18"
     cy="194.686"
     r="14.4"
     fill="#0099b2"
     fill-rule="evenodd"
     fill-opacity="1"
     stroke="#000000"
     stroke-opacity="1"
     stroke-width="2.8"
     id="circle76" />
  <circle
     clip-path="url(#clip592)"
     cx="1610.64"
     cy="170.782"
     r="14.4"
     fill="#0099b2"
     fill-rule="evenodd"
     fill-opacity="1"
     stroke="#000000"
     stroke-opacity="1"
     stroke-width="2.8"
     id="circle77" />
  <g
     data-mml-node="msubsup"
     data-latex="\tau^{|m|}_\text{int}"
     data-semantic-type="subsup"
     data-semantic-role="greekletter"
     data-semantic-annotation="depth:1"
     data-semantic-id="7"
     data-semantic-children="0,1,5"
     data-semantic-attributes="latex:\tau^{|m|}_\text{int}"
     data-semantic-collapsed="(7 (6 0 1) 5)"
     data-semantic-owns="0 1 5"
     aria-level="0"
     data-speech-node="true"
     id="g8"
     transform="matrix(0,-0.04543512,-0.04543512,0,92.19076,669.39783)"
     style="fill:#000000;stroke:#000000;stroke-width:0">
    <g
       data-mml-node="mi"
       data-latex="\tau"
       data-semantic-type="identifier"
       data-semantic-role="greekletter"
       data-semantic-font="italic"
       data-semantic-annotation="clearspeak:simple;nemeth:number;depth:3"
       data-semantic-id="0"
       data-semantic-parent="7"
       data-semantic-attributes="latex:\tau"
       aria-level="2"
       data-speech-node="true"
       id="g1">
      <path
         id="use1"
         d="M 468,431 H 192 C 139,431 91,397 47,330 34,310 27,297 27,292 c 3,-8 4,-13 16,-13 7,0 13,4 19,13 32,49 72,74 121,74 h 77 L 165,56 c -7,-22 -10,-35 -10,-38 0,-20 11,-30 32,-30 11,0 21,3 27,9 13,12 14,15 18,36 l 65,333 h 162 c 35,0 52,12 52,37 0,23 -18,28 -43,28 z" />
    </g>
    <g
       data-mml-node="TeXAtom"
       transform="matrix(0.707,0,0,0.707,597.7,530.4)"
       data-mjx-texclass="ORD"
       data-latex="{|m|}"
       data-semantic-type="fenced"
       data-semantic-role="neutral"
       data-semantic-annotation="depth:2"
       data-semantic-id="5"
       data-semantic-children="3"
       data-semantic-content="2,4"
       data-semantic-parent="7"
       data-semantic-attributes="latex:{|m|};texclass:ORD"
       data-semantic-owns="2 3 4"
       aria-level="1"
       data-speech-node="true"
       id="g5">
      <g
         data-mml-node="mo"
         data-mjx-texclass="ORD"
         data-latex="|"
         data-semantic-type="fence"
         data-semantic-role="neutral"
         data-semantic-annotation="depth:3"
         data-semantic-id="2"
         data-semantic-parent="5"
         data-semantic-attributes="latex:|;texclass:ORD"
         data-semantic-operator="fenced"
         aria-level="2"
         data-speech-node="true"
         id="g2">
        <path
           id="use2"
           d="m 139,-250 c 13,0 20,8 20,24 v 952 c 0,16 -7,24 -20,24 -13,0 -20,-8 -20,-24 v -952 c 0,-16 7,-24 20,-24 z" />
      </g>
      <g
         data-mml-node="mi"
         data-latex="m"
         data-semantic-type="identifier"
         data-semantic-role="latinletter"
         data-semantic-font="italic"
         data-semantic-annotation="clearspeak:simple;depth:3"
         data-semantic-id="3"
         data-semantic-parent="5"
         data-semantic-attributes="latex:m"
         aria-level="2"
         data-speech-node="true"
         transform="translate(278)"
         id="g3">
        <path
           id="use3"
           d="m 657,442 c -61,0 -114,-30 -159,-89 -9,59 -47,89 -115,89 -59,0 -110,-26 -152,-79 -8,44 -43,79 -94,79 -41,0 -71,-33 -92,-98 -11,-32 -16,-51 -16,-57 0,-9 5,-14 16,-14 5,0 8,1 11,3 5,9 8,16 10,23 18,76 41,114 68,114 18,0 27,-14 27,-42 0,-13 -5,-40 -16,-81 L 88,63 C 84,51 79,25 79,19 c 0,-20 11,-30 32,-30 20,0 34,10 41,30 1,5 8,30 19,73 l 21,89 30,114 c 11,23 28,46 50,70 29,32 65,48 108,48 33,0 49,-22 49,-65 0,-13 -5,-40 -15,-81 L 387,153 c -7,-29 -23,-89 -31,-121 -1,-7 -2,-11 -2,-13 0,-20 11,-30 33,-30 11,0 19,3 26,10 15,15 16,22 22,49 l 59,237 c 3,13 17,36 41,68 30,40 70,60 119,60 33,0 49,-22 49,-65 0,-39 -20,-112 -61,-219 -9,-23 -13,-42 -13,-55 0,-49 37,-85 85,-85 45,0 79,25 104,75 20,40 30,67 30,80 0,9 -5,14 -16,14 -7,-1 -14,-10 -19,-21 C 791,58 759,18 716,18 c -13,0 -20,10 -20,29 0,15 6,37 18,68 41,107 61,180 61,218 0,71 -47,109 -118,109 z" />
      </g>
      <g
         data-mml-node="mo"
         data-mjx-texclass="ORD"
         data-latex="|"
         data-semantic-type="fence"
         data-semantic-role="neutral"
         data-semantic-annotation="depth:3"
         data-semantic-id="4"
         data-semantic-parent="5"
         data-semantic-attributes="latex:|;texclass:ORD"
         data-semantic-operator="fenced"
         aria-level="2"
         data-speech-node="true"
         transform="translate(1156)"
         id="g4">
        <path
           id="use4"
           d="m 139,-250 c 13,0 20,8 20,24 v 952 c 0,16 -7,24 -20,24 -13,0 -20,-8 -20,-24 v -952 c 0,-16 7,-24 20,-24 z" />
      </g>
    </g>
    <g
       data-mml-node="mtext"
       transform="matrix(0.707,0,0,0.707,470,-291)"
       data-latex="{int}"
       data-semantic-type="text"
       data-semantic-role="unknown"
       data-semantic-font="normal"
       data-semantic-annotation="clearspeak:unit;depth:3"
       data-semantic-id="1"
       data-semantic-parent="7"
       data-semantic-attributes="latex:{int}"
       aria-level="2"
       data-speech-node="true"
       id="g7">
      <path
         id="use5"
         d="m 194,601 c 0,30 -25,56 -55,56 -30,0 -56,-26 -56,-56 0,-30 25,-57 55,-57 31,0 56,26 56,57 M 143,3 247,0 v 39 c -33,0 -53,2 -59,6 -6,4 -8,15 -8,33 V 445 L 37,433 v -38 c 33,0 54,-3 61,-8 7,-5 10,-19 10,-42 V 79 C 108,60 105,48 98,44 91,40 69,39 33,39 V 0 Z" />
      <path
         id="use6"
         d="m 592,413 c 45,0 68,-35 68,-106 V 79 c 0,-19 -3,-31 -10,-35 -7,-4 -29,-6 -66,-6 V 0 L 699,3 813,0 v 38 c -32,0 -53,1 -63,4 -10,3 -14,10 -14,22 v 187 c 0,47 -1,80 -4,99 -10,61 -55,92 -134,92 -63,0 -110,-30 -141,-90 v 90 L 310,431 v -38 c 36,0 58,-3 66,-9 8,-6 11,-19 11,-42 V 79 c 0,-19 -4,-31 -11,-35 -7,-4 -29,-6 -66,-6 V 0 L 425,3 539,0 v 38 c -37,0 -58,2 -65,6 -7,4 -11,16 -11,35 v 180 c 0,81 51,154 129,154 z" />
      <path
         id="use7"
         d="m 1166,126 v 60 h -32 v -58 c 0,-50 -18,-106 -62,-106 -41,0 -61,34 -61,102 v 271 h 139 v 38 H 1011 V 615 H 979 C 978,582 975,553 968,527 951,461 912,427 853,424 v -29 h 83 V 126 c 0,-59 18,-97 53,-116 27,-14 52,-21 77,-21 66,0 100,66 100,137 z" />
    </g>
  </g>
</svg>
