<?xml version="1.0" encoding="UTF-8" standalone="no"?>
<svg
   width="430"
   height="350"
   viewBox="0 0 1720 1400"
   version="1.1"
   id="svg83"
   sodipodi:docname="tau_exp_metropolis_hex.svg"
   inkscape:version="1.4.2 (ebf0e940, 2025-05-08)"
   xmlns:inkscape="http://www.inkscape.org/namespaces/inkscape"
   xmlns:sodipodi="http://sodipodi.sourceforge.net/DTD/sodipodi-0.dtd"
   xmlns="http://www.w3.org/2000/svg"
   xmlns:svg="http://www.w3.org/2000/svg">
  <sodipodi:namedview
     id="namedview83"
     pagecolor="#ffffff"
     bordercolor="#000000"
     borderopacity="0.25"
     inkscape:showpageshadow="2"
     inkscape:pageopacity="0.0"
     inkscape:pagecheckerboard="0"
     inkscape:deskcolor="#d1d1d1"
     showgrid="false"
     inkscape:zoom="2.2071035"
     inkscape:cx="126.8631"
     inkscape:cy="238.3214"
     inkscape:window-width="1728"
     inkscape:window-height="1055"
     inkscape:window-x="0"
     inkscape:window-y="34"
     inkscape:window-maximized="1"
     inkscape:current-layer="svg83" />
  <defs
     id="defs1">
    <clipPath
       id="clip440">
      <rect
         x="0"
         y="0"
         width="1720"
         height="1400"
         id="rect1" />
    </clipPath>
  </defs>
  <path
     clip-path="url(#clip440)"
     d="M0 1400 L1720 1400 L1720 -4.44089e-15 L0 -4.44089e-15  Z"
     fill="#ffffff"
     fill-rule="evenodd"
     fill-opacity="1"
     id="path1" />
  <defs
     id="defs2">
    <clipPath
       id="clip441">
      <rect
         x="344"
         y="0"
         width="1205"
         height="1205"
         id="rect2" />
    </clipPath>
  </defs>
  <path
     clip-path="url(#clip440)"
     d="M200.889 1207.87 L1672.76 1207.87 L1672.76 115.736 L200.889 115.736  Z"
     fill="#ffffff"
     fill-rule="evenodd"
     fill-opacity="1"
     id="path2" />
  <defs
     id="defs3">
    <clipPath
       id="clip442">
      <rect
         x="200"
         y="115"
         width="1473"
         height="1093"
         id="rect3" />
    </clipPath>
  </defs>
  <polyline
     clip-path="url(#clip442)"
     style="stroke:#000000; stroke-linecap:round; stroke-linejoin:round; stroke-width:2; stroke-opacity:0.1; fill:none"
     points="549.32,1207.87 549.32,115.736 "
     id="polyline3" />
  <polyline
     clip-path="url(#clip442)"
     style="stroke:#000000; stroke-linecap:round; stroke-linejoin:round; stroke-width:2; stroke-opacity:0.1; fill:none"
     points="1092.25,1207.87 1092.25,115.736 "
     id="polyline4" />
  <polyline
     clip-path="url(#clip442)"
     style="stroke:#000000; stroke-linecap:round; stroke-linejoin:round; stroke-width:2; stroke-opacity:0.1; fill:none"
     points="1635.18,1207.87 1635.18,115.736 "
     id="polyline5" />
  <polyline
     clip-path="url(#clip442)"
     style="stroke:#000000; stroke-linecap:round; stroke-linejoin:round; stroke-width:2; stroke-opacity:0.1; fill:none"
     points="200.889,1201.21 1672.76,1201.21 "
     id="polyline6" />
  <polyline
     clip-path="url(#clip442)"
     style="stroke:#000000; stroke-linecap:round; stroke-linejoin:round; stroke-width:2; stroke-opacity:0.1; fill:none"
     points="200.889,825.622 1672.76,825.622 "
     id="polyline7" />
  <polyline
     clip-path="url(#clip442)"
     style="stroke:#000000; stroke-linecap:round; stroke-linejoin:round; stroke-width:2; stroke-opacity:0.1; fill:none"
     points="200.889,450.037 1672.76,450.037 "
     id="polyline8" />
  <polyline
     clip-path="url(#clip440)"
     style="stroke:#000000; stroke-linecap:round; stroke-linejoin:round; stroke-width:4; stroke-opacity:1; fill:none"
     points="200.889,1207.87 1672.76,1207.87 "
     id="polyline9" />
  <polyline
     clip-path="url(#clip440)"
     style="stroke:#000000; stroke-linecap:round; stroke-linejoin:round; stroke-width:4; stroke-opacity:1; fill:none"
     points="549.32,1207.87 549.32,1188.97 "
     id="polyline10" />
  <polyline
     clip-path="url(#clip440)"
     style="stroke:#000000; stroke-linecap:round; stroke-linejoin:round; stroke-width:4; stroke-opacity:1; fill:none"
     points="1092.25,1207.87 1092.25,1188.97 "
     id="polyline11" />
  <polyline
     clip-path="url(#clip440)"
     style="stroke:#000000; stroke-linecap:round; stroke-linejoin:round; stroke-width:4; stroke-opacity:1; fill:none"
     points="1635.18,1207.87 1635.18,1188.97 "
     id="polyline12" />
  <path
     clip-path="url(#clip440)"
     d="M504.586 1249.32 L512.997 1245.22 L513.838 1245.22 L513.838 1274.4 Q513.838 1277.31 514.067 1278.02 Q514.322 1278.73 515.087 1279.12 Q515.852 1279.5 518.196 1279.55 L518.196 1280.49 L505.198 1280.49 L505.198 1279.55 Q507.645 1279.5 508.358 1279.14 Q509.072 1278.76 509.352 1278.15 Q509.633 1277.51 509.633 1274.4 L509.633 1255.74 Q509.633 1251.97 509.378 1250.9 Q509.199 1250.09 508.715 1249.7 Q508.256 1249.32 507.594 1249.32 Q506.651 1249.32 504.969 1250.11 L504.586 1249.32 Z"
     fill="#000000"
     fill-rule="nonzero"
     fill-opacity="1"
     id="path12" />
  <path
     clip-path="url(#clip440)"
     d="M526.454 1263.42 Q526.454 1257.5 528.238 1253.25 Q530.022 1248.97 532.979 1246.88 Q535.272 1245.22 537.719 1245.22 Q541.695 1245.22 544.855 1249.27 Q548.806 1254.29 548.806 1262.88 Q548.806 1268.9 547.073 1273.1 Q545.34 1277.31 542.638 1279.22 Q539.962 1281.1 537.464 1281.1 Q532.52 1281.1 529.232 1275.27 Q526.454 1270.35 526.454 1263.42 M531.449 1264.05 Q531.449 1271.19 533.208 1275.7 Q534.661 1279.5 537.541 1279.5 Q538.917 1279.5 540.395 1278.27 Q541.873 1277.03 542.638 1274.12 Q543.81 1269.74 543.81 1261.76 Q543.81 1255.85 542.587 1251.9 Q541.67 1248.97 540.217 1247.74 Q539.172 1246.9 537.694 1246.9 Q535.961 1246.9 534.61 1248.46 Q532.775 1250.57 532.112 1255.11 Q531.449 1259.64 531.449 1264.05 Z"
     fill="#000000"
     fill-rule="nonzero"
     fill-opacity="1"
     id="path13" />
  <path
     clip-path="url(#clip440)"
     d="M548.806 1227.76 L555.639 1224.42 L556.323 1224.42 L556.323 1248.13 Q556.323 1250.49 556.509 1251.07 Q556.716 1251.65 557.338 1251.96 Q557.959 1252.27 559.864 1252.32 L559.864 1253.08 L549.303 1253.08 L549.303 1252.32 Q551.291 1252.27 551.871 1251.98 Q552.45 1251.67 552.678 1251.18 Q552.906 1250.66 552.906 1248.13 L552.906 1232.97 Q552.906 1229.91 552.699 1229.04 Q552.554 1228.38 552.161 1228.07 Q551.788 1227.76 551.249 1227.76 Q550.483 1227.76 549.116 1228.4 L548.806 1227.76 Z"
     fill="#000000"
     fill-rule="nonzero"
     fill-opacity="1"
     id="path14" />
  <path
     clip-path="url(#clip440)"
     d="M570.342 1249.06 Q571.315 1249.06 571.978 1249.75 Q572.641 1250.41 572.641 1251.36 Q572.641 1252.32 571.957 1253 Q571.295 1253.66 570.342 1253.66 Q569.39 1253.66 568.706 1253 Q568.044 1252.32 568.044 1251.36 Q568.044 1250.39 568.706 1249.73 Q569.39 1249.06 570.342 1249.06 Z"
     fill="#000000"
     fill-rule="nonzero"
     fill-opacity="1"
     id="path15" />
  <path
     clip-path="url(#clip440)"
     d="M594.053 1225 L592.438 1228.52 L583.989 1228.52 L582.146 1232.29 Q587.633 1233.1 590.843 1236.37 Q593.597 1239.19 593.597 1243 Q593.597 1245.21 592.686 1247.1 Q591.796 1248.98 590.429 1250.31 Q589.062 1251.63 587.385 1252.44 Q585.003 1253.58 582.498 1253.58 Q579.971 1253.58 578.812 1252.73 Q577.673 1251.86 577.673 1250.82 Q577.673 1250.24 578.149 1249.81 Q578.625 1249.35 579.35 1249.35 Q579.889 1249.35 580.282 1249.52 Q580.696 1249.69 581.669 1250.37 Q583.223 1251.45 584.817 1251.45 Q587.24 1251.45 589.062 1249.62 Q590.905 1247.78 590.905 1245.15 Q590.905 1242.6 589.269 1240.41 Q587.633 1238.19 584.755 1236.99 Q582.498 1236.06 578.605 1235.91 L583.989 1225 L594.053 1225 Z"
     fill="#000000"
     fill-rule="nonzero"
     fill-opacity="1"
     id="path16" />
  <path
     clip-path="url(#clip440)"
     d="M1044.85 1249.32 L1053.26 1245.22 L1054.1 1245.22 L1054.1 1274.4 Q1054.1 1277.31 1054.33 1278.02 Q1054.58 1278.73 1055.35 1279.12 Q1056.11 1279.5 1058.46 1279.55 L1058.46 1280.49 L1045.46 1280.49 L1045.46 1279.55 Q1047.91 1279.5 1048.62 1279.14 Q1049.33 1278.76 1049.61 1278.15 Q1049.89 1277.51 1049.89 1274.4 L1049.89 1255.74 Q1049.89 1251.97 1049.64 1250.9 Q1049.46 1250.09 1048.98 1249.7 Q1048.52 1249.32 1047.86 1249.32 Q1046.91 1249.32 1045.23 1250.11 L1044.85 1249.32 Z"
     fill="#000000"
     fill-rule="nonzero"
     fill-opacity="1"
     id="path17" />
  <path
     clip-path="url(#clip440)"
     d="M1066.72 1263.42 Q1066.72 1257.5 1068.5 1253.25 Q1070.28 1248.97 1073.24 1246.88 Q1075.53 1245.22 1077.98 1245.22 Q1081.96 1245.22 1085.12 1249.27 Q1089.07 1254.29 1089.07 1262.88 Q1089.07 1268.9 1087.33 1273.1 Q1085.6 1277.31 1082.9 1279.22 Q1080.22 1281.1 1077.73 1281.1 Q1072.78 1281.1 1069.49 1275.27 Q1066.72 1270.35 1066.72 1263.42 M1071.71 1264.05 Q1071.71 1271.19 1073.47 1275.7 Q1074.92 1279.5 1077.8 1279.5 Q1079.18 1279.5 1080.66 1278.27 Q1082.13 1277.03 1082.9 1274.12 Q1084.07 1269.74 1084.07 1261.76 Q1084.07 1255.85 1082.85 1251.9 Q1081.93 1248.97 1080.48 1247.74 Q1079.43 1246.9 1077.95 1246.9 Q1076.22 1246.9 1074.87 1248.46 Q1073.04 1250.57 1072.37 1255.11 Q1071.71 1259.64 1071.71 1264.05 Z"
     fill="#000000"
     fill-rule="nonzero"
     fill-opacity="1"
     id="path18" />
  <path
     clip-path="url(#clip440)"
     d="M1107.6 1247.68 L1105.63 1253.08 L1089.07 1253.08 L1089.07 1252.32 Q1096.38 1245.65 1099.36 1241.42 Q1102.34 1237.2 1102.34 1233.7 Q1102.34 1231.03 1100.71 1229.31 Q1099.07 1227.59 1096.79 1227.59 Q1094.72 1227.59 1093.06 1228.81 Q1091.43 1230.01 1090.64 1232.35 L1089.87 1232.35 Q1090.39 1228.52 1092.53 1226.47 Q1094.68 1224.42 1097.89 1224.42 Q1101.31 1224.42 1103.58 1226.62 Q1105.88 1228.81 1105.88 1231.79 Q1105.88 1233.93 1104.89 1236.06 Q1103.36 1239.41 1099.92 1243.16 Q1094.76 1248.8 1093.48 1249.95 L1100.81 1249.95 Q1103.05 1249.95 1103.94 1249.79 Q1104.85 1249.62 1105.57 1249.13 Q1106.3 1248.61 1106.83 1247.68 L1107.6 1247.68 Z"
     fill="#000000"
     fill-rule="nonzero"
     fill-opacity="1"
     id="path19" />
  <path
     clip-path="url(#clip440)"
     d="M1114.66 1249.06 Q1115.64 1249.06 1116.3 1249.75 Q1116.96 1250.41 1116.96 1251.36 Q1116.96 1252.32 1116.28 1253 Q1115.61 1253.66 1114.66 1253.66 Q1113.71 1253.66 1113.03 1253 Q1112.36 1252.32 1112.36 1251.36 Q1112.36 1250.39 1113.03 1249.73 Q1113.71 1249.06 1114.66 1249.06 Z"
     fill="#000000"
     fill-rule="nonzero"
     fill-opacity="1"
     id="path20" />
  <path
     clip-path="url(#clip440)"
     d="M1121.5 1239.21 Q1121.5 1234.4 1122.95 1230.95 Q1124.39 1227.47 1126.8 1225.77 Q1128.66 1224.42 1130.65 1224.42 Q1133.88 1224.42 1136.45 1227.71 Q1139.66 1231.79 1139.66 1238.77 Q1139.66 1243.66 1138.25 1247.08 Q1136.84 1250.49 1134.65 1252.05 Q1132.47 1253.58 1130.44 1253.58 Q1126.42 1253.58 1123.75 1248.84 Q1121.5 1244.84 1121.5 1239.21 M1125.55 1239.73 Q1125.55 1245.52 1126.98 1249.19 Q1128.16 1252.27 1130.5 1252.27 Q1131.62 1252.27 1132.82 1251.28 Q1134.02 1250.27 1134.65 1247.9 Q1135.6 1244.34 1135.6 1237.86 Q1135.6 1233.06 1134.6 1229.85 Q1133.86 1227.47 1132.68 1226.47 Q1131.83 1225.79 1130.63 1225.79 Q1129.22 1225.79 1128.12 1227.05 Q1126.63 1228.77 1126.09 1232.46 Q1125.55 1236.14 1125.55 1239.73 Z"
     fill="#000000"
     fill-rule="nonzero"
     fill-opacity="1"
     id="path21" />
  <path
     clip-path="url(#clip440)"
     d="M1588.42 1249.32 L1596.83 1245.22 L1597.67 1245.22 L1597.67 1274.4 Q1597.67 1277.31 1597.9 1278.02 Q1598.16 1278.73 1598.92 1279.12 Q1599.69 1279.5 1602.03 1279.55 L1602.03 1280.49 L1589.03 1280.49 L1589.03 1279.55 Q1591.48 1279.5 1592.19 1279.14 Q1592.91 1278.76 1593.19 1278.15 Q1593.47 1277.51 1593.47 1274.4 L1593.47 1255.74 Q1593.47 1251.97 1593.21 1250.9 Q1593.04 1250.09 1592.55 1249.7 Q1592.09 1249.32 1591.43 1249.32 Q1590.49 1249.32 1588.8 1250.11 L1588.42 1249.32 Z"
     fill="#000000"
     fill-rule="nonzero"
     fill-opacity="1"
     id="path22" />
  <path
     clip-path="url(#clip440)"
     d="M1610.29 1263.42 Q1610.29 1257.5 1612.07 1253.25 Q1613.86 1248.97 1616.81 1246.88 Q1619.11 1245.22 1621.55 1245.22 Q1625.53 1245.22 1628.69 1249.27 Q1632.64 1254.29 1632.64 1262.88 Q1632.64 1268.9 1630.91 1273.1 Q1629.18 1277.31 1626.47 1279.22 Q1623.8 1281.1 1621.3 1281.1 Q1616.36 1281.1 1613.07 1275.27 Q1610.29 1270.35 1610.29 1263.42 M1615.29 1264.05 Q1615.29 1271.19 1617.04 1275.7 Q1618.5 1279.5 1621.38 1279.5 Q1622.75 1279.5 1624.23 1278.27 Q1625.71 1277.03 1626.47 1274.12 Q1627.65 1269.74 1627.65 1261.76 Q1627.65 1255.85 1626.42 1251.9 Q1625.51 1248.97 1624.05 1247.74 Q1623.01 1246.9 1621.53 1246.9 Q1619.8 1246.9 1618.45 1248.46 Q1616.61 1250.57 1615.95 1255.11 Q1615.29 1259.64 1615.29 1264.05 Z"
     fill="#000000"
     fill-rule="nonzero"
     fill-opacity="1"
     id="path23" />
  <path
     clip-path="url(#clip440)"
     d="M1651.18 1247.68 L1649.21 1253.08 L1632.64 1253.08 L1632.64 1252.32 Q1639.95 1245.65 1642.93 1241.42 Q1645.92 1237.2 1645.92 1233.7 Q1645.92 1231.03 1644.28 1229.31 Q1642.64 1227.59 1640.37 1227.59 Q1638.29 1227.59 1636.64 1228.81 Q1635 1230.01 1634.22 1232.35 L1633.45 1232.35 Q1633.97 1228.52 1636.1 1226.47 Q1638.25 1224.42 1641.46 1224.42 Q1644.88 1224.42 1647.16 1226.62 Q1649.46 1228.81 1649.46 1231.79 Q1649.46 1233.93 1648.46 1236.06 Q1646.93 1239.41 1643.49 1243.16 Q1638.34 1248.8 1637.05 1249.95 L1644.38 1249.95 Q1646.62 1249.95 1647.51 1249.79 Q1648.42 1249.62 1649.15 1249.13 Q1649.87 1248.61 1650.41 1247.68 L1651.18 1247.68 Z"
     fill="#000000"
     fill-rule="nonzero"
     fill-opacity="1"
     id="path24" />
  <path
     clip-path="url(#clip440)"
     d="M1658.24 1249.06 Q1659.21 1249.06 1659.87 1249.75 Q1660.54 1250.41 1660.54 1251.36 Q1660.54 1252.32 1659.85 1253 Q1659.19 1253.66 1658.24 1253.66 Q1657.28 1253.66 1656.6 1253 Q1655.94 1252.32 1655.94 1251.36 Q1655.94 1250.39 1656.6 1249.73 Q1657.28 1249.06 1658.24 1249.06 Z"
     fill="#000000"
     fill-rule="nonzero"
     fill-opacity="1"
     id="path25" />
  <path
     clip-path="url(#clip440)"
     d="M1681.95 1225 L1680.33 1228.52 L1671.88 1228.52 L1670.04 1232.29 Q1675.53 1233.1 1678.74 1236.37 Q1681.49 1239.19 1681.49 1243 Q1681.49 1245.21 1680.58 1247.1 Q1679.69 1248.98 1678.32 1250.31 Q1676.96 1251.63 1675.28 1252.44 Q1672.9 1253.58 1670.39 1253.58 Q1667.87 1253.58 1666.71 1252.73 Q1665.57 1251.86 1665.57 1250.82 Q1665.57 1250.24 1666.04 1249.81 Q1666.52 1249.35 1667.24 1249.35 Q1667.78 1249.35 1668.18 1249.52 Q1668.59 1249.69 1669.56 1250.37 Q1671.12 1251.45 1672.71 1251.45 Q1675.13 1251.45 1676.96 1249.62 Q1678.8 1247.78 1678.8 1245.15 Q1678.8 1242.6 1677.16 1240.41 Q1675.53 1238.19 1672.65 1236.99 Q1670.39 1236.06 1666.5 1235.91 L1671.88 1225 L1681.95 1225 Z"
     fill="#000000"
     fill-rule="nonzero"
     fill-opacity="1"
     id="path26" />
  <path
     clip-path="url(#clip440)"
     d="M949.626 1329.05 Q949.626 1329.19 949.438 1329.73 L945.644 1340.08 Q945.433 1340.69 945.222 1340.81 Q945.011 1340.9 944.145 1340.9 L921.94 1340.9 Q921.402 1340.9 921.191 1340.88 Q920.98 1340.85 920.816 1340.73 Q920.652 1340.62 920.652 1340.36 Q920.652 1339.89 920.816 1339.68 Q921.003 1339.47 921.214 1339.45 Q921.425 1339.42 921.94 1339.42 Q923.111 1339.42 923.814 1339.35 Q924.517 1339.28 924.962 1339.19 Q925.43 1339.07 925.665 1338.74 Q925.922 1338.42 926.039 1338.13 Q926.156 1337.83 926.32 1337.15 L932.738 1311.39 Q932.926 1310.61 932.926 1310.5 Q932.926 1310.05 932.644 1309.93 Q932.387 1309.79 931.637 1309.72 L929.81 1309.63 Q929.248 1309.63 929.014 1309.61 Q928.803 1309.58 928.639 1309.47 Q928.475 1309.35 928.475 1309.09 Q928.475 1308.65 928.639 1308.44 Q928.827 1308.2 928.967 1308.18 Q929.131 1308.13 929.389 1308.13 L935.76 1308.27 L942.857 1308.13 Q943.63 1308.13 943.63 1308.72 Q943.63 1309.37 943.302 1309.51 Q942.974 1309.63 941.803 1309.63 Q939.554 1309.63 938.523 1309.86 Q937.516 1310.1 937.235 1310.5 Q936.978 1310.87 936.72 1311.88 L930.232 1337.78 Q929.998 1338.65 929.998 1338.88 Q929.998 1339.14 930.115 1339.24 Q930.255 1339.31 930.63 1339.35 Q931.052 1339.42 931.684 1339.42 L936.181 1339.42 Q937.54 1339.42 938.734 1339.21 Q939.929 1339 940.842 1338.7 Q941.779 1338.39 942.622 1337.83 Q943.466 1337.27 944.051 1336.78 Q944.66 1336.26 945.246 1335.46 Q945.855 1334.65 946.206 1334.08 Q946.581 1333.5 947.002 1332.56 Q947.424 1331.6 947.635 1331.06 Q947.869 1330.5 948.22 1329.54 Q948.431 1329.05 948.501 1328.91 Q948.572 1328.77 948.689 1328.65 Q948.829 1328.53 949.04 1328.53 Q949.321 1328.53 949.462 1328.7 Q949.626 1328.86 949.626 1329.05 Z"
     fill="#000000"
     fill-rule="nonzero"
     fill-opacity="1"
     id="path27" />
  <polyline
     clip-path="url(#clip440)"
     style="stroke:#000000; stroke-linecap:round; stroke-linejoin:round; stroke-width:4; stroke-opacity:1; fill:none"
     points="200.889,1207.87 200.889,115.736 "
     id="polyline27" />
  <polyline
     clip-path="url(#clip440)"
     style="stroke:#000000; stroke-linecap:round; stroke-linejoin:round; stroke-width:4; stroke-opacity:1; fill:none"
     points="200.889,1201.21 219.786,1201.21 "
     id="polyline28" />
  <polyline
     clip-path="url(#clip440)"
     style="stroke:#000000; stroke-linecap:round; stroke-linejoin:round; stroke-width:4; stroke-opacity:1; fill:none"
     points="200.889,825.622 219.786,825.622 "
     id="polyline29" />
  <polyline
     clip-path="url(#clip440)"
     style="stroke:#000000; stroke-linecap:round; stroke-linejoin:round; stroke-width:4; stroke-opacity:1; fill:none"
     points="200.889,450.037 219.786,450.037 "
     id="polyline30" />
  <path
     clip-path="url(#clip440)"
     d="M119.811 1193.76 L128.222 1189.66 L129.063 1189.66 L129.063 1218.84 Q129.063 1221.75 129.292 1222.46 Q129.547 1223.18 130.312 1223.56 Q131.076 1223.94 133.421 1223.99 L133.421 1224.93 L120.423 1224.93 L120.423 1223.99 Q122.869 1223.94 123.583 1223.58 Q124.297 1223.2 124.577 1222.59 Q124.857 1221.95 124.857 1218.84 L124.857 1200.19 Q124.857 1196.42 124.603 1195.34 Q124.424 1194.53 123.94 1194.15 Q123.481 1193.76 122.819 1193.76 Q121.876 1193.76 120.193 1194.55 L119.811 1193.76 Z"
     fill="#000000"
     fill-rule="nonzero"
     fill-opacity="1"
     id="path30" />
  <path
     clip-path="url(#clip440)"
     d="M141.679 1207.86 Q141.679 1201.95 143.463 1197.69 Q145.247 1193.41 148.203 1191.32 Q150.497 1189.66 152.944 1189.66 Q156.92 1189.66 160.08 1193.71 Q164.031 1198.73 164.031 1207.32 Q164.031 1213.34 162.297 1217.54 Q160.564 1221.75 157.863 1223.66 Q155.187 1225.55 152.689 1225.55 Q147.745 1225.55 144.457 1219.71 Q141.679 1214.79 141.679 1207.86 M146.674 1208.5 Q146.674 1215.63 148.433 1220.14 Q149.885 1223.94 152.765 1223.94 Q154.142 1223.94 155.62 1222.72 Q157.098 1221.47 157.863 1218.56 Q159.035 1214.18 159.035 1206.2 Q159.035 1200.29 157.812 1196.34 Q156.894 1193.41 155.442 1192.18 Q154.397 1191.34 152.918 1191.34 Q151.185 1191.34 149.834 1192.9 Q147.999 1195.01 147.337 1199.55 Q146.674 1204.09 146.674 1208.5 Z"
     fill="#000000"
     fill-rule="nonzero"
     fill-opacity="1"
     id="path31" />
  <path
     clip-path="url(#clip440)"
     d="M164.031 1172.2 L170.864 1168.86 L171.548 1168.86 L171.548 1192.58 Q171.548 1194.94 171.734 1195.52 Q171.941 1196.1 172.562 1196.41 Q173.183 1196.72 175.089 1196.76 L175.089 1197.52 L164.528 1197.52 L164.528 1196.76 Q166.516 1196.72 167.095 1196.43 Q167.675 1196.12 167.903 1195.62 Q168.131 1195.1 168.131 1192.58 L168.131 1177.42 Q168.131 1174.35 167.924 1173.48 Q167.779 1172.82 167.385 1172.51 Q167.012 1172.2 166.474 1172.2 Q165.708 1172.2 164.341 1172.84 L164.031 1172.2 Z"
     fill="#000000"
     fill-rule="nonzero"
     fill-opacity="1"
     id="path32" />
  <path
     clip-path="url(#clip440)"
     d="M112.336 818.18 L120.746 814.076 L121.587 814.076 L121.587 843.259 Q121.587 846.164 121.817 846.878 Q122.071 847.591 122.836 847.974 Q123.601 848.356 125.945 848.407 L125.945 849.35 L112.947 849.35 L112.947 848.407 Q115.394 848.356 116.108 847.999 Q116.821 847.617 117.102 847.005 Q117.382 846.368 117.382 843.259 L117.382 824.602 Q117.382 820.83 117.127 819.76 Q116.949 818.944 116.464 818.562 Q116.006 818.18 115.343 818.18 Q114.4 818.18 112.718 818.97 L112.336 818.18 Z"
     fill="#000000"
     fill-rule="nonzero"
     fill-opacity="1"
     id="path33" />
  <path
     clip-path="url(#clip440)"
     d="M134.203 832.274 Q134.203 826.361 135.987 822.105 Q137.771 817.823 140.728 815.733 Q143.022 814.076 145.468 814.076 Q149.444 814.076 152.605 818.129 Q156.555 823.15 156.555 831.739 Q156.555 837.753 154.822 841.959 Q153.089 846.164 150.387 848.076 Q147.711 849.962 145.213 849.962 Q140.269 849.962 136.981 844.125 Q134.203 839.206 134.203 832.274 M139.199 832.911 Q139.199 840.047 140.957 844.558 Q142.41 848.356 145.29 848.356 Q146.666 848.356 148.144 847.133 Q149.623 845.884 150.387 842.978 Q151.56 838.594 151.56 830.617 Q151.56 824.704 150.336 820.754 Q149.419 817.823 147.966 816.599 Q146.921 815.758 145.443 815.758 Q143.71 815.758 142.359 817.313 Q140.524 819.428 139.861 823.965 Q139.199 828.502 139.199 832.911 Z"
     fill="#000000"
     fill-rule="nonzero"
     fill-opacity="1"
     id="path34" />
  <path
     clip-path="url(#clip440)"
     d="M175.089 816.535 L173.121 821.939 L156.555 821.939 L156.555 821.173 Q163.865 814.505 166.847 810.281 Q169.829 806.056 169.829 802.557 Q169.829 799.886 168.193 798.167 Q166.557 796.448 164.279 796.448 Q162.208 796.448 160.552 797.67 Q158.916 798.871 158.129 801.211 L157.363 801.211 Q157.88 797.38 160.013 795.33 Q162.167 793.28 165.377 793.28 Q168.793 793.28 171.071 795.475 Q173.37 797.67 173.37 800.652 Q173.37 802.785 172.376 804.918 Q170.843 808.272 167.406 812.02 Q162.25 817.653 160.966 818.813 L168.296 818.813 Q170.533 818.813 171.423 818.647 Q172.334 818.481 173.059 817.984 Q173.784 817.467 174.322 816.535 L175.089 816.535 Z"
     fill="#000000"
     fill-rule="nonzero"
     fill-opacity="1"
     id="path35" />
  <path
     clip-path="url(#clip440)"
     d="M114.903 442.595 L123.314 438.491 L124.155 438.491 L124.155 467.674 Q124.155 470.579 124.384 471.293 Q124.639 472.006 125.404 472.389 Q126.168 472.771 128.513 472.822 L128.513 473.765 L115.515 473.765 L115.515 472.822 Q117.962 472.771 118.675 472.414 Q119.389 472.032 119.669 471.42 Q119.95 470.783 119.95 467.674 L119.95 449.017 Q119.95 445.245 119.695 444.175 Q119.516 443.359 119.032 442.977 Q118.573 442.595 117.911 442.595 Q116.968 442.595 115.286 443.385 L114.903 442.595 Z"
     fill="#000000"
     fill-rule="nonzero"
     fill-opacity="1"
     id="path36" />
  <path
     clip-path="url(#clip440)"
     d="M136.771 456.689 Q136.771 450.776 138.555 446.52 Q140.339 442.238 143.296 440.148 Q145.589 438.491 148.036 438.491 Q152.012 438.491 155.172 442.544 Q159.123 447.565 159.123 456.154 Q159.123 462.169 157.39 466.374 Q155.657 470.579 152.955 472.491 Q150.279 474.377 147.781 474.377 Q142.837 474.377 139.549 468.54 Q136.771 463.621 136.771 456.689 M141.766 457.326 Q141.766 464.462 143.525 468.973 Q144.978 472.771 147.858 472.771 Q149.234 472.771 150.712 471.548 Q152.19 470.299 152.955 467.393 Q154.127 463.01 154.127 455.032 Q154.127 449.119 152.904 445.169 Q151.986 442.238 150.534 441.015 Q149.489 440.173 148.011 440.173 Q146.277 440.173 144.927 441.728 Q143.092 443.844 142.429 448.38 Q141.766 452.917 141.766 457.326 Z"
     fill="#000000"
     fill-rule="nonzero"
     fill-opacity="1"
     id="path37" />
  <path
     clip-path="url(#clip440)"
     d="M159.558 423.617 Q160.759 420.78 162.581 419.248 Q164.424 417.695 167.157 417.695 Q170.533 417.695 172.334 419.89 Q173.701 421.526 173.701 423.389 Q173.701 426.454 169.849 429.726 Q172.438 430.741 173.763 432.625 Q175.089 434.51 175.089 437.057 Q175.089 440.701 172.769 443.373 Q169.746 446.852 164.01 446.852 Q161.173 446.852 160.137 446.147 Q159.123 445.443 159.123 444.636 Q159.123 444.035 159.599 443.58 Q160.096 443.124 160.779 443.124 Q161.297 443.124 161.836 443.29 Q162.188 443.393 163.43 444.056 Q164.672 444.698 165.149 444.822 Q165.915 445.05 166.785 445.05 Q168.897 445.05 170.45 443.414 Q172.024 441.778 172.024 439.542 Q172.024 437.906 171.299 436.353 Q170.761 435.193 170.119 434.592 Q169.228 433.764 167.675 433.101 Q166.122 432.418 164.507 432.418 L163.844 432.418 L163.844 431.797 Q165.48 431.59 167.116 430.617 Q168.773 429.643 169.518 428.277 Q170.264 426.91 170.264 425.274 Q170.264 423.141 168.918 421.836 Q167.592 420.511 165.604 420.511 Q162.395 420.511 160.241 423.949 L159.558 423.617 Z"
     fill="#000000"
     fill-rule="nonzero"
     fill-opacity="1"
     id="path38" />
  <polyline
     clip-path="url(#clip442)"
     style="stroke:#0033e5;stroke-linecap:round;stroke-linejoin:round;stroke-width:4;stroke-opacity:1;fill:none"
     stroke-dasharray="16, 10"
     points="242.545,1176.96 283.381,1147.49 320.961,1120.36 355.766,1095.24 388.177,1071.85 418.504,1049.96 446.998,1029.39 473.867,1010 499.288,991.648 523.409,974.238 546.355,957.676 568.237,941.882 589.148,926.788 609.171,912.336 628.379,898.472 646.834,885.151 664.595,872.332 681.711,859.978 698.227,848.056 714.184,836.538 729.62,825.398 744.565,814.61 759.052,804.153 773.107,794.009 786.755,784.158 800.019,774.584 812.921,765.272 825.478,756.208 837.71,747.379 849.633,738.773 861.262,730.379 872.611,722.188 883.693,714.189 894.521,706.374 905.105,698.734 915.457,691.262 925.587,683.95 935.504,676.792 945.217,669.782 954.734,662.913 964.062,656.179 973.209,649.577 982.183,643.1 990.988,636.744 999.633,630.505 1008.12,624.378 1016.46,618.359 1024.65,612.445 1032.71,606.632 1040.63,600.916 1048.41,595.295 1056.08,589.765 1063.61,584.324 1071.03,578.968 1078.34,573.695 1085.53,568.502 1092.62,563.388 1099.6,558.349 1106.48,553.384 1113.26,548.49 1119.94,543.666 1126.53,538.909 1133.03,534.217 1139.45,529.59 1145.77,525.024 1152.01,520.519 1158.17,516.073 1164.25,511.684 1170.26,507.351 1176.18,503.072 1182.04,498.846 1187.82,494.673 1193.53,490.55 1199.18,486.476 1204.75,482.45 1210.27,478.472 1215.71,474.539 1221.1,470.651 1226.43,466.807 1231.69,463.007 1236.9,459.248 1242.05,455.53 1247.15,451.852 1252.19,448.214 1257.17,444.614 1262.11,441.052 1266.99,437.526 1271.83,434.037 1276.61,430.583 1281.35,427.164 1286.04,423.779 1290.68,420.428 1295.28,417.109 1299.84,413.822 1304.35,410.566 1308.81,407.341 1313.24,404.147 1317.62,400.982 1321.97,397.846 1326.27,394.739 1330.54,391.661 1334.77,388.609 1338.96,385.585 1343.11,382.588 1347.23,379.616 1351.31,376.67 1355.35,373.75 1359.36,370.855 1363.34,367.983 1367.29,365.136 1371.2,362.313 1375.08,359.513 1378.93,356.735 1382.74,353.98 1386.53,351.247 1390.28,348.536 1394.01,345.847 1397.71,343.178 1401.38,340.53 1405.02,337.903 1408.63,335.296 1412.21,332.708 1415.77,330.141 1419.3,327.592 1422.81,325.062 1426.29,322.551 1429.74,320.058 1433.17,317.584 1436.57,315.127 1439.95,312.688 1443.31,310.266 1446.64,307.862 1449.94,305.474 1453.23,303.103 1456.49,300.748 1459.73,298.41 1462.95,296.087 1466.15,293.78 1469.32,291.489 1472.47,289.213 1475.61,286.952 1478.72,284.706 1481.81,282.475 1484.88,280.258 1487.93,278.056 1490.96,275.868 1493.98,273.693 1496.97,271.533 1499.94,269.386 1502.9,267.253 1505.84,265.133 1508.75,263.026 1511.66,260.932 1514.54,258.851 1517.4,256.782 1520.25,254.726 1523.08,252.683 1525.9,250.651 1528.7,248.632 1531.48,246.624 1534.24,244.628 1536.99,242.644 1539.73,240.672 1542.44,238.71 1545.14,236.76 1547.83,234.821 1550.5,232.894 1553.16,230.976 1555.8,229.07 1558.42,227.174 1561.04,225.289 1563.63,223.414 1566.22,221.55 1568.79,219.695 1571.34,217.851 1573.88,216.017 1576.41,214.192 1578.93,212.377 1581.43,210.572 1583.91,208.776 1586.39,206.99 1588.85,205.213 1591.3,203.445 1593.74,201.687 1596.16,199.937 1598.57,198.197 1600.97,196.465 1603.36,194.742 1605.73,193.027 1608.1,191.322 1610.45,189.625 1612.79,187.936 1615.12,186.255 1617.43,184.583 1619.74,182.919 1622.03,181.263 1624.32,179.615 1626.59,177.975 1628.85,176.343 1631.1,174.719 "
     id="polyline74" />
  <circle
     clip-path="url(#clip442)"
     cx="524.476"
     cy="978.339"
     r="14.4"
     fill="#0033e5"
     fill-rule="evenodd"
     fill-opacity="1"
     stroke="#000000"
     stroke-opacity="1"
     stroke-width="2.8"
     id="circle55" />
  <circle
     clip-path="url(#clip442)"
     cx="583.501"
     cy="942.429"
     r="14.4"
     fill="#0033e5"
     fill-rule="evenodd"
     fill-opacity="1"
     stroke="#000000"
     stroke-opacity="1"
     stroke-width="2.8"
     id="circle56" />
  <circle
     clip-path="url(#clip442)"
     cx="635.954"
     cy="912.787"
     r="14.4"
     fill="#0033e5"
     fill-rule="evenodd"
     fill-opacity="1"
     stroke="#000000"
     stroke-opacity="1"
     stroke-width="2.8"
     id="circle57" />
  <circle
     clip-path="url(#clip442)"
     cx="705.09"
     cy="847.938"
     r="14.4"
     fill="#0033e5"
     fill-rule="evenodd"
     fill-opacity="1"
     stroke="#000000"
     stroke-opacity="1"
     stroke-width="2.8"
     id="circle58" />
  <circle
     clip-path="url(#clip442)"
     cx="746.123"
     cy="810.59"
     r="14.4"
     fill="#0033e5"
     fill-rule="evenodd"
     fill-opacity="1"
     stroke="#000000"
     stroke-opacity="1"
     stroke-width="2.8"
     id="circle59" />
  <circle
     clip-path="url(#clip442)"
     cx="801.668"
     cy="769.935"
     r="14.4"
     fill="#0033e5"
     fill-rule="evenodd"
     fill-opacity="1"
     stroke="#000000"
     stroke-opacity="1"
     stroke-width="2.8"
     id="circle60" />
  <circle
     clip-path="url(#clip442)"
     cx="866.818"
     cy="719.357"
     r="14.4"
     fill="#0033e5"
     fill-rule="evenodd"
     fill-opacity="1"
     stroke="#000000"
     stroke-opacity="1"
     stroke-width="2.8"
     id="circle61" />
  <circle
     clip-path="url(#clip442)"
     cx="924.05"
     cy="654.845"
     r="14.4"
     fill="#0033e5"
     fill-rule="evenodd"
     fill-opacity="1"
     stroke="#000000"
     stroke-opacity="1"
     stroke-width="2.8"
     id="circle62" />
  <circle
     clip-path="url(#clip442)"
     cx="987.021"
     cy="651.414"
     r="14.4"
     fill="#0033e5"
     fill-rule="evenodd"
     fill-opacity="1"
     stroke="#000000"
     stroke-opacity="1"
     stroke-width="2.8"
     id="circle63" />
  <circle
     clip-path="url(#clip442)"
     cx="1042.57"
     cy="577.305"
     r="14.4"
     fill="#0033e5"
     fill-rule="evenodd"
     fill-opacity="1"
     stroke="#000000"
     stroke-opacity="1"
     stroke-width="2.8"
     id="circle64" />
  <circle
     clip-path="url(#clip442)"
     cx="1092.25"
     cy="509.808"
     r="14.4"
     fill="#0033e5"
     fill-rule="evenodd"
     fill-opacity="1"
     stroke="#000000"
     stroke-opacity="1"
     stroke-width="2.8"
     id="circle65" />
  <circle
     clip-path="url(#clip442)"
     cx="1154.04"
     cy="511.726"
     r="14.4"
     fill="#0033e5"
     fill-rule="evenodd"
     fill-opacity="1"
     stroke="#000000"
     stroke-opacity="1"
     stroke-width="2.8"
     id="circle66" />
  <circle
     clip-path="url(#clip442)"
     cx="1208.67"
     cy="490.273"
     r="14.4"
     fill="#0033e5"
     fill-rule="evenodd"
     fill-opacity="1"
     stroke="#000000"
     stroke-opacity="1"
     stroke-width="2.8"
     id="circle67" />
  <circle
     clip-path="url(#clip442)"
     cx="1264.21"
     cy="473.453"
     r="14.4"
     fill="#0033e5"
     fill-rule="evenodd"
     fill-opacity="1"
     stroke="#000000"
     stroke-opacity="1"
     stroke-width="2.8"
     id="circle68" />
  <circle
     clip-path="url(#clip442)"
     cx="1325.54"
     cy="412.667"
     r="14.4"
     fill="#0033e5"
     fill-rule="evenodd"
     fill-opacity="1"
     stroke="#000000"
     stroke-opacity="1"
     stroke-width="2.8"
     id="circle69" />
  <circle
     clip-path="url(#clip442)"
     cx="1379.81"
     cy="333.769"
     r="14.4"
     fill="#0033e5"
     fill-rule="evenodd"
     fill-opacity="1"
     stroke="#000000"
     stroke-opacity="1"
     stroke-width="2.8"
     id="circle70" />
  <circle
     clip-path="url(#clip442)"
     cx="1437.63"
     cy="358.912"
     r="14.4"
     fill="#0033e5"
     fill-rule="evenodd"
     fill-opacity="1"
     stroke="#000000"
     stroke-opacity="1"
     stroke-width="2.8"
     id="circle71" />
  <circle
     clip-path="url(#clip442)"
     cx="1497.18"
     cy="298.535"
     r="14.4"
     fill="#0033e5"
     fill-rule="evenodd"
     fill-opacity="1"
     stroke="#000000"
     stroke-opacity="1"
     stroke-width="2.8"
     id="circle72" />
  <circle
     clip-path="url(#clip442)"
     cx="1553.62"
     cy="236.46"
     r="14.4"
     fill="#0033e5"
     fill-rule="evenodd"
     fill-opacity="1"
     stroke="#000000"
     stroke-opacity="1"
     stroke-width="2.8"
     id="circle73" />
  <circle
     clip-path="url(#clip442)"
     cx="1610.34"
     cy="146.646"
     r="14.4"
     fill="#0033e5"
     fill-rule="evenodd"
     fill-opacity="1"
     stroke="#000000"
     stroke-opacity="1"
     stroke-width="2.8"
     id="circle74" />
  <g
     data-mml-node="msub"
     data-latex="\tau_\text{exp}"
     data-semantic-type="subscript"
     data-semantic-role="greekletter"
     data-semantic-annotation="depth:1"
     data-semantic-id="2"
     data-semantic-children="0,1"
     data-semantic-attributes="latex:\tau_\text{exp}"
     data-semantic-owns="0 1"
     aria-level="0"
     data-speech-node="true"
     id="g5"
     transform="matrix(0,-0.06270112,-0.06270112,0,71.024183,695.65376)"
     style="fill:#000000;stroke:#000000;stroke-width:0">
    <g
       data-mml-node="mi"
       data-latex="\tau"
       data-semantic-type="identifier"
       data-semantic-role="greekletter"
       data-semantic-font="italic"
       data-semantic-annotation="clearspeak:simple;nemeth:number;depth:2"
       data-semantic-id="0"
       data-semantic-parent="2"
       data-semantic-attributes="latex:\tau"
       aria-level="1"
       data-speech-node="true"
       id="g1">
      <path
         id="use1"
         d="M 468,431 H 192 C 139,431 91,397 47,330 34,310 27,297 27,292 c 3,-8 4,-13 16,-13 7,0 13,4 19,13 32,49 72,74 121,74 h 77 L 165,56 c -7,-22 -10,-35 -10,-38 0,-20 11,-30 32,-30 11,0 21,3 27,9 13,12 14,15 18,36 l 65,333 h 162 c 35,0 52,12 52,37 0,23 -18,28 -43,28 z" />
    </g>
    <g
       data-mml-node="mtext"
       transform="matrix(0.707,0,0,0.707,470,-150)"
       data-latex="{exp}"
       data-semantic-type="text"
       data-semantic-role="unknown"
       data-semantic-font="normal"
       data-semantic-annotation="clearspeak:unit;depth:2"
       data-semantic-id="1"
       data-semantic-parent="2"
       data-semantic-attributes="latex:{exp}"
       aria-level="1"
       data-speech-node="true"
       id="g4">
      <path
         id="use2"
         d="M 415,251 C 415,366 348,448 236,448 176,448 126,425 85,378 47,334 28,281 28,220 28,157 49,104 91,58 c 42,-46 94,-69 156,-69 57,0 101,20 131,59 25,33 37,57 37,73 0,10 -6,15 -17,15 -8,0 -13,-5 -16,-16 -22,-66 -65,-99 -129,-99 -45,0 -80,21 -107,64 -19,31 -28,78 -29,142 h 270 c 22,0 28,2 28,24 m -89,98 c 11,-33 16,-65 16,-94 H 118 c 3,66 20,111 50,134 25,20 47,30 68,30 45,0 75,-23 90,-70 z" />
      <path
         id="use3"
         d="m 862,3 c 23,1 56,0 98,-3 v 38 c -53,0 -73,1 -94,29 L 736,235 c 43,53 72,89 88,108 28,32 67,49 118,50 v 38 c -28,-2 -56,-3 -84,-3 -37,0 -70,1 -99,3 v -38 c 19,-2 29,-11 29,-27 0,-9 -5,-20 -14,-32 l -58,-72 -74,95 c -5,7 -8,12 -8,15 0,13 12,20 35,21 v 38 l -111,-3 c -26,-1 -58,0 -97,3 v -38 c 36,0 59,-3 69,-8 10,-5 26,-22 48,-51 L 673,210 C 624,147 594,109 583,96 551,57 509,38 456,38 V 0 c 37,3 65,4 86,3 l 97,-3 v 38 c -19,3 -28,12 -28,27 0,4 1,9 3,14 6,13 33,47 81,104 L 767,89 C 778,75 784,65 787,59 787,46 775,39 751,38 V 0 Z" />
      <path
         id="use4"
         d="m 1270,-13 c 62,0 115,22 158,67 43,45 65,98 65,161 0,61 -20,113 -59,157 -41,47 -91,70 -151,70 -51,0 -95,-20 -133,-59 v 59 l -150,-11 v -38 c 37,0 59,-2 66,-7 7,-5 11,-18 11,-39 v -462 c 0,-19 -4,-31 -11,-35 -7,-4 -29,-5 -66,-5 v -39 l 114,3 115,-3 v 39 c -37,0 -58,1 -65,5 -7,4 -11,16 -11,35 V 44 c 22,-31 65,-57 117,-57 m 6,422 c 41,0 73,-23 98,-69 19,-39 29,-80 29,-125 0,-47 -11,-90 -33,-129 -26,-47 -61,-70 -104,-70 -42,0 -75,20 -100,59 -9,13 -13,26 -13,39 v 219 c 29,51 70,76 123,76 z" />
    </g>
  </g>
</svg>
