<?xml version="1.0" encoding="UTF-8" standalone="no"?>
<svg
   width="430"
   height="350"
   viewBox="0 0 1720 1400"
   version="1.1"
   id="svg82"
   sodipodi:docname="tau_int_wolff_sqr.svg"
   inkscape:version="1.4.2 (ebf0e940, 2025-05-08)"
   xmlns:inkscape="http://www.inkscape.org/namespaces/inkscape"
   xmlns:sodipodi="http://sodipodi.sourceforge.net/DTD/sodipodi-0.dtd"
   xmlns="http://www.w3.org/2000/svg"
   xmlns:svg="http://www.w3.org/2000/svg">
  <sodipodi:namedview
     id="namedview82"
     pagecolor="#ffffff"
     bordercolor="#000000"
     borderopacity="0.25"
     inkscape:showpageshadow="2"
     inkscape:pageopacity="0.0"
     inkscape:pagecheckerboard="0"
     inkscape:deskcolor="#d1d1d1"
     inkscape:zoom="2.5877948"
     inkscape:cx="204.80758"
     inkscape:cy="193.2147"
     inkscape:window-width="1728"
     inkscape:window-height="1055"
     inkscape:window-x="0"
     inkscape:window-y="34"
     inkscape:window-maximized="0"
     inkscape:current-layer="svg82" />
  <defs
     id="defs1">
    <clipPath
       id="clip710">
      <rect
         x="0"
         y="0"
         width="1720"
         height="1400"
         id="rect1" />
    </clipPath>
  </defs>
  <path
     clip-path="url(#clip710)"
     d="M0 1400 L1720 1400 L1720 -4.44089e-15 L0 -4.44089e-15  Z"
     fill="#ffffff"
     fill-rule="evenodd"
     fill-opacity="1"
     id="path1" />
  <defs
     id="defs2">
    <clipPath
       id="clip711">
      <rect
         x="344"
         y="0"
         width="1205"
         height="1205"
         id="rect2" />
    </clipPath>
  </defs>
  <path
     clip-path="url(#clip710)"
     d="M260.459 1207.87 L1672.76 1207.87 L1672.76 115.736 L260.459 115.736  Z"
     fill="#ffffff"
     fill-rule="evenodd"
     fill-opacity="1"
     id="path2" />
  <defs
     id="defs3">
    <clipPath
       id="clip712">
      <rect
         x="260"
         y="115"
         width="1413"
         height="1093"
         id="rect3" />
    </clipPath>
  </defs>
  <polyline
     clip-path="url(#clip712)"
     style="stroke:#000000; stroke-linecap:round; stroke-linejoin:round; stroke-width:2; stroke-opacity:0.1; fill:none"
     points="594.788,1207.87 594.788,115.736 "
     id="polyline3" />
  <polyline
     clip-path="url(#clip712)"
     style="stroke:#000000; stroke-linecap:round; stroke-linejoin:round; stroke-width:2; stroke-opacity:0.1; fill:none"
     points="1115.75,1207.87 1115.75,115.736 "
     id="polyline4" />
  <polyline
     clip-path="url(#clip712)"
     style="stroke:#000000; stroke-linecap:round; stroke-linejoin:round; stroke-width:2; stroke-opacity:0.1; fill:none"
     points="1636.71,1207.87 1636.71,115.736 "
     id="polyline5" />
  <polyline
     clip-path="url(#clip712)"
     style="stroke:#000000; stroke-linecap:round; stroke-linejoin:round; stroke-width:2; stroke-opacity:0.1; fill:none"
     points="260.459,770.915 1672.76,770.915 "
     id="polyline6" />
  <polyline
     clip-path="url(#clip712)"
     style="stroke:#000000; stroke-linecap:round; stroke-linejoin:round; stroke-width:2; stroke-opacity:0.1; fill:none"
     points="260.459,320.98 1672.76,320.98 "
     id="polyline7" />
  <polyline
     clip-path="url(#clip710)"
     style="stroke:#000000; stroke-linecap:round; stroke-linejoin:round; stroke-width:4; stroke-opacity:1; fill:none"
     points="260.459,1207.87 1672.76,1207.87 "
     id="polyline8" />
  <polyline
     clip-path="url(#clip710)"
     style="stroke:#000000; stroke-linecap:round; stroke-linejoin:round; stroke-width:4; stroke-opacity:1; fill:none"
     points="594.788,1207.87 594.788,1188.97 "
     id="polyline9" />
  <polyline
     clip-path="url(#clip710)"
     style="stroke:#000000; stroke-linecap:round; stroke-linejoin:round; stroke-width:4; stroke-opacity:1; fill:none"
     points="1115.75,1207.87 1115.75,1188.97 "
     id="polyline10" />
  <polyline
     clip-path="url(#clip710)"
     style="stroke:#000000; stroke-linecap:round; stroke-linejoin:round; stroke-width:4; stroke-opacity:1; fill:none"
     points="1636.71,1207.87 1636.71,1188.97 "
     id="polyline11" />
  <path
     clip-path="url(#clip710)"
     d="M550.055 1249.32 L558.465 1245.22 L559.306 1245.22 L559.306 1274.4 Q559.306 1277.31 559.536 1278.02 Q559.791 1278.73 560.555 1279.12 Q561.32 1279.5 563.665 1279.55 L563.665 1280.49 L550.666 1280.49 L550.666 1279.55 Q553.113 1279.5 553.827 1279.14 Q554.54 1278.76 554.821 1278.15 Q555.101 1277.51 555.101 1274.4 L555.101 1255.74 Q555.101 1251.97 554.846 1250.9 Q554.668 1250.09 554.184 1249.7 Q553.725 1249.32 553.062 1249.32 Q552.119 1249.32 550.437 1250.11 L550.055 1249.32 Z"
     fill="#000000"
     fill-rule="nonzero"
     fill-opacity="1"
     id="path11" />
  <path
     clip-path="url(#clip710)"
     d="M571.922 1263.42 Q571.922 1257.5 573.706 1253.25 Q575.491 1248.97 578.447 1246.88 Q580.741 1245.22 583.188 1245.22 Q587.163 1245.22 590.324 1249.27 Q594.274 1254.29 594.274 1262.88 Q594.274 1268.9 592.541 1273.1 Q590.808 1277.31 588.106 1279.22 Q585.43 1281.1 582.933 1281.1 Q577.988 1281.1 574.7 1275.27 Q571.922 1270.35 571.922 1263.42 M576.918 1264.05 Q576.918 1271.19 578.676 1275.7 Q580.129 1279.5 583.009 1279.5 Q584.385 1279.5 585.864 1278.27 Q587.342 1277.03 588.106 1274.12 Q589.279 1269.74 589.279 1261.76 Q589.279 1255.85 588.055 1251.9 Q587.138 1248.97 585.685 1247.74 Q584.64 1246.9 583.162 1246.9 Q581.429 1246.9 580.078 1248.46 Q578.243 1250.57 577.58 1255.11 Q576.918 1259.64 576.918 1264.05 Z"
     fill="#000000"
     fill-rule="nonzero"
     fill-opacity="1"
     id="path12" />
  <path
     clip-path="url(#clip710)"
     d="M594.274 1227.76 L601.108 1224.42 L601.791 1224.42 L601.791 1248.13 Q601.791 1250.49 601.978 1251.07 Q602.185 1251.65 602.806 1251.96 Q603.427 1252.27 605.332 1252.32 L605.332 1253.08 L594.771 1253.08 L594.771 1252.32 Q596.759 1252.27 597.339 1251.98 Q597.919 1251.67 598.147 1251.18 Q598.374 1250.66 598.374 1248.13 L598.374 1232.97 Q598.374 1229.91 598.167 1229.04 Q598.022 1228.38 597.629 1228.07 Q597.256 1227.76 596.718 1227.76 Q595.952 1227.76 594.585 1228.4 L594.274 1227.76 Z"
     fill="#000000"
     fill-rule="nonzero"
     fill-opacity="1"
     id="path13" />
  <path
     clip-path="url(#clip710)"
     d="M615.811 1249.06 Q616.784 1249.06 617.446 1249.75 Q618.109 1250.41 618.109 1251.36 Q618.109 1252.32 617.426 1253 Q616.763 1253.66 615.811 1253.66 Q614.858 1253.66 614.175 1253 Q613.512 1252.32 613.512 1251.36 Q613.512 1250.39 614.175 1249.73 Q614.858 1249.06 615.811 1249.06 Z"
     fill="#000000"
     fill-rule="nonzero"
     fill-opacity="1"
     id="path14" />
  <path
     clip-path="url(#clip710)"
     d="M639.521 1225 L637.906 1228.52 L629.457 1228.52 L627.614 1232.29 Q633.102 1233.1 636.311 1236.37 Q639.066 1239.19 639.066 1243 Q639.066 1245.21 638.154 1247.1 Q637.264 1248.98 635.897 1250.31 Q634.531 1251.63 632.853 1252.44 Q630.472 1253.58 627.966 1253.58 Q625.44 1253.58 624.28 1252.73 Q623.141 1251.86 623.141 1250.82 Q623.141 1250.24 623.617 1249.81 Q624.094 1249.35 624.818 1249.35 Q625.357 1249.35 625.75 1249.52 Q626.164 1249.69 627.138 1250.37 Q628.691 1251.45 630.285 1251.45 Q632.708 1251.45 634.531 1249.62 Q636.374 1247.78 636.374 1245.15 Q636.374 1242.6 634.738 1240.41 Q633.102 1238.19 630.223 1236.99 Q627.966 1236.06 624.073 1235.91 L629.457 1225 L639.521 1225 Z"
     fill="#000000"
     fill-rule="nonzero"
     fill-opacity="1"
     id="path15" />
  <path
     clip-path="url(#clip710)"
     d="M1068.34 1249.32 L1076.75 1245.22 L1077.59 1245.22 L1077.59 1274.4 Q1077.59 1277.31 1077.82 1278.02 Q1078.08 1278.73 1078.84 1279.12 Q1079.61 1279.5 1081.95 1279.55 L1081.95 1280.49 L1068.95 1280.49 L1068.95 1279.55 Q1071.4 1279.5 1072.11 1279.14 Q1072.83 1278.76 1073.11 1278.15 Q1073.39 1277.51 1073.39 1274.4 L1073.39 1255.74 Q1073.39 1251.97 1073.13 1250.9 Q1072.96 1250.09 1072.47 1249.7 Q1072.01 1249.32 1071.35 1249.32 Q1070.41 1249.32 1068.72 1250.11 L1068.34 1249.32 Z"
     fill="#000000"
     fill-rule="nonzero"
     fill-opacity="1"
     id="path16" />
  <path
     clip-path="url(#clip710)"
     d="M1090.21 1263.42 Q1090.21 1257.5 1091.99 1253.25 Q1093.78 1248.97 1096.73 1246.88 Q1099.03 1245.22 1101.47 1245.22 Q1105.45 1245.22 1108.61 1249.27 Q1112.56 1254.29 1112.56 1262.88 Q1112.56 1268.9 1110.83 1273.1 Q1109.1 1277.31 1106.39 1279.22 Q1103.72 1281.1 1101.22 1281.1 Q1096.28 1281.1 1092.99 1275.27 Q1090.21 1270.35 1090.21 1263.42 M1095.21 1264.05 Q1095.21 1271.19 1096.96 1275.7 Q1098.42 1279.5 1101.3 1279.5 Q1102.67 1279.5 1104.15 1278.27 Q1105.63 1277.03 1106.39 1274.12 Q1107.57 1269.74 1107.57 1261.76 Q1107.57 1255.85 1106.34 1251.9 Q1105.43 1248.97 1103.97 1247.74 Q1102.93 1246.9 1101.45 1246.9 Q1099.72 1246.9 1098.37 1248.46 Q1096.53 1250.57 1095.87 1255.11 Q1095.21 1259.64 1095.21 1264.05 Z"
     fill="#000000"
     fill-rule="nonzero"
     fill-opacity="1"
     id="path17" />
  <path
     clip-path="url(#clip710)"
     d="M1131.1 1247.68 L1129.13 1253.08 L1112.56 1253.08 L1112.56 1252.32 Q1119.87 1245.65 1122.85 1241.42 Q1125.84 1237.2 1125.84 1233.7 Q1125.84 1231.03 1124.2 1229.31 Q1122.56 1227.59 1120.29 1227.59 Q1118.21 1227.59 1116.56 1228.81 Q1114.92 1230.01 1114.14 1232.35 L1113.37 1232.35 Q1113.89 1228.52 1116.02 1226.47 Q1118.17 1224.42 1121.38 1224.42 Q1124.8 1224.42 1127.08 1226.62 Q1129.38 1228.81 1129.38 1231.79 Q1129.38 1233.93 1128.38 1236.06 Q1126.85 1239.41 1123.41 1243.16 Q1118.26 1248.8 1116.97 1249.95 L1124.3 1249.95 Q1126.54 1249.95 1127.43 1249.79 Q1128.34 1249.62 1129.07 1249.13 Q1129.79 1248.61 1130.33 1247.68 L1131.1 1247.68 Z"
     fill="#000000"
     fill-rule="nonzero"
     fill-opacity="1"
     id="path18" />
  <path
     clip-path="url(#clip710)"
     d="M1138.16 1249.06 Q1139.13 1249.06 1139.79 1249.75 Q1140.46 1250.41 1140.46 1251.36 Q1140.46 1252.32 1139.77 1253 Q1139.11 1253.66 1138.16 1253.66 Q1137.2 1253.66 1136.52 1253 Q1135.86 1252.32 1135.86 1251.36 Q1135.86 1250.39 1136.52 1249.73 Q1137.2 1249.06 1138.16 1249.06 Z"
     fill="#000000"
     fill-rule="nonzero"
     fill-opacity="1"
     id="path19" />
  <path
     clip-path="url(#clip710)"
     d="M1144.99 1239.21 Q1144.99 1234.4 1146.44 1230.95 Q1147.89 1227.47 1150.29 1225.77 Q1152.16 1224.42 1154.14 1224.42 Q1157.37 1224.42 1159.94 1227.71 Q1163.15 1231.79 1163.15 1238.77 Q1163.15 1243.66 1161.74 1247.08 Q1160.33 1250.49 1158.14 1252.05 Q1155.97 1253.58 1153.94 1253.58 Q1149.92 1253.58 1147.25 1248.84 Q1144.99 1244.84 1144.99 1239.21 M1149.05 1239.73 Q1149.05 1245.52 1150.48 1249.19 Q1151.66 1252.27 1154 1252.27 Q1155.12 1252.27 1156.32 1251.28 Q1157.52 1250.27 1158.14 1247.9 Q1159.09 1244.34 1159.09 1237.86 Q1159.09 1233.06 1158.1 1229.85 Q1157.35 1227.47 1156.17 1226.47 Q1155.32 1225.79 1154.12 1225.79 Q1152.71 1225.79 1151.62 1227.05 Q1150.13 1228.77 1149.59 1232.46 Q1149.05 1236.14 1149.05 1239.73 Z"
     fill="#000000"
     fill-rule="nonzero"
     fill-opacity="1"
     id="path20" />
  <path
     clip-path="url(#clip710)"
     d="M1589.94 1249.32 L1598.35 1245.22 L1599.19 1245.22 L1599.19 1274.4 Q1599.19 1277.31 1599.42 1278.02 Q1599.68 1278.73 1600.44 1279.12 Q1601.21 1279.5 1603.55 1279.55 L1603.55 1280.49 L1590.55 1280.49 L1590.55 1279.55 Q1593 1279.5 1593.71 1279.14 Q1594.43 1278.76 1594.71 1278.15 Q1594.99 1277.51 1594.99 1274.4 L1594.99 1255.74 Q1594.99 1251.97 1594.73 1250.9 Q1594.56 1250.09 1594.07 1249.7 Q1593.61 1249.32 1592.95 1249.32 Q1592.01 1249.32 1590.33 1250.11 L1589.94 1249.32 Z"
     fill="#000000"
     fill-rule="nonzero"
     fill-opacity="1"
     id="path21" />
  <path
     clip-path="url(#clip710)"
     d="M1611.81 1263.42 Q1611.81 1257.5 1613.59 1253.25 Q1615.38 1248.97 1618.34 1246.88 Q1620.63 1245.22 1623.08 1245.22 Q1627.05 1245.22 1630.21 1249.27 Q1634.16 1254.29 1634.16 1262.88 Q1634.16 1268.9 1632.43 1273.1 Q1630.7 1277.31 1627.99 1279.22 Q1625.32 1281.1 1622.82 1281.1 Q1617.88 1281.1 1614.59 1275.27 Q1611.81 1270.35 1611.81 1263.42 M1616.81 1264.05 Q1616.81 1271.19 1618.56 1275.7 Q1620.02 1279.5 1622.9 1279.5 Q1624.27 1279.5 1625.75 1278.27 Q1627.23 1277.03 1627.99 1274.12 Q1629.17 1269.74 1629.17 1261.76 Q1629.17 1255.85 1627.94 1251.9 Q1627.03 1248.97 1625.57 1247.74 Q1624.53 1246.9 1623.05 1246.9 Q1621.32 1246.9 1619.97 1248.46 Q1618.13 1250.57 1617.47 1255.11 Q1616.81 1259.64 1616.81 1264.05 Z"
     fill="#000000"
     fill-rule="nonzero"
     fill-opacity="1"
     id="path22" />
  <path
     clip-path="url(#clip710)"
     d="M1652.7 1247.68 L1650.73 1253.08 L1634.16 1253.08 L1634.16 1252.32 Q1641.47 1245.65 1644.45 1241.42 Q1647.44 1237.2 1647.44 1233.7 Q1647.44 1231.03 1645.8 1229.31 Q1644.16 1227.59 1641.89 1227.59 Q1639.82 1227.59 1638.16 1228.81 Q1636.52 1230.01 1635.74 1232.35 L1634.97 1232.35 Q1635.49 1228.52 1637.62 1226.47 Q1639.77 1224.42 1642.98 1224.42 Q1646.4 1224.42 1648.68 1226.62 Q1650.98 1228.81 1650.98 1231.79 Q1650.98 1233.93 1649.98 1236.06 Q1648.45 1239.41 1645.01 1243.16 Q1639.86 1248.8 1638.57 1249.95 L1645.9 1249.95 Q1648.14 1249.95 1649.03 1249.79 Q1649.94 1249.62 1650.67 1249.13 Q1651.39 1248.61 1651.93 1247.68 L1652.7 1247.68 Z"
     fill="#000000"
     fill-rule="nonzero"
     fill-opacity="1"
     id="path23" />
  <path
     clip-path="url(#clip710)"
     d="M1659.76 1249.06 Q1660.73 1249.06 1661.39 1249.75 Q1662.06 1250.41 1662.06 1251.36 Q1662.06 1252.32 1661.37 1253 Q1660.71 1253.66 1659.76 1253.66 Q1658.8 1253.66 1658.12 1253 Q1657.46 1252.32 1657.46 1251.36 Q1657.46 1250.39 1658.12 1249.73 Q1658.8 1249.06 1659.76 1249.06 Z"
     fill="#000000"
     fill-rule="nonzero"
     fill-opacity="1"
     id="path24" />
  <path
     clip-path="url(#clip710)"
     d="M1683.47 1225 L1681.85 1228.52 L1673.4 1228.52 L1671.56 1232.29 Q1677.05 1233.1 1680.26 1236.37 Q1683.01 1239.19 1683.01 1243 Q1683.01 1245.21 1682.1 1247.1 Q1681.21 1248.98 1679.84 1250.31 Q1678.48 1251.63 1676.8 1252.44 Q1674.42 1253.58 1671.91 1253.58 Q1669.39 1253.58 1668.23 1252.73 Q1667.09 1251.86 1667.09 1250.82 Q1667.09 1250.24 1667.56 1249.81 Q1668.04 1249.35 1668.77 1249.35 Q1669.3 1249.35 1669.7 1249.52 Q1670.11 1249.69 1671.08 1250.37 Q1672.64 1251.45 1674.23 1251.45 Q1676.66 1251.45 1678.48 1249.62 Q1680.32 1247.78 1680.32 1245.15 Q1680.32 1242.6 1678.68 1240.41 Q1677.05 1238.19 1674.17 1236.99 Q1671.91 1236.06 1668.02 1235.91 L1673.4 1225 L1683.47 1225 Z"
     fill="#000000"
     fill-rule="nonzero"
     fill-opacity="1"
     id="path25" />
  <path
     clip-path="url(#clip710)"
     d="M979.411 1329.05 Q979.411 1329.19 979.223 1329.73 L975.429 1340.08 Q975.218 1340.69 975.007 1340.81 Q974.797 1340.9 973.93 1340.9 L951.726 1340.9 Q951.187 1340.9 950.976 1340.88 Q950.765 1340.85 950.601 1340.73 Q950.437 1340.62 950.437 1340.36 Q950.437 1339.89 950.601 1339.68 Q950.789 1339.47 950.999 1339.45 Q951.21 1339.42 951.726 1339.42 Q952.897 1339.42 953.599 1339.35 Q954.302 1339.28 954.747 1339.19 Q955.215 1339.07 955.45 1338.74 Q955.707 1338.42 955.824 1338.13 Q955.942 1337.83 956.106 1337.15 L962.523 1311.39 Q962.711 1310.61 962.711 1310.5 Q962.711 1310.05 962.43 1309.93 Q962.172 1309.79 961.422 1309.72 L959.595 1309.63 Q959.033 1309.63 958.799 1309.61 Q958.588 1309.58 958.424 1309.47 Q958.26 1309.35 958.26 1309.09 Q958.26 1308.65 958.424 1308.44 Q958.612 1308.2 958.752 1308.18 Q958.916 1308.13 959.174 1308.13 L965.545 1308.27 L972.642 1308.13 Q973.415 1308.13 973.415 1308.72 Q973.415 1309.37 973.087 1309.51 Q972.759 1309.63 971.588 1309.63 Q969.339 1309.63 968.309 1309.86 Q967.301 1310.1 967.02 1310.5 Q966.763 1310.87 966.505 1311.88 L960.017 1337.78 Q959.783 1338.65 959.783 1338.88 Q959.783 1339.14 959.9 1339.24 Q960.04 1339.31 960.415 1339.35 Q960.837 1339.42 961.469 1339.42 L965.966 1339.42 Q967.325 1339.42 968.519 1339.21 Q969.714 1339 970.627 1338.7 Q971.564 1338.39 972.408 1337.83 Q973.251 1337.27 973.836 1336.78 Q974.445 1336.26 975.031 1335.46 Q975.64 1334.65 975.991 1334.08 Q976.366 1333.5 976.788 1332.56 Q977.209 1331.6 977.42 1331.06 Q977.654 1330.5 978.005 1329.54 Q978.216 1329.05 978.287 1328.91 Q978.357 1328.77 978.474 1328.65 Q978.614 1328.53 978.825 1328.53 Q979.106 1328.53 979.247 1328.7 Q979.411 1328.86 979.411 1329.05 Z"
     fill="#000000"
     fill-rule="nonzero"
     fill-opacity="1"
     id="path26" />
  <polyline
     clip-path="url(#clip710)"
     style="stroke:#000000; stroke-linecap:round; stroke-linejoin:round; stroke-width:4; stroke-opacity:1; fill:none"
     points="260.459,1207.87 260.459,115.736 "
     id="polyline26" />
  <polyline
     clip-path="url(#clip710)"
     style="stroke:#000000; stroke-linecap:round; stroke-linejoin:round; stroke-width:4; stroke-opacity:1; fill:none"
     points="260.459,770.915 279.357,770.915 "
     id="polyline27" />
  <polyline
     clip-path="url(#clip710)"
     style="stroke:#000000; stroke-linecap:round; stroke-linejoin:round; stroke-width:4; stroke-opacity:1; fill:none"
     points="260.459,320.98 279.357,320.98 "
     id="polyline28" />
  <path
     clip-path="url(#clip710)"
     d="M119.266 763.472 L127.677 759.369 L128.518 759.369 L128.518 788.551 Q128.518 791.457 128.747 792.17 Q129.002 792.884 129.767 793.266 Q130.531 793.649 132.876 793.7 L132.876 794.643 L119.878 794.643 L119.878 793.7 Q122.325 793.649 123.038 793.292 Q123.752 792.91 124.032 792.298 Q124.312 791.661 124.312 788.551 L124.312 769.895 Q124.312 766.123 124.058 765.053 Q123.879 764.237 123.395 763.855 Q122.936 763.472 122.274 763.472 Q121.331 763.472 119.648 764.262 L119.266 763.472 Z"
     fill="#000000"
     fill-rule="nonzero"
     fill-opacity="1"
     id="path28" />
  <path
     clip-path="url(#clip710)"
     d="M141.134 777.567 Q141.134 771.654 142.918 767.397 Q144.702 763.116 147.658 761.026 Q149.952 759.369 152.399 759.369 Q156.375 759.369 159.535 763.421 Q163.486 768.442 163.486 777.031 Q163.486 783.046 161.752 787.251 Q160.019 791.457 157.318 793.368 Q154.642 795.254 152.144 795.254 Q147.2 795.254 143.912 789.418 Q141.134 784.499 141.134 777.567 M146.129 778.204 Q146.129 785.34 147.888 789.851 Q149.34 793.649 152.22 793.649 Q153.597 793.649 155.075 792.425 Q156.553 791.176 157.318 788.271 Q158.49 783.887 158.49 775.91 Q158.49 769.997 157.267 766.047 Q156.349 763.116 154.897 761.892 Q153.852 761.051 152.373 761.051 Q150.64 761.051 149.289 762.606 Q147.454 764.721 146.792 769.258 Q146.129 773.794 146.129 778.204 Z"
     fill="#000000"
     fill-rule="nonzero"
     fill-opacity="1"
     id="path29" />
  <path
     clip-path="url(#clip710)"
     d="M163.486 753.358 Q163.486 748.554 164.935 745.095 Q166.385 741.616 168.787 739.918 Q170.651 738.572 172.639 738.572 Q175.869 738.572 178.437 741.865 Q181.646 745.944 181.646 752.923 Q181.646 757.81 180.238 761.227 Q178.83 764.644 176.635 766.197 Q174.461 767.729 172.431 767.729 Q168.414 767.729 165.743 762.987 Q163.486 758.99 163.486 753.358 M167.544 753.876 Q167.544 759.674 168.973 763.339 Q170.154 766.425 172.494 766.425 Q173.612 766.425 174.813 765.431 Q176.014 764.416 176.635 762.055 Q177.588 758.493 177.588 752.012 Q177.588 747.208 176.594 743.998 Q175.848 741.616 174.668 740.623 Q173.819 739.939 172.618 739.939 Q171.21 739.939 170.112 741.202 Q168.621 742.921 168.083 746.607 Q167.544 750.293 167.544 753.876 Z"
     fill="#000000"
     fill-rule="nonzero"
     fill-opacity="1"
     id="path30" />
  <path
     clip-path="url(#clip710)"
     d="M188.459 763.215 Q189.433 763.215 190.095 763.898 Q190.758 764.561 190.758 765.513 Q190.758 766.466 190.075 767.149 Q189.412 767.812 188.459 767.812 Q187.507 767.812 186.823 767.149 Q186.161 766.466 186.161 765.513 Q186.161 764.54 186.823 763.878 Q187.507 763.215 188.459 763.215 Z"
     fill="#000000"
     fill-rule="nonzero"
     fill-opacity="1"
     id="path31" />
  <path
     clip-path="url(#clip710)"
     d="M212.17 739.152 L210.555 742.673 L202.106 742.673 L200.263 746.441 Q205.751 747.249 208.96 750.521 Q211.714 753.337 211.714 757.147 Q211.714 759.363 210.803 761.248 Q209.913 763.132 208.546 764.457 Q207.179 765.783 205.502 766.59 Q203.121 767.729 200.615 767.729 Q198.089 767.729 196.929 766.88 Q195.79 766.01 195.79 764.975 Q195.79 764.395 196.266 763.96 Q196.743 763.505 197.467 763.505 Q198.006 763.505 198.399 763.67 Q198.813 763.836 199.787 764.519 Q201.34 765.596 202.934 765.596 Q205.357 765.596 207.179 763.774 Q209.022 761.931 209.022 759.301 Q209.022 756.754 207.386 754.559 Q205.751 752.343 202.872 751.142 Q200.615 750.21 196.722 750.065 L202.106 739.152 L212.17 739.152 Z"
     fill="#000000"
     fill-rule="nonzero"
     fill-opacity="1"
     id="path32" />
  <path
     clip-path="url(#clip710)"
     d="M216.498 753.358 Q216.498 748.554 217.948 745.095 Q219.397 741.616 221.799 739.918 Q223.663 738.572 225.651 738.572 Q228.881 738.572 231.449 741.865 Q234.659 745.944 234.659 752.923 Q234.659 757.81 233.251 761.227 Q231.843 764.644 229.648 766.197 Q227.473 767.729 225.444 767.729 Q221.426 767.729 218.755 762.987 Q216.498 758.99 216.498 753.358 M220.557 753.876 Q220.557 759.674 221.986 763.339 Q223.166 766.425 225.506 766.425 Q226.624 766.425 227.825 765.431 Q229.026 764.416 229.648 762.055 Q230.6 758.493 230.6 752.012 Q230.6 747.208 229.606 743.998 Q228.861 741.616 227.68 740.623 Q226.831 739.939 225.63 739.939 Q224.222 739.939 223.125 741.202 Q221.634 742.921 221.095 746.607 Q220.557 750.293 220.557 753.876 Z"
     fill="#000000"
     fill-rule="nonzero"
     fill-opacity="1"
     id="path33" />
  <path
     clip-path="url(#clip710)"
     d="M120.55 313.537 L128.961 309.434 L129.802 309.434 L129.802 338.616 Q129.802 341.522 130.031 342.235 Q130.286 342.949 131.051 343.331 Q131.815 343.713 134.16 343.764 L134.16 344.707 L121.162 344.707 L121.162 343.764 Q123.608 343.713 124.322 343.357 Q125.036 342.974 125.316 342.363 Q125.596 341.725 125.596 338.616 L125.596 319.96 Q125.596 316.188 125.342 315.117 Q125.163 314.302 124.679 313.919 Q124.22 313.537 123.557 313.537 Q122.614 313.537 120.932 314.327 L120.55 313.537 Z"
     fill="#000000"
     fill-rule="nonzero"
     fill-opacity="1"
     id="path34" />
  <path
     clip-path="url(#clip710)"
     d="M142.418 327.631 Q142.418 321.718 144.202 317.462 Q145.986 313.18 148.942 311.09 Q151.236 309.434 153.683 309.434 Q157.659 309.434 160.819 313.486 Q164.769 318.507 164.769 327.096 Q164.769 333.111 163.036 337.316 Q161.303 341.522 158.602 343.433 Q155.926 345.319 153.428 345.319 Q148.483 345.319 145.196 339.483 Q142.418 334.564 142.418 327.631 M147.413 328.268 Q147.413 335.405 149.172 339.916 Q150.624 343.713 153.504 343.713 Q154.881 343.713 156.359 342.49 Q157.837 341.241 158.602 338.336 Q159.774 333.952 159.774 325.975 Q159.774 320.062 158.551 316.111 Q157.633 313.18 156.18 311.957 Q155.136 311.116 153.657 311.116 Q151.924 311.116 150.573 312.671 Q148.738 314.786 148.076 319.323 Q147.413 323.859 147.413 328.268 Z"
     fill="#000000"
     fill-rule="nonzero"
     fill-opacity="1"
     id="path35" />
  <path
     clip-path="url(#clip710)"
     d="M164.769 303.423 Q164.769 298.618 166.219 295.16 Q167.669 291.681 170.071 289.983 Q171.934 288.637 173.922 288.637 Q177.153 288.637 179.721 291.93 Q182.93 296.009 182.93 302.988 Q182.93 307.875 181.522 311.292 Q180.114 314.708 177.919 316.262 Q175.745 317.794 173.715 317.794 Q169.698 317.794 167.027 313.052 Q164.769 309.055 164.769 303.423 M168.828 303.94 Q168.828 309.739 170.257 313.404 Q171.437 316.489 173.777 316.489 Q174.896 316.489 176.097 315.495 Q177.298 314.481 177.919 312.12 Q178.872 308.558 178.872 302.077 Q178.872 297.272 177.878 294.063 Q177.132 291.681 175.952 290.687 Q175.103 290.004 173.902 290.004 Q172.494 290.004 171.396 291.267 Q169.905 292.986 169.367 296.672 Q168.828 300.358 168.828 303.94 Z"
     fill="#000000"
     fill-rule="nonzero"
     fill-opacity="1"
     id="path36" />
  <path
     clip-path="url(#clip710)"
     d="M189.743 313.28 Q190.717 313.28 191.379 313.963 Q192.042 314.626 192.042 315.578 Q192.042 316.531 191.359 317.214 Q190.696 317.877 189.743 317.877 Q188.791 317.877 188.107 317.214 Q187.445 316.531 187.445 315.578 Q187.445 314.605 188.107 313.942 Q188.791 313.28 189.743 313.28 Z"
     fill="#000000"
     fill-rule="nonzero"
     fill-opacity="1"
     id="path37" />
  <path
     clip-path="url(#clip710)"
     d="M199.31 289.217 L214.365 289.217 L214.365 290.004 L205.005 317.877 L202.686 317.877 L211.072 292.592 L203.348 292.592 Q201.008 292.592 200.014 293.151 Q198.275 294.104 197.219 296.092 L196.618 295.864 L199.31 289.217 Z"
     fill="#000000"
     fill-rule="nonzero"
     fill-opacity="1"
     id="path38" />
  <path
     clip-path="url(#clip710)"
     d="M234.659 289.217 L233.044 292.737 L224.595 292.737 L222.752 296.506 Q228.239 297.314 231.449 300.586 Q234.203 303.402 234.203 307.212 Q234.203 309.428 233.292 311.312 Q232.402 313.197 231.035 314.522 Q229.668 315.847 227.991 316.655 Q225.609 317.794 223.104 317.794 Q220.577 317.794 219.418 316.945 Q218.279 316.075 218.279 315.04 Q218.279 314.46 218.755 314.025 Q219.231 313.57 219.956 313.57 Q220.495 313.57 220.888 313.735 Q221.302 313.901 222.276 314.584 Q223.829 315.661 225.423 315.661 Q227.846 315.661 229.668 313.839 Q231.511 311.996 231.511 309.366 Q231.511 306.819 229.875 304.624 Q228.239 302.408 225.361 301.207 Q223.104 300.275 219.211 300.13 L224.595 289.217 L234.659 289.217 Z"
     fill="#000000"
     fill-rule="nonzero"
     fill-opacity="1"
     id="path39" />
  <polyline
     clip-path="url(#clip712)"
     style="stroke:#0066cc;stroke-linecap:round;stroke-linejoin:round;stroke-width:4;stroke-opacity:1;fill:#0066cc;fill-opacity:1"
     stroke-dasharray="16, 10"
     points="300.43,1176.96 339.613,1146.66 375.671,1118.78 409.068,1092.95 440.168,1068.9 469.267,1046.4 496.607,1025.26 522.39,1005.32 546.782,986.458 569.926,968.56 591.944,951.534 612.94,935.297 633.004,919.781 652.217,904.924 670.647,890.672 688.356,876.977 705.398,863.799 721.821,851.099 737.669,838.844 752.98,827.003 767.791,815.55 782.132,804.46 796.032,793.711 809.518,783.282 822.614,773.155 835.341,763.313 847.72,753.74 859.77,744.422 871.507,735.346 882.947,726.499 894.105,717.871 904.995,709.45 915.628,701.227 926.018,693.192 936.174,685.339 946.107,677.657 955.827,670.141 965.343,662.782 974.662,655.575 983.794,648.514 992.745,641.592 1001.52,634.805 1010.13,628.147 1018.58,621.613 1026.88,615.198 1035.02,608.9 1043.02,602.712 1050.88,596.632 1058.61,590.656 1066.21,584.781 1073.68,579.002 1081.03,573.317 1088.27,567.724 1095.39,562.218 1102.4,556.797 1109.3,551.459 1116.1,546.202 1122.8,541.022 1129.4,535.918 1135.9,530.887 1142.32,525.927 1148.64,521.037 1154.88,516.214 1161.03,511.457 1167.1,506.763 1173.09,502.132 1179,497.561 1184.83,493.049 1190.59,488.595 1196.28,484.196 1201.9,479.852 1207.45,475.562 1212.93,471.323 1218.34,467.135 1223.7,462.997 1228.98,458.907 1234.21,454.864 1239.38,450.867 1244.49,446.916 1249.54,443.009 1254.54,439.144 1259.48,435.322 1264.37,431.542 1269.21,427.801 1273.99,424.101 1278.73,420.439 1283.42,416.815 1288.05,413.228 1292.65,409.677 1297.19,406.162 1301.69,402.683 1306.15,399.237 1310.56,395.825 1314.93,392.446 1319.26,389.099 1323.54,385.784 1327.79,382.5 1332,379.247 1336.17,376.023 1340.3,372.829 1344.39,369.664 1348.45,366.527 1352.47,363.418 1356.45,360.337 1360.4,357.282 1364.32,354.254 1368.2,351.252 1372.05,348.275 1375.86,345.324 1379.65,342.397 1383.4,339.494 1387.13,336.616 1390.82,333.76 1394.48,330.928 1398.11,328.119 1401.72,325.332 1405.29,322.567 1408.84,319.824 1412.36,317.102 1415.85,314.401 1419.32,311.721 1422.76,309.061 1426.17,306.421 1429.56,303.801 1432.92,301.2 1436.26,298.619 1439.57,296.056 1442.86,293.513 1446.13,290.987 1449.37,288.48 1452.59,285.99 1455.79,283.518 1458.96,281.064 1462.11,278.626 1465.25,276.205 1468.35,273.801 1471.44,271.414 1474.51,269.042 1477.55,266.687 1480.58,264.347 1483.59,262.023 1486.57,259.714 1489.54,257.42 1492.48,255.141 1495.41,252.877 1498.32,250.628 1501.21,248.393 1504.08,246.172 1506.94,243.965 1509.77,241.772 1512.59,239.592 1515.39,237.426 1518.18,235.274 1520.94,233.134 1523.69,231.008 1526.43,228.894 1529.14,226.793 1531.84,224.705 1534.53,222.629 1537.2,220.565 1539.85,218.514 1542.49,216.474 1545.11,214.446 1547.72,212.43 1550.31,210.425 1552.89,208.432 1555.45,206.45 1558,204.479 1560.53,202.52 1563.05,200.571 1565.56,198.633 1568.05,196.705 1570.53,194.789 1572.99,192.882 1575.45,190.986 1577.89,189.1 1580.31,187.225 1582.72,185.359 1585.12,183.503 1587.51,181.657 1589.88,179.821 1592.25,177.994 1594.6,176.177 1596.93,174.369 1599.26,172.571 1601.57,170.781 1603.88,169.001 1606.17,167.23 1608.45,165.467 1610.71,163.714 1612.97,161.969 1615.21,160.233 1617.45,158.505 1619.67,156.786 1621.88,155.076 1624.09,153.373 1626.28,151.679 1628.46,149.993 1630.63,148.316 1632.79,146.646 "
     id="polyline73" />
  <circle
     clip-path="url(#clip712)"
     cx="570.95"
     cy="974.085"
     r="14.4"
     fill="#0066cc"
     fill-rule="evenodd"
     fill-opacity="1"
     stroke="#000000"
     stroke-opacity="1"
     stroke-width="2.8"
     id="circle54" />
  <circle
     clip-path="url(#clip712)"
     cx="627.586"
     cy="955.876"
     r="14.4"
     fill="#0066cc"
     fill-rule="evenodd"
     fill-opacity="1"
     stroke="#000000"
     stroke-opacity="1"
     stroke-width="2.8"
     id="circle55" />
  <circle
     clip-path="url(#clip712)"
     cx="677.916"
     cy="877.219"
     r="14.4"
     fill="#0066cc"
     fill-rule="evenodd"
     fill-opacity="1"
     stroke="#000000"
     stroke-opacity="1"
     stroke-width="2.8"
     id="circle56" />
  <circle
     clip-path="url(#clip712)"
     cx="744.254"
     cy="817.094"
     r="14.4"
     fill="#0066cc"
     fill-rule="evenodd"
     fill-opacity="1"
     stroke="#000000"
     stroke-opacity="1"
     stroke-width="2.8"
     id="circle57" />
  <circle
     clip-path="url(#clip712)"
     cx="783.626"
     cy="802.048"
     r="14.4"
     fill="#0066cc"
     fill-rule="evenodd"
     fill-opacity="1"
     stroke="#000000"
     stroke-opacity="1"
     stroke-width="2.8"
     id="circle58" />
  <circle
     clip-path="url(#clip712)"
     cx="836.923"
     cy="759.985"
     r="14.4"
     fill="#0066cc"
     fill-rule="evenodd"
     fill-opacity="1"
     stroke="#000000"
     stroke-opacity="1"
     stroke-width="2.8"
     id="circle59" />
  <circle
     clip-path="url(#clip712)"
     cx="899.436"
     cy="708.985"
     r="14.4"
     fill="#0066cc"
     fill-rule="evenodd"
     fill-opacity="1"
     stroke="#000000"
     stroke-opacity="1"
     stroke-width="2.8"
     id="circle60" />
  <circle
     clip-path="url(#clip712)"
     cx="954.352"
     cy="651.446"
     r="14.4"
     fill="#0066cc"
     fill-rule="evenodd"
     fill-opacity="1"
     stroke="#000000"
     stroke-opacity="1"
     stroke-width="2.8"
     id="circle61" />
  <circle
     clip-path="url(#clip712)"
     cx="1014.77"
     cy="622.586"
     r="14.4"
     fill="#0066cc"
     fill-rule="evenodd"
     fill-opacity="1"
     stroke="#000000"
     stroke-opacity="1"
     stroke-width="2.8"
     id="circle62" />
  <circle
     clip-path="url(#clip712)"
     cx="1068.07"
     cy="581.197"
     r="14.4"
     fill="#0066cc"
     fill-rule="evenodd"
     fill-opacity="1"
     stroke="#000000"
     stroke-opacity="1"
     stroke-width="2.8"
     id="circle63" />
  <circle
     clip-path="url(#clip712)"
     cx="1115.75"
     cy="546.975"
     r="14.4"
     fill="#0066cc"
     fill-rule="evenodd"
     fill-opacity="1"
     stroke="#000000"
     stroke-opacity="1"
     stroke-width="2.8"
     id="circle64" />
  <circle
     clip-path="url(#clip712)"
     cx="1175.04"
     cy="509.859"
     r="14.4"
     fill="#0066cc"
     fill-rule="evenodd"
     fill-opacity="1"
     stroke="#000000"
     stroke-opacity="1"
     stroke-width="2.8"
     id="circle65" />
  <circle
     clip-path="url(#clip712)"
     cx="1227.45"
     cy="476.844"
     r="14.4"
     fill="#0066cc"
     fill-rule="evenodd"
     fill-opacity="1"
     stroke="#000000"
     stroke-opacity="1"
     stroke-width="2.8"
     id="circle66" />
  <circle
     clip-path="url(#clip712)"
     cx="1280.75"
     cy="377.208"
     r="14.4"
     fill="#0066cc"
     fill-rule="evenodd"
     fill-opacity="1"
     stroke="#000000"
     stroke-opacity="1"
     stroke-width="2.8"
     id="circle67" />
  <circle
     clip-path="url(#clip712)"
     cx="1339.6"
     cy="407.659"
     r="14.4"
     fill="#0066cc"
     fill-rule="evenodd"
     fill-opacity="1"
     stroke="#000000"
     stroke-opacity="1"
     stroke-width="2.8"
     id="circle68" />
  <circle
     clip-path="url(#clip712)"
     cx="1391.66"
     cy="333.281"
     r="14.4"
     fill="#0066cc"
     fill-rule="evenodd"
     fill-opacity="1"
     stroke="#000000"
     stroke-opacity="1"
     stroke-width="2.8"
     id="circle69" />
  <circle
     clip-path="url(#clip712)"
     cx="1447.14"
     cy="303.66"
     r="14.4"
     fill="#0066cc"
     fill-rule="evenodd"
     fill-opacity="1"
     stroke="#000000"
     stroke-opacity="1"
     stroke-width="2.8"
     id="circle70" />
  <circle
     clip-path="url(#clip712)"
     cx="1504.29"
     cy="215.579"
     r="14.4"
     fill="#0066cc"
     fill-rule="evenodd"
     fill-opacity="1"
     stroke="#000000"
     stroke-opacity="1"
     stroke-width="2.8"
     id="circle71" />
  <circle
     clip-path="url(#clip712)"
     cx="1558.44"
     cy="204.361"
     r="14.4"
     fill="#0066cc"
     fill-rule="evenodd"
     fill-opacity="1"
     stroke="#000000"
     stroke-opacity="1"
     stroke-width="2.8"
     id="circle72" />
  <circle
     clip-path="url(#clip712)"
     cx="1612.87"
     cy="177.864"
     r="14.4"
     fill="#0066cc"
     fill-rule="evenodd"
     fill-opacity="1"
     stroke="#000000"
     stroke-opacity="1"
     stroke-width="2.8"
     id="circle73" />
  <g
     data-mml-node="msubsup"
     data-latex="\tau^{|m|}_\text{int}"
     data-semantic-type="subsup"
     data-semantic-role="greekletter"
     data-semantic-annotation="depth:1"
     data-semantic-id="7"
     data-semantic-children="0,1,5"
     data-semantic-attributes="latex:\tau^{|m|}_\text{int}"
     data-semantic-collapsed="(7 (6 0 1) 5)"
     data-semantic-owns="0 1 5"
     aria-level="0"
     data-speech-node="true"
     id="g8"
     transform="matrix(0,-0.04543512,-0.04543512,0,92.19076,669.39783)"
     style="fill:#000000;stroke:#000000;stroke-width:0">
    <g
       data-mml-node="mi"
       data-latex="\tau"
       data-semantic-type="identifier"
       data-semantic-role="greekletter"
       data-semantic-font="italic"
       data-semantic-annotation="clearspeak:simple;nemeth:number;depth:3"
       data-semantic-id="0"
       data-semantic-parent="7"
       data-semantic-attributes="latex:\tau"
       aria-level="2"
       data-speech-node="true"
       id="g1">
      <path
         id="use1"
         d="M 468,431 H 192 C 139,431 91,397 47,330 34,310 27,297 27,292 c 3,-8 4,-13 16,-13 7,0 13,4 19,13 32,49 72,74 121,74 h 77 L 165,56 c -7,-22 -10,-35 -10,-38 0,-20 11,-30 32,-30 11,0 21,3 27,9 13,12 14,15 18,36 l 65,333 h 162 c 35,0 52,12 52,37 0,23 -18,28 -43,28 z" />
    </g>
    <g
       data-mml-node="TeXAtom"
       transform="matrix(0.707,0,0,0.707,597.7,530.4)"
       data-mjx-texclass="ORD"
       data-latex="{|m|}"
       data-semantic-type="fenced"
       data-semantic-role="neutral"
       data-semantic-annotation="depth:2"
       data-semantic-id="5"
       data-semantic-children="3"
       data-semantic-content="2,4"
       data-semantic-parent="7"
       data-semantic-attributes="latex:{|m|};texclass:ORD"
       data-semantic-owns="2 3 4"
       aria-level="1"
       data-speech-node="true"
       id="g5">
      <g
         data-mml-node="mo"
         data-mjx-texclass="ORD"
         data-latex="|"
         data-semantic-type="fence"
         data-semantic-role="neutral"
         data-semantic-annotation="depth:3"
         data-semantic-id="2"
         data-semantic-parent="5"
         data-semantic-attributes="latex:|;texclass:ORD"
         data-semantic-operator="fenced"
         aria-level="2"
         data-speech-node="true"
         id="g2">
        <path
           id="use2"
           d="m 139,-250 c 13,0 20,8 20,24 v 952 c 0,16 -7,24 -20,24 -13,0 -20,-8 -20,-24 v -952 c 0,-16 7,-24 20,-24 z" />
      </g>
      <g
         data-mml-node="mi"
         data-latex="m"
         data-semantic-type="identifier"
         data-semantic-role="latinletter"
         data-semantic-font="italic"
         data-semantic-annotation="clearspeak:simple;depth:3"
         data-semantic-id="3"
         data-semantic-parent="5"
         data-semantic-attributes="latex:m"
         aria-level="2"
         data-speech-node="true"
         transform="translate(278)"
         id="g3">
        <path
           id="use3"
           d="m 657,442 c -61,0 -114,-30 -159,-89 -9,59 -47,89 -115,89 -59,0 -110,-26 -152,-79 -8,44 -43,79 -94,79 -41,0 -71,-33 -92,-98 -11,-32 -16,-51 -16,-57 0,-9 5,-14 16,-14 5,0 8,1 11,3 5,9 8,16 10,23 18,76 41,114 68,114 18,0 27,-14 27,-42 0,-13 -5,-40 -16,-81 L 88,63 C 84,51 79,25 79,19 c 0,-20 11,-30 32,-30 20,0 34,10 41,30 1,5 8,30 19,73 l 21,89 30,114 c 11,23 28,46 50,70 29,32 65,48 108,48 33,0 49,-22 49,-65 0,-13 -5,-40 -15,-81 L 387,153 c -7,-29 -23,-89 -31,-121 -1,-7 -2,-11 -2,-13 0,-20 11,-30 33,-30 11,0 19,3 26,10 15,15 16,22 22,49 l 59,237 c 3,13 17,36 41,68 30,40 70,60 119,60 33,0 49,-22 49,-65 0,-39 -20,-112 -61,-219 -9,-23 -13,-42 -13,-55 0,-49 37,-85 85,-85 45,0 79,25 104,75 20,40 30,67 30,80 0,9 -5,14 -16,14 -7,-1 -14,-10 -19,-21 C 791,58 759,18 716,18 c -13,0 -20,10 -20,29 0,15 6,37 18,68 41,107 61,180 61,218 0,71 -47,109 -118,109 z" />
      </g>
      <g
         data-mml-node="mo"
         data-mjx-texclass="ORD"
         data-latex="|"
         data-semantic-type="fence"
         data-semantic-role="neutral"
         data-semantic-annotation="depth:3"
         data-semantic-id="4"
         data-semantic-parent="5"
         data-semantic-attributes="latex:|;texclass:ORD"
         data-semantic-operator="fenced"
         aria-level="2"
         data-speech-node="true"
         transform="translate(1156)"
         id="g4">
        <path
           id="use4"
           d="m 139,-250 c 13,0 20,8 20,24 v 952 c 0,16 -7,24 -20,24 -13,0 -20,-8 -20,-24 v -952 c 0,-16 7,-24 20,-24 z" />
      </g>
    </g>
    <g
       data-mml-node="mtext"
       transform="matrix(0.707,0,0,0.707,470,-291)"
       data-latex="{int}"
       data-semantic-type="text"
       data-semantic-role="unknown"
       data-semantic-font="normal"
       data-semantic-annotation="clearspeak:unit;depth:3"
       data-semantic-id="1"
       data-semantic-parent="7"
       data-semantic-attributes="latex:{int}"
       aria-level="2"
       data-speech-node="true"
       id="g7">
      <path
         id="use5"
         d="m 194,601 c 0,30 -25,56 -55,56 -30,0 -56,-26 -56,-56 0,-30 25,-57 55,-57 31,0 56,26 56,57 M 143,3 247,0 v 39 c -33,0 -53,2 -59,6 -6,4 -8,15 -8,33 V 445 L 37,433 v -38 c 33,0 54,-3 61,-8 7,-5 10,-19 10,-42 V 79 C 108,60 105,48 98,44 91,40 69,39 33,39 V 0 Z" />
      <path
         id="use6"
         d="m 592,413 c 45,0 68,-35 68,-106 V 79 c 0,-19 -3,-31 -10,-35 -7,-4 -29,-6 -66,-6 V 0 L 699,3 813,0 v 38 c -32,0 -53,1 -63,4 -10,3 -14,10 -14,22 v 187 c 0,47 -1,80 -4,99 -10,61 -55,92 -134,92 -63,0 -110,-30 -141,-90 v 90 L 310,431 v -38 c 36,0 58,-3 66,-9 8,-6 11,-19 11,-42 V 79 c 0,-19 -4,-31 -11,-35 -7,-4 -29,-6 -66,-6 V 0 L 425,3 539,0 v 38 c -37,0 -58,2 -65,6 -7,4 -11,16 -11,35 v 180 c 0,81 51,154 129,154 z" />
      <path
         id="use7"
         d="m 1166,126 v 60 h -32 v -58 c 0,-50 -18,-106 -62,-106 -41,0 -61,34 -61,102 v 271 h 139 v 38 H 1011 V 615 H 979 C 978,582 975,553 968,527 951,461 912,427 853,424 v -29 h 83 V 126 c 0,-59 18,-97 53,-116 27,-14 52,-21 77,-21 66,0 100,66 100,137 z" />
    </g>
  </g>
</svg>
