<?xml version="1.0" encoding="UTF-8" standalone="no"?>
<svg
   width="430"
   height="350"
   viewBox="0 0 1720 1400"
   version="1.1"
   id="svg77"
   sodipodi:docname="tau_exp_wolff_sqr.svg"
   inkscape:version="1.4.2 (ebf0e940, 2025-05-08)"
   xmlns:inkscape="http://www.inkscape.org/namespaces/inkscape"
   xmlns:sodipodi="http://sodipodi.sourceforge.net/DTD/sodipodi-0.dtd"
   xmlns="http://www.w3.org/2000/svg"
   xmlns:svg="http://www.w3.org/2000/svg">
  <sodipodi:namedview
     id="namedview77"
     pagecolor="#ffffff"
     bordercolor="#000000"
     borderopacity="0.25"
     inkscape:showpageshadow="2"
     inkscape:pageopacity="0.0"
     inkscape:pagecheckerboard="0"
     inkscape:deskcolor="#d1d1d1"
     inkscape:zoom="1.913463"
     inkscape:cx="128.56272"
     inkscape:cy="244.06012"
     inkscape:window-width="1728"
     inkscape:window-height="1055"
     inkscape:window-x="0"
     inkscape:window-y="34"
     inkscape:window-maximized="1"
     inkscape:current-layer="svg77" />
  <defs
     id="defs1">
    <clipPath
       id="clip680">
      <rect
         x="0"
         y="0"
         width="1720"
         height="1400"
         id="rect1" />
    </clipPath>
  </defs>
  <path
     clip-path="url(#clip680)"
     d="M0 1400 L1720 1400 L1720 -4.44089e-15 L0 -4.44089e-15  Z"
     fill="#ffffff"
     fill-rule="evenodd"
     fill-opacity="1"
     id="path1" />
  <defs
     id="defs2">
    <clipPath
       id="clip681">
      <rect
         x="344"
         y="0"
         width="1205"
         height="1205"
         id="rect2" />
    </clipPath>
  </defs>
  <path
     clip-path="url(#clip680)"
     d="M232.199 1207.87 L1672.76 1207.87 L1672.76 115.736 L232.199 115.736  Z"
     fill="#ffffff"
     fill-rule="evenodd"
     fill-opacity="1"
     id="path2" />
  <defs
     id="defs3">
    <clipPath
       id="clip682">
      <rect
         x="232"
         y="115"
         width="1442"
         height="1093"
         id="rect3" />
    </clipPath>
  </defs>
  <polyline
     clip-path="url(#clip682)"
     style="stroke:#000000; stroke-linecap:round; stroke-linejoin:round; stroke-width:2; stroke-opacity:0.1; fill:none"
     points="573.218,1207.87 573.218,115.736 "
     id="polyline3" />
  <polyline
     clip-path="url(#clip682)"
     style="stroke:#000000; stroke-linecap:round; stroke-linejoin:round; stroke-width:2; stroke-opacity:0.1; fill:none"
     points="1104.6,1207.87 1104.6,115.736 "
     id="polyline4" />
  <polyline
     clip-path="url(#clip682)"
     style="stroke:#000000; stroke-linecap:round; stroke-linejoin:round; stroke-width:2; stroke-opacity:0.1; fill:none"
     points="1635.98,1207.87 1635.98,115.736 "
     id="polyline5" />
  <polyline
     clip-path="url(#clip682)"
     style="stroke:#000000; stroke-linecap:round; stroke-linejoin:round; stroke-width:2; stroke-opacity:0.1; fill:none"
     points="232.199,909.489 1672.76,909.489 "
     id="polyline6" />
  <polyline
     clip-path="url(#clip682)"
     style="stroke:#000000; stroke-linecap:round; stroke-linejoin:round; stroke-width:2; stroke-opacity:0.1; fill:none"
     points="232.199,411.133 1672.76,411.133 "
     id="polyline7" />
  <polyline
     clip-path="url(#clip680)"
     style="stroke:#000000; stroke-linecap:round; stroke-linejoin:round; stroke-width:4; stroke-opacity:1; fill:none"
     points="232.199,1207.87 1672.76,1207.87 "
     id="polyline8" />
  <polyline
     clip-path="url(#clip680)"
     style="stroke:#000000; stroke-linecap:round; stroke-linejoin:round; stroke-width:4; stroke-opacity:1; fill:none"
     points="573.218,1207.87 573.218,1188.97 "
     id="polyline9" />
  <polyline
     clip-path="url(#clip680)"
     style="stroke:#000000; stroke-linecap:round; stroke-linejoin:round; stroke-width:4; stroke-opacity:1; fill:none"
     points="1104.6,1207.87 1104.6,1188.97 "
     id="polyline10" />
  <polyline
     clip-path="url(#clip680)"
     style="stroke:#000000; stroke-linecap:round; stroke-linejoin:round; stroke-width:4; stroke-opacity:1; fill:none"
     points="1635.98,1207.87 1635.98,1188.97 "
     id="polyline11" />
  <path
     clip-path="url(#clip680)"
     d="M528.485 1249.32 L536.895 1245.22 L537.736 1245.22 L537.736 1274.4 Q537.736 1277.31 537.966 1278.02 Q538.221 1278.73 538.985 1279.12 Q539.75 1279.5 542.095 1279.55 L542.095 1280.49 L529.096 1280.49 L529.096 1279.55 Q531.543 1279.5 532.257 1279.14 Q532.97 1278.76 533.251 1278.15 Q533.531 1277.51 533.531 1274.4 L533.531 1255.74 Q533.531 1251.97 533.276 1250.9 Q533.098 1250.09 532.614 1249.7 Q532.155 1249.32 531.492 1249.32 Q530.549 1249.32 528.867 1250.11 L528.485 1249.32 Z"
     fill="#000000"
     fill-rule="nonzero"
     fill-opacity="1"
     id="path11" />
  <path
     clip-path="url(#clip680)"
     d="M550.352 1263.42 Q550.352 1257.5 552.136 1253.25 Q553.921 1248.97 556.877 1246.88 Q559.171 1245.22 561.618 1245.22 Q565.593 1245.22 568.754 1249.27 Q572.704 1254.29 572.704 1262.88 Q572.704 1268.9 570.971 1273.1 Q569.238 1277.31 566.536 1279.22 Q563.86 1281.1 561.363 1281.1 Q556.418 1281.1 553.13 1275.27 Q550.352 1270.35 550.352 1263.42 M555.348 1264.05 Q555.348 1271.19 557.106 1275.7 Q558.559 1279.5 561.439 1279.5 Q562.815 1279.5 564.294 1278.27 Q565.772 1277.03 566.536 1274.12 Q567.709 1269.74 567.709 1261.76 Q567.709 1255.85 566.486 1251.9 Q565.568 1248.97 564.115 1247.74 Q563.07 1246.9 561.592 1246.9 Q559.859 1246.9 558.508 1248.46 Q556.673 1250.57 556.01 1255.11 Q555.348 1259.64 555.348 1264.05 Z"
     fill="#000000"
     fill-rule="nonzero"
     fill-opacity="1"
     id="path12" />
  <path
     clip-path="url(#clip680)"
     d="M572.704 1227.76 L579.538 1224.42 L580.221 1224.42 L580.221 1248.13 Q580.221 1250.49 580.408 1251.07 Q580.615 1251.65 581.236 1251.96 Q581.857 1252.27 583.762 1252.32 L583.762 1253.08 L573.201 1253.08 L573.201 1252.32 Q575.189 1252.27 575.769 1251.98 Q576.349 1251.67 576.577 1251.18 Q576.804 1250.66 576.804 1248.13 L576.804 1232.97 Q576.804 1229.91 576.597 1229.04 Q576.452 1228.38 576.059 1228.07 Q575.686 1227.76 575.148 1227.76 Q574.382 1227.76 573.015 1228.4 L572.704 1227.76 Z"
     fill="#000000"
     fill-rule="nonzero"
     fill-opacity="1"
     id="path13" />
  <path
     clip-path="url(#clip680)"
     d="M594.241 1249.06 Q595.214 1249.06 595.876 1249.75 Q596.539 1250.41 596.539 1251.36 Q596.539 1252.32 595.856 1253 Q595.193 1253.66 594.241 1253.66 Q593.288 1253.66 592.605 1253 Q591.942 1252.32 591.942 1251.36 Q591.942 1250.39 592.605 1249.73 Q593.288 1249.06 594.241 1249.06 Z"
     fill="#000000"
     fill-rule="nonzero"
     fill-opacity="1"
     id="path14" />
  <path
     clip-path="url(#clip680)"
     d="M617.951 1225 L616.336 1228.52 L607.887 1228.52 L606.044 1232.29 Q611.532 1233.1 614.741 1236.37 Q617.496 1239.19 617.496 1243 Q617.496 1245.21 616.584 1247.1 Q615.694 1248.98 614.327 1250.31 Q612.961 1251.63 611.283 1252.44 Q608.902 1253.58 606.396 1253.58 Q603.87 1253.58 602.71 1252.73 Q601.571 1251.86 601.571 1250.82 Q601.571 1250.24 602.047 1249.81 Q602.524 1249.35 603.249 1249.35 Q603.787 1249.35 604.18 1249.52 Q604.595 1249.69 605.568 1250.37 Q607.121 1251.45 608.715 1251.45 Q611.138 1251.45 612.961 1249.62 Q614.804 1247.78 614.804 1245.15 Q614.804 1242.6 613.168 1240.41 Q611.532 1238.19 608.653 1236.99 Q606.396 1236.06 602.503 1235.91 L607.887 1225 L617.951 1225 Z"
     fill="#000000"
     fill-rule="nonzero"
     fill-opacity="1"
     id="path15" />
  <path
     clip-path="url(#clip680)"
     d="M1057.2 1249.32 L1065.61 1245.22 L1066.45 1245.22 L1066.45 1274.4 Q1066.45 1277.31 1066.68 1278.02 Q1066.93 1278.73 1067.7 1279.12 Q1068.46 1279.5 1070.81 1279.55 L1070.81 1280.49 L1057.81 1280.49 L1057.81 1279.55 Q1060.25 1279.5 1060.97 1279.14 Q1061.68 1278.76 1061.96 1278.15 Q1062.24 1277.51 1062.24 1274.4 L1062.24 1255.74 Q1062.24 1251.97 1061.99 1250.9 Q1061.81 1250.09 1061.33 1249.7 Q1060.87 1249.32 1060.2 1249.32 Q1059.26 1249.32 1057.58 1250.11 L1057.2 1249.32 Z"
     fill="#000000"
     fill-rule="nonzero"
     fill-opacity="1"
     id="path16" />
  <path
     clip-path="url(#clip680)"
     d="M1079.06 1263.42 Q1079.06 1257.5 1080.85 1253.25 Q1082.63 1248.97 1085.59 1246.88 Q1087.88 1245.22 1090.33 1245.22 Q1094.31 1245.22 1097.47 1249.27 Q1101.42 1254.29 1101.42 1262.88 Q1101.42 1268.9 1099.68 1273.1 Q1097.95 1277.31 1095.25 1279.22 Q1092.57 1281.1 1090.07 1281.1 Q1085.13 1281.1 1081.84 1275.27 Q1079.06 1270.35 1079.06 1263.42 M1084.06 1264.05 Q1084.06 1271.19 1085.82 1275.7 Q1087.27 1279.5 1090.15 1279.5 Q1091.53 1279.5 1093.01 1278.27 Q1094.48 1277.03 1095.25 1274.12 Q1096.42 1269.74 1096.42 1261.76 Q1096.42 1255.85 1095.2 1251.9 Q1094.28 1248.97 1092.83 1247.74 Q1091.78 1246.9 1090.3 1246.9 Q1088.57 1246.9 1087.22 1248.46 Q1085.38 1250.57 1084.72 1255.11 Q1084.06 1259.64 1084.06 1264.05 Z"
     fill="#000000"
     fill-rule="nonzero"
     fill-opacity="1"
     id="path17" />
  <path
     clip-path="url(#clip680)"
     d="M1119.95 1247.68 L1117.98 1253.08 L1101.42 1253.08 L1101.42 1252.32 Q1108.73 1245.65 1111.71 1241.42 Q1114.69 1237.2 1114.69 1233.7 Q1114.69 1231.03 1113.05 1229.31 Q1111.42 1227.59 1109.14 1227.59 Q1107.07 1227.59 1105.41 1228.81 Q1103.78 1230.01 1102.99 1232.35 L1102.22 1232.35 Q1102.74 1228.52 1104.87 1226.47 Q1107.03 1224.42 1110.24 1224.42 Q1113.65 1224.42 1115.93 1226.62 Q1118.23 1228.81 1118.23 1231.79 Q1118.23 1233.93 1117.24 1236.06 Q1115.7 1239.41 1112.27 1243.16 Q1107.11 1248.8 1105.83 1249.95 L1113.16 1249.95 Q1115.39 1249.95 1116.28 1249.79 Q1117.2 1249.62 1117.92 1249.13 Q1118.64 1248.61 1119.18 1247.68 L1119.95 1247.68 Z"
     fill="#000000"
     fill-rule="nonzero"
     fill-opacity="1"
     id="path18" />
  <path
     clip-path="url(#clip680)"
     d="M1127.01 1249.06 Q1127.98 1249.06 1128.65 1249.75 Q1129.31 1250.41 1129.31 1251.36 Q1129.31 1252.32 1128.63 1253 Q1127.96 1253.66 1127.01 1253.66 Q1126.06 1253.66 1125.38 1253 Q1124.71 1252.32 1124.71 1251.36 Q1124.71 1250.39 1125.38 1249.73 Q1126.06 1249.06 1127.01 1249.06 Z"
     fill="#000000"
     fill-rule="nonzero"
     fill-opacity="1"
     id="path19" />
  <path
     clip-path="url(#clip680)"
     d="M1133.84 1239.21 Q1133.84 1234.4 1135.29 1230.95 Q1136.74 1227.47 1139.15 1225.77 Q1141.01 1224.42 1143 1224.42 Q1146.23 1224.42 1148.8 1227.71 Q1152.01 1231.79 1152.01 1238.77 Q1152.01 1243.66 1150.6 1247.08 Q1149.19 1250.49 1146.99 1252.05 Q1144.82 1253.58 1142.79 1253.58 Q1138.77 1253.58 1136.1 1248.84 Q1133.84 1244.84 1133.84 1239.21 M1137.9 1239.73 Q1137.9 1245.52 1139.33 1249.19 Q1140.51 1252.27 1142.85 1252.27 Q1143.97 1252.27 1145.17 1251.28 Q1146.37 1250.27 1146.99 1247.9 Q1147.95 1244.34 1147.95 1237.86 Q1147.95 1233.06 1146.95 1229.85 Q1146.21 1227.47 1145.03 1226.47 Q1144.18 1225.79 1142.98 1225.79 Q1141.57 1225.79 1140.47 1227.05 Q1138.98 1228.77 1138.44 1232.46 Q1137.9 1236.14 1137.9 1239.73 Z"
     fill="#000000"
     fill-rule="nonzero"
     fill-opacity="1"
     id="path20" />
  <path
     clip-path="url(#clip680)"
     d="M1589.22 1249.32 L1597.63 1245.22 L1598.47 1245.22 L1598.47 1274.4 Q1598.47 1277.31 1598.7 1278.02 Q1598.96 1278.73 1599.72 1279.12 Q1600.49 1279.5 1602.83 1279.55 L1602.83 1280.49 L1589.83 1280.49 L1589.83 1279.55 Q1592.28 1279.5 1592.99 1279.14 Q1593.71 1278.76 1593.99 1278.15 Q1594.27 1277.51 1594.27 1274.4 L1594.27 1255.74 Q1594.27 1251.97 1594.01 1250.9 Q1593.83 1250.09 1593.35 1249.7 Q1592.89 1249.32 1592.23 1249.32 Q1591.29 1249.32 1589.6 1250.11 L1589.22 1249.32 Z"
     fill="#000000"
     fill-rule="nonzero"
     fill-opacity="1"
     id="path21" />
  <path
     clip-path="url(#clip680)"
     d="M1611.09 1263.42 Q1611.09 1257.5 1612.87 1253.25 Q1614.66 1248.97 1617.61 1246.88 Q1619.91 1245.22 1622.35 1245.22 Q1626.33 1245.22 1629.49 1249.27 Q1633.44 1254.29 1633.44 1262.88 Q1633.44 1268.9 1631.71 1273.1 Q1629.97 1277.31 1627.27 1279.22 Q1624.6 1281.1 1622.1 1281.1 Q1617.15 1281.1 1613.87 1275.27 Q1611.09 1270.35 1611.09 1263.42 M1616.08 1264.05 Q1616.08 1271.19 1617.84 1275.7 Q1619.3 1279.5 1622.18 1279.5 Q1623.55 1279.5 1625.03 1278.27 Q1626.51 1277.03 1627.27 1274.12 Q1628.45 1269.74 1628.45 1261.76 Q1628.45 1255.85 1627.22 1251.9 Q1626.3 1248.97 1624.85 1247.74 Q1623.81 1246.9 1622.33 1246.9 Q1620.6 1246.9 1619.24 1248.46 Q1617.41 1250.57 1616.75 1255.11 Q1616.08 1259.64 1616.08 1264.05 Z"
     fill="#000000"
     fill-rule="nonzero"
     fill-opacity="1"
     id="path22" />
  <path
     clip-path="url(#clip680)"
     d="M1651.97 1247.68 L1650.01 1253.08 L1633.44 1253.08 L1633.44 1252.32 Q1640.75 1245.65 1643.73 1241.42 Q1646.71 1237.2 1646.71 1233.7 Q1646.71 1231.03 1645.08 1229.31 Q1643.44 1227.59 1641.17 1227.59 Q1639.09 1227.59 1637.44 1228.81 Q1635.8 1230.01 1635.01 1232.35 L1634.25 1232.35 Q1634.77 1228.52 1636.9 1226.47 Q1639.05 1224.42 1642.26 1224.42 Q1645.68 1224.42 1647.96 1226.62 Q1650.26 1228.81 1650.26 1231.79 Q1650.26 1233.93 1649.26 1236.06 Q1647.73 1239.41 1644.29 1243.16 Q1639.14 1248.8 1637.85 1249.95 L1645.18 1249.95 Q1647.42 1249.95 1648.31 1249.79 Q1649.22 1249.62 1649.95 1249.13 Q1650.67 1248.61 1651.21 1247.68 L1651.97 1247.68 Z"
     fill="#000000"
     fill-rule="nonzero"
     fill-opacity="1"
     id="path23" />
  <path
     clip-path="url(#clip680)"
     d="M1659.04 1249.06 Q1660.01 1249.06 1660.67 1249.75 Q1661.33 1250.41 1661.33 1251.36 Q1661.33 1252.32 1660.65 1253 Q1659.99 1253.66 1659.04 1253.66 Q1658.08 1253.66 1657.4 1253 Q1656.74 1252.32 1656.74 1251.36 Q1656.74 1250.39 1657.4 1249.73 Q1658.08 1249.06 1659.04 1249.06 Z"
     fill="#000000"
     fill-rule="nonzero"
     fill-opacity="1"
     id="path24" />
  <path
     clip-path="url(#clip680)"
     d="M1682.75 1225 L1681.13 1228.52 L1672.68 1228.52 L1670.84 1232.29 Q1676.33 1233.1 1679.54 1236.37 Q1682.29 1239.19 1682.29 1243 Q1682.29 1245.21 1681.38 1247.1 Q1680.49 1248.98 1679.12 1250.31 Q1677.76 1251.63 1676.08 1252.44 Q1673.7 1253.58 1671.19 1253.58 Q1668.67 1253.58 1667.51 1252.73 Q1666.37 1251.86 1666.37 1250.82 Q1666.37 1250.24 1666.84 1249.81 Q1667.32 1249.35 1668.04 1249.35 Q1668.58 1249.35 1668.98 1249.52 Q1669.39 1249.69 1670.36 1250.37 Q1671.92 1251.45 1673.51 1251.45 Q1675.93 1251.45 1677.76 1249.62 Q1679.6 1247.78 1679.6 1245.15 Q1679.6 1242.6 1677.96 1240.41 Q1676.33 1238.19 1673.45 1236.99 Q1671.19 1236.06 1667.3 1235.91 L1672.68 1225 L1682.75 1225 Z"
     fill="#000000"
     fill-rule="nonzero"
     fill-opacity="1"
     id="path25" />
  <path
     clip-path="url(#clip680)"
     d="M965.281 1329.05 Q965.281 1329.19 965.094 1329.73 L961.299 1340.08 Q961.088 1340.69 960.878 1340.81 Q960.667 1340.9 959.8 1340.9 L937.596 1340.9 Q937.057 1340.9 936.846 1340.88 Q936.635 1340.85 936.471 1340.73 Q936.307 1340.62 936.307 1340.36 Q936.307 1339.89 936.471 1339.68 Q936.659 1339.47 936.87 1339.45 Q937.08 1339.42 937.596 1339.42 Q938.767 1339.42 939.469 1339.35 Q940.172 1339.28 940.617 1339.19 Q941.086 1339.07 941.32 1338.74 Q941.577 1338.42 941.695 1338.13 Q941.812 1337.83 941.976 1337.15 L948.393 1311.39 Q948.581 1310.61 948.581 1310.5 Q948.581 1310.05 948.3 1309.93 Q948.042 1309.79 947.292 1309.72 L945.466 1309.63 Q944.903 1309.63 944.669 1309.61 Q944.458 1309.58 944.294 1309.47 Q944.13 1309.35 944.13 1309.09 Q944.13 1308.65 944.294 1308.44 Q944.482 1308.2 944.622 1308.18 Q944.786 1308.13 945.044 1308.13 L951.415 1308.27 L958.512 1308.13 Q959.285 1308.13 959.285 1308.72 Q959.285 1309.37 958.957 1309.51 Q958.629 1309.63 957.458 1309.63 Q955.209 1309.63 954.179 1309.86 Q953.172 1310.1 952.89 1310.5 Q952.633 1310.87 952.375 1311.88 L945.887 1337.78 Q945.653 1338.65 945.653 1338.88 Q945.653 1339.14 945.77 1339.24 Q945.911 1339.31 946.285 1339.35 Q946.707 1339.42 947.339 1339.42 L951.836 1339.42 Q953.195 1339.42 954.389 1339.21 Q955.584 1339 956.498 1338.7 Q957.434 1338.39 958.278 1337.83 Q959.121 1337.27 959.706 1336.78 Q960.315 1336.26 960.901 1335.46 Q961.51 1334.65 961.861 1334.08 Q962.236 1333.5 962.658 1332.56 Q963.079 1331.6 963.29 1331.06 Q963.524 1330.5 963.876 1329.54 Q964.086 1329.05 964.157 1328.91 Q964.227 1328.77 964.344 1328.65 Q964.485 1328.53 964.695 1328.53 Q964.976 1328.53 965.117 1328.7 Q965.281 1328.86 965.281 1329.05 Z"
     fill="#000000"
     fill-rule="nonzero"
     fill-opacity="1"
     id="path26" />
  <polyline
     clip-path="url(#clip680)"
     style="stroke:#000000; stroke-linecap:round; stroke-linejoin:round; stroke-width:4; stroke-opacity:1; fill:none"
     points="232.199,1207.87 232.199,115.736 "
     id="polyline26" />
  <polyline
     clip-path="url(#clip680)"
     style="stroke:#000000; stroke-linecap:round; stroke-linejoin:round; stroke-width:4; stroke-opacity:1; fill:none"
     points="232.199,909.489 251.097,909.489 "
     id="polyline27" />
  <polyline
     clip-path="url(#clip680)"
     style="stroke:#000000; stroke-linecap:round; stroke-linejoin:round; stroke-width:4; stroke-opacity:1; fill:none"
     points="232.199,411.133 251.097,411.133 "
     id="polyline28" />
  <path
     clip-path="url(#clip680)"
     d="M112.336 902.046 L120.746 897.943 L121.587 897.943 L121.587 927.125 Q121.587 930.031 121.817 930.744 Q122.071 931.458 122.836 931.84 Q123.601 932.223 125.945 932.274 L125.945 933.217 L112.947 933.217 L112.947 932.274 Q115.394 932.223 116.108 931.866 Q116.821 931.484 117.102 930.872 Q117.382 930.235 117.382 927.125 L117.382 908.469 Q117.382 904.697 117.127 903.627 Q116.949 902.811 116.464 902.429 Q116.006 902.046 115.343 902.046 Q114.4 902.046 112.718 902.837 L112.336 902.046 Z"
     fill="#000000"
     fill-rule="nonzero"
     fill-opacity="1"
     id="path28" />
  <path
     clip-path="url(#clip680)"
     d="M134.203 916.141 Q134.203 910.228 135.987 905.971 Q137.771 901.69 140.728 899.6 Q143.022 897.943 145.468 897.943 Q149.444 897.943 152.605 901.995 Q156.555 907.016 156.555 915.605 Q156.555 921.62 154.822 925.826 Q153.089 930.031 150.387 931.942 Q147.711 933.828 145.213 933.828 Q140.269 933.828 136.981 927.992 Q134.203 923.073 134.203 916.141 M139.199 916.778 Q139.199 923.914 140.957 928.425 Q142.41 932.223 145.29 932.223 Q146.666 932.223 148.144 930.999 Q149.623 929.75 150.387 926.845 Q151.56 922.461 151.56 914.484 Q151.56 908.571 150.336 904.621 Q149.419 901.69 147.966 900.466 Q146.921 899.625 145.443 899.625 Q143.71 899.625 142.359 901.18 Q140.524 903.295 139.861 907.832 Q139.199 912.369 139.199 916.778 Z"
     fill="#000000"
     fill-rule="nonzero"
     fill-opacity="1"
     id="path29" />
  <path
     clip-path="url(#clip680)"
     d="M156.555 891.932 Q156.555 887.128 158.005 883.669 Q159.454 880.191 161.856 878.492 Q163.72 877.146 165.708 877.146 Q168.938 877.146 171.506 880.439 Q174.716 884.519 174.716 891.497 Q174.716 896.384 173.308 899.801 Q171.9 903.218 169.705 904.771 Q167.53 906.303 165.501 906.303 Q161.483 906.303 158.812 901.561 Q156.555 897.565 156.555 891.932 M160.614 892.45 Q160.614 898.248 162.043 901.913 Q163.223 904.999 165.563 904.999 Q166.681 904.999 167.882 904.005 Q169.083 902.99 169.705 900.629 Q170.657 897.068 170.657 890.586 Q170.657 885.782 169.663 882.572 Q168.918 880.191 167.737 879.197 Q166.888 878.513 165.687 878.513 Q164.279 878.513 163.182 879.776 Q161.691 881.495 161.152 885.181 Q160.614 888.867 160.614 892.45 Z"
     fill="#000000"
     fill-rule="nonzero"
     fill-opacity="1"
     id="path30" />
  <path
     clip-path="url(#clip680)"
     d="M181.529 901.789 Q182.502 901.789 183.165 902.472 Q183.827 903.135 183.827 904.088 Q183.827 905.04 183.144 905.723 Q182.481 906.386 181.529 906.386 Q180.576 906.386 179.893 905.723 Q179.23 905.04 179.23 904.088 Q179.23 903.114 179.893 902.452 Q180.576 901.789 181.529 901.789 Z"
     fill="#000000"
     fill-rule="nonzero"
     fill-opacity="1"
     id="path31" />
  <path
     clip-path="url(#clip680)"
     d="M205.84 877.146 L205.84 877.913 Q203.106 878.182 201.367 879.01 Q199.648 879.818 197.95 881.495 Q196.273 883.172 195.155 885.243 Q194.057 887.293 193.312 890.13 Q196.294 888.08 199.296 888.08 Q202.175 888.08 204.287 890.4 Q206.399 892.719 206.399 896.363 Q206.399 899.884 204.266 902.783 Q201.698 906.303 197.474 906.303 Q194.596 906.303 192.587 904.398 Q188.652 900.691 188.652 894.79 Q188.652 891.021 190.164 887.625 Q191.676 884.229 194.471 881.599 Q197.288 878.969 199.855 878.058 Q202.423 877.146 204.639 877.146 L205.84 877.146 M192.96 891.642 Q192.587 894.438 192.587 896.156 Q192.587 898.144 193.312 900.484 Q194.057 902.804 195.507 904.17 Q196.563 905.144 198.074 905.144 Q199.876 905.144 201.284 903.446 Q202.713 901.748 202.713 898.6 Q202.713 895.059 201.305 892.47 Q199.897 889.882 197.308 889.882 Q196.521 889.882 195.61 890.213 Q194.72 890.545 192.96 891.642 Z"
     fill="#000000"
     fill-rule="nonzero"
     fill-opacity="1"
     id="path32" />
  <path
     clip-path="url(#clip680)"
     d="M112.522 403.69 L120.932 399.587 L121.774 399.587 L121.774 428.769 Q121.774 431.674 122.003 432.388 Q122.258 433.102 123.022 433.484 Q123.787 433.866 126.132 433.917 L126.132 434.86 L113.134 434.86 L113.134 433.917 Q115.58 433.866 116.294 433.509 Q117.008 433.127 117.288 432.515 Q117.568 431.878 117.568 428.769 L117.568 410.113 Q117.568 406.34 117.313 405.27 Q117.135 404.454 116.651 404.072 Q116.192 403.69 115.529 403.69 Q114.586 403.69 112.904 404.48 L112.522 403.69 Z"
     fill="#000000"
     fill-rule="nonzero"
     fill-opacity="1"
     id="path33" />
  <path
     clip-path="url(#clip680)"
     d="M134.389 417.784 Q134.389 411.871 136.174 407.615 Q137.958 403.333 140.914 401.243 Q143.208 399.587 145.655 399.587 Q149.631 399.587 152.791 403.639 Q156.741 408.66 156.741 417.249 Q156.741 423.264 155.008 427.469 Q153.275 431.674 150.574 433.586 Q147.897 435.472 145.4 435.472 Q140.455 435.472 137.168 429.635 Q134.389 424.716 134.389 417.784 M139.385 418.421 Q139.385 425.557 141.143 430.069 Q142.596 433.866 145.476 433.866 Q146.852 433.866 148.331 432.643 Q149.809 431.394 150.574 428.488 Q151.746 424.105 151.746 416.127 Q151.746 410.214 150.523 406.264 Q149.605 403.333 148.152 402.11 Q147.107 401.269 145.629 401.269 Q143.896 401.269 142.545 402.823 Q140.71 404.939 140.048 409.475 Q139.385 414.012 139.385 418.421 Z"
     fill="#000000"
     fill-rule="nonzero"
     fill-opacity="1"
     id="path34" />
  <path
     clip-path="url(#clip680)"
     d="M156.741 393.575 Q156.741 388.771 158.191 385.313 Q159.64 381.834 162.043 380.136 Q163.906 378.79 165.894 378.79 Q169.125 378.79 171.692 382.082 Q174.902 386.162 174.902 393.141 Q174.902 398.028 173.494 401.444 Q172.086 404.861 169.891 406.414 Q167.717 407.947 165.687 407.947 Q161.67 407.947 158.999 403.205 Q156.741 399.208 156.741 393.575 M160.8 394.093 Q160.8 399.891 162.229 403.557 Q163.409 406.642 165.749 406.642 Q166.868 406.642 168.069 405.648 Q169.27 404.633 169.891 402.273 Q170.843 398.711 170.843 392.229 Q170.843 387.425 169.849 384.215 Q169.104 381.834 167.924 380.84 Q167.075 380.157 165.874 380.157 Q164.465 380.157 163.368 381.42 Q161.877 383.139 161.339 386.825 Q160.8 390.511 160.8 394.093 Z"
     fill="#000000"
     fill-rule="nonzero"
     fill-opacity="1"
     id="path35" />
  <path
     clip-path="url(#clip680)"
     d="M181.715 403.432 Q182.688 403.432 183.351 404.116 Q184.014 404.778 184.014 405.731 Q184.014 406.684 183.33 407.367 Q182.668 408.03 181.715 408.03 Q180.763 408.03 180.079 407.367 Q179.417 406.684 179.417 405.731 Q179.417 404.758 180.079 404.095 Q180.763 403.432 181.715 403.432 Z"
     fill="#000000"
     fill-rule="nonzero"
     fill-opacity="1"
     id="path36" />
  <path
     clip-path="url(#clip680)"
     d="M189.253 408.03 L189.253 407.263 Q191.945 407.222 194.264 406.021 Q196.583 404.799 198.737 401.776 Q200.911 398.752 201.76 395.129 Q198.509 397.22 195.879 397.22 Q192.918 397.22 190.806 394.942 Q188.694 392.644 188.694 388.854 Q188.694 385.168 190.806 382.29 Q193.353 378.79 197.453 378.79 Q200.911 378.79 203.376 381.648 Q206.399 385.189 206.399 390.386 Q206.399 395.066 204.1 399.125 Q201.802 403.163 197.702 405.835 Q194.368 408.03 190.433 408.03 L189.253 408.03 M202.092 393.596 Q202.465 390.904 202.465 389.289 Q202.465 387.28 201.781 384.961 Q201.098 382.621 199.835 381.378 Q198.592 380.136 196.998 380.136 Q195.155 380.136 193.767 381.793 Q192.38 383.449 192.38 386.721 Q192.38 391.09 194.223 393.555 Q195.569 395.336 197.536 395.336 Q198.489 395.336 199.793 394.88 Q201.098 394.424 202.092 393.596 Z"
     fill="#000000"
     fill-rule="nonzero"
     fill-opacity="1"
     id="path37" />
  <polyline
     clip-path="url(#clip682)"
     style="stroke:#0066cc;stroke-linecap:round;stroke-linejoin:round;stroke-width:4;stroke-opacity:1;fill:none"
     stroke-dasharray="16, 10"
     points="272.97,1176.96 312.937,1146.66 349.717,1118.78 383.781,1092.95 415.504,1068.9 445.185,1046.4 473.073,1025.26 499.371,1005.32 524.251,986.458 547.858,968.56 570.317,951.534 591.733,935.297 612.199,919.781 631.796,904.924 650.595,890.672 668.658,876.977 686.041,863.799 702.793,851.099 718.958,838.844 734.576,827.003 749.683,815.55 764.31,804.46 778.489,793.711 792.245,783.282 805.603,773.155 818.585,763.313 831.212,753.74 843.502,744.422 855.474,735.346 867.143,726.499 878.524,717.871 889.632,709.45 900.478,701.227 911.076,693.192 921.435,685.339 931.567,677.657 941.482,670.141 951.188,662.782 960.694,655.575 970.008,648.514 979.138,641.592 988.09,634.805 996.873,628.147 1005.49,621.613 1013.95,615.198 1022.26,608.9 1030.42,602.712 1038.44,596.632 1046.32,590.656 1054.07,584.781 1061.7,579.002 1069.19,573.317 1076.57,567.724 1083.83,562.218 1090.98,556.797 1098.03,551.459 1104.96,546.202 1111.79,541.022 1118.53,535.918 1125.16,530.887 1131.7,525.927 1138.15,521.037 1144.51,516.214 1150.79,511.457 1156.98,506.763 1163.09,502.132 1169.12,497.561 1175.07,493.049 1180.95,488.595 1186.75,484.196 1192.48,479.852 1198.14,475.562 1203.73,471.323 1209.25,467.135 1214.71,462.997 1220.1,458.907 1225.44,454.864 1230.71,450.867 1235.92,446.916 1241.07,443.009 1246.17,439.144 1251.21,435.322 1256.2,431.542 1261.13,427.801 1266.01,424.101 1270.85,420.439 1275.63,416.815 1280.36,413.228 1285.04,409.677 1289.68,406.162 1294.27,402.683 1298.81,399.237 1303.31,395.825 1307.77,392.446 1312.18,389.099 1316.56,385.784 1320.89,382.5 1325.18,379.247 1329.43,376.023 1333.64,372.829 1337.82,369.664 1341.96,366.527 1346.06,363.418 1350.12,360.337 1354.15,357.282 1358.14,354.254 1362.1,351.252 1366.03,348.275 1369.92,345.324 1373.78,342.397 1377.61,339.494 1381.41,336.616 1385.18,333.76 1388.91,330.928 1392.62,328.119 1396.29,325.332 1399.94,322.567 1403.56,319.824 1407.15,317.102 1410.71,314.401 1414.25,311.721 1417.76,309.061 1421.24,306.421 1424.69,303.801 1428.12,301.2 1431.53,298.619 1434.91,296.056 1438.26,293.513 1441.6,290.987 1444.9,288.48 1448.19,285.99 1451.45,283.518 1454.68,281.064 1457.9,278.626 1461.09,276.205 1464.26,273.801 1467.41,271.414 1470.54,269.042 1473.65,266.687 1476.73,264.347 1479.8,262.023 1482.85,259.714 1485.87,257.42 1488.88,255.141 1491.86,252.877 1494.83,250.628 1497.78,248.393 1500.71,246.172 1503.62,243.965 1506.51,241.772 1509.39,239.592 1512.24,237.426 1515.08,235.274 1517.9,233.134 1520.71,231.008 1523.5,228.894 1526.27,226.793 1529.02,224.705 1531.76,222.629 1534.48,220.565 1537.19,218.514 1539.88,216.474 1542.56,214.446 1545.21,212.43 1547.86,210.425 1550.49,208.432 1553.1,206.45 1555.7,204.479 1558.29,202.52 1560.86,200.571 1563.41,198.633 1565.96,196.705 1568.48,194.789 1571,192.882 1573.5,190.986 1575.99,189.1 1578.46,187.225 1580.92,185.359 1583.37,183.503 1585.8,181.657 1588.23,179.821 1590.64,177.994 1593.03,176.177 1595.42,174.369 1597.79,172.571 1600.15,170.781 1602.5,169.001 1604.83,167.23 1607.16,165.467 1609.47,163.714 1611.77,161.969 1614.06,160.233 1616.34,158.505 1618.61,156.786 1620.87,155.076 1623.11,153.373 1625.35,151.679 1627.57,149.993 1629.78,148.316 1631.99,146.646 "
     id="polyline68" />
  <circle
     clip-path="url(#clip682)"
     cx="548.903"
     cy="969.056"
     r="14.4"
     fill="#0066cc"
     fill-rule="evenodd"
     fill-opacity="1"
     stroke="#000000"
     stroke-opacity="1"
     stroke-width="2.8"
     id="circle49" />
  <circle
     clip-path="url(#clip682)"
     cx="606.673"
     cy="942.746"
     r="14.4"
     fill="#0066cc"
     fill-rule="evenodd"
     fill-opacity="1"
     stroke="#000000"
     stroke-opacity="1"
     stroke-width="2.8"
     id="circle50" />
  <circle
     clip-path="url(#clip682)"
     cx="658.009"
     cy="879.589"
     r="14.4"
     fill="#0066cc"
     fill-rule="evenodd"
     fill-opacity="1"
     stroke="#000000"
     stroke-opacity="1"
     stroke-width="2.8"
     id="circle51" />
  <circle
     clip-path="url(#clip682)"
     cx="725.675"
     cy="835.272"
     r="14.4"
     fill="#0066cc"
     fill-rule="evenodd"
     fill-opacity="1"
     stroke="#000000"
     stroke-opacity="1"
     stroke-width="2.8"
     id="circle52" />
  <circle
     clip-path="url(#clip682)"
     cx="765.835"
     cy="797.361"
     r="14.4"
     fill="#0066cc"
     fill-rule="evenodd"
     fill-opacity="1"
     stroke="#000000"
     stroke-opacity="1"
     stroke-width="2.8"
     id="circle53" />
  <circle
     clip-path="url(#clip682)"
     cx="820.198"
     cy="777.245"
     r="14.4"
     fill="#0066cc"
     fill-rule="evenodd"
     fill-opacity="1"
     stroke="#000000"
     stroke-opacity="1"
     stroke-width="2.8"
     id="circle54" />
  <circle
     clip-path="url(#clip682)"
     cx="883.962"
     cy="712.682"
     r="14.4"
     fill="#0066cc"
     fill-rule="evenodd"
     fill-opacity="1"
     stroke="#000000"
     stroke-opacity="1"
     stroke-width="2.8"
     id="circle55" />
  <circle
     clip-path="url(#clip682)"
     cx="939.976"
     cy="677.061"
     r="14.4"
     fill="#0066cc"
     fill-rule="evenodd"
     fill-opacity="1"
     stroke="#000000"
     stroke-opacity="1"
     stroke-width="2.8"
     id="circle56" />
  <circle
     clip-path="url(#clip682)"
     cx="1001.61"
     cy="597.95"
     r="14.4"
     fill="#0066cc"
     fill-rule="evenodd"
     fill-opacity="1"
     stroke="#000000"
     stroke-opacity="1"
     stroke-width="2.8"
     id="circle57" />
  <circle
     clip-path="url(#clip682)"
     cx="1055.97"
     cy="576.424"
     r="14.4"
     fill="#0066cc"
     fill-rule="evenodd"
     fill-opacity="1"
     stroke="#000000"
     stroke-opacity="1"
     stroke-width="2.8"
     id="circle58" />
  <circle
     clip-path="url(#clip682)"
     cx="1104.6"
     cy="538.507"
     r="14.4"
     fill="#0066cc"
     fill-rule="evenodd"
     fill-opacity="1"
     stroke="#000000"
     stroke-opacity="1"
     stroke-width="2.8"
     id="circle59" />
  <circle
     clip-path="url(#clip682)"
     cx="1165.08"
     cy="487.339"
     r="14.4"
     fill="#0066cc"
     fill-rule="evenodd"
     fill-opacity="1"
     stroke="#000000"
     stroke-opacity="1"
     stroke-width="2.8"
     id="circle60" />
  <circle
     clip-path="url(#clip682)"
     cx="1218.54"
     cy="472.173"
     r="14.4"
     fill="#0066cc"
     fill-rule="evenodd"
     fill-opacity="1"
     stroke="#000000"
     stroke-opacity="1"
     stroke-width="2.8"
     id="circle61" />
  <circle
     clip-path="url(#clip682)"
     cx="1272.9"
     cy="411.025"
     r="14.4"
     fill="#0066cc"
     fill-rule="evenodd"
     fill-opacity="1"
     stroke="#000000"
     stroke-opacity="1"
     stroke-width="2.8"
     id="circle62" />
  <circle
     clip-path="url(#clip682)"
     cx="1332.93"
     cy="374.051"
     r="14.4"
     fill="#0066cc"
     fill-rule="evenodd"
     fill-opacity="1"
     stroke="#000000"
     stroke-opacity="1"
     stroke-width="2.8"
     id="circle63" />
  <circle
     clip-path="url(#clip682)"
     cx="1386.04"
     cy="323.434"
     r="14.4"
     fill="#0066cc"
     fill-rule="evenodd"
     fill-opacity="1"
     stroke="#000000"
     stroke-opacity="1"
     stroke-width="2.8"
     id="circle64" />
  <circle
     clip-path="url(#clip682)"
     cx="1442.63"
     cy="300.054"
     r="14.4"
     fill="#0066cc"
     fill-rule="evenodd"
     fill-opacity="1"
     stroke="#000000"
     stroke-opacity="1"
     stroke-width="2.8"
     id="circle65" />
  <circle
     clip-path="url(#clip682)"
     cx="1500.92"
     cy="262.689"
     r="14.4"
     fill="#0066cc"
     fill-rule="evenodd"
     fill-opacity="1"
     stroke="#000000"
     stroke-opacity="1"
     stroke-width="2.8"
     id="circle66" />
  <circle
     clip-path="url(#clip682)"
     cx="1556.15"
     cy="203.936"
     r="14.4"
     fill="#0066cc"
     fill-rule="evenodd"
     fill-opacity="1"
     stroke="#000000"
     stroke-opacity="1"
     stroke-width="2.8"
     id="circle67" />
  <circle
     clip-path="url(#clip682)"
     cx="1611.67"
     cy="165.215"
     r="14.4"
     fill="#0066cc"
     fill-rule="evenodd"
     fill-opacity="1"
     stroke="#000000"
     stroke-opacity="1"
     stroke-width="2.8"
     id="circle68" />
  <g
     data-mml-node="msub"
     data-latex="\tau_\text{exp}"
     data-semantic-type="subscript"
     data-semantic-role="greekletter"
     data-semantic-annotation="depth:1"
     data-semantic-id="2"
     data-semantic-children="0,1"
     data-semantic-attributes="latex:\tau_\text{exp}"
     data-semantic-owns="0 1"
     aria-level="0"
     data-speech-node="true"
     id="g5"
     transform="matrix(0,-0.06270112,-0.06270112,0,71.024183,695.65376)"
     style="fill:#000000;stroke:#000000;stroke-width:0">
    <g
       data-mml-node="mi"
       data-latex="\tau"
       data-semantic-type="identifier"
       data-semantic-role="greekletter"
       data-semantic-font="italic"
       data-semantic-annotation="clearspeak:simple;nemeth:number;depth:2"
       data-semantic-id="0"
       data-semantic-parent="2"
       data-semantic-attributes="latex:\tau"
       aria-level="1"
       data-speech-node="true"
       id="g1">
      <path
         id="use1"
         d="M 468,431 H 192 C 139,431 91,397 47,330 34,310 27,297 27,292 c 3,-8 4,-13 16,-13 7,0 13,4 19,13 32,49 72,74 121,74 h 77 L 165,56 c -7,-22 -10,-35 -10,-38 0,-20 11,-30 32,-30 11,0 21,3 27,9 13,12 14,15 18,36 l 65,333 h 162 c 35,0 52,12 52,37 0,23 -18,28 -43,28 z" />
    </g>
    <g
       data-mml-node="mtext"
       transform="matrix(0.707,0,0,0.707,470,-150)"
       data-latex="{exp}"
       data-semantic-type="text"
       data-semantic-role="unknown"
       data-semantic-font="normal"
       data-semantic-annotation="clearspeak:unit;depth:2"
       data-semantic-id="1"
       data-semantic-parent="2"
       data-semantic-attributes="latex:{exp}"
       aria-level="1"
       data-speech-node="true"
       id="g4">
      <path
         id="use2"
         d="M 415,251 C 415,366 348,448 236,448 176,448 126,425 85,378 47,334 28,281 28,220 28,157 49,104 91,58 c 42,-46 94,-69 156,-69 57,0 101,20 131,59 25,33 37,57 37,73 0,10 -6,15 -17,15 -8,0 -13,-5 -16,-16 -22,-66 -65,-99 -129,-99 -45,0 -80,21 -107,64 -19,31 -28,78 -29,142 h 270 c 22,0 28,2 28,24 m -89,98 c 11,-33 16,-65 16,-94 H 118 c 3,66 20,111 50,134 25,20 47,30 68,30 45,0 75,-23 90,-70 z" />
      <path
         id="use3"
         d="m 862,3 c 23,1 56,0 98,-3 v 38 c -53,0 -73,1 -94,29 L 736,235 c 43,53 72,89 88,108 28,32 67,49 118,50 v 38 c -28,-2 -56,-3 -84,-3 -37,0 -70,1 -99,3 v -38 c 19,-2 29,-11 29,-27 0,-9 -5,-20 -14,-32 l -58,-72 -74,95 c -5,7 -8,12 -8,15 0,13 12,20 35,21 v 38 l -111,-3 c -26,-1 -58,0 -97,3 v -38 c 36,0 59,-3 69,-8 10,-5 26,-22 48,-51 L 673,210 C 624,147 594,109 583,96 551,57 509,38 456,38 V 0 c 37,3 65,4 86,3 l 97,-3 v 38 c -19,3 -28,12 -28,27 0,4 1,9 3,14 6,13 33,47 81,104 L 767,89 C 778,75 784,65 787,59 787,46 775,39 751,38 V 0 Z" />
      <path
         id="use4"
         d="m 1270,-13 c 62,0 115,22 158,67 43,45 65,98 65,161 0,61 -20,113 -59,157 -41,47 -91,70 -151,70 -51,0 -95,-20 -133,-59 v 59 l -150,-11 v -38 c 37,0 59,-2 66,-7 7,-5 11,-18 11,-39 v -462 c 0,-19 -4,-31 -11,-35 -7,-4 -29,-5 -66,-5 v -39 l 114,3 115,-3 v 39 c -37,0 -58,1 -65,5 -7,4 -11,16 -11,35 V 44 c 22,-31 65,-57 117,-57 m 6,422 c 41,0 73,-23 98,-69 19,-39 29,-80 29,-125 0,-47 -11,-90 -33,-129 -26,-47 -61,-70 -104,-70 -42,0 -75,20 -100,59 -9,13 -13,26 -13,39 v 219 c 29,51 70,76 123,76 z" />
    </g>
  </g>
</svg>
