<?xml version="1.0" encoding="UTF-8" standalone="no"?>
<svg
   width="430"
   height="350"
   viewBox="0 0 1720 1400"
   version="1.1"
   id="svg86"
   sodipodi:docname="tau_int_metropolis_sqr.svg"
   inkscape:version="1.4.2 (ebf0e940, 2025-05-08)"
   xmlns:inkscape="http://www.inkscape.org/namespaces/inkscape"
   xmlns:sodipodi="http://sodipodi.sourceforge.net/DTD/sodipodi-0.dtd"
   xmlns="http://www.w3.org/2000/svg"
   xmlns:svg="http://www.w3.org/2000/svg">
  <sodipodi:namedview
     id="namedview86"
     pagecolor="#ffffff"
     bordercolor="#000000"
     borderopacity="0.25"
     inkscape:showpageshadow="2"
     inkscape:pageopacity="0.0"
     inkscape:pagecheckerboard="0"
     inkscape:deskcolor="#d1d1d1"
     inkscape:zoom="2.742221"
     inkscape:cx="213.69539"
     inkscape:cy="200.93202"
     inkscape:window-width="1728"
     inkscape:window-height="1055"
     inkscape:window-x="0"
     inkscape:window-y="34"
     inkscape:window-maximized="1"
     inkscape:current-layer="svg86" />
  <defs
     id="defs1">
    <clipPath
       id="clip530">
      <rect
         x="0"
         y="0"
         width="1720"
         height="1400"
         id="rect1" />
    </clipPath>
  </defs>
  <path
     clip-path="url(#clip530)"
     d="M0 1400 L1720 1400 L1720 -4.44089e-15 L0 -4.44089e-15  Z"
     fill="#ffffff"
     fill-rule="evenodd"
     fill-opacity="1"
     id="path1" />
  <defs
     id="defs2">
    <clipPath
       id="clip531">
      <rect
         x="344"
         y="0"
         width="1205"
         height="1205"
         id="rect2" />
    </clipPath>
  </defs>
  <path
     clip-path="url(#clip530)"
     d="M207.819 1207.87 L1672.76 1207.87 L1672.76 115.736 L207.819 115.736  Z"
     fill="#ffffff"
     fill-rule="evenodd"
     fill-opacity="1"
     id="path2" />
  <defs
     id="defs3">
    <clipPath
       id="clip532">
      <rect
         x="207"
         y="115"
         width="1466"
         height="1093"
         id="rect3" />
    </clipPath>
  </defs>
  <polyline
     clip-path="url(#clip532)"
     style="stroke:#000000; stroke-linecap:round; stroke-linejoin:round; stroke-width:2; stroke-opacity:0.1; fill:none"
     points="554.61,1207.87 554.61,115.736 "
     id="polyline3" />
  <polyline
     clip-path="url(#clip532)"
     style="stroke:#000000; stroke-linecap:round; stroke-linejoin:round; stroke-width:2; stroke-opacity:0.1; fill:none"
     points="1094.99,1207.87 1094.99,115.736 "
     id="polyline4" />
  <polyline
     clip-path="url(#clip532)"
     style="stroke:#000000; stroke-linecap:round; stroke-linejoin:round; stroke-width:2; stroke-opacity:0.1; fill:none"
     points="1635.36,1207.87 1635.36,115.736 "
     id="polyline5" />
  <polyline
     clip-path="url(#clip532)"
     style="stroke:#000000; stroke-linecap:round; stroke-linejoin:round; stroke-width:2; stroke-opacity:0.1; fill:none"
     points="207.819,991.489 1672.76,991.489 "
     id="polyline6" />
  <polyline
     clip-path="url(#clip532)"
     style="stroke:#000000; stroke-linecap:round; stroke-linejoin:round; stroke-width:2; stroke-opacity:0.1; fill:none"
     points="207.819,617.937 1672.76,617.937 "
     id="polyline7" />
  <polyline
     clip-path="url(#clip532)"
     style="stroke:#000000; stroke-linecap:round; stroke-linejoin:round; stroke-width:2; stroke-opacity:0.1; fill:none"
     points="207.819,244.385 1672.76,244.385 "
     id="polyline8" />
  <polyline
     clip-path="url(#clip530)"
     style="stroke:#000000; stroke-linecap:round; stroke-linejoin:round; stroke-width:4; stroke-opacity:1; fill:none"
     points="207.819,1207.87 1672.76,1207.87 "
     id="polyline9" />
  <polyline
     clip-path="url(#clip530)"
     style="stroke:#000000; stroke-linecap:round; stroke-linejoin:round; stroke-width:4; stroke-opacity:1; fill:none"
     points="554.61,1207.87 554.61,1188.97 "
     id="polyline10" />
  <polyline
     clip-path="url(#clip530)"
     style="stroke:#000000; stroke-linecap:round; stroke-linejoin:round; stroke-width:4; stroke-opacity:1; fill:none"
     points="1094.99,1207.87 1094.99,1188.97 "
     id="polyline11" />
  <polyline
     clip-path="url(#clip530)"
     style="stroke:#000000; stroke-linecap:round; stroke-linejoin:round; stroke-width:4; stroke-opacity:1; fill:none"
     points="1635.36,1207.87 1635.36,1188.97 "
     id="polyline12" />
  <path
     clip-path="url(#clip530)"
     d="M509.876 1249.32 L518.287 1245.22 L519.128 1245.22 L519.128 1274.4 Q519.128 1277.31 519.357 1278.02 Q519.612 1278.73 520.377 1279.12 Q521.141 1279.5 523.486 1279.55 L523.486 1280.49 L510.488 1280.49 L510.488 1279.55 Q512.935 1279.5 513.648 1279.14 Q514.362 1278.76 514.642 1278.15 Q514.923 1277.51 514.923 1274.4 L514.923 1255.74 Q514.923 1251.97 514.668 1250.9 Q514.489 1250.09 514.005 1249.7 Q513.546 1249.32 512.884 1249.32 Q511.941 1249.32 510.259 1250.11 L509.876 1249.32 Z"
     fill="#000000"
     fill-rule="nonzero"
     fill-opacity="1"
     id="path12" />
  <path
     clip-path="url(#clip530)"
     d="M531.744 1263.42 Q531.744 1257.5 533.528 1253.25 Q535.312 1248.97 538.269 1246.88 Q540.562 1245.22 543.009 1245.22 Q546.985 1245.22 550.145 1249.27 Q554.096 1254.29 554.096 1262.88 Q554.096 1268.9 552.363 1273.1 Q550.63 1277.31 547.928 1279.22 Q545.252 1281.1 542.754 1281.1 Q537.81 1281.1 534.522 1275.27 Q531.744 1270.35 531.744 1263.42 M536.739 1264.05 Q536.739 1271.19 538.498 1275.7 Q539.951 1279.5 542.831 1279.5 Q544.207 1279.5 545.685 1278.27 Q547.163 1277.03 547.928 1274.12 Q549.1 1269.74 549.1 1261.76 Q549.1 1255.85 547.877 1251.9 Q546.96 1248.97 545.507 1247.74 Q544.462 1246.9 542.984 1246.9 Q541.251 1246.9 539.9 1248.46 Q538.065 1250.57 537.402 1255.11 Q536.739 1259.64 536.739 1264.05 Z"
     fill="#000000"
     fill-rule="nonzero"
     fill-opacity="1"
     id="path13" />
  <path
     clip-path="url(#clip530)"
     d="M554.096 1227.76 L560.929 1224.42 L561.613 1224.42 L561.613 1248.13 Q561.613 1250.49 561.799 1251.07 Q562.006 1251.65 562.627 1251.96 Q563.249 1252.27 565.154 1252.32 L565.154 1253.08 L554.593 1253.08 L554.593 1252.32 Q556.581 1252.27 557.161 1251.98 Q557.74 1251.67 557.968 1251.18 Q558.196 1250.66 558.196 1248.13 L558.196 1232.97 Q558.196 1229.91 557.989 1229.04 Q557.844 1228.38 557.451 1228.07 Q557.078 1227.76 556.539 1227.76 Q555.773 1227.76 554.406 1228.4 L554.096 1227.76 Z"
     fill="#000000"
     fill-rule="nonzero"
     fill-opacity="1"
     id="path14" />
  <path
     clip-path="url(#clip530)"
     d="M575.632 1249.06 Q576.605 1249.06 577.268 1249.75 Q577.931 1250.41 577.931 1251.36 Q577.931 1252.32 577.247 1253 Q576.585 1253.66 575.632 1253.66 Q574.68 1253.66 573.996 1253 Q573.334 1252.32 573.334 1251.36 Q573.334 1250.39 573.996 1249.73 Q574.68 1249.06 575.632 1249.06 Z"
     fill="#000000"
     fill-rule="nonzero"
     fill-opacity="1"
     id="path15" />
  <path
     clip-path="url(#clip530)"
     d="M599.343 1225 L597.727 1228.52 L589.279 1228.52 L587.436 1232.29 Q592.923 1233.1 596.133 1236.37 Q598.887 1239.19 598.887 1243 Q598.887 1245.21 597.976 1247.1 Q597.086 1248.98 595.719 1250.31 Q594.352 1251.63 592.675 1252.44 Q590.293 1253.58 587.788 1253.58 Q585.261 1253.58 584.102 1252.73 Q582.963 1251.86 582.963 1250.82 Q582.963 1250.24 583.439 1249.81 Q583.915 1249.35 584.64 1249.35 Q585.178 1249.35 585.572 1249.52 Q585.986 1249.69 586.959 1250.37 Q588.512 1251.45 590.107 1251.45 Q592.53 1251.45 594.352 1249.62 Q596.195 1247.78 596.195 1245.15 Q596.195 1242.6 594.559 1240.41 Q592.923 1238.19 590.045 1236.99 Q587.788 1236.06 583.895 1235.91 L589.279 1225 L599.343 1225 Z"
     fill="#000000"
     fill-rule="nonzero"
     fill-opacity="1"
     id="path16" />
  <path
     clip-path="url(#clip530)"
     d="M1047.58 1249.32 L1055.99 1245.22 L1056.83 1245.22 L1056.83 1274.4 Q1056.83 1277.31 1057.06 1278.02 Q1057.32 1278.73 1058.08 1279.12 Q1058.85 1279.5 1061.19 1279.55 L1061.19 1280.49 L1048.19 1280.49 L1048.19 1279.55 Q1050.64 1279.5 1051.35 1279.14 Q1052.07 1278.76 1052.35 1278.15 Q1052.63 1277.51 1052.63 1274.4 L1052.63 1255.74 Q1052.63 1251.97 1052.37 1250.9 Q1052.19 1250.09 1051.71 1249.7 Q1051.25 1249.32 1050.59 1249.32 Q1049.65 1249.32 1047.96 1250.11 L1047.58 1249.32 Z"
     fill="#000000"
     fill-rule="nonzero"
     fill-opacity="1"
     id="path17" />
  <path
     clip-path="url(#clip530)"
     d="M1069.45 1263.42 Q1069.45 1257.5 1071.23 1253.25 Q1073.02 1248.97 1075.97 1246.88 Q1078.27 1245.22 1080.71 1245.22 Q1084.69 1245.22 1087.85 1249.27 Q1091.8 1254.29 1091.8 1262.88 Q1091.8 1268.9 1090.07 1273.1 Q1088.33 1277.31 1085.63 1279.22 Q1082.96 1281.1 1080.46 1281.1 Q1075.51 1281.1 1072.23 1275.27 Q1069.45 1270.35 1069.45 1263.42 M1074.44 1264.05 Q1074.44 1271.19 1076.2 1275.7 Q1077.66 1279.5 1080.54 1279.5 Q1081.91 1279.5 1083.39 1278.27 Q1084.87 1277.03 1085.63 1274.12 Q1086.81 1269.74 1086.81 1261.76 Q1086.81 1255.85 1085.58 1251.9 Q1084.66 1248.97 1083.21 1247.74 Q1082.17 1246.9 1080.69 1246.9 Q1078.96 1246.9 1077.6 1248.46 Q1075.77 1250.57 1075.11 1255.11 Q1074.44 1259.64 1074.44 1264.05 Z"
     fill="#000000"
     fill-rule="nonzero"
     fill-opacity="1"
     id="path18" />
  <path
     clip-path="url(#clip530)"
     d="M1110.33 1247.68 L1108.37 1253.08 L1091.8 1253.08 L1091.8 1252.32 Q1099.11 1245.65 1102.09 1241.42 Q1105.07 1237.2 1105.07 1233.7 Q1105.07 1231.03 1103.44 1229.31 Q1101.8 1227.59 1099.52 1227.59 Q1097.45 1227.59 1095.8 1228.81 Q1094.16 1230.01 1093.37 1232.35 L1092.61 1232.35 Q1093.13 1228.52 1095.26 1226.47 Q1097.41 1224.42 1100.62 1224.42 Q1104.04 1224.42 1106.32 1226.62 Q1108.62 1228.81 1108.62 1231.79 Q1108.62 1233.93 1107.62 1236.06 Q1106.09 1239.41 1102.65 1243.16 Q1097.5 1248.8 1096.21 1249.95 L1103.54 1249.95 Q1105.78 1249.95 1106.67 1249.79 Q1107.58 1249.62 1108.3 1249.13 Q1109.03 1248.61 1109.57 1247.68 L1110.33 1247.68 Z"
     fill="#000000"
     fill-rule="nonzero"
     fill-opacity="1"
     id="path19" />
  <path
     clip-path="url(#clip530)"
     d="M1117.4 1249.06 Q1118.37 1249.06 1119.03 1249.75 Q1119.69 1250.41 1119.69 1251.36 Q1119.69 1252.32 1119.01 1253 Q1118.35 1253.66 1117.4 1253.66 Q1116.44 1253.66 1115.76 1253 Q1115.1 1252.32 1115.1 1251.36 Q1115.1 1250.39 1115.76 1249.73 Q1116.44 1249.06 1117.4 1249.06 Z"
     fill="#000000"
     fill-rule="nonzero"
     fill-opacity="1"
     id="path20" />
  <path
     clip-path="url(#clip530)"
     d="M1124.23 1239.21 Q1124.23 1234.4 1125.68 1230.95 Q1127.13 1227.47 1129.53 1225.77 Q1131.39 1224.42 1133.38 1224.42 Q1136.61 1224.42 1139.18 1227.71 Q1142.39 1231.79 1142.39 1238.77 Q1142.39 1243.66 1140.98 1247.08 Q1139.57 1250.49 1137.38 1252.05 Q1135.2 1253.58 1133.18 1253.58 Q1129.16 1253.58 1126.49 1248.84 Q1124.23 1244.84 1124.23 1239.21 M1128.29 1239.73 Q1128.29 1245.52 1129.72 1249.19 Q1130.9 1252.27 1133.24 1252.27 Q1134.36 1252.27 1135.56 1251.28 Q1136.76 1250.27 1137.38 1247.9 Q1138.33 1244.34 1138.33 1237.86 Q1138.33 1233.06 1137.34 1229.85 Q1136.59 1227.47 1135.41 1226.47 Q1134.56 1225.79 1133.36 1225.79 Q1131.95 1225.79 1130.86 1227.05 Q1129.36 1228.77 1128.83 1232.46 Q1128.29 1236.14 1128.29 1239.73 Z"
     fill="#000000"
     fill-rule="nonzero"
     fill-opacity="1"
     id="path21" />
  <path
     clip-path="url(#clip530)"
     d="M1588.6 1249.32 L1597.01 1245.22 L1597.85 1245.22 L1597.85 1274.4 Q1597.85 1277.31 1598.08 1278.02 Q1598.34 1278.73 1599.1 1279.12 Q1599.86 1279.5 1602.21 1279.55 L1602.21 1280.49 L1589.21 1280.49 L1589.21 1279.55 Q1591.66 1279.5 1592.37 1279.14 Q1593.08 1278.76 1593.37 1278.15 Q1593.65 1277.51 1593.65 1274.4 L1593.65 1255.74 Q1593.65 1251.97 1593.39 1250.9 Q1593.21 1250.09 1592.73 1249.7 Q1592.27 1249.32 1591.61 1249.32 Q1590.66 1249.32 1588.98 1250.11 L1588.6 1249.32 Z"
     fill="#000000"
     fill-rule="nonzero"
     fill-opacity="1"
     id="path22" />
  <path
     clip-path="url(#clip530)"
     d="M1610.47 1263.42 Q1610.47 1257.5 1612.25 1253.25 Q1614.03 1248.97 1616.99 1246.88 Q1619.29 1245.22 1621.73 1245.22 Q1625.71 1245.22 1628.87 1249.27 Q1632.82 1254.29 1632.82 1262.88 Q1632.82 1268.9 1631.09 1273.1 Q1629.35 1277.31 1626.65 1279.22 Q1623.97 1281.1 1621.48 1281.1 Q1616.53 1281.1 1613.24 1275.27 Q1610.47 1270.35 1610.47 1263.42 M1615.46 1264.05 Q1615.46 1271.19 1617.22 1275.7 Q1618.67 1279.5 1621.55 1279.5 Q1622.93 1279.5 1624.41 1278.27 Q1625.89 1277.03 1626.65 1274.12 Q1627.82 1269.74 1627.82 1261.76 Q1627.82 1255.85 1626.6 1251.9 Q1625.68 1248.97 1624.23 1247.74 Q1623.18 1246.9 1621.71 1246.9 Q1619.97 1246.9 1618.62 1248.46 Q1616.79 1250.57 1616.12 1255.11 Q1615.46 1259.64 1615.46 1264.05 Z"
     fill="#000000"
     fill-rule="nonzero"
     fill-opacity="1"
     id="path23" />
  <path
     clip-path="url(#clip530)"
     d="M1651.35 1247.68 L1649.38 1253.08 L1632.82 1253.08 L1632.82 1252.32 Q1640.13 1245.65 1643.11 1241.42 Q1646.09 1237.2 1646.09 1233.7 Q1646.09 1231.03 1644.46 1229.31 Q1642.82 1227.59 1640.54 1227.59 Q1638.47 1227.59 1636.82 1228.81 Q1635.18 1230.01 1634.39 1232.35 L1633.63 1232.35 Q1634.14 1228.52 1636.28 1226.47 Q1638.43 1224.42 1641.64 1224.42 Q1645.06 1224.42 1647.33 1226.62 Q1649.63 1228.81 1649.63 1231.79 Q1649.63 1233.93 1648.64 1236.06 Q1647.11 1239.41 1643.67 1243.16 Q1638.51 1248.8 1637.23 1249.95 L1644.56 1249.95 Q1646.8 1249.95 1647.69 1249.79 Q1648.6 1249.62 1649.32 1249.13 Q1650.05 1248.61 1650.59 1247.68 L1651.35 1247.68 Z"
     fill="#000000"
     fill-rule="nonzero"
     fill-opacity="1"
     id="path24" />
  <path
     clip-path="url(#clip530)"
     d="M1658.41 1249.06 Q1659.39 1249.06 1660.05 1249.75 Q1660.71 1250.41 1660.71 1251.36 Q1660.71 1252.32 1660.03 1253 Q1659.37 1253.66 1658.41 1253.66 Q1657.46 1253.66 1656.78 1253 Q1656.12 1252.32 1656.12 1251.36 Q1656.12 1250.39 1656.78 1249.73 Q1657.46 1249.06 1658.41 1249.06 Z"
     fill="#000000"
     fill-rule="nonzero"
     fill-opacity="1"
     id="path25" />
  <path
     clip-path="url(#clip530)"
     d="M1682.12 1225 L1680.51 1228.52 L1672.06 1228.52 L1670.22 1232.29 Q1675.7 1233.1 1678.91 1236.37 Q1681.67 1239.19 1681.67 1243 Q1681.67 1245.21 1680.76 1247.1 Q1679.87 1248.98 1678.5 1250.31 Q1677.13 1251.63 1675.46 1252.44 Q1673.07 1253.58 1670.57 1253.58 Q1668.04 1253.58 1666.88 1252.73 Q1665.74 1251.86 1665.74 1250.82 Q1665.74 1250.24 1666.22 1249.81 Q1666.7 1249.35 1667.42 1249.35 Q1667.96 1249.35 1668.35 1249.52 Q1668.77 1249.69 1669.74 1250.37 Q1671.29 1251.45 1672.89 1251.45 Q1675.31 1251.45 1677.13 1249.62 Q1678.98 1247.78 1678.98 1245.15 Q1678.98 1242.6 1677.34 1240.41 Q1675.7 1238.19 1672.83 1236.99 Q1670.57 1236.06 1666.68 1235.91 L1672.06 1225 L1682.12 1225 Z"
     fill="#000000"
     fill-rule="nonzero"
     fill-opacity="1"
     id="path26" />
  <path
     clip-path="url(#clip530)"
     d="M953.091 1329.05 Q953.091 1329.19 952.904 1329.73 L949.109 1340.08 Q948.898 1340.69 948.688 1340.81 Q948.477 1340.9 947.61 1340.9 L925.406 1340.9 Q924.867 1340.9 924.656 1340.88 Q924.445 1340.85 924.281 1340.73 Q924.117 1340.62 924.117 1340.36 Q924.117 1339.89 924.281 1339.68 Q924.469 1339.47 924.68 1339.45 Q924.89 1339.42 925.406 1339.42 Q926.577 1339.42 927.279 1339.35 Q927.982 1339.28 928.427 1339.19 Q928.896 1339.07 929.13 1338.74 Q929.387 1338.42 929.505 1338.13 Q929.622 1337.83 929.786 1337.15 L936.203 1311.39 Q936.391 1310.61 936.391 1310.5 Q936.391 1310.05 936.11 1309.93 Q935.852 1309.79 935.103 1309.72 L933.276 1309.63 Q932.713 1309.63 932.479 1309.61 Q932.268 1309.58 932.105 1309.47 Q931.941 1309.35 931.941 1309.09 Q931.941 1308.65 932.105 1308.44 Q932.292 1308.2 932.432 1308.18 Q932.596 1308.13 932.854 1308.13 L939.225 1308.27 L946.322 1308.13 Q947.095 1308.13 947.095 1308.72 Q947.095 1309.37 946.767 1309.51 Q946.439 1309.63 945.268 1309.63 Q943.019 1309.63 941.989 1309.86 Q940.982 1310.1 940.701 1310.5 Q940.443 1310.87 940.185 1311.88 L933.697 1337.78 Q933.463 1338.65 933.463 1338.88 Q933.463 1339.14 933.58 1339.24 Q933.721 1339.31 934.095 1339.35 Q934.517 1339.42 935.149 1339.42 L939.647 1339.42 Q941.005 1339.42 942.2 1339.21 Q943.394 1339 944.308 1338.7 Q945.244 1338.39 946.088 1337.83 Q946.931 1337.27 947.516 1336.78 Q948.125 1336.26 948.711 1335.46 Q949.32 1334.65 949.671 1334.08 Q950.046 1333.5 950.468 1332.56 Q950.889 1331.6 951.1 1331.06 Q951.334 1330.5 951.686 1329.54 Q951.896 1329.05 951.967 1328.91 Q952.037 1328.77 952.154 1328.65 Q952.295 1328.53 952.505 1328.53 Q952.787 1328.53 952.927 1328.7 Q953.091 1328.86 953.091 1329.05 Z"
     fill="#000000"
     fill-rule="nonzero"
     fill-opacity="1"
     id="path27" />
  <polyline
     clip-path="url(#clip530)"
     style="stroke:#000000; stroke-linecap:round; stroke-linejoin:round; stroke-width:4; stroke-opacity:1; fill:none"
     points="207.819,1207.87 207.819,115.736 "
     id="polyline27" />
  <polyline
     clip-path="url(#clip530)"
     style="stroke:#000000; stroke-linecap:round; stroke-linejoin:round; stroke-width:4; stroke-opacity:1; fill:none"
     points="207.819,991.489 226.717,991.489 "
     id="polyline28" />
  <polyline
     clip-path="url(#clip530)"
     style="stroke:#000000; stroke-linecap:round; stroke-linejoin:round; stroke-width:4; stroke-opacity:1; fill:none"
     points="207.819,617.937 226.717,617.937 "
     id="polyline29" />
  <polyline
     clip-path="url(#clip530)"
     style="stroke:#000000; stroke-linecap:round; stroke-linejoin:round; stroke-width:4; stroke-opacity:1; fill:none"
     points="207.819,244.385 226.717,244.385 "
     id="polyline30" />
  <path
     clip-path="url(#clip530)"
     d="M126.742 984.046 L135.152 979.943 L135.993 979.943 L135.993 1009.12 Q135.993 1012.03 136.223 1012.74 Q136.478 1013.46 137.242 1013.84 Q138.007 1014.22 140.352 1014.27 L140.352 1015.22 L127.353 1015.22 L127.353 1014.27 Q129.8 1014.22 130.514 1013.87 Q131.227 1013.48 131.508 1012.87 Q131.788 1012.23 131.788 1009.12 L131.788 990.469 Q131.788 986.697 131.533 985.626 Q131.355 984.811 130.871 984.428 Q130.412 984.046 129.749 984.046 Q128.806 984.046 127.124 984.836 L126.742 984.046 Z"
     fill="#000000"
     fill-rule="nonzero"
     fill-opacity="1"
     id="path30" />
  <path
     clip-path="url(#clip530)"
     d="M148.609 998.14 Q148.609 992.227 150.393 987.971 Q152.177 983.689 155.134 981.599 Q157.428 979.943 159.874 979.943 Q163.85 979.943 167.011 983.995 Q170.961 989.016 170.961 997.605 Q170.961 1003.62 169.228 1007.83 Q167.495 1012.03 164.793 1013.94 Q162.117 1015.83 159.62 1015.83 Q154.675 1015.83 151.387 1009.99 Q148.609 1005.07 148.609 998.14 M153.605 998.777 Q153.605 1005.91 155.363 1010.42 Q156.816 1014.22 159.696 1014.22 Q161.072 1014.22 162.551 1013 Q164.029 1011.75 164.793 1008.84 Q165.966 1004.46 165.966 996.483 Q165.966 990.571 164.742 986.62 Q163.825 983.689 162.372 982.466 Q161.327 981.625 159.849 981.625 Q158.116 981.625 156.765 983.179 Q154.93 985.295 154.267 989.831 Q153.605 994.368 153.605 998.777 Z"
     fill="#000000"
     fill-rule="nonzero"
     fill-opacity="1"
     id="path31" />
  <path
     clip-path="url(#clip530)"
     d="M170.961 962.48 L177.795 959.146 L178.478 959.146 L178.478 982.857 Q178.478 985.217 178.665 985.797 Q178.872 986.377 179.493 986.688 Q180.114 986.998 182.019 987.04 L182.019 987.806 L171.458 987.806 L171.458 987.04 Q173.446 986.998 174.026 986.708 Q174.606 986.398 174.834 985.901 Q175.061 985.383 175.061 982.857 L175.061 967.698 Q175.061 964.634 174.854 963.764 Q174.709 963.101 174.316 962.791 Q173.943 962.48 173.405 962.48 Q172.639 962.48 171.272 963.122 L170.961 962.48 Z"
     fill="#000000"
     fill-rule="nonzero"
     fill-opacity="1"
     id="path32" />
  <path
     clip-path="url(#clip530)"
     d="M119.266 610.494 L127.677 606.391 L128.518 606.391 L128.518 635.573 Q128.518 638.479 128.747 639.192 Q129.002 639.906 129.767 640.288 Q130.531 640.67 132.876 640.721 L132.876 641.664 L119.878 641.664 L119.878 640.721 Q122.325 640.67 123.038 640.314 Q123.752 639.931 124.032 639.32 Q124.312 638.682 124.312 635.573 L124.312 616.917 Q124.312 613.145 124.058 612.074 Q123.879 611.259 123.395 610.876 Q122.936 610.494 122.274 610.494 Q121.331 610.494 119.648 611.284 L119.266 610.494 Z"
     fill="#000000"
     fill-rule="nonzero"
     fill-opacity="1"
     id="path33" />
  <path
     clip-path="url(#clip530)"
     d="M141.134 624.588 Q141.134 618.675 142.918 614.419 Q144.702 610.137 147.658 608.047 Q149.952 606.391 152.399 606.391 Q156.375 606.391 159.535 610.443 Q163.486 615.464 163.486 624.053 Q163.486 630.068 161.752 634.273 Q160.019 638.479 157.318 640.39 Q154.642 642.276 152.144 642.276 Q147.2 642.276 143.912 636.44 Q141.134 631.521 141.134 624.588 M146.129 625.226 Q146.129 632.362 147.888 636.873 Q149.34 640.67 152.22 640.67 Q153.597 640.67 155.075 639.447 Q156.553 638.198 157.318 635.293 Q158.49 630.909 158.49 622.932 Q158.49 617.019 157.267 613.068 Q156.349 610.137 154.897 608.914 Q153.852 608.073 152.373 608.073 Q150.64 608.073 149.289 609.628 Q147.454 611.743 146.792 616.28 Q146.129 620.816 146.129 625.226 Z"
     fill="#000000"
     fill-rule="nonzero"
     fill-opacity="1"
     id="path34" />
  <path
     clip-path="url(#clip530)"
     d="M182.019 608.849 L180.052 614.254 L163.486 614.254 L163.486 613.488 Q170.796 606.82 173.777 602.595 Q176.759 598.371 176.759 594.871 Q176.759 592.2 175.123 590.481 Q173.488 588.763 171.21 588.763 Q169.139 588.763 167.482 589.984 Q165.846 591.185 165.059 593.525 L164.293 593.525 Q164.811 589.694 166.944 587.644 Q169.097 585.594 172.307 585.594 Q175.724 585.594 178.002 587.789 Q180.3 589.984 180.3 592.966 Q180.3 595.099 179.306 597.232 Q177.774 600.587 174.337 604.335 Q169.18 609.967 167.896 611.127 L175.227 611.127 Q177.463 611.127 178.354 610.961 Q179.265 610.796 179.99 610.299 Q180.715 609.781 181.253 608.849 L182.019 608.849 Z"
     fill="#000000"
     fill-rule="nonzero"
     fill-opacity="1"
     id="path35" />
  <path
     clip-path="url(#clip530)"
     d="M121.834 236.942 L130.245 232.839 L131.086 232.839 L131.086 262.021 Q131.086 264.927 131.315 265.64 Q131.57 266.354 132.334 266.736 Q133.099 267.119 135.444 267.17 L135.444 268.113 L122.446 268.113 L122.446 267.17 Q124.892 267.119 125.606 266.762 Q126.32 266.38 126.6 265.768 Q126.88 265.131 126.88 262.021 L126.88 243.365 Q126.88 239.593 126.625 238.523 Q126.447 237.707 125.963 237.325 Q125.504 236.942 124.841 236.942 Q123.898 236.942 122.216 237.733 L121.834 236.942 Z"
     fill="#000000"
     fill-rule="nonzero"
     fill-opacity="1"
     id="path36" />
  <path
     clip-path="url(#clip530)"
     d="M143.702 251.037 Q143.702 245.124 145.486 240.867 Q147.27 236.586 150.226 234.496 Q152.52 232.839 154.967 232.839 Q158.943 232.839 162.103 236.891 Q166.053 241.912 166.053 250.501 Q166.053 256.516 164.32 260.722 Q162.587 264.927 159.886 266.838 Q157.209 268.724 154.712 268.724 Q149.767 268.724 146.48 262.888 Q143.702 257.969 143.702 251.037 M148.697 251.674 Q148.697 258.81 150.456 263.321 Q151.908 267.119 154.788 267.119 Q156.165 267.119 157.643 265.895 Q159.121 264.647 159.886 261.741 Q161.058 257.357 161.058 249.38 Q161.058 243.467 159.835 239.517 Q158.917 236.586 157.464 235.362 Q156.419 234.521 154.941 234.521 Q153.208 234.521 151.857 236.076 Q150.022 238.191 149.36 242.728 Q148.697 247.265 148.697 251.674 Z"
     fill="#000000"
     fill-rule="nonzero"
     fill-opacity="1"
     id="path37" />
  <path
     clip-path="url(#clip530)"
     d="M166.488 217.965 Q167.689 215.128 169.512 213.596 Q171.355 212.042 174.088 212.042 Q177.463 212.042 179.265 214.238 Q180.632 215.873 180.632 217.737 Q180.632 220.802 176.78 224.074 Q179.369 225.089 180.694 226.973 Q182.019 228.857 182.019 231.404 Q182.019 235.049 179.7 237.72 Q176.677 241.199 170.94 241.199 Q168.103 241.199 167.068 240.495 Q166.053 239.791 166.053 238.984 Q166.053 238.383 166.53 237.927 Q167.027 237.472 167.71 237.472 Q168.228 237.472 168.766 237.638 Q169.118 237.741 170.361 238.404 Q171.603 239.046 172.079 239.17 Q172.846 239.398 173.715 239.398 Q175.828 239.398 177.381 237.762 Q178.954 236.126 178.954 233.889 Q178.954 232.253 178.23 230.7 Q177.691 229.541 177.049 228.94 Q176.159 228.112 174.606 227.449 Q173.053 226.766 171.437 226.766 L170.775 226.766 L170.775 226.145 Q172.411 225.938 174.047 224.964 Q175.703 223.991 176.449 222.624 Q177.194 221.258 177.194 219.622 Q177.194 217.489 175.848 216.184 Q174.523 214.859 172.535 214.859 Q169.325 214.859 167.172 218.296 L166.488 217.965 Z"
     fill="#000000"
     fill-rule="nonzero"
     fill-opacity="1"
     id="path38" />
  <polyline
     clip-path="url(#clip532)"
     style="stroke:#0066cc;stroke-linecap:round;stroke-linejoin:round;stroke-width:4;stroke-opacity:1;fill:none"
     stroke-dasharray="16, 10"
     points="249.28,1176.96 289.923,1146.66 327.326,1118.78 361.967,1092.95 394.226,1068.9 424.41,1046.4 452.769,1025.26 479.513,1005.32 504.814,986.458 528.821,968.56 551.659,951.534 573.438,935.297 594.25,919.781 614.179,904.924 633.296,890.672 651.665,876.977 669.342,863.799 686.377,851.099 702.816,838.844 718.698,827.003 734.061,815.55 748.936,804.46 763.354,793.711 777.343,783.282 790.927,773.155 804.129,763.313 816.969,753.74 829.468,744.422 841.642,735.346 853.509,726.499 865.083,717.871 876.378,709.45 887.408,701.227 898.185,693.192 908.72,685.339 919.023,677.657 929.106,670.141 938.976,662.782 948.643,655.575 958.114,648.514 967.399,641.592 976.503,634.805 985.434,628.147 994.199,621.613 1002.8,615.198 1011.25,608.9 1019.55,602.712 1027.71,596.632 1035.72,590.656 1043.6,584.781 1051.35,579.002 1058.98,573.317 1066.48,567.724 1073.87,562.218 1081.14,556.797 1088.3,551.459 1095.35,546.202 1102.3,541.022 1109.15,535.918 1115.89,530.887 1122.55,525.927 1129.11,521.037 1135.58,516.214 1141.96,511.457 1148.25,506.763 1154.46,502.132 1160.6,497.561 1166.65,493.049 1172.62,488.595 1178.52,484.196 1184.35,479.852 1190.1,475.562 1195.79,471.323 1201.41,467.135 1206.96,462.997 1212.44,458.907 1217.87,454.864 1223.23,450.867 1228.53,446.916 1233.77,443.009 1238.95,439.144 1244.08,435.322 1249.15,431.542 1254.17,427.801 1259.13,424.101 1264.04,420.439 1268.9,416.815 1273.72,413.228 1278.48,409.677 1283.19,406.162 1287.86,402.683 1292.48,399.237 1297.06,395.825 1301.59,392.446 1306.08,389.099 1310.53,385.784 1314.93,382.5 1319.3,379.247 1323.62,376.023 1327.9,372.829 1332.15,369.664 1336.36,366.527 1340.53,363.418 1344.66,360.337 1348.76,357.282 1352.82,354.254 1356.85,351.252 1360.84,348.275 1364.8,345.324 1368.72,342.397 1372.62,339.494 1376.48,336.616 1380.31,333.76 1384.11,330.928 1387.88,328.119 1391.61,325.332 1395.32,322.567 1399,319.824 1402.65,317.102 1406.28,314.401 1409.87,311.721 1413.44,309.061 1416.98,306.421 1420.5,303.801 1423.98,301.2 1427.45,298.619 1430.88,296.056 1434.3,293.513 1437.68,290.987 1441.05,288.48 1444.39,285.99 1447.7,283.518 1450.99,281.064 1454.26,278.626 1457.51,276.205 1460.74,273.801 1463.94,271.414 1467.12,269.042 1470.28,266.687 1473.42,264.347 1476.53,262.023 1479.63,259.714 1482.71,257.42 1485.76,255.141 1488.8,252.877 1491.82,250.628 1494.82,248.393 1497.8,246.172 1500.76,243.965 1503.7,241.772 1506.62,239.592 1509.53,237.426 1512.41,235.274 1515.28,233.134 1518.14,231.008 1520.97,228.894 1523.79,226.793 1526.59,224.705 1529.38,222.629 1532.14,220.565 1534.9,218.514 1537.63,216.474 1540.35,214.446 1543.06,212.43 1545.74,210.425 1548.42,208.432 1551.08,206.45 1553.72,204.479 1556.35,202.52 1558.96,200.571 1561.56,198.633 1564.15,196.705 1566.72,194.789 1569.28,192.882 1571.82,190.986 1574.35,189.1 1576.86,187.225 1579.37,185.359 1581.86,183.503 1584.33,181.657 1586.8,179.821 1589.25,177.994 1591.68,176.177 1594.11,174.369 1596.52,172.571 1598.92,170.781 1601.31,169.001 1603.69,167.23 1606.05,165.467 1608.4,163.714 1610.74,161.969 1613.07,160.233 1615.39,158.505 1617.69,156.786 1619.99,155.076 1622.27,153.373 1624.54,151.679 1626.81,149.993 1629.06,148.316 1631.3,146.646 "
     id="polyline77" />
  <circle
     clip-path="url(#clip532)"
     cx="529.883"
     cy="972.628"
     r="14.4"
     fill="#0066cc"
     fill-rule="evenodd"
     fill-opacity="1"
     stroke="#000000"
     stroke-opacity="1"
     stroke-width="2.8"
     id="circle58" />
  <circle
     clip-path="url(#clip532)"
     cx="588.63"
     cy="933.027"
     r="14.4"
     fill="#0066cc"
     fill-rule="evenodd"
     fill-opacity="1"
     stroke="#000000"
     stroke-opacity="1"
     stroke-width="2.8"
     id="circle59" />
  <circle
     clip-path="url(#clip532)"
     cx="640.836"
     cy="888.133"
     r="14.4"
     fill="#0066cc"
     fill-rule="evenodd"
     fill-opacity="1"
     stroke="#000000"
     stroke-opacity="1"
     stroke-width="2.8"
     id="circle60" />
  <circle
     clip-path="url(#clip532)"
     cx="709.646"
     cy="837.913"
     r="14.4"
     fill="#0066cc"
     fill-rule="evenodd"
     fill-opacity="1"
     stroke="#000000"
     stroke-opacity="1"
     stroke-width="2.8"
     id="circle61" />
  <circle
     clip-path="url(#clip532)"
     cx="750.486"
     cy="792.782"
     r="14.4"
     fill="#0066cc"
     fill-rule="evenodd"
     fill-opacity="1"
     stroke="#000000"
     stroke-opacity="1"
     stroke-width="2.8"
     id="circle62" />
  <circle
     clip-path="url(#clip532)"
     cx="805.77"
     cy="756.534"
     r="14.4"
     fill="#0066cc"
     fill-rule="evenodd"
     fill-opacity="1"
     stroke="#000000"
     stroke-opacity="1"
     stroke-width="2.8"
     id="circle63" />
  <circle
     clip-path="url(#clip532)"
     cx="870.612"
     cy="718.586"
     r="14.4"
     fill="#0066cc"
     fill-rule="evenodd"
     fill-opacity="1"
     stroke="#000000"
     stroke-opacity="1"
     stroke-width="2.8"
     id="circle64" />
  <circle
     clip-path="url(#clip532)"
     cx="927.575"
     cy="655.886"
     r="14.4"
     fill="#0066cc"
     fill-rule="evenodd"
     fill-opacity="1"
     stroke="#000000"
     stroke-opacity="1"
     stroke-width="2.8"
     id="circle65" />
  <circle
     clip-path="url(#clip532)"
     cx="990.25"
     cy="636.793"
     r="14.4"
     fill="#0066cc"
     fill-rule="evenodd"
     fill-opacity="1"
     stroke="#000000"
     stroke-opacity="1"
     stroke-width="2.8"
     id="circle66" />
  <circle
     clip-path="url(#clip532)"
     cx="1045.53"
     cy="566.252"
     r="14.4"
     fill="#0066cc"
     fill-rule="evenodd"
     fill-opacity="1"
     stroke="#000000"
     stroke-opacity="1"
     stroke-width="2.8"
     id="circle67" />
  <circle
     clip-path="url(#clip532)"
     cx="1094.99"
     cy="562.497"
     r="14.4"
     fill="#0066cc"
     fill-rule="evenodd"
     fill-opacity="1"
     stroke="#000000"
     stroke-opacity="1"
     stroke-width="2.8"
     id="circle68" />
  <circle
     clip-path="url(#clip532)"
     cx="1156.49"
     cy="481.892"
     r="14.4"
     fill="#0066cc"
     fill-rule="evenodd"
     fill-opacity="1"
     stroke="#000000"
     stroke-opacity="1"
     stroke-width="2.8"
     id="circle69" />
  <circle
     clip-path="url(#clip532)"
     cx="1210.85"
     cy="473.589"
     r="14.4"
     fill="#0066cc"
     fill-rule="evenodd"
     fill-opacity="1"
     stroke="#000000"
     stroke-opacity="1"
     stroke-width="2.8"
     id="circle70" />
  <circle
     clip-path="url(#clip532)"
     cx="1266.14"
     cy="409.995"
     r="14.4"
     fill="#0066cc"
     fill-rule="evenodd"
     fill-opacity="1"
     stroke="#000000"
     stroke-opacity="1"
     stroke-width="2.8"
     id="circle71" />
  <circle
     clip-path="url(#clip532)"
     cx="1327.18"
     cy="335.705"
     r="14.4"
     fill="#0066cc"
     fill-rule="evenodd"
     fill-opacity="1"
     stroke="#000000"
     stroke-opacity="1"
     stroke-width="2.8"
     id="circle72" />
  <circle
     clip-path="url(#clip532)"
     cx="1381.19"
     cy="361.823"
     r="14.4"
     fill="#0066cc"
     fill-rule="evenodd"
     fill-opacity="1"
     stroke="#000000"
     stroke-opacity="1"
     stroke-width="2.8"
     id="circle73" />
  <circle
     clip-path="url(#clip532)"
     cx="1438.73"
     cy="304.408"
     r="14.4"
     fill="#0066cc"
     fill-rule="evenodd"
     fill-opacity="1"
     stroke="#000000"
     stroke-opacity="1"
     stroke-width="2.8"
     id="circle74" />
  <circle
     clip-path="url(#clip532)"
     cx="1498.01"
     cy="257.056"
     r="14.4"
     fill="#0066cc"
     fill-rule="evenodd"
     fill-opacity="1"
     stroke="#000000"
     stroke-opacity="1"
     stroke-width="2.8"
     id="circle75" />
  <circle
     clip-path="url(#clip532)"
     cx="1554.18"
     cy="196.892"
     r="14.4"
     fill="#0066cc"
     fill-rule="evenodd"
     fill-opacity="1"
     stroke="#000000"
     stroke-opacity="1"
     stroke-width="2.8"
     id="circle76" />
  <circle
     clip-path="url(#clip532)"
     cx="1610.64"
     cy="161.422"
     r="14.4"
     fill="#0066cc"
     fill-rule="evenodd"
     fill-opacity="1"
     stroke="#000000"
     stroke-opacity="1"
     stroke-width="2.8"
     id="circle77" />
  <g
     data-mml-node="msubsup"
     data-latex="\tau^{|m|}_\text{int}"
     data-semantic-type="subsup"
     data-semantic-role="greekletter"
     data-semantic-annotation="depth:1"
     data-semantic-id="7"
     data-semantic-children="0,1,5"
     data-semantic-attributes="latex:\tau^{|m|}_\text{int}"
     data-semantic-collapsed="(7 (6 0 1) 5)"
     data-semantic-owns="0 1 5"
     aria-level="0"
     data-speech-node="true"
     id="g8"
     transform="matrix(0,-0.04543512,-0.04543512,0,92.19076,669.39783)"
     style="fill:#000000;stroke:#000000;stroke-width:0">
    <g
       data-mml-node="mi"
       data-latex="\tau"
       data-semantic-type="identifier"
       data-semantic-role="greekletter"
       data-semantic-font="italic"
       data-semantic-annotation="clearspeak:simple;nemeth:number;depth:3"
       data-semantic-id="0"
       data-semantic-parent="7"
       data-semantic-attributes="latex:\tau"
       aria-level="2"
       data-speech-node="true"
       id="g1">
      <path
         id="use1"
         d="M 468,431 H 192 C 139,431 91,397 47,330 34,310 27,297 27,292 c 3,-8 4,-13 16,-13 7,0 13,4 19,13 32,49 72,74 121,74 h 77 L 165,56 c -7,-22 -10,-35 -10,-38 0,-20 11,-30 32,-30 11,0 21,3 27,9 13,12 14,15 18,36 l 65,333 h 162 c 35,0 52,12 52,37 0,23 -18,28 -43,28 z" />
    </g>
    <g
       data-mml-node="TeXAtom"
       transform="matrix(0.707,0,0,0.707,597.7,530.4)"
       data-mjx-texclass="ORD"
       data-latex="{|m|}"
       data-semantic-type="fenced"
       data-semantic-role="neutral"
       data-semantic-annotation="depth:2"
       data-semantic-id="5"
       data-semantic-children="3"
       data-semantic-content="2,4"
       data-semantic-parent="7"
       data-semantic-attributes="latex:{|m|};texclass:ORD"
       data-semantic-owns="2 3 4"
       aria-level="1"
       data-speech-node="true"
       id="g5">
      <g
         data-mml-node="mo"
         data-mjx-texclass="ORD"
         data-latex="|"
         data-semantic-type="fence"
         data-semantic-role="neutral"
         data-semantic-annotation="depth:3"
         data-semantic-id="2"
         data-semantic-parent="5"
         data-semantic-attributes="latex:|;texclass:ORD"
         data-semantic-operator="fenced"
         aria-level="2"
         data-speech-node="true"
         id="g2">
        <path
           id="use2"
           d="m 139,-250 c 13,0 20,8 20,24 v 952 c 0,16 -7,24 -20,24 -13,0 -20,-8 -20,-24 v -952 c 0,-16 7,-24 20,-24 z" />
      </g>
      <g
         data-mml-node="mi"
         data-latex="m"
         data-semantic-type="identifier"
         data-semantic-role="latinletter"
         data-semantic-font="italic"
         data-semantic-annotation="clearspeak:simple;depth:3"
         data-semantic-id="3"
         data-semantic-parent="5"
         data-semantic-attributes="latex:m"
         aria-level="2"
         data-speech-node="true"
         transform="translate(278)"
         id="g3">
        <path
           id="use3"
           d="m 657,442 c -61,0 -114,-30 -159,-89 -9,59 -47,89 -115,89 -59,0 -110,-26 -152,-79 -8,44 -43,79 -94,79 -41,0 -71,-33 -92,-98 -11,-32 -16,-51 -16,-57 0,-9 5,-14 16,-14 5,0 8,1 11,3 5,9 8,16 10,23 18,76 41,114 68,114 18,0 27,-14 27,-42 0,-13 -5,-40 -16,-81 L 88,63 C 84,51 79,25 79,19 c 0,-20 11,-30 32,-30 20,0 34,10 41,30 1,5 8,30 19,73 l 21,89 30,114 c 11,23 28,46 50,70 29,32 65,48 108,48 33,0 49,-22 49,-65 0,-13 -5,-40 -15,-81 L 387,153 c -7,-29 -23,-89 -31,-121 -1,-7 -2,-11 -2,-13 0,-20 11,-30 33,-30 11,0 19,3 26,10 15,15 16,22 22,49 l 59,237 c 3,13 17,36 41,68 30,40 70,60 119,60 33,0 49,-22 49,-65 0,-39 -20,-112 -61,-219 -9,-23 -13,-42 -13,-55 0,-49 37,-85 85,-85 45,0 79,25 104,75 20,40 30,67 30,80 0,9 -5,14 -16,14 -7,-1 -14,-10 -19,-21 C 791,58 759,18 716,18 c -13,0 -20,10 -20,29 0,15 6,37 18,68 41,107 61,180 61,218 0,71 -47,109 -118,109 z" />
      </g>
      <g
         data-mml-node="mo"
         data-mjx-texclass="ORD"
         data-latex="|"
         data-semantic-type="fence"
         data-semantic-role="neutral"
         data-semantic-annotation="depth:3"
         data-semantic-id="4"
         data-semantic-parent="5"
         data-semantic-attributes="latex:|;texclass:ORD"
         data-semantic-operator="fenced"
         aria-level="2"
         data-speech-node="true"
         transform="translate(1156)"
         id="g4">
        <path
           id="use4"
           d="m 139,-250 c 13,0 20,8 20,24 v 952 c 0,16 -7,24 -20,24 -13,0 -20,-8 -20,-24 v -952 c 0,-16 7,-24 20,-24 z" />
      </g>
    </g>
    <g
       data-mml-node="mtext"
       transform="matrix(0.707,0,0,0.707,470,-291)"
       data-latex="{int}"
       data-semantic-type="text"
       data-semantic-role="unknown"
       data-semantic-font="normal"
       data-semantic-annotation="clearspeak:unit;depth:3"
       data-semantic-id="1"
       data-semantic-parent="7"
       data-semantic-attributes="latex:{int}"
       aria-level="2"
       data-speech-node="true"
       id="g7">
      <path
         id="use5"
         d="m 194,601 c 0,30 -25,56 -55,56 -30,0 -56,-26 -56,-56 0,-30 25,-57 55,-57 31,0 56,26 56,57 M 143,3 247,0 v 39 c -33,0 -53,2 -59,6 -6,4 -8,15 -8,33 V 445 L 37,433 v -38 c 33,0 54,-3 61,-8 7,-5 10,-19 10,-42 V 79 C 108,60 105,48 98,44 91,40 69,39 33,39 V 0 Z" />
      <path
         id="use6"
         d="m 592,413 c 45,0 68,-35 68,-106 V 79 c 0,-19 -3,-31 -10,-35 -7,-4 -29,-6 -66,-6 V 0 L 699,3 813,0 v 38 c -32,0 -53,1 -63,4 -10,3 -14,10 -14,22 v 187 c 0,47 -1,80 -4,99 -10,61 -55,92 -134,92 -63,0 -110,-30 -141,-90 v 90 L 310,431 v -38 c 36,0 58,-3 66,-9 8,-6 11,-19 11,-42 V 79 c 0,-19 -4,-31 -11,-35 -7,-4 -29,-6 -66,-6 V 0 L 425,3 539,0 v 38 c -37,0 -58,2 -65,6 -7,4 -11,16 -11,35 v 180 c 0,81 51,154 129,154 z" />
      <path
         id="use7"
         d="m 1166,126 v 60 h -32 v -58 c 0,-50 -18,-106 -62,-106 -41,0 -61,34 -61,102 v 271 h 139 v 38 H 1011 V 615 H 979 C 978,582 975,553 968,527 951,461 912,427 853,424 v -29 h 83 V 126 c 0,-59 18,-97 53,-116 27,-14 52,-21 77,-21 66,0 100,66 100,137 z" />
    </g>
  </g>
</svg>
