<?xml version="1.0" encoding="UTF-8" standalone="no"?>
<svg
   width="430"
   height="350"
   viewBox="0 0 1720 1400"
   version="1.1"
   id="svg86"
   sodipodi:docname="tau_int_metropolis_hex.svg"
   inkscape:version="1.4.2 (ebf0e940, 2025-05-08)"
   xmlns:inkscape="http://www.inkscape.org/namespaces/inkscape"
   xmlns:sodipodi="http://sodipodi.sourceforge.net/DTD/sodipodi-0.dtd"
   xmlns="http://www.w3.org/2000/svg"
   xmlns:svg="http://www.w3.org/2000/svg">
  <sodipodi:namedview
     id="namedview86"
     pagecolor="#ffffff"
     bordercolor="#000000"
     borderopacity="0.25"
     inkscape:showpageshadow="2"
     inkscape:pageopacity="0.0"
     inkscape:pagecheckerboard="0"
     inkscape:deskcolor="#d1d1d1"
     inkscape:zoom="3.7199826"
     inkscape:cx="53.763692"
     inkscape:cy="243.54952"
     inkscape:window-width="1728"
     inkscape:window-height="1055"
     inkscape:window-x="0"
     inkscape:window-y="34"
     inkscape:window-maximized="1"
     inkscape:current-layer="svg86"
     showgrid="false" />
  <defs
     id="defs1">
    <clipPath
       id="clip470">
      <rect
         x="0"
         y="0"
         width="1720"
         height="1400"
         id="rect1" />
    </clipPath>
  </defs>
  <path
     clip-path="url(#clip470)"
     d="M0 1400 L1720 1400 L1720 -4.44089e-15 L0 -4.44089e-15  Z"
     fill="#ffffff"
     fill-rule="evenodd"
     fill-opacity="1"
     id="path1" />
  <defs
     id="defs2">
    <clipPath
       id="clip471">
      <rect
         x="344"
         y="0"
         width="1205"
         height="1205"
         id="rect2" />
    </clipPath>
  </defs>
  <path
     clip-path="url(#clip470)"
     d="M207.819 1207.87 L1672.76 1207.87 L1672.76 115.736 L207.819 115.736  Z"
     fill="#ffffff"
     fill-rule="evenodd"
     fill-opacity="1"
     id="path2" />
  <defs
     id="defs3">
    <clipPath
       id="clip472">
      <rect
         x="207"
         y="115"
         width="1466"
         height="1093"
         id="rect3" />
    </clipPath>
  </defs>
  <polyline
     clip-path="url(#clip472)"
     style="stroke:#000000; stroke-linecap:round; stroke-linejoin:round; stroke-width:2; stroke-opacity:0.1; fill:none"
     points="554.61,1207.87 554.61,115.736 "
     id="polyline3" />
  <polyline
     clip-path="url(#clip472)"
     style="stroke:#000000; stroke-linecap:round; stroke-linejoin:round; stroke-width:2; stroke-opacity:0.1; fill:none"
     points="1094.99,1207.87 1094.99,115.736 "
     id="polyline4" />
  <polyline
     clip-path="url(#clip472)"
     style="stroke:#000000; stroke-linecap:round; stroke-linejoin:round; stroke-width:2; stroke-opacity:0.1; fill:none"
     points="1635.36,1207.87 1635.36,115.736 "
     id="polyline5" />
  <polyline
     clip-path="url(#clip472)"
     style="stroke:#000000; stroke-linecap:round; stroke-linejoin:round; stroke-width:2; stroke-opacity:0.1; fill:none"
     points="207.819,1190.66 1672.76,1190.66 "
     id="polyline6" />
  <polyline
     clip-path="url(#clip472)"
     style="stroke:#000000; stroke-linecap:round; stroke-linejoin:round; stroke-width:2; stroke-opacity:0.1; fill:none"
     points="207.819,806.428 1672.76,806.428 "
     id="polyline7" />
  <polyline
     clip-path="url(#clip472)"
     style="stroke:#000000; stroke-linecap:round; stroke-linejoin:round; stroke-width:2; stroke-opacity:0.1; fill:none"
     points="207.819,422.195 1672.76,422.195 "
     id="polyline8" />
  <polyline
     clip-path="url(#clip470)"
     style="stroke:#000000; stroke-linecap:round; stroke-linejoin:round; stroke-width:4; stroke-opacity:1; fill:none"
     points="207.819,1207.87 1672.76,1207.87 "
     id="polyline9" />
  <polyline
     clip-path="url(#clip470)"
     style="stroke:#000000; stroke-linecap:round; stroke-linejoin:round; stroke-width:4; stroke-opacity:1; fill:none"
     points="554.61,1207.87 554.61,1188.97 "
     id="polyline10" />
  <polyline
     clip-path="url(#clip470)"
     style="stroke:#000000; stroke-linecap:round; stroke-linejoin:round; stroke-width:4; stroke-opacity:1; fill:none"
     points="1094.99,1207.87 1094.99,1188.97 "
     id="polyline11" />
  <polyline
     clip-path="url(#clip470)"
     style="stroke:#000000; stroke-linecap:round; stroke-linejoin:round; stroke-width:4; stroke-opacity:1; fill:none"
     points="1635.36,1207.87 1635.36,1188.97 "
     id="polyline12" />
  <path
     clip-path="url(#clip470)"
     d="M509.876 1249.32 L518.287 1245.22 L519.128 1245.22 L519.128 1274.4 Q519.128 1277.31 519.357 1278.02 Q519.612 1278.73 520.377 1279.12 Q521.141 1279.5 523.486 1279.55 L523.486 1280.49 L510.488 1280.49 L510.488 1279.55 Q512.935 1279.5 513.648 1279.14 Q514.362 1278.76 514.642 1278.15 Q514.923 1277.51 514.923 1274.4 L514.923 1255.74 Q514.923 1251.97 514.668 1250.9 Q514.489 1250.09 514.005 1249.7 Q513.546 1249.32 512.884 1249.32 Q511.941 1249.32 510.259 1250.11 L509.876 1249.32 Z"
     fill="#000000"
     fill-rule="nonzero"
     fill-opacity="1"
     id="path12" />
  <path
     clip-path="url(#clip470)"
     d="M531.744 1263.42 Q531.744 1257.5 533.528 1253.25 Q535.312 1248.97 538.269 1246.88 Q540.562 1245.22 543.009 1245.22 Q546.985 1245.22 550.145 1249.27 Q554.096 1254.29 554.096 1262.88 Q554.096 1268.9 552.363 1273.1 Q550.63 1277.31 547.928 1279.22 Q545.252 1281.1 542.754 1281.1 Q537.81 1281.1 534.522 1275.27 Q531.744 1270.35 531.744 1263.42 M536.739 1264.05 Q536.739 1271.19 538.498 1275.7 Q539.951 1279.5 542.831 1279.5 Q544.207 1279.5 545.685 1278.27 Q547.163 1277.03 547.928 1274.12 Q549.1 1269.74 549.1 1261.76 Q549.1 1255.85 547.877 1251.9 Q546.96 1248.97 545.507 1247.74 Q544.462 1246.9 542.984 1246.9 Q541.251 1246.9 539.9 1248.46 Q538.065 1250.57 537.402 1255.11 Q536.739 1259.64 536.739 1264.05 Z"
     fill="#000000"
     fill-rule="nonzero"
     fill-opacity="1"
     id="path13" />
  <path
     clip-path="url(#clip470)"
     d="M554.096 1227.76 L560.929 1224.42 L561.613 1224.42 L561.613 1248.13 Q561.613 1250.49 561.799 1251.07 Q562.006 1251.65 562.627 1251.96 Q563.249 1252.27 565.154 1252.32 L565.154 1253.08 L554.593 1253.08 L554.593 1252.32 Q556.581 1252.27 557.161 1251.98 Q557.74 1251.67 557.968 1251.18 Q558.196 1250.66 558.196 1248.13 L558.196 1232.97 Q558.196 1229.91 557.989 1229.04 Q557.844 1228.38 557.451 1228.07 Q557.078 1227.76 556.539 1227.76 Q555.773 1227.76 554.406 1228.4 L554.096 1227.76 Z"
     fill="#000000"
     fill-rule="nonzero"
     fill-opacity="1"
     id="path14" />
  <path
     clip-path="url(#clip470)"
     d="M575.632 1249.06 Q576.605 1249.06 577.268 1249.75 Q577.931 1250.41 577.931 1251.36 Q577.931 1252.32 577.247 1253 Q576.585 1253.66 575.632 1253.66 Q574.68 1253.66 573.996 1253 Q573.334 1252.32 573.334 1251.36 Q573.334 1250.39 573.996 1249.73 Q574.68 1249.06 575.632 1249.06 Z"
     fill="#000000"
     fill-rule="nonzero"
     fill-opacity="1"
     id="path15" />
  <path
     clip-path="url(#clip470)"
     d="M599.343 1225 L597.727 1228.52 L589.279 1228.52 L587.436 1232.29 Q592.923 1233.1 596.133 1236.37 Q598.887 1239.19 598.887 1243 Q598.887 1245.21 597.976 1247.1 Q597.086 1248.98 595.719 1250.31 Q594.352 1251.63 592.675 1252.44 Q590.293 1253.58 587.788 1253.58 Q585.261 1253.58 584.102 1252.73 Q582.963 1251.86 582.963 1250.82 Q582.963 1250.24 583.439 1249.81 Q583.915 1249.35 584.64 1249.35 Q585.178 1249.35 585.572 1249.52 Q585.986 1249.69 586.959 1250.37 Q588.512 1251.45 590.107 1251.45 Q592.53 1251.45 594.352 1249.62 Q596.195 1247.78 596.195 1245.15 Q596.195 1242.6 594.559 1240.41 Q592.923 1238.19 590.045 1236.99 Q587.788 1236.06 583.895 1235.91 L589.279 1225 L599.343 1225 Z"
     fill="#000000"
     fill-rule="nonzero"
     fill-opacity="1"
     id="path16" />
  <path
     clip-path="url(#clip470)"
     d="M1047.58 1249.32 L1055.99 1245.22 L1056.83 1245.22 L1056.83 1274.4 Q1056.83 1277.31 1057.06 1278.02 Q1057.32 1278.73 1058.08 1279.12 Q1058.85 1279.5 1061.19 1279.55 L1061.19 1280.49 L1048.19 1280.49 L1048.19 1279.55 Q1050.64 1279.5 1051.35 1279.14 Q1052.07 1278.76 1052.35 1278.15 Q1052.63 1277.51 1052.63 1274.4 L1052.63 1255.74 Q1052.63 1251.97 1052.37 1250.9 Q1052.19 1250.09 1051.71 1249.7 Q1051.25 1249.32 1050.59 1249.32 Q1049.65 1249.32 1047.96 1250.11 L1047.58 1249.32 Z"
     fill="#000000"
     fill-rule="nonzero"
     fill-opacity="1"
     id="path17" />
  <path
     clip-path="url(#clip470)"
     d="M1069.45 1263.42 Q1069.45 1257.5 1071.23 1253.25 Q1073.02 1248.97 1075.97 1246.88 Q1078.27 1245.22 1080.71 1245.22 Q1084.69 1245.22 1087.85 1249.27 Q1091.8 1254.29 1091.8 1262.88 Q1091.8 1268.9 1090.07 1273.1 Q1088.33 1277.31 1085.63 1279.22 Q1082.96 1281.1 1080.46 1281.1 Q1075.51 1281.1 1072.23 1275.27 Q1069.45 1270.35 1069.45 1263.42 M1074.44 1264.05 Q1074.44 1271.19 1076.2 1275.7 Q1077.66 1279.5 1080.54 1279.5 Q1081.91 1279.5 1083.39 1278.27 Q1084.87 1277.03 1085.63 1274.12 Q1086.81 1269.74 1086.81 1261.76 Q1086.81 1255.85 1085.58 1251.9 Q1084.66 1248.97 1083.21 1247.74 Q1082.17 1246.9 1080.69 1246.9 Q1078.96 1246.9 1077.6 1248.46 Q1075.77 1250.57 1075.11 1255.11 Q1074.44 1259.64 1074.44 1264.05 Z"
     fill="#000000"
     fill-rule="nonzero"
     fill-opacity="1"
     id="path18" />
  <path
     clip-path="url(#clip470)"
     d="M1110.33 1247.68 L1108.37 1253.08 L1091.8 1253.08 L1091.8 1252.32 Q1099.11 1245.65 1102.09 1241.42 Q1105.07 1237.2 1105.07 1233.7 Q1105.07 1231.03 1103.44 1229.31 Q1101.8 1227.59 1099.52 1227.59 Q1097.45 1227.59 1095.8 1228.81 Q1094.16 1230.01 1093.37 1232.35 L1092.61 1232.35 Q1093.13 1228.52 1095.26 1226.47 Q1097.41 1224.42 1100.62 1224.42 Q1104.04 1224.42 1106.32 1226.62 Q1108.62 1228.81 1108.62 1231.79 Q1108.62 1233.93 1107.62 1236.06 Q1106.09 1239.41 1102.65 1243.16 Q1097.5 1248.8 1096.21 1249.95 L1103.54 1249.95 Q1105.78 1249.95 1106.67 1249.79 Q1107.58 1249.62 1108.3 1249.13 Q1109.03 1248.61 1109.57 1247.68 L1110.33 1247.68 Z"
     fill="#000000"
     fill-rule="nonzero"
     fill-opacity="1"
     id="path19" />
  <path
     clip-path="url(#clip470)"
     d="M1117.4 1249.06 Q1118.37 1249.06 1119.03 1249.75 Q1119.69 1250.41 1119.69 1251.36 Q1119.69 1252.32 1119.01 1253 Q1118.35 1253.66 1117.4 1253.66 Q1116.44 1253.66 1115.76 1253 Q1115.1 1252.32 1115.1 1251.36 Q1115.1 1250.39 1115.76 1249.73 Q1116.44 1249.06 1117.4 1249.06 Z"
     fill="#000000"
     fill-rule="nonzero"
     fill-opacity="1"
     id="path20" />
  <path
     clip-path="url(#clip470)"
     d="M1124.23 1239.21 Q1124.23 1234.4 1125.68 1230.95 Q1127.13 1227.47 1129.53 1225.77 Q1131.39 1224.42 1133.38 1224.42 Q1136.61 1224.42 1139.18 1227.71 Q1142.39 1231.79 1142.39 1238.77 Q1142.39 1243.66 1140.98 1247.08 Q1139.57 1250.49 1137.38 1252.05 Q1135.2 1253.58 1133.18 1253.58 Q1129.16 1253.58 1126.49 1248.84 Q1124.23 1244.84 1124.23 1239.21 M1128.29 1239.73 Q1128.29 1245.52 1129.72 1249.19 Q1130.9 1252.27 1133.24 1252.27 Q1134.36 1252.27 1135.56 1251.28 Q1136.76 1250.27 1137.38 1247.9 Q1138.33 1244.34 1138.33 1237.86 Q1138.33 1233.06 1137.34 1229.85 Q1136.59 1227.47 1135.41 1226.47 Q1134.56 1225.79 1133.36 1225.79 Q1131.95 1225.79 1130.86 1227.05 Q1129.36 1228.77 1128.83 1232.46 Q1128.29 1236.14 1128.29 1239.73 Z"
     fill="#000000"
     fill-rule="nonzero"
     fill-opacity="1"
     id="path21" />
  <path
     clip-path="url(#clip470)"
     d="M1588.6 1249.32 L1597.01 1245.22 L1597.85 1245.22 L1597.85 1274.4 Q1597.85 1277.31 1598.08 1278.02 Q1598.34 1278.73 1599.1 1279.12 Q1599.86 1279.5 1602.21 1279.55 L1602.21 1280.49 L1589.21 1280.49 L1589.21 1279.55 Q1591.66 1279.5 1592.37 1279.14 Q1593.08 1278.76 1593.37 1278.15 Q1593.65 1277.51 1593.65 1274.4 L1593.65 1255.74 Q1593.65 1251.97 1593.39 1250.9 Q1593.21 1250.09 1592.73 1249.7 Q1592.27 1249.32 1591.61 1249.32 Q1590.66 1249.32 1588.98 1250.11 L1588.6 1249.32 Z"
     fill="#000000"
     fill-rule="nonzero"
     fill-opacity="1"
     id="path22" />
  <path
     clip-path="url(#clip470)"
     d="M1610.47 1263.42 Q1610.47 1257.5 1612.25 1253.25 Q1614.03 1248.97 1616.99 1246.88 Q1619.29 1245.22 1621.73 1245.22 Q1625.71 1245.22 1628.87 1249.27 Q1632.82 1254.29 1632.82 1262.88 Q1632.82 1268.9 1631.09 1273.1 Q1629.35 1277.31 1626.65 1279.22 Q1623.97 1281.1 1621.48 1281.1 Q1616.53 1281.1 1613.24 1275.27 Q1610.47 1270.35 1610.47 1263.42 M1615.46 1264.05 Q1615.46 1271.19 1617.22 1275.7 Q1618.67 1279.5 1621.55 1279.5 Q1622.93 1279.5 1624.41 1278.27 Q1625.89 1277.03 1626.65 1274.12 Q1627.82 1269.74 1627.82 1261.76 Q1627.82 1255.85 1626.6 1251.9 Q1625.68 1248.97 1624.23 1247.74 Q1623.18 1246.9 1621.71 1246.9 Q1619.97 1246.9 1618.62 1248.46 Q1616.79 1250.57 1616.12 1255.11 Q1615.46 1259.64 1615.46 1264.05 Z"
     fill="#000000"
     fill-rule="nonzero"
     fill-opacity="1"
     id="path23" />
  <path
     clip-path="url(#clip470)"
     d="M1651.35 1247.68 L1649.38 1253.08 L1632.82 1253.08 L1632.82 1252.32 Q1640.13 1245.65 1643.11 1241.42 Q1646.09 1237.2 1646.09 1233.7 Q1646.09 1231.03 1644.46 1229.31 Q1642.82 1227.59 1640.54 1227.59 Q1638.47 1227.59 1636.82 1228.81 Q1635.18 1230.01 1634.39 1232.35 L1633.63 1232.35 Q1634.14 1228.52 1636.28 1226.47 Q1638.43 1224.42 1641.64 1224.42 Q1645.06 1224.42 1647.33 1226.62 Q1649.63 1228.81 1649.63 1231.79 Q1649.63 1233.93 1648.64 1236.06 Q1647.11 1239.41 1643.67 1243.16 Q1638.51 1248.8 1637.23 1249.95 L1644.56 1249.95 Q1646.8 1249.95 1647.69 1249.79 Q1648.6 1249.62 1649.32 1249.13 Q1650.05 1248.61 1650.59 1247.68 L1651.35 1247.68 Z"
     fill="#000000"
     fill-rule="nonzero"
     fill-opacity="1"
     id="path24" />
  <path
     clip-path="url(#clip470)"
     d="M1658.41 1249.06 Q1659.39 1249.06 1660.05 1249.75 Q1660.71 1250.41 1660.71 1251.36 Q1660.71 1252.32 1660.03 1253 Q1659.37 1253.66 1658.41 1253.66 Q1657.46 1253.66 1656.78 1253 Q1656.12 1252.32 1656.12 1251.36 Q1656.12 1250.39 1656.78 1249.73 Q1657.46 1249.06 1658.41 1249.06 Z"
     fill="#000000"
     fill-rule="nonzero"
     fill-opacity="1"
     id="path25" />
  <path
     clip-path="url(#clip470)"
     d="M1682.12 1225 L1680.51 1228.52 L1672.06 1228.52 L1670.22 1232.29 Q1675.7 1233.1 1678.91 1236.37 Q1681.67 1239.19 1681.67 1243 Q1681.67 1245.21 1680.76 1247.1 Q1679.87 1248.98 1678.5 1250.31 Q1677.13 1251.63 1675.46 1252.44 Q1673.07 1253.58 1670.57 1253.58 Q1668.04 1253.58 1666.88 1252.73 Q1665.74 1251.86 1665.74 1250.82 Q1665.74 1250.24 1666.22 1249.81 Q1666.7 1249.35 1667.42 1249.35 Q1667.96 1249.35 1668.35 1249.52 Q1668.77 1249.69 1669.74 1250.37 Q1671.29 1251.45 1672.89 1251.45 Q1675.31 1251.45 1677.13 1249.62 Q1678.98 1247.78 1678.98 1245.15 Q1678.98 1242.6 1677.34 1240.41 Q1675.7 1238.19 1672.83 1236.99 Q1670.57 1236.06 1666.68 1235.91 L1672.06 1225 L1682.12 1225 Z"
     fill="#000000"
     fill-rule="nonzero"
     fill-opacity="1"
     id="path26" />
  <path
     clip-path="url(#clip470)"
     d="M953.091 1329.05 Q953.091 1329.19 952.904 1329.73 L949.109 1340.08 Q948.898 1340.69 948.688 1340.81 Q948.477 1340.9 947.61 1340.9 L925.406 1340.9 Q924.867 1340.9 924.656 1340.88 Q924.445 1340.85 924.281 1340.73 Q924.117 1340.62 924.117 1340.36 Q924.117 1339.89 924.281 1339.68 Q924.469 1339.47 924.68 1339.45 Q924.89 1339.42 925.406 1339.42 Q926.577 1339.42 927.279 1339.35 Q927.982 1339.28 928.427 1339.19 Q928.896 1339.07 929.13 1338.74 Q929.387 1338.42 929.505 1338.13 Q929.622 1337.83 929.786 1337.15 L936.203 1311.39 Q936.391 1310.61 936.391 1310.5 Q936.391 1310.05 936.11 1309.93 Q935.852 1309.79 935.103 1309.72 L933.276 1309.63 Q932.713 1309.63 932.479 1309.61 Q932.268 1309.58 932.105 1309.47 Q931.941 1309.35 931.941 1309.09 Q931.941 1308.65 932.105 1308.44 Q932.292 1308.2 932.432 1308.18 Q932.596 1308.13 932.854 1308.13 L939.225 1308.27 L946.322 1308.13 Q947.095 1308.13 947.095 1308.72 Q947.095 1309.37 946.767 1309.51 Q946.439 1309.63 945.268 1309.63 Q943.019 1309.63 941.989 1309.86 Q940.982 1310.1 940.701 1310.5 Q940.443 1310.87 940.185 1311.88 L933.697 1337.78 Q933.463 1338.65 933.463 1338.88 Q933.463 1339.14 933.58 1339.24 Q933.721 1339.31 934.095 1339.35 Q934.517 1339.42 935.149 1339.42 L939.647 1339.42 Q941.005 1339.42 942.2 1339.21 Q943.394 1339 944.308 1338.7 Q945.244 1338.39 946.088 1337.83 Q946.931 1337.27 947.516 1336.78 Q948.125 1336.26 948.711 1335.46 Q949.32 1334.65 949.671 1334.08 Q950.046 1333.5 950.468 1332.56 Q950.889 1331.6 951.1 1331.06 Q951.334 1330.5 951.686 1329.54 Q951.896 1329.05 951.967 1328.91 Q952.037 1328.77 952.154 1328.65 Q952.295 1328.53 952.505 1328.53 Q952.787 1328.53 952.927 1328.7 Q953.091 1328.86 953.091 1329.05 Z"
     fill="#000000"
     fill-rule="nonzero"
     fill-opacity="1"
     id="path27" />
  <polyline
     clip-path="url(#clip470)"
     style="stroke:#000000; stroke-linecap:round; stroke-linejoin:round; stroke-width:4; stroke-opacity:1; fill:none"
     points="207.819,1207.87 207.819,115.736 "
     id="polyline27" />
  <polyline
     clip-path="url(#clip470)"
     style="stroke:#000000; stroke-linecap:round; stroke-linejoin:round; stroke-width:4; stroke-opacity:1; fill:none"
     points="207.819,1190.66 226.717,1190.66 "
     id="polyline28" />
  <polyline
     clip-path="url(#clip470)"
     style="stroke:#000000; stroke-linecap:round; stroke-linejoin:round; stroke-width:4; stroke-opacity:1; fill:none"
     points="207.819,806.428 226.717,806.428 "
     id="polyline29" />
  <polyline
     clip-path="url(#clip470)"
     style="stroke:#000000; stroke-linecap:round; stroke-linejoin:round; stroke-width:4; stroke-opacity:1; fill:none"
     points="207.819,422.195 226.717,422.195 "
     id="polyline30" />
  <path
     clip-path="url(#clip470)"
     d="M126.742 1183.22 L135.152 1179.11 L135.993 1179.11 L135.993 1208.3 Q135.993 1211.2 136.223 1211.92 Q136.478 1212.63 137.242 1213.01 Q138.007 1213.39 140.352 1213.45 L140.352 1214.39 L127.353 1214.39 L127.353 1213.45 Q129.8 1213.39 130.514 1213.04 Q131.227 1212.66 131.508 1212.04 Q131.788 1211.41 131.788 1208.3 L131.788 1189.64 Q131.788 1185.87 131.533 1184.8 Q131.355 1183.98 130.871 1183.6 Q130.412 1183.22 129.749 1183.22 Q128.806 1183.22 127.124 1184.01 L126.742 1183.22 Z"
     fill="#000000"
     fill-rule="nonzero"
     fill-opacity="1"
     id="path30" />
  <path
     clip-path="url(#clip470)"
     d="M148.609 1197.31 Q148.609 1191.4 150.393 1187.14 Q152.177 1182.86 155.134 1180.77 Q157.428 1179.11 159.874 1179.11 Q163.85 1179.11 167.011 1183.17 Q170.961 1188.19 170.961 1196.78 Q170.961 1202.79 169.228 1207 Q167.495 1211.2 164.793 1213.11 Q162.117 1215 159.62 1215 Q154.675 1215 151.387 1209.16 Q148.609 1204.24 148.609 1197.31 M153.605 1197.95 Q153.605 1205.09 155.363 1209.6 Q156.816 1213.39 159.696 1213.39 Q161.072 1213.39 162.551 1212.17 Q164.029 1210.92 164.793 1208.02 Q165.966 1203.63 165.966 1195.66 Q165.966 1189.74 164.742 1185.79 Q163.825 1182.86 162.372 1181.64 Q161.327 1180.8 159.849 1180.8 Q158.116 1180.8 156.765 1182.35 Q154.93 1184.47 154.267 1189 Q153.605 1193.54 153.605 1197.95 Z"
     fill="#000000"
     fill-rule="nonzero"
     fill-opacity="1"
     id="path31" />
  <path
     clip-path="url(#clip470)"
     d="M170.961 1161.65 L177.795 1158.32 L178.478 1158.32 L178.478 1182.03 Q178.478 1184.39 178.665 1184.97 Q178.872 1185.55 179.493 1185.86 Q180.114 1186.17 182.019 1186.21 L182.019 1186.98 L171.458 1186.98 L171.458 1186.21 Q173.446 1186.17 174.026 1185.88 Q174.606 1185.57 174.834 1185.07 Q175.061 1184.56 175.061 1182.03 L175.061 1166.87 Q175.061 1163.81 174.854 1162.94 Q174.709 1162.27 174.316 1161.96 Q173.943 1161.65 173.405 1161.65 Q172.639 1161.65 171.272 1162.29 L170.961 1161.65 Z"
     fill="#000000"
     fill-rule="nonzero"
     fill-opacity="1"
     id="path32" />
  <path
     clip-path="url(#clip470)"
     d="M119.266 798.985 L127.677 794.882 L128.518 794.882 L128.518 824.064 Q128.518 826.97 128.747 827.683 Q129.002 828.397 129.767 828.779 Q130.531 829.162 132.876 829.213 L132.876 830.156 L119.878 830.156 L119.878 829.213 Q122.325 829.162 123.038 828.805 Q123.752 828.423 124.032 827.811 Q124.312 827.174 124.312 824.064 L124.312 805.408 Q124.312 801.636 124.058 800.566 Q123.879 799.75 123.395 799.368 Q122.936 798.985 122.274 798.985 Q121.331 798.985 119.648 799.776 L119.266 798.985 Z"
     fill="#000000"
     fill-rule="nonzero"
     fill-opacity="1"
     id="path33" />
  <path
     clip-path="url(#clip470)"
     d="M141.134 813.08 Q141.134 807.167 142.918 802.91 Q144.702 798.629 147.658 796.539 Q149.952 794.882 152.399 794.882 Q156.375 794.882 159.535 798.934 Q163.486 803.955 163.486 812.544 Q163.486 818.559 161.752 822.765 Q160.019 826.97 157.318 828.881 Q154.642 830.767 152.144 830.767 Q147.2 830.767 143.912 824.931 Q141.134 820.012 141.134 813.08 M146.129 813.717 Q146.129 820.853 147.888 825.364 Q149.34 829.162 152.22 829.162 Q153.597 829.162 155.075 827.938 Q156.553 826.689 157.318 823.784 Q158.49 819.4 158.49 811.423 Q158.49 805.51 157.267 801.56 Q156.349 798.629 154.897 797.405 Q153.852 796.564 152.373 796.564 Q150.64 796.564 149.289 798.119 Q147.454 800.234 146.792 804.771 Q146.129 809.308 146.129 813.717 Z"
     fill="#000000"
     fill-rule="nonzero"
     fill-opacity="1"
     id="path34" />
  <path
     clip-path="url(#clip470)"
     d="M182.019 797.341 L180.052 802.745 L163.486 802.745 L163.486 801.979 Q170.796 795.311 173.777 791.087 Q176.759 786.862 176.759 783.363 Q176.759 780.691 175.123 778.973 Q173.488 777.254 171.21 777.254 Q169.139 777.254 167.482 778.476 Q165.846 779.677 165.059 782.017 L164.293 782.017 Q164.811 778.186 166.944 776.136 Q169.097 774.085 172.307 774.085 Q175.724 774.085 178.002 776.281 Q180.3 778.476 180.3 781.457 Q180.3 783.59 179.306 785.723 Q177.774 789.078 174.337 792.826 Q169.18 798.459 167.896 799.618 L175.227 799.618 Q177.463 799.618 178.354 799.453 Q179.265 799.287 179.99 798.79 Q180.715 798.272 181.253 797.341 L182.019 797.341 Z"
     fill="#000000"
     fill-rule="nonzero"
     fill-opacity="1"
     id="path35" />
  <path
     clip-path="url(#clip470)"
     d="M121.834 414.753 L130.245 410.649 L131.086 410.649 L131.086 439.832 Q131.086 442.737 131.315 443.451 Q131.57 444.164 132.334 444.547 Q133.099 444.929 135.444 444.98 L135.444 445.923 L122.446 445.923 L122.446 444.98 Q124.892 444.929 125.606 444.572 Q126.32 444.19 126.6 443.578 Q126.88 442.941 126.88 439.832 L126.88 421.175 Q126.88 417.403 126.625 416.333 Q126.447 415.517 125.963 415.135 Q125.504 414.753 124.841 414.753 Q123.898 414.753 122.216 415.543 L121.834 414.753 Z"
     fill="#000000"
     fill-rule="nonzero"
     fill-opacity="1"
     id="path36" />
  <path
     clip-path="url(#clip470)"
     d="M143.702 428.847 Q143.702 422.934 145.486 418.678 Q147.27 414.396 150.226 412.306 Q152.52 410.649 154.967 410.649 Q158.943 410.649 162.103 414.702 Q166.053 419.723 166.053 428.312 Q166.053 434.327 164.32 438.532 Q162.587 442.737 159.886 444.649 Q157.209 446.535 154.712 446.535 Q149.767 446.535 146.48 440.698 Q143.702 435.779 143.702 428.847 M148.697 429.484 Q148.697 436.62 150.456 441.131 Q151.908 444.929 154.788 444.929 Q156.165 444.929 157.643 443.706 Q159.121 442.457 159.886 439.551 Q161.058 435.168 161.058 427.19 Q161.058 421.277 159.835 417.327 Q158.917 414.396 157.464 413.173 Q156.419 412.331 154.941 412.331 Q153.208 412.331 151.857 413.886 Q150.022 416.002 149.36 420.538 Q148.697 425.075 148.697 429.484 Z"
     fill="#000000"
     fill-rule="nonzero"
     fill-opacity="1"
     id="path37" />
  <path
     clip-path="url(#clip470)"
     d="M166.488 395.775 Q167.689 392.938 169.512 391.406 Q171.355 389.853 174.088 389.853 Q177.463 389.853 179.265 392.048 Q180.632 393.684 180.632 395.547 Q180.632 398.612 176.78 401.884 Q179.369 402.899 180.694 404.783 Q182.019 406.668 182.019 409.215 Q182.019 412.859 179.7 415.531 Q176.677 419.01 170.94 419.01 Q168.103 419.01 167.068 418.306 Q166.053 417.601 166.053 416.794 Q166.053 416.193 166.53 415.738 Q167.027 415.282 167.71 415.282 Q168.228 415.282 168.766 415.448 Q169.118 415.551 170.361 416.214 Q171.603 416.856 172.079 416.98 Q172.846 417.208 173.715 417.208 Q175.828 417.208 177.381 415.572 Q178.954 413.936 178.954 411.7 Q178.954 410.064 178.23 408.511 Q177.691 407.351 177.049 406.75 Q176.159 405.922 174.606 405.259 Q173.053 404.576 171.437 404.576 L170.775 404.576 L170.775 403.955 Q172.411 403.748 174.047 402.775 Q175.703 401.801 176.449 400.435 Q177.194 399.068 177.194 397.432 Q177.194 395.299 175.848 393.994 Q174.523 392.669 172.535 392.669 Q169.325 392.669 167.172 396.107 L166.488 395.775 Z"
     fill="#000000"
     fill-rule="nonzero"
     fill-opacity="1"
     id="path38" />
  <polyline
     clip-path="url(#clip472)"
     style="stroke:#0033e5;stroke-linecap:round;stroke-linejoin:round;stroke-width:4;stroke-opacity:1;fill:none"
     stroke-dasharray="16, 10"
     points="249.28,1176.96 289.923,1147.95 327.326,1121.25 361.967,1096.53 394.226,1073.5 424.41,1051.96 452.769,1031.71 479.513,1012.62 504.814,994.563 528.821,977.427 551.659,961.125 573.438,945.579 594.25,930.723 614.179,916.498 633.296,902.853 651.665,889.741 669.342,877.123 686.377,864.963 702.816,853.23 718.698,841.893 734.061,830.927 748.936,820.309 763.354,810.017 777.343,800.032 790.927,790.336 804.129,780.913 816.969,771.747 829.468,762.826 841.642,754.136 853.509,745.665 865.083,737.404 876.378,729.341 887.408,721.468 898.185,713.776 908.72,706.256 919.023,698.901 929.106,691.705 938.976,684.659 948.643,677.759 958.114,670.998 967.399,664.371 976.503,657.872 985.434,651.497 994.199,645.241 1002.8,639.1 1011.25,633.069 1019.55,627.145 1027.71,621.324 1035.72,615.602 1043.6,609.977 1051.35,604.444 1058.98,599.001 1066.48,593.645 1073.87,588.374 1081.14,583.184 1088.3,578.073 1095.35,573.039 1102.3,568.08 1109.15,563.192 1115.89,558.376 1122.55,553.627 1129.11,548.945 1135.58,544.327 1141.96,539.772 1148.25,535.279 1154.46,530.844 1160.6,526.468 1166.65,522.148 1172.62,517.883 1178.52,513.672 1184.35,509.513 1190.1,505.404 1195.79,501.346 1201.41,497.336 1206.96,493.374 1212.44,489.458 1217.87,485.587 1223.23,481.761 1228.53,477.977 1233.77,474.236 1238.95,470.537 1244.08,466.877 1249.15,463.257 1254.17,459.676 1259.13,456.133 1264.04,452.627 1268.9,449.157 1273.72,445.723 1278.48,442.323 1283.19,438.958 1287.86,435.626 1292.48,432.327 1297.06,429.06 1301.59,425.825 1306.08,422.621 1310.53,419.447 1314.93,416.302 1319.3,413.187 1323.62,410.101 1327.9,407.043 1332.15,404.013 1336.36,401.009 1340.53,398.033 1344.66,395.082 1348.76,392.158 1352.82,389.258 1356.85,386.384 1360.84,383.534 1364.8,380.708 1368.72,377.906 1372.62,375.126 1376.48,372.37 1380.31,369.637 1384.11,366.925 1387.88,364.235 1391.61,361.567 1395.32,358.919 1399,356.293 1402.65,353.687 1406.28,351.101 1409.87,348.534 1413.44,345.988 1416.98,343.46 1420.5,340.952 1423.98,338.462 1427.45,335.99 1430.88,333.537 1434.3,331.101 1437.68,328.683 1441.05,326.282 1444.39,323.899 1447.7,321.532 1450.99,319.182 1454.26,316.848 1457.51,314.53 1460.74,312.229 1463.94,309.942 1467.12,307.672 1470.28,305.417 1473.42,303.176 1476.53,300.951 1479.63,298.741 1482.71,296.544 1485.76,294.363 1488.8,292.195 1491.82,290.041 1494.82,287.901 1497.8,285.775 1500.76,283.662 1503.7,281.562 1506.62,279.475 1509.53,277.401 1512.41,275.34 1515.28,273.292 1518.14,271.256 1520.97,269.232 1523.79,267.221 1526.59,265.221 1529.38,263.233 1532.14,261.257 1534.9,259.293 1537.63,257.34 1540.35,255.399 1543.06,253.468 1545.74,251.549 1548.42,249.64 1551.08,247.743 1553.72,245.856 1556.35,243.98 1558.96,242.114 1561.56,240.258 1564.15,238.413 1566.72,236.578 1569.28,234.752 1571.82,232.937 1574.35,231.131 1576.86,229.336 1579.37,227.549 1581.86,225.772 1584.33,224.005 1586.8,222.247 1589.25,220.498 1591.68,218.758 1594.11,217.027 1596.52,215.305 1598.92,213.592 1601.31,211.887 1603.69,210.191 1606.05,208.504 1608.4,206.825 1610.74,205.154 1613.07,203.492 1615.39,201.838 1617.69,200.192 1619.99,198.554 1622.27,196.925 1624.54,195.303 1626.81,193.688 1629.06,192.082 1631.3,190.483 "
     id="polyline77" />
  <circle
     clip-path="url(#clip472)"
     cx="529.883"
     cy="982.806"
     r="14.4"
     fill="#0033e5"
     fill-rule="evenodd"
     fill-opacity="1"
     stroke="#000000"
     stroke-opacity="1"
     stroke-width="2.8"
     id="circle58" />
  <circle
     clip-path="url(#clip472)"
     cx="588.63"
     cy="949.253"
     r="14.4"
     fill="#0033e5"
     fill-rule="evenodd"
     fill-opacity="1"
     stroke="#000000"
     stroke-opacity="1"
     stroke-width="2.8"
     id="circle59" />
  <circle
     clip-path="url(#clip472)"
     cx="640.836"
     cy="900.51"
     r="14.4"
     fill="#0033e5"
     fill-rule="evenodd"
     fill-opacity="1"
     stroke="#000000"
     stroke-opacity="1"
     stroke-width="2.8"
     id="circle60" />
  <circle
     clip-path="url(#clip472)"
     cx="709.646"
     cy="855.006"
     r="14.4"
     fill="#0033e5"
     fill-rule="evenodd"
     fill-opacity="1"
     stroke="#000000"
     stroke-opacity="1"
     stroke-width="2.8"
     id="circle61" />
  <circle
     clip-path="url(#clip472)"
     cx="750.486"
     cy="820.121"
     r="14.4"
     fill="#0033e5"
     fill-rule="evenodd"
     fill-opacity="1"
     stroke="#000000"
     stroke-opacity="1"
     stroke-width="2.8"
     id="circle62" />
  <circle
     clip-path="url(#clip472)"
     cx="805.77"
     cy="795.584"
     r="14.4"
     fill="#0033e5"
     fill-rule="evenodd"
     fill-opacity="1"
     stroke="#000000"
     stroke-opacity="1"
     stroke-width="2.8"
     id="circle63" />
  <circle
     clip-path="url(#clip472)"
     cx="870.612"
     cy="724.93"
     r="14.4"
     fill="#0033e5"
     fill-rule="evenodd"
     fill-opacity="1"
     stroke="#000000"
     stroke-opacity="1"
     stroke-width="2.8"
     id="circle64" />
  <circle
     clip-path="url(#clip472)"
     cx="927.575"
     cy="646.891"
     r="14.4"
     fill="#0033e5"
     fill-rule="evenodd"
     fill-opacity="1"
     stroke="#000000"
     stroke-opacity="1"
     stroke-width="2.8"
     id="circle65" />
  <circle
     clip-path="url(#clip472)"
     cx="990.25"
     cy="650.357"
     r="14.4"
     fill="#0033e5"
     fill-rule="evenodd"
     fill-opacity="1"
     stroke="#000000"
     stroke-opacity="1"
     stroke-width="2.8"
     id="circle66" />
  <circle
     clip-path="url(#clip472)"
     cx="1045.53"
     cy="596.153"
     r="14.4"
     fill="#0033e5"
     fill-rule="evenodd"
     fill-opacity="1"
     stroke="#000000"
     stroke-opacity="1"
     stroke-width="2.8"
     id="circle67" />
  <circle
     clip-path="url(#clip472)"
     cx="1094.99"
     cy="538.051"
     r="14.4"
     fill="#0033e5"
     fill-rule="evenodd"
     fill-opacity="1"
     stroke="#000000"
     stroke-opacity="1"
     stroke-width="2.8"
     id="circle68" />
  <circle
     clip-path="url(#clip472)"
     cx="1156.49"
     cy="503.016"
     r="14.4"
     fill="#0033e5"
     fill-rule="evenodd"
     fill-opacity="1"
     stroke="#000000"
     stroke-opacity="1"
     stroke-width="2.8"
     id="circle69" />
  <circle
     clip-path="url(#clip472)"
     cx="1210.85"
     cy="447.834"
     r="14.4"
     fill="#0033e5"
     fill-rule="evenodd"
     fill-opacity="1"
     stroke="#000000"
     stroke-opacity="1"
     stroke-width="2.8"
     id="circle70" />
  <circle
     clip-path="url(#clip472)"
     cx="1266.14"
     cy="483.643"
     r="14.4"
     fill="#0033e5"
     fill-rule="evenodd"
     fill-opacity="1"
     stroke="#000000"
     stroke-opacity="1"
     stroke-width="2.8"
     id="circle71" />
  <circle
     clip-path="url(#clip472)"
     cx="1327.18"
     cy="446.09"
     r="14.4"
     fill="#0033e5"
     fill-rule="evenodd"
     fill-opacity="1"
     stroke="#000000"
     stroke-opacity="1"
     stroke-width="2.8"
     id="circle72" />
  <circle
     clip-path="url(#clip472)"
     cx="1381.19"
     cy="450.887"
     r="14.4"
     fill="#0033e5"
     fill-rule="evenodd"
     fill-opacity="1"
     stroke="#000000"
     stroke-opacity="1"
     stroke-width="2.8"
     id="circle73" />
  <circle
     clip-path="url(#clip472)"
     cx="1438.73"
     cy="347.84"
     r="14.4"
     fill="#0033e5"
     fill-rule="evenodd"
     fill-opacity="1"
     stroke="#000000"
     stroke-opacity="1"
     stroke-width="2.8"
     id="circle74" />
  <circle
     clip-path="url(#clip472)"
     cx="1498.01"
     cy="317.937"
     r="14.4"
     fill="#0033e5"
     fill-rule="evenodd"
     fill-opacity="1"
     stroke="#000000"
     stroke-opacity="1"
     stroke-width="2.8"
     id="circle75" />
  <circle
     clip-path="url(#clip472)"
     cx="1554.18"
     cy="220.841"
     r="14.4"
     fill="#0033e5"
     fill-rule="evenodd"
     fill-opacity="1"
     stroke="#000000"
     stroke-opacity="1"
     stroke-width="2.8"
     id="circle76" />
  <circle
     clip-path="url(#clip472)"
     cx="1610.64"
     cy="146.646"
     r="14.4"
     fill="#0033e5"
     fill-rule="evenodd"
     fill-opacity="1"
     stroke="#000000"
     stroke-opacity="1"
     stroke-width="2.8"
     id="circle77" />
  <g
     data-mml-node="msubsup"
     data-latex="\tau^{|m|}_\text{int}"
     data-semantic-type="subsup"
     data-semantic-role="greekletter"
     data-semantic-annotation="depth:1"
     data-semantic-id="7"
     data-semantic-children="0,1,5"
     data-semantic-attributes="latex:\tau^{|m|}_\text{int}"
     data-semantic-collapsed="(7 (6 0 1) 5)"
     data-semantic-owns="0 1 5"
     aria-level="0"
     data-speech-node="true"
     id="g8"
     transform="matrix(0,-0.04543512,-0.04543512,0,92.19076,669.39783)"
     style="fill:#000000;stroke:#000000;stroke-width:0">
    <g
       data-mml-node="mi"
       data-latex="\tau"
       data-semantic-type="identifier"
       data-semantic-role="greekletter"
       data-semantic-font="italic"
       data-semantic-annotation="clearspeak:simple;nemeth:number;depth:3"
       data-semantic-id="0"
       data-semantic-parent="7"
       data-semantic-attributes="latex:\tau"
       aria-level="2"
       data-speech-node="true"
       id="g1">
      <path
         id="use1"
         d="M 468,431 H 192 C 139,431 91,397 47,330 34,310 27,297 27,292 c 3,-8 4,-13 16,-13 7,0 13,4 19,13 32,49 72,74 121,74 h 77 L 165,56 c -7,-22 -10,-35 -10,-38 0,-20 11,-30 32,-30 11,0 21,3 27,9 13,12 14,15 18,36 l 65,333 h 162 c 35,0 52,12 52,37 0,23 -18,28 -43,28 z" />
    </g>
    <g
       data-mml-node="TeXAtom"
       transform="matrix(0.707,0,0,0.707,597.7,530.4)"
       data-mjx-texclass="ORD"
       data-latex="{|m|}"
       data-semantic-type="fenced"
       data-semantic-role="neutral"
       data-semantic-annotation="depth:2"
       data-semantic-id="5"
       data-semantic-children="3"
       data-semantic-content="2,4"
       data-semantic-parent="7"
       data-semantic-attributes="latex:{|m|};texclass:ORD"
       data-semantic-owns="2 3 4"
       aria-level="1"
       data-speech-node="true"
       id="g5">
      <g
         data-mml-node="mo"
         data-mjx-texclass="ORD"
         data-latex="|"
         data-semantic-type="fence"
         data-semantic-role="neutral"
         data-semantic-annotation="depth:3"
         data-semantic-id="2"
         data-semantic-parent="5"
         data-semantic-attributes="latex:|;texclass:ORD"
         data-semantic-operator="fenced"
         aria-level="2"
         data-speech-node="true"
         id="g2">
        <path
           id="use2"
           d="m 139,-250 c 13,0 20,8 20,24 v 952 c 0,16 -7,24 -20,24 -13,0 -20,-8 -20,-24 v -952 c 0,-16 7,-24 20,-24 z" />
      </g>
      <g
         data-mml-node="mi"
         data-latex="m"
         data-semantic-type="identifier"
         data-semantic-role="latinletter"
         data-semantic-font="italic"
         data-semantic-annotation="clearspeak:simple;depth:3"
         data-semantic-id="3"
         data-semantic-parent="5"
         data-semantic-attributes="latex:m"
         aria-level="2"
         data-speech-node="true"
         transform="translate(278)"
         id="g3">
        <path
           id="use3"
           d="m 657,442 c -61,0 -114,-30 -159,-89 -9,59 -47,89 -115,89 -59,0 -110,-26 -152,-79 -8,44 -43,79 -94,79 -41,0 -71,-33 -92,-98 -11,-32 -16,-51 -16,-57 0,-9 5,-14 16,-14 5,0 8,1 11,3 5,9 8,16 10,23 18,76 41,114 68,114 18,0 27,-14 27,-42 0,-13 -5,-40 -16,-81 L 88,63 C 84,51 79,25 79,19 c 0,-20 11,-30 32,-30 20,0 34,10 41,30 1,5 8,30 19,73 l 21,89 30,114 c 11,23 28,46 50,70 29,32 65,48 108,48 33,0 49,-22 49,-65 0,-13 -5,-40 -15,-81 L 387,153 c -7,-29 -23,-89 -31,-121 -1,-7 -2,-11 -2,-13 0,-20 11,-30 33,-30 11,0 19,3 26,10 15,15 16,22 22,49 l 59,237 c 3,13 17,36 41,68 30,40 70,60 119,60 33,0 49,-22 49,-65 0,-39 -20,-112 -61,-219 -9,-23 -13,-42 -13,-55 0,-49 37,-85 85,-85 45,0 79,25 104,75 20,40 30,67 30,80 0,9 -5,14 -16,14 -7,-1 -14,-10 -19,-21 C 791,58 759,18 716,18 c -13,0 -20,10 -20,29 0,15 6,37 18,68 41,107 61,180 61,218 0,71 -47,109 -118,109 z" />
      </g>
      <g
         data-mml-node="mo"
         data-mjx-texclass="ORD"
         data-latex="|"
         data-semantic-type="fence"
         data-semantic-role="neutral"
         data-semantic-annotation="depth:3"
         data-semantic-id="4"
         data-semantic-parent="5"
         data-semantic-attributes="latex:|;texclass:ORD"
         data-semantic-operator="fenced"
         aria-level="2"
         data-speech-node="true"
         transform="translate(1156)"
         id="g4">
        <path
           id="use4"
           d="m 139,-250 c 13,0 20,8 20,24 v 952 c 0,16 -7,24 -20,24 -13,0 -20,-8 -20,-24 v -952 c 0,-16 7,-24 20,-24 z" />
      </g>
    </g>
    <g
       data-mml-node="mtext"
       transform="matrix(0.707,0,0,0.707,470,-291)"
       data-latex="{int}"
       data-semantic-type="text"
       data-semantic-role="unknown"
       data-semantic-font="normal"
       data-semantic-annotation="clearspeak:unit;depth:3"
       data-semantic-id="1"
       data-semantic-parent="7"
       data-semantic-attributes="latex:{int}"
       aria-level="2"
       data-speech-node="true"
       id="g7">
      <path
         id="use5"
         d="m 194,601 c 0,30 -25,56 -55,56 -30,0 -56,-26 -56,-56 0,-30 25,-57 55,-57 31,0 56,26 56,57 M 143,3 247,0 v 39 c -33,0 -53,2 -59,6 -6,4 -8,15 -8,33 V 445 L 37,433 v -38 c 33,0 54,-3 61,-8 7,-5 10,-19 10,-42 V 79 C 108,60 105,48 98,44 91,40 69,39 33,39 V 0 Z" />
      <path
         id="use6"
         d="m 592,413 c 45,0 68,-35 68,-106 V 79 c 0,-19 -3,-31 -10,-35 -7,-4 -29,-6 -66,-6 V 0 L 699,3 813,0 v 38 c -32,0 -53,1 -63,4 -10,3 -14,10 -14,22 v 187 c 0,47 -1,80 -4,99 -10,61 -55,92 -134,92 -63,0 -110,-30 -141,-90 v 90 L 310,431 v -38 c 36,0 58,-3 66,-9 8,-6 11,-19 11,-42 V 79 c 0,-19 -4,-31 -11,-35 -7,-4 -29,-6 -66,-6 V 0 L 425,3 539,0 v 38 c -37,0 -58,2 -65,6 -7,4 -11,16 -11,35 v 180 c 0,81 51,154 129,154 z" />
      <path
         id="use7"
         d="m 1166,126 v 60 h -32 v -58 c 0,-50 -18,-106 -62,-106 -41,0 -61,34 -61,102 v 271 h 139 v 38 H 1011 V 615 H 979 C 978,582 975,553 968,527 951,461 912,427 853,424 v -29 h 83 V 126 c 0,-59 18,-97 53,-116 27,-14 52,-21 77,-21 66,0 100,66 100,137 z" />
    </g>
  </g>
</svg>
