<?xml version="1.0" encoding="UTF-8" standalone="no"?>
<svg
   width="430"
   height="350"
   viewBox="0 0 1720 1400"
   version="1.1"
   id="svg83"
   sodipodi:docname="tau_exp_metropolis_tri.svg"
   inkscape:version="1.4.2 (ebf0e940, 2025-05-08)"
   xmlns:inkscape="http://www.inkscape.org/namespaces/inkscape"
   xmlns:sodipodi="http://sodipodi.sourceforge.net/DTD/sodipodi-0.dtd"
   xmlns="http://www.w3.org/2000/svg"
   xmlns:svg="http://www.w3.org/2000/svg">
  <sodipodi:namedview
     id="namedview83"
     pagecolor="#ffffff"
     bordercolor="#000000"
     borderopacity="0.25"
     inkscape:showpageshadow="2"
     inkscape:pageopacity="0.0"
     inkscape:pagecheckerboard="0"
     inkscape:deskcolor="#d1d1d1"
     inkscape:zoom="1.3001849"
     inkscape:cx="119.98293"
     inkscape:cy="138.44185"
     inkscape:window-width="1728"
     inkscape:window-height="1055"
     inkscape:window-x="0"
     inkscape:window-y="34"
     inkscape:window-maximized="1"
     inkscape:current-layer="svg83" />
  <defs
     id="defs1">
    <clipPath
       id="clip560">
      <rect
         x="0"
         y="0"
         width="1720"
         height="1400"
         id="rect1" />
    </clipPath>
  </defs>
  <path
     clip-path="url(#clip560)"
     d="M0 1400 L1720 1400 L1720 -4.44089e-15 L0 -4.44089e-15  Z"
     fill="#ffffff"
     fill-rule="evenodd"
     fill-opacity="1"
     id="path1" />
  <defs
     id="defs2">
    <clipPath
       id="clip561">
      <rect
         x="344"
         y="0"
         width="1205"
         height="1205"
         id="rect2" />
    </clipPath>
  </defs>
  <path
     clip-path="url(#clip560)"
     d="M200.889 1207.87 L1672.76 1207.87 L1672.76 115.736 L200.889 115.736  Z"
     fill="#ffffff"
     fill-rule="evenodd"
     fill-opacity="1"
     id="path2" />
  <defs
     id="defs3">
    <clipPath
       id="clip562">
      <rect
         x="200"
         y="115"
         width="1473"
         height="1093"
         id="rect3" />
    </clipPath>
  </defs>
  <polyline
     clip-path="url(#clip562)"
     style="stroke:#000000; stroke-linecap:round; stroke-linejoin:round; stroke-width:2; stroke-opacity:0.1; fill:none"
     points="549.32,1207.87 549.32,115.736 "
     id="polyline3" />
  <polyline
     clip-path="url(#clip562)"
     style="stroke:#000000; stroke-linecap:round; stroke-linejoin:round; stroke-width:2; stroke-opacity:0.1; fill:none"
     points="1092.25,1207.87 1092.25,115.736 "
     id="polyline4" />
  <polyline
     clip-path="url(#clip562)"
     style="stroke:#000000; stroke-linecap:round; stroke-linejoin:round; stroke-width:2; stroke-opacity:0.1; fill:none"
     points="1635.18,1207.87 1635.18,115.736 "
     id="polyline5" />
  <polyline
     clip-path="url(#clip562)"
     style="stroke:#000000; stroke-linecap:round; stroke-linejoin:round; stroke-width:2; stroke-opacity:0.1; fill:none"
     points="200.889,982.545 1672.76,982.545 "
     id="polyline6" />
  <polyline
     clip-path="url(#clip562)"
     style="stroke:#000000; stroke-linecap:round; stroke-linejoin:round; stroke-width:2; stroke-opacity:0.1; fill:none"
     points="200.889,623.031 1672.76,623.031 "
     id="polyline7" />
  <polyline
     clip-path="url(#clip562)"
     style="stroke:#000000; stroke-linecap:round; stroke-linejoin:round; stroke-width:2; stroke-opacity:0.1; fill:none"
     points="200.889,263.517 1672.76,263.517 "
     id="polyline8" />
  <polyline
     clip-path="url(#clip560)"
     style="stroke:#000000; stroke-linecap:round; stroke-linejoin:round; stroke-width:4; stroke-opacity:1; fill:none"
     points="200.889,1207.87 1672.76,1207.87 "
     id="polyline9" />
  <polyline
     clip-path="url(#clip560)"
     style="stroke:#000000; stroke-linecap:round; stroke-linejoin:round; stroke-width:4; stroke-opacity:1; fill:none"
     points="549.32,1207.87 549.32,1188.97 "
     id="polyline10" />
  <polyline
     clip-path="url(#clip560)"
     style="stroke:#000000; stroke-linecap:round; stroke-linejoin:round; stroke-width:4; stroke-opacity:1; fill:none"
     points="1092.25,1207.87 1092.25,1188.97 "
     id="polyline11" />
  <polyline
     clip-path="url(#clip560)"
     style="stroke:#000000; stroke-linecap:round; stroke-linejoin:round; stroke-width:4; stroke-opacity:1; fill:none"
     points="1635.18,1207.87 1635.18,1188.97 "
     id="polyline12" />
  <path
     clip-path="url(#clip560)"
     d="M504.586 1249.32 L512.997 1245.22 L513.838 1245.22 L513.838 1274.4 Q513.838 1277.31 514.067 1278.02 Q514.322 1278.73 515.087 1279.12 Q515.852 1279.5 518.196 1279.55 L518.196 1280.49 L505.198 1280.49 L505.198 1279.55 Q507.645 1279.5 508.358 1279.14 Q509.072 1278.76 509.352 1278.15 Q509.633 1277.51 509.633 1274.4 L509.633 1255.74 Q509.633 1251.97 509.378 1250.9 Q509.199 1250.09 508.715 1249.7 Q508.256 1249.32 507.594 1249.32 Q506.651 1249.32 504.969 1250.11 L504.586 1249.32 Z"
     fill="#000000"
     fill-rule="nonzero"
     fill-opacity="1"
     id="path12" />
  <path
     clip-path="url(#clip560)"
     d="M526.454 1263.42 Q526.454 1257.5 528.238 1253.25 Q530.022 1248.97 532.979 1246.88 Q535.272 1245.22 537.719 1245.22 Q541.695 1245.22 544.855 1249.27 Q548.806 1254.29 548.806 1262.88 Q548.806 1268.9 547.073 1273.1 Q545.34 1277.31 542.638 1279.22 Q539.962 1281.1 537.464 1281.1 Q532.52 1281.1 529.232 1275.27 Q526.454 1270.35 526.454 1263.42 M531.449 1264.05 Q531.449 1271.19 533.208 1275.7 Q534.661 1279.5 537.541 1279.5 Q538.917 1279.5 540.395 1278.27 Q541.873 1277.03 542.638 1274.12 Q543.81 1269.74 543.81 1261.76 Q543.81 1255.85 542.587 1251.9 Q541.67 1248.97 540.217 1247.74 Q539.172 1246.9 537.694 1246.9 Q535.961 1246.9 534.61 1248.46 Q532.775 1250.57 532.112 1255.11 Q531.449 1259.64 531.449 1264.05 Z"
     fill="#000000"
     fill-rule="nonzero"
     fill-opacity="1"
     id="path13" />
  <path
     clip-path="url(#clip560)"
     d="M548.806 1227.76 L555.639 1224.42 L556.323 1224.42 L556.323 1248.13 Q556.323 1250.49 556.509 1251.07 Q556.716 1251.65 557.338 1251.96 Q557.959 1252.27 559.864 1252.32 L559.864 1253.08 L549.303 1253.08 L549.303 1252.32 Q551.291 1252.27 551.871 1251.98 Q552.45 1251.67 552.678 1251.18 Q552.906 1250.66 552.906 1248.13 L552.906 1232.97 Q552.906 1229.91 552.699 1229.04 Q552.554 1228.38 552.161 1228.07 Q551.788 1227.76 551.249 1227.76 Q550.483 1227.76 549.116 1228.4 L548.806 1227.76 Z"
     fill="#000000"
     fill-rule="nonzero"
     fill-opacity="1"
     id="path14" />
  <path
     clip-path="url(#clip560)"
     d="M570.342 1249.06 Q571.315 1249.06 571.978 1249.75 Q572.641 1250.41 572.641 1251.36 Q572.641 1252.32 571.957 1253 Q571.295 1253.66 570.342 1253.66 Q569.39 1253.66 568.706 1253 Q568.044 1252.32 568.044 1251.36 Q568.044 1250.39 568.706 1249.73 Q569.39 1249.06 570.342 1249.06 Z"
     fill="#000000"
     fill-rule="nonzero"
     fill-opacity="1"
     id="path15" />
  <path
     clip-path="url(#clip560)"
     d="M594.053 1225 L592.438 1228.52 L583.989 1228.52 L582.146 1232.29 Q587.633 1233.1 590.843 1236.37 Q593.597 1239.19 593.597 1243 Q593.597 1245.21 592.686 1247.1 Q591.796 1248.98 590.429 1250.31 Q589.062 1251.63 587.385 1252.44 Q585.003 1253.58 582.498 1253.58 Q579.971 1253.58 578.812 1252.73 Q577.673 1251.86 577.673 1250.82 Q577.673 1250.24 578.149 1249.81 Q578.625 1249.35 579.35 1249.35 Q579.889 1249.35 580.282 1249.52 Q580.696 1249.69 581.669 1250.37 Q583.223 1251.45 584.817 1251.45 Q587.24 1251.45 589.062 1249.62 Q590.905 1247.78 590.905 1245.15 Q590.905 1242.6 589.269 1240.41 Q587.633 1238.19 584.755 1236.99 Q582.498 1236.06 578.605 1235.91 L583.989 1225 L594.053 1225 Z"
     fill="#000000"
     fill-rule="nonzero"
     fill-opacity="1"
     id="path16" />
  <path
     clip-path="url(#clip560)"
     d="M1044.85 1249.32 L1053.26 1245.22 L1054.1 1245.22 L1054.1 1274.4 Q1054.1 1277.31 1054.33 1278.02 Q1054.58 1278.73 1055.35 1279.12 Q1056.11 1279.5 1058.46 1279.55 L1058.46 1280.49 L1045.46 1280.49 L1045.46 1279.55 Q1047.91 1279.5 1048.62 1279.14 Q1049.33 1278.76 1049.61 1278.15 Q1049.89 1277.51 1049.89 1274.4 L1049.89 1255.74 Q1049.89 1251.97 1049.64 1250.9 Q1049.46 1250.09 1048.98 1249.7 Q1048.52 1249.32 1047.86 1249.32 Q1046.91 1249.32 1045.23 1250.11 L1044.85 1249.32 Z"
     fill="#000000"
     fill-rule="nonzero"
     fill-opacity="1"
     id="path17" />
  <path
     clip-path="url(#clip560)"
     d="M1066.72 1263.42 Q1066.72 1257.5 1068.5 1253.25 Q1070.28 1248.97 1073.24 1246.88 Q1075.53 1245.22 1077.98 1245.22 Q1081.96 1245.22 1085.12 1249.27 Q1089.07 1254.29 1089.07 1262.88 Q1089.07 1268.9 1087.33 1273.1 Q1085.6 1277.31 1082.9 1279.22 Q1080.22 1281.1 1077.73 1281.1 Q1072.78 1281.1 1069.49 1275.27 Q1066.72 1270.35 1066.72 1263.42 M1071.71 1264.05 Q1071.71 1271.19 1073.47 1275.7 Q1074.92 1279.5 1077.8 1279.5 Q1079.18 1279.5 1080.66 1278.27 Q1082.13 1277.03 1082.9 1274.12 Q1084.07 1269.74 1084.07 1261.76 Q1084.07 1255.85 1082.85 1251.9 Q1081.93 1248.97 1080.48 1247.74 Q1079.43 1246.9 1077.95 1246.9 Q1076.22 1246.9 1074.87 1248.46 Q1073.04 1250.57 1072.37 1255.11 Q1071.71 1259.64 1071.71 1264.05 Z"
     fill="#000000"
     fill-rule="nonzero"
     fill-opacity="1"
     id="path18" />
  <path
     clip-path="url(#clip560)"
     d="M1107.6 1247.68 L1105.63 1253.08 L1089.07 1253.08 L1089.07 1252.32 Q1096.38 1245.65 1099.36 1241.42 Q1102.34 1237.2 1102.34 1233.7 Q1102.34 1231.03 1100.71 1229.31 Q1099.07 1227.59 1096.79 1227.59 Q1094.72 1227.59 1093.06 1228.81 Q1091.43 1230.01 1090.64 1232.35 L1089.87 1232.35 Q1090.39 1228.52 1092.53 1226.47 Q1094.68 1224.42 1097.89 1224.42 Q1101.31 1224.42 1103.58 1226.62 Q1105.88 1228.81 1105.88 1231.79 Q1105.88 1233.93 1104.89 1236.06 Q1103.36 1239.41 1099.92 1243.16 Q1094.76 1248.8 1093.48 1249.95 L1100.81 1249.95 Q1103.05 1249.95 1103.94 1249.79 Q1104.85 1249.62 1105.57 1249.13 Q1106.3 1248.61 1106.83 1247.68 L1107.6 1247.68 Z"
     fill="#000000"
     fill-rule="nonzero"
     fill-opacity="1"
     id="path19" />
  <path
     clip-path="url(#clip560)"
     d="M1114.66 1249.06 Q1115.64 1249.06 1116.3 1249.75 Q1116.96 1250.41 1116.96 1251.36 Q1116.96 1252.32 1116.28 1253 Q1115.61 1253.66 1114.66 1253.66 Q1113.71 1253.66 1113.03 1253 Q1112.36 1252.32 1112.36 1251.36 Q1112.36 1250.39 1113.03 1249.73 Q1113.71 1249.06 1114.66 1249.06 Z"
     fill="#000000"
     fill-rule="nonzero"
     fill-opacity="1"
     id="path20" />
  <path
     clip-path="url(#clip560)"
     d="M1121.5 1239.21 Q1121.5 1234.4 1122.95 1230.95 Q1124.39 1227.47 1126.8 1225.77 Q1128.66 1224.42 1130.65 1224.42 Q1133.88 1224.42 1136.45 1227.71 Q1139.66 1231.79 1139.66 1238.77 Q1139.66 1243.66 1138.25 1247.08 Q1136.84 1250.49 1134.65 1252.05 Q1132.47 1253.58 1130.44 1253.58 Q1126.42 1253.58 1123.75 1248.84 Q1121.5 1244.84 1121.5 1239.21 M1125.55 1239.73 Q1125.55 1245.52 1126.98 1249.19 Q1128.16 1252.27 1130.5 1252.27 Q1131.62 1252.27 1132.82 1251.28 Q1134.02 1250.27 1134.65 1247.9 Q1135.6 1244.34 1135.6 1237.86 Q1135.6 1233.06 1134.6 1229.85 Q1133.86 1227.47 1132.68 1226.47 Q1131.83 1225.79 1130.63 1225.79 Q1129.22 1225.79 1128.12 1227.05 Q1126.63 1228.77 1126.09 1232.46 Q1125.55 1236.14 1125.55 1239.73 Z"
     fill="#000000"
     fill-rule="nonzero"
     fill-opacity="1"
     id="path21" />
  <path
     clip-path="url(#clip560)"
     d="M1588.42 1249.32 L1596.83 1245.22 L1597.67 1245.22 L1597.67 1274.4 Q1597.67 1277.31 1597.9 1278.02 Q1598.16 1278.73 1598.92 1279.12 Q1599.69 1279.5 1602.03 1279.55 L1602.03 1280.49 L1589.03 1280.49 L1589.03 1279.55 Q1591.48 1279.5 1592.19 1279.14 Q1592.91 1278.76 1593.19 1278.15 Q1593.47 1277.51 1593.47 1274.4 L1593.47 1255.74 Q1593.47 1251.97 1593.21 1250.9 Q1593.04 1250.09 1592.55 1249.7 Q1592.09 1249.32 1591.43 1249.32 Q1590.49 1249.32 1588.8 1250.11 L1588.42 1249.32 Z"
     fill="#000000"
     fill-rule="nonzero"
     fill-opacity="1"
     id="path22" />
  <path
     clip-path="url(#clip560)"
     d="M1610.29 1263.42 Q1610.29 1257.5 1612.07 1253.25 Q1613.86 1248.97 1616.81 1246.88 Q1619.11 1245.22 1621.55 1245.22 Q1625.53 1245.22 1628.69 1249.27 Q1632.64 1254.29 1632.64 1262.88 Q1632.64 1268.9 1630.91 1273.1 Q1629.18 1277.31 1626.47 1279.22 Q1623.8 1281.1 1621.3 1281.1 Q1616.36 1281.1 1613.07 1275.27 Q1610.29 1270.35 1610.29 1263.42 M1615.29 1264.05 Q1615.29 1271.19 1617.04 1275.7 Q1618.5 1279.5 1621.38 1279.5 Q1622.75 1279.5 1624.23 1278.27 Q1625.71 1277.03 1626.47 1274.12 Q1627.65 1269.74 1627.65 1261.76 Q1627.65 1255.85 1626.42 1251.9 Q1625.51 1248.97 1624.05 1247.74 Q1623.01 1246.9 1621.53 1246.9 Q1619.8 1246.9 1618.45 1248.46 Q1616.61 1250.57 1615.95 1255.11 Q1615.29 1259.64 1615.29 1264.05 Z"
     fill="#000000"
     fill-rule="nonzero"
     fill-opacity="1"
     id="path23" />
  <path
     clip-path="url(#clip560)"
     d="M1651.18 1247.68 L1649.21 1253.08 L1632.64 1253.08 L1632.64 1252.32 Q1639.95 1245.65 1642.93 1241.42 Q1645.92 1237.2 1645.92 1233.7 Q1645.92 1231.03 1644.28 1229.31 Q1642.64 1227.59 1640.37 1227.59 Q1638.29 1227.59 1636.64 1228.81 Q1635 1230.01 1634.22 1232.35 L1633.45 1232.35 Q1633.97 1228.52 1636.1 1226.47 Q1638.25 1224.42 1641.46 1224.42 Q1644.88 1224.42 1647.16 1226.62 Q1649.46 1228.81 1649.46 1231.79 Q1649.46 1233.93 1648.46 1236.06 Q1646.93 1239.41 1643.49 1243.16 Q1638.34 1248.8 1637.05 1249.95 L1644.38 1249.95 Q1646.62 1249.95 1647.51 1249.79 Q1648.42 1249.62 1649.15 1249.13 Q1649.87 1248.61 1650.41 1247.68 L1651.18 1247.68 Z"
     fill="#000000"
     fill-rule="nonzero"
     fill-opacity="1"
     id="path24" />
  <path
     clip-path="url(#clip560)"
     d="M1658.24 1249.06 Q1659.21 1249.06 1659.87 1249.75 Q1660.54 1250.41 1660.54 1251.36 Q1660.54 1252.32 1659.85 1253 Q1659.19 1253.66 1658.24 1253.66 Q1657.28 1253.66 1656.6 1253 Q1655.94 1252.32 1655.94 1251.36 Q1655.94 1250.39 1656.6 1249.73 Q1657.28 1249.06 1658.24 1249.06 Z"
     fill="#000000"
     fill-rule="nonzero"
     fill-opacity="1"
     id="path25" />
  <path
     clip-path="url(#clip560)"
     d="M1681.95 1225 L1680.33 1228.52 L1671.88 1228.52 L1670.04 1232.29 Q1675.53 1233.1 1678.74 1236.37 Q1681.49 1239.19 1681.49 1243 Q1681.49 1245.21 1680.58 1247.1 Q1679.69 1248.98 1678.32 1250.31 Q1676.96 1251.63 1675.28 1252.44 Q1672.9 1253.58 1670.39 1253.58 Q1667.87 1253.58 1666.71 1252.73 Q1665.57 1251.86 1665.57 1250.82 Q1665.57 1250.24 1666.04 1249.81 Q1666.52 1249.35 1667.24 1249.35 Q1667.78 1249.35 1668.18 1249.52 Q1668.59 1249.69 1669.56 1250.37 Q1671.12 1251.45 1672.71 1251.45 Q1675.13 1251.45 1676.96 1249.62 Q1678.8 1247.78 1678.8 1245.15 Q1678.8 1242.6 1677.16 1240.41 Q1675.53 1238.19 1672.65 1236.99 Q1670.39 1236.06 1666.5 1235.91 L1671.88 1225 L1681.95 1225 Z"
     fill="#000000"
     fill-rule="nonzero"
     fill-opacity="1"
     id="path26" />
  <path
     clip-path="url(#clip560)"
     d="M949.626 1329.05 Q949.626 1329.19 949.438 1329.73 L945.644 1340.08 Q945.433 1340.69 945.222 1340.81 Q945.011 1340.9 944.145 1340.9 L921.94 1340.9 Q921.402 1340.9 921.191 1340.88 Q920.98 1340.85 920.816 1340.73 Q920.652 1340.62 920.652 1340.36 Q920.652 1339.89 920.816 1339.68 Q921.003 1339.47 921.214 1339.45 Q921.425 1339.42 921.94 1339.42 Q923.111 1339.42 923.814 1339.35 Q924.517 1339.28 924.962 1339.19 Q925.43 1339.07 925.665 1338.74 Q925.922 1338.42 926.039 1338.13 Q926.156 1337.83 926.32 1337.15 L932.738 1311.39 Q932.926 1310.61 932.926 1310.5 Q932.926 1310.05 932.644 1309.93 Q932.387 1309.79 931.637 1309.72 L929.81 1309.63 Q929.248 1309.63 929.014 1309.61 Q928.803 1309.58 928.639 1309.47 Q928.475 1309.35 928.475 1309.09 Q928.475 1308.65 928.639 1308.44 Q928.827 1308.2 928.967 1308.18 Q929.131 1308.13 929.389 1308.13 L935.76 1308.27 L942.857 1308.13 Q943.63 1308.13 943.63 1308.72 Q943.63 1309.37 943.302 1309.51 Q942.974 1309.63 941.803 1309.63 Q939.554 1309.63 938.523 1309.86 Q937.516 1310.1 937.235 1310.5 Q936.978 1310.87 936.72 1311.88 L930.232 1337.78 Q929.998 1338.65 929.998 1338.88 Q929.998 1339.14 930.115 1339.24 Q930.255 1339.31 930.63 1339.35 Q931.052 1339.42 931.684 1339.42 L936.181 1339.42 Q937.54 1339.42 938.734 1339.21 Q939.929 1339 940.842 1338.7 Q941.779 1338.39 942.622 1337.83 Q943.466 1337.27 944.051 1336.78 Q944.66 1336.26 945.246 1335.46 Q945.855 1334.65 946.206 1334.08 Q946.581 1333.5 947.002 1332.56 Q947.424 1331.6 947.635 1331.06 Q947.869 1330.5 948.22 1329.54 Q948.431 1329.05 948.501 1328.91 Q948.572 1328.77 948.689 1328.65 Q948.829 1328.53 949.04 1328.53 Q949.321 1328.53 949.462 1328.7 Q949.626 1328.86 949.626 1329.05 Z"
     fill="#000000"
     fill-rule="nonzero"
     fill-opacity="1"
     id="path27" />
  <polyline
     clip-path="url(#clip560)"
     style="stroke:#000000; stroke-linecap:round; stroke-linejoin:round; stroke-width:4; stroke-opacity:1; fill:none"
     points="200.889,1207.87 200.889,115.736 "
     id="polyline27" />
  <polyline
     clip-path="url(#clip560)"
     style="stroke:#000000; stroke-linecap:round; stroke-linejoin:round; stroke-width:4; stroke-opacity:1; fill:none"
     points="200.889,982.545 219.786,982.545 "
     id="polyline28" />
  <polyline
     clip-path="url(#clip560)"
     style="stroke:#000000; stroke-linecap:round; stroke-linejoin:round; stroke-width:4; stroke-opacity:1; fill:none"
     points="200.889,623.031 219.786,623.031 "
     id="polyline29" />
  <polyline
     clip-path="url(#clip560)"
     style="stroke:#000000; stroke-linecap:round; stroke-linejoin:round; stroke-width:4; stroke-opacity:1; fill:none"
     points="200.889,263.517 219.786,263.517 "
     id="polyline30" />
  <path
     clip-path="url(#clip560)"
     d="M119.811 975.102 L128.222 970.999 L129.063 970.999 L129.063 1000.18 Q129.063 1003.09 129.292 1003.8 Q129.547 1004.51 130.312 1004.9 Q131.076 1005.28 133.421 1005.33 L133.421 1006.27 L120.423 1006.27 L120.423 1005.33 Q122.869 1005.28 123.583 1004.92 Q124.297 1004.54 124.577 1003.93 Q124.857 1003.29 124.857 1000.18 L124.857 981.525 Q124.857 977.753 124.603 976.682 Q124.424 975.867 123.94 975.484 Q123.481 975.102 122.819 975.102 Q121.876 975.102 120.193 975.892 L119.811 975.102 Z"
     fill="#000000"
     fill-rule="nonzero"
     fill-opacity="1"
     id="path30" />
  <path
     clip-path="url(#clip560)"
     d="M141.679 989.196 Q141.679 983.283 143.463 979.027 Q145.247 974.745 148.203 972.655 Q150.497 970.999 152.944 970.999 Q156.92 970.999 160.08 975.051 Q164.031 980.072 164.031 988.661 Q164.031 994.676 162.297 998.881 Q160.564 1003.09 157.863 1005 Q155.187 1006.88 152.689 1006.88 Q147.745 1006.88 144.457 1001.05 Q141.679 996.129 141.679 989.196 M146.674 989.833 Q146.674 996.97 148.433 1001.48 Q149.885 1005.28 152.765 1005.28 Q154.142 1005.28 155.62 1004.05 Q157.098 1002.81 157.863 999.901 Q159.035 995.517 159.035 987.54 Q159.035 981.627 157.812 977.676 Q156.894 974.745 155.442 973.522 Q154.397 972.681 152.918 972.681 Q151.185 972.681 149.834 974.235 Q147.999 976.351 147.337 980.888 Q146.674 985.424 146.674 989.833 Z"
     fill="#000000"
     fill-rule="nonzero"
     fill-opacity="1"
     id="path31" />
  <path
     clip-path="url(#clip560)"
     d="M164.031 953.536 L170.864 950.202 L171.548 950.202 L171.548 973.913 Q171.548 976.273 171.734 976.853 Q171.941 977.433 172.562 977.744 Q173.183 978.054 175.089 978.096 L175.089 978.862 L164.528 978.862 L164.528 978.096 Q166.516 978.054 167.095 977.764 Q167.675 977.454 167.903 976.957 Q168.131 976.439 168.131 973.913 L168.131 958.754 Q168.131 955.69 167.924 954.82 Q167.779 954.157 167.385 953.847 Q167.012 953.536 166.474 953.536 Q165.708 953.536 164.341 954.178 L164.031 953.536 Z"
     fill="#000000"
     fill-rule="nonzero"
     fill-opacity="1"
     id="path32" />
  <path
     clip-path="url(#clip560)"
     d="M112.336 615.588 L120.746 611.485 L121.587 611.485 L121.587 640.667 Q121.587 643.573 121.817 644.286 Q122.071 645 122.836 645.382 Q123.601 645.765 125.945 645.816 L125.945 646.759 L112.947 646.759 L112.947 645.816 Q115.394 645.765 116.108 645.408 Q116.821 645.026 117.102 644.414 Q117.382 643.777 117.382 640.667 L117.382 622.011 Q117.382 618.239 117.127 617.169 Q116.949 616.353 116.464 615.971 Q116.006 615.588 115.343 615.588 Q114.4 615.588 112.718 616.378 L112.336 615.588 Z"
     fill="#000000"
     fill-rule="nonzero"
     fill-opacity="1"
     id="path33" />
  <path
     clip-path="url(#clip560)"
     d="M134.203 629.683 Q134.203 623.77 135.987 619.513 Q137.771 615.232 140.728 613.142 Q143.022 611.485 145.468 611.485 Q149.444 611.485 152.605 615.537 Q156.555 620.558 156.555 629.147 Q156.555 635.162 154.822 639.367 Q153.089 643.573 150.387 645.484 Q147.711 647.37 145.213 647.37 Q140.269 647.37 136.981 641.534 Q134.203 636.615 134.203 629.683 M139.199 630.32 Q139.199 637.456 140.957 641.967 Q142.41 645.765 145.29 645.765 Q146.666 645.765 148.144 644.541 Q149.623 643.292 150.387 640.387 Q151.56 636.003 151.56 628.026 Q151.56 622.113 150.336 618.163 Q149.419 615.232 147.966 614.008 Q146.921 613.167 145.443 613.167 Q143.71 613.167 142.359 614.722 Q140.524 616.837 139.861 621.374 Q139.199 625.911 139.199 630.32 Z"
     fill="#000000"
     fill-rule="nonzero"
     fill-opacity="1"
     id="path34" />
  <path
     clip-path="url(#clip560)"
     d="M175.089 613.943 L173.121 619.348 L156.555 619.348 L156.555 618.582 Q163.865 611.914 166.847 607.69 Q169.829 603.465 169.829 599.966 Q169.829 597.294 168.193 595.576 Q166.557 593.857 164.279 593.857 Q162.208 593.857 160.552 595.079 Q158.916 596.28 158.129 598.62 L157.363 598.62 Q157.88 594.789 160.013 592.739 Q162.167 590.688 165.377 590.688 Q168.793 590.688 171.071 592.883 Q173.37 595.079 173.37 598.06 Q173.37 600.193 172.376 602.326 Q170.843 605.681 167.406 609.429 Q162.25 615.062 160.966 616.221 L168.296 616.221 Q170.533 616.221 171.423 616.056 Q172.334 615.89 173.059 615.393 Q173.784 614.875 174.322 613.943 L175.089 613.943 Z"
     fill="#000000"
     fill-rule="nonzero"
     fill-opacity="1"
     id="path35" />
  <path
     clip-path="url(#clip560)"
     d="M114.903 256.075 L123.314 251.971 L124.155 251.971 L124.155 281.154 Q124.155 284.059 124.384 284.773 Q124.639 285.486 125.404 285.869 Q126.168 286.251 128.513 286.302 L128.513 287.245 L115.515 287.245 L115.515 286.302 Q117.962 286.251 118.675 285.894 Q119.389 285.512 119.669 284.9 Q119.95 284.263 119.95 281.154 L119.95 262.497 Q119.95 258.725 119.695 257.655 Q119.516 256.839 119.032 256.457 Q118.573 256.075 117.911 256.075 Q116.968 256.075 115.286 256.865 L114.903 256.075 Z"
     fill="#000000"
     fill-rule="nonzero"
     fill-opacity="1"
     id="path36" />
  <path
     clip-path="url(#clip560)"
     d="M136.771 270.169 Q136.771 264.256 138.555 260 Q140.339 255.718 143.296 253.628 Q145.589 251.971 148.036 251.971 Q152.012 251.971 155.172 256.024 Q159.123 261.045 159.123 269.634 Q159.123 275.649 157.39 279.854 Q155.657 284.059 152.955 285.971 Q150.279 287.857 147.781 287.857 Q142.837 287.857 139.549 282.02 Q136.771 277.101 136.771 270.169 M141.766 270.806 Q141.766 277.942 143.525 282.453 Q144.978 286.251 147.858 286.251 Q149.234 286.251 150.712 285.028 Q152.19 283.779 152.955 280.873 Q154.127 276.49 154.127 268.512 Q154.127 262.599 152.904 258.649 Q151.986 255.718 150.534 254.495 Q149.489 253.653 148.011 253.653 Q146.277 253.653 144.927 255.208 Q143.092 257.324 142.429 261.86 Q141.766 266.397 141.766 270.806 Z"
     fill="#000000"
     fill-rule="nonzero"
     fill-opacity="1"
     id="path37" />
  <path
     clip-path="url(#clip560)"
     d="M159.558 237.097 Q160.759 234.26 162.581 232.728 Q164.424 231.175 167.157 231.175 Q170.533 231.175 172.334 233.37 Q173.701 235.006 173.701 236.869 Q173.701 239.934 169.849 243.206 Q172.438 244.221 173.763 246.105 Q175.089 247.99 175.089 250.537 Q175.089 254.181 172.769 256.853 Q169.746 260.332 164.01 260.332 Q161.173 260.332 160.137 259.628 Q159.123 258.923 159.123 258.116 Q159.123 257.515 159.599 257.06 Q160.096 256.604 160.779 256.604 Q161.297 256.604 161.836 256.77 Q162.188 256.873 163.43 257.536 Q164.672 258.178 165.149 258.302 Q165.915 258.53 166.785 258.53 Q168.897 258.53 170.45 256.894 Q172.024 255.258 172.024 253.022 Q172.024 251.386 171.299 249.833 Q170.761 248.673 170.119 248.072 Q169.228 247.244 167.675 246.582 Q166.122 245.898 164.507 245.898 L163.844 245.898 L163.844 245.277 Q165.48 245.07 167.116 244.097 Q168.773 243.123 169.518 241.757 Q170.264 240.39 170.264 238.754 Q170.264 236.621 168.918 235.316 Q167.592 233.991 165.604 233.991 Q162.395 233.991 160.241 237.429 L159.558 237.097 Z"
     fill="#000000"
     fill-rule="nonzero"
     fill-opacity="1"
     id="path38" />
  <polyline
     clip-path="url(#clip562)"
     style="stroke:#0099b2;stroke-linecap:round;stroke-linejoin:round;stroke-width:4;stroke-opacity:1;fill:none"
     stroke-dasharray="16, 10"
     points="242.545,1176.96 283.381,1147.49 320.961,1120.36 355.766,1095.24 388.177,1071.85 418.504,1049.96 446.998,1029.39 473.867,1010 499.288,991.646 523.409,974.236 546.355,957.673 568.237,941.879 589.148,926.786 609.171,912.333 628.379,898.469 646.834,885.148 664.595,872.328 681.711,859.974 698.227,848.053 714.184,836.535 729.62,825.394 744.565,814.606 759.052,804.15 773.107,794.005 786.755,784.154 800.019,774.579 812.921,765.267 825.478,756.203 837.71,747.374 849.633,738.768 861.262,730.375 872.611,722.183 883.693,714.184 894.521,706.369 905.105,698.729 915.457,691.257 925.587,683.945 935.504,676.787 945.217,669.776 954.734,662.907 964.062,656.174 973.209,649.571 982.183,643.095 990.988,636.739 999.633,630.499 1008.12,624.372 1016.46,618.353 1024.65,612.439 1032.71,606.626 1040.63,600.91 1048.41,595.289 1056.08,589.759 1063.61,584.317 1071.03,578.961 1078.34,573.689 1085.53,568.496 1092.62,563.382 1099.6,558.343 1106.48,553.378 1113.26,548.484 1119.94,543.659 1126.53,538.902 1133.03,534.211 1139.45,529.583 1145.77,525.017 1152.01,520.512 1158.17,516.066 1164.25,511.677 1170.26,507.344 1176.18,503.065 1182.04,498.839 1187.82,494.666 1193.53,490.542 1199.18,486.469 1204.75,482.443 1210.27,478.464 1215.71,474.532 1221.1,470.644 1226.43,466.8 1231.69,462.999 1236.9,459.24 1242.05,455.522 1247.15,451.845 1252.19,448.206 1257.17,444.606 1262.11,441.044 1266.99,437.519 1271.83,434.03 1276.61,430.576 1281.35,427.157 1286.04,423.771 1290.68,420.42 1295.28,417.101 1299.84,413.814 1304.35,410.558 1308.81,407.333 1313.24,404.139 1317.62,400.974 1321.97,397.838 1326.27,394.731 1330.54,391.652 1334.77,388.601 1338.96,385.577 1343.11,382.579 1347.23,379.608 1351.31,376.662 1355.35,373.742 1359.36,370.846 1363.34,367.975 1367.29,365.128 1371.2,362.304 1375.08,359.504 1378.93,356.727 1382.74,353.972 1386.53,351.239 1390.28,348.528 1394.01,345.838 1397.71,343.169 1401.38,340.522 1405.02,337.894 1408.63,335.287 1412.21,332.7 1415.77,330.132 1419.3,327.583 1422.81,325.053 1426.29,322.542 1429.74,320.05 1433.17,317.575 1436.57,315.118 1439.95,312.679 1443.31,310.257 1446.64,307.853 1449.94,305.465 1453.23,303.094 1456.49,300.739 1459.73,298.401 1462.95,296.078 1466.15,293.771 1469.32,291.48 1472.47,289.204 1475.61,286.943 1478.72,284.697 1481.81,282.466 1484.88,280.249 1487.93,278.047 1490.96,275.858 1493.98,273.684 1496.97,271.524 1499.94,269.377 1502.9,267.243 1505.84,265.123 1508.75,263.016 1511.66,260.922 1514.54,258.841 1517.4,256.773 1520.25,254.717 1523.08,252.673 1525.9,250.641 1528.7,248.622 1531.48,246.614 1534.24,244.619 1536.99,242.635 1539.73,240.662 1542.44,238.701 1545.14,236.751 1547.83,234.812 1550.5,232.884 1553.16,230.967 1555.8,229.06 1558.42,227.165 1561.04,225.279 1563.63,223.404 1566.22,221.54 1568.79,219.685 1571.34,217.841 1573.88,216.007 1576.41,214.182 1578.93,212.367 1581.43,210.562 1583.91,208.766 1586.39,206.98 1588.85,205.203 1591.3,203.435 1593.74,201.677 1596.16,199.927 1598.57,198.186 1600.97,196.455 1603.36,194.732 1605.73,193.017 1608.1,191.311 1610.45,189.614 1612.79,187.925 1615.12,186.245 1617.43,184.573 1619.74,182.909 1622.03,181.253 1624.32,179.605 1626.59,177.965 1628.85,176.333 1631.1,174.708 "
     id="polyline74" />
  <circle
     clip-path="url(#clip562)"
     cx="524.476"
     cy="971.912"
     r="14.4"
     fill="#0099b2"
     fill-rule="evenodd"
     fill-opacity="1"
     stroke="#000000"
     stroke-opacity="1"
     stroke-width="2.8"
     id="circle55" />
  <circle
     clip-path="url(#clip562)"
     cx="583.501"
     cy="931.208"
     r="14.4"
     fill="#0099b2"
     fill-rule="evenodd"
     fill-opacity="1"
     stroke="#000000"
     stroke-opacity="1"
     stroke-width="2.8"
     id="circle56" />
  <circle
     clip-path="url(#clip562)"
     cx="635.954"
     cy="892.474"
     r="14.4"
     fill="#0099b2"
     fill-rule="evenodd"
     fill-opacity="1"
     stroke="#000000"
     stroke-opacity="1"
     stroke-width="2.8"
     id="circle57" />
  <circle
     clip-path="url(#clip562)"
     cx="705.09"
     cy="843.285"
     r="14.4"
     fill="#0099b2"
     fill-rule="evenodd"
     fill-opacity="1"
     stroke="#000000"
     stroke-opacity="1"
     stroke-width="2.8"
     id="circle58" />
  <circle
     clip-path="url(#clip562)"
     cx="746.123"
     cy="810.104"
     r="14.4"
     fill="#0099b2"
     fill-rule="evenodd"
     fill-opacity="1"
     stroke="#000000"
     stroke-opacity="1"
     stroke-width="2.8"
     id="circle59" />
  <circle
     clip-path="url(#clip562)"
     cx="801.668"
     cy="768.748"
     r="14.4"
     fill="#0099b2"
     fill-rule="evenodd"
     fill-opacity="1"
     stroke="#000000"
     stroke-opacity="1"
     stroke-width="2.8"
     id="circle60" />
  <circle
     clip-path="url(#clip562)"
     cx="866.818"
     cy="710.401"
     r="14.4"
     fill="#0099b2"
     fill-rule="evenodd"
     fill-opacity="1"
     stroke="#000000"
     stroke-opacity="1"
     stroke-width="2.8"
     id="circle61" />
  <circle
     clip-path="url(#clip562)"
     cx="924.05"
     cy="691.938"
     r="14.4"
     fill="#0099b2"
     fill-rule="evenodd"
     fill-opacity="1"
     stroke="#000000"
     stroke-opacity="1"
     stroke-width="2.8"
     id="circle62" />
  <circle
     clip-path="url(#clip562)"
     cx="987.021"
     cy="637.233"
     r="14.4"
     fill="#0099b2"
     fill-rule="evenodd"
     fill-opacity="1"
     stroke="#000000"
     stroke-opacity="1"
     stroke-width="2.8"
     id="circle63" />
  <circle
     clip-path="url(#clip562)"
     cx="1042.57"
     cy="601.42"
     r="14.4"
     fill="#0099b2"
     fill-rule="evenodd"
     fill-opacity="1"
     stroke="#000000"
     stroke-opacity="1"
     stroke-width="2.8"
     id="circle64" />
  <circle
     clip-path="url(#clip562)"
     cx="1092.25"
     cy="566.034"
     r="14.4"
     fill="#0099b2"
     fill-rule="evenodd"
     fill-opacity="1"
     stroke="#000000"
     stroke-opacity="1"
     stroke-width="2.8"
     id="circle65" />
  <circle
     clip-path="url(#clip562)"
     cx="1154.04"
     cy="534.468"
     r="14.4"
     fill="#0099b2"
     fill-rule="evenodd"
     fill-opacity="1"
     stroke="#000000"
     stroke-opacity="1"
     stroke-width="2.8"
     id="circle66" />
  <circle
     clip-path="url(#clip562)"
     cx="1208.67"
     cy="488.126"
     r="14.4"
     fill="#0099b2"
     fill-rule="evenodd"
     fill-opacity="1"
     stroke="#000000"
     stroke-opacity="1"
     stroke-width="2.8"
     id="circle67" />
  <circle
     clip-path="url(#clip562)"
     cx="1264.21"
     cy="441.134"
     r="14.4"
     fill="#0099b2"
     fill-rule="evenodd"
     fill-opacity="1"
     stroke="#000000"
     stroke-opacity="1"
     stroke-width="2.8"
     id="circle68" />
  <circle
     clip-path="url(#clip562)"
     cx="1325.54"
     cy="381.286"
     r="14.4"
     fill="#0099b2"
     fill-rule="evenodd"
     fill-opacity="1"
     stroke="#000000"
     stroke-opacity="1"
     stroke-width="2.8"
     id="circle69" />
  <circle
     clip-path="url(#clip562)"
     cx="1379.81"
     cy="369.95"
     r="14.4"
     fill="#0099b2"
     fill-rule="evenodd"
     fill-opacity="1"
     stroke="#000000"
     stroke-opacity="1"
     stroke-width="2.8"
     id="circle70" />
  <circle
     clip-path="url(#clip562)"
     cx="1437.63"
     cy="324.257"
     r="14.4"
     fill="#0099b2"
     fill-rule="evenodd"
     fill-opacity="1"
     stroke="#000000"
     stroke-opacity="1"
     stroke-width="2.8"
     id="circle71" />
  <circle
     clip-path="url(#clip562)"
     cx="1497.18"
     cy="294.894"
     r="14.4"
     fill="#0099b2"
     fill-rule="evenodd"
     fill-opacity="1"
     stroke="#000000"
     stroke-opacity="1"
     stroke-width="2.8"
     id="circle72" />
  <circle
     clip-path="url(#clip562)"
     cx="1553.62"
     cy="231.548"
     r="14.4"
     fill="#0099b2"
     fill-rule="evenodd"
     fill-opacity="1"
     stroke="#000000"
     stroke-opacity="1"
     stroke-width="2.8"
     id="circle73" />
  <circle
     clip-path="url(#clip562)"
     cx="1610.34"
     cy="146.646"
     r="14.4"
     fill="#0099b2"
     fill-rule="evenodd"
     fill-opacity="1"
     stroke="#000000"
     stroke-opacity="1"
     stroke-width="2.8"
     id="circle74" />
  <g
     data-mml-node="msub"
     data-latex="\tau_\text{exp}"
     data-semantic-type="subscript"
     data-semantic-role="greekletter"
     data-semantic-annotation="depth:1"
     data-semantic-id="2"
     data-semantic-children="0,1"
     data-semantic-attributes="latex:\tau_\text{exp}"
     data-semantic-owns="0 1"
     aria-level="0"
     data-speech-node="true"
     id="g5"
     transform="matrix(0,-0.06270112,-0.06270112,0,71.024183,695.65376)"
     style="fill:#000000;stroke:#000000;stroke-width:0">
    <g
       data-mml-node="mi"
       data-latex="\tau"
       data-semantic-type="identifier"
       data-semantic-role="greekletter"
       data-semantic-font="italic"
       data-semantic-annotation="clearspeak:simple;nemeth:number;depth:2"
       data-semantic-id="0"
       data-semantic-parent="2"
       data-semantic-attributes="latex:\tau"
       aria-level="1"
       data-speech-node="true"
       id="g1">
      <path
         id="use1"
         d="M 468,431 H 192 C 139,431 91,397 47,330 34,310 27,297 27,292 c 3,-8 4,-13 16,-13 7,0 13,4 19,13 32,49 72,74 121,74 h 77 L 165,56 c -7,-22 -10,-35 -10,-38 0,-20 11,-30 32,-30 11,0 21,3 27,9 13,12 14,15 18,36 l 65,333 h 162 c 35,0 52,12 52,37 0,23 -18,28 -43,28 z" />
    </g>
    <g
       data-mml-node="mtext"
       transform="matrix(0.707,0,0,0.707,470,-150)"
       data-latex="{exp}"
       data-semantic-type="text"
       data-semantic-role="unknown"
       data-semantic-font="normal"
       data-semantic-annotation="clearspeak:unit;depth:2"
       data-semantic-id="1"
       data-semantic-parent="2"
       data-semantic-attributes="latex:{exp}"
       aria-level="1"
       data-speech-node="true"
       id="g4">
      <path
         id="use2"
         d="M 415,251 C 415,366 348,448 236,448 176,448 126,425 85,378 47,334 28,281 28,220 28,157 49,104 91,58 c 42,-46 94,-69 156,-69 57,0 101,20 131,59 25,33 37,57 37,73 0,10 -6,15 -17,15 -8,0 -13,-5 -16,-16 -22,-66 -65,-99 -129,-99 -45,0 -80,21 -107,64 -19,31 -28,78 -29,142 h 270 c 22,0 28,2 28,24 m -89,98 c 11,-33 16,-65 16,-94 H 118 c 3,66 20,111 50,134 25,20 47,30 68,30 45,0 75,-23 90,-70 z" />
      <path
         id="use3"
         d="m 862,3 c 23,1 56,0 98,-3 v 38 c -53,0 -73,1 -94,29 L 736,235 c 43,53 72,89 88,108 28,32 67,49 118,50 v 38 c -28,-2 -56,-3 -84,-3 -37,0 -70,1 -99,3 v -38 c 19,-2 29,-11 29,-27 0,-9 -5,-20 -14,-32 l -58,-72 -74,95 c -5,7 -8,12 -8,15 0,13 12,20 35,21 v 38 l -111,-3 c -26,-1 -58,0 -97,3 v -38 c 36,0 59,-3 69,-8 10,-5 26,-22 48,-51 L 673,210 C 624,147 594,109 583,96 551,57 509,38 456,38 V 0 c 37,3 65,4 86,3 l 97,-3 v 38 c -19,3 -28,12 -28,27 0,4 1,9 3,14 6,13 33,47 81,104 L 767,89 C 778,75 784,65 787,59 787,46 775,39 751,38 V 0 Z" />
      <path
         id="use4"
         d="m 1270,-13 c 62,0 115,22 158,67 43,45 65,98 65,161 0,61 -20,113 -59,157 -41,47 -91,70 -151,70 -51,0 -95,-20 -133,-59 v 59 l -150,-11 v -38 c 37,0 59,-2 66,-7 7,-5 11,-18 11,-39 v -462 c 0,-19 -4,-31 -11,-35 -7,-4 -29,-5 -66,-5 v -39 l 114,3 115,-3 v 39 c -37,0 -58,1 -65,5 -7,4 -11,16 -11,35 V 44 c 22,-31 65,-57 117,-57 m 6,422 c 41,0 73,-23 98,-69 19,-39 29,-80 29,-125 0,-47 -11,-90 -33,-129 -26,-47 -61,-70 -104,-70 -42,0 -75,20 -100,59 -9,13 -13,26 -13,39 v 219 c 29,51 70,76 123,76 z" />
    </g>
  </g>
</svg>
