<?xml version="1.0" encoding="UTF-8" standalone="no"?>
<svg
   width="309.6pt"
   height="252pt"
   viewBox="0 0 309.6 252"
   version="1.1"
   id="svg84"
   sodipodi:docname="scaling_metropolis_000784.svg"
   xml:space="preserve"
   inkscape:version="1.4.2 (ebf0e940, 2025-05-08)"
   xmlns:inkscape="http://www.inkscape.org/namespaces/inkscape"
   xmlns:sodipodi="http://sodipodi.sourceforge.net/DTD/sodipodi-0.dtd"
   xmlns:xlink="http://www.w3.org/1999/xlink"
   xmlns="http://www.w3.org/2000/svg"
   xmlns:svg="http://www.w3.org/2000/svg"
   xmlns:rdf="http://www.w3.org/1999/02/22-rdf-syntax-ns#"
   xmlns:cc="http://creativecommons.org/ns#"
   xmlns:dc="http://purl.org/dc/elements/1.1/"><sodipodi:namedview
     id="namedview84"
     pagecolor="#ffffff"
     bordercolor="#000000"
     borderopacity="0.25"
     inkscape:showpageshadow="2"
     inkscape:pageopacity="0.0"
     inkscape:pagecheckerboard="0"
     inkscape:deskcolor="#d1d1d1"
     inkscape:document-units="pt"
     showgrid="false"
     inkscape:zoom="1.4489529"
     inkscape:cx="322.99187"
     inkscape:cy="189.79223"
     inkscape:window-width="1728"
     inkscape:window-height="1055"
     inkscape:window-x="0"
     inkscape:window-y="34"
     inkscape:window-maximized="1"
     inkscape:current-layer="axes_1" /><metadata
     id="metadata1"><rdf:RDF><cc:Work><dc:type
           rdf:resource="http://purl.org/dc/dcmitype/StillImage" /><dc:date>2025-10-22T19:40:37.591974</dc:date><dc:format>image/svg+xml</dc:format><dc:creator><cc:Agent><dc:title>Matplotlib v3.10.6, https://matplotlib.org/</dc:title></cc:Agent></dc:creator></cc:Work></rdf:RDF></metadata><defs
     id="defs1"><style
       type="text/css"
       id="style1">*{stroke-linejoin: round; stroke-linecap: butt}</style><style
       type="text/css"
       id="style1-2">*{stroke-linejoin: round; stroke-linecap: butt}</style><path
       id="mb1414a4a5e"
       d="M 0 0  L 0 3.5  "
       style="stroke: #000000; stroke-width: 0.8" /><path
       id="CMR17-31-9"
       d="M 1702 4083  C 1702 4217 1696 4224 1606 4224  C 1357 3927 979 3833 621 3820  C 602 3820 570 3820 563 3808  C 557 3795 557 3782 557 3648  C 755 3648 1088 3686 1344 3839  L 1344 467  C 1344 243 1331 166 781 166  L 589 166  L 589 0  C 896 6 1216 12 1523 12  C 1830 12 2150 6 2458 0  L 2458 166  L 2266 166  C 1715 166 1702 236 1702 467  L 1702 4083  z "
       transform="scale(0.015625)" /><path
       id="CMR17-30-9"
       d="M 2688 2038  C 2688 2430 2682 3099 2413 3613  C 2176 4063 1798 4224 1466 4224  C 1158 4224 768 4082 525 3620  C 269 3137 243 2539 243 2038  C 243 1671 250 1112 448 623  C 723 -39 1216 -128 1466 -128  C 1760 -128 2208 -7 2470 604  C 2662 1048 2688 1568 2688 2038  z M 1466 -26  C 1056 -26 813 328 723 816  C 653 1196 653 1749 653 2109  C 653 2604 653 3015 736 3407  C 858 3954 1216 4121 1466 4121  C 1728 4121 2067 3947 2189 3420  C 2272 3054 2278 2623 2278 2109  C 2278 1691 2278 1176 2202 797  C 2067 96 1690 -26 1466 -26  z "
       transform="scale(0.015625)" /><path
       id="CMSY10-0"
       d="M 4218 1472  C 4326 1472 4442 1472 4442 1600  C 4442 1728 4326 1728 4218 1728  L 755 1728  C 646 1728 531 1728 531 1600  C 531 1472 646 1472 755 1472  L 4218 1472  z "
       transform="scale(0.015625)" /><path
       id="CMR17-32-7"
       d="M 2669 990  L 2554 990  C 2490 537 2438 460 2413 422  C 2381 371 1920 371 1830 371  L 602 371  C 832 620 1280 1073 1824 1596  C 2214 1966 2669 2400 2669 3033  C 2669 3788 2067 4224 1395 4224  C 691 4224 262 3603 262 3027  C 262 2777 448 2745 525 2745  C 589 2745 781 2783 781 3007  C 781 3206 614 3264 525 3264  C 486 3264 448 3257 422 3244  C 544 3788 915 4057 1306 4057  C 1862 4057 2227 3616 2227 3033  C 2227 2477 1901 1998 1536 1583  L 262 147  L 262 0  L 2515 0  L 2669 990  z "
       transform="scale(0.015625)" /><path
       id="mc4e23dc008"
       d="M 0 0  L 0 2  "
       style="stroke: #000000; stroke-width: 0.6" /><path
       id="CMMI12-67"
       d="M 2163 811  C 2138 708 2125 683 2042 587  C 1779 249 1510 128 1312 128  C 1101 128 902 293 902 734  C 902 1072 1094 1787 1235 2075  C 1421 2432 1709 2687 1978 2687  C 2400 2687 2483 2164 2483 2126  L 2464 2036  L 2163 811  z M 2560 2394  C 2477 2579 2298 2816 1978 2816  C 1280 2816 486 1941 486 989  C 486 325 890 0 1299 0  C 1638 0 1939 268 2054 396  L 1914 -176  C 1824 -520 1786 -677 1555 -896  C 1293 -1152 1050 -1152 909 -1152  C 717 -1152 557 -1140 397 -1090  C 602 -1034 653 -858 653 -789  C 653 -689 576 -589 435 -589  C 282 -589 115 -714 115 -921  C 115 -1178 378 -1280 922 -1280  C 1747 -1280 2176 -758 2259 -420  L 2970 2426  C 2989 2502 2989 2515 2989 2528  C 2989 2617 2918 2688 2822 2688  C 2669 2688 2579 2560 2560 2388  L 2560 2394  z "
       transform="scale(0.015625)" /><path
       id="ma39b7a17b6"
       d="M 0 0  L -3.5 0  "
       style="stroke: #000000; stroke-width: 0.8" /><path
       id="mffb8bfa9ae"
       d="M 0 0  L -2 0  "
       style="stroke: #000000; stroke-width: 0.6" /><path
       id="CMR17-1-3"
       d="M 2598 4435  C 2547 4544 2522 4544 2470 4544  C 2394 4544 2387 4531 2342 4441  L 269 108  C 262 96 237 38 237 32  C 237 6 243 0 358 0  L 4576 0  C 4691 0 4698 6 4698 32  C 4698 38 4672 96 4666 108  L 2598 4435  z M 2310 4056  L 4083 358  L 531 358  L 2310 4056  z "
       transform="scale(0.015625)" /><path
       id="CMMI12-45-9"
       d="M 4448 1489  C 4454 1508 4474 1553 4474 1578  C 4474 1611 4448 1643 4410 1643  C 4384 1643 4371 1636 4352 1617  C 4339 1611 4339 1598 4282 1469  C 3904 570 3629 185 2605 185  L 1670 185  C 1581 185 1568 185 1530 192  C 1459 198 1453 211 1453 262  C 1453 307 1466 346 1478 403  L 1920 2176  L 2554 2176  C 3053 2176 3091 2066 3091 1874  C 3091 1810 3091 1752 3046 1559  C 3034 1534 3027 1508 3027 1489  C 3027 1444 3059 1424 3098 1424  C 3155 1424 3162 1469 3187 1559  L 3552 3036  C 3552 3068 3526 3099 3488 3099  C 3430 3099 3424 3074 3398 2986  C 3270 2500 3142 2361 2573 2361  L 1965 2361  L 2362 3913  C 2419 4134 2432 4153 2694 4153  L 3610 4153  C 4397 4153 4557 3945 4557 3465  C 4557 3459 4557 3282 4531 3074  C 4525 3049 4518 3011 4518 2998  C 4518 2948 4550 2929 4589 2929  C 4634 2929 4659 2954 4672 3068  L 4806 4172  C 4806 4191 4819 4255 4819 4268  C 4819 4339 4762 4339 4646 4339  L 1523 4339  C 1402 4339 1338 4339 1338 4223  C 1338 4153 1382 4153 1491 4153  C 1888 4153 1888 4109 1888 4039  C 1888 4008 1882 3983 1862 3913  L 998 474  C 941 249 928 185 480 185  C 358 185 294 185 294 70  C 294 0 333 0 461 0  L 3674 0  C 3814 0 3821 6 3866 108  L 4448 1489  z "
       transform="scale(0.015625)" /><path
       id="CMMI12-6e"
       d="M 1318 1870  C 1331 1909 1491 2228 1728 2432  C 1894 2585 2112 2687 2362 2687  C 2618 2687 2707 2496 2707 2241  C 2707 1877 2445 1149 2317 804  C 2259 651 2227 568 2227 453  C 2227 166 2426 -64 2733 -64  C 3328 -64 3552 874 3552 913  C 3552 945 3526 970 3488 970  C 3430 970 3424 951 3392 842  C 3245 319 3002 64 2752 64  C 2688 64 2586 70 2586 274  C 2586 434 2656 625 2694 715  C 2822 1066 3091 1781 3091 2145  C 3091 2528 2867 2816 2381 2816  C 1811 2816 1510 2413 1395 2253  C 1376 2617 1114 2816 832 2816  C 627 2816 486 2694 378 2477  C 262 2247 173 1864 173 1838  C 173 1813 198 1781 243 1781  C 294 1781 301 1787 339 1934  C 442 2324 557 2687 813 2687  C 960 2687 1011 2585 1011 2394  C 1011 2253 947 2004 902 1807  L 723 1117  C 698 996 627 708 595 593  C 550 427 480 127 480 95  C 480 6 550 -64 646 -64  C 723 -64 813 -26 864 70  C 877 102 934 325 966 453  L 1107 1028  L 1318 1870  z "
       transform="scale(0.015625)" /><path
       id="m4f1fbd84ca"
       d="M 0 0.25  C 0.066301 0.25 0.129895 0.223658 0.176777 0.176777  C 0.223658 0.129895 0.25 0.066301 0.25 0  C 0.25 -0.066301 0.223658 -0.129895 0.176777 -0.176777  C 0.129895 -0.223658 0.066301 -0.25 0 -0.25  C -0.066301 -0.25 -0.129895 -0.223658 -0.176777 -0.176777  C -0.223658 -0.129895 -0.25 -0.066301 -0.25 0  C -0.25 0.066301 -0.223658 0.129895 -0.176777 0.176777  C -0.129895 0.223658 -0.066301 0.25 0 0.25  z "
       style="stroke: #0000ff" /><path
       id="me25fc603f1"
       d="M 0 0.25  C 0.066301 0.25 0.129895 0.223658 0.176777 0.176777  C 0.223658 0.129895 0.25 0.066301 0.25 0  C 0.25 -0.066301 0.223658 -0.129895 0.176777 -0.176777  C 0.129895 -0.223658 0.066301 -0.25 0 -0.25  C -0.066301 -0.25 -0.129895 -0.223658 -0.176777 -0.176777  C -0.223658 -0.129895 -0.25 -0.066301 -0.25 0  C -0.25 0.066301 -0.223658 0.129895 -0.176777 0.176777  C -0.129895 0.223658 -0.066301 0.25 0 0.25  z "
       style="stroke: #0040df" /><path
       id="m844df78c24"
       d="M 0 0.25  C 0.066301 0.25 0.129895 0.223658 0.176777 0.176777  C 0.223658 0.129895 0.25 0.066301 0.25 0  C 0.25 -0.066301 0.223658 -0.129895 0.176777 -0.176777  C 0.129895 -0.223658 0.066301 -0.25 0 -0.25  C -0.066301 -0.25 -0.129895 -0.223658 -0.176777 -0.176777  C -0.223658 -0.129895 -0.25 -0.066301 -0.25 0  C -0.25 0.066301 -0.223658 0.129895 -0.176777 0.176777  C -0.129895 0.223658 -0.066301 0.25 0 0.25  z "
       style="stroke: #0080bf" /><path
       id="m69944a7423"
       d="M 0 0.25  C 0.066301 0.25 0.129895 0.223658 0.176777 0.176777  C 0.223658 0.129895 0.25 0.066301 0.25 0  C 0.25 -0.066301 0.223658 -0.129895 0.176777 -0.176777  C 0.129895 -0.223658 0.066301 -0.25 0 -0.25  C -0.066301 -0.25 -0.129895 -0.223658 -0.176777 -0.176777  C -0.223658 -0.129895 -0.25 -0.066301 -0.25 0  C -0.25 0.066301 -0.223658 0.129895 -0.176777 0.176777  C -0.129895 0.223658 -0.066301 0.25 0 0.25  z "
       style="stroke: #00c09f" /><path
       id="CMR17-33-0"
       d="M 1414 2176  C 1984 2176 2234 1673 2234 1094  C 2234 322 1824 25 1453 25  C 1114 25 563 193 390 691  C 422 678 454 678 486 678  C 640 678 755 780 755 947  C 755 1132 614 1216 486 1216  C 378 1216 211 1164 211 927  C 211 335 787 -128 1466 -128  C 2176 -128 2720 432 2720 1087  C 2720 1718 2208 2176 1600 2246  C 2086 2347 2554 2776 2554 3353  C 2554 3856 2048 4224 1472 4224  C 890 4224 378 3862 378 3347  C 378 3123 544 3084 627 3084  C 762 3084 877 3167 877 3334  C 877 3500 762 3584 627 3584  C 602 3584 570 3584 544 3571  C 730 3999 1235 4076 1459 4076  C 1683 4076 2106 3966 2106 3347  C 2106 3167 2080 2851 1862 2574  C 1670 2329 1453 2316 1242 2297  C 1210 2297 1062 2284 1037 2284  C 992 2278 966 2272 966 2227  C 966 2182 973 2176 1101 2176  L 1414 2176  z "
       transform="scale(0.015625)" /><path
       id="CMR17-34-7"
       d="M 2150 4147  C 2150 4281 2144 4288 2029 4288  L 128 1254  L 128 1088  L 1779 1088  L 1779 460  C 1779 230 1766 166 1318 166  L 1197 166  L 1197 0  C 1402 12 1747 12 1965 12  C 2182 12 2528 12 2733 0  L 2733 166  L 2611 166  C 2163 166 2150 230 2150 460  L 2150 1088  L 2803 1088  L 2803 1254  L 2150 1254  L 2150 4147  z M 1798 3723  L 1798 1254  L 256 1254  L 1798 3723  z "
       transform="scale(0.015625)" /><clipPath
       id="pef5a384081"><rect
         x="38.7"
         y="30.24"
         width="239.94"
         height="194.04"
         id="rect264" /></clipPath></defs><g
     id="figure_1"><g
       id="axes_1"><g
         id="patch_2"><path
           d="M 38.7 224.28  L 278.64 224.28  L 278.64 30.24  L 38.7 30.24  z "
           style="fill: #ffffff"
           id="path2" /></g><g
         id="matplotlib.axis_1"><g
           id="xtick_1"><g
             id="line2d_1"><defs
               id="defs2"><path
                 id="m76fa22202f"
                 d="M 0 0  L 0 3.5  "
                 style="stroke: #000000; stroke-width: 0.8" /></defs><g
               id="g2"><use
                 xlink:href="#m76fa22202f"
                 x="77.932414"
                 y="224.28"
                 style="stroke: #000000; stroke-width: 0.8"
                 id="use2" /></g></g><g
             id="text_1"><!-- $\mathdefault{0.2}$ --><g
               transform="translate(71.567374 238.198498) scale(0.1 -0.1)"
               id="g5"><defs
                 id="defs3"><path
                   id="CMR17-30"
                   d="M 2688 2038  C 2688 2430 2682 3099 2413 3613  C 2176 4063 1798 4224 1466 4224  C 1158 4224 768 4082 525 3620  C 269 3137 243 2539 243 2038  C 243 1671 250 1112 448 623  C 723 -39 1216 -128 1466 -128  C 1760 -128 2208 -7 2470 604  C 2662 1048 2688 1568 2688 2038  z M 1466 -26  C 1056 -26 813 328 723 816  C 653 1196 653 1749 653 2109  C 653 2604 653 3015 736 3407  C 858 3954 1216 4121 1466 4121  C 1728 4121 2067 3947 2189 3420  C 2272 3054 2278 2623 2278 2109  C 2278 1691 2278 1176 2202 797  C 2067 96 1690 -26 1466 -26  z "
                   transform="scale(0.015625)" /><path
                   id="CMMI12-3a"
                   d="M 1178 307  C 1178 492 1024 620 870 620  C 685 620 557 467 557 313  C 557 128 710 0 864 0  C 1050 0 1178 153 1178 307  z "
                   transform="scale(0.015625)" /><path
                   id="CMR17-32"
                   d="M 2669 990  L 2554 990  C 2490 537 2438 460 2413 422  C 2381 371 1920 371 1830 371  L 602 371  C 832 620 1280 1073 1824 1596  C 2214 1966 2669 2400 2669 3033  C 2669 3788 2067 4224 1395 4224  C 691 4224 262 3603 262 3027  C 262 2777 448 2745 525 2745  C 589 2745 781 2783 781 3007  C 781 3206 614 3264 525 3264  C 486 3264 448 3257 422 3244  C 544 3788 915 4057 1306 4057  C 1862 4057 2227 3616 2227 3033  C 2227 2477 1901 1998 1536 1583  L 262 147  L 262 0  L 2515 0  L 2669 990  z "
                   transform="scale(0.015625)" /></defs><use
                 xlink:href="#CMR17-30"
                 transform="scale(0.996264)"
                 id="use3" /><use
                 xlink:href="#CMMI12-3a"
                 transform="translate(45.690477 0) scale(0.996264)"
                 id="use4" /><use
                 xlink:href="#CMR17-32"
                 transform="translate(72.787654 0) scale(0.996264)"
                 id="use5" /></g></g></g><g
           id="xtick_2"><g
             id="line2d_2"><g
               id="g6"><use
                 xlink:href="#m76fa22202f"
                 x="120.140374"
                 y="224.28"
                 style="stroke: #000000; stroke-width: 0.8"
                 id="use6" /></g></g><g
             id="text_2"><!-- $\mathdefault{0.3}$ --><g
               transform="translate(113.775334 238.198498) scale(0.1 -0.1)"
               id="g9"><defs
                 id="defs6"><path
                   id="CMR17-33"
                   d="M 1414 2176  C 1984 2176 2234 1673 2234 1094  C 2234 322 1824 25 1453 25  C 1114 25 563 193 390 691  C 422 678 454 678 486 678  C 640 678 755 780 755 947  C 755 1132 614 1216 486 1216  C 378 1216 211 1164 211 927  C 211 335 787 -128 1466 -128  C 2176 -128 2720 432 2720 1087  C 2720 1718 2208 2176 1600 2246  C 2086 2347 2554 2776 2554 3353  C 2554 3856 2048 4224 1472 4224  C 890 4224 378 3862 378 3347  C 378 3123 544 3084 627 3084  C 762 3084 877 3167 877 3334  C 877 3500 762 3584 627 3584  C 602 3584 570 3584 544 3571  C 730 3999 1235 4076 1459 4076  C 1683 4076 2106 3966 2106 3347  C 2106 3167 2080 2851 1862 2574  C 1670 2329 1453 2316 1242 2297  C 1210 2297 1062 2284 1037 2284  C 992 2278 966 2272 966 2227  C 966 2182 973 2176 1101 2176  L 1414 2176  z "
                   transform="scale(0.015625)" /></defs><use
                 xlink:href="#CMR17-30"
                 transform="scale(0.996264)"
                 id="use7" /><use
                 xlink:href="#CMMI12-3a"
                 transform="translate(45.690477 0) scale(0.996264)"
                 id="use8" /><use
                 xlink:href="#CMR17-33"
                 transform="translate(72.787654 0) scale(0.996264)"
                 id="use9" /></g></g></g><g
           id="xtick_3"><g
             id="line2d_3"><g
               id="g10"><use
                 xlink:href="#m76fa22202f"
                 x="162.348334"
                 y="224.28"
                 style="stroke: #000000; stroke-width: 0.8"
                 id="use10" /></g></g><g
             id="text_3"><!-- $\mathdefault{0.4}$ --><g
               transform="translate(155.983294 238.198498) scale(0.1 -0.1)"
               id="g13"><defs
                 id="defs10"><path
                   id="CMR17-34"
                   d="M 2150 4147  C 2150 4281 2144 4288 2029 4288  L 128 1254  L 128 1088  L 1779 1088  L 1779 460  C 1779 230 1766 166 1318 166  L 1197 166  L 1197 0  C 1402 12 1747 12 1965 12  C 2182 12 2528 12 2733 0  L 2733 166  L 2611 166  C 2163 166 2150 230 2150 460  L 2150 1088  L 2803 1088  L 2803 1254  L 2150 1254  L 2150 4147  z M 1798 3723  L 1798 1254  L 256 1254  L 1798 3723  z "
                   transform="scale(0.015625)" /></defs><use
                 xlink:href="#CMR17-30"
                 transform="scale(0.996264)"
                 id="use11" /><use
                 xlink:href="#CMMI12-3a"
                 transform="translate(45.690477 0) scale(0.996264)"
                 id="use12" /><use
                 xlink:href="#CMR17-34"
                 transform="translate(72.787654 0) scale(0.996264)"
                 id="use13" /></g></g></g><g
           id="xtick_4"><g
             id="line2d_4"><g
               id="g14"><use
                 xlink:href="#m76fa22202f"
                 x="204.556294"
                 y="224.28"
                 style="stroke: #000000; stroke-width: 0.8"
                 id="use14" /></g></g><g
             id="text_4"><!-- $\mathdefault{0.5}$ --><g
               transform="translate(198.191254 238.198498) scale(0.1 -0.1)"
               id="g17"><defs
                 id="defs14"><path
                   id="CMR17-35"
                   d="M 730 3750  C 794 3724 1056 3641 1325 3641  C 1920 3641 2246 3961 2432 4140  C 2432 4191 2432 4224 2394 4224  C 2387 4224 2374 4224 2323 4198  C 2099 4102 1837 4032 1517 4032  C 1325 4032 1037 4055 723 4191  C 653 4224 640 4224 634 4224  C 602 4224 595 4217 595 4090  L 595 2231  C 595 2113 595 2080 659 2080  C 691 2080 704 2093 736 2139  C 941 2435 1222 2560 1542 2560  C 1766 2560 2246 2415 2246 1293  C 2246 1087 2246 716 2054 422  C 1894 159 1645 25 1370 25  C 947 25 518 319 403 812  C 429 806 480 793 506 793  C 589 793 749 838 749 1036  C 749 1209 627 1280 506 1280  C 358 1280 262 1190 262 1011  C 262 454 704 -128 1382 -128  C 2042 -128 2669 441 2669 1267  C 2669 2054 2170 2662 1549 2662  C 1222 2662 947 2540 730 2304  L 730 3750  z "
                   transform="scale(0.015625)" /></defs><use
                 xlink:href="#CMR17-30"
                 transform="scale(0.996264)"
                 id="use15" /><use
                 xlink:href="#CMMI12-3a"
                 transform="translate(45.690477 0) scale(0.996264)"
                 id="use16" /><use
                 xlink:href="#CMR17-35"
                 transform="translate(72.787654 0) scale(0.996264)"
                 id="use17" /></g></g></g><g
           id="xtick_5"><g
             id="line2d_5"><g
               id="g18"><use
                 xlink:href="#m76fa22202f"
                 x="246.764254"
                 y="224.28"
                 style="stroke: #000000; stroke-width: 0.8"
                 id="use18" /></g></g><g
             id="text_5"><!-- $\mathdefault{0.6}$ --><g
               transform="translate(240.399215 238.198498) scale(0.1 -0.1)"
               id="g21"><defs
                 id="defs18"><path
                   id="CMR17-36"
                   d="M 678 2198  C 678 3712 1395 4076 1811 4076  C 1946 4076 2272 4049 2400 3782  C 2298 3782 2106 3782 2106 3558  C 2106 3385 2246 3328 2336 3328  C 2394 3328 2566 3353 2566 3571  C 2566 3987 2246 4224 1805 4224  C 1043 4224 243 3411 243 2011  C 243 257 966 -128 1478 -128  C 2099 -128 2688 431 2688 1295  C 2688 2101 2170 2688 1517 2688  C 1126 2688 838 2430 678 1979  L 678 2198  z M 1478 25  C 691 25 691 1212 691 1450  C 691 1914 909 2585 1504 2585  C 1613 2585 1926 2585 2138 2140  C 2253 1889 2253 1624 2253 1302  C 2253 954 2253 696 2118 438  C 1978 173 1773 25 1478 25  z "
                   transform="scale(0.015625)" /></defs><use
                 xlink:href="#CMR17-30"
                 transform="scale(0.996264)"
                 id="use19" /><use
                 xlink:href="#CMMI12-3a"
                 transform="translate(45.690477 0) scale(0.996264)"
                 id="use20" /><use
                 xlink:href="#CMR17-36"
                 transform="translate(72.787654 0) scale(0.996264)"
                 id="use21" /></g></g></g><g
           id="text_6"><!-- $a$ --><g
             transform="translate(156.420995 249.670478) scale(0.08 -0.08)"
             id="g22"><defs
               id="defs21"><path
                 id="CMMI12-61"
                 d="M 1926 759  C 1894 651 1894 638 1805 517  C 1664 338 1382 64 1082 64  C 819 64 672 300 672 676  C 672 1028 870 1743 992 2011  C 1210 2458 1510 2687 1760 2687  C 2182 2687 2266 2164 2266 2113  C 2266 2107 2246 2024 2240 2011  L 1926 759  z M 2336 2394  C 2266 2560 2093 2816 1760 2816  C 1037 2816 256 1883 256 938  C 256 306 627 -64 1062 -64  C 1414 -64 1715 210 1894 421  C 1958 44 2259 -64 2451 -64  C 2643 -64 2797 51 2912 280  C 3014 496 3104 885 3104 910  C 3104 942 3078 968 3040 968  C 2982 968 2976 936 2950 840  C 2854 465 2733 64 2470 64  C 2285 64 2272 229 2272 356  C 2272 503 2291 573 2349 821  C 2394 980 2426 1120 2477 1305  C 2714 2260 2771 2489 2771 2528  C 2771 2617 2701 2688 2605 2688  C 2400 2688 2349 2464 2336 2388  L 2336 2394  z "
                 transform="scale(0.015625)" /></defs><use
               xlink:href="#CMMI12-61"
               transform="scale(0.996264)"
               id="use22" /></g></g></g><g
         id="matplotlib.axis_2"><g
           id="ytick_1"><g
             id="line2d_6"><defs
               id="defs22"><path
                 id="m6ad6af04a7"
                 d="M 0 0  L -3.5 0  "
                 style="stroke: #000000; stroke-width: 0.8" /></defs><g
               id="g23"><use
                 xlink:href="#m6ad6af04a7"
                 x="38.7"
                 y="223.885498"
                 style="stroke: #000000; stroke-width: 0.8"
                 id="use23" /></g></g><g
             id="text_7"><!-- $\mathdefault{1}$ --><g
               transform="translate(26.718665 227.344747) scale(0.1 -0.1)"
               id="g24"><defs
                 id="defs23"><path
                   id="CMR17-31"
                   d="M 1702 4083  C 1702 4217 1696 4224 1606 4224  C 1357 3927 979 3833 621 3820  C 602 3820 570 3820 563 3808  C 557 3795 557 3782 557 3648  C 755 3648 1088 3686 1344 3839  L 1344 467  C 1344 243 1331 166 781 166  L 589 166  L 589 0  C 896 6 1216 12 1523 12  C 1830 12 2150 6 2458 0  L 2458 166  L 2266 166  C 1715 166 1702 236 1702 467  L 1702 4083  z "
                   transform="scale(0.015625)" /></defs><use
                 xlink:href="#CMR17-31"
                 transform="scale(0.996264)"
                 id="use24" /></g></g></g><g
           id="ytick_2"><g
             id="line2d_7"><g
               id="g25"><use
                 xlink:href="#m6ad6af04a7"
                 x="38.7"
                 y="193.699481"
                 style="stroke: #000000; stroke-width: 0.8"
                 id="use25" /></g></g><g
             id="text_8"><!-- $\mathdefault{2}$ --><g
               transform="translate(26.718665 197.158731) scale(0.1 -0.1)"
               id="g26"><use
                 xlink:href="#CMR17-32"
                 transform="scale(0.996264)"
                 id="use26" /></g></g></g><g
           id="ytick_3"><g
             id="line2d_8"><g
               id="g27"><use
                 xlink:href="#m6ad6af04a7"
                 x="38.7"
                 y="163.513465"
                 style="stroke: #000000; stroke-width: 0.8"
                 id="use27" /></g></g><g
             id="text_9"><!-- $\mathdefault{3}$ --><g
               transform="translate(26.718665 166.972714) scale(0.1 -0.1)"
               id="g28"><use
                 xlink:href="#CMR17-33"
                 transform="scale(0.996264)"
                 id="use28" /></g></g></g><g
           id="ytick_4"><g
             id="line2d_9"><g
               id="g29"><use
                 xlink:href="#m6ad6af04a7"
                 x="38.7"
                 y="133.327448"
                 style="stroke: #000000; stroke-width: 0.8"
                 id="use29" /></g></g><g
             id="text_10"><!-- $\mathdefault{4}$ --><g
               transform="translate(26.718665 136.786697) scale(0.1 -0.1)"
               id="g30"><use
                 xlink:href="#CMR17-34"
                 transform="scale(0.996264)"
                 id="use30" /></g></g></g><g
           id="ytick_5"><g
             id="line2d_10"><g
               id="g31"><use
                 xlink:href="#m6ad6af04a7"
                 x="38.7"
                 y="103.141431"
                 style="stroke: #000000; stroke-width: 0.8"
                 id="use31" /></g></g><g
             id="text_11"><!-- $\mathdefault{5}$ --><g
               transform="translate(26.718665 106.60068) scale(0.1 -0.1)"
               id="g32"><use
                 xlink:href="#CMR17-35"
                 transform="scale(0.996264)"
                 id="use32" /></g></g></g><g
           id="ytick_6"><g
             id="line2d_11"><g
               id="g33"><use
                 xlink:href="#m6ad6af04a7"
                 x="38.7"
                 y="72.955414"
                 style="stroke: #000000; stroke-width: 0.8"
                 id="use33" /></g></g><g
             id="text_12"><!-- $\mathdefault{6}$ --><g
               transform="translate(26.718665 76.414663) scale(0.1 -0.1)"
               id="g34"><use
                 xlink:href="#CMR17-36"
                 transform="scale(0.996264)"
                 id="use34" /></g></g></g><g
           id="ytick_7"><g
             id="line2d_12"><g
               id="g35"><use
                 xlink:href="#m6ad6af04a7"
                 x="38.7"
                 y="42.769397"
                 style="stroke: #000000; stroke-width: 0.8"
                 id="use35" /></g></g><g
             id="text_13"><!-- $\mathdefault{7}$ --><g
               transform="translate(26.718665 46.228646) scale(0.1 -0.1)"
               id="g36"><defs
                 id="defs35"><path
                   id="CMR17-37"
                   d="M 2886 3955  L 2886 4096  L 1382 4096  C 634 4096 621 4166 595 4288  L 480 4288  L 294 3104  L 410 3104  C 429 3226 474 3552 550 3673  C 589 3724 1062 3724 1171 3724  L 2579 3724  L 1869 2670  C 1395 1961 1069 1003 1069 166  C 1069 89 1069 -128 1299 -128  C 1530 -128 1530 89 1530 172  L 1530 466  C 1530 1514 1709 2204 2003 2644  L 2886 3955  z "
                   transform="scale(0.015625)" /></defs><use
                 xlink:href="#CMR17-37"
                 transform="scale(0.996264)"
                 id="use36" /></g></g></g><g
           id="text_14"><!-- $\Delta E$ --><g
             transform="translate(21.168919 133.891474) rotate(-90) scale(0.08 -0.08)"
             id="g38"><defs
               id="defs36"><path
                 id="CMR17-1"
                 d="M 2598 4435  C 2547 4544 2522 4544 2470 4544  C 2394 4544 2387 4531 2342 4441  L 269 108  C 262 96 237 38 237 32  C 237 6 243 0 358 0  L 4576 0  C 4691 0 4698 6 4698 32  C 4698 38 4672 96 4666 108  L 2598 4435  z M 2310 4056  L 4083 358  L 531 358  L 2310 4056  z "
                 transform="scale(0.015625)" /><path
                 id="CMMI12-45"
                 d="M 4448 1489  C 4454 1508 4474 1553 4474 1578  C 4474 1611 4448 1643 4410 1643  C 4384 1643 4371 1636 4352 1617  C 4339 1611 4339 1598 4282 1469  C 3904 570 3629 185 2605 185  L 1670 185  C 1581 185 1568 185 1530 192  C 1459 198 1453 211 1453 262  C 1453 307 1466 346 1478 403  L 1920 2176  L 2554 2176  C 3053 2176 3091 2066 3091 1874  C 3091 1810 3091 1752 3046 1559  C 3034 1534 3027 1508 3027 1489  C 3027 1444 3059 1424 3098 1424  C 3155 1424 3162 1469 3187 1559  L 3552 3036  C 3552 3068 3526 3099 3488 3099  C 3430 3099 3424 3074 3398 2986  C 3270 2500 3142 2361 2573 2361  L 1965 2361  L 2362 3913  C 2419 4134 2432 4153 2694 4153  L 3610 4153  C 4397 4153 4557 3945 4557 3465  C 4557 3459 4557 3282 4531 3074  C 4525 3049 4518 3011 4518 2998  C 4518 2948 4550 2929 4589 2929  C 4634 2929 4659 2954 4672 3068  L 4806 4172  C 4806 4191 4819 4255 4819 4268  C 4819 4339 4762 4339 4646 4339  L 1523 4339  C 1402 4339 1338 4339 1338 4223  C 1338 4153 1382 4153 1491 4153  C 1888 4153 1888 4109 1888 4039  C 1888 4008 1882 3983 1862 3913  L 998 474  C 941 249 928 185 480 185  C 358 185 294 185 294 70  C 294 0 333 0 461 0  L 3674 0  C 3814 0 3821 6 3866 108  L 4448 1489  z "
                 transform="scale(0.015625)" /></defs><use
               xlink:href="#CMR17-1"
               transform="scale(0.996264)"
               id="use37" /><use
               xlink:href="#CMMI12-45"
               transform="translate(76.91959 0) scale(0.996264)"
               id="use38" /></g></g></g><g
         id="LineCollection_1"
         style="fill:#4a4aff;fill-opacity:1;stroke:#4a4aff;stroke-opacity:1"><path
           d="M 242.804805 215.130066  L 242.804805 215.105531  "
           clip-path="url(#p59aca5523d)"
           style="fill:#4a4aff;stroke:#4a4aff;stroke-width:0.25;fill-opacity:1;stroke-opacity:1"
           id="path38" /><path
           d="M 118.160649 213.987222  L 118.160649 213.970703  "
           clip-path="url(#p59aca5523d)"
           style="fill:#4a4aff;stroke:#4a4aff;stroke-width:0.25;fill-opacity:1;stroke-opacity:1"
           id="path39" /><path
           d="M 55.838571 213.651814  L 55.838571 213.640376  "
           clip-path="url(#p59aca5523d)"
           style="fill:#4a4aff;stroke:#4a4aff;stroke-width:0.25;fill-opacity:1;stroke-opacity:1"
           id="path40" /></g><g
         id="line2d_13"
         style="fill:none;fill-opacity:1;stroke:#1f77b4;stroke-opacity:1"><path
           d="M 49.606364 213.638026  L 50.512727 213.640617  L 51.433735 213.643294  L 52.369627 213.646057  L 53.320642 213.648911  L 54.287024 213.651858  L 55.269022 213.6549  L 56.266889 213.658042  L 57.28088 213.661286  L 58.311256 213.664636  L 59.358283 213.668095  L 60.422228 213.671666  L 61.503366 213.675354  L 62.601974 213.679162  L 63.718334 213.683094  L 64.852734 213.687155  L 66.005465 213.691347  L 67.176823 213.695676  L 68.367109 213.700147  L 69.576629 213.704762  L 70.805693 213.709529  L 72.054619 213.71445  L 73.323726 213.719532  L 74.61334 213.724779  L 75.923794 213.730197  L 77.255423 213.735792  L 78.608571 213.741569  L 79.983584 213.747535  L 81.380816 213.753694  L 82.800626 213.760055  L 84.243379 213.766622  L 85.709445 213.773404  L 87.199202 213.780406  L 88.713032 213.787637  L 90.251324 213.795103  L 91.814474 213.802813  L 93.402883 213.810773  L 95.016959 213.818993  L 96.657117 213.827481  L 98.323778 213.836245  L 100.017372 213.845295  L 101.738332 213.85464  L 103.487102 213.864289  L 105.26413 213.874252  L 107.069873 213.88454  L 108.904796 213.895164  L 110.769369 213.906133  L 112.664072 213.91746  L 114.589392 213.929155  L 116.545823 213.941232  L 118.533869 213.953702  L 120.55404 213.966579  L 122.606854 213.979875  L 124.692841 213.993604  L 126.812535 214.007781  L 128.966482 214.022419  L 131.155234 214.037534  L 133.379355 214.053142  L 135.639416 214.069258  L 137.935997 214.085899  L 140.269689 214.103083  L 142.641091 214.120826  L 145.050813 214.139147  L 147.499474 214.158065  L 149.987704 214.1776  L 152.516141 214.197771  L 155.085435 214.218599  L 157.696247 214.240105  L 160.349247 214.262313  L 163.045117 214.285244  L 165.78455 214.308922  L 168.56825 214.333371  L 171.396932 214.358617  L 174.271324 214.384685  L 177.192162 214.411603  L 180.160199 214.439397  L 183.176197 214.468097  L 186.240931 214.497733  L 189.355188 214.528333  L 192.519769 214.559931  L 195.735486 214.592558  L 199.003167 214.626248  L 202.323651 214.661035  L 205.69779 214.696956  L 209.126453 214.734048  L 212.61052 214.772347  L 216.150887 214.811895  L 219.748462 214.85273  L 223.404172 214.894897  L 227.118954 214.938437  L 230.893764 214.983395  L 234.729572 215.029818  L 238.627362 215.077754  L 242.588138 215.127251  L 246.612916 215.178361  L 250.702732 215.231136  L 254.858635 215.285631  L 259.081693 215.341901  L 263.372993 215.400004  L 267.733636 215.46  "
           clip-path="url(#p59aca5523d)"
           style="fill:none;stroke-dasharray:0.925, 0.4;stroke-dashoffset:0;stroke:#1f77b4;stroke-width:0.25;fill-opacity:1;stroke-opacity:1"
           id="path41" /></g><g
         id="LineCollection_2"><path
           d="M 242.804805 170.232071  L 242.804805 170.058266  "
           clip-path="url(#p59aca5523d)"
           style="fill: none; stroke: #2ca02c; stroke-width: 0.25"
           id="path42" /><path
           d="M 118.160649 167.229919  L 118.160649 167.118522  "
           clip-path="url(#p59aca5523d)"
           style="fill: none; stroke: #2ca02c; stroke-width: 0.25"
           id="path43" /><path
           d="M 55.838571 166.261466  L 55.838571 166.186209  "
           clip-path="url(#p59aca5523d)"
           style="fill: none; stroke: #2ca02c; stroke-width: 0.25"
           id="path44" /></g><g
         id="line2d_14"
         style="stroke:#2ca02c;stroke-opacity:1"><path
           d="M 49.606364 166.217634  L 50.512727 166.224559  L 51.433735 166.231709  L 52.369627 166.239091  L 53.320642 166.246715  L 54.287024 166.254587  L 55.269022 166.262715  L 56.266889 166.271108  L 57.28088 166.279774  L 58.311256 166.288723  L 59.358283 166.297964  L 60.422228 166.307505  L 61.503366 166.317357  L 62.601974 166.327531  L 63.718334 166.338035  L 64.852734 166.348882  L 66.005465 166.360082  L 67.176823 166.371648  L 68.367109 166.38359  L 69.576629 166.395921  L 70.805693 166.408654  L 72.054619 166.421801  L 73.323726 166.435377  L 74.61334 166.449395  L 75.923794 166.46387  L 77.255423 166.478817  L 78.608571 166.49425  L 79.983584 166.510187  L 81.380816 166.526642  L 82.800626 166.543634  L 84.243379 166.561179  L 85.709445 166.579296  L 87.199202 166.598003  L 88.713032 166.61732  L 90.251324 166.637265  L 91.814474 166.657861  L 93.402883 166.679128  L 95.016959 166.701087  L 96.657117 166.723762  L 98.323778 166.747176  L 100.017372 166.771352  L 101.738332 166.796316  L 103.487102 166.822094  L 105.26413 166.848711  L 107.069873 166.876195  L 108.904796 166.904575  L 110.769369 166.93388  L 112.664072 166.964139  L 114.589392 166.995384  L 116.545823 167.027647  L 118.533869 167.060961  L 120.55404 167.09536  L 122.606854 167.13088  L 124.692841 167.167558  L 126.812535 167.20543  L 128.966482 167.244536  L 131.155234 167.284916  L 133.379355 167.326612  L 135.639416 167.369666  L 137.935997 167.414123  L 140.269689 167.460028  L 142.641091 167.507429  L 145.050813 167.556374  L 147.499474 167.606913  L 149.987704 167.659099  L 152.516141 167.712986  L 155.085435 167.768628  L 157.696247 167.826082  L 160.349247 167.885409  L 163.045117 167.946668  L 165.78455 168.009923  L 168.56825 168.075239  L 171.396932 168.142683  L 174.271324 168.212324  L 177.192162 168.284234  L 180.160199 168.358487  L 183.176197 168.435159  L 186.240931 168.514329  L 189.355188 168.596078  L 192.519769 168.680491  L 195.735486 168.767653  L 199.003167 168.857656  L 202.323651 168.95059  L 205.69779 169.046553  L 209.126453 169.145641  L 212.61052 169.247958  L 216.150887 169.353609  L 219.748462 169.462701  L 223.404172 169.575347  L 227.118954 169.691664  L 230.893764 169.81177  L 234.729572 169.935789  L 238.627362 170.063848  L 242.588138 170.19608  L 246.612916 170.332619  L 250.702732 170.473607  L 254.858635 170.619188  L 259.081693 170.769513  L 263.372993 170.924734  L 267.733636 171.085013  "
           clip-path="url(#p59aca5523d)"
           style="fill:none;stroke-dasharray:0.925, 0.4;stroke-dashoffset:0;stroke:#2ca02c;stroke-width:0.25;stroke-opacity:1"
           id="path45" /></g><g
         id="LineCollection_3"><path
           d="M 242.804805 123.960033  L 242.804805 121.457388  "
           clip-path="url(#p59aca5523d)"
           style="fill: none; stroke: #9467bd; stroke-width: 0.25"
           id="path46" /><path
           d="M 118.160649 116.369195  L 118.160649 114.604644  "
           clip-path="url(#p59aca5523d)"
           style="fill: none; stroke: #9467bd; stroke-width: 0.25"
           id="path47" /><path
           d="M 55.838571 114.206101  L 55.838571 113.170366  "
           clip-path="url(#p59aca5523d)"
           style="fill: none; stroke: #9467bd; stroke-width: 0.25"
           id="path48" /></g><g
         id="line2d_15"
         style="stroke:#9467bd;stroke-opacity:1"><path
           d="M 49.606364 113.572835  L 50.512727 113.588704  L 51.433735 113.605089  L 52.369627 113.622009  L 53.320642 113.639479  L 54.287024 113.657519  L 55.269022 113.676147  L 56.266889 113.695381  L 57.28088 113.715243  L 58.311256 113.735751  L 59.358283 113.756927  L 60.422228 113.778793  L 61.503366 113.801372  L 62.601974 113.824686  L 63.718334 113.84876  L 64.852734 113.873618  L 66.005465 113.899286  L 67.176823 113.925791  L 68.367109 113.953158  L 69.576629 113.981418  L 70.805693 114.010598  L 72.054619 114.040728  L 73.323726 114.071841  L 74.61334 114.103967  L 75.923794 114.137139  L 77.255423 114.171393  L 78.608571 114.206762  L 79.983584 114.243284  L 81.380816 114.280995  L 82.800626 114.319935  L 84.243379 114.360144  L 85.709445 114.401662  L 87.199202 114.444534  L 88.713032 114.488802  L 90.251324 114.534512  L 91.814474 114.581712  L 93.402883 114.630449  L 95.016959 114.680774  L 96.657117 114.732738  L 98.323778 114.786396  L 100.017372 114.841802  L 101.738332 114.899012  L 103.487102 114.958087  L 105.26413 115.019086  L 107.069873 115.082073  L 108.904796 115.147112  L 110.769369 115.214269  L 112.664072 115.283615  L 114.589392 115.35522  L 116.545823 115.429157  L 118.533869 115.505504  L 120.55404 115.584337  L 122.606854 115.665739  L 124.692841 115.749794  L 126.812535 115.836586  L 128.966482 115.926206  L 131.155234 116.018746  L 133.379355 116.114301  L 135.639416 116.212969  L 137.935997 116.314852  L 140.269689 116.420054  L 142.641091 116.528683  L 145.050813 116.640851  L 147.499474 116.756674  L 149.987704 116.87627  L 152.516141 116.999762  L 155.085435 117.127278  L 157.696247 117.258948  L 160.349247 117.394908  L 163.045117 117.535297  L 165.78455 117.680261  L 168.56825 117.829946  L 171.396932 117.984509  L 174.271324 118.144107  L 177.192162 118.308905  L 180.160199 118.479072  L 183.176197 118.654783  L 186.240931 118.836218  L 189.355188 119.023564  L 192.519769 119.217014  L 195.735486 119.416766  L 199.003167 119.623026  L 202.323651 119.836006  L 205.69779 120.055925  L 209.126453 120.283009  L 212.61052 120.517491  L 216.150887 120.759612  L 219.748462 121.009621  L 223.404172 121.267775  L 227.118954 121.53434  L 230.893764 121.809589  L 234.729572 122.093806  L 238.627362 122.387283  L 242.588138 122.69032  L 246.612916 123.003231  L 250.702732 123.326336  L 254.858635 123.659967  L 259.081693 124.004468  L 263.372993 124.360193  L 267.733636 124.727506  "
           clip-path="url(#p59aca5523d)"
           style="fill:none;stroke-dasharray:0.925, 0.4;stroke-dashoffset:0;stroke:#9467bd;stroke-width:0.25;stroke-opacity:1"
           id="path49" /></g><g
         id="LineCollection_4"><path
           d="M 242.804805 92.110969  L 242.804805 71.069726  "
           clip-path="url(#p59aca5523d)"
           style="fill: none; stroke: #e377c2; stroke-width: 0.25"
           id="path50" /><path
           d="M 118.160649 68.395605  L 118.160649 47.946816  "
           clip-path="url(#p59aca5523d)"
           style="fill: none; stroke: #e377c2; stroke-width: 0.25"
           id="path51" /><path
           d="M 55.838571 54.94648  L 55.838571 39.06  "
           clip-path="url(#p59aca5523d)"
           style="fill: none; stroke: #e377c2; stroke-width: 0.25"
           id="path52" /></g><g
         id="line2d_16"
         style="stroke:#e377c2;stroke-opacity:1"><path
           d="M 49.606364 48.011952  L 50.512727 48.071382  L 51.433735 48.132748  L 52.369627 48.196113  L 53.320642 48.261542  L 54.287024 48.329103  L 55.269022 48.398865  L 56.266889 48.4709  L 57.28088 48.545282  L 58.311256 48.622087  L 59.358283 48.701395  L 60.422228 48.783286  L 61.503366 48.867845  L 62.601974 48.955159  L 63.718334 49.045318  L 64.852734 49.138414  L 66.005465 49.234543  L 67.176823 49.333804  L 68.367109 49.436298  L 69.576629 49.542132  L 70.805693 49.651414  L 72.054619 49.764256  L 73.323726 49.880775  L 74.61334 50.001089  L 75.923794 50.125324  L 77.255423 50.253606  L 78.608571 50.386067  L 79.983584 50.522844  L 81.380816 50.664076  L 82.800626 50.809911  L 84.243379 50.960496  L 85.709445 51.115987  L 87.199202 51.276544  L 88.713032 51.442332  L 90.251324 51.613521  L 91.814474 51.790288  L 93.402883 51.972813  L 95.016959 52.161285  L 96.657117 52.355897  L 98.323778 52.55685  L 100.017372 52.764349  L 101.738332 52.978609  L 103.487102 53.199849  L 105.26413 53.428297  L 107.069873 53.664187  L 108.904796 53.907763  L 110.769369 54.159274  L 112.664072 54.41898  L 114.589392 54.687146  L 116.545823 54.964049  L 118.533869 55.249974  L 120.55404 55.545213  L 122.606854 55.850072  L 124.692841 56.164862  L 126.812535 56.489909  L 128.966482 56.825544  L 131.155234 57.172115  L 133.379355 57.529977  L 135.639416 57.899498  L 137.935997 58.281057  L 140.269689 58.675048  L 142.641091 59.081874  L 145.050813 59.501955  L 147.499474 59.935721  L 149.987704 60.383619  L 152.516141 60.84611  L 155.085435 61.323668  L 157.696247 61.816785  L 160.349247 62.325967  L 163.045117 62.851738  L 165.78455 63.394638  L 168.56825 63.955226  L 171.396932 64.534077  L 174.271324 65.131787  L 177.192162 65.74897  L 180.160199 66.38626  L 183.176197 67.044312  L 186.240931 67.723804  L 189.355188 68.425433  L 192.519769 69.149921  L 195.735486 69.898012  L 199.003167 70.670475  L 202.323651 71.468105  L 205.69779 72.291721  L 209.126453 73.142169  L 212.61052 74.020325  L 216.150887 74.927091  L 219.748462 75.863398  L 223.404172 76.83021  L 227.118954 77.82852  L 230.893764 78.859354  L 234.729572 79.923772  L 238.627362 81.022868  L 242.588138 82.157772  L 246.612916 83.329651  L 250.702732 84.539708  L 254.858635 85.789189  L 259.081693 87.079376  L 263.372993 88.411597  L 267.733636 89.787221  "
           clip-path="url(#p59aca5523d)"
           style="fill:none;stroke-dasharray:0.925, 0.4;stroke-dashoffset:0;stroke:#e377c2;stroke-width:0.25;stroke-opacity:1"
           id="path53" /></g><g
         id="line2d_17"
         style="fill:none;fill-opacity:1;stroke:#0000ff;stroke-opacity:1;stroke-width:1.00062992;stroke-dasharray:none"><defs
           id="defs53"><path
             id="m20771750ae"
             d="M -0.5 0.5  L 0.5 -0.5  M -0.5 -0.5  L 0.5 0.5  "
             style="stroke: #1f77b4" /></defs><g
           clip-path="url(#p59aca5523d)"
           id="g55"
           style="fill:none;fill-opacity:1;stroke:#0000ff;stroke-opacity:1;stroke-width:1.00062992;stroke-dasharray:none"><use
             xlink:href="#m20771750ae"
             x="242.80481"
             y="215.1178"
             style="fill:none;fill-opacity:1;stroke:#0000ff;stroke-width:1.00063;stroke-dasharray:none;stroke-opacity:1"
             id="use53" /><use
             xlink:href="#m20771750ae"
             x="118.16065"
             y="213.97896"
             style="fill:none;fill-opacity:1;stroke:#0000ff;stroke-width:1.00063;stroke-dasharray:none;stroke-opacity:1"
             id="use54" /><use
             xlink:href="#m20771750ae"
             x="55.83857"
             y="213.64609"
             style="fill:none;fill-opacity:1;stroke:#0000ff;stroke-width:1.00063;stroke-dasharray:none;stroke-opacity:1"
             id="use55" /></g></g><g
         id="line2d_18"><defs
           id="defs55"><path
             id="m9125f13223"
             d="M -0.5 0.5  L 0.5 -0.5  M -0.5 -0.5  L 0.5 0.5  "
             style="stroke: #2ca02c" /></defs><g
           clip-path="url(#p59aca5523d)"
           id="g58"><use
             xlink:href="#m9125f13223"
             x="242.804805"
             y="170.145168"
             style="fill: #2ca02c; stroke: #2ca02c"
             id="use56" /><use
             xlink:href="#m9125f13223"
             x="118.160649"
             y="167.17422"
             style="fill: #2ca02c; stroke: #2ca02c"
             id="use57" /><use
             xlink:href="#m9125f13223"
             x="55.838571"
             y="166.223837"
             style="fill: #2ca02c; stroke: #2ca02c"
             id="use58" /></g></g><g
         id="line2d_19"><defs
           id="defs58"><path
             id="me659ff795a"
             d="M -0.5 0.5  L 0.5 -0.5  M -0.5 -0.5  L 0.5 0.5  "
             style="stroke: #9467bd" /></defs><g
           clip-path="url(#p59aca5523d)"
           id="g61"><use
             xlink:href="#me659ff795a"
             x="242.804805"
             y="122.708711"
             style="fill: #9467bd; stroke: #9467bd"
             id="use59" /><use
             xlink:href="#me659ff795a"
             x="118.160649"
             y="115.486919"
             style="fill: #9467bd; stroke: #9467bd"
             id="use60" /><use
             xlink:href="#me659ff795a"
             x="55.838571"
             y="113.688234"
             style="fill: #9467bd; stroke: #9467bd"
             id="use61" /></g></g><g
         id="line2d_20"><defs
           id="defs61"><path
             id="m02be4358a1"
             d="M -0.5 0.5  L 0.5 -0.5  M -0.5 -0.5  L 0.5 0.5  "
             style="stroke: #e377c2" /></defs><g
           clip-path="url(#p59aca5523d)"
           id="g64"><use
             xlink:href="#m02be4358a1"
             x="242.804805"
             y="81.590348"
             style="fill: #e377c2; stroke: #e377c2"
             id="use62" /><use
             xlink:href="#m02be4358a1"
             x="118.160649"
             y="58.171211"
             style="fill: #e377c2; stroke: #e377c2"
             id="use63" /><use
             xlink:href="#m02be4358a1"
             x="55.838571"
             y="47.00324"
             style="fill: #e377c2; stroke: #e377c2"
             id="use64" /></g></g><g
         id="patch_3"><path
           d="M 38.7 224.28  L 38.7 30.24  "
           style="fill: none; stroke: #000000; stroke-width: 0.8; stroke-linejoin: miter; stroke-linecap: square"
           id="path64" /></g><g
         id="patch_4"><path
           d="M 278.64 224.28  L 278.64 30.24  "
           style="fill: none; stroke: #000000; stroke-width: 0.8; stroke-linejoin: miter; stroke-linecap: square"
           id="path65" /></g><g
         id="patch_5"><path
           d="M 38.7 224.28  L 278.64 224.28  "
           style="fill: none; stroke: #000000; stroke-width: 0.8; stroke-linejoin: miter; stroke-linecap: square"
           id="path66" /></g><g
         id="patch_6"><path
           d="M 38.7 30.24  L 278.64 30.24  "
           style="fill: none; stroke: #000000; stroke-width: 0.8; stroke-linejoin: miter; stroke-linecap: square"
           id="path67" /></g><g
         id="legend_1"><g
           id="patch_7"><path
             d="M 230.012173 77.988713  L 271.64 77.988713  Q 273.64 77.988713 273.64 75.988713  L 273.64 37.24  Q 273.64 35.24 271.64 35.24  L 230.012173 35.24  Q 228.012173 35.24 228.012173 37.24  L 228.012173 75.988713  Q 228.012173 77.988713 230.012173 77.988713  z "
             style="fill: #ffffff; opacity: 0.8; stroke: #cccccc; stroke-linejoin: miter"
             id="path68" /></g><g
           id="LineCollection_5"><path
             d="M 240.012173 45.74  L 240.012173 35.74  "
             style="fill: none; stroke: #1f77b4; stroke-width: 0.25"
             id="path69" /></g><g
           id="line2d_21" /><g
           id="line2d_22"><g
             id="g69"><use
               xlink:href="#m20771750ae"
               x="240.012173"
               y="40.74"
               style="fill: #1f77b4; stroke: #1f77b4"
               id="use69" /></g></g><g
           id="text_15"><!-- $\Delta E_1$ --><g
             transform="translate(252.012173 44.24) scale(0.1 -0.1)"
             id="g72"><use
               xlink:href="#CMR17-1"
               transform="scale(0.996264)"
               id="use70" /><use
               xlink:href="#CMMI12-45"
               transform="translate(76.91959 0) scale(0.996264)"
               id="use71" /><use
               xlink:href="#CMR17-31"
               transform="translate(149.130808 -14.943915) scale(0.697382)"
               id="use72" /></g></g><g
           id="LineCollection_6"><path
             d="M 240.012173 55.677178  L 240.012173 45.677178  "
             style="fill: none; stroke: #2ca02c; stroke-width: 0.25"
             id="path72" /></g><g
           id="line2d_23" /><g
           id="line2d_24"><g
             id="g73"><use
               xlink:href="#m9125f13223"
               x="240.012173"
               y="50.677178"
               style="fill: #2ca02c; stroke: #2ca02c"
               id="use73" /></g></g><g
           id="text_16"><!-- $\Delta E_2$ --><g
             transform="translate(252.012173 54.177178) scale(0.1 -0.1)"
             id="g76"><use
               xlink:href="#CMR17-1"
               transform="scale(0.996264)"
               id="use74" /><use
               xlink:href="#CMMI12-45"
               transform="translate(76.91959 0) scale(0.996264)"
               id="use75" /><use
               xlink:href="#CMR17-32"
               transform="translate(149.130808 -14.943915) scale(0.697382)"
               id="use76" /></g></g><g
           id="LineCollection_7"><path
             d="M 240.012173 65.614357  L 240.012173 55.614357  "
             style="fill: none; stroke: #9467bd; stroke-width: 0.25"
             id="path76" /></g><g
           id="line2d_25" /><g
           id="line2d_26"><g
             id="g77"><use
               xlink:href="#me659ff795a"
               x="240.012173"
               y="60.614357"
               style="fill: #9467bd; stroke: #9467bd"
               id="use77" /></g></g><g
           id="text_17"><!-- $\Delta E_3$ --><g
             transform="translate(252.012173 64.114357) scale(0.1 -0.1)"
             id="g80"><use
               xlink:href="#CMR17-1"
               transform="scale(0.996264)"
               id="use78" /><use
               xlink:href="#CMMI12-45"
               transform="translate(76.91959 0) scale(0.996264)"
               id="use79" /><use
               xlink:href="#CMR17-33"
               transform="translate(149.130808 -14.943915) scale(0.697382)"
               id="use80" /></g></g><g
           id="LineCollection_8"><path
             d="M 240.012173 75.551535  L 240.012173 65.551535  "
             style="fill: none; stroke: #e377c2; stroke-width: 0.25"
             id="path80" /></g><g
           id="line2d_27" /><g
           id="line2d_28"><g
             id="g81"><use
               xlink:href="#m02be4358a1"
               x="240.012173"
               y="70.551535"
               style="fill: #e377c2; stroke: #e377c2"
               id="use81" /></g></g><g
           id="text_18"><!-- $\Delta E_4$ --><g
             transform="translate(252.012173 74.051535) scale(0.1 -0.1)"
             id="g84"><use
               xlink:href="#CMR17-1"
               transform="scale(0.996264)"
               id="use82" /><use
               xlink:href="#CMMI12-45"
               transform="translate(76.91959 0) scale(0.996264)"
               id="use83" /><use
               xlink:href="#CMR17-34"
               transform="translate(149.130808 -14.943915) scale(0.697382)"
               id="use84" /></g></g></g></g></g><defs
     id="defs84"><clipPath
       id="p59aca5523d"><rect
         x="38.7"
         y="30.24"
         width="239.94"
         height="194.04"
         id="rect84" /></clipPath></defs></svg>
