<?xml version="1.0" encoding="utf-8" standalone="no"?>
<!DOCTYPE svg PUBLIC "-//W3C//DTD SVG 1.1//EN"
  "http://www.w3.org/Graphics/SVG/1.1/DTD/svg11.dtd">
<svg xmlns:xlink="http://www.w3.org/1999/xlink" width="309.6pt" height="252pt" viewBox="0 0 309.6 252" xmlns="http://www.w3.org/2000/svg" version="1.1">
 <metadata>
  <rdf:RDF xmlns:dc="http://purl.org/dc/elements/1.1/" xmlns:cc="http://creativecommons.org/ns#" xmlns:rdf="http://www.w3.org/1999/02/22-rdf-syntax-ns#">
   <cc:Work>
    <dc:type rdf:resource="http://purl.org/dc/dcmitype/StillImage"/>
    <dc:date>2025-08-28T05:10:33.226189</dc:date>
    <dc:format>image/svg+xml</dc:format>
    <dc:creator>
     <cc:Agent>
      <dc:title>Matplotlib v3.10.5, https://matplotlib.org/</dc:title>
     </cc:Agent>
    </dc:creator>
   </cc:Work>
  </rdf:RDF>
 </metadata>
 <defs>
  <style type="text/css">*{stroke-linejoin: round; stroke-linecap: butt}</style>
 </defs>
 <g id="figure_1">
  <g id="patch_1">
   <path d="M 0 252 
L 309.6 252 
L 309.6 0 
L 0 0 
z
" style="fill: #ffffff"/>
  </g>
  <g id="axes_1">
   <g id="patch_2">
    <path d="M 49.045121 214.259776 
L 298.8 214.259776 
L 298.8 10.8 
L 49.045121 10.8 
z
" style="fill: #ffffff"/>
   </g>
   <g id="matplotlib.axis_1">
    <g id="xtick_1">
     <g id="line2d_1">
      <defs>
       <path id="ma3a849f15c" d="M 0 0 
L 0 3.5 
" style="stroke: #000000; stroke-width: 0.8"/>
      </defs>
      <g>
       <use xlink:href="#ma3a849f15c" x="179.019066" y="214.259776" style="stroke: #000000; stroke-width: 0.8"/>
      </g>
     </g>
     <g id="text_1">
      <!-- $\mathdefault{10^{2}}$ -->
      <g transform="translate(172.052112 228.178274) scale(0.1 -0.1)">
       <defs>
        <path id="CMR17-31" d="M 1702 4058 
C 1702 4192 1696 4192 1606 4192 
C 1357 3916 979 3827 621 3827 
C 602 3827 570 3827 563 3808 
C 557 3795 557 3782 557 3648 
C 755 3648 1088 3686 1344 3839 
L 1344 461 
C 1344 236 1331 160 781 160 
L 589 160 
L 589 0 
C 896 0 1216 0 1523 0 
C 1830 0 2150 0 2458 0 
L 2458 160 
L 2266 160 
C 1715 160 1702 230 1702 458 
L 1702 4058 
z
" transform="scale(0.015625)"/>
        <path id="CMR17-30" d="M 2688 2025 
C 2688 2416 2682 3080 2413 3591 
C 2176 4039 1798 4198 1466 4198 
C 1158 4198 768 4058 525 3597 
C 269 3118 243 2524 243 2025 
C 243 1661 250 1106 448 619 
C 723 -39 1216 -128 1466 -128 
C 1760 -128 2208 -7 2470 600 
C 2662 1042 2688 1559 2688 2025 
z
M 1466 -26 
C 1056 -26 813 325 723 812 
C 653 1188 653 1738 653 2096 
C 653 2588 653 2997 736 3387 
C 858 3929 1216 4096 1466 4096 
C 1728 4096 2067 3923 2189 3400 
C 2272 3036 2278 2607 2278 2096 
C 2278 1680 2278 1169 2202 792 
C 2067 95 1690 -26 1466 -26 
z
" transform="scale(0.015625)"/>
        <path id="CMR17-32" d="M 2669 989 
L 2554 989 
C 2490 536 2438 459 2413 420 
C 2381 369 1920 369 1830 369 
L 602 369 
C 832 619 1280 1072 1824 1597 
C 2214 1967 2669 2402 2669 3035 
C 2669 3790 2067 4224 1395 4224 
C 691 4224 262 3604 262 3030 
C 262 2780 448 2748 525 2748 
C 589 2748 781 2787 781 3010 
C 781 3207 614 3264 525 3264 
C 486 3264 448 3258 422 3245 
C 544 3790 915 4058 1306 4058 
C 1862 4058 2227 3617 2227 3035 
C 2227 2479 1901 2000 1536 1584 
L 262 146 
L 262 0 
L 2515 0 
L 2669 989 
z
" transform="scale(0.015625)"/>
       </defs>
       <use xlink:href="#CMR17-31" transform="scale(0.996264)"/>
       <use xlink:href="#CMR17-30" transform="translate(45.690477 0) scale(0.996264)"/>
       <use xlink:href="#CMR17-32" transform="translate(91.380954 36.153639) scale(0.697382)"/>
      </g>
     </g>
    </g>
    <g id="xtick_2">
     <g id="line2d_2">
      <defs>
       <path id="mb7de2a2191" d="M 0 0 
L 0 2 
" style="stroke: #000000; stroke-width: 0.6"/>
      </defs>
      <g>
       <use xlink:href="#mb7de2a2191" x="65.244783" y="214.259776" style="stroke: #000000; stroke-width: 0.6"/>
      </g>
     </g>
    </g>
    <g id="xtick_3">
     <g id="line2d_3">
      <g>
       <use xlink:href="#mb7de2a2191" x="92.430465" y="214.259776" style="stroke: #000000; stroke-width: 0.6"/>
      </g>
     </g>
    </g>
    <g id="xtick_4">
     <g id="line2d_4">
      <g>
       <use xlink:href="#mb7de2a2191" x="113.517318" y="214.259776" style="stroke: #000000; stroke-width: 0.6"/>
      </g>
     </g>
    </g>
    <g id="xtick_5">
     <g id="line2d_5">
      <g>
       <use xlink:href="#mb7de2a2191" x="130.746531" y="214.259776" style="stroke: #000000; stroke-width: 0.6"/>
      </g>
     </g>
    </g>
    <g id="xtick_6">
     <g id="line2d_6">
      <g>
       <use xlink:href="#mb7de2a2191" x="145.313624" y="214.259776" style="stroke: #000000; stroke-width: 0.6"/>
      </g>
     </g>
    </g>
    <g id="xtick_7">
     <g id="line2d_7">
      <g>
       <use xlink:href="#mb7de2a2191" x="157.932213" y="214.259776" style="stroke: #000000; stroke-width: 0.6"/>
      </g>
     </g>
    </g>
    <g id="xtick_8">
     <g id="line2d_8">
      <g>
       <use xlink:href="#mb7de2a2191" x="169.062598" y="214.259776" style="stroke: #000000; stroke-width: 0.6"/>
      </g>
     </g>
    </g>
    <g id="xtick_9">
     <g id="line2d_9">
      <g>
       <use xlink:href="#mb7de2a2191" x="244.520815" y="214.259776" style="stroke: #000000; stroke-width: 0.6"/>
      </g>
     </g>
    </g>
    <g id="xtick_10">
     <g id="line2d_10">
      <g>
       <use xlink:href="#mb7de2a2191" x="282.836881" y="214.259776" style="stroke: #000000; stroke-width: 0.6"/>
      </g>
     </g>
    </g>
    <g id="text_2">
     <!-- $L$ -->
     <g transform="translate(171.043039 239.650254) scale(0.08 -0.08)">
      <defs>
       <path id="CMMI12-4c" d="M 2349 3861 
C 2406 4103 2426 4167 2989 4167 
C 3162 4167 3206 4167 3206 4288 
C 3206 4352 3136 4352 3110 4352 
C 2982 4352 2835 4352 2707 4352 
L 1850 4352 
C 1728 4352 1587 4352 1466 4352 
C 1414 4352 1344 4352 1344 4231 
C 1344 4167 1402 4167 1498 4167 
C 1888 4167 1888 4116 1888 4046 
C 1888 4034 1888 3995 1862 3899 
L 998 472 
C 941 249 928 185 480 185 
C 358 185 294 185 294 70 
C 294 0 333 0 461 0 
L 3328 0 
C 3469 0 3475 6 3520 121 
L 4013 1478 
C 4026 1510 4038 1548 4038 1567 
C 4038 1605 4006 1631 3974 1631 
C 3968 1631 3936 1631 3923 1605 
C 3910 1599 3910 1586 3859 1465 
C 3654 905 3366 185 2285 185 
L 1670 185 
C 1581 185 1568 185 1530 192 
C 1459 198 1453 211 1453 262 
C 1453 307 1466 345 1478 401 
L 2349 3861 
z
" transform="scale(0.015625)"/>
      </defs>
      <use xlink:href="#CMMI12-4c" transform="scale(0.996264)"/>
     </g>
    </g>
   </g>
   <g id="matplotlib.axis_2">
    <g id="ytick_1">
     <g id="line2d_11">
      <defs>
       <path id="mb416bf1620" d="M 0 0 
L -3.5 0 
" style="stroke: #000000; stroke-width: 0.8"/>
      </defs>
      <g>
       <use xlink:href="#mb416bf1620" x="49.045121" y="191.338838" style="stroke: #000000; stroke-width: 0.8"/>
      </g>
     </g>
     <g id="text_3">
      <!-- $\mathdefault{10^{-3}}$ -->
      <g transform="translate(21.884547 194.798087) scale(0.1 -0.1)">
       <defs>
        <path id="CMSY10-0" d="M 4218 1472 
C 4326 1472 4442 1472 4442 1600 
C 4442 1728 4326 1728 4218 1728 
L 755 1728 
C 646 1728 531 1728 531 1600 
C 531 1472 646 1472 755 1472 
L 4218 1472 
z
" transform="scale(0.015625)"/>
        <path id="CMR17-33" d="M 1414 2157 
C 1984 2157 2234 1662 2234 1090 
C 2234 320 1824 25 1453 25 
C 1114 25 563 194 390 693 
C 422 680 454 680 486 680 
C 640 680 755 782 755 948 
C 755 1133 614 1216 486 1216 
C 378 1216 211 1165 211 926 
C 211 335 787 -128 1466 -128 
C 2176 -128 2720 430 2720 1085 
C 2720 1707 2208 2157 1600 2227 
C 2086 2328 2554 2756 2554 3329 
C 2554 3820 2048 4179 1472 4179 
C 890 4179 378 3829 378 3329 
C 378 3110 544 3072 627 3072 
C 762 3072 877 3155 877 3321 
C 877 3486 762 3569 627 3569 
C 602 3569 570 3569 544 3557 
C 730 3959 1235 4032 1459 4032 
C 1683 4032 2106 3925 2106 3320 
C 2106 3143 2080 2828 1862 2550 
C 1670 2304 1453 2304 1242 2284 
C 1210 2284 1062 2269 1037 2269 
C 992 2263 966 2257 966 2208 
C 966 2163 973 2157 1101 2157 
L 1414 2157 
z
" transform="scale(0.015625)"/>
       </defs>
       <use xlink:href="#CMR17-31" transform="scale(0.996264)"/>
       <use xlink:href="#CMR17-30" transform="translate(45.690477 0) scale(0.996264)"/>
       <use xlink:href="#CMSY10-0" transform="translate(91.380954 36.153639) scale(0.697382)"/>
       <use xlink:href="#CMR17-33" transform="translate(145.621947 36.153639) scale(0.697382)"/>
      </g>
     </g>
    </g>
    <g id="ytick_2">
     <g id="line2d_12">
      <g>
       <use xlink:href="#mb416bf1620" x="49.045121" y="46.868009" style="stroke: #000000; stroke-width: 0.8"/>
      </g>
     </g>
     <g id="text_4">
      <!-- $\mathdefault{10^{-2}}$ -->
      <g transform="translate(21.884547 50.327258) scale(0.1 -0.1)">
       <use xlink:href="#CMR17-31" transform="scale(0.996264)"/>
       <use xlink:href="#CMR17-30" transform="translate(45.690477 0) scale(0.996264)"/>
       <use xlink:href="#CMSY10-0" transform="translate(91.380954 36.153639) scale(0.697382)"/>
       <use xlink:href="#CMR17-32" transform="translate(145.621947 36.153639) scale(0.697382)"/>
      </g>
     </g>
    </g>
    <g id="ytick_3">
     <g id="line2d_13">
      <defs>
       <path id="mf7375e57fa" d="M 0 0 
L -2 0 
" style="stroke: #000000; stroke-width: 0.6"/>
      </defs>
      <g>
       <use xlink:href="#mf7375e57fa" x="49.045121" y="213.717653" style="stroke: #000000; stroke-width: 0.6"/>
      </g>
     </g>
    </g>
    <g id="ytick_4">
     <g id="line2d_14">
      <g>
       <use xlink:href="#mf7375e57fa" x="49.045121" y="205.339508" style="stroke: #000000; stroke-width: 0.6"/>
      </g>
     </g>
    </g>
    <g id="ytick_5">
     <g id="line2d_15">
      <g>
       <use xlink:href="#mf7375e57fa" x="49.045121" y="197.949461" style="stroke: #000000; stroke-width: 0.6"/>
      </g>
     </g>
    </g>
    <g id="ytick_6">
     <g id="line2d_16">
      <g>
       <use xlink:href="#mf7375e57fa" x="49.045121" y="147.848785" style="stroke: #000000; stroke-width: 0.6"/>
      </g>
     </g>
    </g>
    <g id="ytick_7">
     <g id="line2d_17">
      <g>
       <use xlink:href="#mf7375e57fa" x="49.045121" y="122.408735" style="stroke: #000000; stroke-width: 0.6"/>
      </g>
     </g>
    </g>
    <g id="ytick_8">
     <g id="line2d_18">
      <g>
       <use xlink:href="#mf7375e57fa" x="49.045121" y="104.358732" style="stroke: #000000; stroke-width: 0.6"/>
      </g>
     </g>
    </g>
    <g id="ytick_9">
     <g id="line2d_19">
      <g>
       <use xlink:href="#mf7375e57fa" x="49.045121" y="90.358062" style="stroke: #000000; stroke-width: 0.6"/>
      </g>
     </g>
    </g>
    <g id="ytick_10">
     <g id="line2d_20">
      <g>
       <use xlink:href="#mf7375e57fa" x="49.045121" y="78.918681" style="stroke: #000000; stroke-width: 0.6"/>
      </g>
     </g>
    </g>
    <g id="ytick_11">
     <g id="line2d_21">
      <g>
       <use xlink:href="#mf7375e57fa" x="49.045121" y="69.246823" style="stroke: #000000; stroke-width: 0.6"/>
      </g>
     </g>
    </g>
    <g id="ytick_12">
     <g id="line2d_22">
      <g>
       <use xlink:href="#mf7375e57fa" x="49.045121" y="60.868679" style="stroke: #000000; stroke-width: 0.6"/>
      </g>
     </g>
    </g>
    <g id="ytick_13">
     <g id="line2d_23">
      <g>
       <use xlink:href="#mf7375e57fa" x="49.045121" y="53.478631" style="stroke: #000000; stroke-width: 0.6"/>
      </g>
     </g>
    </g>
    <g id="text_5">
     <!-- $\beta_{cr}-\beta_{max}$ -->
     <g transform="translate(16.334802 133.578823) rotate(-90) scale(0.08 -0.08)">
      <defs>
       <path id="CMMI12-c" d="M 3622 3701 
C 3622 4081 3296 4480 2714 4480 
C 1888 4480 1363 3477 1197 2816 
L 186 -1172 
C 173 -1223 211 -1236 243 -1236 
C 288 -1236 320 -1230 326 -1198 
L 774 586 
C 838 229 1190 -64 1568 -64 
C 2483 -64 3347 650 3347 1599 
C 3347 1841 3290 2083 3155 2287 
C 3078 2408 2982 2497 2880 2574 
C 3341 2815 3622 3200 3622 3701 
z
M 2509 2580 
C 2406 2542 2304 2529 2182 2529 
C 2093 2529 2010 2523 1894 2561 
C 1958 2606 2054 2618 2189 2618 
C 2304 2618 2419 2606 2509 2580 
z
M 3290 3758 
C 3290 3410 3117 2903 2701 2669 
C 2579 2718 2413 2752 2272 2752 
C 2138 2752 1754 2752 1754 2555 
C 1754 2389 2106 2389 2214 2389 
C 2381 2389 2528 2432 2682 2484 
C 2886 2318 2976 2101 2976 1783 
C 2976 1413 2874 1115 2752 841 
C 2541 369 2042 64 1600 64 
C 1133 64 890 432 890 864 
C 890 922 890 1005 915 1099 
L 1331 2771 
C 1542 3603 2080 4353 2701 4353 
C 3162 4353 3290 4036 3290 3758 
z
" transform="scale(0.015625)"/>
       <path id="CMMI12-63" d="M 2502 2431 
C 2381 2431 2323 2431 2234 2355 
C 2195 2323 2125 2227 2125 2125 
C 2125 1997 2221 1920 2342 1920 
C 2496 1920 2669 2044 2669 2292 
C 2669 2588 2374 2816 1933 2816 
C 1094 2816 256 1903 256 996 
C 256 441 602 -64 1254 -64 
C 2125 -64 2675 622 2675 706 
C 2675 744 2637 776 2611 776 
C 2592 776 2586 770 2528 713 
C 2118 162 1510 64 1267 64 
C 826 64 685 446 685 764 
C 685 988 794 1605 1024 2039 
C 1190 2338 1536 2682 1939 2682 
C 2022 2682 2374 2682 2502 2431 
z
" transform="scale(0.015625)"/>
       <path id="CMMI12-72" d="M 2490 2612 
C 2291 2574 2189 2433 2189 2293 
C 2189 2139 2310 2088 2400 2088 
C 2579 2088 2726 2242 2726 2433 
C 2726 2638 2528 2816 2208 2816 
C 1952 2816 1658 2701 1389 2312 
C 1344 2650 1088 2816 832 2816 
C 582 2816 454 2625 378 2484 
C 269 2254 173 1871 173 1839 
C 173 1814 198 1782 243 1782 
C 294 1782 301 1788 339 1935 
C 435 2318 557 2689 813 2689 
C 966 2689 1011 2580 1011 2395 
C 1011 2254 947 2005 902 1807 
L 723 1118 
C 698 996 627 709 595 594 
C 550 428 480 128 480 96 
C 480 6 550 -64 646 -64 
C 717 -64 838 -19 877 109 
C 896 160 1133 1124 1171 1271 
C 1203 1411 1242 1546 1274 1686 
C 1299 1775 1325 1878 1344 1961 
C 1363 2018 1536 2331 1696 2472 
C 1773 2542 1939 2689 2202 2689 
C 2304 2689 2406 2670 2490 2612 
z
" transform="scale(0.015625)"/>
       <path id="CMMI12-6d" d="M 1318 1871 
C 1331 1910 1491 2229 1728 2433 
C 1894 2586 2112 2689 2362 2689 
C 2618 2689 2707 2497 2707 2242 
C 2707 2203 2707 2076 2630 1775 
L 2470 1118 
C 2419 926 2298 453 2285 383 
C 2259 287 2221 121 2221 96 
C 2221 6 2291 -64 2387 -64 
C 2579 -64 2611 83 2669 313 
L 3053 1839 
C 3066 1890 3398 2689 4102 2689 
C 4358 2689 4448 2497 4448 2242 
C 4448 1884 4198 1188 4058 805 
C 4000 651 3968 568 3968 453 
C 3968 166 4166 -64 4474 -64 
C 5069 -64 5293 875 5293 913 
C 5293 945 5267 971 5229 971 
C 5171 971 5165 952 5133 843 
C 4986 332 4749 64 4493 64 
C 4429 64 4326 64 4326 269 
C 4326 436 4403 640 4429 710 
C 4544 1018 4832 1773 4832 2145 
C 4832 2528 4608 2816 4122 2816 
C 3693 2816 3347 2574 3091 2197 
C 3072 2542 2861 2816 2381 2816 
C 1811 2816 1510 2415 1395 2255 
C 1376 2618 1114 2816 832 2816 
C 646 2816 499 2727 378 2484 
C 262 2254 173 1865 173 1839 
C 173 1814 198 1782 243 1782 
C 294 1782 301 1788 339 1935 
C 435 2312 557 2689 813 2689 
C 960 2689 1011 2586 1011 2395 
C 1011 2254 947 2005 902 1807 
L 723 1118 
C 698 996 627 709 595 594 
C 550 428 480 128 480 96 
C 480 6 550 -64 646 -64 
C 723 -64 813 -26 864 70 
C 877 102 934 326 966 453 
L 1107 1028 
L 1318 1871 
z
" transform="scale(0.015625)"/>
       <path id="CMMI12-61" d="M 1926 760 
C 1894 651 1894 639 1805 517 
C 1664 338 1382 64 1082 64 
C 819 64 672 300 672 677 
C 672 1028 870 1743 992 2012 
C 1210 2459 1510 2689 1760 2689 
C 2182 2689 2266 2165 2266 2114 
C 2266 2108 2246 2024 2240 2012 
L 1926 760 
z
M 2336 2395 
C 2266 2561 2093 2816 1760 2816 
C 1037 2816 256 1884 256 939 
C 256 307 627 -64 1062 -64 
C 1414 -64 1715 211 1894 422 
C 1958 45 2259 -64 2451 -64 
C 2643 -64 2797 51 2912 281 
C 3014 498 3104 888 3104 913 
C 3104 945 3078 971 3040 971 
C 2982 971 2976 939 2950 843 
C 2854 466 2733 64 2470 64 
C 2285 64 2272 230 2272 358 
C 2272 505 2291 575 2349 824 
C 2394 984 2426 1124 2477 1309 
C 2714 2267 2771 2497 2771 2535 
C 2771 2625 2701 2695 2605 2695 
C 2400 2695 2349 2472 2336 2395 
z
" transform="scale(0.015625)"/>
       <path id="CMMI12-78" d="M 3034 2606 
C 2829 2567 2752 2414 2752 2293 
C 2752 2139 2874 2088 2963 2088 
C 3155 2088 3290 2254 3290 2427 
C 3290 2695 2982 2816 2714 2816 
C 2323 2816 2106 2433 2048 2312 
C 1901 2816 1504 2816 1389 2816 
C 736 2816 390 1980 390 1839 
C 390 1814 416 1782 461 1782 
C 512 1782 525 1820 538 1846 
C 755 2555 1184 2689 1370 2689 
C 1658 2689 1715 2420 1715 2267 
C 1715 2127 1677 1980 1600 1673 
L 1382 798 
C 1286 415 1101 64 762 64 
C 730 64 570 64 435 147 
C 666 192 717 383 717 460 
C 717 588 621 664 499 664 
C 346 664 179 530 179 326 
C 179 57 480 -64 755 -64 
C 1062 -64 1280 179 1414 441 
C 1517 64 1837 -64 2074 -64 
C 2726 -64 3072 773 3072 913 
C 3072 945 3046 971 3008 971 
C 2950 971 2944 939 2925 888 
C 2752 326 2381 64 2093 64 
C 1869 64 1747 230 1747 492 
C 1747 632 1773 734 1875 1156 
L 2099 2024 
C 2195 2408 2413 2689 2707 2689 
C 2720 2689 2899 2689 3034 2606 
z
" transform="scale(0.015625)"/>
      </defs>
      <use xlink:href="#CMMI12-c" transform="scale(0.996264)"/>
      <use xlink:href="#CMMI12-63" transform="translate(55.070737 -14.943915) scale(0.697382)"/>
      <use xlink:href="#CMMI12-72" transform="translate(84.458868 -14.943915) scale(0.697382)"/>
      <use xlink:href="#CMSY10-0" transform="translate(139.765476 0) scale(0.996264)"/>
      <use xlink:href="#CMMI12-c" transform="translate(239.392151 0) scale(0.996264)"/>
      <use xlink:href="#CMMI12-6d" transform="translate(294.462888 -14.943915) scale(0.697382)"/>
      <use xlink:href="#CMMI12-61" transform="translate(354.191679 -14.943915) scale(0.697382)"/>
      <use xlink:href="#CMMI12-78" transform="translate(390.037025 -14.943915) scale(0.697382)"/>
     </g>
    </g>
   </g>
   <g id="LineCollection_1">
    <path d="M 65.244783 24.326001 
L 65.244783 22.724316 
" clip-path="url(#p8ab4a26e50)" style="fill: none; stroke: #0040df; stroke-width: 1.5"/>
    <path d="M 77.072581 31.050469 
L 77.072581 29.693968 
" clip-path="url(#p8ab4a26e50)" style="fill: none; stroke: #0040df; stroke-width: 1.5"/>
    <path d="M 87.583297 39.066448 
L 87.583297 37.623635 
" clip-path="url(#p8ab4a26e50)" style="fill: none; stroke: #0040df; stroke-width: 1.5"/>
    <path d="M 101.437186 48.522497 
L 101.437186 47.183542 
" clip-path="url(#p8ab4a26e50)" style="fill: none; stroke: #0040df; stroke-width: 1.5"/>
    <path d="M 109.659678 53.221362 
L 109.659678 51.745177 
" clip-path="url(#p8ab4a26e50)" style="fill: none; stroke: #0040df; stroke-width: 1.5"/>
    <path d="M 120.790063 60.647867 
L 120.790063 59.508566 
" clip-path="url(#p8ab4a26e50)" style="fill: none; stroke: #0040df; stroke-width: 1.5"/>
    <path d="M 133.845138 70.110307 
L 133.845138 68.75081 
" clip-path="url(#p8ab4a26e50)" style="fill: none; stroke: #0040df; stroke-width: 1.5"/>
    <path d="M 145.313624 76.834519 
L 145.313624 75.863059 
" clip-path="url(#p8ab4a26e50)" style="fill: none; stroke: #0040df; stroke-width: 1.5"/>
    <path d="M 157.932213 86.015952 
L 157.932213 84.7301 
" clip-path="url(#p8ab4a26e50)" style="fill: none; stroke: #0040df; stroke-width: 1.5"/>
    <path d="M 169.062598 94.146485 
L 169.062598 92.663887 
" clip-path="url(#p8ab4a26e50)" style="fill: none; stroke: #0040df; stroke-width: 1.5"/>
    <path d="M 179.019066 98.70991 
L 179.019066 97.725288 
" clip-path="url(#p8ab4a26e50)" style="fill: none; stroke: #0040df; stroke-width: 1.5"/>
    <path d="M 191.401112 107.967156 
L 191.401112 106.944966 
" clip-path="url(#p8ab4a26e50)" style="fill: none; stroke: #0040df; stroke-width: 1.5"/>
    <path d="M 202.347109 115.427363 
L 202.347109 114.233229 
" clip-path="url(#p8ab4a26e50)" style="fill: none; stroke: #0040df; stroke-width: 1.5"/>
    <path d="M 213.477493 121.927532 
L 213.477493 121.245143 
" clip-path="url(#p8ab4a26e50)" style="fill: none; stroke: #0040df; stroke-width: 1.5"/>
    <path d="M 225.76739 130.715085 
L 225.76739 129.963565 
" clip-path="url(#p8ab4a26e50)" style="fill: none; stroke: #0040df; stroke-width: 1.5"/>
    <path d="M 236.641332 137.76665 
L 236.641332 136.911105 
" clip-path="url(#p8ab4a26e50)" style="fill: none; stroke: #0040df; stroke-width: 1.5"/>
    <path d="M 248.227135 146.085563 
L 248.227135 144.825513 
" clip-path="url(#p8ab4a26e50)" style="fill: none; stroke: #0040df; stroke-width: 1.5"/>
    <path d="M 260.161772 152.313137 
L 260.161772 151.264108 
" clip-path="url(#p8ab4a26e50)" style="fill: none; stroke: #0040df; stroke-width: 1.5"/>
    <path d="M 271.469953 163.389561 
L 271.469953 160.603036 
" clip-path="url(#p8ab4a26e50)" style="fill: none; stroke: #0040df; stroke-width: 1.5"/>
    <path d="M 282.836881 178.617431 
L 282.836881 173.117654 
" clip-path="url(#p8ab4a26e50)" style="fill: none; stroke: #0040df; stroke-width: 1.5"/>
   </g>
   <g id="line2d_24">
    <defs>
     <path id="mee52996c64" d="M 2 0 
L -2 -0 
" style="stroke: #0040df"/>
    </defs>
    <g clip-path="url(#p8ab4a26e50)">
     <use xlink:href="#mee52996c64" x="65.244783" y="24.326001" style="fill: #0040df; stroke: #0040df"/>
     <use xlink:href="#mee52996c64" x="77.072581" y="31.050469" style="fill: #0040df; stroke: #0040df"/>
     <use xlink:href="#mee52996c64" x="87.583297" y="39.066448" style="fill: #0040df; stroke: #0040df"/>
     <use xlink:href="#mee52996c64" x="101.437186" y="48.522497" style="fill: #0040df; stroke: #0040df"/>
     <use xlink:href="#mee52996c64" x="109.659678" y="53.221362" style="fill: #0040df; stroke: #0040df"/>
     <use xlink:href="#mee52996c64" x="120.790063" y="60.647867" style="fill: #0040df; stroke: #0040df"/>
     <use xlink:href="#mee52996c64" x="133.845138" y="70.110307" style="fill: #0040df; stroke: #0040df"/>
     <use xlink:href="#mee52996c64" x="145.313624" y="76.834519" style="fill: #0040df; stroke: #0040df"/>
     <use xlink:href="#mee52996c64" x="157.932213" y="86.015952" style="fill: #0040df; stroke: #0040df"/>
     <use xlink:href="#mee52996c64" x="169.062598" y="94.146485" style="fill: #0040df; stroke: #0040df"/>
     <use xlink:href="#mee52996c64" x="179.019066" y="98.70991" style="fill: #0040df; stroke: #0040df"/>
     <use xlink:href="#mee52996c64" x="191.401112" y="107.967156" style="fill: #0040df; stroke: #0040df"/>
     <use xlink:href="#mee52996c64" x="202.347109" y="115.427363" style="fill: #0040df; stroke: #0040df"/>
     <use xlink:href="#mee52996c64" x="213.477493" y="121.927532" style="fill: #0040df; stroke: #0040df"/>
     <use xlink:href="#mee52996c64" x="225.76739" y="130.715085" style="fill: #0040df; stroke: #0040df"/>
     <use xlink:href="#mee52996c64" x="236.641332" y="137.76665" style="fill: #0040df; stroke: #0040df"/>
     <use xlink:href="#mee52996c64" x="248.227135" y="146.085563" style="fill: #0040df; stroke: #0040df"/>
     <use xlink:href="#mee52996c64" x="260.161772" y="152.313137" style="fill: #0040df; stroke: #0040df"/>
     <use xlink:href="#mee52996c64" x="271.469953" y="163.389561" style="fill: #0040df; stroke: #0040df"/>
     <use xlink:href="#mee52996c64" x="282.836881" y="178.617431" style="fill: #0040df; stroke: #0040df"/>
    </g>
   </g>
   <g id="line2d_25">
    <g clip-path="url(#p8ab4a26e50)">
     <use xlink:href="#mee52996c64" x="65.244783" y="22.724316" style="fill: #0040df; stroke: #0040df"/>
     <use xlink:href="#mee52996c64" x="77.072581" y="29.693968" style="fill: #0040df; stroke: #0040df"/>
     <use xlink:href="#mee52996c64" x="87.583297" y="37.623635" style="fill: #0040df; stroke: #0040df"/>
     <use xlink:href="#mee52996c64" x="101.437186" y="47.183542" style="fill: #0040df; stroke: #0040df"/>
     <use xlink:href="#mee52996c64" x="109.659678" y="51.745177" style="fill: #0040df; stroke: #0040df"/>
     <use xlink:href="#mee52996c64" x="120.790063" y="59.508566" style="fill: #0040df; stroke: #0040df"/>
     <use xlink:href="#mee52996c64" x="133.845138" y="68.75081" style="fill: #0040df; stroke: #0040df"/>
     <use xlink:href="#mee52996c64" x="145.313624" y="75.863059" style="fill: #0040df; stroke: #0040df"/>
     <use xlink:href="#mee52996c64" x="157.932213" y="84.7301" style="fill: #0040df; stroke: #0040df"/>
     <use xlink:href="#mee52996c64" x="169.062598" y="92.663887" style="fill: #0040df; stroke: #0040df"/>
     <use xlink:href="#mee52996c64" x="179.019066" y="97.725288" style="fill: #0040df; stroke: #0040df"/>
     <use xlink:href="#mee52996c64" x="191.401112" y="106.944966" style="fill: #0040df; stroke: #0040df"/>
     <use xlink:href="#mee52996c64" x="202.347109" y="114.233229" style="fill: #0040df; stroke: #0040df"/>
     <use xlink:href="#mee52996c64" x="213.477493" y="121.245143" style="fill: #0040df; stroke: #0040df"/>
     <use xlink:href="#mee52996c64" x="225.76739" y="129.963565" style="fill: #0040df; stroke: #0040df"/>
     <use xlink:href="#mee52996c64" x="236.641332" y="136.911105" style="fill: #0040df; stroke: #0040df"/>
     <use xlink:href="#mee52996c64" x="248.227135" y="144.825513" style="fill: #0040df; stroke: #0040df"/>
     <use xlink:href="#mee52996c64" x="260.161772" y="151.264108" style="fill: #0040df; stroke: #0040df"/>
     <use xlink:href="#mee52996c64" x="271.469953" y="160.603036" style="fill: #0040df; stroke: #0040df"/>
     <use xlink:href="#mee52996c64" x="282.836881" y="173.117654" style="fill: #0040df; stroke: #0040df"/>
    </g>
   </g>
   <g id="line2d_26">
    <path d="M 60.397615 20.048172 
L 69.536691 26.128299 
L 77.869338 31.671918 
L 85.526405 36.766082 
L 92.609271 41.478235 
L 99.198079 45.861698 
L 105.357284 49.95935 
L 111.139493 53.806191 
L 116.588208 57.431162 
L 121.73981 60.858466 
L 126.625032 64.108551 
L 131.270073 67.198846 
L 135.697448 70.14433 
L 139.926645 72.95797 
L 143.97465 75.651063 
L 147.856352 78.233517 
L 151.584879 80.714065 
L 155.17186 83.100445 
L 158.627652 85.399546 
L 161.961513 87.617527 
L 165.181755 89.759919 
L 168.295867 91.831704 
L 171.310623 93.837388 
L 174.232166 95.781059 
L 177.066089 97.666437 
L 179.817494 99.496917 
L 182.491051 101.275606 
L 185.091045 103.005353 
L 187.621415 104.688781 
L 190.085794 106.328305 
L 192.487536 107.926158 
L 194.829746 109.484405 
L 197.115304 111.004962 
L 199.346887 112.48961 
L 201.526985 113.940005 
L 203.657919 115.357692 
L 205.74186 116.744115 
L 207.780834 118.100623 
L 209.776741 119.428478 
L 211.731364 120.728867 
L 213.646375 122.002903 
L 215.523348 123.251633 
L 217.363765 124.476042 
L 219.169022 125.67706 
L 220.940438 126.855564 
L 222.679259 128.012383 
L 224.386662 129.148299 
L 226.063762 130.264056 
L 227.711617 131.360356 
L 229.331228 132.437865 
L 230.923548 133.497219 
L 232.489482 134.539017 
L 234.029889 135.563833 
L 235.545588 136.572211 
L 237.03736 137.564671 
L 238.505948 138.541707 
L 239.952062 139.50379 
L 241.376379 140.451373 
L 242.779547 141.384885 
L 244.162184 142.304739 
L 245.524883 143.211328 
L 246.868211 144.105029 
L 248.19271 144.986204 
L 249.498902 145.855199 
L 250.787284 146.712346 
L 252.058337 147.557964 
L 253.312521 148.392359 
L 254.550277 149.215824 
L 255.77203 150.028643 
L 256.978189 150.831087 
L 258.169146 151.623419 
L 259.345281 152.405888 
L 260.506957 153.178739 
L 261.654527 153.942204 
L 262.788327 154.696509 
L 263.908685 155.441871 
L 265.015916 156.1785 
L 266.110324 156.906597 
L 267.192202 157.626359 
L 268.261834 158.337974 
L 269.319495 159.041624 
L 270.365449 159.737486 
L 271.399952 160.425729 
L 272.423253 161.10652 
L 273.435592 161.780018 
L 274.4372 162.446378 
L 275.428304 163.105748 
L 276.409121 163.758275 
L 277.379862 164.404098 
L 278.340732 165.043355 
L 279.291931 165.676177 
L 280.233651 166.302693 
L 281.166078 166.923027 
L 282.089395 167.537299 
L 283.003778 168.145628 
L 283.909398 168.748127 
L 284.806421 169.344907 
L 285.695009 169.936075 
L 286.57532 170.521736 
L 287.447505 171.101992 
" clip-path="url(#p8ab4a26e50)" style="fill: none; stroke: #0040df; stroke-opacity: 0.5; stroke-width: 1.5; stroke-linecap: square"/>
   </g>
   <g id="LineCollection_2">
    <path d="M 65.244783 58.990452 
L 65.244783 57.038688 
" clip-path="url(#p8ab4a26e50)" style="fill: none; stroke: #00c09f; stroke-width: 1.5"/>
    <path d="M 77.072581 67.420293 
L 77.072581 64.96226 
" clip-path="url(#p8ab4a26e50)" style="fill: none; stroke: #00c09f; stroke-width: 1.5"/>
    <path d="M 87.583297 73.951623 
L 87.583297 72.111975 
" clip-path="url(#p8ab4a26e50)" style="fill: none; stroke: #00c09f; stroke-width: 1.5"/>
    <path d="M 101.437186 84.380438 
L 101.437186 82.501588 
" clip-path="url(#p8ab4a26e50)" style="fill: none; stroke: #00c09f; stroke-width: 1.5"/>
    <path d="M 109.659678 87.565413 
L 109.659678 85.67859 
" clip-path="url(#p8ab4a26e50)" style="fill: none; stroke: #00c09f; stroke-width: 1.5"/>
    <path d="M 120.790063 96.245624 
L 120.790063 94.331009 
" clip-path="url(#p8ab4a26e50)" style="fill: none; stroke: #00c09f; stroke-width: 1.5"/>
    <path d="M 133.845138 104.785645 
L 133.845138 103.043359 
" clip-path="url(#p8ab4a26e50)" style="fill: none; stroke: #00c09f; stroke-width: 1.5"/>
    <path d="M 145.313624 112.197265 
L 145.313624 110.280204 
" clip-path="url(#p8ab4a26e50)" style="fill: none; stroke: #00c09f; stroke-width: 1.5"/>
    <path d="M 157.932213 119.047803 
L 157.932213 118.013638 
" clip-path="url(#p8ab4a26e50)" style="fill: none; stroke: #00c09f; stroke-width: 1.5"/>
    <path d="M 169.062598 127.584417 
L 169.062598 126.362256 
" clip-path="url(#p8ab4a26e50)" style="fill: none; stroke: #00c09f; stroke-width: 1.5"/>
    <path d="M 179.019066 133.732072 
L 179.019066 132.50672 
" clip-path="url(#p8ab4a26e50)" style="fill: none; stroke: #00c09f; stroke-width: 1.5"/>
    <path d="M 191.401112 142.477847 
L 191.401112 141.184579 
" clip-path="url(#p8ab4a26e50)" style="fill: none; stroke: #00c09f; stroke-width: 1.5"/>
    <path d="M 202.347109 150.201254 
L 202.347109 148.48825 
" clip-path="url(#p8ab4a26e50)" style="fill: none; stroke: #00c09f; stroke-width: 1.5"/>
    <path d="M 213.477493 156.649677 
L 213.477493 155.476748 
" clip-path="url(#p8ab4a26e50)" style="fill: none; stroke: #00c09f; stroke-width: 1.5"/>
    <path d="M 225.76739 165.609531 
L 225.76739 164.369558 
" clip-path="url(#p8ab4a26e50)" style="fill: none; stroke: #00c09f; stroke-width: 1.5"/>
    <path d="M 236.641332 172.141965 
L 236.641332 170.819239 
" clip-path="url(#p8ab4a26e50)" style="fill: none; stroke: #00c09f; stroke-width: 1.5"/>
    <path d="M 248.227135 179.150028 
L 248.227135 178.459028 
" clip-path="url(#p8ab4a26e50)" style="fill: none; stroke: #00c09f; stroke-width: 1.5"/>
    <path d="M 260.161772 188.292153 
L 260.161772 187.266616 
" clip-path="url(#p8ab4a26e50)" style="fill: none; stroke: #00c09f; stroke-width: 1.5"/>
    <path d="M 271.469953 194.55421 
L 271.469953 193.754341 
" clip-path="url(#p8ab4a26e50)" style="fill: none; stroke: #00c09f; stroke-width: 1.5"/>
    <path d="M 282.836881 202.459601 
L 282.836881 201.518191 
" clip-path="url(#p8ab4a26e50)" style="fill: none; stroke: #00c09f; stroke-width: 1.5"/>
   </g>
   <g id="line2d_27">
    <defs>
     <path id="m28c20418f3" d="M 2 0 
L -2 -0 
" style="stroke: #00c09f"/>
    </defs>
    <g clip-path="url(#p8ab4a26e50)">
     <use xlink:href="#m28c20418f3" x="65.244783" y="58.990452" style="fill: #00c09f; stroke: #00c09f"/>
     <use xlink:href="#m28c20418f3" x="77.072581" y="67.420293" style="fill: #00c09f; stroke: #00c09f"/>
     <use xlink:href="#m28c20418f3" x="87.583297" y="73.951623" style="fill: #00c09f; stroke: #00c09f"/>
     <use xlink:href="#m28c20418f3" x="101.437186" y="84.380438" style="fill: #00c09f; stroke: #00c09f"/>
     <use xlink:href="#m28c20418f3" x="109.659678" y="87.565413" style="fill: #00c09f; stroke: #00c09f"/>
     <use xlink:href="#m28c20418f3" x="120.790063" y="96.245624" style="fill: #00c09f; stroke: #00c09f"/>
     <use xlink:href="#m28c20418f3" x="133.845138" y="104.785645" style="fill: #00c09f; stroke: #00c09f"/>
     <use xlink:href="#m28c20418f3" x="145.313624" y="112.197265" style="fill: #00c09f; stroke: #00c09f"/>
     <use xlink:href="#m28c20418f3" x="157.932213" y="119.047803" style="fill: #00c09f; stroke: #00c09f"/>
     <use xlink:href="#m28c20418f3" x="169.062598" y="127.584417" style="fill: #00c09f; stroke: #00c09f"/>
     <use xlink:href="#m28c20418f3" x="179.019066" y="133.732072" style="fill: #00c09f; stroke: #00c09f"/>
     <use xlink:href="#m28c20418f3" x="191.401112" y="142.477847" style="fill: #00c09f; stroke: #00c09f"/>
     <use xlink:href="#m28c20418f3" x="202.347109" y="150.201254" style="fill: #00c09f; stroke: #00c09f"/>
     <use xlink:href="#m28c20418f3" x="213.477493" y="156.649677" style="fill: #00c09f; stroke: #00c09f"/>
     <use xlink:href="#m28c20418f3" x="225.76739" y="165.609531" style="fill: #00c09f; stroke: #00c09f"/>
     <use xlink:href="#m28c20418f3" x="236.641332" y="172.141965" style="fill: #00c09f; stroke: #00c09f"/>
     <use xlink:href="#m28c20418f3" x="248.227135" y="179.150028" style="fill: #00c09f; stroke: #00c09f"/>
     <use xlink:href="#m28c20418f3" x="260.161772" y="188.292153" style="fill: #00c09f; stroke: #00c09f"/>
     <use xlink:href="#m28c20418f3" x="271.469953" y="194.55421" style="fill: #00c09f; stroke: #00c09f"/>
     <use xlink:href="#m28c20418f3" x="282.836881" y="202.459601" style="fill: #00c09f; stroke: #00c09f"/>
    </g>
   </g>
   <g id="line2d_28">
    <g clip-path="url(#p8ab4a26e50)">
     <use xlink:href="#m28c20418f3" x="65.244783" y="57.038688" style="fill: #00c09f; stroke: #00c09f"/>
     <use xlink:href="#m28c20418f3" x="77.072581" y="64.96226" style="fill: #00c09f; stroke: #00c09f"/>
     <use xlink:href="#m28c20418f3" x="87.583297" y="72.111975" style="fill: #00c09f; stroke: #00c09f"/>
     <use xlink:href="#m28c20418f3" x="101.437186" y="82.501588" style="fill: #00c09f; stroke: #00c09f"/>
     <use xlink:href="#m28c20418f3" x="109.659678" y="85.67859" style="fill: #00c09f; stroke: #00c09f"/>
     <use xlink:href="#m28c20418f3" x="120.790063" y="94.331009" style="fill: #00c09f; stroke: #00c09f"/>
     <use xlink:href="#m28c20418f3" x="133.845138" y="103.043359" style="fill: #00c09f; stroke: #00c09f"/>
     <use xlink:href="#m28c20418f3" x="145.313624" y="110.280204" style="fill: #00c09f; stroke: #00c09f"/>
     <use xlink:href="#m28c20418f3" x="157.932213" y="118.013638" style="fill: #00c09f; stroke: #00c09f"/>
     <use xlink:href="#m28c20418f3" x="169.062598" y="126.362256" style="fill: #00c09f; stroke: #00c09f"/>
     <use xlink:href="#m28c20418f3" x="179.019066" y="132.50672" style="fill: #00c09f; stroke: #00c09f"/>
     <use xlink:href="#m28c20418f3" x="191.401112" y="141.184579" style="fill: #00c09f; stroke: #00c09f"/>
     <use xlink:href="#m28c20418f3" x="202.347109" y="148.48825" style="fill: #00c09f; stroke: #00c09f"/>
     <use xlink:href="#m28c20418f3" x="213.477493" y="155.476748" style="fill: #00c09f; stroke: #00c09f"/>
     <use xlink:href="#m28c20418f3" x="225.76739" y="164.369558" style="fill: #00c09f; stroke: #00c09f"/>
     <use xlink:href="#m28c20418f3" x="236.641332" y="170.819239" style="fill: #00c09f; stroke: #00c09f"/>
     <use xlink:href="#m28c20418f3" x="248.227135" y="178.459028" style="fill: #00c09f; stroke: #00c09f"/>
     <use xlink:href="#m28c20418f3" x="260.161772" y="187.266616" style="fill: #00c09f; stroke: #00c09f"/>
     <use xlink:href="#m28c20418f3" x="271.469953" y="193.754341" style="fill: #00c09f; stroke: #00c09f"/>
     <use xlink:href="#m28c20418f3" x="282.836881" y="201.518191" style="fill: #00c09f; stroke: #00c09f"/>
    </g>
   </g>
   <g id="line2d_29">
    <path d="M 60.397615 55.002871 
L 69.536691 61.040933 
L 77.869338 66.546197 
L 85.526405 71.605116 
L 92.609271 76.284668 
L 99.198079 80.637803 
L 105.357284 84.707104 
L 111.139493 88.52733 
L 116.588208 92.127221 
L 121.73981 95.530814 
L 126.625032 98.758412 
L 131.270073 101.827327 
L 135.697448 104.752432 
L 139.926645 107.546605 
L 143.97465 110.221066 
L 147.856352 112.785653 
L 151.584879 115.249039 
L 155.17186 117.618908 
L 158.627652 119.902103 
L 161.961513 122.104739 
L 165.181755 124.232308 
L 168.295867 126.289759 
L 171.310623 128.281566 
L 174.232166 130.21179 
L 177.066089 132.084124 
L 179.817494 133.901939 
L 182.491051 135.668321 
L 185.091045 137.386101 
L 187.621415 139.057882 
L 190.085794 140.686063 
L 192.487536 142.272861 
L 194.829746 143.820327 
L 197.115304 145.330364 
L 199.346887 146.80474 
L 201.526985 148.2451 
L 203.657919 149.652979 
L 205.74186 151.02981 
L 207.780834 152.376932 
L 209.776741 153.695601 
L 211.731364 154.986993 
L 213.646375 156.252214 
L 215.523348 157.492304 
L 217.363765 158.708243 
L 219.169022 159.900951 
L 220.940438 161.071302 
L 222.679259 162.220116 
L 224.386662 163.348174 
L 226.063762 164.456211 
L 227.711617 165.544926 
L 229.331228 166.614981 
L 230.923548 167.667005 
L 232.489482 168.701595 
L 234.029889 169.719321 
L 235.545588 170.720723 
L 237.03736 171.706316 
L 238.505948 172.676592 
L 239.952062 173.632019 
L 241.376379 174.573046 
L 242.779547 175.5001 
L 244.162184 176.413589 
L 245.524883 177.313906 
L 246.868211 178.201424 
L 248.19271 179.076502 
L 249.498902 179.939485 
L 250.787284 180.790701 
L 252.058337 181.630469 
L 253.312521 182.45909 
L 254.550277 183.276859 
L 255.77203 184.084054 
L 256.978189 184.880947 
L 258.169146 185.667796 
L 259.345281 186.444852 
L 260.506957 187.212355 
L 261.654527 187.970538 
L 262.788327 188.719625 
L 263.908685 189.45983 
L 265.015916 190.191362 
L 266.110324 190.914422 
L 267.192202 191.629204 
L 268.261834 192.335896 
L 269.319495 193.034677 
L 270.365449 193.725725 
L 271.399952 194.409207 
L 272.423253 195.085288 
L 273.435592 195.754126 
L 274.4372 196.415875 
L 275.428304 197.070683 
L 276.409121 197.718695 
L 277.379862 198.360051 
L 278.340732 198.994885 
L 279.291931 199.623329 
L 280.233651 200.24551 
L 281.166078 200.861552 
L 282.089395 201.471574 
L 283.003778 202.075695 
L 283.909398 202.674025 
L 284.806421 203.266676 
L 285.695009 203.853754 
L 286.57532 204.435363 
L 287.447505 205.011604 
" clip-path="url(#p8ab4a26e50)" style="fill: none; stroke: #00c09f; stroke-opacity: 0.5; stroke-width: 1.5; stroke-linecap: square"/>
   </g>
   <g id="LineCollection_3">
    <path d="M 65.244783 30.278038 
L 65.244783 28.398844 
" clip-path="url(#p8ab4a26e50)" style="fill: none; stroke: #0080bf; stroke-width: 1.5"/>
    <path d="M 77.072581 40.251985 
L 77.072581 38.09857 
" clip-path="url(#p8ab4a26e50)" style="fill: none; stroke: #0080bf; stroke-width: 1.5"/>
    <path d="M 87.583297 45.189318 
L 87.583297 43.571448 
" clip-path="url(#p8ab4a26e50)" style="fill: none; stroke: #0080bf; stroke-width: 1.5"/>
    <path d="M 101.437186 54.647468 
L 101.437186 52.917446 
" clip-path="url(#p8ab4a26e50)" style="fill: none; stroke: #0080bf; stroke-width: 1.5"/>
    <path d="M 109.659678 58.337875 
L 109.659678 57.148666 
" clip-path="url(#p8ab4a26e50)" style="fill: none; stroke: #0080bf; stroke-width: 1.5"/>
    <path d="M 120.790063 69.751367 
L 120.790063 67.541946 
" clip-path="url(#p8ab4a26e50)" style="fill: none; stroke: #0080bf; stroke-width: 1.5"/>
    <path d="M 133.845138 74.895035 
L 133.845138 73.521562 
" clip-path="url(#p8ab4a26e50)" style="fill: none; stroke: #0080bf; stroke-width: 1.5"/>
    <path d="M 145.313624 83.485335 
L 145.313624 81.958598 
" clip-path="url(#p8ab4a26e50)" style="fill: none; stroke: #0080bf; stroke-width: 1.5"/>
    <path d="M 157.932213 92.64285 
L 157.932213 90.480863 
" clip-path="url(#p8ab4a26e50)" style="fill: none; stroke: #0080bf; stroke-width: 1.5"/>
    <path d="M 169.062598 97.762265 
L 169.062598 96.813934 
" clip-path="url(#p8ab4a26e50)" style="fill: none; stroke: #0080bf; stroke-width: 1.5"/>
    <path d="M 179.019066 104.138841 
L 179.019066 102.857343 
" clip-path="url(#p8ab4a26e50)" style="fill: none; stroke: #0080bf; stroke-width: 1.5"/>
    <path d="M 191.401112 112.340838 
L 191.401112 111.300375 
" clip-path="url(#p8ab4a26e50)" style="fill: none; stroke: #0080bf; stroke-width: 1.5"/>
    <path d="M 202.347109 120.00875 
L 202.347109 119.046314 
" clip-path="url(#p8ab4a26e50)" style="fill: none; stroke: #0080bf; stroke-width: 1.5"/>
    <path d="M 213.477493 126.926744 
L 213.477493 125.869412 
" clip-path="url(#p8ab4a26e50)" style="fill: none; stroke: #0080bf; stroke-width: 1.5"/>
    <path d="M 225.76739 137.364544 
L 225.76739 135.276461 
" clip-path="url(#p8ab4a26e50)" style="fill: none; stroke: #0080bf; stroke-width: 1.5"/>
    <path d="M 236.641332 142.724432 
L 236.641332 141.405156 
" clip-path="url(#p8ab4a26e50)" style="fill: none; stroke: #0080bf; stroke-width: 1.5"/>
    <path d="M 248.227135 149.142818 
L 248.227135 148.394174 
" clip-path="url(#p8ab4a26e50)" style="fill: none; stroke: #0080bf; stroke-width: 1.5"/>
    <path d="M 260.161772 157.872312 
L 260.161772 157.020861 
" clip-path="url(#p8ab4a26e50)" style="fill: none; stroke: #0080bf; stroke-width: 1.5"/>
    <path d="M 271.469953 165.372132 
L 271.469953 164.249766 
" clip-path="url(#p8ab4a26e50)" style="fill: none; stroke: #0080bf; stroke-width: 1.5"/>
    <path d="M 282.836881 171.827588 
L 282.836881 170.802235 
" clip-path="url(#p8ab4a26e50)" style="fill: none; stroke: #0080bf; stroke-width: 1.5"/>
   </g>
   <g id="line2d_30">
    <defs>
     <path id="m22f1fedd73" d="M 2 0 
L -2 -0 
" style="stroke: #0080bf"/>
    </defs>
    <g clip-path="url(#p8ab4a26e50)">
     <use xlink:href="#m22f1fedd73" x="65.244783" y="30.278038" style="fill: #0080bf; stroke: #0080bf"/>
     <use xlink:href="#m22f1fedd73" x="77.072581" y="40.251985" style="fill: #0080bf; stroke: #0080bf"/>
     <use xlink:href="#m22f1fedd73" x="87.583297" y="45.189318" style="fill: #0080bf; stroke: #0080bf"/>
     <use xlink:href="#m22f1fedd73" x="101.437186" y="54.647468" style="fill: #0080bf; stroke: #0080bf"/>
     <use xlink:href="#m22f1fedd73" x="109.659678" y="58.337875" style="fill: #0080bf; stroke: #0080bf"/>
     <use xlink:href="#m22f1fedd73" x="120.790063" y="69.751367" style="fill: #0080bf; stroke: #0080bf"/>
     <use xlink:href="#m22f1fedd73" x="133.845138" y="74.895035" style="fill: #0080bf; stroke: #0080bf"/>
     <use xlink:href="#m22f1fedd73" x="145.313624" y="83.485335" style="fill: #0080bf; stroke: #0080bf"/>
     <use xlink:href="#m22f1fedd73" x="157.932213" y="92.64285" style="fill: #0080bf; stroke: #0080bf"/>
     <use xlink:href="#m22f1fedd73" x="169.062598" y="97.762265" style="fill: #0080bf; stroke: #0080bf"/>
     <use xlink:href="#m22f1fedd73" x="179.019066" y="104.138841" style="fill: #0080bf; stroke: #0080bf"/>
     <use xlink:href="#m22f1fedd73" x="191.401112" y="112.340838" style="fill: #0080bf; stroke: #0080bf"/>
     <use xlink:href="#m22f1fedd73" x="202.347109" y="120.00875" style="fill: #0080bf; stroke: #0080bf"/>
     <use xlink:href="#m22f1fedd73" x="213.477493" y="126.926744" style="fill: #0080bf; stroke: #0080bf"/>
     <use xlink:href="#m22f1fedd73" x="225.76739" y="137.364544" style="fill: #0080bf; stroke: #0080bf"/>
     <use xlink:href="#m22f1fedd73" x="236.641332" y="142.724432" style="fill: #0080bf; stroke: #0080bf"/>
     <use xlink:href="#m22f1fedd73" x="248.227135" y="149.142818" style="fill: #0080bf; stroke: #0080bf"/>
     <use xlink:href="#m22f1fedd73" x="260.161772" y="157.872312" style="fill: #0080bf; stroke: #0080bf"/>
     <use xlink:href="#m22f1fedd73" x="271.469953" y="165.372132" style="fill: #0080bf; stroke: #0080bf"/>
     <use xlink:href="#m22f1fedd73" x="282.836881" y="171.827588" style="fill: #0080bf; stroke: #0080bf"/>
    </g>
   </g>
   <g id="line2d_31">
    <g clip-path="url(#p8ab4a26e50)">
     <use xlink:href="#m22f1fedd73" x="65.244783" y="28.398844" style="fill: #0080bf; stroke: #0080bf"/>
     <use xlink:href="#m22f1fedd73" x="77.072581" y="38.09857" style="fill: #0080bf; stroke: #0080bf"/>
     <use xlink:href="#m22f1fedd73" x="87.583297" y="43.571448" style="fill: #0080bf; stroke: #0080bf"/>
     <use xlink:href="#m22f1fedd73" x="101.437186" y="52.917446" style="fill: #0080bf; stroke: #0080bf"/>
     <use xlink:href="#m22f1fedd73" x="109.659678" y="57.148666" style="fill: #0080bf; stroke: #0080bf"/>
     <use xlink:href="#m22f1fedd73" x="120.790063" y="67.541946" style="fill: #0080bf; stroke: #0080bf"/>
     <use xlink:href="#m22f1fedd73" x="133.845138" y="73.521562" style="fill: #0080bf; stroke: #0080bf"/>
     <use xlink:href="#m22f1fedd73" x="145.313624" y="81.958598" style="fill: #0080bf; stroke: #0080bf"/>
     <use xlink:href="#m22f1fedd73" x="157.932213" y="90.480863" style="fill: #0080bf; stroke: #0080bf"/>
     <use xlink:href="#m22f1fedd73" x="169.062598" y="96.813934" style="fill: #0080bf; stroke: #0080bf"/>
     <use xlink:href="#m22f1fedd73" x="179.019066" y="102.857343" style="fill: #0080bf; stroke: #0080bf"/>
     <use xlink:href="#m22f1fedd73" x="191.401112" y="111.300375" style="fill: #0080bf; stroke: #0080bf"/>
     <use xlink:href="#m22f1fedd73" x="202.347109" y="119.046314" style="fill: #0080bf; stroke: #0080bf"/>
     <use xlink:href="#m22f1fedd73" x="213.477493" y="125.869412" style="fill: #0080bf; stroke: #0080bf"/>
     <use xlink:href="#m22f1fedd73" x="225.76739" y="135.276461" style="fill: #0080bf; stroke: #0080bf"/>
     <use xlink:href="#m22f1fedd73" x="236.641332" y="141.405156" style="fill: #0080bf; stroke: #0080bf"/>
     <use xlink:href="#m22f1fedd73" x="248.227135" y="148.394174" style="fill: #0080bf; stroke: #0080bf"/>
     <use xlink:href="#m22f1fedd73" x="260.161772" y="157.020861" style="fill: #0080bf; stroke: #0080bf"/>
     <use xlink:href="#m22f1fedd73" x="271.469953" y="164.249766" style="fill: #0080bf; stroke: #0080bf"/>
     <use xlink:href="#m22f1fedd73" x="282.836881" y="170.802235" style="fill: #0080bf; stroke: #0080bf"/>
    </g>
   </g>
   <g id="line2d_32">
    <path d="M 60.397615 26.682773 
L 69.536691 32.644803 
L 77.869338 38.080744 
L 85.526405 43.07596 
L 92.609271 47.696587 
L 99.198079 51.994907 
L 105.357284 56.012967 
L 111.139493 59.785088 
L 116.588208 63.339649 
L 121.73981 66.700383 
L 126.625032 69.88734 
L 131.270073 72.91761 
L 135.697448 75.805882 
L 139.926645 78.56487 
L 143.97465 81.205654 
L 147.856352 83.737948 
L 151.584879 86.170314 
L 155.17186 88.510342 
L 158.627652 90.764786 
L 161.961513 92.939686 
L 165.181755 95.040465 
L 168.295867 97.072008 
L 171.310623 99.038735 
L 174.232166 100.944652 
L 177.066089 102.793409 
L 179.817494 104.588335 
L 182.491051 106.332475 
L 185.091045 108.028624 
L 187.621415 109.679354 
L 190.085794 111.287033 
L 192.487536 112.853849 
L 194.829746 114.381829 
L 197.115304 115.872852 
L 199.346887 117.328662 
L 201.526985 118.750885 
L 203.657919 120.141036 
L 205.74186 121.50053 
L 207.780834 122.830689 
L 209.776741 124.132752 
L 211.731364 125.407883 
L 213.646375 126.657173 
L 215.523348 127.881648 
L 217.363765 129.082275 
L 219.169022 130.259965 
L 220.940438 131.415578 
L 222.679259 132.549927 
L 224.386662 133.663779 
L 226.063762 134.757864 
L 227.711617 135.83287 
L 229.331228 136.88945 
L 230.923548 137.928227 
L 232.489482 138.94979 
L 234.029889 139.9547 
L 235.545588 140.943492 
L 237.03736 141.916674 
L 238.505948 142.874733 
L 239.952062 143.818129 
L 241.376379 144.747306 
L 242.779547 145.662687 
L 244.162184 146.564673 
L 245.524883 147.453653 
L 246.868211 148.329995 
L 248.19271 149.194055 
L 249.498902 150.04617 
L 250.787284 150.886668 
L 252.058337 151.715861 
L 253.312521 152.534049 
L 254.550277 153.34152 
L 255.77203 154.138551 
L 256.978189 154.925409 
L 258.169146 155.70235 
L 259.345281 156.469621 
L 260.506957 157.22746 
L 261.654527 157.976096 
L 262.788327 158.71575 
L 263.908685 159.446634 
L 265.015916 160.168955 
L 266.110324 160.88291 
L 267.192202 161.588692 
L 268.261834 162.286484 
L 269.319495 162.976467 
L 270.365449 163.658812 
L 271.399952 164.333688 
L 272.423253 165.001256 
L 273.435592 165.661672 
L 274.4372 166.315088 
L 275.428304 166.961651 
L 276.409121 167.601503 
L 277.379862 168.234783 
L 278.340732 168.861623 
L 279.291931 169.482153 
L 280.233651 170.0965 
L 281.166078 170.704784 
L 282.089395 171.307126 
L 283.003778 171.903639 
L 283.909398 172.494435 
L 284.806421 173.079623 
L 285.695009 173.659309 
L 286.57532 174.233594 
L 287.447505 174.802579 
" clip-path="url(#p8ab4a26e50)" style="fill: none; stroke: #0080bf; stroke-opacity: 0.5; stroke-width: 1.5; stroke-linecap: square"/>
   </g>
   <g id="line2d_33">
    <defs>
     <path id="m8908b62936" d="M 0 3 
C 0.795609 3 1.55874 2.683901 2.12132 2.12132 
C 2.683901 1.55874 3 0.795609 3 0 
C 3 -0.795609 2.683901 -1.55874 2.12132 -2.12132 
C 1.55874 -2.683901 0.795609 -3 0 -3 
C -0.795609 -3 -1.55874 -2.683901 -2.12132 -2.12132 
C -2.683901 -1.55874 -3 -0.795609 -3 0 
C -3 0.795609 -2.683901 1.55874 -2.12132 2.12132 
C -1.55874 2.683901 -0.795609 3 0 3 
z
" style="stroke: #000000"/>
    </defs>
    <g clip-path="url(#p8ab4a26e50)">
     <use xlink:href="#m8908b62936" x="65.244783" y="23.520048" style="fill-opacity: 0; stroke: #000000"/>
     <use xlink:href="#m8908b62936" x="77.072581" y="30.368553" style="fill-opacity: 0; stroke: #000000"/>
     <use xlink:href="#m8908b62936" x="87.583297" y="38.340895" style="fill-opacity: 0; stroke: #000000"/>
     <use xlink:href="#m8908b62936" x="101.437186" y="47.849447" style="fill-opacity: 0; stroke: #000000"/>
     <use xlink:href="#m8908b62936" x="109.659678" y="52.478928" style="fill-opacity: 0; stroke: #000000"/>
     <use xlink:href="#m8908b62936" x="120.790063" y="60.075631" style="fill-opacity: 0; stroke: #000000"/>
     <use xlink:href="#m8908b62936" x="133.845138" y="69.426877" style="fill-opacity: 0; stroke: #000000"/>
     <use xlink:href="#m8908b62936" x="145.313624" y="76.346909" style="fill-opacity: 0; stroke: #000000"/>
     <use xlink:href="#m8908b62936" x="157.932213" y="85.369732" style="fill-opacity: 0; stroke: #000000"/>
     <use xlink:href="#m8908b62936" x="169.062598" y="93.400807" style="fill-opacity: 0; stroke: #000000"/>
     <use xlink:href="#m8908b62936" x="179.019066" y="98.215668" style="fill-opacity: 0; stroke: #000000"/>
     <use xlink:href="#m8908b62936" x="191.401112" y="107.453979" style="fill-opacity: 0; stroke: #000000"/>
     <use xlink:href="#m8908b62936" x="202.347109" y="114.827455" style="fill-opacity: 0; stroke: #000000"/>
     <use xlink:href="#m8908b62936" x="213.477493" y="121.58541" style="fill-opacity: 0; stroke: #000000"/>
     <use xlink:href="#m8908b62936" x="225.76739" y="130.3382" style="fill-opacity: 0; stroke: #000000"/>
     <use xlink:href="#m8908b62936" x="236.641332" y="137.337419" style="fill-opacity: 0; stroke: #000000"/>
     <use xlink:href="#m8908b62936" x="248.227135" y="145.452375" style="fill-opacity: 0; stroke: #000000"/>
     <use xlink:href="#m8908b62936" x="260.161772" y="151.78643" style="fill-opacity: 0; stroke: #000000"/>
     <use xlink:href="#m8908b62936" x="271.469953" y="161.980831" style="fill-opacity: 0; stroke: #000000"/>
     <use xlink:href="#m8908b62936" x="282.836881" y="175.807301" style="fill-opacity: 0; stroke: #000000"/>
    </g>
   </g>
   <g id="line2d_34">
    <g clip-path="url(#p8ab4a26e50)">
     <use xlink:href="#m8908b62936" x="65.244783" y="58.006981" style="fill-opacity: 0; stroke: #000000"/>
     <use xlink:href="#m8908b62936" x="77.072581" y="66.17924" style="fill-opacity: 0; stroke: #000000"/>
     <use xlink:href="#m8908b62936" x="87.583297" y="73.025057" style="fill-opacity: 0; stroke: #000000"/>
     <use xlink:href="#m8908b62936" x="101.437186" y="83.43398" style="fill-opacity: 0; stroke: #000000"/>
     <use xlink:href="#m8908b62936" x="109.659678" y="86.614909" style="fill-opacity: 0; stroke: #000000"/>
     <use xlink:href="#m8908b62936" x="120.790063" y="95.281014" style="fill-opacity: 0; stroke: #000000"/>
     <use xlink:href="#m8908b62936" x="133.845138" y="103.908454" style="fill-opacity: 0; stroke: #000000"/>
     <use xlink:href="#m8908b62936" x="145.313624" y="111.231413" style="fill-opacity: 0; stroke: #000000"/>
     <use xlink:href="#m8908b62936" x="157.932213" y="118.52859" style="fill-opacity: 0; stroke: #000000"/>
     <use xlink:href="#m8908b62936" x="169.062598" y="126.970361" style="fill-opacity: 0; stroke: #000000"/>
     <use xlink:href="#m8908b62936" x="179.019066" y="133.116405" style="fill-opacity: 0; stroke: #000000"/>
     <use xlink:href="#m8908b62936" x="191.401112" y="141.827881" style="fill-opacity: 0; stroke: #000000"/>
     <use xlink:href="#m8908b62936" x="202.347109" y="149.338907" style="fill-opacity: 0; stroke: #000000"/>
     <use xlink:href="#m8908b62936" x="213.477493" y="156.060471" style="fill-opacity: 0; stroke: #000000"/>
     <use xlink:href="#m8908b62936" x="225.76739" y="164.986481" style="fill-opacity: 0; stroke: #000000"/>
     <use xlink:href="#m8908b62936" x="236.641332" y="171.477116" style="fill-opacity: 0; stroke: #000000"/>
     <use xlink:href="#m8908b62936" x="248.227135" y="178.803577" style="fill-opacity: 0; stroke: #000000"/>
     <use xlink:href="#m8908b62936" x="260.161772" y="187.777289" style="fill-opacity: 0; stroke: #000000"/>
     <use xlink:href="#m8908b62936" x="271.469953" y="194.153001" style="fill-opacity: 0; stroke: #000000"/>
     <use xlink:href="#m8908b62936" x="282.836881" y="201.98713" style="fill-opacity: 0; stroke: #000000"/>
    </g>
   </g>
   <g id="line2d_35">
    <g clip-path="url(#p8ab4a26e50)">
     <use xlink:href="#m8908b62936" x="65.244783" y="29.331406" style="fill-opacity: 0; stroke: #000000"/>
     <use xlink:href="#m8908b62936" x="77.072581" y="39.166039" style="fill-opacity: 0; stroke: #000000"/>
     <use xlink:href="#m8908b62936" x="87.583297" y="44.375168" style="fill-opacity: 0; stroke: #000000"/>
     <use xlink:href="#m8908b62936" x="101.437186" y="53.776495" style="fill-opacity: 0; stroke: #000000"/>
     <use xlink:href="#m8908b62936" x="109.659678" y="57.740453" style="fill-opacity: 0; stroke: #000000"/>
     <use xlink:href="#m8908b62936" x="120.790063" y="68.636932" style="fill-opacity: 0; stroke: #000000"/>
     <use xlink:href="#m8908b62936" x="133.845138" y="74.20454" style="fill-opacity: 0; stroke: #000000"/>
     <use xlink:href="#m8908b62936" x="145.313624" y="82.717323" style="fill-opacity: 0; stroke: #000000"/>
     <use xlink:href="#m8908b62936" x="157.932213" y="91.552545" style="fill-opacity: 0; stroke: #000000"/>
     <use xlink:href="#m8908b62936" x="169.062598" y="97.286308" style="fill-opacity: 0; stroke: #000000"/>
     <use xlink:href="#m8908b62936" x="179.019066" y="103.49482" style="fill-opacity: 0; stroke: #000000"/>
     <use xlink:href="#m8908b62936" x="191.401112" y="111.81845" style="fill-opacity: 0; stroke: #000000"/>
     <use xlink:href="#m8908b62936" x="202.347109" y="119.525686" style="fill-opacity: 0; stroke: #000000"/>
     <use xlink:href="#m8908b62936" x="213.477493" y="126.395851" style="fill-opacity: 0; stroke: #000000"/>
     <use xlink:href="#m8908b62936" x="225.76739" y="136.311816" style="fill-opacity: 0; stroke: #000000"/>
     <use xlink:href="#m8908b62936" x="236.641332" y="142.061327" style="fill-opacity: 0; stroke: #000000"/>
     <use xlink:href="#m8908b62936" x="248.227135" y="148.76738" style="fill-opacity: 0; stroke: #000000"/>
     <use xlink:href="#m8908b62936" x="260.161772" y="157.445142" style="fill-opacity: 0; stroke: #000000"/>
     <use xlink:href="#m8908b62936" x="271.469953" y="164.80844" style="fill-opacity: 0; stroke: #000000"/>
     <use xlink:href="#m8908b62936" x="282.836881" y="171.312817" style="fill-opacity: 0; stroke: #000000"/>
    </g>
   </g>
   <g id="patch_3">
    <path d="M 49.045121 214.259776 
L 49.045121 10.8 
" style="fill: none; stroke: #000000; stroke-width: 0.8; stroke-linejoin: miter; stroke-linecap: square"/>
   </g>
   <g id="patch_4">
    <path d="M 298.8 214.259776 
L 298.8 10.8 
" style="fill: none; stroke: #000000; stroke-width: 0.8; stroke-linejoin: miter; stroke-linecap: square"/>
   </g>
   <g id="patch_5">
    <path d="M 49.045121 214.259776 
L 298.8 214.259776 
" style="fill: none; stroke: #000000; stroke-width: 0.8; stroke-linejoin: miter; stroke-linecap: square"/>
   </g>
   <g id="patch_6">
    <path d="M 49.045121 10.8 
L 298.8 10.8 
" style="fill: none; stroke: #000000; stroke-width: 0.8; stroke-linejoin: miter; stroke-linecap: square"/>
   </g>
   <g id="legend_1">
    <g id="patch_7">
     <path d="M 254.579261 48.611535 
L 291.8 48.611535 
Q 293.8 48.611535 293.8 46.611535 
L 293.8 17.8 
Q 293.8 15.8 291.8 15.8 
L 254.579261 15.8 
Q 252.579261 15.8 252.579261 17.8 
L 252.579261 46.611535 
Q 252.579261 48.611535 254.579261 48.611535 
z
" style="fill: #ffffff; opacity: 0.8; stroke: #cccccc; stroke-linejoin: miter"/>
    </g>
    <g id="LineCollection_4">
     <path d="M 264.579261 26.3 
L 264.579261 16.3 
" style="fill: none; stroke: #0040df; stroke-width: 1.5"/>
    </g>
    <g id="line2d_36">
     <g>
      <use xlink:href="#mee52996c64" x="264.579261" y="26.3" style="fill: #0040df; stroke: #0040df"/>
     </g>
    </g>
    <g id="line2d_37">
     <g>
      <use xlink:href="#mee52996c64" x="264.579261" y="16.3" style="fill: #0040df; stroke: #0040df"/>
     </g>
    </g>
    <g id="line2d_38"/>
    <g id="line2d_39">
     <g>
      <use xlink:href="#m8908b62936" x="264.579261" y="21.3" style="fill-opacity: 0; stroke: #000000"/>
     </g>
    </g>
    <g id="text_6">
     <!-- hex -->
     <g transform="translate(276.579261 24.8) scale(0.1 -0.1)">
      <defs>
       <path id="CMR17-68" d="M 2656 1933 
C 2656 2259 2592 2790 1837 2790 
C 1312 2790 1056 2368 979 2157 
L 973 2157 
L 973 4396 
L 211 4326 
L 211 4160 
C 589 4160 646 4122 646 3817 
L 646 426 
C 646 184 621 153 211 153 
L 211 -13 
C 365 0 646 0 813 0 
C 979 0 1267 0 1421 -13 
L 1421 153 
C 1011 153 986 178 986 428 
L 986 1658 
C 986 2247 1344 2688 1792 2688 
C 2266 2688 2317 2266 2317 1958 
L 2317 428 
C 2317 184 2291 153 1882 153 
L 1882 -13 
C 2035 0 2317 0 2483 0 
C 2650 0 2938 0 3091 -13 
L 3091 153 
C 2682 153 2656 178 2656 428 
L 2656 1933 
z
" transform="scale(0.015625)"/>
       <path id="CMR17-65" d="M 2438 1472 
C 2464 1498 2464 1511 2464 1576 
C 2464 2238 2118 2816 1389 2816 
C 710 2816 173 2169 173 1383 
C 173 551 781 -64 1459 -64 
C 2176 -64 2458 607 2458 740 
C 2458 784 2419 784 2406 784 
C 2362 784 2355 771 2330 696 
C 2189 265 1837 51 1504 51 
C 1229 51 954 203 781 480 
C 582 803 582 1176 582 1472 
L 2438 1472 
z
M 589 1568 
C 634 2505 1126 2714 1382 2714 
C 1818 2714 2112 2297 2118 1568 
L 589 1568 
z
" transform="scale(0.015625)"/>
       <path id="CMR17-78" d="M 1664 1477 
C 1856 1726 2074 2006 2253 2216 
C 2464 2458 2707 2560 2989 2560 
L 2989 2726 
C 2880 2726 2656 2726 2541 2726 
C 2368 2726 2170 2726 2022 2732 
L 2022 2566 
C 2112 2553 2163 2489 2163 2400 
C 2163 2285 2099 2215 2067 2171 
L 1594 1573 
L 1030 2306 
C 973 2376 973 2388 973 2420 
C 973 2497 1037 2560 1146 2560 
L 1146 2732 
C 992 2726 717 2726 557 2726 
C 384 2726 179 2726 38 2732 
L 38 2560 
C 384 2560 461 2534 614 2343 
L 1350 1395 
C 1363 1382 1395 1344 1395 1325 
C 1395 1299 838 619 768 530 
C 480 185 179 160 6 160 
L 6 0 
C 115 0 339 0 454 0 
C 582 0 864 0 979 -6 
L 979 160 
C 941 166 838 179 838 325 
C 838 440 890 510 947 586 
L 1478 1236 
L 2035 512 
C 2086 442 2163 346 2163 301 
C 2163 211 2086 160 1984 160 
L 1984 -6 
C 2138 0 2413 0 2573 0 
C 2746 0 2950 0 3091 -6 
L 3091 160 
C 2771 160 2675 172 2522 370 
L 1664 1477 
z
" transform="scale(0.015625)"/>
      </defs>
      <use xlink:href="#CMR17-68" transform="scale(0.996264)"/>
      <use xlink:href="#CMR17-65" transform="translate(50.89537 0) scale(0.996264)"/>
      <use xlink:href="#CMR17-78" transform="translate(91.38103 0) scale(0.996264)"/>
     </g>
    </g>
    <g id="LineCollection_5">
     <path d="M 264.579261 36.237178 
L 264.579261 26.237178 
" style="fill: none; stroke: #00c09f; stroke-width: 1.5"/>
    </g>
    <g id="line2d_40">
     <g>
      <use xlink:href="#m28c20418f3" x="264.579261" y="36.237178" style="fill: #00c09f; stroke: #00c09f"/>
     </g>
    </g>
    <g id="line2d_41">
     <g>
      <use xlink:href="#m28c20418f3" x="264.579261" y="26.237178" style="fill: #00c09f; stroke: #00c09f"/>
     </g>
    </g>
    <g id="line2d_42"/>
    <g id="line2d_43">
     <g>
      <use xlink:href="#m8908b62936" x="264.579261" y="31.237178" style="fill-opacity: 0; stroke: #000000"/>
     </g>
    </g>
    <g id="text_7">
     <!-- tri -->
     <g transform="translate(276.579261 34.737178) scale(0.1 -0.1)">
      <defs>
       <path id="CMR17-74" d="M 966 2560 
L 1862 2560 
L 1862 2725 
L 966 2725 
L 966 3904 
L 851 3904 
C 838 3245 614 2668 70 2668 
L 70 2560 
L 627 2560 
L 627 771 
C 627 650 627 -64 1370 -64 
C 1747 -64 1965 306 1965 777 
L 1965 1140 
L 1850 1140 
L 1850 783 
C 1850 344 1677 51 1408 51 
C 1222 51 966 178 966 758 
L 966 2560 
z
" transform="scale(0.015625)"/>
       <path id="CMR17-72" d="M 960 1497 
C 960 2112 1222 2688 1702 2688 
C 1747 2688 1792 2682 1837 2662 
C 1837 2662 1696 2617 1696 2452 
C 1696 2298 1818 2234 1914 2234 
C 1990 2234 2131 2279 2131 2458 
C 2131 2663 1926 2790 1709 2790 
C 1222 2790 1011 2317 947 2093 
L 941 2093 
L 941 2790 
L 198 2720 
L 198 2554 
C 576 2554 634 2515 634 2208 
L 634 428 
C 634 184 608 153 198 153 
L 198 -13 
C 352 0 646 0 813 0 
C 998 0 1325 0 1498 -13 
L 1498 153 
C 1037 153 960 153 960 440 
L 960 1497 
z
" transform="scale(0.015625)"/>
       <path id="CMR17-69" d="M 992 3909 
C 992 4049 877 4170 730 4170 
C 589 4170 467 4056 467 3909 
C 467 3769 582 3648 730 3648 
C 870 3648 992 3763 992 3909 
z
M 243 2706 
L 243 2541 
C 602 2541 653 2502 653 2197 
L 653 427 
C 653 184 627 153 218 153 
L 218 -13 
C 371 0 646 0 806 0 
C 960 0 1222 0 1370 -13 
L 1370 153 
C 992 153 979 191 979 420 
L 979 2776 
L 243 2706 
z
" transform="scale(0.015625)"/>
      </defs>
      <use xlink:href="#CMR17-74" transform="scale(0.996264)"/>
      <use xlink:href="#CMR17-72" transform="translate(35.280768 0) scale(0.996264)"/>
      <use xlink:href="#CMR17-69" transform="translate(70.561536 0) scale(0.996264)"/>
     </g>
    </g>
    <g id="LineCollection_6">
     <path d="M 264.579261 46.174357 
L 264.579261 36.174357 
" style="fill: none; stroke: #0080bf; stroke-width: 1.5"/>
    </g>
    <g id="line2d_44">
     <g>
      <use xlink:href="#m22f1fedd73" x="264.579261" y="46.174357" style="fill: #0080bf; stroke: #0080bf"/>
     </g>
    </g>
    <g id="line2d_45">
     <g>
      <use xlink:href="#m22f1fedd73" x="264.579261" y="36.174357" style="fill: #0080bf; stroke: #0080bf"/>
     </g>
    </g>
    <g id="line2d_46"/>
    <g id="line2d_47">
     <g>
      <use xlink:href="#m8908b62936" x="264.579261" y="41.174357" style="fill-opacity: 0; stroke: #000000"/>
     </g>
    </g>
    <g id="text_8">
     <!-- sqr -->
     <g transform="translate(276.579261 44.674357) scale(0.1 -0.1)">
      <defs>
       <path id="CMR17-73" d="M 1978 2697 
C 1978 2813 1971 2819 1933 2819 
C 1907 2819 1901 2813 1824 2717 
C 1805 2691 1747 2626 1728 2601 
C 1523 2819 1235 2819 1126 2819 
C 416 2819 160 2447 160 2076 
C 160 1498 813 1365 998 1325 
C 1402 1243 1542 1217 1677 1101 
C 1760 1025 1901 884 1901 654 
C 1901 384 1747 38 1158 38 
C 602 38 403 460 288 1021 
C 269 1110 269 1117 218 1117 
C 166 1117 160 1110 160 983 
L 160 63 
C 160 -51 166 -58 205 -58 
C 237 -58 243 -51 275 0 
C 314 57 410 211 448 276 
C 576 103 800 -64 1158 -64 
C 1792 -64 2131 283 2131 784 
C 2131 1112 1958 1285 1875 1362 
C 1683 1561 1459 1606 1190 1657 
C 838 1735 390 1825 390 2217 
C 390 2383 480 2737 1126 2737 
C 1811 2737 1850 2094 1862 1888 
C 1869 1856 1901 1849 1920 1849 
C 1978 1849 1978 1869 1978 1978 
L 1978 2697 
z
" transform="scale(0.015625)"/>
       <path id="CMR17-71" d="M 2630 2802 
L 2528 2802 
L 2336 2172 
C 2189 2509 1920 2802 1491 2802 
C 838 2802 211 2223 211 1383 
C 211 548 800 -38 1440 -38 
C 1933 -38 2208 338 2291 478 
L 2291 -789 
C 2291 -1031 2266 -1063 1856 -1063 
L 1856 -1228 
C 2010 -1216 2291 -1216 2458 -1216 
C 2624 -1216 2912 -1216 3066 -1228 
L 3066 -1063 
C 2656 -1063 2630 -1037 2630 -789 
L 2630 2802 
z
M 2304 886 
C 2304 612 2074 357 2054 338 
C 1856 115 1626 64 1472 64 
C 992 64 621 669 621 1375 
C 621 2121 1043 2688 1536 2688 
C 2048 2688 2304 2108 2304 1777 
L 2304 886 
z
" transform="scale(0.015625)"/>
      </defs>
      <use xlink:href="#CMR17-73" transform="scale(0.996264)"/>
      <use xlink:href="#CMR17-71" transform="translate(35.801338 0) scale(0.996264)"/>
      <use xlink:href="#CMR17-72" transform="translate(84.094253 0) scale(0.996264)"/>
     </g>
    </g>
   </g>
  </g>
 </g>
 <defs>
  <clipPath id="p8ab4a26e50">
   <rect x="49.045121" y="10.8" width="249.754879" height="203.459776"/>
  </clipPath>
 </defs>
</svg>
