<?xml version="1.0" encoding="utf-8" standalone="no"?>
<!DOCTYPE svg PUBLIC "-//W3C//DTD SVG 1.1//EN"
  "http://www.w3.org/Graphics/SVG/1.1/DTD/svg11.dtd">
<svg xmlns:xlink="http://www.w3.org/1999/xlink" width="309.6pt" height="252pt" viewBox="0 0 309.6 252" xmlns="http://www.w3.org/2000/svg" version="1.1">
 <metadata>
  <rdf:RDF xmlns:dc="http://purl.org/dc/elements/1.1/" xmlns:cc="http://creativecommons.org/ns#" xmlns:rdf="http://www.w3.org/1999/02/22-rdf-syntax-ns#">
   <cc:Work>
    <dc:type rdf:resource="http://purl.org/dc/dcmitype/StillImage"/>
    <dc:date>2025-08-28T05:10:33.137310</dc:date>
    <dc:format>image/svg+xml</dc:format>
    <dc:creator>
     <cc:Agent>
      <dc:title>Matplotlib v3.10.5, https://matplotlib.org/</dc:title>
     </cc:Agent>
    </dc:creator>
   </cc:Work>
  </rdf:RDF>
 </metadata>
 <defs>
  <style type="text/css">*{stroke-linejoin: round; stroke-linecap: butt}</style>
 </defs>
 <g id="figure_1">
  <g id="patch_1">
   <path d="M 0 252 
L 309.6 252 
L 309.6 0 
L 0 0 
z
" style="fill: #ffffff"/>
  </g>
  <g id="axes_1">
   <g id="patch_2">
    <path d="M 64.602932 214.259776 
L 298.8 214.259776 
L 298.8 10.8 
L 64.602932 10.8 
z
" style="fill: #ffffff"/>
   </g>
   <g id="matplotlib.axis_1">
    <g id="xtick_1">
     <g id="line2d_1">
      <defs>
       <path id="m75aa5bc392" d="M 0 0 
L 0 3.5 
" style="stroke: #000000; stroke-width: 0.8"/>
      </defs>
      <g>
       <use xlink:href="#m75aa5bc392" x="280.188965" y="214.259776" style="stroke: #000000; stroke-width: 0.8"/>
      </g>
     </g>
     <g id="text_1">
      <!-- $\mathdefault{10^{2}}$ -->
      <g transform="translate(273.22201 228.178274) scale(0.1 -0.1)">
       <defs>
        <path id="CMR17-31" d="M 1702 4058 
C 1702 4192 1696 4192 1606 4192 
C 1357 3916 979 3827 621 3827 
C 602 3827 570 3827 563 3808 
C 557 3795 557 3782 557 3648 
C 755 3648 1088 3686 1344 3839 
L 1344 461 
C 1344 236 1331 160 781 160 
L 589 160 
L 589 0 
C 896 0 1216 0 1523 0 
C 1830 0 2150 0 2458 0 
L 2458 160 
L 2266 160 
C 1715 160 1702 230 1702 458 
L 1702 4058 
z
" transform="scale(0.015625)"/>
        <path id="CMR17-30" d="M 2688 2025 
C 2688 2416 2682 3080 2413 3591 
C 2176 4039 1798 4198 1466 4198 
C 1158 4198 768 4058 525 3597 
C 269 3118 243 2524 243 2025 
C 243 1661 250 1106 448 619 
C 723 -39 1216 -128 1466 -128 
C 1760 -128 2208 -7 2470 600 
C 2662 1042 2688 1559 2688 2025 
z
M 1466 -26 
C 1056 -26 813 325 723 812 
C 653 1188 653 1738 653 2096 
C 653 2588 653 2997 736 3387 
C 858 3929 1216 4096 1466 4096 
C 1728 4096 2067 3923 2189 3400 
C 2272 3036 2278 2607 2278 2096 
C 2278 1680 2278 1169 2202 792 
C 2067 95 1690 -26 1466 -26 
z
" transform="scale(0.015625)"/>
        <path id="CMR17-32" d="M 2669 989 
L 2554 989 
C 2490 536 2438 459 2413 420 
C 2381 369 1920 369 1830 369 
L 602 369 
C 832 619 1280 1072 1824 1597 
C 2214 1967 2669 2402 2669 3035 
C 2669 3790 2067 4224 1395 4224 
C 691 4224 262 3604 262 3030 
C 262 2780 448 2748 525 2748 
C 589 2748 781 2787 781 3010 
C 781 3207 614 3264 525 3264 
C 486 3264 448 3258 422 3245 
C 544 3790 915 4058 1306 4058 
C 1862 4058 2227 3617 2227 3035 
C 2227 2479 1901 2000 1536 1584 
L 262 146 
L 262 0 
L 2515 0 
L 2669 989 
z
" transform="scale(0.015625)"/>
       </defs>
       <use xlink:href="#CMR17-31" transform="scale(0.996264)"/>
       <use xlink:href="#CMR17-30" transform="translate(45.690477 0) scale(0.996264)"/>
       <use xlink:href="#CMR17-32" transform="translate(91.380954 36.153639) scale(0.697382)"/>
      </g>
     </g>
    </g>
    <g id="xtick_2">
     <g id="line2d_2">
      <defs>
       <path id="m4156532998" d="M 0 0 
L 0 2 
" style="stroke: #000000; stroke-width: 0.6"/>
      </defs>
      <g>
       <use xlink:href="#m4156532998" x="83.62264" y="214.259776" style="stroke: #000000; stroke-width: 0.6"/>
      </g>
     </g>
     <g id="text_2">
      <!-- $\mathdefault{3\times10^{1}}$ -->
      <g transform="translate(68.076781 226.662431) scale(0.1 -0.1)">
       <defs>
        <path id="CMR17-33" d="M 1414 2157 
C 1984 2157 2234 1662 2234 1090 
C 2234 320 1824 25 1453 25 
C 1114 25 563 194 390 693 
C 422 680 454 680 486 680 
C 640 680 755 782 755 948 
C 755 1133 614 1216 486 1216 
C 378 1216 211 1165 211 926 
C 211 335 787 -128 1466 -128 
C 2176 -128 2720 430 2720 1085 
C 2720 1707 2208 2157 1600 2227 
C 2086 2328 2554 2756 2554 3329 
C 2554 3820 2048 4179 1472 4179 
C 890 4179 378 3829 378 3329 
C 378 3110 544 3072 627 3072 
C 762 3072 877 3155 877 3321 
C 877 3486 762 3569 627 3569 
C 602 3569 570 3569 544 3557 
C 730 3959 1235 4032 1459 4032 
C 1683 4032 2106 3925 2106 3320 
C 2106 3143 2080 2828 1862 2550 
C 1670 2304 1453 2304 1242 2284 
C 1210 2284 1062 2269 1037 2269 
C 992 2263 966 2257 966 2208 
C 966 2163 973 2157 1101 2157 
L 1414 2157 
z
" transform="scale(0.015625)"/>
        <path id="CMSY10-2" d="M 2490 1785 
L 1210 3059 
C 1133 3136 1120 3148 1069 3148 
C 1005 3148 941 3091 941 3020 
C 941 2976 954 2963 1024 2892 
L 2304 1606 
L 1024 320 
C 954 249 941 236 941 192 
C 941 121 1005 64 1069 64 
C 1120 64 1133 76 1210 153 
L 2483 1427 
L 3808 102 
C 3821 96 3866 64 3904 64 
C 3981 64 4032 121 4032 192 
C 4032 204 4032 230 4013 262 
C 4006 275 2989 1280 2669 1606 
L 3840 2777 
C 3872 2816 3968 2899 4000 2937 
C 4006 2950 4032 2976 4032 3020 
C 4032 3091 3981 3148 3904 3148 
C 3853 3148 3827 3123 3757 3052 
L 2490 1785 
z
" transform="scale(0.015625)"/>
       </defs>
       <use xlink:href="#CMR17-33" transform="scale(0.996264)"/>
       <use xlink:href="#CMSY10-2" transform="translate(67.829684 0) scale(0.996264)"/>
       <use xlink:href="#CMR17-31" transform="translate(167.456359 0) scale(0.996264)"/>
       <use xlink:href="#CMR17-30" transform="translate(213.146836 0) scale(0.996264)"/>
       <use xlink:href="#CMR17-31" transform="translate(258.837313 36.153639) scale(0.697382)"/>
      </g>
     </g>
    </g>
    <g id="xtick_3">
     <g id="line2d_3">
      <g>
       <use xlink:href="#m4156532998" x="130.590983" y="214.259776" style="stroke: #000000; stroke-width: 0.6"/>
      </g>
     </g>
     <g id="text_3">
      <!-- $\mathdefault{4\times10^{1}}$ -->
      <g transform="translate(115.045124 226.662431) scale(0.1 -0.1)">
       <defs>
        <path id="CMR17-34" d="M 2150 4122 
C 2150 4256 2144 4256 2029 4256 
L 128 1254 
L 128 1088 
L 1779 1088 
L 1779 457 
C 1779 224 1766 160 1318 160 
L 1197 160 
L 1197 0 
C 1402 0 1747 0 1965 0 
C 2182 0 2528 0 2733 0 
L 2733 160 
L 2611 160 
C 2163 160 2150 224 2150 457 
L 2150 1088 
L 2803 1088 
L 2803 1254 
L 2150 1254 
L 2150 4122 
z
M 1798 3703 
L 1798 1254 
L 256 1254 
L 1798 3703 
z
" transform="scale(0.015625)"/>
       </defs>
       <use xlink:href="#CMR17-34" transform="scale(0.996264)"/>
       <use xlink:href="#CMSY10-2" transform="translate(67.829684 0) scale(0.996264)"/>
       <use xlink:href="#CMR17-31" transform="translate(167.456359 0) scale(0.996264)"/>
       <use xlink:href="#CMR17-30" transform="translate(213.146836 0) scale(0.996264)"/>
       <use xlink:href="#CMR17-31" transform="translate(258.837313 36.153639) scale(0.697382)"/>
      </g>
     </g>
    </g>
    <g id="xtick_4">
     <g id="line2d_4">
      <g>
       <use xlink:href="#m4156532998" x="167.02246" y="214.259776" style="stroke: #000000; stroke-width: 0.6"/>
      </g>
     </g>
    </g>
    <g id="xtick_5">
     <g id="line2d_5">
      <g>
       <use xlink:href="#m4156532998" x="196.789144" y="214.259776" style="stroke: #000000; stroke-width: 0.6"/>
      </g>
     </g>
     <g id="text_4">
      <!-- $\mathdefault{6\times10^{1}}$ -->
      <g transform="translate(181.243285 226.662431) scale(0.1 -0.1)">
       <defs>
        <path id="CMR17-36" d="M 678 2176 
C 678 3690 1395 4032 1811 4032 
C 1946 4032 2272 4009 2400 3776 
C 2298 3776 2106 3776 2106 3553 
C 2106 3381 2246 3323 2336 3323 
C 2394 3323 2566 3348 2566 3560 
C 2566 3954 2246 4179 1805 4179 
C 1043 4179 243 3390 243 1984 
C 243 253 966 -128 1478 -128 
C 2099 -128 2688 427 2688 1283 
C 2688 2081 2170 2662 1517 2662 
C 1126 2662 838 2407 678 1960 
L 678 2176 
z
M 1478 25 
C 691 25 691 1200 691 1436 
C 691 1896 909 2560 1504 2560 
C 1613 2560 1926 2560 2138 2120 
C 2253 1870 2253 1609 2253 1289 
C 2253 944 2253 690 2118 434 
C 1978 171 1773 25 1478 25 
z
" transform="scale(0.015625)"/>
       </defs>
       <use xlink:href="#CMR17-36" transform="scale(0.996264)"/>
       <use xlink:href="#CMSY10-2" transform="translate(67.829684 0) scale(0.996264)"/>
       <use xlink:href="#CMR17-31" transform="translate(167.456359 0) scale(0.996264)"/>
       <use xlink:href="#CMR17-30" transform="translate(213.146836 0) scale(0.996264)"/>
       <use xlink:href="#CMR17-31" transform="translate(258.837313 36.153639) scale(0.697382)"/>
      </g>
     </g>
    </g>
    <g id="xtick_6">
     <g id="line2d_6">
      <g>
       <use xlink:href="#m4156532998" x="221.956517" y="214.259776" style="stroke: #000000; stroke-width: 0.6"/>
      </g>
     </g>
    </g>
    <g id="xtick_7">
     <g id="line2d_7">
      <g>
       <use xlink:href="#m4156532998" x="243.757487" y="214.259776" style="stroke: #000000; stroke-width: 0.6"/>
      </g>
     </g>
    </g>
    <g id="xtick_8">
     <g id="line2d_8">
      <g>
       <use xlink:href="#m4156532998" x="262.987306" y="214.259776" style="stroke: #000000; stroke-width: 0.6"/>
      </g>
     </g>
    </g>
    <g id="text_5">
     <!-- $L$ -->
     <g transform="translate(178.821944 239.650254) scale(0.08 -0.08)">
      <defs>
       <path id="CMMI12-4c" d="M 2349 3861 
C 2406 4103 2426 4167 2989 4167 
C 3162 4167 3206 4167 3206 4288 
C 3206 4352 3136 4352 3110 4352 
C 2982 4352 2835 4352 2707 4352 
L 1850 4352 
C 1728 4352 1587 4352 1466 4352 
C 1414 4352 1344 4352 1344 4231 
C 1344 4167 1402 4167 1498 4167 
C 1888 4167 1888 4116 1888 4046 
C 1888 4034 1888 3995 1862 3899 
L 998 472 
C 941 249 928 185 480 185 
C 358 185 294 185 294 70 
C 294 0 333 0 461 0 
L 3328 0 
C 3469 0 3475 6 3520 121 
L 4013 1478 
C 4026 1510 4038 1548 4038 1567 
C 4038 1605 4006 1631 3974 1631 
C 3968 1631 3936 1631 3923 1605 
C 3910 1599 3910 1586 3859 1465 
C 3654 905 3366 185 2285 185 
L 1670 185 
C 1581 185 1568 185 1530 192 
C 1459 198 1453 211 1453 262 
C 1453 307 1466 345 1478 401 
L 2349 3861 
z
" transform="scale(0.015625)"/>
      </defs>
      <use xlink:href="#CMMI12-4c" transform="scale(0.996264)"/>
     </g>
    </g>
   </g>
   <g id="matplotlib.axis_2">
    <g id="ytick_1">
     <g id="line2d_9">
      <defs>
       <path id="mc0c9352140" d="M 0 0 
L -3.5 0 
" style="stroke: #000000; stroke-width: 0.8"/>
      </defs>
      <g>
       <use xlink:href="#mc0c9352140" x="64.602932" y="65.192338" style="stroke: #000000; stroke-width: 0.8"/>
      </g>
     </g>
     <g id="text_6">
      <!-- $\mathdefault{10^{-2}}$ -->
      <g transform="translate(37.442358 68.651587) scale(0.1 -0.1)">
       <defs>
        <path id="CMSY10-0" d="M 4218 1472 
C 4326 1472 4442 1472 4442 1600 
C 4442 1728 4326 1728 4218 1728 
L 755 1728 
C 646 1728 531 1728 531 1600 
C 531 1472 646 1472 755 1472 
L 4218 1472 
z
" transform="scale(0.015625)"/>
       </defs>
       <use xlink:href="#CMR17-31" transform="scale(0.996264)"/>
       <use xlink:href="#CMR17-30" transform="translate(45.690477 0) scale(0.996264)"/>
       <use xlink:href="#CMSY10-0" transform="translate(91.380954 36.153639) scale(0.697382)"/>
       <use xlink:href="#CMR17-32" transform="translate(145.621947 36.153639) scale(0.697382)"/>
      </g>
     </g>
    </g>
    <g id="ytick_2">
     <g id="line2d_10">
      <defs>
       <path id="ma30802b2a0" d="M 0 0 
L -2 0 
" style="stroke: #000000; stroke-width: 0.6"/>
      </defs>
      <g>
       <use xlink:href="#ma30802b2a0" x="64.602932" y="201.94688" style="stroke: #000000; stroke-width: 0.6"/>
      </g>
     </g>
     <g id="text_7">
      <!-- $\mathdefault{3\times10^{-3}}$ -->
      <g transform="translate(21.884547 205.448208) scale(0.1 -0.1)">
       <use xlink:href="#CMR17-33" transform="scale(0.996264)"/>
       <use xlink:href="#CMSY10-2" transform="translate(67.829684 0) scale(0.996264)"/>
       <use xlink:href="#CMR17-31" transform="translate(167.456359 0) scale(0.996264)"/>
       <use xlink:href="#CMR17-30" transform="translate(213.146836 0) scale(0.996264)"/>
       <use xlink:href="#CMSY10-0" transform="translate(258.837313 36.153639) scale(0.697382)"/>
       <use xlink:href="#CMR17-33" transform="translate(313.078306 36.153639) scale(0.697382)"/>
      </g>
     </g>
    </g>
    <g id="ytick_3">
     <g id="line2d_11">
      <g>
       <use xlink:href="#ma30802b2a0" x="64.602932" y="169.270203" style="stroke: #000000; stroke-width: 0.6"/>
      </g>
     </g>
     <g id="text_8">
      <!-- $\mathdefault{4\times10^{-3}}$ -->
      <g transform="translate(21.884547 172.771531) scale(0.1 -0.1)">
       <use xlink:href="#CMR17-34" transform="scale(0.996264)"/>
       <use xlink:href="#CMSY10-2" transform="translate(67.829684 0) scale(0.996264)"/>
       <use xlink:href="#CMR17-31" transform="translate(167.456359 0) scale(0.996264)"/>
       <use xlink:href="#CMR17-30" transform="translate(213.146836 0) scale(0.996264)"/>
       <use xlink:href="#CMSY10-0" transform="translate(258.837313 36.153639) scale(0.697382)"/>
       <use xlink:href="#CMR17-33" transform="translate(313.078306 36.153639) scale(0.697382)"/>
      </g>
     </g>
    </g>
    <g id="ytick_4">
     <g id="line2d_12">
      <g>
       <use xlink:href="#ma30802b2a0" x="64.602932" y="143.924204" style="stroke: #000000; stroke-width: 0.6"/>
      </g>
     </g>
    </g>
    <g id="ytick_5">
     <g id="line2d_13">
      <g>
       <use xlink:href="#ma30802b2a0" x="64.602932" y="123.215014" style="stroke: #000000; stroke-width: 0.6"/>
      </g>
     </g>
     <g id="text_9">
      <!-- $\mathdefault{6\times10^{-3}}$ -->
      <g transform="translate(21.884547 126.716342) scale(0.1 -0.1)">
       <use xlink:href="#CMR17-36" transform="scale(0.996264)"/>
       <use xlink:href="#CMSY10-2" transform="translate(67.829684 0) scale(0.996264)"/>
       <use xlink:href="#CMR17-31" transform="translate(167.456359 0) scale(0.996264)"/>
       <use xlink:href="#CMR17-30" transform="translate(213.146836 0) scale(0.996264)"/>
       <use xlink:href="#CMSY10-0" transform="translate(258.837313 36.153639) scale(0.697382)"/>
       <use xlink:href="#CMR17-33" transform="translate(313.078306 36.153639) scale(0.697382)"/>
      </g>
     </g>
    </g>
    <g id="ytick_6">
     <g id="line2d_14">
      <g>
       <use xlink:href="#ma30802b2a0" x="64.602932" y="105.705644" style="stroke: #000000; stroke-width: 0.6"/>
      </g>
     </g>
    </g>
    <g id="ytick_7">
     <g id="line2d_15">
      <g>
       <use xlink:href="#ma30802b2a0" x="64.602932" y="90.538338" style="stroke: #000000; stroke-width: 0.6"/>
      </g>
     </g>
    </g>
    <g id="ytick_8">
     <g id="line2d_16">
      <g>
       <use xlink:href="#ma30802b2a0" x="64.602932" y="77.159825" style="stroke: #000000; stroke-width: 0.6"/>
      </g>
     </g>
    </g>
    <g id="text_10">
     <!-- $\beta_{cr}-\beta_{max}$ -->
     <g transform="translate(16.334802 133.578823) rotate(-90) scale(0.08 -0.08)">
      <defs>
       <path id="CMMI12-c" d="M 3622 3701 
C 3622 4081 3296 4480 2714 4480 
C 1888 4480 1363 3477 1197 2816 
L 186 -1172 
C 173 -1223 211 -1236 243 -1236 
C 288 -1236 320 -1230 326 -1198 
L 774 586 
C 838 229 1190 -64 1568 -64 
C 2483 -64 3347 650 3347 1599 
C 3347 1841 3290 2083 3155 2287 
C 3078 2408 2982 2497 2880 2574 
C 3341 2815 3622 3200 3622 3701 
z
M 2509 2580 
C 2406 2542 2304 2529 2182 2529 
C 2093 2529 2010 2523 1894 2561 
C 1958 2606 2054 2618 2189 2618 
C 2304 2618 2419 2606 2509 2580 
z
M 3290 3758 
C 3290 3410 3117 2903 2701 2669 
C 2579 2718 2413 2752 2272 2752 
C 2138 2752 1754 2752 1754 2555 
C 1754 2389 2106 2389 2214 2389 
C 2381 2389 2528 2432 2682 2484 
C 2886 2318 2976 2101 2976 1783 
C 2976 1413 2874 1115 2752 841 
C 2541 369 2042 64 1600 64 
C 1133 64 890 432 890 864 
C 890 922 890 1005 915 1099 
L 1331 2771 
C 1542 3603 2080 4353 2701 4353 
C 3162 4353 3290 4036 3290 3758 
z
" transform="scale(0.015625)"/>
       <path id="CMMI12-63" d="M 2502 2431 
C 2381 2431 2323 2431 2234 2355 
C 2195 2323 2125 2227 2125 2125 
C 2125 1997 2221 1920 2342 1920 
C 2496 1920 2669 2044 2669 2292 
C 2669 2588 2374 2816 1933 2816 
C 1094 2816 256 1903 256 996 
C 256 441 602 -64 1254 -64 
C 2125 -64 2675 622 2675 706 
C 2675 744 2637 776 2611 776 
C 2592 776 2586 770 2528 713 
C 2118 162 1510 64 1267 64 
C 826 64 685 446 685 764 
C 685 988 794 1605 1024 2039 
C 1190 2338 1536 2682 1939 2682 
C 2022 2682 2374 2682 2502 2431 
z
" transform="scale(0.015625)"/>
       <path id="CMMI12-72" d="M 2490 2612 
C 2291 2574 2189 2433 2189 2293 
C 2189 2139 2310 2088 2400 2088 
C 2579 2088 2726 2242 2726 2433 
C 2726 2638 2528 2816 2208 2816 
C 1952 2816 1658 2701 1389 2312 
C 1344 2650 1088 2816 832 2816 
C 582 2816 454 2625 378 2484 
C 269 2254 173 1871 173 1839 
C 173 1814 198 1782 243 1782 
C 294 1782 301 1788 339 1935 
C 435 2318 557 2689 813 2689 
C 966 2689 1011 2580 1011 2395 
C 1011 2254 947 2005 902 1807 
L 723 1118 
C 698 996 627 709 595 594 
C 550 428 480 128 480 96 
C 480 6 550 -64 646 -64 
C 717 -64 838 -19 877 109 
C 896 160 1133 1124 1171 1271 
C 1203 1411 1242 1546 1274 1686 
C 1299 1775 1325 1878 1344 1961 
C 1363 2018 1536 2331 1696 2472 
C 1773 2542 1939 2689 2202 2689 
C 2304 2689 2406 2670 2490 2612 
z
" transform="scale(0.015625)"/>
       <path id="CMMI12-6d" d="M 1318 1871 
C 1331 1910 1491 2229 1728 2433 
C 1894 2586 2112 2689 2362 2689 
C 2618 2689 2707 2497 2707 2242 
C 2707 2203 2707 2076 2630 1775 
L 2470 1118 
C 2419 926 2298 453 2285 383 
C 2259 287 2221 121 2221 96 
C 2221 6 2291 -64 2387 -64 
C 2579 -64 2611 83 2669 313 
L 3053 1839 
C 3066 1890 3398 2689 4102 2689 
C 4358 2689 4448 2497 4448 2242 
C 4448 1884 4198 1188 4058 805 
C 4000 651 3968 568 3968 453 
C 3968 166 4166 -64 4474 -64 
C 5069 -64 5293 875 5293 913 
C 5293 945 5267 971 5229 971 
C 5171 971 5165 952 5133 843 
C 4986 332 4749 64 4493 64 
C 4429 64 4326 64 4326 269 
C 4326 436 4403 640 4429 710 
C 4544 1018 4832 1773 4832 2145 
C 4832 2528 4608 2816 4122 2816 
C 3693 2816 3347 2574 3091 2197 
C 3072 2542 2861 2816 2381 2816 
C 1811 2816 1510 2415 1395 2255 
C 1376 2618 1114 2816 832 2816 
C 646 2816 499 2727 378 2484 
C 262 2254 173 1865 173 1839 
C 173 1814 198 1782 243 1782 
C 294 1782 301 1788 339 1935 
C 435 2312 557 2689 813 2689 
C 960 2689 1011 2586 1011 2395 
C 1011 2254 947 2005 902 1807 
L 723 1118 
C 698 996 627 709 595 594 
C 550 428 480 128 480 96 
C 480 6 550 -64 646 -64 
C 723 -64 813 -26 864 70 
C 877 102 934 326 966 453 
L 1107 1028 
L 1318 1871 
z
" transform="scale(0.015625)"/>
       <path id="CMMI12-61" d="M 1926 760 
C 1894 651 1894 639 1805 517 
C 1664 338 1382 64 1082 64 
C 819 64 672 300 672 677 
C 672 1028 870 1743 992 2012 
C 1210 2459 1510 2689 1760 2689 
C 2182 2689 2266 2165 2266 2114 
C 2266 2108 2246 2024 2240 2012 
L 1926 760 
z
M 2336 2395 
C 2266 2561 2093 2816 1760 2816 
C 1037 2816 256 1884 256 939 
C 256 307 627 -64 1062 -64 
C 1414 -64 1715 211 1894 422 
C 1958 45 2259 -64 2451 -64 
C 2643 -64 2797 51 2912 281 
C 3014 498 3104 888 3104 913 
C 3104 945 3078 971 3040 971 
C 2982 971 2976 939 2950 843 
C 2854 466 2733 64 2470 64 
C 2285 64 2272 230 2272 358 
C 2272 505 2291 575 2349 824 
C 2394 984 2426 1124 2477 1309 
C 2714 2267 2771 2497 2771 2535 
C 2771 2625 2701 2695 2605 2695 
C 2400 2695 2349 2472 2336 2395 
z
" transform="scale(0.015625)"/>
       <path id="CMMI12-78" d="M 3034 2606 
C 2829 2567 2752 2414 2752 2293 
C 2752 2139 2874 2088 2963 2088 
C 3155 2088 3290 2254 3290 2427 
C 3290 2695 2982 2816 2714 2816 
C 2323 2816 2106 2433 2048 2312 
C 1901 2816 1504 2816 1389 2816 
C 736 2816 390 1980 390 1839 
C 390 1814 416 1782 461 1782 
C 512 1782 525 1820 538 1846 
C 755 2555 1184 2689 1370 2689 
C 1658 2689 1715 2420 1715 2267 
C 1715 2127 1677 1980 1600 1673 
L 1382 798 
C 1286 415 1101 64 762 64 
C 730 64 570 64 435 147 
C 666 192 717 383 717 460 
C 717 588 621 664 499 664 
C 346 664 179 530 179 326 
C 179 57 480 -64 755 -64 
C 1062 -64 1280 179 1414 441 
C 1517 64 1837 -64 2074 -64 
C 2726 -64 3072 773 3072 913 
C 3072 945 3046 971 3008 971 
C 2950 971 2944 939 2925 888 
C 2752 326 2381 64 2093 64 
C 1869 64 1747 230 1747 492 
C 1747 632 1773 734 1875 1156 
L 2099 2024 
C 2195 2408 2413 2689 2707 2689 
C 2720 2689 2899 2689 3034 2606 
z
" transform="scale(0.015625)"/>
      </defs>
      <use xlink:href="#CMMI12-c" transform="scale(0.996264)"/>
      <use xlink:href="#CMMI12-63" transform="translate(55.070737 -14.943915) scale(0.697382)"/>
      <use xlink:href="#CMMI12-72" transform="translate(84.458868 -14.943915) scale(0.697382)"/>
      <use xlink:href="#CMSY10-0" transform="translate(139.765476 0) scale(0.996264)"/>
      <use xlink:href="#CMMI12-c" transform="translate(239.392151 0) scale(0.996264)"/>
      <use xlink:href="#CMMI12-6d" transform="translate(294.462888 -14.943915) scale(0.697382)"/>
      <use xlink:href="#CMMI12-61" transform="translate(354.191679 -14.943915) scale(0.697382)"/>
      <use xlink:href="#CMMI12-78" transform="translate(390.037025 -14.943915) scale(0.697382)"/>
     </g>
    </g>
   </g>
   <g id="LineCollection_1">
    <path d="M 83.62264 30.077589 
L 83.62264 24.33413 
" clip-path="url(#p60b7c75cad)" style="fill: none; stroke: #0040df; stroke-width: 1.5"/>
    <path d="M 104.05737 40.660812 
L 104.05737 34.885761 
" clip-path="url(#p60b7c75cad)" style="fill: none; stroke: #0040df; stroke-width: 1.5"/>
    <path d="M 122.216596 64.179142 
L 122.216596 53.198878 
" clip-path="url(#p60b7c75cad)" style="fill: none; stroke: #0040df; stroke-width: 1.5"/>
    <path d="M 146.151776 77.236828 
L 146.151776 71.586372 
" clip-path="url(#p60b7c75cad)" style="fill: none; stroke: #0040df; stroke-width: 1.5"/>
    <path d="M 160.357667 87.063156 
L 160.357667 81.548435 
" clip-path="url(#p60b7c75cad)" style="fill: none; stroke: #0040df; stroke-width: 1.5"/>
    <path d="M 179.587486 101.096005 
L 179.587486 94.447535 
" clip-path="url(#p60b7c75cad)" style="fill: none; stroke: #0040df; stroke-width: 1.5"/>
    <path d="M 202.142567 115.212245 
L 202.142567 110.603944 
" clip-path="url(#p60b7c75cad)" style="fill: none; stroke: #0040df; stroke-width: 1.5"/>
    <path d="M 221.956517 137.053575 
L 221.956517 129.328652 
" clip-path="url(#p60b7c75cad)" style="fill: none; stroke: #0040df; stroke-width: 1.5"/>
    <path d="M 243.757487 144.237355 
L 243.757487 140.209504 
" clip-path="url(#p60b7c75cad)" style="fill: none; stroke: #0040df; stroke-width: 1.5"/>
    <path d="M 262.987306 166.583675 
L 262.987306 159.917031 
" clip-path="url(#p60b7c75cad)" style="fill: none; stroke: #0040df; stroke-width: 1.5"/>
    <path d="M 280.188965 179.301815 
L 280.188965 165.981749 
" clip-path="url(#p60b7c75cad)" style="fill: none; stroke: #0040df; stroke-width: 1.5"/>
   </g>
   <g id="line2d_17">
    <defs>
     <path id="m13907be95b" d="M 2 0 
L -2 -0 
" style="stroke: #0040df"/>
    </defs>
    <g clip-path="url(#p60b7c75cad)">
     <use xlink:href="#m13907be95b" x="83.62264" y="30.077589" style="fill: #0040df; stroke: #0040df"/>
     <use xlink:href="#m13907be95b" x="104.05737" y="40.660812" style="fill: #0040df; stroke: #0040df"/>
     <use xlink:href="#m13907be95b" x="122.216596" y="64.179142" style="fill: #0040df; stroke: #0040df"/>
     <use xlink:href="#m13907be95b" x="146.151776" y="77.236828" style="fill: #0040df; stroke: #0040df"/>
     <use xlink:href="#m13907be95b" x="160.357667" y="87.063156" style="fill: #0040df; stroke: #0040df"/>
     <use xlink:href="#m13907be95b" x="179.587486" y="101.096005" style="fill: #0040df; stroke: #0040df"/>
     <use xlink:href="#m13907be95b" x="202.142567" y="115.212245" style="fill: #0040df; stroke: #0040df"/>
     <use xlink:href="#m13907be95b" x="221.956517" y="137.053575" style="fill: #0040df; stroke: #0040df"/>
     <use xlink:href="#m13907be95b" x="243.757487" y="144.237355" style="fill: #0040df; stroke: #0040df"/>
     <use xlink:href="#m13907be95b" x="262.987306" y="166.583675" style="fill: #0040df; stroke: #0040df"/>
     <use xlink:href="#m13907be95b" x="280.188965" y="179.301815" style="fill: #0040df; stroke: #0040df"/>
    </g>
   </g>
   <g id="line2d_18">
    <g clip-path="url(#p60b7c75cad)">
     <use xlink:href="#m13907be95b" x="83.62264" y="24.33413" style="fill: #0040df; stroke: #0040df"/>
     <use xlink:href="#m13907be95b" x="104.05737" y="34.885761" style="fill: #0040df; stroke: #0040df"/>
     <use xlink:href="#m13907be95b" x="122.216596" y="53.198878" style="fill: #0040df; stroke: #0040df"/>
     <use xlink:href="#m13907be95b" x="146.151776" y="71.586372" style="fill: #0040df; stroke: #0040df"/>
     <use xlink:href="#m13907be95b" x="160.357667" y="81.548435" style="fill: #0040df; stroke: #0040df"/>
     <use xlink:href="#m13907be95b" x="179.587486" y="94.447535" style="fill: #0040df; stroke: #0040df"/>
     <use xlink:href="#m13907be95b" x="202.142567" y="110.603944" style="fill: #0040df; stroke: #0040df"/>
     <use xlink:href="#m13907be95b" x="221.956517" y="129.328652" style="fill: #0040df; stroke: #0040df"/>
     <use xlink:href="#m13907be95b" x="243.757487" y="140.209504" style="fill: #0040df; stroke: #0040df"/>
     <use xlink:href="#m13907be95b" x="262.987306" y="159.917031" style="fill: #0040df; stroke: #0040df"/>
     <use xlink:href="#m13907be95b" x="280.188965" y="165.981749" style="fill: #0040df; stroke: #0040df"/>
    </g>
   </g>
   <g id="line2d_19">
    <path d="M 75.248253 20.048172 
L 79.615942 23.287303 
L 83.869824 26.442034 
L 88.015679 29.516652 
L 92.058858 32.515123 
L 96.004325 35.44113 
L 99.856691 38.298092 
L 103.620249 41.089192 
L 107.299 43.8174 
L 110.896684 46.485486 
L 114.416796 49.096045 
L 117.862611 51.651503 
L 121.2372 54.15414 
L 124.543449 56.606095 
L 127.78407 59.009379 
L 130.961618 61.365888 
L 134.078502 63.677408 
L 137.136995 65.945623 
L 140.139244 68.172128 
L 143.08728 70.358428 
L 145.983027 72.50595 
L 148.828308 74.616044 
L 151.62485 76.689995 
L 154.374297 78.729018 
L 157.078208 80.734272 
L 159.738066 82.706855 
L 162.355285 84.647817 
L 164.931209 86.558154 
L 167.467122 88.438818 
L 169.964247 90.290717 
L 172.423754 92.114717 
L 174.846758 93.911647 
L 177.234329 95.682299 
L 179.587486 97.427429 
L 181.907208 99.147764 
L 184.194432 100.843997 
L 186.450055 102.516795 
L 188.67494 104.166797 
L 190.869913 105.794616 
L 193.035766 107.400839 
L 195.173264 108.986034 
L 197.283138 110.550742 
L 199.366094 112.095488 
L 201.422809 113.620773 
L 203.453937 115.127083 
L 205.460107 116.614883 
L 207.441924 118.084623 
L 209.399973 119.536736 
L 211.334817 120.97164 
L 213.246999 122.389738 
L 215.137044 123.791419 
L 217.00546 125.177059 
L 218.852735 126.54702 
L 220.679342 127.901655 
L 222.485739 129.241301 
L 224.272368 130.566287 
L 226.039658 131.876931 
L 227.788021 133.173539 
L 229.51786 134.456409 
L 231.229563 135.725829 
L 232.923506 136.982078 
L 234.600054 138.225426 
L 236.259561 139.456137 
L 237.902369 140.674463 
L 239.528811 141.880653 
L 241.139211 143.074945 
L 242.733881 144.257572 
L 244.313125 145.428759 
L 245.87724 146.588726 
L 247.426513 147.737685 
L 248.961222 148.875844 
L 250.481639 150.003404 
L 251.988027 151.12056 
L 253.480643 152.227503 
L 254.959737 153.324417 
L 256.425552 154.411483 
L 257.878323 155.488876 
L 259.318281 156.556767 
L 260.745649 157.615321 
L 262.160647 158.664701 
L 263.563487 159.705064 
L 264.954375 160.736563 
L 266.333514 161.75935 
L 267.701101 162.773569 
L 269.057327 163.779363 
L 270.402379 164.776871 
L 271.736442 165.766227 
L 273.059691 166.747566 
L 274.372302 167.721014 
L 275.674444 168.686699 
L 276.966283 169.644742 
L 278.24798 170.595264 
L 279.519693 171.538383 
L 280.781578 172.474212 
L 282.033784 173.402863 
L 283.276458 174.324446 
L 284.509746 175.239067 
L 285.733788 176.146831 
L 286.94872 177.04784 
L 288.154679 177.942194 
" clip-path="url(#p60b7c75cad)" style="fill: none; stroke: #0040df; stroke-opacity: 0.5; stroke-width: 1.5; stroke-linecap: square"/>
   </g>
   <g id="LineCollection_2">
    <path d="M 83.62264 81.395532 
L 83.62264 73.41011 
" clip-path="url(#p60b7c75cad)" style="fill: none; stroke: #00c09f; stroke-width: 1.5"/>
    <path d="M 104.05737 187.978206 
L 104.05737 84.64898 
" clip-path="url(#p60b7c75cad)" style="fill: none; stroke: #00c09f; stroke-width: 1.5"/>
    <path d="M 122.216596 103.706909 
L 122.216596 97.823085 
" clip-path="url(#p60b7c75cad)" style="fill: none; stroke: #00c09f; stroke-width: 1.5"/>
    <path d="M 146.151776 120.513586 
L 146.151776 113.893388 
" clip-path="url(#p60b7c75cad)" style="fill: none; stroke: #00c09f; stroke-width: 1.5"/>
    <path d="M 160.357667 125.533352 
L 160.357667 119.580456 
" clip-path="url(#p60b7c75cad)" style="fill: none; stroke: #00c09f; stroke-width: 1.5"/>
    <path d="M 179.587486 145.099204 
L 179.587486 136.082511 
" clip-path="url(#p60b7c75cad)" style="fill: none; stroke: #00c09f; stroke-width: 1.5"/>
    <path d="M 202.142567 182.603739 
L 202.142567 155.136614 
" clip-path="url(#p60b7c75cad)" style="fill: none; stroke: #00c09f; stroke-width: 1.5"/>
    <path d="M 221.956517 166.104629 
L 221.956517 161.836937 
" clip-path="url(#p60b7c75cad)" style="fill: none; stroke: #00c09f; stroke-width: 1.5"/>
    <path d="M 243.757487 180.373928 
L 243.757487 174.190579 
" clip-path="url(#p60b7c75cad)" style="fill: none; stroke: #00c09f; stroke-width: 1.5"/>
    <path d="M 262.987306 187.541 
L 262.987306 180.190553 
" clip-path="url(#p60b7c75cad)" style="fill: none; stroke: #00c09f; stroke-width: 1.5"/>
    <path d="M 280.188965 203.250682 
L 280.188965 198.948134 
" clip-path="url(#p60b7c75cad)" style="fill: none; stroke: #00c09f; stroke-width: 1.5"/>
   </g>
   <g id="line2d_20">
    <defs>
     <path id="m5d131bf578" d="M 2 0 
L -2 -0 
" style="stroke: #00c09f"/>
    </defs>
    <g clip-path="url(#p60b7c75cad)">
     <use xlink:href="#m5d131bf578" x="83.62264" y="81.395532" style="fill: #00c09f; stroke: #00c09f"/>
     <use xlink:href="#m5d131bf578" x="104.05737" y="187.978206" style="fill: #00c09f; stroke: #00c09f"/>
     <use xlink:href="#m5d131bf578" x="122.216596" y="103.706909" style="fill: #00c09f; stroke: #00c09f"/>
     <use xlink:href="#m5d131bf578" x="146.151776" y="120.513586" style="fill: #00c09f; stroke: #00c09f"/>
     <use xlink:href="#m5d131bf578" x="160.357667" y="125.533352" style="fill: #00c09f; stroke: #00c09f"/>
     <use xlink:href="#m5d131bf578" x="179.587486" y="145.099204" style="fill: #00c09f; stroke: #00c09f"/>
     <use xlink:href="#m5d131bf578" x="202.142567" y="182.603739" style="fill: #00c09f; stroke: #00c09f"/>
     <use xlink:href="#m5d131bf578" x="221.956517" y="166.104629" style="fill: #00c09f; stroke: #00c09f"/>
     <use xlink:href="#m5d131bf578" x="243.757487" y="180.373928" style="fill: #00c09f; stroke: #00c09f"/>
     <use xlink:href="#m5d131bf578" x="262.987306" y="187.541" style="fill: #00c09f; stroke: #00c09f"/>
     <use xlink:href="#m5d131bf578" x="280.188965" y="203.250682" style="fill: #00c09f; stroke: #00c09f"/>
    </g>
   </g>
   <g id="line2d_21">
    <g clip-path="url(#p60b7c75cad)">
     <use xlink:href="#m5d131bf578" x="83.62264" y="73.41011" style="fill: #00c09f; stroke: #00c09f"/>
     <use xlink:href="#m5d131bf578" x="104.05737" y="84.64898" style="fill: #00c09f; stroke: #00c09f"/>
     <use xlink:href="#m5d131bf578" x="122.216596" y="97.823085" style="fill: #00c09f; stroke: #00c09f"/>
     <use xlink:href="#m5d131bf578" x="146.151776" y="113.893388" style="fill: #00c09f; stroke: #00c09f"/>
     <use xlink:href="#m5d131bf578" x="160.357667" y="119.580456" style="fill: #00c09f; stroke: #00c09f"/>
     <use xlink:href="#m5d131bf578" x="179.587486" y="136.082511" style="fill: #00c09f; stroke: #00c09f"/>
     <use xlink:href="#m5d131bf578" x="202.142567" y="155.136614" style="fill: #00c09f; stroke: #00c09f"/>
     <use xlink:href="#m5d131bf578" x="221.956517" y="161.836937" style="fill: #00c09f; stroke: #00c09f"/>
     <use xlink:href="#m5d131bf578" x="243.757487" y="174.190579" style="fill: #00c09f; stroke: #00c09f"/>
     <use xlink:href="#m5d131bf578" x="262.987306" y="180.190553" style="fill: #00c09f; stroke: #00c09f"/>
     <use xlink:href="#m5d131bf578" x="280.188965" y="198.948134" style="fill: #00c09f; stroke: #00c09f"/>
    </g>
   </g>
   <g id="line2d_22">
    <path d="M 75.248253 71.866336 
L 79.615942 74.597758 
L 83.869824 77.258007 
L 88.015679 79.8507 
L 92.058858 82.379183 
L 96.004325 84.846559 
L 99.856691 87.255712 
L 103.620249 89.609328 
L 107.299 91.909909 
L 110.896684 94.159792 
L 114.416796 96.361164 
L 117.862611 98.516073 
L 121.2372 100.626439 
L 124.543449 102.694068 
L 127.78407 104.720654 
L 130.961618 106.707797 
L 134.078502 108.657003 
L 137.136995 110.569692 
L 140.139244 112.447208 
L 143.08728 114.290821 
L 145.983027 116.101734 
L 148.828308 117.881087 
L 151.62485 119.629961 
L 154.374297 121.349382 
L 157.078208 123.040326 
L 159.738066 124.703721 
L 162.355285 126.340451 
L 164.931209 127.951356 
L 167.467122 129.53724 
L 169.964247 131.098867 
L 172.423754 132.636969 
L 174.846758 134.152243 
L 177.234329 135.645357 
L 179.587486 137.116951 
L 181.907208 138.567635 
L 184.194432 139.997996 
L 186.450055 141.408595 
L 188.67494 142.799971 
L 190.869913 144.172641 
L 193.035766 145.527101 
L 195.173264 146.863827 
L 197.283138 148.183279 
L 199.366094 149.485897 
L 201.422809 150.772105 
L 203.453937 152.042311 
L 205.460107 153.296909 
L 207.441924 154.536278 
L 209.399973 155.760783 
L 211.334817 156.970776 
L 213.246999 158.166597 
L 215.137044 159.348574 
L 217.00546 160.517025 
L 218.852735 161.672255 
L 220.679342 162.81456 
L 222.485739 163.944227 
L 224.272368 165.061531 
L 226.039658 166.16674 
L 227.788021 167.260114 
L 229.51786 168.341904 
L 231.229563 169.412351 
L 232.923506 170.471692 
L 234.600054 171.520155 
L 236.259561 172.55796 
L 237.902369 173.585323 
L 239.528811 174.602451 
L 241.139211 175.609546 
L 242.733881 176.606805 
L 244.313125 177.594417 
L 245.87724 178.572567 
L 247.426513 179.541436 
L 248.961222 180.501196 
L 250.481639 181.452019 
L 251.988027 182.394069 
L 253.480643 183.327506 
L 254.959737 184.252487 
L 256.425552 185.169163 
L 257.878323 186.077683 
L 259.318281 186.978189 
L 260.745649 187.870822 
L 262.160647 188.75572 
L 263.563487 189.633013 
L 264.954375 190.502833 
L 266.333514 191.365305 
L 267.701101 192.220552 
L 269.057327 193.068695 
L 270.402379 193.909851 
L 271.736442 194.744133 
L 273.059691 195.571654 
L 274.372302 196.392521 
L 275.674444 197.206841 
L 276.966283 198.014718 
L 278.24798 198.816253 
L 279.519693 199.611544 
L 280.781578 200.400689 
L 282.033784 201.183781 
L 283.276458 201.960912 
L 284.509746 202.732173 
L 285.733788 203.497652 
L 286.94872 204.257434 
L 288.154679 205.011604 
" clip-path="url(#p60b7c75cad)" style="fill: none; stroke: #00c09f; stroke-opacity: 0.5; stroke-width: 1.5; stroke-linecap: square"/>
   </g>
   <g id="LineCollection_3">
    <path d="M 83.62264 33.826574 
L 83.62264 21.047042 
" clip-path="url(#p60b7c75cad)" style="fill: none; stroke: #0080bf; stroke-width: 1.5"/>
    <path d="M 104.05737 37.831867 
L 104.05737 30.811365 
" clip-path="url(#p60b7c75cad)" style="fill: none; stroke: #0080bf; stroke-width: 1.5"/>
    <path d="M 122.216596 48.13015 
L 122.216596 42.067443 
" clip-path="url(#p60b7c75cad)" style="fill: none; stroke: #0080bf; stroke-width: 1.5"/>
    <path d="M 146.151776 68.978737 
L 146.151776 59.511114 
" clip-path="url(#p60b7c75cad)" style="fill: none; stroke: #0080bf; stroke-width: 1.5"/>
    <path d="M 160.357667 68.99504 
L 160.357667 64.396876 
" clip-path="url(#p60b7c75cad)" style="fill: none; stroke: #0080bf; stroke-width: 1.5"/>
    <path d="M 179.587486 75.965457 
L 179.587486 72.363223 
" clip-path="url(#p60b7c75cad)" style="fill: none; stroke: #0080bf; stroke-width: 1.5"/>
    <path d="M 202.142567 89.573919 
L 202.142567 87.073708 
" clip-path="url(#p60b7c75cad)" style="fill: none; stroke: #0080bf; stroke-width: 1.5"/>
    <path d="M 221.956517 98.898383 
L 221.956517 96.340828 
" clip-path="url(#p60b7c75cad)" style="fill: none; stroke: #0080bf; stroke-width: 1.5"/>
    <path d="M 243.757487 116.505971 
L 243.757487 111.604687 
" clip-path="url(#p60b7c75cad)" style="fill: none; stroke: #0080bf; stroke-width: 1.5"/>
    <path d="M 262.987306 122.828159 
L 262.987306 120.204368 
" clip-path="url(#p60b7c75cad)" style="fill: none; stroke: #0080bf; stroke-width: 1.5"/>
    <path d="M 280.188965 130.254474 
L 280.188965 127.931324 
" clip-path="url(#p60b7c75cad)" style="fill: none; stroke: #0080bf; stroke-width: 1.5"/>
   </g>
   <g id="line2d_23">
    <defs>
     <path id="m993187551d" d="M 2 0 
L -2 -0 
" style="stroke: #0080bf"/>
    </defs>
    <g clip-path="url(#p60b7c75cad)">
     <use xlink:href="#m993187551d" x="83.62264" y="33.826574" style="fill: #0080bf; stroke: #0080bf"/>
     <use xlink:href="#m993187551d" x="104.05737" y="37.831867" style="fill: #0080bf; stroke: #0080bf"/>
     <use xlink:href="#m993187551d" x="122.216596" y="48.13015" style="fill: #0080bf; stroke: #0080bf"/>
     <use xlink:href="#m993187551d" x="146.151776" y="68.978737" style="fill: #0080bf; stroke: #0080bf"/>
     <use xlink:href="#m993187551d" x="160.357667" y="68.99504" style="fill: #0080bf; stroke: #0080bf"/>
     <use xlink:href="#m993187551d" x="179.587486" y="75.965457" style="fill: #0080bf; stroke: #0080bf"/>
     <use xlink:href="#m993187551d" x="202.142567" y="89.573919" style="fill: #0080bf; stroke: #0080bf"/>
     <use xlink:href="#m993187551d" x="221.956517" y="98.898383" style="fill: #0080bf; stroke: #0080bf"/>
     <use xlink:href="#m993187551d" x="243.757487" y="116.505971" style="fill: #0080bf; stroke: #0080bf"/>
     <use xlink:href="#m993187551d" x="262.987306" y="122.828159" style="fill: #0080bf; stroke: #0080bf"/>
     <use xlink:href="#m993187551d" x="280.188965" y="130.254474" style="fill: #0080bf; stroke: #0080bf"/>
    </g>
   </g>
   <g id="line2d_24">
    <g clip-path="url(#p60b7c75cad)">
     <use xlink:href="#m993187551d" x="83.62264" y="21.047042" style="fill: #0080bf; stroke: #0080bf"/>
     <use xlink:href="#m993187551d" x="104.05737" y="30.811365" style="fill: #0080bf; stroke: #0080bf"/>
     <use xlink:href="#m993187551d" x="122.216596" y="42.067443" style="fill: #0080bf; stroke: #0080bf"/>
     <use xlink:href="#m993187551d" x="146.151776" y="59.511114" style="fill: #0080bf; stroke: #0080bf"/>
     <use xlink:href="#m993187551d" x="160.357667" y="64.396876" style="fill: #0080bf; stroke: #0080bf"/>
     <use xlink:href="#m993187551d" x="179.587486" y="72.363223" style="fill: #0080bf; stroke: #0080bf"/>
     <use xlink:href="#m993187551d" x="202.142567" y="87.073708" style="fill: #0080bf; stroke: #0080bf"/>
     <use xlink:href="#m993187551d" x="221.956517" y="96.340828" style="fill: #0080bf; stroke: #0080bf"/>
     <use xlink:href="#m993187551d" x="243.757487" y="111.604687" style="fill: #0080bf; stroke: #0080bf"/>
     <use xlink:href="#m993187551d" x="262.987306" y="120.204368" style="fill: #0080bf; stroke: #0080bf"/>
     <use xlink:href="#m993187551d" x="280.188965" y="127.931324" style="fill: #0080bf; stroke: #0080bf"/>
    </g>
   </g>
   <g id="line2d_25">
    <path d="M 75.248253 20.234647 
L 79.615942 22.569773 
L 83.869824 24.844053 
L 88.015679 27.060579 
L 92.058858 29.22221 
L 96.004325 31.331601 
L 99.856691 33.391217 
L 103.620249 35.403352 
L 107.299 37.370147 
L 110.896684 39.293601 
L 114.416796 41.175581 
L 117.862611 43.01784 
L 121.2372 44.822018 
L 124.543449 46.58966 
L 127.78407 48.322214 
L 130.961618 50.021047 
L 134.078502 51.687447 
L 137.136995 53.322629 
L 140.139244 54.927741 
L 143.08728 56.503869 
L 145.983027 58.052041 
L 148.828308 59.573232 
L 151.62485 61.068366 
L 154.374297 62.538321 
L 157.078208 63.98393 
L 159.738066 65.405988 
L 162.355285 66.805248 
L 164.931209 68.182432 
L 167.467122 69.538223 
L 169.964247 70.873278 
L 172.423754 72.18822 
L 174.846758 73.483647 
L 177.234329 74.760129 
L 179.587486 76.018213 
L 181.907208 77.258421 
L 184.194432 78.481254 
L 186.450055 79.687193 
L 188.67494 80.876698 
L 190.869913 82.05021 
L 193.035766 83.208155 
L 195.173264 84.350939 
L 197.283138 85.478955 
L 199.366094 86.592579 
L 201.422809 87.692174 
L 203.453937 88.77809 
L 205.460107 89.850661 
L 207.441924 90.910213 
L 209.399973 91.957058 
L 211.334817 92.991496 
L 213.246999 94.013818 
L 215.137044 95.024306 
L 217.00546 96.023229 
L 218.852735 97.010849 
L 220.679342 97.98742 
L 222.485739 98.953186 
L 224.272368 99.908383 
L 226.039658 100.853241 
L 227.788021 101.78798 
L 229.51786 102.712815 
L 231.229563 103.627954 
L 232.923506 104.533598 
L 234.600054 105.429942 
L 236.259561 106.317175 
L 237.902369 107.19548 
L 239.528811 108.065035 
L 241.139211 108.926014 
L 242.733881 109.778582 
L 244.313125 110.622904 
L 245.87724 111.459137 
L 247.426513 112.287435 
L 248.961222 113.107947 
L 250.481639 113.920817 
L 251.988027 114.726187 
L 253.480643 115.524194 
L 254.959737 116.314972 
L 256.425552 117.09865 
L 257.878323 117.875354 
L 259.318281 118.645209 
L 260.745649 119.408332 
L 262.160647 120.164842 
L 263.563487 120.914851 
L 264.954375 121.658471 
L 266.333514 122.395809 
L 267.701101 123.12697 
L 269.057327 123.852058 
L 270.402379 124.571173 
L 271.736442 125.284411 
L 273.059691 125.991869 
L 274.372302 126.693639 
L 275.674444 127.389811 
L 276.966283 128.080475 
L 278.24798 128.765717 
L 279.519693 129.445622 
L 280.781578 130.120271 
L 282.033784 130.789746 
L 283.276458 131.454126 
L 284.509746 132.113487 
L 285.733788 132.767904 
L 286.94872 133.417451 
L 288.154679 134.062201 
" clip-path="url(#p60b7c75cad)" style="fill: none; stroke: #0080bf; stroke-opacity: 0.5; stroke-width: 1.5; stroke-linecap: square"/>
   </g>
   <g id="line2d_26">
    <defs>
     <path id="ma58f9d724d" d="M 0 3 
C 0.795609 3 1.55874 2.683901 2.12132 2.12132 
C 2.683901 1.55874 3 0.795609 3 0 
C 3 -0.795609 2.683901 -1.55874 2.12132 -2.12132 
C 1.55874 -2.683901 0.795609 -3 0 -3 
C -0.795609 -3 -1.55874 -2.683901 -2.12132 -2.12132 
C -2.683901 -1.55874 -3 -0.795609 -3 0 
C -3 0.795609 -2.683901 1.55874 -2.12132 2.12132 
C -1.55874 2.683901 -0.795609 3 0 3 
z
" style="stroke: #000000"/>
    </defs>
    <g clip-path="url(#p60b7c75cad)">
     <use xlink:href="#ma58f9d724d" x="83.62264" y="27.169561" style="fill-opacity: 0; stroke: #000000"/>
     <use xlink:href="#ma58f9d724d" x="104.05737" y="37.736588" style="fill-opacity: 0; stroke: #000000"/>
     <use xlink:href="#ma58f9d724d" x="122.216596" y="58.55638" style="fill-opacity: 0; stroke: #000000"/>
     <use xlink:href="#ma58f9d724d" x="146.151776" y="74.376468" style="fill-opacity: 0; stroke: #000000"/>
     <use xlink:href="#ma58f9d724d" x="160.357667" y="84.272331" style="fill-opacity: 0; stroke: #000000"/>
     <use xlink:href="#ma58f9d724d" x="179.587486" y="97.723133" style="fill-opacity: 0; stroke: #000000"/>
     <use xlink:href="#ma58f9d724d" x="202.142567" y="112.884726" style="fill-opacity: 0; stroke: #000000"/>
     <use xlink:href="#ma58f9d724d" x="221.956517" y="133.125455" style="fill-opacity: 0; stroke: #000000"/>
     <use xlink:href="#ma58f9d724d" x="243.757487" y="142.205577" style="fill-opacity: 0; stroke: #000000"/>
     <use xlink:href="#ma58f9d724d" x="262.987306" y="163.20145" style="fill-opacity: 0; stroke: #000000"/>
     <use xlink:href="#ma58f9d724d" x="280.188965" y="172.446641" style="fill-opacity: 0; stroke: #000000"/>
    </g>
   </g>
   <g id="line2d_27">
    <g clip-path="url(#p60b7c75cad)">
     <use xlink:href="#ma58f9d724d" x="83.62264" y="77.332661" style="fill-opacity: 0; stroke: #000000"/>
     <use xlink:href="#ma58f9d724d" x="104.05737" y="124.947885" style="fill-opacity: 0; stroke: #000000"/>
     <use xlink:href="#ma58f9d724d" x="122.216596" y="100.726903" style="fill-opacity: 0; stroke: #000000"/>
     <use xlink:href="#ma58f9d724d" x="146.151776" y="117.155263" style="fill-opacity: 0; stroke: #000000"/>
     <use xlink:href="#ma58f9d724d" x="160.357667" y="122.51791" style="fill-opacity: 0; stroke: #000000"/>
     <use xlink:href="#ma58f9d724d" x="179.587486" y="140.50141" style="fill-opacity: 0; stroke: #000000"/>
     <use xlink:href="#ma58f9d724d" x="202.142567" y="168.041937" style="fill-opacity: 0; stroke: #000000"/>
     <use xlink:href="#ma58f9d724d" x="221.956517" y="163.950741" style="fill-opacity: 0; stroke: #000000"/>
     <use xlink:href="#ma58f9d724d" x="243.757487" y="177.240183" style="fill-opacity: 0; stroke: #000000"/>
     <use xlink:href="#ma58f9d724d" x="262.987306" y="183.806328" style="fill-opacity: 0; stroke: #000000"/>
     <use xlink:href="#ma58f9d724d" x="280.188965" y="201.079037" style="fill-opacity: 0; stroke: #000000"/>
    </g>
   </g>
   <g id="line2d_28">
    <g clip-path="url(#p60b7c75cad)">
     <use xlink:href="#ma58f9d724d" x="83.62264" y="27.257175" style="fill-opacity: 0; stroke: #000000"/>
     <use xlink:href="#ma58f9d724d" x="104.05737" y="34.267384" style="fill-opacity: 0; stroke: #000000"/>
     <use xlink:href="#ma58f9d724d" x="122.216596" y="45.058351" style="fill-opacity: 0; stroke: #000000"/>
     <use xlink:href="#ma58f9d724d" x="146.151776" y="64.146311" style="fill-opacity: 0; stroke: #000000"/>
     <use xlink:href="#ma58f9d724d" x="160.357667" y="66.672692" style="fill-opacity: 0; stroke: #000000"/>
     <use xlink:href="#ma58f9d724d" x="179.587486" y="74.150061" style="fill-opacity: 0; stroke: #000000"/>
     <use xlink:href="#ma58f9d724d" x="202.142567" y="88.316935" style="fill-opacity: 0; stroke: #000000"/>
     <use xlink:href="#ma58f9d724d" x="221.956517" y="97.612407" style="fill-opacity: 0; stroke: #000000"/>
     <use xlink:href="#ma58f9d724d" x="243.757487" y="114.028895" style="fill-opacity: 0; stroke: #000000"/>
     <use xlink:href="#ma58f9d724d" x="262.987306" y="121.508687" style="fill-opacity: 0; stroke: #000000"/>
     <use xlink:href="#ma58f9d724d" x="280.188965" y="129.08696" style="fill-opacity: 0; stroke: #000000"/>
    </g>
   </g>
   <g id="patch_3">
    <path d="M 64.602932 214.259776 
L 64.602932 10.8 
" style="fill: none; stroke: #000000; stroke-width: 0.8; stroke-linejoin: miter; stroke-linecap: square"/>
   </g>
   <g id="patch_4">
    <path d="M 298.8 214.259776 
L 298.8 10.8 
" style="fill: none; stroke: #000000; stroke-width: 0.8; stroke-linejoin: miter; stroke-linecap: square"/>
   </g>
   <g id="patch_5">
    <path d="M 64.602932 214.259776 
L 298.8 214.259776 
" style="fill: none; stroke: #000000; stroke-width: 0.8; stroke-linejoin: miter; stroke-linecap: square"/>
   </g>
   <g id="patch_6">
    <path d="M 64.602932 10.8 
L 298.8 10.8 
" style="fill: none; stroke: #000000; stroke-width: 0.8; stroke-linejoin: miter; stroke-linecap: square"/>
   </g>
   <g id="legend_1">
    <g id="patch_7">
     <path d="M 254.579261 48.611535 
L 291.8 48.611535 
Q 293.8 48.611535 293.8 46.611535 
L 293.8 17.8 
Q 293.8 15.8 291.8 15.8 
L 254.579261 15.8 
Q 252.579261 15.8 252.579261 17.8 
L 252.579261 46.611535 
Q 252.579261 48.611535 254.579261 48.611535 
z
" style="fill: #ffffff; opacity: 0.8; stroke: #cccccc; stroke-linejoin: miter"/>
    </g>
    <g id="LineCollection_4">
     <path d="M 264.579261 26.3 
L 264.579261 16.3 
" style="fill: none; stroke: #0040df; stroke-width: 1.5"/>
    </g>
    <g id="line2d_29">
     <g>
      <use xlink:href="#m13907be95b" x="264.579261" y="26.3" style="fill: #0040df; stroke: #0040df"/>
     </g>
    </g>
    <g id="line2d_30">
     <g>
      <use xlink:href="#m13907be95b" x="264.579261" y="16.3" style="fill: #0040df; stroke: #0040df"/>
     </g>
    </g>
    <g id="line2d_31"/>
    <g id="line2d_32">
     <g>
      <use xlink:href="#ma58f9d724d" x="264.579261" y="21.3" style="fill-opacity: 0; stroke: #000000"/>
     </g>
    </g>
    <g id="text_11">
     <!-- hex -->
     <g transform="translate(276.579261 24.8) scale(0.1 -0.1)">
      <defs>
       <path id="CMR17-68" d="M 2656 1933 
C 2656 2259 2592 2790 1837 2790 
C 1312 2790 1056 2368 979 2157 
L 973 2157 
L 973 4396 
L 211 4326 
L 211 4160 
C 589 4160 646 4122 646 3817 
L 646 426 
C 646 184 621 153 211 153 
L 211 -13 
C 365 0 646 0 813 0 
C 979 0 1267 0 1421 -13 
L 1421 153 
C 1011 153 986 178 986 428 
L 986 1658 
C 986 2247 1344 2688 1792 2688 
C 2266 2688 2317 2266 2317 1958 
L 2317 428 
C 2317 184 2291 153 1882 153 
L 1882 -13 
C 2035 0 2317 0 2483 0 
C 2650 0 2938 0 3091 -13 
L 3091 153 
C 2682 153 2656 178 2656 428 
L 2656 1933 
z
" transform="scale(0.015625)"/>
       <path id="CMR17-65" d="M 2438 1472 
C 2464 1498 2464 1511 2464 1576 
C 2464 2238 2118 2816 1389 2816 
C 710 2816 173 2169 173 1383 
C 173 551 781 -64 1459 -64 
C 2176 -64 2458 607 2458 740 
C 2458 784 2419 784 2406 784 
C 2362 784 2355 771 2330 696 
C 2189 265 1837 51 1504 51 
C 1229 51 954 203 781 480 
C 582 803 582 1176 582 1472 
L 2438 1472 
z
M 589 1568 
C 634 2505 1126 2714 1382 2714 
C 1818 2714 2112 2297 2118 1568 
L 589 1568 
z
" transform="scale(0.015625)"/>
       <path id="CMR17-78" d="M 1664 1477 
C 1856 1726 2074 2006 2253 2216 
C 2464 2458 2707 2560 2989 2560 
L 2989 2726 
C 2880 2726 2656 2726 2541 2726 
C 2368 2726 2170 2726 2022 2732 
L 2022 2566 
C 2112 2553 2163 2489 2163 2400 
C 2163 2285 2099 2215 2067 2171 
L 1594 1573 
L 1030 2306 
C 973 2376 973 2388 973 2420 
C 973 2497 1037 2560 1146 2560 
L 1146 2732 
C 992 2726 717 2726 557 2726 
C 384 2726 179 2726 38 2732 
L 38 2560 
C 384 2560 461 2534 614 2343 
L 1350 1395 
C 1363 1382 1395 1344 1395 1325 
C 1395 1299 838 619 768 530 
C 480 185 179 160 6 160 
L 6 0 
C 115 0 339 0 454 0 
C 582 0 864 0 979 -6 
L 979 160 
C 941 166 838 179 838 325 
C 838 440 890 510 947 586 
L 1478 1236 
L 2035 512 
C 2086 442 2163 346 2163 301 
C 2163 211 2086 160 1984 160 
L 1984 -6 
C 2138 0 2413 0 2573 0 
C 2746 0 2950 0 3091 -6 
L 3091 160 
C 2771 160 2675 172 2522 370 
L 1664 1477 
z
" transform="scale(0.015625)"/>
      </defs>
      <use xlink:href="#CMR17-68" transform="scale(0.996264)"/>
      <use xlink:href="#CMR17-65" transform="translate(50.89537 0) scale(0.996264)"/>
      <use xlink:href="#CMR17-78" transform="translate(91.38103 0) scale(0.996264)"/>
     </g>
    </g>
    <g id="LineCollection_5">
     <path d="M 264.579261 36.237178 
L 264.579261 26.237178 
" style="fill: none; stroke: #00c09f; stroke-width: 1.5"/>
    </g>
    <g id="line2d_33">
     <g>
      <use xlink:href="#m5d131bf578" x="264.579261" y="36.237178" style="fill: #00c09f; stroke: #00c09f"/>
     </g>
    </g>
    <g id="line2d_34">
     <g>
      <use xlink:href="#m5d131bf578" x="264.579261" y="26.237178" style="fill: #00c09f; stroke: #00c09f"/>
     </g>
    </g>
    <g id="line2d_35"/>
    <g id="line2d_36">
     <g>
      <use xlink:href="#ma58f9d724d" x="264.579261" y="31.237178" style="fill-opacity: 0; stroke: #000000"/>
     </g>
    </g>
    <g id="text_12">
     <!-- tri -->
     <g transform="translate(276.579261 34.737178) scale(0.1 -0.1)">
      <defs>
       <path id="CMR17-74" d="M 966 2560 
L 1862 2560 
L 1862 2725 
L 966 2725 
L 966 3904 
L 851 3904 
C 838 3245 614 2668 70 2668 
L 70 2560 
L 627 2560 
L 627 771 
C 627 650 627 -64 1370 -64 
C 1747 -64 1965 306 1965 777 
L 1965 1140 
L 1850 1140 
L 1850 783 
C 1850 344 1677 51 1408 51 
C 1222 51 966 178 966 758 
L 966 2560 
z
" transform="scale(0.015625)"/>
       <path id="CMR17-72" d="M 960 1497 
C 960 2112 1222 2688 1702 2688 
C 1747 2688 1792 2682 1837 2662 
C 1837 2662 1696 2617 1696 2452 
C 1696 2298 1818 2234 1914 2234 
C 1990 2234 2131 2279 2131 2458 
C 2131 2663 1926 2790 1709 2790 
C 1222 2790 1011 2317 947 2093 
L 941 2093 
L 941 2790 
L 198 2720 
L 198 2554 
C 576 2554 634 2515 634 2208 
L 634 428 
C 634 184 608 153 198 153 
L 198 -13 
C 352 0 646 0 813 0 
C 998 0 1325 0 1498 -13 
L 1498 153 
C 1037 153 960 153 960 440 
L 960 1497 
z
" transform="scale(0.015625)"/>
       <path id="CMR17-69" d="M 992 3909 
C 992 4049 877 4170 730 4170 
C 589 4170 467 4056 467 3909 
C 467 3769 582 3648 730 3648 
C 870 3648 992 3763 992 3909 
z
M 243 2706 
L 243 2541 
C 602 2541 653 2502 653 2197 
L 653 427 
C 653 184 627 153 218 153 
L 218 -13 
C 371 0 646 0 806 0 
C 960 0 1222 0 1370 -13 
L 1370 153 
C 992 153 979 191 979 420 
L 979 2776 
L 243 2706 
z
" transform="scale(0.015625)"/>
      </defs>
      <use xlink:href="#CMR17-74" transform="scale(0.996264)"/>
      <use xlink:href="#CMR17-72" transform="translate(35.280768 0) scale(0.996264)"/>
      <use xlink:href="#CMR17-69" transform="translate(70.561536 0) scale(0.996264)"/>
     </g>
    </g>
    <g id="LineCollection_6">
     <path d="M 264.579261 46.174357 
L 264.579261 36.174357 
" style="fill: none; stroke: #0080bf; stroke-width: 1.5"/>
    </g>
    <g id="line2d_37">
     <g>
      <use xlink:href="#m993187551d" x="264.579261" y="46.174357" style="fill: #0080bf; stroke: #0080bf"/>
     </g>
    </g>
    <g id="line2d_38">
     <g>
      <use xlink:href="#m993187551d" x="264.579261" y="36.174357" style="fill: #0080bf; stroke: #0080bf"/>
     </g>
    </g>
    <g id="line2d_39"/>
    <g id="line2d_40">
     <g>
      <use xlink:href="#ma58f9d724d" x="264.579261" y="41.174357" style="fill-opacity: 0; stroke: #000000"/>
     </g>
    </g>
    <g id="text_13">
     <!-- sqr -->
     <g transform="translate(276.579261 44.674357) scale(0.1 -0.1)">
      <defs>
       <path id="CMR17-73" d="M 1978 2697 
C 1978 2813 1971 2819 1933 2819 
C 1907 2819 1901 2813 1824 2717 
C 1805 2691 1747 2626 1728 2601 
C 1523 2819 1235 2819 1126 2819 
C 416 2819 160 2447 160 2076 
C 160 1498 813 1365 998 1325 
C 1402 1243 1542 1217 1677 1101 
C 1760 1025 1901 884 1901 654 
C 1901 384 1747 38 1158 38 
C 602 38 403 460 288 1021 
C 269 1110 269 1117 218 1117 
C 166 1117 160 1110 160 983 
L 160 63 
C 160 -51 166 -58 205 -58 
C 237 -58 243 -51 275 0 
C 314 57 410 211 448 276 
C 576 103 800 -64 1158 -64 
C 1792 -64 2131 283 2131 784 
C 2131 1112 1958 1285 1875 1362 
C 1683 1561 1459 1606 1190 1657 
C 838 1735 390 1825 390 2217 
C 390 2383 480 2737 1126 2737 
C 1811 2737 1850 2094 1862 1888 
C 1869 1856 1901 1849 1920 1849 
C 1978 1849 1978 1869 1978 1978 
L 1978 2697 
z
" transform="scale(0.015625)"/>
       <path id="CMR17-71" d="M 2630 2802 
L 2528 2802 
L 2336 2172 
C 2189 2509 1920 2802 1491 2802 
C 838 2802 211 2223 211 1383 
C 211 548 800 -38 1440 -38 
C 1933 -38 2208 338 2291 478 
L 2291 -789 
C 2291 -1031 2266 -1063 1856 -1063 
L 1856 -1228 
C 2010 -1216 2291 -1216 2458 -1216 
C 2624 -1216 2912 -1216 3066 -1228 
L 3066 -1063 
C 2656 -1063 2630 -1037 2630 -789 
L 2630 2802 
z
M 2304 886 
C 2304 612 2074 357 2054 338 
C 1856 115 1626 64 1472 64 
C 992 64 621 669 621 1375 
C 621 2121 1043 2688 1536 2688 
C 2048 2688 2304 2108 2304 1777 
L 2304 886 
z
" transform="scale(0.015625)"/>
      </defs>
      <use xlink:href="#CMR17-73" transform="scale(0.996264)"/>
      <use xlink:href="#CMR17-71" transform="translate(35.801338 0) scale(0.996264)"/>
      <use xlink:href="#CMR17-72" transform="translate(84.094253 0) scale(0.996264)"/>
     </g>
    </g>
   </g>
  </g>
 </g>
 <defs>
  <clipPath id="p60b7c75cad">
   <rect x="64.602932" y="10.8" width="234.197068" height="203.459776"/>
  </clipPath>
 </defs>
</svg>
