<?xml version="1.0" encoding="utf-8" standalone="no"?>
<!DOCTYPE svg PUBLIC "-//W3C//DTD SVG 1.1//EN"
  "http://www.w3.org/Graphics/SVG/1.1/DTD/svg11.dtd">
<svg xmlns:xlink="http://www.w3.org/1999/xlink" width="309.6pt" height="252pt" viewBox="0 0 309.6 252" xmlns="http://www.w3.org/2000/svg" version="1.1">
 <metadata>
  <rdf:RDF xmlns:dc="http://purl.org/dc/elements/1.1/" xmlns:cc="http://creativecommons.org/ns#" xmlns:rdf="http://www.w3.org/1999/02/22-rdf-syntax-ns#">
   <cc:Work>
    <dc:type rdf:resource="http://purl.org/dc/dcmitype/StillImage"/>
    <dc:date>2025-08-28T05:10:33.339404</dc:date>
    <dc:format>image/svg+xml</dc:format>
    <dc:creator>
     <cc:Agent>
      <dc:title>Matplotlib v3.10.5, https://matplotlib.org/</dc:title>
     </cc:Agent>
    </dc:creator>
   </cc:Work>
  </rdf:RDF>
 </metadata>
 <defs>
  <style type="text/css">*{stroke-linejoin: round; stroke-linecap: butt}</style>
 </defs>
 <g id="figure_1">
  <g id="patch_1">
   <path d="M 0 252 
L 309.6 252 
L 309.6 0 
L 0 0 
z
" style="fill: #ffffff"/>
  </g>
  <g id="axes_1">
   <g id="patch_2">
    <path d="M 43.860112 214.259776 
L 298.8 214.259776 
L 298.8 10.8 
L 43.860112 10.8 
z
" style="fill: #ffffff"/>
   </g>
   <g id="matplotlib.axis_1">
    <g id="xtick_1">
     <g id="line2d_1">
      <defs>
       <path id="mcb538db3e1" d="M 0 0 
L 0 3.5 
" style="stroke: #000000; stroke-width: 0.8"/>
      </defs>
      <g>
       <use xlink:href="#mcb538db3e1" x="278.540586" y="214.259776" style="stroke: #000000; stroke-width: 0.8"/>
      </g>
     </g>
     <g id="text_1">
      <!-- $\mathdefault{10^{2}}$ -->
      <g transform="translate(271.573632 228.178274) scale(0.1 -0.1)">
       <defs>
        <path id="CMR17-31" d="M 1702 4058 
C 1702 4192 1696 4192 1606 4192 
C 1357 3916 979 3827 621 3827 
C 602 3827 570 3827 563 3808 
C 557 3795 557 3782 557 3648 
C 755 3648 1088 3686 1344 3839 
L 1344 461 
C 1344 236 1331 160 781 160 
L 589 160 
L 589 0 
C 896 0 1216 0 1523 0 
C 1830 0 2150 0 2458 0 
L 2458 160 
L 2266 160 
C 1715 160 1702 230 1702 458 
L 1702 4058 
z
" transform="scale(0.015625)"/>
        <path id="CMR17-30" d="M 2688 2025 
C 2688 2416 2682 3080 2413 3591 
C 2176 4039 1798 4198 1466 4198 
C 1158 4198 768 4058 525 3597 
C 269 3118 243 2524 243 2025 
C 243 1661 250 1106 448 619 
C 723 -39 1216 -128 1466 -128 
C 1760 -128 2208 -7 2470 600 
C 2662 1042 2688 1559 2688 2025 
z
M 1466 -26 
C 1056 -26 813 325 723 812 
C 653 1188 653 1738 653 2096 
C 653 2588 653 2997 736 3387 
C 858 3929 1216 4096 1466 4096 
C 1728 4096 2067 3923 2189 3400 
C 2272 3036 2278 2607 2278 2096 
C 2278 1680 2278 1169 2202 792 
C 2067 95 1690 -26 1466 -26 
z
" transform="scale(0.015625)"/>
        <path id="CMR17-32" d="M 2669 989 
L 2554 989 
C 2490 536 2438 459 2413 420 
C 2381 369 1920 369 1830 369 
L 602 369 
C 832 619 1280 1072 1824 1597 
C 2214 1967 2669 2402 2669 3035 
C 2669 3790 2067 4224 1395 4224 
C 691 4224 262 3604 262 3030 
C 262 2780 448 2748 525 2748 
C 589 2748 781 2787 781 3010 
C 781 3207 614 3264 525 3264 
C 486 3264 448 3258 422 3245 
C 544 3790 915 4058 1306 4058 
C 1862 4058 2227 3617 2227 3035 
C 2227 2479 1901 2000 1536 1584 
L 262 146 
L 262 0 
L 2515 0 
L 2669 989 
z
" transform="scale(0.015625)"/>
       </defs>
       <use xlink:href="#CMR17-31" transform="scale(0.996264)"/>
       <use xlink:href="#CMR17-30" transform="translate(45.690477 0) scale(0.996264)"/>
       <use xlink:href="#CMR17-32" transform="translate(91.380954 36.153639) scale(0.697382)"/>
      </g>
     </g>
    </g>
    <g id="xtick_2">
     <g id="line2d_2">
      <defs>
       <path id="m0d1ebb4c71" d="M 0 0 
L 0 2 
" style="stroke: #000000; stroke-width: 0.6"/>
      </defs>
      <g>
       <use xlink:href="#m0d1ebb4c71" x="64.564395" y="214.259776" style="stroke: #000000; stroke-width: 0.6"/>
      </g>
     </g>
     <g id="text_2">
      <!-- $\mathdefault{3\times10^{1}}$ -->
      <g transform="translate(49.018535 226.662431) scale(0.1 -0.1)">
       <defs>
        <path id="CMR17-33" d="M 1414 2157 
C 1984 2157 2234 1662 2234 1090 
C 2234 320 1824 25 1453 25 
C 1114 25 563 194 390 693 
C 422 680 454 680 486 680 
C 640 680 755 782 755 948 
C 755 1133 614 1216 486 1216 
C 378 1216 211 1165 211 926 
C 211 335 787 -128 1466 -128 
C 2176 -128 2720 430 2720 1085 
C 2720 1707 2208 2157 1600 2227 
C 2086 2328 2554 2756 2554 3329 
C 2554 3820 2048 4179 1472 4179 
C 890 4179 378 3829 378 3329 
C 378 3110 544 3072 627 3072 
C 762 3072 877 3155 877 3321 
C 877 3486 762 3569 627 3569 
C 602 3569 570 3569 544 3557 
C 730 3959 1235 4032 1459 4032 
C 1683 4032 2106 3925 2106 3320 
C 2106 3143 2080 2828 1862 2550 
C 1670 2304 1453 2304 1242 2284 
C 1210 2284 1062 2269 1037 2269 
C 992 2263 966 2257 966 2208 
C 966 2163 973 2157 1101 2157 
L 1414 2157 
z
" transform="scale(0.015625)"/>
        <path id="CMSY10-2" d="M 2490 1785 
L 1210 3059 
C 1133 3136 1120 3148 1069 3148 
C 1005 3148 941 3091 941 3020 
C 941 2976 954 2963 1024 2892 
L 2304 1606 
L 1024 320 
C 954 249 941 236 941 192 
C 941 121 1005 64 1069 64 
C 1120 64 1133 76 1210 153 
L 2483 1427 
L 3808 102 
C 3821 96 3866 64 3904 64 
C 3981 64 4032 121 4032 192 
C 4032 204 4032 230 4013 262 
C 4006 275 2989 1280 2669 1606 
L 3840 2777 
C 3872 2816 3968 2899 4000 2937 
C 4006 2950 4032 2976 4032 3020 
C 4032 3091 3981 3148 3904 3148 
C 3853 3148 3827 3123 3757 3052 
L 2490 1785 
z
" transform="scale(0.015625)"/>
       </defs>
       <use xlink:href="#CMR17-33" transform="scale(0.996264)"/>
       <use xlink:href="#CMSY10-2" transform="translate(67.829684 0) scale(0.996264)"/>
       <use xlink:href="#CMR17-31" transform="translate(167.456359 0) scale(0.996264)"/>
       <use xlink:href="#CMR17-30" transform="translate(213.146836 0) scale(0.996264)"/>
       <use xlink:href="#CMR17-31" transform="translate(258.837313 36.153639) scale(0.697382)"/>
      </g>
     </g>
    </g>
    <g id="xtick_3">
     <g id="line2d_3">
      <g>
       <use xlink:href="#m0d1ebb4c71" x="115.692721" y="214.259776" style="stroke: #000000; stroke-width: 0.6"/>
      </g>
     </g>
     <g id="text_3">
      <!-- $\mathdefault{4\times10^{1}}$ -->
      <g transform="translate(100.146862 226.662431) scale(0.1 -0.1)">
       <defs>
        <path id="CMR17-34" d="M 2150 4122 
C 2150 4256 2144 4256 2029 4256 
L 128 1254 
L 128 1088 
L 1779 1088 
L 1779 457 
C 1779 224 1766 160 1318 160 
L 1197 160 
L 1197 0 
C 1402 0 1747 0 1965 0 
C 2182 0 2528 0 2733 0 
L 2733 160 
L 2611 160 
C 2163 160 2150 224 2150 457 
L 2150 1088 
L 2803 1088 
L 2803 1254 
L 2150 1254 
L 2150 4122 
z
M 1798 3703 
L 1798 1254 
L 256 1254 
L 1798 3703 
z
" transform="scale(0.015625)"/>
       </defs>
       <use xlink:href="#CMR17-34" transform="scale(0.996264)"/>
       <use xlink:href="#CMSY10-2" transform="translate(67.829684 0) scale(0.996264)"/>
       <use xlink:href="#CMR17-31" transform="translate(167.456359 0) scale(0.996264)"/>
       <use xlink:href="#CMR17-30" transform="translate(213.146836 0) scale(0.996264)"/>
       <use xlink:href="#CMR17-31" transform="translate(258.837313 36.153639) scale(0.697382)"/>
      </g>
     </g>
    </g>
    <g id="xtick_4">
     <g id="line2d_4">
      <g>
       <use xlink:href="#m0d1ebb4c71" x="155.350932" y="214.259776" style="stroke: #000000; stroke-width: 0.6"/>
      </g>
     </g>
    </g>
    <g id="xtick_5">
     <g id="line2d_5">
      <g>
       <use xlink:href="#m0d1ebb4c71" x="187.754049" y="214.259776" style="stroke: #000000; stroke-width: 0.6"/>
      </g>
     </g>
     <g id="text_4">
      <!-- $\mathdefault{6\times10^{1}}$ -->
      <g transform="translate(172.20819 226.662431) scale(0.1 -0.1)">
       <defs>
        <path id="CMR17-36" d="M 678 2176 
C 678 3690 1395 4032 1811 4032 
C 1946 4032 2272 4009 2400 3776 
C 2298 3776 2106 3776 2106 3553 
C 2106 3381 2246 3323 2336 3323 
C 2394 3323 2566 3348 2566 3560 
C 2566 3954 2246 4179 1805 4179 
C 1043 4179 243 3390 243 1984 
C 243 253 966 -128 1478 -128 
C 2099 -128 2688 427 2688 1283 
C 2688 2081 2170 2662 1517 2662 
C 1126 2662 838 2407 678 1960 
L 678 2176 
z
M 1478 25 
C 691 25 691 1200 691 1436 
C 691 1896 909 2560 1504 2560 
C 1613 2560 1926 2560 2138 2120 
C 2253 1870 2253 1609 2253 1289 
C 2253 944 2253 690 2118 434 
C 1978 171 1773 25 1478 25 
z
" transform="scale(0.015625)"/>
       </defs>
       <use xlink:href="#CMR17-36" transform="scale(0.996264)"/>
       <use xlink:href="#CMSY10-2" transform="translate(67.829684 0) scale(0.996264)"/>
       <use xlink:href="#CMR17-31" transform="translate(167.456359 0) scale(0.996264)"/>
       <use xlink:href="#CMR17-30" transform="translate(213.146836 0) scale(0.996264)"/>
       <use xlink:href="#CMR17-31" transform="translate(258.837313 36.153639) scale(0.697382)"/>
      </g>
     </g>
    </g>
    <g id="xtick_6">
     <g id="line2d_6">
      <g>
       <use xlink:href="#m0d1ebb4c71" x="215.150495" y="214.259776" style="stroke: #000000; stroke-width: 0.6"/>
      </g>
     </g>
    </g>
    <g id="xtick_7">
     <g id="line2d_7">
      <g>
       <use xlink:href="#m0d1ebb4c71" x="238.882376" y="214.259776" style="stroke: #000000; stroke-width: 0.6"/>
      </g>
     </g>
    </g>
    <g id="xtick_8">
     <g id="line2d_8">
      <g>
       <use xlink:href="#m0d1ebb4c71" x="259.815378" y="214.259776" style="stroke: #000000; stroke-width: 0.6"/>
      </g>
     </g>
    </g>
    <g id="text_5">
     <!-- $L$ -->
     <g transform="translate(168.450534 239.650254) scale(0.08 -0.08)">
      <defs>
       <path id="CMMI12-4c" d="M 2349 3861 
C 2406 4103 2426 4167 2989 4167 
C 3162 4167 3206 4167 3206 4288 
C 3206 4352 3136 4352 3110 4352 
C 2982 4352 2835 4352 2707 4352 
L 1850 4352 
C 1728 4352 1587 4352 1466 4352 
C 1414 4352 1344 4352 1344 4231 
C 1344 4167 1402 4167 1498 4167 
C 1888 4167 1888 4116 1888 4046 
C 1888 4034 1888 3995 1862 3899 
L 998 472 
C 941 249 928 185 480 185 
C 358 185 294 185 294 70 
C 294 0 333 0 461 0 
L 3328 0 
C 3469 0 3475 6 3520 121 
L 4013 1478 
C 4026 1510 4038 1548 4038 1567 
C 4038 1605 4006 1631 3974 1631 
C 3968 1631 3936 1631 3923 1605 
C 3910 1599 3910 1586 3859 1465 
C 3654 905 3366 185 2285 185 
L 1670 185 
C 1581 185 1568 185 1530 192 
C 1459 198 1453 211 1453 262 
C 1453 307 1466 345 1478 401 
L 2349 3861 
z
" transform="scale(0.015625)"/>
      </defs>
      <use xlink:href="#CMMI12-4c" transform="scale(0.996264)"/>
     </g>
    </g>
   </g>
   <g id="matplotlib.axis_2">
    <g id="ytick_1">
     <g id="line2d_9">
      <defs>
       <path id="md26c6bacfd" d="M 0 0 
L -3.5 0 
" style="stroke: #000000; stroke-width: 0.8"/>
      </defs>
      <g>
       <use xlink:href="#md26c6bacfd" x="43.860112" y="206.084603" style="stroke: #000000; stroke-width: 0.8"/>
      </g>
     </g>
     <g id="text_6">
      <!-- $\mathdefault{10^{1}}$ -->
      <g transform="translate(22.926204 209.543852) scale(0.1 -0.1)">
       <use xlink:href="#CMR17-31" transform="scale(0.996264)"/>
       <use xlink:href="#CMR17-30" transform="translate(45.690477 0) scale(0.996264)"/>
       <use xlink:href="#CMR17-31" transform="translate(91.380954 36.153639) scale(0.697382)"/>
      </g>
     </g>
    </g>
    <g id="ytick_2">
     <g id="line2d_10">
      <g>
       <use xlink:href="#md26c6bacfd" x="43.860112" y="95.293969" style="stroke: #000000; stroke-width: 0.8"/>
      </g>
     </g>
     <g id="text_7">
      <!-- $\mathdefault{10^{2}}$ -->
      <g transform="translate(22.926204 98.753219) scale(0.1 -0.1)">
       <use xlink:href="#CMR17-31" transform="scale(0.996264)"/>
       <use xlink:href="#CMR17-30" transform="translate(45.690477 0) scale(0.996264)"/>
       <use xlink:href="#CMR17-32" transform="translate(91.380954 36.153639) scale(0.697382)"/>
      </g>
     </g>
    </g>
    <g id="ytick_3">
     <g id="line2d_11">
      <defs>
       <path id="m4851993715" d="M 0 0 
L -2 0 
" style="stroke: #000000; stroke-width: 0.6"/>
      </defs>
      <g>
       <use xlink:href="#m4851993715" x="43.860112" y="211.154105" style="stroke: #000000; stroke-width: 0.6"/>
      </g>
     </g>
    </g>
    <g id="ytick_4">
     <g id="line2d_12">
      <g>
       <use xlink:href="#m4851993715" x="43.860112" y="172.733299" style="stroke: #000000; stroke-width: 0.6"/>
      </g>
     </g>
    </g>
    <g id="ytick_5">
     <g id="line2d_13">
      <g>
       <use xlink:href="#m4851993715" x="43.860112" y="153.224037" style="stroke: #000000; stroke-width: 0.6"/>
      </g>
     </g>
    </g>
    <g id="ytick_6">
     <g id="line2d_14">
      <g>
       <use xlink:href="#m4851993715" x="43.860112" y="139.381995" style="stroke: #000000; stroke-width: 0.6"/>
      </g>
     </g>
    </g>
    <g id="ytick_7">
     <g id="line2d_15">
      <g>
       <use xlink:href="#m4851993715" x="43.860112" y="128.645273" style="stroke: #000000; stroke-width: 0.6"/>
      </g>
     </g>
    </g>
    <g id="ytick_8">
     <g id="line2d_16">
      <g>
       <use xlink:href="#m4851993715" x="43.860112" y="119.872733" style="stroke: #000000; stroke-width: 0.6"/>
      </g>
     </g>
    </g>
    <g id="ytick_9">
     <g id="line2d_17">
      <g>
       <use xlink:href="#m4851993715" x="43.860112" y="112.455656" style="stroke: #000000; stroke-width: 0.6"/>
      </g>
     </g>
    </g>
    <g id="ytick_10">
     <g id="line2d_18">
      <g>
       <use xlink:href="#m4851993715" x="43.860112" y="106.030691" style="stroke: #000000; stroke-width: 0.6"/>
      </g>
     </g>
    </g>
    <g id="ytick_11">
     <g id="line2d_19">
      <g>
       <use xlink:href="#m4851993715" x="43.860112" y="100.363471" style="stroke: #000000; stroke-width: 0.6"/>
      </g>
     </g>
    </g>
    <g id="ytick_12">
     <g id="line2d_20">
      <g>
       <use xlink:href="#m4851993715" x="43.860112" y="61.942665" style="stroke: #000000; stroke-width: 0.6"/>
      </g>
     </g>
    </g>
    <g id="ytick_13">
     <g id="line2d_21">
      <g>
       <use xlink:href="#m4851993715" x="43.860112" y="42.433403" style="stroke: #000000; stroke-width: 0.6"/>
      </g>
     </g>
    </g>
    <g id="ytick_14">
     <g id="line2d_22">
      <g>
       <use xlink:href="#m4851993715" x="43.860112" y="28.591361" style="stroke: #000000; stroke-width: 0.6"/>
      </g>
     </g>
    </g>
    <g id="ytick_15">
     <g id="line2d_23">
      <g>
       <use xlink:href="#m4851993715" x="43.860112" y="17.85464" style="stroke: #000000; stroke-width: 0.6"/>
      </g>
     </g>
    </g>
    <g id="text_8">
     <!-- $\chi'_{max}$ -->
     <g transform="translate(16.933676 122.530928) rotate(-90) scale(0.08 -0.08)">
      <defs>
       <path id="CMMI12-1f" d="M 2112 1039 
C 1939 1566 1978 1515 1818 1959 
C 1619 2505 1568 2550 1478 2639 
C 1363 2740 1146 2816 922 2816 
C 563 2816 390 2486 390 2403 
C 390 2365 422 2346 461 2346 
C 512 2346 525 2378 531 2403 
C 627 2651 826 2689 883 2689 
C 1069 2689 1248 2232 1363 1928 
C 1517 1540 1594 1273 1766 657 
L 256 -1049 
C 198 -1119 198 -1144 198 -1151 
C 198 -1202 230 -1215 256 -1215 
C 282 -1215 301 -1202 320 -1183 
C 499 -1004 896 -533 1062 -342 
L 1805 499 
C 2118 -479 2118 -492 2214 -727 
C 2317 -968 2451 -1280 2995 -1280 
C 3360 -1280 3526 -955 3526 -866 
C 3526 -822 3488 -809 3456 -809 
C 3405 -809 3398 -835 3379 -886 
C 3309 -1063 3142 -1152 3040 -1152 
C 2957 -1152 2854 -1152 2573 -447 
C 2406 -21 2259 486 2150 880 
L 3667 2594 
C 3718 2652 3725 2658 3725 2683 
C 3725 2727 3693 2746 3661 2746 
C 3642 2746 3622 2746 3558 2677 
L 2112 1039 
z
" transform="scale(0.015625)"/>
       <path id="CMSY10-30" d="M 1619 3040 
C 1651 3117 1677 3174 1677 3238 
C 1677 3424 1510 3578 1312 3578 
C 1133 3578 1018 3456 973 3290 
L 211 493 
C 211 480 186 410 186 403 
C 186 333 352 288 403 288 
C 442 288 448 307 486 390 
L 1619 3040 
z
" transform="scale(0.015625)"/>
       <path id="CMMI12-6d" d="M 1318 1871 
C 1331 1910 1491 2229 1728 2433 
C 1894 2586 2112 2689 2362 2689 
C 2618 2689 2707 2497 2707 2242 
C 2707 2203 2707 2076 2630 1775 
L 2470 1118 
C 2419 926 2298 453 2285 383 
C 2259 287 2221 121 2221 96 
C 2221 6 2291 -64 2387 -64 
C 2579 -64 2611 83 2669 313 
L 3053 1839 
C 3066 1890 3398 2689 4102 2689 
C 4358 2689 4448 2497 4448 2242 
C 4448 1884 4198 1188 4058 805 
C 4000 651 3968 568 3968 453 
C 3968 166 4166 -64 4474 -64 
C 5069 -64 5293 875 5293 913 
C 5293 945 5267 971 5229 971 
C 5171 971 5165 952 5133 843 
C 4986 332 4749 64 4493 64 
C 4429 64 4326 64 4326 269 
C 4326 436 4403 640 4429 710 
C 4544 1018 4832 1773 4832 2145 
C 4832 2528 4608 2816 4122 2816 
C 3693 2816 3347 2574 3091 2197 
C 3072 2542 2861 2816 2381 2816 
C 1811 2816 1510 2415 1395 2255 
C 1376 2618 1114 2816 832 2816 
C 646 2816 499 2727 378 2484 
C 262 2254 173 1865 173 1839 
C 173 1814 198 1782 243 1782 
C 294 1782 301 1788 339 1935 
C 435 2312 557 2689 813 2689 
C 960 2689 1011 2586 1011 2395 
C 1011 2254 947 2005 902 1807 
L 723 1118 
C 698 996 627 709 595 594 
C 550 428 480 128 480 96 
C 480 6 550 -64 646 -64 
C 723 -64 813 -26 864 70 
C 877 102 934 326 966 453 
L 1107 1028 
L 1318 1871 
z
" transform="scale(0.015625)"/>
       <path id="CMMI12-61" d="M 1926 760 
C 1894 651 1894 639 1805 517 
C 1664 338 1382 64 1082 64 
C 819 64 672 300 672 677 
C 672 1028 870 1743 992 2012 
C 1210 2459 1510 2689 1760 2689 
C 2182 2689 2266 2165 2266 2114 
C 2266 2108 2246 2024 2240 2012 
L 1926 760 
z
M 2336 2395 
C 2266 2561 2093 2816 1760 2816 
C 1037 2816 256 1884 256 939 
C 256 307 627 -64 1062 -64 
C 1414 -64 1715 211 1894 422 
C 1958 45 2259 -64 2451 -64 
C 2643 -64 2797 51 2912 281 
C 3014 498 3104 888 3104 913 
C 3104 945 3078 971 3040 971 
C 2982 971 2976 939 2950 843 
C 2854 466 2733 64 2470 64 
C 2285 64 2272 230 2272 358 
C 2272 505 2291 575 2349 824 
C 2394 984 2426 1124 2477 1309 
C 2714 2267 2771 2497 2771 2535 
C 2771 2625 2701 2695 2605 2695 
C 2400 2695 2349 2472 2336 2395 
z
" transform="scale(0.015625)"/>
       <path id="CMMI12-78" d="M 3034 2606 
C 2829 2567 2752 2414 2752 2293 
C 2752 2139 2874 2088 2963 2088 
C 3155 2088 3290 2254 3290 2427 
C 3290 2695 2982 2816 2714 2816 
C 2323 2816 2106 2433 2048 2312 
C 1901 2816 1504 2816 1389 2816 
C 736 2816 390 1980 390 1839 
C 390 1814 416 1782 461 1782 
C 512 1782 525 1820 538 1846 
C 755 2555 1184 2689 1370 2689 
C 1658 2689 1715 2420 1715 2267 
C 1715 2127 1677 1980 1600 1673 
L 1382 798 
C 1286 415 1101 64 762 64 
C 730 64 570 64 435 147 
C 666 192 717 383 717 460 
C 717 588 621 664 499 664 
C 346 664 179 530 179 326 
C 179 57 480 -64 755 -64 
C 1062 -64 1280 179 1414 441 
C 1517 64 1837 -64 2074 -64 
C 2726 -64 3072 773 3072 913 
C 3072 945 3046 971 3008 971 
C 2950 971 2944 939 2925 888 
C 2752 326 2381 64 2093 64 
C 1869 64 1747 230 1747 492 
C 1747 632 1773 734 1875 1156 
L 2099 2024 
C 2195 2408 2413 2689 2707 2689 
C 2720 2689 2899 2689 3034 2606 
z
" transform="scale(0.015625)"/>
      </defs>
      <use xlink:href="#CMMI12-1f" transform="scale(0.996264)"/>
      <use xlink:href="#CMSY10-30" transform="translate(61.112959 36.153639) scale(0.697382)"/>
      <use xlink:href="#CMMI12-6d" transform="translate(61.112959 -24.62935) scale(0.697382)"/>
      <use xlink:href="#CMMI12-61" transform="translate(120.84175 -24.62935) scale(0.697382)"/>
      <use xlink:href="#CMMI12-78" transform="translate(156.687097 -24.62935) scale(0.697382)"/>
     </g>
    </g>
   </g>
   <g id="LineCollection_1">
    <path d="M 64.564395 125.77665 
L 64.564395 125.275784 
" clip-path="url(#pd26d9dd17c)" style="fill: none; stroke: #0040df; stroke-width: 1.5"/>
    <path d="M 86.809027 115.678395 
L 86.809027 115.244625 
" clip-path="url(#pd26d9dd17c)" style="fill: none; stroke: #0040df; stroke-width: 1.5"/>
    <path d="M 106.576615 105.881033 
L 106.576615 105.475864 
" clip-path="url(#pd26d9dd17c)" style="fill: none; stroke: #0040df; stroke-width: 1.5"/>
    <path d="M 132.631733 93.216154 
L 132.631733 92.865244 
" clip-path="url(#pd26d9dd17c)" style="fill: none; stroke: #0040df; stroke-width: 1.5"/>
    <path d="M 148.095839 85.732418 
L 148.095839 85.395377 
" clip-path="url(#pd26d9dd17c)" style="fill: none; stroke: #0040df; stroke-width: 1.5"/>
    <path d="M 169.028841 76.01574 
L 169.028841 75.706302 
" clip-path="url(#pd26d9dd17c)" style="fill: none; stroke: #0040df; stroke-width: 1.5"/>
    <path d="M 193.581624 64.284982 
L 193.581624 63.999238 
" clip-path="url(#pd26d9dd17c)" style="fill: none; stroke: #0040df; stroke-width: 1.5"/>
    <path d="M 215.150495 53.954057 
L 215.150495 53.689328 
" clip-path="url(#pd26d9dd17c)" style="fill: none; stroke: #0040df; stroke-width: 1.5"/>
    <path d="M 238.882376 42.94254 
L 238.882376 42.713502 
" clip-path="url(#pd26d9dd17c)" style="fill: none; stroke: #0040df; stroke-width: 1.5"/>
    <path d="M 259.815378 32.997555 
L 259.815378 32.755466 
" clip-path="url(#pd26d9dd17c)" style="fill: none; stroke: #0040df; stroke-width: 1.5"/>
    <path d="M 278.540586 24.260167 
L 278.540586 24.045923 
" clip-path="url(#pd26d9dd17c)" style="fill: none; stroke: #0040df; stroke-width: 1.5"/>
   </g>
   <g id="line2d_24">
    <defs>
     <path id="m40cad87b46" d="M 2 0 
L -2 -0 
" style="stroke: #0040df"/>
    </defs>
    <g clip-path="url(#pd26d9dd17c)">
     <use xlink:href="#m40cad87b46" x="64.564395" y="125.77665" style="fill: #0040df; stroke: #0040df"/>
     <use xlink:href="#m40cad87b46" x="86.809027" y="115.678395" style="fill: #0040df; stroke: #0040df"/>
     <use xlink:href="#m40cad87b46" x="106.576615" y="105.881033" style="fill: #0040df; stroke: #0040df"/>
     <use xlink:href="#m40cad87b46" x="132.631733" y="93.216154" style="fill: #0040df; stroke: #0040df"/>
     <use xlink:href="#m40cad87b46" x="148.095839" y="85.732418" style="fill: #0040df; stroke: #0040df"/>
     <use xlink:href="#m40cad87b46" x="169.028841" y="76.01574" style="fill: #0040df; stroke: #0040df"/>
     <use xlink:href="#m40cad87b46" x="193.581624" y="64.284982" style="fill: #0040df; stroke: #0040df"/>
     <use xlink:href="#m40cad87b46" x="215.150495" y="53.954057" style="fill: #0040df; stroke: #0040df"/>
     <use xlink:href="#m40cad87b46" x="238.882376" y="42.94254" style="fill: #0040df; stroke: #0040df"/>
     <use xlink:href="#m40cad87b46" x="259.815378" y="32.997555" style="fill: #0040df; stroke: #0040df"/>
     <use xlink:href="#m40cad87b46" x="278.540586" y="24.260167" style="fill: #0040df; stroke: #0040df"/>
    </g>
   </g>
   <g id="line2d_25">
    <g clip-path="url(#pd26d9dd17c)">
     <use xlink:href="#m40cad87b46" x="64.564395" y="125.275784" style="fill: #0040df; stroke: #0040df"/>
     <use xlink:href="#m40cad87b46" x="86.809027" y="115.244625" style="fill: #0040df; stroke: #0040df"/>
     <use xlink:href="#m40cad87b46" x="106.576615" y="105.475864" style="fill: #0040df; stroke: #0040df"/>
     <use xlink:href="#m40cad87b46" x="132.631733" y="92.865244" style="fill: #0040df; stroke: #0040df"/>
     <use xlink:href="#m40cad87b46" x="148.095839" y="85.395377" style="fill: #0040df; stroke: #0040df"/>
     <use xlink:href="#m40cad87b46" x="169.028841" y="75.706302" style="fill: #0040df; stroke: #0040df"/>
     <use xlink:href="#m40cad87b46" x="193.581624" y="63.999238" style="fill: #0040df; stroke: #0040df"/>
     <use xlink:href="#m40cad87b46" x="215.150495" y="53.689328" style="fill: #0040df; stroke: #0040df"/>
     <use xlink:href="#m40cad87b46" x="238.882376" y="42.713502" style="fill: #0040df; stroke: #0040df"/>
     <use xlink:href="#m40cad87b46" x="259.815378" y="32.755466" style="fill: #0040df; stroke: #0040df"/>
     <use xlink:href="#m40cad87b46" x="278.540586" y="24.045923" style="fill: #0040df; stroke: #0040df"/>
    </g>
   </g>
   <g id="line2d_26">
    <path d="M 55.448289 130.347127 
L 60.202824 128.021692 
L 64.833472 125.761577 
L 69.346525 123.56313 
L 73.747808 121.423003 
L 78.042725 119.338118 
L 82.236295 117.305638 
L 86.33319 115.322943 
L 90.337769 113.387606 
L 94.254099 111.497378 
L 98.085988 109.650167 
L 101.836998 107.844026 
L 105.510474 106.077138 
L 109.109557 104.347807 
L 112.6372 102.654446 
L 116.096183 100.995565 
L 119.48913 99.369769 
L 122.818513 97.775746 
L 126.08667 96.21226 
L 129.295814 94.678149 
L 132.448037 93.172314 
L 135.545324 91.69372 
L 138.589557 90.241386 
L 141.582522 88.814385 
L 144.525917 87.411838 
L 147.421359 86.032912 
L 150.270385 84.676815 
L 153.074458 83.342797 
L 155.834977 82.030143 
L 158.553273 80.738171 
L 161.230618 79.466234 
L 163.868228 78.213715 
L 166.467265 76.980023 
L 169.028841 75.764596 
L 171.554021 74.566896 
L 174.043824 73.386409 
L 176.499228 72.222643 
L 178.921171 71.075127 
L 181.310552 69.94341 
L 183.668235 68.827059 
L 185.99505 67.725659 
L 188.291796 66.638812 
L 190.559239 65.566135 
L 192.798118 64.507262 
L 195.009143 63.461839 
L 197.192999 62.429525 
L 199.350345 61.409994 
L 201.481818 60.402932 
L 203.588031 59.408035 
L 205.669575 58.42501 
L 207.727022 57.453576 
L 209.760923 56.49346 
L 211.77181 55.544402 
L 213.7602 54.606146 
L 215.72659 53.67845 
L 217.671461 52.761075 
L 219.595279 51.853795 
L 221.498495 50.956387 
L 223.381546 50.068639 
L 225.244854 49.190342 
L 227.088829 48.321298 
L 228.913869 47.461312 
L 230.720358 46.610196 
L 232.50867 45.767769 
L 234.279166 44.933853 
L 236.032198 44.108278 
L 237.768108 43.290878 
L 239.487226 42.481491 
L 241.189875 41.679962 
L 242.876366 40.886138 
L 244.547004 40.099872 
L 246.202084 39.321021 
L 247.841893 38.549446 
L 249.466711 37.785012 
L 251.076808 37.027586 
L 252.672449 36.277042 
L 254.253892 35.533254 
L 255.821387 34.796102 
L 257.375178 34.065467 
L 258.915502 33.341236 
L 260.442591 32.623296 
L 261.95667 31.911539 
L 263.457959 31.205858 
L 264.946673 30.506151 
L 266.42302 29.812317 
L 267.887204 29.124257 
L 269.339424 28.441876 
L 270.779874 27.765081 
L 272.208742 27.093781 
L 273.626215 26.427886 
L 275.032472 25.76731 
L 276.427689 25.11197 
L 277.812038 24.461781 
L 279.185687 23.816663 
L 280.548801 23.176538 
L 281.901539 22.541329 
L 283.244059 21.91096 
L 284.576514 21.285359 
L 285.899053 20.664453 
L 287.211823 20.048172 
" clip-path="url(#pd26d9dd17c)" style="fill: none; stroke: #0040df; stroke-opacity: 0.5; stroke-width: 1.5; stroke-linecap: square"/>
   </g>
   <g id="LineCollection_2">
    <path d="M 64.564395 201.434621 
L 64.564395 200.427365 
" clip-path="url(#pd26d9dd17c)" style="fill: none; stroke: #00c09f; stroke-width: 1.5"/>
    <path d="M 86.809027 190.882393 
L 86.809027 189.792687 
" clip-path="url(#pd26d9dd17c)" style="fill: none; stroke: #00c09f; stroke-width: 1.5"/>
    <path d="M 106.576615 181.485437 
L 106.576615 180.638371 
" clip-path="url(#pd26d9dd17c)" style="fill: none; stroke: #00c09f; stroke-width: 1.5"/>
    <path d="M 132.631733 169.082425 
L 132.631733 168.388339 
" clip-path="url(#pd26d9dd17c)" style="fill: none; stroke: #00c09f; stroke-width: 1.5"/>
    <path d="M 148.095839 161.667002 
L 148.095839 161.05245 
" clip-path="url(#pd26d9dd17c)" style="fill: none; stroke: #00c09f; stroke-width: 1.5"/>
    <path d="M 169.028841 152.448304 
L 169.028841 151.882462 
" clip-path="url(#pd26d9dd17c)" style="fill: none; stroke: #00c09f; stroke-width: 1.5"/>
    <path d="M 193.581624 140.153684 
L 193.581624 139.620191 
" clip-path="url(#pd26d9dd17c)" style="fill: none; stroke: #00c09f; stroke-width: 1.5"/>
    <path d="M 215.150495 129.829901 
L 215.150495 129.378704 
" clip-path="url(#pd26d9dd17c)" style="fill: none; stroke: #00c09f; stroke-width: 1.5"/>
    <path d="M 238.882376 118.562847 
L 238.882376 118.123889 
" clip-path="url(#pd26d9dd17c)" style="fill: none; stroke: #00c09f; stroke-width: 1.5"/>
    <path d="M 259.815378 108.997063 
L 259.815378 108.606261 
" clip-path="url(#pd26d9dd17c)" style="fill: none; stroke: #00c09f; stroke-width: 1.5"/>
    <path d="M 278.540586 99.575352 
L 278.540586 99.250442 
" clip-path="url(#pd26d9dd17c)" style="fill: none; stroke: #00c09f; stroke-width: 1.5"/>
   </g>
   <g id="line2d_27">
    <defs>
     <path id="mbfb78482a0" d="M 2 0 
L -2 -0 
" style="stroke: #00c09f"/>
    </defs>
    <g clip-path="url(#pd26d9dd17c)">
     <use xlink:href="#mbfb78482a0" x="64.564395" y="201.434621" style="fill: #00c09f; stroke: #00c09f"/>
     <use xlink:href="#mbfb78482a0" x="86.809027" y="190.882393" style="fill: #00c09f; stroke: #00c09f"/>
     <use xlink:href="#mbfb78482a0" x="106.576615" y="181.485437" style="fill: #00c09f; stroke: #00c09f"/>
     <use xlink:href="#mbfb78482a0" x="132.631733" y="169.082425" style="fill: #00c09f; stroke: #00c09f"/>
     <use xlink:href="#mbfb78482a0" x="148.095839" y="161.667002" style="fill: #00c09f; stroke: #00c09f"/>
     <use xlink:href="#mbfb78482a0" x="169.028841" y="152.448304" style="fill: #00c09f; stroke: #00c09f"/>
     <use xlink:href="#mbfb78482a0" x="193.581624" y="140.153684" style="fill: #00c09f; stroke: #00c09f"/>
     <use xlink:href="#mbfb78482a0" x="215.150495" y="129.829901" style="fill: #00c09f; stroke: #00c09f"/>
     <use xlink:href="#mbfb78482a0" x="238.882376" y="118.562847" style="fill: #00c09f; stroke: #00c09f"/>
     <use xlink:href="#mbfb78482a0" x="259.815378" y="108.997063" style="fill: #00c09f; stroke: #00c09f"/>
     <use xlink:href="#mbfb78482a0" x="278.540586" y="99.575352" style="fill: #00c09f; stroke: #00c09f"/>
    </g>
   </g>
   <g id="line2d_28">
    <g clip-path="url(#pd26d9dd17c)">
     <use xlink:href="#mbfb78482a0" x="64.564395" y="200.427365" style="fill: #00c09f; stroke: #00c09f"/>
     <use xlink:href="#mbfb78482a0" x="86.809027" y="189.792687" style="fill: #00c09f; stroke: #00c09f"/>
     <use xlink:href="#mbfb78482a0" x="106.576615" y="180.638371" style="fill: #00c09f; stroke: #00c09f"/>
     <use xlink:href="#mbfb78482a0" x="132.631733" y="168.388339" style="fill: #00c09f; stroke: #00c09f"/>
     <use xlink:href="#mbfb78482a0" x="148.095839" y="161.05245" style="fill: #00c09f; stroke: #00c09f"/>
     <use xlink:href="#mbfb78482a0" x="169.028841" y="151.882462" style="fill: #00c09f; stroke: #00c09f"/>
     <use xlink:href="#mbfb78482a0" x="193.581624" y="139.620191" style="fill: #00c09f; stroke: #00c09f"/>
     <use xlink:href="#mbfb78482a0" x="215.150495" y="129.378704" style="fill: #00c09f; stroke: #00c09f"/>
     <use xlink:href="#mbfb78482a0" x="238.882376" y="118.123889" style="fill: #00c09f; stroke: #00c09f"/>
     <use xlink:href="#mbfb78482a0" x="259.815378" y="108.606261" style="fill: #00c09f; stroke: #00c09f"/>
     <use xlink:href="#mbfb78482a0" x="278.540586" y="99.250442" style="fill: #00c09f; stroke: #00c09f"/>
    </g>
   </g>
   <g id="line2d_29">
    <path d="M 55.448289 205.011604 
L 60.202824 202.805295 
L 64.833472 200.653405 
L 69.346525 198.553372 
L 73.747808 196.502806 
L 78.042725 194.499473 
L 82.236295 192.541287 
L 86.33319 190.626293 
L 90.337769 188.75266 
L 94.254099 186.918667 
L 98.085988 185.122698 
L 101.836998 183.363231 
L 105.510474 181.638834 
L 109.109557 179.948154 
L 112.6372 178.289917 
L 116.096183 176.662917 
L 119.48913 175.066012 
L 122.818513 173.498124 
L 126.08667 171.958229 
L 129.295814 170.445355 
L 132.448037 168.958581 
L 135.545324 167.497032 
L 138.589557 166.059874 
L 141.582522 164.646314 
L 144.525917 163.255598 
L 147.421359 161.887006 
L 150.270385 160.53985 
L 153.074458 159.213477 
L 155.834977 157.90726 
L 158.553273 156.6206 
L 161.230618 155.352925 
L 163.868228 154.103687 
L 166.467265 152.872363 
L 169.028841 151.658449 
L 171.554021 150.461463 
L 174.043824 149.280943 
L 176.499228 148.116445 
L 178.921171 146.967544 
L 181.310552 145.833829 
L 183.668235 144.714907 
L 185.99505 143.610399 
L 188.291796 142.519941 
L 190.559239 141.443182 
L 192.798118 140.379784 
L 195.009143 139.329421 
L 197.192999 138.291781 
L 199.350345 137.266558 
L 201.481818 136.253463 
L 203.588031 135.252212 
L 205.669575 134.262533 
L 207.727022 133.284164 
L 209.760923 132.316849 
L 211.77181 131.360343 
L 213.7602 130.414408 
L 215.72659 129.478815 
L 217.671461 128.55334 
L 219.595279 127.637769 
L 221.498495 126.731891 
L 223.381546 125.835506 
L 225.244854 124.948416 
L 227.088829 124.070432 
L 228.913869 123.20137 
L 230.720358 122.341051 
L 232.50867 121.489302 
L 234.279166 120.645953 
L 236.032198 119.810842 
L 237.768108 118.98381 
L 239.487226 118.164702 
L 241.189875 117.353369 
L 242.876366 116.549664 
L 244.547004 115.753447 
L 246.202084 114.96458 
L 247.841893 114.182928 
L 249.466711 113.408362 
L 251.076808 112.640754 
L 252.672449 111.87998 
L 254.253892 111.125922 
L 255.821387 110.37846 
L 257.375178 109.637482 
L 258.915502 108.902877 
L 260.442591 108.174535 
L 261.95667 107.452351 
L 263.457959 106.736223 
L 264.946673 106.026049 
L 266.42302 105.321732 
L 267.887204 104.623177 
L 269.339424 103.93029 
L 270.779874 103.24298 
L 272.208742 102.561158 
L 273.626215 101.884738 
L 275.032472 101.213635 
L 276.427689 100.547765 
L 277.812038 99.88705 
L 279.185687 99.231408 
L 280.548801 98.580764 
L 281.901539 97.935041 
L 283.244059 97.294167 
L 284.576514 96.658069 
L 285.899053 96.026676 
L 287.211823 95.399919 
" clip-path="url(#pd26d9dd17c)" style="fill: none; stroke: #00c09f; stroke-opacity: 0.5; stroke-width: 1.5; stroke-linecap: square"/>
   </g>
   <g id="LineCollection_3">
    <path d="M 64.564395 177.026121 
L 64.564395 176.271911 
" clip-path="url(#pd26d9dd17c)" style="fill: none; stroke: #0080bf; stroke-width: 1.5"/>
    <path d="M 86.809027 166.024429 
L 86.809027 165.404476 
" clip-path="url(#pd26d9dd17c)" style="fill: none; stroke: #0080bf; stroke-width: 1.5"/>
    <path d="M 106.576615 156.644873 
L 106.576615 156.077923 
" clip-path="url(#pd26d9dd17c)" style="fill: none; stroke: #0080bf; stroke-width: 1.5"/>
    <path d="M 132.631733 144.052286 
L 132.631733 143.568004 
" clip-path="url(#pd26d9dd17c)" style="fill: none; stroke: #0080bf; stroke-width: 1.5"/>
    <path d="M 148.095839 136.582978 
L 148.095839 136.145757 
" clip-path="url(#pd26d9dd17c)" style="fill: none; stroke: #0080bf; stroke-width: 1.5"/>
    <path d="M 169.028841 126.964914 
L 169.028841 126.548758 
" clip-path="url(#pd26d9dd17c)" style="fill: none; stroke: #0080bf; stroke-width: 1.5"/>
    <path d="M 193.581624 114.991141 
L 193.581624 114.630107 
" clip-path="url(#pd26d9dd17c)" style="fill: none; stroke: #0080bf; stroke-width: 1.5"/>
    <path d="M 215.150495 104.920156 
L 215.150495 104.567128 
" clip-path="url(#pd26d9dd17c)" style="fill: none; stroke: #0080bf; stroke-width: 1.5"/>
    <path d="M 238.882376 93.529906 
L 238.882376 93.214951 
" clip-path="url(#pd26d9dd17c)" style="fill: none; stroke: #0080bf; stroke-width: 1.5"/>
    <path d="M 259.815378 83.55971 
L 259.815378 83.26355 
" clip-path="url(#pd26d9dd17c)" style="fill: none; stroke: #0080bf; stroke-width: 1.5"/>
    <path d="M 278.540586 74.569713 
L 278.540586 74.303562 
" clip-path="url(#pd26d9dd17c)" style="fill: none; stroke: #0080bf; stroke-width: 1.5"/>
   </g>
   <g id="line2d_30">
    <defs>
     <path id="m29664a365f" d="M 2 0 
L -2 -0 
" style="stroke: #0080bf"/>
    </defs>
    <g clip-path="url(#pd26d9dd17c)">
     <use xlink:href="#m29664a365f" x="64.564395" y="177.026121" style="fill: #0080bf; stroke: #0080bf"/>
     <use xlink:href="#m29664a365f" x="86.809027" y="166.024429" style="fill: #0080bf; stroke: #0080bf"/>
     <use xlink:href="#m29664a365f" x="106.576615" y="156.644873" style="fill: #0080bf; stroke: #0080bf"/>
     <use xlink:href="#m29664a365f" x="132.631733" y="144.052286" style="fill: #0080bf; stroke: #0080bf"/>
     <use xlink:href="#m29664a365f" x="148.095839" y="136.582978" style="fill: #0080bf; stroke: #0080bf"/>
     <use xlink:href="#m29664a365f" x="169.028841" y="126.964914" style="fill: #0080bf; stroke: #0080bf"/>
     <use xlink:href="#m29664a365f" x="193.581624" y="114.991141" style="fill: #0080bf; stroke: #0080bf"/>
     <use xlink:href="#m29664a365f" x="215.150495" y="104.920156" style="fill: #0080bf; stroke: #0080bf"/>
     <use xlink:href="#m29664a365f" x="238.882376" y="93.529906" style="fill: #0080bf; stroke: #0080bf"/>
     <use xlink:href="#m29664a365f" x="259.815378" y="83.55971" style="fill: #0080bf; stroke: #0080bf"/>
     <use xlink:href="#m29664a365f" x="278.540586" y="74.569713" style="fill: #0080bf; stroke: #0080bf"/>
    </g>
   </g>
   <g id="line2d_31">
    <g clip-path="url(#pd26d9dd17c)">
     <use xlink:href="#m29664a365f" x="64.564395" y="176.271911" style="fill: #0080bf; stroke: #0080bf"/>
     <use xlink:href="#m29664a365f" x="86.809027" y="165.404476" style="fill: #0080bf; stroke: #0080bf"/>
     <use xlink:href="#m29664a365f" x="106.576615" y="156.077923" style="fill: #0080bf; stroke: #0080bf"/>
     <use xlink:href="#m29664a365f" x="132.631733" y="143.568004" style="fill: #0080bf; stroke: #0080bf"/>
     <use xlink:href="#m29664a365f" x="148.095839" y="136.145757" style="fill: #0080bf; stroke: #0080bf"/>
     <use xlink:href="#m29664a365f" x="169.028841" y="126.548758" style="fill: #0080bf; stroke: #0080bf"/>
     <use xlink:href="#m29664a365f" x="193.581624" y="114.630107" style="fill: #0080bf; stroke: #0080bf"/>
     <use xlink:href="#m29664a365f" x="215.150495" y="104.567128" style="fill: #0080bf; stroke: #0080bf"/>
     <use xlink:href="#m29664a365f" x="238.882376" y="93.214951" style="fill: #0080bf; stroke: #0080bf"/>
     <use xlink:href="#m29664a365f" x="259.815378" y="83.26355" style="fill: #0080bf; stroke: #0080bf"/>
     <use xlink:href="#m29664a365f" x="278.540586" y="74.303562" style="fill: #0080bf; stroke: #0080bf"/>
    </g>
   </g>
   <g id="line2d_32">
    <path d="M 55.448289 180.815619 
L 60.202824 178.535858 
L 64.833472 176.316547 
L 69.346525 174.154543 
L 73.747808 172.046944 
L 78.042725 169.991064 
L 82.236295 167.984414 
L 86.33319 166.024678 
L 90.337769 164.109702 
L 94.254099 162.237478 
L 98.085988 160.406129 
L 101.836998 158.613903 
L 105.510474 156.859154 
L 109.109557 155.140341 
L 112.6372 153.456017 
L 116.096183 151.804819 
L 119.48913 150.185465 
L 122.818513 148.596745 
L 126.08667 147.037518 
L 129.295814 145.506705 
L 132.448037 144.003285 
L 135.545324 142.526293 
L 138.589557 141.074813 
L 141.582522 139.647975 
L 144.525917 138.244955 
L 147.421359 136.864968 
L 150.270385 135.507268 
L 153.074458 134.171144 
L 155.834977 132.855921 
L 158.553273 131.560952 
L 161.230618 130.285622 
L 163.868228 129.029342 
L 166.467265 127.79155 
L 169.028841 126.57171 
L 171.554021 125.369305 
L 174.043824 124.183845 
L 176.499228 123.014857 
L 178.921171 121.861888 
L 181.310552 120.724505 
L 183.668235 119.602291 
L 185.99505 118.494847 
L 188.291796 117.401786 
L 190.559239 116.322741 
L 192.798118 115.257355 
L 195.009143 114.205287 
L 197.192999 113.166206 
L 199.350345 112.139797 
L 201.481818 111.125752 
L 203.588031 110.123777 
L 205.669575 109.133588 
L 207.727022 108.15491 
L 209.760923 107.187478 
L 211.77181 106.231037 
L 213.7602 105.285338 
L 215.72659 104.350144 
L 217.671461 103.425222 
L 219.595279 102.51035 
L 221.498495 101.605311 
L 223.381546 100.709896 
L 225.244854 99.823901 
L 227.088829 98.947131 
L 228.913869 98.079395 
L 230.720358 97.220509 
L 232.50867 96.370293 
L 234.279166 95.528575 
L 236.032198 94.695185 
L 237.768108 93.869961 
L 239.487226 93.052743 
L 241.189875 92.243378 
L 242.876366 91.441717 
L 244.547004 90.647613 
L 246.202084 89.860925 
L 247.841893 89.081516 
L 249.466711 88.309253 
L 251.076808 87.544005 
L 252.672449 86.785646 
L 254.253892 86.034053 
L 255.821387 85.289106 
L 257.375178 84.550688 
L 258.915502 83.818687 
L 260.442591 83.09299 
L 261.95667 82.373492 
L 263.457959 81.660086 
L 264.946673 80.952669 
L 266.42302 80.251143 
L 267.887204 79.55541 
L 269.339424 78.865375 
L 270.779874 78.180945 
L 272.208742 77.50203 
L 273.626215 76.828541 
L 275.032472 76.160393 
L 276.427689 75.497502 
L 277.812038 74.839784 
L 279.185687 74.187161 
L 280.548801 73.539553 
L 281.901539 72.896884 
L 283.244059 72.25908 
L 284.576514 71.626067 
L 285.899053 70.997773 
L 287.211823 70.37413 
" clip-path="url(#pd26d9dd17c)" style="fill: none; stroke: #0080bf; stroke-opacity: 0.5; stroke-width: 1.5; stroke-linecap: square"/>
   </g>
   <g id="line2d_33">
    <defs>
     <path id="m837325984d" d="M 0 3 
C 0.795609 3 1.55874 2.683901 2.12132 2.12132 
C 2.683901 1.55874 3 0.795609 3 0 
C 3 -0.795609 2.683901 -1.55874 2.12132 -2.12132 
C 1.55874 -2.683901 0.795609 -3 0 -3 
C -0.795609 -3 -1.55874 -2.683901 -2.12132 -2.12132 
C -2.683901 -1.55874 -3 -0.795609 -3 0 
C -3 0.795609 -2.683901 1.55874 -2.12132 2.12132 
C -1.55874 2.683901 -0.795609 3 0 3 
z
" style="stroke: #000000"/>
    </defs>
    <g clip-path="url(#pd26d9dd17c)">
     <use xlink:href="#m837325984d" x="64.564395" y="125.525566" style="fill-opacity: 0; stroke: #000000"/>
     <use xlink:href="#m837325984d" x="86.809027" y="115.461021" style="fill-opacity: 0; stroke: #000000"/>
     <use xlink:href="#m837325984d" x="106.576615" y="105.678022" style="fill-opacity: 0; stroke: #000000"/>
     <use xlink:href="#m837325984d" x="132.631733" y="93.040379" style="fill-opacity: 0; stroke: #000000"/>
     <use xlink:href="#m837325984d" x="148.095839" y="85.563602" style="fill-opacity: 0; stroke: #000000"/>
     <use xlink:href="#m837325984d" x="169.028841" y="75.860772" style="fill-opacity: 0; stroke: #000000"/>
     <use xlink:href="#m837325984d" x="193.581624" y="64.141898" style="fill-opacity: 0; stroke: #000000"/>
     <use xlink:href="#m837325984d" x="215.150495" y="53.821511" style="fill-opacity: 0; stroke: #000000"/>
     <use xlink:href="#m837325984d" x="238.882376" y="42.827885" style="fill-opacity: 0; stroke: #000000"/>
     <use xlink:href="#m837325984d" x="259.815378" y="32.876358" style="fill-opacity: 0; stroke: #000000"/>
     <use xlink:href="#m837325984d" x="278.540586" y="24.152926" style="fill-opacity: 0; stroke: #000000"/>
    </g>
   </g>
   <g id="line2d_34">
    <g clip-path="url(#pd26d9dd17c)">
     <use xlink:href="#m837325984d" x="64.564395" y="200.928357" style="fill-opacity: 0; stroke: #000000"/>
     <use xlink:href="#m837325984d" x="86.809027" y="190.334455" style="fill-opacity: 0; stroke: #000000"/>
     <use xlink:href="#m837325984d" x="106.576615" y="181.06004" style="fill-opacity: 0; stroke: #000000"/>
     <use xlink:href="#m837325984d" x="132.631733" y="168.73413" style="fill-opacity: 0; stroke: #000000"/>
     <use xlink:href="#m837325984d" x="148.095839" y="161.358745" style="fill-opacity: 0; stroke: #000000"/>
     <use xlink:href="#m837325984d" x="169.028841" y="152.164551" style="fill-opacity: 0; stroke: #000000"/>
     <use xlink:href="#m837325984d" x="193.581624" y="139.886198" style="fill-opacity: 0; stroke: #000000"/>
     <use xlink:href="#m837325984d" x="215.150495" y="129.603774" style="fill-opacity: 0; stroke: #000000"/>
     <use xlink:href="#m837325984d" x="238.882376" y="118.342867" style="fill-opacity: 0; stroke: #000000"/>
     <use xlink:href="#m837325984d" x="259.815378" y="108.801266" style="fill-opacity: 0; stroke: #000000"/>
     <use xlink:href="#m837325984d" x="278.540586" y="99.412623" style="fill-opacity: 0; stroke: #000000"/>
    </g>
   </g>
   <g id="line2d_35">
    <g clip-path="url(#pd26d9dd17c)">
     <use xlink:href="#m837325984d" x="64.564395" y="176.647538" style="fill-opacity: 0; stroke: #000000"/>
     <use xlink:href="#m837325984d" x="86.809027" y="165.713454" style="fill-opacity: 0; stroke: #000000"/>
     <use xlink:href="#m837325984d" x="106.576615" y="156.360563" style="fill-opacity: 0; stroke: #000000"/>
     <use xlink:href="#m837325984d" x="132.631733" y="143.809536" style="fill-opacity: 0; stroke: #000000"/>
     <use xlink:href="#m837325984d" x="148.095839" y="136.363871" style="fill-opacity: 0; stroke: #000000"/>
     <use xlink:href="#m837325984d" x="169.028841" y="126.756386" style="fill-opacity: 0; stroke: #000000"/>
     <use xlink:href="#m837325984d" x="193.581624" y="114.810286" style="fill-opacity: 0; stroke: #000000"/>
     <use xlink:href="#m837325984d" x="215.150495" y="104.743318" style="fill-opacity: 0; stroke: #000000"/>
     <use xlink:href="#m837325984d" x="238.882376" y="93.37217" style="fill-opacity: 0; stroke: #000000"/>
     <use xlink:href="#m837325984d" x="259.815378" y="83.411402" style="fill-opacity: 0; stroke: #000000"/>
     <use xlink:href="#m837325984d" x="278.540586" y="74.436454" style="fill-opacity: 0; stroke: #000000"/>
    </g>
   </g>
   <g id="patch_3">
    <path d="M 43.860112 214.259776 
L 43.860112 10.8 
" style="fill: none; stroke: #000000; stroke-width: 0.8; stroke-linejoin: miter; stroke-linecap: square"/>
   </g>
   <g id="patch_4">
    <path d="M 298.8 214.259776 
L 298.8 10.8 
" style="fill: none; stroke: #000000; stroke-width: 0.8; stroke-linejoin: miter; stroke-linecap: square"/>
   </g>
   <g id="patch_5">
    <path d="M 43.860112 214.259776 
L 298.8 214.259776 
" style="fill: none; stroke: #000000; stroke-width: 0.8; stroke-linejoin: miter; stroke-linecap: square"/>
   </g>
   <g id="patch_6">
    <path d="M 43.860112 10.8 
L 298.8 10.8 
" style="fill: none; stroke: #000000; stroke-width: 0.8; stroke-linejoin: miter; stroke-linecap: square"/>
   </g>
   <g id="legend_1">
    <g id="patch_7">
     <path d="M 50.860112 48.611535 
L 88.080851 48.611535 
Q 90.080851 48.611535 90.080851 46.611535 
L 90.080851 17.8 
Q 90.080851 15.8 88.080851 15.8 
L 50.860112 15.8 
Q 48.860112 15.8 48.860112 17.8 
L 48.860112 46.611535 
Q 48.860112 48.611535 50.860112 48.611535 
z
" style="fill: #ffffff; opacity: 0.8; stroke: #cccccc; stroke-linejoin: miter"/>
    </g>
    <g id="LineCollection_4">
     <path d="M 60.860112 26.3 
L 60.860112 16.3 
" style="fill: none; stroke: #0040df; stroke-width: 1.5"/>
    </g>
    <g id="line2d_36">
     <g>
      <use xlink:href="#m40cad87b46" x="60.860112" y="26.3" style="fill: #0040df; stroke: #0040df"/>
     </g>
    </g>
    <g id="line2d_37">
     <g>
      <use xlink:href="#m40cad87b46" x="60.860112" y="16.3" style="fill: #0040df; stroke: #0040df"/>
     </g>
    </g>
    <g id="line2d_38"/>
    <g id="line2d_39">
     <g>
      <use xlink:href="#m837325984d" x="60.860112" y="21.3" style="fill-opacity: 0; stroke: #000000"/>
     </g>
    </g>
    <g id="text_9">
     <!-- hex -->
     <g transform="translate(72.860112 24.8) scale(0.1 -0.1)">
      <defs>
       <path id="CMR17-68" d="M 2656 1933 
C 2656 2259 2592 2790 1837 2790 
C 1312 2790 1056 2368 979 2157 
L 973 2157 
L 973 4396 
L 211 4326 
L 211 4160 
C 589 4160 646 4122 646 3817 
L 646 426 
C 646 184 621 153 211 153 
L 211 -13 
C 365 0 646 0 813 0 
C 979 0 1267 0 1421 -13 
L 1421 153 
C 1011 153 986 178 986 428 
L 986 1658 
C 986 2247 1344 2688 1792 2688 
C 2266 2688 2317 2266 2317 1958 
L 2317 428 
C 2317 184 2291 153 1882 153 
L 1882 -13 
C 2035 0 2317 0 2483 0 
C 2650 0 2938 0 3091 -13 
L 3091 153 
C 2682 153 2656 178 2656 428 
L 2656 1933 
z
" transform="scale(0.015625)"/>
       <path id="CMR17-65" d="M 2438 1472 
C 2464 1498 2464 1511 2464 1576 
C 2464 2238 2118 2816 1389 2816 
C 710 2816 173 2169 173 1383 
C 173 551 781 -64 1459 -64 
C 2176 -64 2458 607 2458 740 
C 2458 784 2419 784 2406 784 
C 2362 784 2355 771 2330 696 
C 2189 265 1837 51 1504 51 
C 1229 51 954 203 781 480 
C 582 803 582 1176 582 1472 
L 2438 1472 
z
M 589 1568 
C 634 2505 1126 2714 1382 2714 
C 1818 2714 2112 2297 2118 1568 
L 589 1568 
z
" transform="scale(0.015625)"/>
       <path id="CMR17-78" d="M 1664 1477 
C 1856 1726 2074 2006 2253 2216 
C 2464 2458 2707 2560 2989 2560 
L 2989 2726 
C 2880 2726 2656 2726 2541 2726 
C 2368 2726 2170 2726 2022 2732 
L 2022 2566 
C 2112 2553 2163 2489 2163 2400 
C 2163 2285 2099 2215 2067 2171 
L 1594 1573 
L 1030 2306 
C 973 2376 973 2388 973 2420 
C 973 2497 1037 2560 1146 2560 
L 1146 2732 
C 992 2726 717 2726 557 2726 
C 384 2726 179 2726 38 2732 
L 38 2560 
C 384 2560 461 2534 614 2343 
L 1350 1395 
C 1363 1382 1395 1344 1395 1325 
C 1395 1299 838 619 768 530 
C 480 185 179 160 6 160 
L 6 0 
C 115 0 339 0 454 0 
C 582 0 864 0 979 -6 
L 979 160 
C 941 166 838 179 838 325 
C 838 440 890 510 947 586 
L 1478 1236 
L 2035 512 
C 2086 442 2163 346 2163 301 
C 2163 211 2086 160 1984 160 
L 1984 -6 
C 2138 0 2413 0 2573 0 
C 2746 0 2950 0 3091 -6 
L 3091 160 
C 2771 160 2675 172 2522 370 
L 1664 1477 
z
" transform="scale(0.015625)"/>
      </defs>
      <use xlink:href="#CMR17-68" transform="scale(0.996264)"/>
      <use xlink:href="#CMR17-65" transform="translate(50.89537 0) scale(0.996264)"/>
      <use xlink:href="#CMR17-78" transform="translate(91.38103 0) scale(0.996264)"/>
     </g>
    </g>
    <g id="LineCollection_5">
     <path d="M 60.860112 36.237178 
L 60.860112 26.237178 
" style="fill: none; stroke: #00c09f; stroke-width: 1.5"/>
    </g>
    <g id="line2d_40">
     <g>
      <use xlink:href="#mbfb78482a0" x="60.860112" y="36.237178" style="fill: #00c09f; stroke: #00c09f"/>
     </g>
    </g>
    <g id="line2d_41">
     <g>
      <use xlink:href="#mbfb78482a0" x="60.860112" y="26.237178" style="fill: #00c09f; stroke: #00c09f"/>
     </g>
    </g>
    <g id="line2d_42"/>
    <g id="line2d_43">
     <g>
      <use xlink:href="#m837325984d" x="60.860112" y="31.237178" style="fill-opacity: 0; stroke: #000000"/>
     </g>
    </g>
    <g id="text_10">
     <!-- tri -->
     <g transform="translate(72.860112 34.737178) scale(0.1 -0.1)">
      <defs>
       <path id="CMR17-74" d="M 966 2560 
L 1862 2560 
L 1862 2725 
L 966 2725 
L 966 3904 
L 851 3904 
C 838 3245 614 2668 70 2668 
L 70 2560 
L 627 2560 
L 627 771 
C 627 650 627 -64 1370 -64 
C 1747 -64 1965 306 1965 777 
L 1965 1140 
L 1850 1140 
L 1850 783 
C 1850 344 1677 51 1408 51 
C 1222 51 966 178 966 758 
L 966 2560 
z
" transform="scale(0.015625)"/>
       <path id="CMR17-72" d="M 960 1497 
C 960 2112 1222 2688 1702 2688 
C 1747 2688 1792 2682 1837 2662 
C 1837 2662 1696 2617 1696 2452 
C 1696 2298 1818 2234 1914 2234 
C 1990 2234 2131 2279 2131 2458 
C 2131 2663 1926 2790 1709 2790 
C 1222 2790 1011 2317 947 2093 
L 941 2093 
L 941 2790 
L 198 2720 
L 198 2554 
C 576 2554 634 2515 634 2208 
L 634 428 
C 634 184 608 153 198 153 
L 198 -13 
C 352 0 646 0 813 0 
C 998 0 1325 0 1498 -13 
L 1498 153 
C 1037 153 960 153 960 440 
L 960 1497 
z
" transform="scale(0.015625)"/>
       <path id="CMR17-69" d="M 992 3909 
C 992 4049 877 4170 730 4170 
C 589 4170 467 4056 467 3909 
C 467 3769 582 3648 730 3648 
C 870 3648 992 3763 992 3909 
z
M 243 2706 
L 243 2541 
C 602 2541 653 2502 653 2197 
L 653 427 
C 653 184 627 153 218 153 
L 218 -13 
C 371 0 646 0 806 0 
C 960 0 1222 0 1370 -13 
L 1370 153 
C 992 153 979 191 979 420 
L 979 2776 
L 243 2706 
z
" transform="scale(0.015625)"/>
      </defs>
      <use xlink:href="#CMR17-74" transform="scale(0.996264)"/>
      <use xlink:href="#CMR17-72" transform="translate(35.280768 0) scale(0.996264)"/>
      <use xlink:href="#CMR17-69" transform="translate(70.561536 0) scale(0.996264)"/>
     </g>
    </g>
    <g id="LineCollection_6">
     <path d="M 60.860112 46.174357 
L 60.860112 36.174357 
" style="fill: none; stroke: #0080bf; stroke-width: 1.5"/>
    </g>
    <g id="line2d_44">
     <g>
      <use xlink:href="#m29664a365f" x="60.860112" y="46.174357" style="fill: #0080bf; stroke: #0080bf"/>
     </g>
    </g>
    <g id="line2d_45">
     <g>
      <use xlink:href="#m29664a365f" x="60.860112" y="36.174357" style="fill: #0080bf; stroke: #0080bf"/>
     </g>
    </g>
    <g id="line2d_46"/>
    <g id="line2d_47">
     <g>
      <use xlink:href="#m837325984d" x="60.860112" y="41.174357" style="fill-opacity: 0; stroke: #000000"/>
     </g>
    </g>
    <g id="text_11">
     <!-- sqr -->
     <g transform="translate(72.860112 44.674357) scale(0.1 -0.1)">
      <defs>
       <path id="CMR17-73" d="M 1978 2697 
C 1978 2813 1971 2819 1933 2819 
C 1907 2819 1901 2813 1824 2717 
C 1805 2691 1747 2626 1728 2601 
C 1523 2819 1235 2819 1126 2819 
C 416 2819 160 2447 160 2076 
C 160 1498 813 1365 998 1325 
C 1402 1243 1542 1217 1677 1101 
C 1760 1025 1901 884 1901 654 
C 1901 384 1747 38 1158 38 
C 602 38 403 460 288 1021 
C 269 1110 269 1117 218 1117 
C 166 1117 160 1110 160 983 
L 160 63 
C 160 -51 166 -58 205 -58 
C 237 -58 243 -51 275 0 
C 314 57 410 211 448 276 
C 576 103 800 -64 1158 -64 
C 1792 -64 2131 283 2131 784 
C 2131 1112 1958 1285 1875 1362 
C 1683 1561 1459 1606 1190 1657 
C 838 1735 390 1825 390 2217 
C 390 2383 480 2737 1126 2737 
C 1811 2737 1850 2094 1862 1888 
C 1869 1856 1901 1849 1920 1849 
C 1978 1849 1978 1869 1978 1978 
L 1978 2697 
z
" transform="scale(0.015625)"/>
       <path id="CMR17-71" d="M 2630 2802 
L 2528 2802 
L 2336 2172 
C 2189 2509 1920 2802 1491 2802 
C 838 2802 211 2223 211 1383 
C 211 548 800 -38 1440 -38 
C 1933 -38 2208 338 2291 478 
L 2291 -789 
C 2291 -1031 2266 -1063 1856 -1063 
L 1856 -1228 
C 2010 -1216 2291 -1216 2458 -1216 
C 2624 -1216 2912 -1216 3066 -1228 
L 3066 -1063 
C 2656 -1063 2630 -1037 2630 -789 
L 2630 2802 
z
M 2304 886 
C 2304 612 2074 357 2054 338 
C 1856 115 1626 64 1472 64 
C 992 64 621 669 621 1375 
C 621 2121 1043 2688 1536 2688 
C 2048 2688 2304 2108 2304 1777 
L 2304 886 
z
" transform="scale(0.015625)"/>
      </defs>
      <use xlink:href="#CMR17-73" transform="scale(0.996264)"/>
      <use xlink:href="#CMR17-71" transform="translate(35.801338 0) scale(0.996264)"/>
      <use xlink:href="#CMR17-72" transform="translate(84.094253 0) scale(0.996264)"/>
     </g>
    </g>
   </g>
  </g>
 </g>
 <defs>
  <clipPath id="pd26d9dd17c">
   <rect x="43.860112" y="10.8" width="254.939888" height="203.459776"/>
  </clipPath>
 </defs>
</svg>
