<?xml version="1.0" encoding="utf-8" standalone="no"?>
<!DOCTYPE svg PUBLIC "-//W3C//DTD SVG 1.1//EN"
  "http://www.w3.org/Graphics/SVG/1.1/DTD/svg11.dtd">
<svg xmlns:xlink="http://www.w3.org/1999/xlink" width="309.6pt" height="252pt" viewBox="0 0 309.6 252" xmlns="http://www.w3.org/2000/svg" version="1.1">
 <metadata>
  <rdf:RDF xmlns:dc="http://purl.org/dc/elements/1.1/" xmlns:cc="http://creativecommons.org/ns#" xmlns:rdf="http://www.w3.org/1999/02/22-rdf-syntax-ns#">
   <cc:Work>
    <dc:type rdf:resource="http://purl.org/dc/dcmitype/StillImage"/>
    <dc:date>2025-08-28T05:10:33.429886</dc:date>
    <dc:format>image/svg+xml</dc:format>
    <dc:creator>
     <cc:Agent>
      <dc:title>Matplotlib v3.10.5, https://matplotlib.org/</dc:title>
     </cc:Agent>
    </dc:creator>
   </cc:Work>
  </rdf:RDF>
 </metadata>
 <defs>
  <style type="text/css">*{stroke-linejoin: round; stroke-linecap: butt}</style>
 </defs>
 <g id="figure_1">
  <g id="patch_1">
   <path d="M 0 252 
L 309.6 252 
L 309.6 0 
L 0 0 
z
" style="fill: #ffffff"/>
  </g>
  <g id="axes_1">
   <g id="patch_2">
    <path d="M 43.860112 214.259776 
L 298.8 214.259776 
L 298.8 10.8 
L 43.860112 10.8 
z
" style="fill: #ffffff"/>
   </g>
   <g id="matplotlib.axis_1">
    <g id="xtick_1">
     <g id="line2d_1">
      <defs>
       <path id="mad50983ee4" d="M 0 0 
L 0 3.5 
" style="stroke: #000000; stroke-width: 0.8"/>
      </defs>
      <g>
       <use xlink:href="#mad50983ee4" x="176.532367" y="214.259776" style="stroke: #000000; stroke-width: 0.8"/>
      </g>
     </g>
     <g id="text_1">
      <!-- $\mathdefault{10^{2}}$ -->
      <g transform="translate(169.565413 228.178274) scale(0.1 -0.1)">
       <defs>
        <path id="CMR17-31" d="M 1702 4058 
C 1702 4192 1696 4192 1606 4192 
C 1357 3916 979 3827 621 3827 
C 602 3827 570 3827 563 3808 
C 557 3795 557 3782 557 3648 
C 755 3648 1088 3686 1344 3839 
L 1344 461 
C 1344 236 1331 160 781 160 
L 589 160 
L 589 0 
C 896 0 1216 0 1523 0 
C 1830 0 2150 0 2458 0 
L 2458 160 
L 2266 160 
C 1715 160 1702 230 1702 458 
L 1702 4058 
z
" transform="scale(0.015625)"/>
        <path id="CMR17-30" d="M 2688 2025 
C 2688 2416 2682 3080 2413 3591 
C 2176 4039 1798 4198 1466 4198 
C 1158 4198 768 4058 525 3597 
C 269 3118 243 2524 243 2025 
C 243 1661 250 1106 448 619 
C 723 -39 1216 -128 1466 -128 
C 1760 -128 2208 -7 2470 600 
C 2662 1042 2688 1559 2688 2025 
z
M 1466 -26 
C 1056 -26 813 325 723 812 
C 653 1188 653 1738 653 2096 
C 653 2588 653 2997 736 3387 
C 858 3929 1216 4096 1466 4096 
C 1728 4096 2067 3923 2189 3400 
C 2272 3036 2278 2607 2278 2096 
C 2278 1680 2278 1169 2202 792 
C 2067 95 1690 -26 1466 -26 
z
" transform="scale(0.015625)"/>
        <path id="CMR17-32" d="M 2669 989 
L 2554 989 
C 2490 536 2438 459 2413 420 
C 2381 369 1920 369 1830 369 
L 602 369 
C 832 619 1280 1072 1824 1597 
C 2214 1967 2669 2402 2669 3035 
C 2669 3790 2067 4224 1395 4224 
C 691 4224 262 3604 262 3030 
C 262 2780 448 2748 525 2748 
C 589 2748 781 2787 781 3010 
C 781 3207 614 3264 525 3264 
C 486 3264 448 3258 422 3245 
C 544 3790 915 4058 1306 4058 
C 1862 4058 2227 3617 2227 3035 
C 2227 2479 1901 2000 1536 1584 
L 262 146 
L 262 0 
L 2515 0 
L 2669 989 
z
" transform="scale(0.015625)"/>
       </defs>
       <use xlink:href="#CMR17-31" transform="scale(0.996264)"/>
       <use xlink:href="#CMR17-30" transform="translate(45.690477 0) scale(0.996264)"/>
       <use xlink:href="#CMR17-32" transform="translate(91.380954 36.153639) scale(0.697382)"/>
      </g>
     </g>
    </g>
    <g id="xtick_2">
     <g id="line2d_2">
      <defs>
       <path id="md927985ea4" d="M 0 0 
L 0 2 
" style="stroke: #000000; stroke-width: 0.6"/>
      </defs>
      <g>
       <use xlink:href="#md927985ea4" x="60.396085" y="214.259776" style="stroke: #000000; stroke-width: 0.6"/>
      </g>
     </g>
    </g>
    <g id="xtick_3">
     <g id="line2d_3">
      <g>
       <use xlink:href="#md927985ea4" x="88.146153" y="214.259776" style="stroke: #000000; stroke-width: 0.6"/>
      </g>
     </g>
    </g>
    <g id="xtick_4">
     <g id="line2d_4">
      <g>
       <use xlink:href="#md927985ea4" x="109.670777" y="214.259776" style="stroke: #000000; stroke-width: 0.6"/>
      </g>
     </g>
    </g>
    <g id="xtick_5">
     <g id="line2d_5">
      <g>
       <use xlink:href="#md927985ea4" x="127.257676" y="214.259776" style="stroke: #000000; stroke-width: 0.6"/>
      </g>
     </g>
    </g>
    <g id="xtick_6">
     <g id="line2d_6">
      <g>
       <use xlink:href="#md927985ea4" x="142.127187" y="214.259776" style="stroke: #000000; stroke-width: 0.6"/>
      </g>
     </g>
    </g>
    <g id="xtick_7">
     <g id="line2d_7">
      <g>
       <use xlink:href="#md927985ea4" x="155.007743" y="214.259776" style="stroke: #000000; stroke-width: 0.6"/>
      </g>
     </g>
    </g>
    <g id="xtick_8">
     <g id="line2d_8">
      <g>
       <use xlink:href="#md927985ea4" x="166.369199" y="214.259776" style="stroke: #000000; stroke-width: 0.6"/>
      </g>
     </g>
    </g>
    <g id="xtick_9">
     <g id="line2d_9">
      <g>
       <use xlink:href="#md927985ea4" x="243.393958" y="214.259776" style="stroke: #000000; stroke-width: 0.6"/>
      </g>
     </g>
    </g>
    <g id="xtick_10">
     <g id="line2d_10">
      <g>
       <use xlink:href="#md927985ea4" x="282.505481" y="214.259776" style="stroke: #000000; stroke-width: 0.6"/>
      </g>
     </g>
    </g>
    <g id="text_2">
     <!-- $L$ -->
     <g transform="translate(168.450534 239.650254) scale(0.08 -0.08)">
      <defs>
       <path id="CMMI12-4c" d="M 2349 3861 
C 2406 4103 2426 4167 2989 4167 
C 3162 4167 3206 4167 3206 4288 
C 3206 4352 3136 4352 3110 4352 
C 2982 4352 2835 4352 2707 4352 
L 1850 4352 
C 1728 4352 1587 4352 1466 4352 
C 1414 4352 1344 4352 1344 4231 
C 1344 4167 1402 4167 1498 4167 
C 1888 4167 1888 4116 1888 4046 
C 1888 4034 1888 3995 1862 3899 
L 998 472 
C 941 249 928 185 480 185 
C 358 185 294 185 294 70 
C 294 0 333 0 461 0 
L 3328 0 
C 3469 0 3475 6 3520 121 
L 4013 1478 
C 4026 1510 4038 1548 4038 1567 
C 4038 1605 4006 1631 3974 1631 
C 3968 1631 3936 1631 3923 1605 
C 3910 1599 3910 1586 3859 1465 
C 3654 905 3366 185 2285 185 
L 1670 185 
C 1581 185 1568 185 1530 192 
C 1459 198 1453 211 1453 262 
C 1453 307 1466 345 1478 401 
L 2349 3861 
z
" transform="scale(0.015625)"/>
      </defs>
      <use xlink:href="#CMMI12-4c" transform="scale(0.996264)"/>
     </g>
    </g>
   </g>
   <g id="matplotlib.axis_2">
    <g id="ytick_1">
     <g id="line2d_11">
      <defs>
       <path id="m1a710777df" d="M 0 0 
L -3.5 0 
" style="stroke: #000000; stroke-width: 0.8"/>
      </defs>
      <g>
       <use xlink:href="#m1a710777df" x="43.860112" y="204.994425" style="stroke: #000000; stroke-width: 0.8"/>
      </g>
     </g>
     <g id="text_3">
      <!-- $\mathdefault{10^{1}}$ -->
      <g transform="translate(22.926204 208.453674) scale(0.1 -0.1)">
       <use xlink:href="#CMR17-31" transform="scale(0.996264)"/>
       <use xlink:href="#CMR17-30" transform="translate(45.690477 0) scale(0.996264)"/>
       <use xlink:href="#CMR17-31" transform="translate(91.380954 36.153639) scale(0.697382)"/>
      </g>
     </g>
    </g>
    <g id="ytick_2">
     <g id="line2d_12">
      <g>
       <use xlink:href="#m1a710777df" x="43.860112" y="131.501218" style="stroke: #000000; stroke-width: 0.8"/>
      </g>
     </g>
     <g id="text_4">
      <!-- $\mathdefault{10^{2}}$ -->
      <g transform="translate(22.926204 134.960467) scale(0.1 -0.1)">
       <use xlink:href="#CMR17-31" transform="scale(0.996264)"/>
       <use xlink:href="#CMR17-30" transform="translate(45.690477 0) scale(0.996264)"/>
       <use xlink:href="#CMR17-32" transform="translate(91.380954 36.153639) scale(0.697382)"/>
      </g>
     </g>
    </g>
    <g id="ytick_3">
     <g id="line2d_13">
      <g>
       <use xlink:href="#m1a710777df" x="43.860112" y="58.008011" style="stroke: #000000; stroke-width: 0.8"/>
      </g>
     </g>
     <g id="text_5">
      <!-- $\mathdefault{10^{3}}$ -->
      <g transform="translate(22.926204 61.46726) scale(0.1 -0.1)">
       <defs>
        <path id="CMR17-33" d="M 1414 2157 
C 1984 2157 2234 1662 2234 1090 
C 2234 320 1824 25 1453 25 
C 1114 25 563 194 390 693 
C 422 680 454 680 486 680 
C 640 680 755 782 755 948 
C 755 1133 614 1216 486 1216 
C 378 1216 211 1165 211 926 
C 211 335 787 -128 1466 -128 
C 2176 -128 2720 430 2720 1085 
C 2720 1707 2208 2157 1600 2227 
C 2086 2328 2554 2756 2554 3329 
C 2554 3820 2048 4179 1472 4179 
C 890 4179 378 3829 378 3329 
C 378 3110 544 3072 627 3072 
C 762 3072 877 3155 877 3321 
C 877 3486 762 3569 627 3569 
C 602 3569 570 3569 544 3557 
C 730 3959 1235 4032 1459 4032 
C 1683 4032 2106 3925 2106 3320 
C 2106 3143 2080 2828 1862 2550 
C 1670 2304 1453 2304 1242 2284 
C 1210 2284 1062 2269 1037 2269 
C 992 2263 966 2257 966 2208 
C 966 2163 973 2157 1101 2157 
L 1414 2157 
z
" transform="scale(0.015625)"/>
       </defs>
       <use xlink:href="#CMR17-31" transform="scale(0.996264)"/>
       <use xlink:href="#CMR17-30" transform="translate(45.690477 0) scale(0.996264)"/>
       <use xlink:href="#CMR17-33" transform="translate(91.380954 36.153639) scale(0.697382)"/>
      </g>
     </g>
    </g>
    <g id="ytick_4">
     <g id="line2d_14">
      <defs>
       <path id="m296552832f" d="M 0 0 
L -2 0 
" style="stroke: #000000; stroke-width: 0.6"/>
      </defs>
      <g>
       <use xlink:href="#m296552832f" x="43.860112" y="212.116652" style="stroke: #000000; stroke-width: 0.6"/>
      </g>
     </g>
    </g>
    <g id="ytick_5">
     <g id="line2d_15">
      <g>
       <use xlink:href="#m296552832f" x="43.860112" y="208.35729" style="stroke: #000000; stroke-width: 0.6"/>
      </g>
     </g>
    </g>
    <g id="ytick_6">
     <g id="line2d_16">
      <g>
       <use xlink:href="#m296552832f" x="43.860112" y="182.870765" style="stroke: #000000; stroke-width: 0.6"/>
      </g>
     </g>
    </g>
    <g id="ytick_7">
     <g id="line2d_17">
      <g>
       <use xlink:href="#m296552832f" x="43.860112" y="169.929254" style="stroke: #000000; stroke-width: 0.6"/>
      </g>
     </g>
    </g>
    <g id="ytick_8">
     <g id="line2d_18">
      <g>
       <use xlink:href="#m296552832f" x="43.860112" y="160.747105" style="stroke: #000000; stroke-width: 0.6"/>
      </g>
     </g>
    </g>
    <g id="ytick_9">
     <g id="line2d_19">
      <g>
       <use xlink:href="#m296552832f" x="43.860112" y="153.624878" style="stroke: #000000; stroke-width: 0.6"/>
      </g>
     </g>
    </g>
    <g id="ytick_10">
     <g id="line2d_20">
      <g>
       <use xlink:href="#m296552832f" x="43.860112" y="147.805594" style="stroke: #000000; stroke-width: 0.6"/>
      </g>
     </g>
    </g>
    <g id="ytick_11">
     <g id="line2d_21">
      <g>
       <use xlink:href="#m296552832f" x="43.860112" y="142.88546" style="stroke: #000000; stroke-width: 0.6"/>
      </g>
     </g>
    </g>
    <g id="ytick_12">
     <g id="line2d_22">
      <g>
       <use xlink:href="#m296552832f" x="43.860112" y="138.623445" style="stroke: #000000; stroke-width: 0.6"/>
      </g>
     </g>
    </g>
    <g id="ytick_13">
     <g id="line2d_23">
      <g>
       <use xlink:href="#m296552832f" x="43.860112" y="134.864082" style="stroke: #000000; stroke-width: 0.6"/>
      </g>
     </g>
    </g>
    <g id="ytick_14">
     <g id="line2d_24">
      <g>
       <use xlink:href="#m296552832f" x="43.860112" y="109.377558" style="stroke: #000000; stroke-width: 0.6"/>
      </g>
     </g>
    </g>
    <g id="ytick_15">
     <g id="line2d_25">
      <g>
       <use xlink:href="#m296552832f" x="43.860112" y="96.436047" style="stroke: #000000; stroke-width: 0.6"/>
      </g>
     </g>
    </g>
    <g id="ytick_16">
     <g id="line2d_26">
      <g>
       <use xlink:href="#m296552832f" x="43.860112" y="87.253898" style="stroke: #000000; stroke-width: 0.6"/>
      </g>
     </g>
    </g>
    <g id="ytick_17">
     <g id="line2d_27">
      <g>
       <use xlink:href="#m296552832f" x="43.860112" y="80.131671" style="stroke: #000000; stroke-width: 0.6"/>
      </g>
     </g>
    </g>
    <g id="ytick_18">
     <g id="line2d_28">
      <g>
       <use xlink:href="#m296552832f" x="43.860112" y="74.312387" style="stroke: #000000; stroke-width: 0.6"/>
      </g>
     </g>
    </g>
    <g id="ytick_19">
     <g id="line2d_29">
      <g>
       <use xlink:href="#m296552832f" x="43.860112" y="69.392253" style="stroke: #000000; stroke-width: 0.6"/>
      </g>
     </g>
    </g>
    <g id="ytick_20">
     <g id="line2d_30">
      <g>
       <use xlink:href="#m296552832f" x="43.860112" y="65.130238" style="stroke: #000000; stroke-width: 0.6"/>
      </g>
     </g>
    </g>
    <g id="ytick_21">
     <g id="line2d_31">
      <g>
       <use xlink:href="#m296552832f" x="43.860112" y="61.370875" style="stroke: #000000; stroke-width: 0.6"/>
      </g>
     </g>
    </g>
    <g id="ytick_22">
     <g id="line2d_32">
      <g>
       <use xlink:href="#m296552832f" x="43.860112" y="35.884351" style="stroke: #000000; stroke-width: 0.6"/>
      </g>
     </g>
    </g>
    <g id="ytick_23">
     <g id="line2d_33">
      <g>
       <use xlink:href="#m296552832f" x="43.860112" y="22.94284" style="stroke: #000000; stroke-width: 0.6"/>
      </g>
     </g>
    </g>
    <g id="ytick_24">
     <g id="line2d_34">
      <g>
       <use xlink:href="#m296552832f" x="43.860112" y="13.760691" style="stroke: #000000; stroke-width: 0.6"/>
      </g>
     </g>
    </g>
    <g id="text_6">
     <!-- $\chi'_{max}$ -->
     <g transform="translate(16.933676 122.530928) rotate(-90) scale(0.08 -0.08)">
      <defs>
       <path id="CMMI12-1f" d="M 2112 1039 
C 1939 1566 1978 1515 1818 1959 
C 1619 2505 1568 2550 1478 2639 
C 1363 2740 1146 2816 922 2816 
C 563 2816 390 2486 390 2403 
C 390 2365 422 2346 461 2346 
C 512 2346 525 2378 531 2403 
C 627 2651 826 2689 883 2689 
C 1069 2689 1248 2232 1363 1928 
C 1517 1540 1594 1273 1766 657 
L 256 -1049 
C 198 -1119 198 -1144 198 -1151 
C 198 -1202 230 -1215 256 -1215 
C 282 -1215 301 -1202 320 -1183 
C 499 -1004 896 -533 1062 -342 
L 1805 499 
C 2118 -479 2118 -492 2214 -727 
C 2317 -968 2451 -1280 2995 -1280 
C 3360 -1280 3526 -955 3526 -866 
C 3526 -822 3488 -809 3456 -809 
C 3405 -809 3398 -835 3379 -886 
C 3309 -1063 3142 -1152 3040 -1152 
C 2957 -1152 2854 -1152 2573 -447 
C 2406 -21 2259 486 2150 880 
L 3667 2594 
C 3718 2652 3725 2658 3725 2683 
C 3725 2727 3693 2746 3661 2746 
C 3642 2746 3622 2746 3558 2677 
L 2112 1039 
z
" transform="scale(0.015625)"/>
       <path id="CMSY10-30" d="M 1619 3040 
C 1651 3117 1677 3174 1677 3238 
C 1677 3424 1510 3578 1312 3578 
C 1133 3578 1018 3456 973 3290 
L 211 493 
C 211 480 186 410 186 403 
C 186 333 352 288 403 288 
C 442 288 448 307 486 390 
L 1619 3040 
z
" transform="scale(0.015625)"/>
       <path id="CMMI12-6d" d="M 1318 1871 
C 1331 1910 1491 2229 1728 2433 
C 1894 2586 2112 2689 2362 2689 
C 2618 2689 2707 2497 2707 2242 
C 2707 2203 2707 2076 2630 1775 
L 2470 1118 
C 2419 926 2298 453 2285 383 
C 2259 287 2221 121 2221 96 
C 2221 6 2291 -64 2387 -64 
C 2579 -64 2611 83 2669 313 
L 3053 1839 
C 3066 1890 3398 2689 4102 2689 
C 4358 2689 4448 2497 4448 2242 
C 4448 1884 4198 1188 4058 805 
C 4000 651 3968 568 3968 453 
C 3968 166 4166 -64 4474 -64 
C 5069 -64 5293 875 5293 913 
C 5293 945 5267 971 5229 971 
C 5171 971 5165 952 5133 843 
C 4986 332 4749 64 4493 64 
C 4429 64 4326 64 4326 269 
C 4326 436 4403 640 4429 710 
C 4544 1018 4832 1773 4832 2145 
C 4832 2528 4608 2816 4122 2816 
C 3693 2816 3347 2574 3091 2197 
C 3072 2542 2861 2816 2381 2816 
C 1811 2816 1510 2415 1395 2255 
C 1376 2618 1114 2816 832 2816 
C 646 2816 499 2727 378 2484 
C 262 2254 173 1865 173 1839 
C 173 1814 198 1782 243 1782 
C 294 1782 301 1788 339 1935 
C 435 2312 557 2689 813 2689 
C 960 2689 1011 2586 1011 2395 
C 1011 2254 947 2005 902 1807 
L 723 1118 
C 698 996 627 709 595 594 
C 550 428 480 128 480 96 
C 480 6 550 -64 646 -64 
C 723 -64 813 -26 864 70 
C 877 102 934 326 966 453 
L 1107 1028 
L 1318 1871 
z
" transform="scale(0.015625)"/>
       <path id="CMMI12-61" d="M 1926 760 
C 1894 651 1894 639 1805 517 
C 1664 338 1382 64 1082 64 
C 819 64 672 300 672 677 
C 672 1028 870 1743 992 2012 
C 1210 2459 1510 2689 1760 2689 
C 2182 2689 2266 2165 2266 2114 
C 2266 2108 2246 2024 2240 2012 
L 1926 760 
z
M 2336 2395 
C 2266 2561 2093 2816 1760 2816 
C 1037 2816 256 1884 256 939 
C 256 307 627 -64 1062 -64 
C 1414 -64 1715 211 1894 422 
C 1958 45 2259 -64 2451 -64 
C 2643 -64 2797 51 2912 281 
C 3014 498 3104 888 3104 913 
C 3104 945 3078 971 3040 971 
C 2982 971 2976 939 2950 843 
C 2854 466 2733 64 2470 64 
C 2285 64 2272 230 2272 358 
C 2272 505 2291 575 2349 824 
C 2394 984 2426 1124 2477 1309 
C 2714 2267 2771 2497 2771 2535 
C 2771 2625 2701 2695 2605 2695 
C 2400 2695 2349 2472 2336 2395 
z
" transform="scale(0.015625)"/>
       <path id="CMMI12-78" d="M 3034 2606 
C 2829 2567 2752 2414 2752 2293 
C 2752 2139 2874 2088 2963 2088 
C 3155 2088 3290 2254 3290 2427 
C 3290 2695 2982 2816 2714 2816 
C 2323 2816 2106 2433 2048 2312 
C 1901 2816 1504 2816 1389 2816 
C 736 2816 390 1980 390 1839 
C 390 1814 416 1782 461 1782 
C 512 1782 525 1820 538 1846 
C 755 2555 1184 2689 1370 2689 
C 1658 2689 1715 2420 1715 2267 
C 1715 2127 1677 1980 1600 1673 
L 1382 798 
C 1286 415 1101 64 762 64 
C 730 64 570 64 435 147 
C 666 192 717 383 717 460 
C 717 588 621 664 499 664 
C 346 664 179 530 179 326 
C 179 57 480 -64 755 -64 
C 1062 -64 1280 179 1414 441 
C 1517 64 1837 -64 2074 -64 
C 2726 -64 3072 773 3072 913 
C 3072 945 3046 971 3008 971 
C 2950 971 2944 939 2925 888 
C 2752 326 2381 64 2093 64 
C 1869 64 1747 230 1747 492 
C 1747 632 1773 734 1875 1156 
L 2099 2024 
C 2195 2408 2413 2689 2707 2689 
C 2720 2689 2899 2689 3034 2606 
z
" transform="scale(0.015625)"/>
      </defs>
      <use xlink:href="#CMMI12-1f" transform="scale(0.996264)"/>
      <use xlink:href="#CMSY10-30" transform="translate(61.112959 36.153639) scale(0.697382)"/>
      <use xlink:href="#CMMI12-6d" transform="translate(61.112959 -24.62935) scale(0.697382)"/>
      <use xlink:href="#CMMI12-61" transform="translate(120.84175 -24.62935) scale(0.697382)"/>
      <use xlink:href="#CMMI12-78" transform="translate(156.687097 -24.62935) scale(0.697382)"/>
     </g>
    </g>
   </g>
   <g id="LineCollection_1">
    <path d="M 60.396085 151.702557 
L 60.396085 151.513313 
" clip-path="url(#pe58aa7bef5)" style="fill: none; stroke: #0040df; stroke-width: 1.5"/>
    <path d="M 72.469433 144.692998 
L 72.469433 144.52171 
" clip-path="url(#pe58aa7bef5)" style="fill: none; stroke: #0040df; stroke-width: 1.5"/>
    <path d="M 83.198356 138.40576 
L 83.198356 138.252741 
" clip-path="url(#pe58aa7bef5)" style="fill: none; stroke: #0040df; stroke-width: 1.5"/>
    <path d="M 97.339857 130.083236 
L 97.339857 129.94918 
" clip-path="url(#pe58aa7bef5)" style="fill: none; stroke: #0040df; stroke-width: 1.5"/>
    <path d="M 105.733051 125.348321 
L 105.733051 125.223085 
" clip-path="url(#pe58aa7bef5)" style="fill: none; stroke: #0040df; stroke-width: 1.5"/>
    <path d="M 117.094507 118.597367 
L 117.094507 118.48611 
" clip-path="url(#pe58aa7bef5)" style="fill: none; stroke: #0040df; stroke-width: 1.5"/>
    <path d="M 130.420611 110.889594 
L 130.420611 110.788059 
" clip-path="url(#pe58aa7bef5)" style="fill: none; stroke: #0040df; stroke-width: 1.5"/>
    <path d="M 142.127187 104.112065 
L 142.127187 104.019923 
" clip-path="url(#pe58aa7bef5)" style="fill: none; stroke: #0040df; stroke-width: 1.5"/>
    <path d="M 155.007743 96.668952 
L 155.007743 96.590125 
" clip-path="url(#pe58aa7bef5)" style="fill: none; stroke: #0040df; stroke-width: 1.5"/>
    <path d="M 166.369199 90.100145 
L 166.369199 90.025566 
" clip-path="url(#pe58aa7bef5)" style="fill: none; stroke: #0040df; stroke-width: 1.5"/>
    <path d="M 176.532367 84.183822 
L 176.532367 84.117084 
" clip-path="url(#pe58aa7bef5)" style="fill: none; stroke: #0040df; stroke-width: 1.5"/>
    <path d="M 189.17147 76.781881 
L 189.17147 76.723909 
" clip-path="url(#pe58aa7bef5)" style="fill: none; stroke: #0040df; stroke-width: 1.5"/>
    <path d="M 200.344709 70.382013 
L 200.344709 70.330322 
" clip-path="url(#pe58aa7bef5)" style="fill: none; stroke: #0040df; stroke-width: 1.5"/>
    <path d="M 211.706165 63.759754 
L 211.706165 63.708423 
" clip-path="url(#pe58aa7bef5)" style="fill: none; stroke: #0040df; stroke-width: 1.5"/>
    <path d="M 224.251205 56.518798 
L 224.251205 56.473177 
" clip-path="url(#pe58aa7bef5)" style="fill: none; stroke: #0040df; stroke-width: 1.5"/>
    <path d="M 235.350894 50.096483 
L 235.350894 50.057138 
" clip-path="url(#pe58aa7bef5)" style="fill: none; stroke: #0040df; stroke-width: 1.5"/>
    <path d="M 247.177222 43.234374 
L 247.177222 43.200751 
" clip-path="url(#pe58aa7bef5)" style="fill: none; stroke: #0040df; stroke-width: 1.5"/>
    <path d="M 259.359627 36.195395 
L 259.359627 36.165763 
" clip-path="url(#pe58aa7bef5)" style="fill: none; stroke: #0040df; stroke-width: 1.5"/>
    <path d="M 270.902571 29.510027 
L 270.902571 29.434106 
" clip-path="url(#pe58aa7bef5)" style="fill: none; stroke: #0040df; stroke-width: 1.5"/>
    <path d="M 282.505481 22.589398 
L 282.505481 22.374536 
" clip-path="url(#pe58aa7bef5)" style="fill: none; stroke: #0040df; stroke-width: 1.5"/>
   </g>
   <g id="line2d_35">
    <defs>
     <path id="mf7cd1c43d0" d="M 2 0 
L -2 -0 
" style="stroke: #0040df"/>
    </defs>
    <g clip-path="url(#pe58aa7bef5)">
     <use xlink:href="#mf7cd1c43d0" x="60.396085" y="151.702557" style="fill: #0040df; stroke: #0040df"/>
     <use xlink:href="#mf7cd1c43d0" x="72.469433" y="144.692998" style="fill: #0040df; stroke: #0040df"/>
     <use xlink:href="#mf7cd1c43d0" x="83.198356" y="138.40576" style="fill: #0040df; stroke: #0040df"/>
     <use xlink:href="#mf7cd1c43d0" x="97.339857" y="130.083236" style="fill: #0040df; stroke: #0040df"/>
     <use xlink:href="#mf7cd1c43d0" x="105.733051" y="125.348321" style="fill: #0040df; stroke: #0040df"/>
     <use xlink:href="#mf7cd1c43d0" x="117.094507" y="118.597367" style="fill: #0040df; stroke: #0040df"/>
     <use xlink:href="#mf7cd1c43d0" x="130.420611" y="110.889594" style="fill: #0040df; stroke: #0040df"/>
     <use xlink:href="#mf7cd1c43d0" x="142.127187" y="104.112065" style="fill: #0040df; stroke: #0040df"/>
     <use xlink:href="#mf7cd1c43d0" x="155.007743" y="96.668952" style="fill: #0040df; stroke: #0040df"/>
     <use xlink:href="#mf7cd1c43d0" x="166.369199" y="90.100145" style="fill: #0040df; stroke: #0040df"/>
     <use xlink:href="#mf7cd1c43d0" x="176.532367" y="84.183822" style="fill: #0040df; stroke: #0040df"/>
     <use xlink:href="#mf7cd1c43d0" x="189.17147" y="76.781881" style="fill: #0040df; stroke: #0040df"/>
     <use xlink:href="#mf7cd1c43d0" x="200.344709" y="70.382013" style="fill: #0040df; stroke: #0040df"/>
     <use xlink:href="#mf7cd1c43d0" x="211.706165" y="63.759754" style="fill: #0040df; stroke: #0040df"/>
     <use xlink:href="#mf7cd1c43d0" x="224.251205" y="56.518798" style="fill: #0040df; stroke: #0040df"/>
     <use xlink:href="#mf7cd1c43d0" x="235.350894" y="50.096483" style="fill: #0040df; stroke: #0040df"/>
     <use xlink:href="#mf7cd1c43d0" x="247.177222" y="43.234374" style="fill: #0040df; stroke: #0040df"/>
     <use xlink:href="#mf7cd1c43d0" x="259.359627" y="36.195395" style="fill: #0040df; stroke: #0040df"/>
     <use xlink:href="#mf7cd1c43d0" x="270.902571" y="29.510027" style="fill: #0040df; stroke: #0040df"/>
     <use xlink:href="#mf7cd1c43d0" x="282.505481" y="22.589398" style="fill: #0040df; stroke: #0040df"/>
    </g>
   </g>
   <g id="line2d_36">
    <g clip-path="url(#pe58aa7bef5)">
     <use xlink:href="#mf7cd1c43d0" x="60.396085" y="151.513313" style="fill: #0040df; stroke: #0040df"/>
     <use xlink:href="#mf7cd1c43d0" x="72.469433" y="144.52171" style="fill: #0040df; stroke: #0040df"/>
     <use xlink:href="#mf7cd1c43d0" x="83.198356" y="138.252741" style="fill: #0040df; stroke: #0040df"/>
     <use xlink:href="#mf7cd1c43d0" x="97.339857" y="129.94918" style="fill: #0040df; stroke: #0040df"/>
     <use xlink:href="#mf7cd1c43d0" x="105.733051" y="125.223085" style="fill: #0040df; stroke: #0040df"/>
     <use xlink:href="#mf7cd1c43d0" x="117.094507" y="118.48611" style="fill: #0040df; stroke: #0040df"/>
     <use xlink:href="#mf7cd1c43d0" x="130.420611" y="110.788059" style="fill: #0040df; stroke: #0040df"/>
     <use xlink:href="#mf7cd1c43d0" x="142.127187" y="104.019923" style="fill: #0040df; stroke: #0040df"/>
     <use xlink:href="#mf7cd1c43d0" x="155.007743" y="96.590125" style="fill: #0040df; stroke: #0040df"/>
     <use xlink:href="#mf7cd1c43d0" x="166.369199" y="90.025566" style="fill: #0040df; stroke: #0040df"/>
     <use xlink:href="#mf7cd1c43d0" x="176.532367" y="84.117084" style="fill: #0040df; stroke: #0040df"/>
     <use xlink:href="#mf7cd1c43d0" x="189.17147" y="76.723909" style="fill: #0040df; stroke: #0040df"/>
     <use xlink:href="#mf7cd1c43d0" x="200.344709" y="70.330322" style="fill: #0040df; stroke: #0040df"/>
     <use xlink:href="#mf7cd1c43d0" x="211.706165" y="63.708423" style="fill: #0040df; stroke: #0040df"/>
     <use xlink:href="#mf7cd1c43d0" x="224.251205" y="56.473177" style="fill: #0040df; stroke: #0040df"/>
     <use xlink:href="#mf7cd1c43d0" x="235.350894" y="50.057138" style="fill: #0040df; stroke: #0040df"/>
     <use xlink:href="#mf7cd1c43d0" x="247.177222" y="43.200751" style="fill: #0040df; stroke: #0040df"/>
     <use xlink:href="#mf7cd1c43d0" x="259.359627" y="36.165763" style="fill: #0040df; stroke: #0040df"/>
     <use xlink:href="#mf7cd1c43d0" x="270.902571" y="29.434106" style="fill: #0040df; stroke: #0040df"/>
     <use xlink:href="#mf7cd1c43d0" x="282.505481" y="22.374536" style="fill: #0040df; stroke: #0040df"/>
    </g>
   </g>
   <g id="line2d_37">
    <path d="M 55.448289 154.512502 
L 64.777096 149.05919 
L 73.282731 144.094615 
L 81.098762 139.537962 
L 88.328671 135.327004 
L 95.054266 131.412791 
L 101.341337 127.756115 
L 107.243588 124.325077 
L 112.805421 121.093374 
L 118.063971 118.039057 
L 123.050613 115.143625 
L 127.792086 112.391328 
L 132.311375 109.768656 
L 136.628373 107.263926 
L 140.760416 104.86697 
L 144.722703 102.568881 
L 148.528635 100.361814 
L 152.190084 98.238826 
L 155.71762 96.193736 
L 159.120693 94.221023 
L 162.407788 92.315735 
L 165.58655 90.47341 
L 168.663894 88.690015 
L 171.646089 86.961894 
L 174.538845 85.28572 
L 177.347371 83.658459 
L 180.076432 82.077335 
L 182.730403 80.539801 
L 185.313304 79.043518 
L 187.828845 77.586327 
L 190.280447 76.166238 
L 192.671283 74.781405 
L 195.00429 73.43012 
L 197.282201 72.110796 
L 199.507559 70.821954 
L 201.682733 69.562216 
L 203.809936 68.330297 
L 205.89124 67.124994 
L 207.928584 65.945181 
L 209.923785 64.789801 
L 211.878552 63.657862 
L 213.794492 62.548432 
L 215.673117 61.460633 
L 217.515852 60.393636 
L 219.324044 59.346662 
L 221.098963 58.318971 
L 222.841812 57.309867 
L 224.55373 56.318688 
L 226.235794 55.344809 
L 227.889029 54.387636 
L 229.514407 53.446605 
L 231.11285 52.521181 
L 232.685236 51.610855 
L 234.232402 50.71514 
L 235.755143 49.833577 
L 237.25422 48.965723 
L 238.730356 48.11116 
L 240.184242 47.269487 
L 241.61654 46.440319 
L 243.027882 45.623292 
L 244.418871 44.818053 
L 245.790087 44.024269 
L 247.142083 43.241617 
L 248.475392 42.46979 
L 249.790522 41.708492 
L 251.087962 40.957439 
L 252.368183 40.216361 
L 253.631636 39.484994 
L 254.878753 38.763088 
L 256.109952 38.0504 
L 257.325634 37.3467 
L 258.526186 36.651762 
L 259.711979 35.965371 
L 260.883372 35.28732 
L 262.04071 34.617407 
L 263.184328 33.955441 
L 264.314545 33.301234 
L 265.431673 32.654607 
L 266.536012 32.015386 
L 267.62785 31.383404 
L 268.707468 30.758498 
L 269.775136 30.140511 
L 270.831116 29.529292 
L 271.875661 28.924695 
L 272.909017 28.326577 
L 273.931419 27.734801 
L 274.943098 27.149234 
L 275.944277 26.569746 
L 276.935171 25.996214 
L 277.91599 25.428515 
L 278.886936 24.866533 
L 279.848206 24.310153 
L 280.799991 23.759264 
L 281.742476 23.21376 
L 282.675842 22.673536 
L 283.600263 22.138491 
L 284.515909 21.608526 
L 285.422944 21.083546 
L 286.321531 20.563458 
L 287.211823 20.048172 
" clip-path="url(#pe58aa7bef5)" style="fill: none; stroke: #0040df; stroke-opacity: 0.5; stroke-width: 1.5; stroke-linecap: square"/>
   </g>
   <g id="LineCollection_2">
    <path d="M 60.396085 202.14553 
L 60.396085 201.84246 
" clip-path="url(#pe58aa7bef5)" style="fill: none; stroke: #00c09f; stroke-width: 1.5"/>
    <path d="M 72.469433 195.352431 
L 72.469433 195.084151 
" clip-path="url(#pe58aa7bef5)" style="fill: none; stroke: #00c09f; stroke-width: 1.5"/>
    <path d="M 83.198356 188.662459 
L 83.198356 188.425544 
" clip-path="url(#pe58aa7bef5)" style="fill: none; stroke: #00c09f; stroke-width: 1.5"/>
    <path d="M 97.339857 180.441617 
L 97.339857 180.225437 
" clip-path="url(#pe58aa7bef5)" style="fill: none; stroke: #00c09f; stroke-width: 1.5"/>
    <path d="M 105.733051 175.652162 
L 105.733051 175.451859 
" clip-path="url(#pe58aa7bef5)" style="fill: none; stroke: #00c09f; stroke-width: 1.5"/>
    <path d="M 117.094507 168.882501 
L 117.094507 168.698918 
" clip-path="url(#pe58aa7bef5)" style="fill: none; stroke: #00c09f; stroke-width: 1.5"/>
    <path d="M 130.420611 161.111132 
L 130.420611 160.953356 
" clip-path="url(#pe58aa7bef5)" style="fill: none; stroke: #00c09f; stroke-width: 1.5"/>
    <path d="M 142.127187 154.381352 
L 142.127187 154.234723 
" clip-path="url(#pe58aa7bef5)" style="fill: none; stroke: #00c09f; stroke-width: 1.5"/>
    <path d="M 155.007743 146.718092 
L 155.007743 146.587073 
" clip-path="url(#pe58aa7bef5)" style="fill: none; stroke: #00c09f; stroke-width: 1.5"/>
    <path d="M 166.369199 140.186619 
L 166.369199 140.069304 
" clip-path="url(#pe58aa7bef5)" style="fill: none; stroke: #00c09f; stroke-width: 1.5"/>
    <path d="M 176.532367 134.313742 
L 176.532367 134.205211 
" clip-path="url(#pe58aa7bef5)" style="fill: none; stroke: #00c09f; stroke-width: 1.5"/>
    <path d="M 189.17147 126.990661 
L 189.17147 126.897822 
" clip-path="url(#pe58aa7bef5)" style="fill: none; stroke: #00c09f; stroke-width: 1.5"/>
    <path d="M 200.344709 120.593528 
L 200.344709 120.506405 
" clip-path="url(#pe58aa7bef5)" style="fill: none; stroke: #00c09f; stroke-width: 1.5"/>
    <path d="M 211.706165 113.888631 
L 211.706165 113.81347 
" clip-path="url(#pe58aa7bef5)" style="fill: none; stroke: #00c09f; stroke-width: 1.5"/>
    <path d="M 224.251205 106.581915 
L 224.251205 106.513957 
" clip-path="url(#pe58aa7bef5)" style="fill: none; stroke: #00c09f; stroke-width: 1.5"/>
    <path d="M 235.350894 100.142127 
L 235.350894 100.084143 
" clip-path="url(#pe58aa7bef5)" style="fill: none; stroke: #00c09f; stroke-width: 1.5"/>
    <path d="M 247.177222 93.30836 
L 247.177222 93.250772 
" clip-path="url(#pe58aa7bef5)" style="fill: none; stroke: #00c09f; stroke-width: 1.5"/>
    <path d="M 259.359627 86.286649 
L 259.359627 86.235577 
" clip-path="url(#pe58aa7bef5)" style="fill: none; stroke: #00c09f; stroke-width: 1.5"/>
    <path d="M 270.902571 79.554304 
L 270.902571 79.509903 
" clip-path="url(#pe58aa7bef5)" style="fill: none; stroke: #00c09f; stroke-width: 1.5"/>
    <path d="M 282.505481 72.828042 
L 282.505481 72.786653 
" clip-path="url(#pe58aa7bef5)" style="fill: none; stroke: #00c09f; stroke-width: 1.5"/>
   </g>
   <g id="line2d_38">
    <defs>
     <path id="m362494b397" d="M 2 0 
L -2 -0 
" style="stroke: #00c09f"/>
    </defs>
    <g clip-path="url(#pe58aa7bef5)">
     <use xlink:href="#m362494b397" x="60.396085" y="202.14553" style="fill: #00c09f; stroke: #00c09f"/>
     <use xlink:href="#m362494b397" x="72.469433" y="195.352431" style="fill: #00c09f; stroke: #00c09f"/>
     <use xlink:href="#m362494b397" x="83.198356" y="188.662459" style="fill: #00c09f; stroke: #00c09f"/>
     <use xlink:href="#m362494b397" x="97.339857" y="180.441617" style="fill: #00c09f; stroke: #00c09f"/>
     <use xlink:href="#m362494b397" x="105.733051" y="175.652162" style="fill: #00c09f; stroke: #00c09f"/>
     <use xlink:href="#m362494b397" x="117.094507" y="168.882501" style="fill: #00c09f; stroke: #00c09f"/>
     <use xlink:href="#m362494b397" x="130.420611" y="161.111132" style="fill: #00c09f; stroke: #00c09f"/>
     <use xlink:href="#m362494b397" x="142.127187" y="154.381352" style="fill: #00c09f; stroke: #00c09f"/>
     <use xlink:href="#m362494b397" x="155.007743" y="146.718092" style="fill: #00c09f; stroke: #00c09f"/>
     <use xlink:href="#m362494b397" x="166.369199" y="140.186619" style="fill: #00c09f; stroke: #00c09f"/>
     <use xlink:href="#m362494b397" x="176.532367" y="134.313742" style="fill: #00c09f; stroke: #00c09f"/>
     <use xlink:href="#m362494b397" x="189.17147" y="126.990661" style="fill: #00c09f; stroke: #00c09f"/>
     <use xlink:href="#m362494b397" x="200.344709" y="120.593528" style="fill: #00c09f; stroke: #00c09f"/>
     <use xlink:href="#m362494b397" x="211.706165" y="113.888631" style="fill: #00c09f; stroke: #00c09f"/>
     <use xlink:href="#m362494b397" x="224.251205" y="106.581915" style="fill: #00c09f; stroke: #00c09f"/>
     <use xlink:href="#m362494b397" x="235.350894" y="100.142127" style="fill: #00c09f; stroke: #00c09f"/>
     <use xlink:href="#m362494b397" x="247.177222" y="93.30836" style="fill: #00c09f; stroke: #00c09f"/>
     <use xlink:href="#m362494b397" x="259.359627" y="86.286649" style="fill: #00c09f; stroke: #00c09f"/>
     <use xlink:href="#m362494b397" x="270.902571" y="79.554304" style="fill: #00c09f; stroke: #00c09f"/>
     <use xlink:href="#m362494b397" x="282.505481" y="72.828042" style="fill: #00c09f; stroke: #00c09f"/>
    </g>
   </g>
   <g id="line2d_39">
    <g clip-path="url(#pe58aa7bef5)">
     <use xlink:href="#m362494b397" x="60.396085" y="201.84246" style="fill: #00c09f; stroke: #00c09f"/>
     <use xlink:href="#m362494b397" x="72.469433" y="195.084151" style="fill: #00c09f; stroke: #00c09f"/>
     <use xlink:href="#m362494b397" x="83.198356" y="188.425544" style="fill: #00c09f; stroke: #00c09f"/>
     <use xlink:href="#m362494b397" x="97.339857" y="180.225437" style="fill: #00c09f; stroke: #00c09f"/>
     <use xlink:href="#m362494b397" x="105.733051" y="175.451859" style="fill: #00c09f; stroke: #00c09f"/>
     <use xlink:href="#m362494b397" x="117.094507" y="168.698918" style="fill: #00c09f; stroke: #00c09f"/>
     <use xlink:href="#m362494b397" x="130.420611" y="160.953356" style="fill: #00c09f; stroke: #00c09f"/>
     <use xlink:href="#m362494b397" x="142.127187" y="154.234723" style="fill: #00c09f; stroke: #00c09f"/>
     <use xlink:href="#m362494b397" x="155.007743" y="146.587073" style="fill: #00c09f; stroke: #00c09f"/>
     <use xlink:href="#m362494b397" x="166.369199" y="140.069304" style="fill: #00c09f; stroke: #00c09f"/>
     <use xlink:href="#m362494b397" x="176.532367" y="134.205211" style="fill: #00c09f; stroke: #00c09f"/>
     <use xlink:href="#m362494b397" x="189.17147" y="126.897822" style="fill: #00c09f; stroke: #00c09f"/>
     <use xlink:href="#m362494b397" x="200.344709" y="120.506405" style="fill: #00c09f; stroke: #00c09f"/>
     <use xlink:href="#m362494b397" x="211.706165" y="113.81347" style="fill: #00c09f; stroke: #00c09f"/>
     <use xlink:href="#m362494b397" x="224.251205" y="106.513957" style="fill: #00c09f; stroke: #00c09f"/>
     <use xlink:href="#m362494b397" x="235.350894" y="100.084143" style="fill: #00c09f; stroke: #00c09f"/>
     <use xlink:href="#m362494b397" x="247.177222" y="93.250772" style="fill: #00c09f; stroke: #00c09f"/>
     <use xlink:href="#m362494b397" x="259.359627" y="86.235577" style="fill: #00c09f; stroke: #00c09f"/>
     <use xlink:href="#m362494b397" x="270.902571" y="79.509903" style="fill: #00c09f; stroke: #00c09f"/>
     <use xlink:href="#m362494b397" x="282.505481" y="72.786653" style="fill: #00c09f; stroke: #00c09f"/>
    </g>
   </g>
   <g id="line2d_40">
    <path d="M 55.448289 205.011604 
L 64.777096 199.498915 
L 73.282731 194.48784 
L 81.098762 189.893909 
L 88.328671 185.652474 
L 95.054266 181.712923 
L 101.341337 178.034874 
L 107.243588 174.585579 
L 112.805421 171.338105 
L 118.063971 168.270032 
L 123.050613 165.362494 
L 127.792086 162.59946 
L 132.311375 159.967195 
L 136.628373 157.453841 
L 140.760416 155.049085 
L 144.722703 152.743903 
L 148.528635 150.530357 
L 152.190084 148.40142 
L 155.71762 146.350847 
L 159.120693 144.373062 
L 162.407788 142.463064 
L 165.58655 140.61635 
L 168.663894 138.828854 
L 171.646089 137.096889 
L 174.538845 135.417103 
L 177.347371 133.786439 
L 180.076432 132.202101 
L 182.730403 130.661527 
L 185.313304 129.162359 
L 187.828845 127.702428 
L 190.280447 126.279729 
L 192.671283 124.892408 
L 195.00429 123.538747 
L 197.282201 122.21715 
L 199.507559 120.926129 
L 201.682733 119.664302 
L 203.809936 118.430376 
L 205.89124 117.223142 
L 207.928584 116.04147 
L 209.923785 114.884297 
L 211.878552 113.750629 
L 213.794492 112.639528 
L 215.673117 111.550112 
L 217.515852 110.481552 
L 219.324044 109.433062 
L 221.098963 108.403903 
L 222.841812 107.393373 
L 224.55373 106.40081 
L 226.235794 105.425585 
L 227.889029 104.467104 
L 229.514407 103.5248 
L 231.11285 102.598136 
L 232.685236 101.686601 
L 234.232402 100.789709 
L 235.755143 99.906996 
L 237.25422 99.038021 
L 238.730356 98.182363 
L 240.184242 97.339619 
L 241.61654 96.509405 
L 243.027882 95.691354 
L 244.418871 94.885114 
L 245.790087 94.09035 
L 247.142083 93.306738 
L 248.475392 92.53397 
L 249.790522 91.77175 
L 251.087962 91.019794 
L 252.368183 90.277828 
L 253.631636 89.545592 
L 254.878753 88.822832 
L 256.109952 88.109306 
L 257.325634 87.404782 
L 258.526186 86.709035 
L 259.711979 86.021849 
L 260.883372 85.343016 
L 262.04071 84.672335 
L 263.184328 84.009612 
L 264.314545 83.354661 
L 265.431673 82.707302 
L 266.536012 82.067361 
L 267.62785 81.434669 
L 268.707468 80.809064 
L 269.775136 80.190388 
L 270.831116 79.578491 
L 271.875661 78.973225 
L 272.909017 78.374448 
L 273.931419 77.782022 
L 274.943098 77.195814 
L 275.944277 76.615695 
L 276.935171 76.041539 
L 277.91599 75.473225 
L 278.886936 74.910635 
L 279.848206 74.353656 
L 280.799991 73.802176 
L 281.742476 73.256087 
L 282.675842 72.715286 
L 283.600263 72.179671 
L 284.515909 71.649143 
L 285.422944 71.123607 
L 286.321531 70.602969 
L 287.211823 70.087139 
" clip-path="url(#pe58aa7bef5)" style="fill: none; stroke: #00c09f; stroke-opacity: 0.5; stroke-width: 1.5; stroke-linecap: square"/>
   </g>
   <g id="LineCollection_3">
    <path d="M 60.396085 185.550054 
L 60.396085 185.327299 
" clip-path="url(#pe58aa7bef5)" style="fill: none; stroke: #0080bf; stroke-width: 1.5"/>
    <path d="M 72.469433 178.428285 
L 72.469433 178.225687 
" clip-path="url(#pe58aa7bef5)" style="fill: none; stroke: #0080bf; stroke-width: 1.5"/>
    <path d="M 83.198356 172.117543 
L 83.198356 171.933272 
" clip-path="url(#pe58aa7bef5)" style="fill: none; stroke: #0080bf; stroke-width: 1.5"/>
    <path d="M 97.339857 163.872449 
L 97.339857 163.706896 
" clip-path="url(#pe58aa7bef5)" style="fill: none; stroke: #0080bf; stroke-width: 1.5"/>
    <path d="M 105.733051 158.895545 
L 105.733051 158.743293 
" clip-path="url(#pe58aa7bef5)" style="fill: none; stroke: #0080bf; stroke-width: 1.5"/>
    <path d="M 117.094507 152.511233 
L 117.094507 152.376846 
" clip-path="url(#pe58aa7bef5)" style="fill: none; stroke: #0080bf; stroke-width: 1.5"/>
    <path d="M 130.420611 144.665557 
L 130.420611 144.543092 
" clip-path="url(#pe58aa7bef5)" style="fill: none; stroke: #0080bf; stroke-width: 1.5"/>
    <path d="M 142.127187 137.934776 
L 142.127187 137.823636 
" clip-path="url(#pe58aa7bef5)" style="fill: none; stroke: #0080bf; stroke-width: 1.5"/>
    <path d="M 155.007743 130.419344 
L 155.007743 130.323815 
" clip-path="url(#pe58aa7bef5)" style="fill: none; stroke: #0080bf; stroke-width: 1.5"/>
    <path d="M 166.369199 123.737746 
L 166.369199 123.646815 
" clip-path="url(#pe58aa7bef5)" style="fill: none; stroke: #0080bf; stroke-width: 1.5"/>
    <path d="M 176.532367 117.900014 
L 176.532367 117.81816 
" clip-path="url(#pe58aa7bef5)" style="fill: none; stroke: #0080bf; stroke-width: 1.5"/>
    <path d="M 189.17147 110.535036 
L 189.17147 110.46429 
" clip-path="url(#pe58aa7bef5)" style="fill: none; stroke: #0080bf; stroke-width: 1.5"/>
    <path d="M 200.344709 104.033768 
L 200.344709 103.968635 
" clip-path="url(#pe58aa7bef5)" style="fill: none; stroke: #0080bf; stroke-width: 1.5"/>
    <path d="M 211.706165 97.44703 
L 211.706165 97.387739 
" clip-path="url(#pe58aa7bef5)" style="fill: none; stroke: #0080bf; stroke-width: 1.5"/>
    <path d="M 224.251205 90.200345 
L 224.251205 90.150511 
" clip-path="url(#pe58aa7bef5)" style="fill: none; stroke: #0080bf; stroke-width: 1.5"/>
    <path d="M 235.350894 83.752527 
L 235.350894 83.707614 
" clip-path="url(#pe58aa7bef5)" style="fill: none; stroke: #0080bf; stroke-width: 1.5"/>
    <path d="M 247.177222 76.867033 
L 247.177222 76.821792 
" clip-path="url(#pe58aa7bef5)" style="fill: none; stroke: #0080bf; stroke-width: 1.5"/>
    <path d="M 259.359627 69.850808 
L 259.359627 69.811729 
" clip-path="url(#pe58aa7bef5)" style="fill: none; stroke: #0080bf; stroke-width: 1.5"/>
    <path d="M 270.902571 63.117767 
L 270.902571 63.086282 
" clip-path="url(#pe58aa7bef5)" style="fill: none; stroke: #0080bf; stroke-width: 1.5"/>
    <path d="M 282.505481 56.395754 
L 282.505481 56.367012 
" clip-path="url(#pe58aa7bef5)" style="fill: none; stroke: #0080bf; stroke-width: 1.5"/>
   </g>
   <g id="line2d_41">
    <defs>
     <path id="me3896d701a" d="M 2 0 
L -2 -0 
" style="stroke: #0080bf"/>
    </defs>
    <g clip-path="url(#pe58aa7bef5)">
     <use xlink:href="#me3896d701a" x="60.396085" y="185.550054" style="fill: #0080bf; stroke: #0080bf"/>
     <use xlink:href="#me3896d701a" x="72.469433" y="178.428285" style="fill: #0080bf; stroke: #0080bf"/>
     <use xlink:href="#me3896d701a" x="83.198356" y="172.117543" style="fill: #0080bf; stroke: #0080bf"/>
     <use xlink:href="#me3896d701a" x="97.339857" y="163.872449" style="fill: #0080bf; stroke: #0080bf"/>
     <use xlink:href="#me3896d701a" x="105.733051" y="158.895545" style="fill: #0080bf; stroke: #0080bf"/>
     <use xlink:href="#me3896d701a" x="117.094507" y="152.511233" style="fill: #0080bf; stroke: #0080bf"/>
     <use xlink:href="#me3896d701a" x="130.420611" y="144.665557" style="fill: #0080bf; stroke: #0080bf"/>
     <use xlink:href="#me3896d701a" x="142.127187" y="137.934776" style="fill: #0080bf; stroke: #0080bf"/>
     <use xlink:href="#me3896d701a" x="155.007743" y="130.419344" style="fill: #0080bf; stroke: #0080bf"/>
     <use xlink:href="#me3896d701a" x="166.369199" y="123.737746" style="fill: #0080bf; stroke: #0080bf"/>
     <use xlink:href="#me3896d701a" x="176.532367" y="117.900014" style="fill: #0080bf; stroke: #0080bf"/>
     <use xlink:href="#me3896d701a" x="189.17147" y="110.535036" style="fill: #0080bf; stroke: #0080bf"/>
     <use xlink:href="#me3896d701a" x="200.344709" y="104.033768" style="fill: #0080bf; stroke: #0080bf"/>
     <use xlink:href="#me3896d701a" x="211.706165" y="97.44703" style="fill: #0080bf; stroke: #0080bf"/>
     <use xlink:href="#me3896d701a" x="224.251205" y="90.200345" style="fill: #0080bf; stroke: #0080bf"/>
     <use xlink:href="#me3896d701a" x="235.350894" y="83.752527" style="fill: #0080bf; stroke: #0080bf"/>
     <use xlink:href="#me3896d701a" x="247.177222" y="76.867033" style="fill: #0080bf; stroke: #0080bf"/>
     <use xlink:href="#me3896d701a" x="259.359627" y="69.850808" style="fill: #0080bf; stroke: #0080bf"/>
     <use xlink:href="#me3896d701a" x="270.902571" y="63.117767" style="fill: #0080bf; stroke: #0080bf"/>
     <use xlink:href="#me3896d701a" x="282.505481" y="56.395754" style="fill: #0080bf; stroke: #0080bf"/>
    </g>
   </g>
   <g id="line2d_42">
    <g clip-path="url(#pe58aa7bef5)">
     <use xlink:href="#me3896d701a" x="60.396085" y="185.327299" style="fill: #0080bf; stroke: #0080bf"/>
     <use xlink:href="#me3896d701a" x="72.469433" y="178.225687" style="fill: #0080bf; stroke: #0080bf"/>
     <use xlink:href="#me3896d701a" x="83.198356" y="171.933272" style="fill: #0080bf; stroke: #0080bf"/>
     <use xlink:href="#me3896d701a" x="97.339857" y="163.706896" style="fill: #0080bf; stroke: #0080bf"/>
     <use xlink:href="#me3896d701a" x="105.733051" y="158.743293" style="fill: #0080bf; stroke: #0080bf"/>
     <use xlink:href="#me3896d701a" x="117.094507" y="152.376846" style="fill: #0080bf; stroke: #0080bf"/>
     <use xlink:href="#me3896d701a" x="130.420611" y="144.543092" style="fill: #0080bf; stroke: #0080bf"/>
     <use xlink:href="#me3896d701a" x="142.127187" y="137.823636" style="fill: #0080bf; stroke: #0080bf"/>
     <use xlink:href="#me3896d701a" x="155.007743" y="130.323815" style="fill: #0080bf; stroke: #0080bf"/>
     <use xlink:href="#me3896d701a" x="166.369199" y="123.646815" style="fill: #0080bf; stroke: #0080bf"/>
     <use xlink:href="#me3896d701a" x="176.532367" y="117.81816" style="fill: #0080bf; stroke: #0080bf"/>
     <use xlink:href="#me3896d701a" x="189.17147" y="110.46429" style="fill: #0080bf; stroke: #0080bf"/>
     <use xlink:href="#me3896d701a" x="200.344709" y="103.968635" style="fill: #0080bf; stroke: #0080bf"/>
     <use xlink:href="#me3896d701a" x="211.706165" y="97.387739" style="fill: #0080bf; stroke: #0080bf"/>
     <use xlink:href="#me3896d701a" x="224.251205" y="90.150511" style="fill: #0080bf; stroke: #0080bf"/>
     <use xlink:href="#me3896d701a" x="235.350894" y="83.707614" style="fill: #0080bf; stroke: #0080bf"/>
     <use xlink:href="#me3896d701a" x="247.177222" y="76.821792" style="fill: #0080bf; stroke: #0080bf"/>
     <use xlink:href="#me3896d701a" x="259.359627" y="69.811729" style="fill: #0080bf; stroke: #0080bf"/>
     <use xlink:href="#me3896d701a" x="270.902571" y="63.086282" style="fill: #0080bf; stroke: #0080bf"/>
     <use xlink:href="#me3896d701a" x="282.505481" y="56.367012" style="fill: #0080bf; stroke: #0080bf"/>
    </g>
   </g>
   <g id="line2d_43">
    <path d="M 55.448289 188.256889 
L 64.777096 182.809696 
L 73.282731 177.84854 
L 81.098762 173.293479 
L 88.328671 169.082852 
L 95.054266 165.168086 
L 101.341337 161.51023 
L 107.243588 158.077564 
L 112.805421 154.843914 
L 118.063971 151.787425 
L 123.050613 148.889661 
L 127.792086 146.134924 
L 132.311375 143.509739 
L 136.628373 141.002453 
L 140.760416 138.602919 
L 144.722703 136.302244 
L 148.528635 134.092599 
L 152.190084 131.967045 
L 155.71762 129.919412 
L 159.120693 127.944184 
L 162.407788 126.03641 
L 165.58655 124.191632 
L 168.663894 122.405819 
L 171.646089 120.675317 
L 174.538845 118.9968 
L 177.347371 117.367234 
L 180.076432 115.783842 
L 182.730403 114.244079 
L 185.313304 112.745604 
L 187.828845 111.286258 
L 190.280447 109.86405 
L 192.671283 108.477136 
L 195.00429 107.123804 
L 197.282201 105.802467 
L 199.507559 104.511646 
L 201.682733 103.249963 
L 203.809936 102.016131 
L 205.89124 100.808947 
L 207.928584 99.627282 
L 209.923785 98.470081 
L 211.878552 97.336351 
L 213.794492 96.225157 
L 215.673117 95.135622 
L 217.515852 94.066917 
L 219.324044 93.01826 
L 221.098963 91.988913 
L 222.841812 90.978177 
L 224.55373 89.98539 
L 226.235794 89.009928 
L 227.889029 88.051194 
L 229.514407 87.108625 
L 231.11285 86.181684 
L 232.685236 85.269862 
L 234.232402 84.372673 
L 235.755143 83.489655 
L 237.25422 82.620368 
L 238.730356 81.76439 
L 240.184242 80.92132 
L 241.61654 80.090774 
L 243.027882 79.272386 
L 244.418871 78.465805 
L 245.790087 77.670695 
L 247.142083 76.886735 
L 248.475392 76.113615 
L 249.790522 75.35104 
L 251.087962 74.598726 
L 252.368183 73.856401 
L 253.631636 73.123803 
L 254.878753 72.40068 
L 256.109952 71.686791 
L 257.325634 70.981902 
L 258.526186 70.285788 
L 259.711979 69.598236 
L 260.883372 68.919035 
L 262.04071 68.247987 
L 263.184328 67.584897 
L 264.314545 66.929578 
L 265.431673 66.281852 
L 266.536012 65.641543 
L 267.62785 65.008484 
L 268.707468 64.382513 
L 269.775136 63.763472 
L 270.831116 63.15121 
L 271.875661 62.54558 
L 272.909017 61.946439 
L 273.931419 61.353651 
L 274.943098 60.767081 
L 275.944277 60.186601 
L 276.935171 59.612086 
L 277.91599 59.043414 
L 278.886936 58.480467 
L 279.848206 57.923132 
L 280.799991 57.371297 
L 281.742476 56.824855 
L 282.675842 56.283702 
L 283.600263 55.747736 
L 284.515909 55.216859 
L 285.422944 54.690975 
L 286.321531 54.169991 
L 287.211823 53.653816 
" clip-path="url(#pe58aa7bef5)" style="fill: none; stroke: #0080bf; stroke-opacity: 0.5; stroke-width: 1.5; stroke-linecap: square"/>
   </g>
   <g id="line2d_44">
    <defs>
     <path id="m88fae87f35" d="M 0 3 
C 0.795609 3 1.55874 2.683901 2.12132 2.12132 
C 2.683901 1.55874 3 0.795609 3 0 
C 3 -0.795609 2.683901 -1.55874 2.12132 -2.12132 
C 1.55874 -2.683901 0.795609 -3 0 -3 
C -0.795609 -3 -1.55874 -2.683901 -2.12132 -2.12132 
C -2.683901 -1.55874 -3 -0.795609 -3 0 
C -3 0.795609 -2.683901 1.55874 -2.12132 2.12132 
C -1.55874 2.683901 -0.795609 3 0 3 
z
" style="stroke: #000000"/>
    </defs>
    <g clip-path="url(#pe58aa7bef5)">
     <use xlink:href="#m88fae87f35" x="60.396085" y="151.607795" style="fill-opacity: 0; stroke: #000000"/>
     <use xlink:href="#m88fae87f35" x="72.469433" y="144.607239" style="fill-opacity: 0; stroke: #000000"/>
     <use xlink:href="#m88fae87f35" x="83.198356" y="138.329158" style="fill-opacity: 0; stroke: #000000"/>
     <use xlink:href="#m88fae87f35" x="97.339857" y="130.016137" style="fill-opacity: 0; stroke: #000000"/>
     <use xlink:href="#m88fae87f35" x="105.733051" y="125.285642" style="fill-opacity: 0; stroke: #000000"/>
     <use xlink:href="#m88fae87f35" x="117.094507" y="118.54169" style="fill-opacity: 0; stroke: #000000"/>
     <use xlink:href="#m88fae87f35" x="130.420611" y="110.838786" style="fill-opacity: 0; stroke: #000000"/>
     <use xlink:href="#m88fae87f35" x="142.127187" y="104.065961" style="fill-opacity: 0; stroke: #000000"/>
     <use xlink:href="#m88fae87f35" x="155.007743" y="96.629514" style="fill-opacity: 0; stroke: #000000"/>
     <use xlink:href="#m88fae87f35" x="166.369199" y="90.062834" style="fill-opacity: 0; stroke: #000000"/>
     <use xlink:href="#m88fae87f35" x="176.532367" y="84.150435" style="fill-opacity: 0; stroke: #000000"/>
     <use xlink:href="#m88fae87f35" x="189.17147" y="76.752882" style="fill-opacity: 0; stroke: #000000"/>
     <use xlink:href="#m88fae87f35" x="200.344709" y="70.356157" style="fill-opacity: 0; stroke: #000000"/>
     <use xlink:href="#m88fae87f35" x="211.706165" y="63.734078" style="fill-opacity: 0; stroke: #000000"/>
     <use xlink:href="#m88fae87f35" x="224.251205" y="56.49598" style="fill-opacity: 0; stroke: #000000"/>
     <use xlink:href="#m88fae87f35" x="235.350894" y="50.076805" style="fill-opacity: 0; stroke: #000000"/>
     <use xlink:href="#m88fae87f35" x="247.177222" y="43.217558" style="fill-opacity: 0; stroke: #000000"/>
     <use xlink:href="#m88fae87f35" x="259.359627" y="36.180575" style="fill-opacity: 0; stroke: #000000"/>
     <use xlink:href="#m88fae87f35" x="270.902571" y="29.472044" style="fill-opacity: 0; stroke: #000000"/>
     <use xlink:href="#m88fae87f35" x="282.505481" y="22.481786" style="fill-opacity: 0; stroke: #000000"/>
    </g>
   </g>
   <g id="line2d_45">
    <g clip-path="url(#pe58aa7bef5)">
     <use xlink:href="#m88fae87f35" x="60.396085" y="201.993635" style="fill-opacity: 0; stroke: #000000"/>
     <use xlink:href="#m88fae87f35" x="72.469433" y="195.218009" style="fill-opacity: 0; stroke: #000000"/>
     <use xlink:href="#m88fae87f35" x="83.198356" y="188.543781" style="fill-opacity: 0; stroke: #000000"/>
     <use xlink:href="#m88fae87f35" x="97.339857" y="180.333344" style="fill-opacity: 0; stroke: #000000"/>
     <use xlink:href="#m88fae87f35" x="105.733051" y="175.551854" style="fill-opacity: 0; stroke: #000000"/>
     <use xlink:href="#m88fae87f35" x="117.094507" y="168.790578" style="fill-opacity: 0; stroke: #000000"/>
     <use xlink:href="#m88fae87f35" x="130.420611" y="161.032146" style="fill-opacity: 0; stroke: #000000"/>
     <use xlink:href="#m88fae87f35" x="142.127187" y="154.307953" style="fill-opacity: 0; stroke: #000000"/>
     <use xlink:href="#m88fae87f35" x="155.007743" y="146.652515" style="fill-opacity: 0; stroke: #000000"/>
     <use xlink:href="#m88fae87f35" x="166.369199" y="140.127908" style="fill-opacity: 0; stroke: #000000"/>
     <use xlink:href="#m88fae87f35" x="176.532367" y="134.25943" style="fill-opacity: 0; stroke: #000000"/>
     <use xlink:href="#m88fae87f35" x="189.17147" y="126.944208" style="fill-opacity: 0; stroke: #000000"/>
     <use xlink:href="#m88fae87f35" x="200.344709" y="120.549937" style="fill-opacity: 0; stroke: #000000"/>
     <use xlink:href="#m88fae87f35" x="211.706165" y="113.851028" style="fill-opacity: 0; stroke: #000000"/>
     <use xlink:href="#m88fae87f35" x="224.251205" y="106.547918" style="fill-opacity: 0; stroke: #000000"/>
     <use xlink:href="#m88fae87f35" x="235.350894" y="100.113122" style="fill-opacity: 0; stroke: #000000"/>
     <use xlink:href="#m88fae87f35" x="247.177222" y="93.279553" style="fill-opacity: 0; stroke: #000000"/>
     <use xlink:href="#m88fae87f35" x="259.359627" y="86.261103" style="fill-opacity: 0; stroke: #000000"/>
     <use xlink:href="#m88fae87f35" x="270.902571" y="79.532096" style="fill-opacity: 0; stroke: #000000"/>
     <use xlink:href="#m88fae87f35" x="282.505481" y="72.807341" style="fill-opacity: 0; stroke: #000000"/>
    </g>
   </g>
   <g id="line2d_46">
    <g clip-path="url(#pe58aa7bef5)">
     <use xlink:href="#m88fae87f35" x="60.396085" y="185.438482" style="fill-opacity: 0; stroke: #000000"/>
     <use xlink:href="#m88fae87f35" x="72.469433" y="178.326825" style="fill-opacity: 0; stroke: #000000"/>
     <use xlink:href="#m88fae87f35" x="83.198356" y="172.025274" style="fill-opacity: 0; stroke: #000000"/>
     <use xlink:href="#m88fae87f35" x="97.339857" y="163.789565" style="fill-opacity: 0; stroke: #000000"/>
     <use xlink:href="#m88fae87f35" x="105.733051" y="158.819328" style="fill-opacity: 0; stroke: #000000"/>
     <use xlink:href="#m88fae87f35" x="117.094507" y="152.443969" style="fill-opacity: 0; stroke: #000000"/>
     <use xlink:href="#m88fae87f35" x="130.420611" y="144.604266" style="fill-opacity: 0; stroke: #000000"/>
     <use xlink:href="#m88fae87f35" x="142.127187" y="137.879158" style="fill-opacity: 0; stroke: #000000"/>
     <use xlink:href="#m88fae87f35" x="155.007743" y="130.371544" style="fill-opacity: 0; stroke: #000000"/>
     <use xlink:href="#m88fae87f35" x="166.369199" y="123.692248" style="fill-opacity: 0; stroke: #000000"/>
     <use xlink:href="#m88fae87f35" x="176.532367" y="117.859061" style="fill-opacity: 0; stroke: #000000"/>
     <use xlink:href="#m88fae87f35" x="189.17147" y="110.499643" style="fill-opacity: 0; stroke: #000000"/>
     <use xlink:href="#m88fae87f35" x="200.344709" y="104.001185" style="fill-opacity: 0; stroke: #000000"/>
     <use xlink:href="#m88fae87f35" x="211.706165" y="97.417371" style="fill-opacity: 0; stroke: #000000"/>
     <use xlink:href="#m88fae87f35" x="224.251205" y="90.175418" style="fill-opacity: 0; stroke: #000000"/>
     <use xlink:href="#m88fae87f35" x="235.350894" y="83.730063" style="fill-opacity: 0; stroke: #000000"/>
     <use xlink:href="#m88fae87f35" x="247.177222" y="76.844404" style="fill-opacity: 0; stroke: #000000"/>
     <use xlink:href="#m88fae87f35" x="259.359627" y="69.831262" style="fill-opacity: 0; stroke: #000000"/>
     <use xlink:href="#m88fae87f35" x="270.902571" y="63.102021" style="fill-opacity: 0; stroke: #000000"/>
     <use xlink:href="#m88fae87f35" x="282.505481" y="56.38138" style="fill-opacity: 0; stroke: #000000"/>
    </g>
   </g>
   <g id="patch_3">
    <path d="M 43.860112 214.259776 
L 43.860112 10.8 
" style="fill: none; stroke: #000000; stroke-width: 0.8; stroke-linejoin: miter; stroke-linecap: square"/>
   </g>
   <g id="patch_4">
    <path d="M 298.8 214.259776 
L 298.8 10.8 
" style="fill: none; stroke: #000000; stroke-width: 0.8; stroke-linejoin: miter; stroke-linecap: square"/>
   </g>
   <g id="patch_5">
    <path d="M 43.860112 214.259776 
L 298.8 214.259776 
" style="fill: none; stroke: #000000; stroke-width: 0.8; stroke-linejoin: miter; stroke-linecap: square"/>
   </g>
   <g id="patch_6">
    <path d="M 43.860112 10.8 
L 298.8 10.8 
" style="fill: none; stroke: #000000; stroke-width: 0.8; stroke-linejoin: miter; stroke-linecap: square"/>
   </g>
   <g id="legend_1">
    <g id="patch_7">
     <path d="M 50.860112 48.611535 
L 88.080851 48.611535 
Q 90.080851 48.611535 90.080851 46.611535 
L 90.080851 17.8 
Q 90.080851 15.8 88.080851 15.8 
L 50.860112 15.8 
Q 48.860112 15.8 48.860112 17.8 
L 48.860112 46.611535 
Q 48.860112 48.611535 50.860112 48.611535 
z
" style="fill: #ffffff; opacity: 0.8; stroke: #cccccc; stroke-linejoin: miter"/>
    </g>
    <g id="LineCollection_4">
     <path d="M 60.860112 26.3 
L 60.860112 16.3 
" style="fill: none; stroke: #0040df; stroke-width: 1.5"/>
    </g>
    <g id="line2d_47">
     <g>
      <use xlink:href="#mf7cd1c43d0" x="60.860112" y="26.3" style="fill: #0040df; stroke: #0040df"/>
     </g>
    </g>
    <g id="line2d_48">
     <g>
      <use xlink:href="#mf7cd1c43d0" x="60.860112" y="16.3" style="fill: #0040df; stroke: #0040df"/>
     </g>
    </g>
    <g id="line2d_49"/>
    <g id="line2d_50">
     <g>
      <use xlink:href="#m88fae87f35" x="60.860112" y="21.3" style="fill-opacity: 0; stroke: #000000"/>
     </g>
    </g>
    <g id="text_7">
     <!-- hex -->
     <g transform="translate(72.860112 24.8) scale(0.1 -0.1)">
      <defs>
       <path id="CMR17-68" d="M 2656 1933 
C 2656 2259 2592 2790 1837 2790 
C 1312 2790 1056 2368 979 2157 
L 973 2157 
L 973 4396 
L 211 4326 
L 211 4160 
C 589 4160 646 4122 646 3817 
L 646 426 
C 646 184 621 153 211 153 
L 211 -13 
C 365 0 646 0 813 0 
C 979 0 1267 0 1421 -13 
L 1421 153 
C 1011 153 986 178 986 428 
L 986 1658 
C 986 2247 1344 2688 1792 2688 
C 2266 2688 2317 2266 2317 1958 
L 2317 428 
C 2317 184 2291 153 1882 153 
L 1882 -13 
C 2035 0 2317 0 2483 0 
C 2650 0 2938 0 3091 -13 
L 3091 153 
C 2682 153 2656 178 2656 428 
L 2656 1933 
z
" transform="scale(0.015625)"/>
       <path id="CMR17-65" d="M 2438 1472 
C 2464 1498 2464 1511 2464 1576 
C 2464 2238 2118 2816 1389 2816 
C 710 2816 173 2169 173 1383 
C 173 551 781 -64 1459 -64 
C 2176 -64 2458 607 2458 740 
C 2458 784 2419 784 2406 784 
C 2362 784 2355 771 2330 696 
C 2189 265 1837 51 1504 51 
C 1229 51 954 203 781 480 
C 582 803 582 1176 582 1472 
L 2438 1472 
z
M 589 1568 
C 634 2505 1126 2714 1382 2714 
C 1818 2714 2112 2297 2118 1568 
L 589 1568 
z
" transform="scale(0.015625)"/>
       <path id="CMR17-78" d="M 1664 1477 
C 1856 1726 2074 2006 2253 2216 
C 2464 2458 2707 2560 2989 2560 
L 2989 2726 
C 2880 2726 2656 2726 2541 2726 
C 2368 2726 2170 2726 2022 2732 
L 2022 2566 
C 2112 2553 2163 2489 2163 2400 
C 2163 2285 2099 2215 2067 2171 
L 1594 1573 
L 1030 2306 
C 973 2376 973 2388 973 2420 
C 973 2497 1037 2560 1146 2560 
L 1146 2732 
C 992 2726 717 2726 557 2726 
C 384 2726 179 2726 38 2732 
L 38 2560 
C 384 2560 461 2534 614 2343 
L 1350 1395 
C 1363 1382 1395 1344 1395 1325 
C 1395 1299 838 619 768 530 
C 480 185 179 160 6 160 
L 6 0 
C 115 0 339 0 454 0 
C 582 0 864 0 979 -6 
L 979 160 
C 941 166 838 179 838 325 
C 838 440 890 510 947 586 
L 1478 1236 
L 2035 512 
C 2086 442 2163 346 2163 301 
C 2163 211 2086 160 1984 160 
L 1984 -6 
C 2138 0 2413 0 2573 0 
C 2746 0 2950 0 3091 -6 
L 3091 160 
C 2771 160 2675 172 2522 370 
L 1664 1477 
z
" transform="scale(0.015625)"/>
      </defs>
      <use xlink:href="#CMR17-68" transform="scale(0.996264)"/>
      <use xlink:href="#CMR17-65" transform="translate(50.89537 0) scale(0.996264)"/>
      <use xlink:href="#CMR17-78" transform="translate(91.38103 0) scale(0.996264)"/>
     </g>
    </g>
    <g id="LineCollection_5">
     <path d="M 60.860112 36.237178 
L 60.860112 26.237178 
" style="fill: none; stroke: #00c09f; stroke-width: 1.5"/>
    </g>
    <g id="line2d_51">
     <g>
      <use xlink:href="#m362494b397" x="60.860112" y="36.237178" style="fill: #00c09f; stroke: #00c09f"/>
     </g>
    </g>
    <g id="line2d_52">
     <g>
      <use xlink:href="#m362494b397" x="60.860112" y="26.237178" style="fill: #00c09f; stroke: #00c09f"/>
     </g>
    </g>
    <g id="line2d_53"/>
    <g id="line2d_54">
     <g>
      <use xlink:href="#m88fae87f35" x="60.860112" y="31.237178" style="fill-opacity: 0; stroke: #000000"/>
     </g>
    </g>
    <g id="text_8">
     <!-- tri -->
     <g transform="translate(72.860112 34.737178) scale(0.1 -0.1)">
      <defs>
       <path id="CMR17-74" d="M 966 2560 
L 1862 2560 
L 1862 2725 
L 966 2725 
L 966 3904 
L 851 3904 
C 838 3245 614 2668 70 2668 
L 70 2560 
L 627 2560 
L 627 771 
C 627 650 627 -64 1370 -64 
C 1747 -64 1965 306 1965 777 
L 1965 1140 
L 1850 1140 
L 1850 783 
C 1850 344 1677 51 1408 51 
C 1222 51 966 178 966 758 
L 966 2560 
z
" transform="scale(0.015625)"/>
       <path id="CMR17-72" d="M 960 1497 
C 960 2112 1222 2688 1702 2688 
C 1747 2688 1792 2682 1837 2662 
C 1837 2662 1696 2617 1696 2452 
C 1696 2298 1818 2234 1914 2234 
C 1990 2234 2131 2279 2131 2458 
C 2131 2663 1926 2790 1709 2790 
C 1222 2790 1011 2317 947 2093 
L 941 2093 
L 941 2790 
L 198 2720 
L 198 2554 
C 576 2554 634 2515 634 2208 
L 634 428 
C 634 184 608 153 198 153 
L 198 -13 
C 352 0 646 0 813 0 
C 998 0 1325 0 1498 -13 
L 1498 153 
C 1037 153 960 153 960 440 
L 960 1497 
z
" transform="scale(0.015625)"/>
       <path id="CMR17-69" d="M 992 3909 
C 992 4049 877 4170 730 4170 
C 589 4170 467 4056 467 3909 
C 467 3769 582 3648 730 3648 
C 870 3648 992 3763 992 3909 
z
M 243 2706 
L 243 2541 
C 602 2541 653 2502 653 2197 
L 653 427 
C 653 184 627 153 218 153 
L 218 -13 
C 371 0 646 0 806 0 
C 960 0 1222 0 1370 -13 
L 1370 153 
C 992 153 979 191 979 420 
L 979 2776 
L 243 2706 
z
" transform="scale(0.015625)"/>
      </defs>
      <use xlink:href="#CMR17-74" transform="scale(0.996264)"/>
      <use xlink:href="#CMR17-72" transform="translate(35.280768 0) scale(0.996264)"/>
      <use xlink:href="#CMR17-69" transform="translate(70.561536 0) scale(0.996264)"/>
     </g>
    </g>
    <g id="LineCollection_6">
     <path d="M 60.860112 46.174357 
L 60.860112 36.174357 
" style="fill: none; stroke: #0080bf; stroke-width: 1.5"/>
    </g>
    <g id="line2d_55">
     <g>
      <use xlink:href="#me3896d701a" x="60.860112" y="46.174357" style="fill: #0080bf; stroke: #0080bf"/>
     </g>
    </g>
    <g id="line2d_56">
     <g>
      <use xlink:href="#me3896d701a" x="60.860112" y="36.174357" style="fill: #0080bf; stroke: #0080bf"/>
     </g>
    </g>
    <g id="line2d_57"/>
    <g id="line2d_58">
     <g>
      <use xlink:href="#m88fae87f35" x="60.860112" y="41.174357" style="fill-opacity: 0; stroke: #000000"/>
     </g>
    </g>
    <g id="text_9">
     <!-- sqr -->
     <g transform="translate(72.860112 44.674357) scale(0.1 -0.1)">
      <defs>
       <path id="CMR17-73" d="M 1978 2697 
C 1978 2813 1971 2819 1933 2819 
C 1907 2819 1901 2813 1824 2717 
C 1805 2691 1747 2626 1728 2601 
C 1523 2819 1235 2819 1126 2819 
C 416 2819 160 2447 160 2076 
C 160 1498 813 1365 998 1325 
C 1402 1243 1542 1217 1677 1101 
C 1760 1025 1901 884 1901 654 
C 1901 384 1747 38 1158 38 
C 602 38 403 460 288 1021 
C 269 1110 269 1117 218 1117 
C 166 1117 160 1110 160 983 
L 160 63 
C 160 -51 166 -58 205 -58 
C 237 -58 243 -51 275 0 
C 314 57 410 211 448 276 
C 576 103 800 -64 1158 -64 
C 1792 -64 2131 283 2131 784 
C 2131 1112 1958 1285 1875 1362 
C 1683 1561 1459 1606 1190 1657 
C 838 1735 390 1825 390 2217 
C 390 2383 480 2737 1126 2737 
C 1811 2737 1850 2094 1862 1888 
C 1869 1856 1901 1849 1920 1849 
C 1978 1849 1978 1869 1978 1978 
L 1978 2697 
z
" transform="scale(0.015625)"/>
       <path id="CMR17-71" d="M 2630 2802 
L 2528 2802 
L 2336 2172 
C 2189 2509 1920 2802 1491 2802 
C 838 2802 211 2223 211 1383 
C 211 548 800 -38 1440 -38 
C 1933 -38 2208 338 2291 478 
L 2291 -789 
C 2291 -1031 2266 -1063 1856 -1063 
L 1856 -1228 
C 2010 -1216 2291 -1216 2458 -1216 
C 2624 -1216 2912 -1216 3066 -1228 
L 3066 -1063 
C 2656 -1063 2630 -1037 2630 -789 
L 2630 2802 
z
M 2304 886 
C 2304 612 2074 357 2054 338 
C 1856 115 1626 64 1472 64 
C 992 64 621 669 621 1375 
C 621 2121 1043 2688 1536 2688 
C 2048 2688 2304 2108 2304 1777 
L 2304 886 
z
" transform="scale(0.015625)"/>
      </defs>
      <use xlink:href="#CMR17-73" transform="scale(0.996264)"/>
      <use xlink:href="#CMR17-71" transform="translate(35.801338 0) scale(0.996264)"/>
      <use xlink:href="#CMR17-72" transform="translate(84.094253 0) scale(0.996264)"/>
     </g>
    </g>
   </g>
  </g>
 </g>
 <defs>
  <clipPath id="pe58aa7bef5">
   <rect x="43.860112" y="10.8" width="254.939888" height="203.459776"/>
  </clipPath>
 </defs>
</svg>
